<svg version="1.1" xmlns="http://www.w3.org/2000/svg" style="display: block;" viewBox="0 0 2048 2048" width="1024" height="1024" preserveAspectRatio="none">
<defs>
	<linearGradient id="Gradient1" gradientUnits="userSpaceOnUse" x1="343.945" y1="1034.91" x2="823.282" y2="1022.39">
		<stop class="stop0" offset="0" stop-opacity="1" stop-color="rgb(194,147,70)"/>
		<stop class="stop1" offset="1" stop-opacity="1" stop-color="rgb(229,199,120)"/>
	</linearGradient>
	<linearGradient id="Gradient2" gradientUnits="userSpaceOnUse" x1="1701.95" y1="1063.87" x2="839.73" y2="1012.53">
		<stop class="stop0" offset="0" stop-opacity="1" stop-color="rgb(215,170,92)"/>
		<stop class="stop1" offset="1" stop-opacity="1" stop-color="rgb(243,228,147)"/>
	</linearGradient>
</defs>
<path transform="translate(0,0)" fill="rgb(16,24,51)" d="M 0 0 L 2048 0 L 2048 2048 L 0 2048 L 0 0 z"/>
<path transform="translate(0,0)" fill="rgb(16,24,51)" d="M 891.152 356.07 C 946.438 345.06 1002.88 340.959 1059.17 343.859 C 1313.67 356.971 1539.54 511.09 1644.56 743.28 C 1749.57 975.47 1716.15 1246.86 1557.93 1446.64 C 1399.72 1646.41 1143.2 1741.11 893.126 1692.08 C 574.028 1629.52 343.697 1350.06 343.216 1024.89 C 342.736 699.714 572.24 419.578 891.152 356.07 z"/>
<path transform="translate(0,0)" fill="url(#Gradient2)" d="M 1059.17 343.859 C 1313.67 356.971 1539.54 511.09 1644.56 743.28 C 1749.57 975.47 1716.15 1246.86 1557.93 1446.64 C 1399.72 1646.41 1143.2 1741.11 893.126 1692.08 C 892.166 1688.85 877.637 1687.25 873.336 1685.96 C 858.327 1681.45 812.378 1672.85 802.532 1664.43 C 802.589 1661.99 807.074 1652.83 807.93 1648.06 C 820.332 1653.33 893.494 1675.15 902.718 1672.19 C 909.861 1671.84 934.443 1676.78 943.148 1677.97 C 964.449 1681.04 985.927 1682.73 1007.45 1683 C 1151.38 1686.74 1292.5 1642.75 1408.82 1557.9 C 1550.28 1456.16 1645.73 1302.58 1674.33 1130.7 C 1702.76 958.593 1661.36 782.256 1559.32 640.781 C 1465.84 510.036 1327.91 417.848 1171.35 381.482 C 1149.41 376.362 1127.17 372.578 1104.77 370.152 C 1094.96 369.038 1078.34 368.075 1069.51 366.606 L 1067.74 366.301 C 1064.31 362.345 1062.84 363.967 1057.31 360.495 C 1055.8 357.724 1056.49 349.385 1056.41 345.394 L 1059.17 343.859 z"/>
<path transform="translate(0,0)" fill="url(#Gradient1)" d="M 893.126 1692.08 C 574.028 1629.52 343.697 1350.06 343.216 1024.89 C 342.736 699.714 572.24 419.578 891.152 356.07 C 887.775 359.418 864.52 363.909 857.902 365.519 C 838.683 370.051 819.746 375.706 801.188 382.454 L 804.853 398.216 C 821.641 398.024 831.891 388.361 844.19 389.738 C 810.816 400.999 789.998 406.92 757.033 421.772 C 615.319 485.491 500.287 596.674 431.784 736.14 C 355.608 891.3 344.024 1070.32 399.569 1234.01 C 456.124 1398.99 575.056 1535.26 730.877 1613.61 C 770.726 1633.69 812.562 1649.55 855.704 1660.95 C 871.711 1665.28 887.235 1668.11 902.718 1672.19 C 893.494 1675.15 820.332 1653.33 807.93 1648.06 C 807.074 1652.83 802.589 1661.99 802.532 1664.43 C 812.378 1672.85 858.327 1681.45 873.336 1685.96 C 877.637 1687.25 892.166 1688.85 893.126 1692.08 z"/>
<path transform="translate(0,0)" fill="rgb(238,217,136)" d="M 891.152 356.07 C 946.438 345.06 1002.88 340.959 1059.17 343.859 L 1056.41 345.394 C 1056.49 349.385 1055.8 357.724 1057.31 360.495 C 1062.84 363.967 1064.31 362.345 1067.74 366.301 C 1011.69 364.086 962.977 365.34 907.198 375.156 C 893.417 377.638 879.737 380.655 866.191 384.201 C 862.409 385.169 847.417 389.339 844.19 389.738 C 831.891 388.361 821.641 398.024 804.853 398.216 L 801.188 382.454 C 819.746 375.706 838.683 370.051 857.902 365.519 C 864.52 363.909 887.775 359.418 891.152 356.07 z"/>
<path transform="translate(0,0)" fill="rgb(225,59,58)" d="M 1166.57 791.41 C 1175.25 790.428 1194.61 791.432 1203.36 792.952 C 1269.28 804.408 1305.13 827.74 1343.72 879.826 C 1332.24 887.847 1321.32 895.418 1311.23 904.564 C 1248.6 961.326 1237.67 1057.27 1280.66 1128.98 C 1300.44 1161.97 1325.06 1181.6 1359.01 1197.82 C 1356.37 1209.11 1352.72 1220.15 1348.1 1230.79 C 1328.88 1276.09 1302.94 1318.22 1271.14 1355.77 C 1233.3 1400.87 1186.9 1429.95 1128.66 1404.81 C 1061.28 1375.73 1026.27 1374.46 957.739 1401.97 C 943.061 1407.5 928.399 1412.7 912.645 1413.74 C 856.477 1417.47 819.508 1372.45 788.526 1332.67 C 695.17 1212.81 639.867 988.521 748.053 861.296 C 797.416 802.465 877.264 779.005 950.606 801.784 C 973.701 809.134 1009.86 826.637 1032.5 826.964 C 1054.7 827.285 1089.55 810.114 1111.56 803.238 C 1132.04 796.841 1144.78 793.262 1166.57 791.41 z"/>
<path transform="translate(0,0)" fill="rgb(225,59,58)" d="M 1180.84 603.378 C 1184.97 603.054 1184.18 602.477 1187.13 604.214 C 1188.74 607.87 1189.29 610.653 1189.37 614.722 C 1190.26 659.851 1171.56 702.833 1141.42 735.7 C 1112.91 766.786 1078.24 782.423 1036.75 784.318 C 1033.38 784.454 1032.85 784.737 1029.71 783.454 C 1029.53 782.806 1029.09 781.355 1029.04 780.815 C 1025.65 742.318 1040.66 702.333 1063.26 672.349 C 1091.58 634.478 1133.96 609.616 1180.84 603.378 z"/>
<path transform="translate(0,0)" fill="rgb(154,172,193)" d="M 504.008 1083.57 C 506.404 1092.35 504.916 1091.92 513.105 1092.19 L 513.499 1093.18 C 511.988 1094.3 510.595 1095.27 509.038 1096.32 C 507.582 1101.18 510.387 1101.77 509.768 1104.65 L 504.039 1099.74 C 501.425 1102.31 500.904 1102.98 497.62 1104.86 C 501.757 1092.61 498.354 1099.37 493.76 1092.56 C 495.703 1091.72 498.177 1091.94 500.471 1091.88 C 502.799 1089.33 502.915 1087.15 504.008 1083.57 z"/>
<path transform="translate(0,0)" fill="rgb(154,172,193)" d="M 1574.43 890.1 C 1577.26 898.898 1575.95 898.389 1584.34 898.16 L 1584.98 898.958 C 1583.52 900.365 1581.85 901.326 1580.1 902.342 C 1578.65 907.816 1580.67 904.395 1580.97 910.374 L 1575.15 905.863 C 1572.13 907.691 1572.72 908.569 1569.1 910.156 C 1570.39 905.612 1571.05 906.124 1569.8 902.489 C 1567.74 901.12 1566.45 900.459 1564.81 898.608 L 1570.44 898.711 C 1572.86 897.009 1573.07 894.608 1573.99 891.567 L 1574.43 890.1 z"/>
<path transform="translate(0,0)" fill="rgb(154,172,193)" d="M 1352.55 1438.87 C 1353.36 1441.85 1353.7 1444.28 1355.61 1446.65 L 1361.26 1447.02 L 1361.49 1447.95 L 1357.41 1450.26 C 1356.06 1453.27 1356.58 1452.5 1357.8 1456.64 L 1357.27 1457.34 L 1352.37 1452.89 L 1347.25 1458.16 L 1346.56 1457.91 L 1348.74 1452.28 C 1347.89 1449.18 1347.76 1450.01 1343.94 1447.74 C 1346.62 1445.55 1345.05 1446.36 1349.16 1446.06 C 1351.83 1444.07 1351.35 1442.9 1352.55 1438.87 z"/>
</svg>