<svg version="1.1" xmlns="http://www.w3.org/2000/svg" style="display: block;" viewBox="0 0 2048 2048" width="2048" height="2048" preserveAspectRatio="none">
<defs>
	<linearGradient id="Gradient1" gradientUnits="userSpaceOnUse" x1="1290.36" y1="1909.97" x2="1222.15" y2="1782.89">
		<stop class="stop0" offset="0" stop-opacity="1" stop-color="rgb(190,142,73)"/>
		<stop class="stop1" offset="1" stop-opacity="1" stop-color="rgb(230,199,124)"/>
	</linearGradient>
	<linearGradient id="Gradient2" gradientUnits="userSpaceOnUse" x1="1415.86" y1="77.1704" x2="981.808" y2="388.761">
		<stop class="stop0" offset="0" stop-opacity="1" stop-color="rgb(187,134,71)"/>
		<stop class="stop1" offset="1" stop-opacity="1" stop-color="rgb(248,233,146)"/>
	</linearGradient>
	<linearGradient id="Gradient3" gradientUnits="userSpaceOnUse" x1="1540.56" y1="1038.79" x2="1933.12" y2="1042.34">
		<stop class="stop0" offset="0" stop-opacity="1" stop-color="rgb(195,149,82)"/>
		<stop class="stop1" offset="1" stop-opacity="1" stop-color="rgb(241,203,131)"/>
	</linearGradient>
	<linearGradient id="Gradient4" gradientUnits="userSpaceOnUse" x1="114.346" y1="1040.05" x2="842.086" y2="1017.33">
		<stop class="stop0" offset="0" stop-opacity="1" stop-color="rgb(206,157,86)"/>
		<stop class="stop1" offset="1" stop-opacity="1" stop-color="rgb(227,199,122)"/>
	</linearGradient>
</defs>
<path transform="translate(0,0)" fill="rgb(19,23,52)" d="M 0 0 L 2048 0 L 2048 2048 L 1053.74 2048 L 994.208 2048 L 0 2048 L 0 0 z"/>
<path transform="translate(0,0)" fill="rgb(254,254,254)" d="M 0 0 L 2048 0 L 2048 2048 L 1053.74 2048 C 1065.03 2046.03 1094.99 2046.04 1108.29 2044.81 C 1138.11 2042.06 1166.11 2038.72 1195.74 2033.86 C 1368.52 2004.69 1530.89 1931.58 1667.28 1821.58 C 1707.38 1789.14 1744.92 1753.65 1779.55 1715.42 C 1921.99 1558.99 2001.92 1374.35 2025.58 1164.5 C 2055.43 890.018 1976.4 614.781 1805.48 397.941 C 1639.99 189.499 1398.52 55.2834 1134.13 24.7841 C 870.864 -4.69222 606.775 72.6187 400.97 239.413 C 186.881 412.222 50.6789 663.379 22.6271 937.076 C -5.88463 1198.28 62.1997 1462.2 227.693 1668.02 C 378.797 1855.76 591.525 1983.89 828.126 2029.68 C 863.042 2036.24 898.252 2041.12 933.634 2044.31 C 953.149 2045.89 975.383 2045.95 994.208 2048 L 0 2048 L 0 0 z"/>
<path transform="translate(0,0)" fill="rgb(19,23,52)" d="M 1049.7 111.685 C 1081.81 106.093 1160.01 118.818 1193.62 124.204 C 1198.39 124.968 1204.36 126.994 1209.2 128.411 C 1213.21 129.589 1219.13 129.724 1222.68 131.542 C 1222.89 131.732 1223.11 131.923 1223.33 132.113 L 1223.15 133.568 C 1330.03 159.837 1420.36 195.725 1513.29 256.076 C 1525.37 263.918 1556.02 283.949 1566.64 293.25 C 1760.11 440.29 1893.97 654.74 1926.94 896.863 C 1961.11 1136.35 1897.7 1379.54 1750.92 1571.84 C 1701.89 1636.73 1644.42 1694.78 1580.04 1744.47 C 1565.6 1755.7 1543.74 1772.23 1528.11 1781.68 C 1480.14 1816.88 1406.67 1851.9 1351.5 1873.97 C 1330.27 1882.46 1307 1888.69 1286.96 1896.61 C 1284.04 1904.98 1200.73 1922.21 1188.5 1921.02 C 1185.34 1921.34 1113.6 1931.66 1113.34 1931.78 C 1100.33 1939.14 974.473 1940.33 955.117 1935.99 L 953.651 1935.65 L 954.037 1935.83 C 951.576 1934.73 946.62 1934.57 943.69 1934.32 L 943.391 1932.28 C 858.814 1922.74 809.609 1912.2 729.218 1885.82 C 720.74 1882.79 712.303 1879.64 703.91 1876.39 C 701.658 1875.91 688.644 1870.74 685.069 1869.52 C 536.475 1805.63 418.367 1721.88 315.685 1595.16 C 162.258 1407.18 90.8744 1165.4 117.601 924.233 C 114.703 915.533 118.527 870.738 125.807 866 C 132.169 839.15 136 815.385 143.529 787.521 C 168.464 696.36 207.473 609.65 259.149 530.519 C 359.54 376.365 503.384 255.438 672.495 183.027 C 702.742 169.991 762.041 148.039 794.6 141.263 C 833.745 129.977 874.04 123.565 914.287 117.74 L 914.81 115.896 C 924.393 114.242 950.685 108.818 958.373 113.977 C 964.926 112.734 980.187 112.417 987.056 112.047 C 1008.13 110.912 1028.63 110.876 1049.7 111.685 z"/>
<path transform="translate(0,0)" fill="url(#Gradient4)" d="M 125.807 866 C 132.169 839.15 136 815.385 143.529 787.521 C 168.464 696.36 207.473 609.65 259.149 530.519 C 359.54 376.365 503.384 255.438 672.495 183.027 C 702.742 169.991 762.041 148.039 794.6 141.263 C 799.296 143.962 803.739 140.87 812.077 142.641 C 817.536 153.025 812.971 151.084 814.388 157.333 C 806.611 156.792 743.702 179.419 734.418 183.177 L 734.273 184.246 L 734.902 184.824 C 719.438 191.636 701.806 197.603 685.874 204.233 C 656.282 216.572 627.388 230.524 599.322 246.026 C 415.275 348.007 272.622 511.062 195.999 707.027 C 111.672 924.157 117.305 1165.93 211.653 1378.9 C 289.522 1553.72 420.924 1699.28 586.895 1794.57 C 614.107 1810.13 642.164 1824.17 670.936 1836.62 C 680.041 1840.59 707.873 1851.11 714.166 1854.62 C 714.506 1855.3 714.846 1855.98 715.186 1856.65 C 734.863 1864.61 755.021 1871.66 774.857 1879.3 C 778.049 1876.92 776.419 1877.22 779.69 1877.5 C 784.535 1883.07 783.491 1892.21 778.426 1897.25 C 774.511 1898.52 776.534 1898.33 772.116 1897.26 C 771.258 1894.97 772.021 1895.74 770.276 1894.49 C 761.911 1895.76 761.785 1893.55 753.897 1891.03 C 745.205 1888.25 736.36 1885.22 727.621 1882.61 C 721.184 1880.69 710.007 1874.84 703.91 1876.39 C 701.658 1875.91 688.644 1870.74 685.069 1869.52 C 536.475 1805.63 418.367 1721.88 315.685 1595.16 C 162.258 1407.18 90.8744 1165.4 117.601 924.233 C 114.703 915.533 118.527 870.738 125.807 866 z"/>
<path transform="translate(0,0)" fill="rgb(21,26,48)" d="M 117.601 924.233 C 114.703 915.533 118.527 870.738 125.807 866 C 122.595 885.341 119.858 904.758 117.601 924.233 z"/>
<path transform="translate(0,0)" fill="url(#Gradient3)" d="M 1566.64 293.25 C 1760.11 440.29 1893.97 654.74 1926.94 896.863 C 1961.11 1136.35 1897.7 1379.54 1750.92 1571.84 C 1701.89 1636.73 1644.42 1694.78 1580.04 1744.47 C 1565.6 1755.7 1543.74 1772.23 1528.11 1781.68 C 1531.11 1774.77 1538.23 1772.04 1543.03 1764.44 C 1541.58 1762.49 1542.55 1763.29 1539.33 1762.8 C 1537.61 1763.74 1536.64 1764.43 1534.74 1764.97 L 1535.51 1764.91 C 1535.26 1765.16 1537.26 1752.23 1536.53 1749.53 L 1532.73 1748.61 C 1600.31 1700.91 1661 1644.15 1713.11 1579.92 C 1841.04 1422.95 1911.17 1226.8 1911.74 1024.3 C 1911.78 986.788 1908.37 950.476 1904.42 913.289 C 1901.84 894.289 1898.32 875.573 1895.67 856.645 C 1894.44 853.999 1892.94 845.553 1892.28 842.228 C 1884.96 805.226 1874.58 769.355 1862.07 733.715 C 1810.67 588.585 1722.87 459.078 1607.09 357.593 C 1598.52 350.056 1589.34 342.481 1580.61 335.073 C 1574.84 330.598 1566.98 324.856 1561.81 319.979 L 1563.74 319.624 C 1571.21 322.32 1578.19 331.525 1582.96 331.197 C 1585.79 325.039 1583.32 323.001 1579.86 318.089 C 1580.65 310.826 1581.73 317.421 1583.46 311.222 C 1575.65 302.199 1569.47 306.71 1566.64 293.25 z"/>
<path transform="translate(0,0)" fill="rgb(180,153,102)" d="M 1580.61 335.073 C 1581.76 334.362 1586.99 331.103 1587.39 330.265 C 1588.64 327.674 1587.11 326.29 1589.99 325.553 C 1592.06 327.789 1591.97 330.778 1592.4 333.977 L 1593.99 335.528 C 1597.67 335.424 1599.06 335.384 1602.68 335.86 C 1604.89 338.204 1604.11 336.854 1604.87 340.178 C 1603.74 342.621 1603.28 343.398 1601.81 345.663 C 1603.6 352.884 1607.34 347.82 1607.09 357.593 C 1598.52 350.056 1589.34 342.481 1580.61 335.073 z"/>
<path transform="translate(0,0)" fill="rgb(228,198,132)" d="M 1895.67 856.645 C 1901.58 863.03 1905.88 900.05 1905.97 910.383 L 1904.42 913.289 C 1901.84 894.289 1898.32 875.573 1895.67 856.645 z"/>
<path transform="translate(0,0)" fill="url(#Gradient2)" d="M 1049.7 111.685 C 1081.81 106.093 1160.01 118.818 1193.62 124.204 C 1198.39 124.968 1204.36 126.994 1209.2 128.411 C 1213.21 129.589 1219.13 129.724 1222.68 131.542 C 1222.89 131.732 1223.11 131.923 1223.33 132.113 L 1223.15 133.568 C 1330.03 159.837 1420.36 195.725 1513.29 256.076 C 1525.37 263.918 1556.02 283.949 1566.64 293.25 C 1569.47 306.71 1575.65 302.199 1583.46 311.222 C 1581.73 317.421 1580.65 310.826 1579.86 318.089 C 1583.32 323.001 1585.79 325.039 1582.96 331.197 C 1578.19 331.525 1571.21 322.32 1563.74 319.624 L 1561.81 319.979 C 1553.93 314.817 1543.4 306.514 1535.43 300.799 C 1519.92 289.633 1504.03 279.013 1487.78 268.96 C 1390.33 208.251 1281.95 167.188 1168.74 148.086 C 1147.91 144.807 1127.01 142.054 1106.05 139.83 C 1095.58 138.792 1084.65 138.754 1074.26 137.463 L 1073.27 137.333 C 1058.6 136.735 1013.12 134.605 999.329 136.647 L 984.784 136.88 C 963.399 138.053 942.053 139.859 920.774 142.295 C 912.579 143.204 904.401 144.259 896.244 145.459 C 889.225 146.547 870.455 150.476 864.225 150.506 C 855.871 152.25 845.497 154.71 837.206 155.892 C 829.06 155.226 825.133 155.189 817.186 157.511 C 815.832 157.907 816.074 157.708 814.388 157.333 C 812.971 151.084 817.536 153.025 812.077 142.641 C 803.739 140.87 799.296 143.962 794.6 141.263 C 833.745 129.977 874.04 123.565 914.287 117.74 L 914.81 115.896 C 924.393 114.242 950.685 108.818 958.373 113.977 C 964.926 112.734 980.187 112.417 987.056 112.047 C 1008.13 110.912 1028.63 110.876 1049.7 111.685 z"/>
<path transform="translate(0,0)" fill="rgb(21,26,48)" d="M 1049.7 111.685 C 1081.81 106.093 1160.01 118.818 1193.62 124.204 C 1198.39 124.968 1204.36 126.994 1209.2 128.411 C 1213.21 129.589 1219.13 129.724 1222.68 131.542 C 1222.89 131.732 1223.11 131.923 1223.33 132.113 L 1223.15 133.568 C 1204.86 130.477 1186.6 126.068 1167.6 122.957 C 1128.59 116.606 1089.21 112.841 1049.7 111.685 z"/>
<path transform="translate(0,0)" fill="rgb(228,198,132)" d="M 984.784 136.88 C 989.954 133.798 1000.06 133.522 1006.53 132.888 L 1002.03 132.78 C 1021.11 130.679 1040.93 134.565 1060.1 134.78 C 1065.23 134.838 1070.63 135.033 1075.67 135.823 L 1075.27 136.672 L 1073.27 137.333 C 1058.6 136.735 1013.12 134.605 999.329 136.647 L 984.784 136.88 z"/>
<path transform="translate(0,0)" fill="rgb(21,26,48)" d="M 914.287 117.74 L 914.81 115.896 C 924.393 114.242 950.685 108.818 958.373 113.977 C 945.83 114.225 924.144 117.988 914.287 117.74 z"/>
<path transform="translate(0,0)" fill="rgb(236,214,137)" d="M 864.225 150.506 C 864.42 148.933 864.359 149.615 865.935 148.04 C 877.607 144.288 884.095 142.925 896.244 145.459 C 889.225 146.547 870.455 150.476 864.225 150.506 z"/>
<path transform="translate(0,0)" fill="url(#Gradient1)" d="M 1210.12 1891.4 C 1228.82 1887.85 1254.95 1880.45 1273.23 1874.97 C 1366.02 1847.22 1453.67 1804.54 1532.73 1748.61 L 1536.53 1749.53 C 1537.26 1752.23 1535.26 1765.16 1535.51 1764.91 L 1534.74 1764.97 C 1536.64 1764.43 1537.61 1763.74 1539.33 1762.8 C 1542.55 1763.29 1541.58 1762.49 1543.03 1764.44 C 1538.23 1772.04 1531.11 1774.77 1528.11 1781.68 C 1480.14 1816.88 1406.67 1851.9 1351.5 1873.97 C 1330.27 1882.46 1307 1888.69 1286.96 1896.61 C 1284.04 1904.98 1200.73 1922.21 1188.5 1921.02 C 1185.34 1921.34 1113.6 1931.66 1113.34 1931.78 C 1100.33 1939.14 974.473 1940.33 955.117 1935.99 L 953.651 1935.65 L 954.037 1935.83 C 951.576 1934.73 946.62 1934.57 943.69 1934.32 L 943.391 1932.28 C 948.743 1932.7 954.106 1932.97 959.473 1933.1 C 965.161 1932.37 979.372 1932.78 981.409 1932.25 C 977.528 1930.99 970.423 1929.34 967.947 1926.61 C 969.984 1920.87 973.744 1916.33 979.864 1915.28 L 979.823 1914.78 L 970.689 1913.13 C 973.107 1912.43 975.97 1912.59 978.589 1912.52 C 985.75 1914.8 1054.4 1913.34 1063.68 1911.71 L 1062.21 1910.68 C 1064.01 1910.15 1078.59 1909.34 1081.26 1909.17 C 1095.62 1908.22 1109.24 1907.41 1123.53 1905.6 C 1129.89 1905.05 1134.59 1904.67 1140.87 1903.41 C 1161.26 1901.71 1190.14 1895.89 1210.12 1891.4 z"/>
<path transform="translate(0,0)" fill="rgb(21,26,48)" d="M 959.473 1933.1 C 966.728 1934.55 982.634 1934.77 990.511 1935.22 C 1032.2 1937.61 1071.91 1934.37 1113.34 1931.78 C 1100.33 1939.14 974.473 1940.33 955.117 1935.99 L 953.651 1935.65 L 954.037 1935.83 C 951.576 1934.73 946.62 1934.57 943.69 1934.32 L 943.391 1932.28 C 948.743 1932.7 954.106 1932.97 959.473 1933.1 z"/>
<path transform="translate(0,0)" fill="rgb(21,26,48)" d="M 1188.5 1921.02 C 1202.73 1917.35 1218.05 1914.69 1232.51 1911.18 C 1250.96 1906.7 1268.67 1901.5 1286.96 1896.61 C 1284.04 1904.98 1200.73 1922.21 1188.5 1921.02 z"/>
<path transform="translate(0,0)" fill="rgb(236,214,137)" d="M 714.166 1854.62 C 764.337 1871.73 811.375 1887.32 863.931 1896.45 C 872.71 1897.97 893.584 1902.13 901.871 1902.56 C 913.128 1904.26 949.846 1906.39 957.94 1909 C 963.025 1912.2 970.657 1910.52 978.589 1912.52 C 975.97 1912.59 973.107 1912.43 970.689 1913.13 L 979.823 1914.78 L 979.864 1915.28 C 973.744 1916.33 969.984 1920.87 967.947 1926.61 C 970.423 1929.34 977.528 1930.99 981.409 1932.25 C 979.372 1932.78 965.161 1932.37 959.473 1933.1 C 954.106 1932.97 948.743 1932.7 943.391 1932.28 C 858.814 1922.74 809.609 1912.2 729.218 1885.82 C 720.74 1882.79 712.303 1879.64 703.91 1876.39 C 710.007 1874.84 721.184 1880.69 727.621 1882.61 C 736.36 1885.22 745.205 1888.25 753.897 1891.03 C 761.785 1893.55 761.911 1895.76 770.276 1894.49 C 772.021 1895.74 771.258 1894.97 772.116 1897.26 C 776.534 1898.33 774.511 1898.52 778.426 1897.25 C 783.491 1892.21 784.535 1883.07 779.69 1877.5 C 776.419 1877.22 778.049 1876.92 774.857 1879.3 C 755.021 1871.66 734.863 1864.61 715.186 1856.65 C 714.846 1855.98 714.506 1855.3 714.166 1854.62 z"/>
<path transform="translate(0,0)" fill="rgb(21,26,48)" d="M 901.871 1902.56 C 902.772 1901.99 903.673 1901.42 904.573 1900.84 C 957.225 1908.85 1008.98 1907.79 1061.94 1908.34 C 1074.68 1908.48 1113.7 1902.19 1123.53 1905.6 C 1109.24 1907.41 1095.62 1908.22 1081.26 1909.17 C 1078.59 1909.34 1064.01 1910.15 1062.21 1910.68 L 1063.68 1911.71 C 1054.4 1913.34 985.75 1914.8 978.589 1912.52 C 970.657 1910.52 963.025 1912.2 957.94 1909 C 949.846 1906.39 913.128 1904.26 901.871 1902.56 z"/>
<path transform="translate(0,0)" fill="rgb(228,198,132)" d="M 957.94 1909 C 972.039 1909.21 986.144 1910.39 1000.26 1910.84 C 1020.91 1911.31 1041.56 1911.25 1062.21 1910.68 L 1063.68 1911.71 C 1054.4 1913.34 985.75 1914.8 978.589 1912.52 C 970.657 1910.52 963.025 1912.2 957.94 1909 z"/>
<path transform="translate(0,0)" fill="rgb(236,214,137)" d="M 814.388 157.333 C 816.074 157.708 815.832 157.907 817.186 157.511 C 825.133 155.189 829.06 155.226 837.206 155.892 C 807.325 163.371 777.857 170.73 748.655 180.641 C 744.977 181.889 738.487 184.272 734.902 184.824 L 734.273 184.246 L 734.418 183.177 C 743.702 179.419 806.611 156.792 814.388 157.333 z"/>
<path transform="translate(0,0)" fill="rgb(21,26,48)" d="M 1140.87 1903.41 L 1140.64 1901.8 C 1148.79 1898.65 1202.64 1889.27 1210.12 1891.4 C 1190.14 1895.89 1161.26 1901.71 1140.87 1903.41 z"/>
<path transform="translate(0,0)" fill="rgb(21,26,48)" d="M 984.784 136.88 L 999.329 136.647 L 1000.77 137.513 C 994.337 140.186 927.26 144.389 920.774 142.295 C 942.053 139.859 963.399 138.053 984.784 136.88 z"/>
<path transform="translate(0,0)" fill="rgb(90,41,63)" d="M 936.755 661.503 C 983.115 661.205 1030.19 661.653 1076.49 662.148 C 1104.9 662.452 1140.53 655.254 1159.98 681.614 C 1173.6 700.072 1179.27 728.25 1192.94 746.885 C 1196.48 751.654 1238.03 749.4 1244.4 749.334 C 1272.38 749.152 1300.37 749.225 1328.34 749.555 C 1362.59 749.776 1405.93 744.355 1432.91 768.405 C 1436.03 771.188 1439.18 773.928 1442.29 776.725 L 1442.72 773.564 L 1443.55 773.189 C 1448.09 784.256 1458.78 797.839 1461.82 808.428 C 1462.47 807.004 1463.53 804.368 1464.38 803.207 L 1465.56 803.972 C 1466.15 806.723 1465.11 808.415 1464.08 811.159 L 1463.61 812.413 C 1469.02 828.09 1466.46 875.052 1466.49 894.328 L 1466.47 1032.4 L 1466.55 1219.2 C 1466.44 1254.37 1469.42 1289.5 1464.33 1324.75 C 1463.93 1327.48 1460.97 1332.85 1459.64 1335.46 L 1459.69 1335.12 C 1422.89 1394.24 1398.46 1384.62 1336.71 1385.59 C 1271.2 1386.88 1205.67 1387.19 1140.15 1386.52 C 1129.67 1386.52 1074.85 1387.17 1068.18 1385.49 C 1041.37 1385.27 1013.67 1386.26 986.936 1387.76 C 980.475 1387.74 974.009 1386.48 967.535 1386.49 C 947.165 1386.51 926.831 1386.4 906.461 1386.19 L 769.525 1385.78 C 745.61 1385.55 721.879 1387.16 697.5 1385.95 C 682.065 1385.19 669.991 1387.53 653.012 1384.88 C 617.721 1379.38 588.952 1349.99 582.586 1315.17 C 579.581 1289.1 580.271 1258.72 580.483 1231.99 L 580.539 1153.5 C 580.623 1144.08 581.427 1134.45 581.385 1125.16 L 580.907 932.611 L 581.284 865.201 C 581.358 852.464 580.565 834.758 582.311 822.855 C 586.571 793.812 610.341 765.095 637.76 754.659 C 643.391 752.515 643.074 750.98 649.76 751.595 L 653.148 751.732 C 655.548 749.863 656.856 748.616 658.995 746.54 L 659.681 747.448 L 658.306 750.366 C 664.212 750.904 667.318 748.016 673.008 750.087 C 676.163 743.119 673.069 731.453 679.637 722.777 C 684.896 715.83 688.196 710.859 697.637 709.448 C 723.374 705.992 751.454 707.066 777.528 707.76 C 801.104 708.388 806.136 723.255 809.862 742.868 C 821.062 742.966 830.679 743.74 841.809 744.644 C 843.706 743.351 844.52 742.85 846.561 741.808 C 848.053 744.046 848.155 743.993 850.272 745.717 C 856.469 746.054 852.695 742.917 856.65 739.905 C 857.875 741.957 857.839 742.011 859.56 743.635 L 859.044 741.028 C 863.826 734.793 861.577 733.694 863.865 726.935 C 864.791 723.659 871.094 718.224 871.97 715.557 C 882.731 682.802 899.798 660.789 936.755 661.503 z"/>
<path transform="translate(0,0)" fill="rgb(185,45,51)" d="M 929.937 666.439 L 1052 666.24 C 1072.6 666.222 1120.57 663.762 1137.52 670.967 C 1144.61 673.964 1150.88 678.63 1155.79 684.568 C 1165.81 696.844 1181.02 737.621 1187.79 754.369 C 1233.91 754.721 1280.03 754.81 1326.14 754.637 C 1343.63 754.666 1384.36 753.739 1398.81 757.052 C 1413.43 760.504 1426.85 767.872 1437.61 778.367 C 1449.86 790.637 1458.07 806.353 1461.15 823.415 C 1462.65 831.873 1462.24 854.776 1462.25 864.081 L 1462.27 936.849 L 1462.39 1200.89 C 1462.41 1220.82 1463.78 1306.63 1459.4 1321.67 C 1455.25 1335.55 1447.71 1348.18 1437.45 1358.42 C 1411.42 1384.14 1387.18 1381.64 1353.2 1381.61 L 1294.45 1381.52 L 1073.5 1381.59 L 786.229 1381.56 L 704.613 1381.64 C 688.117 1381.64 667.264 1382.17 651.251 1379.89 C 637.564 1377.95 622.173 1369.19 612.351 1359.6 C 594.195 1341.87 586.151 1321.41 585.922 1296.19 C 585.58 1258.5 585.699 1220.84 585.691 1183.19 L 585.653 976.288 L 585.638 877.332 C 585.653 859.816 584.815 838.949 587.126 822.046 C 590.362 798.389 610.022 774.215 631.052 763.524 C 647.07 755.381 660.516 754.563 677.991 754.315 C 678.192 699.376 714.974 713.689 755.103 711.898 C 791.852 710.258 804.966 715.831 805.555 754.323 C 823.446 754.055 841.898 754.451 859.875 754.455 C 866.499 739.048 873.114 723.142 879.603 707.7 C 890.336 682.155 901.48 670.069 929.937 666.439 z"/>
<path transform="translate(0,0)" fill="rgb(64,208,216)" d="M 1012.72 893.608 C 1115.78 887.395 1204.37 965.861 1210.66 1068.91 C 1216.94 1171.96 1138.54 1260.61 1035.5 1266.97 C 932.347 1273.33 843.588 1194.84 837.296 1091.68 C 831.005 988.531 909.566 899.827 1012.72 893.608 z"/>
<path transform="translate(0,0)" fill="rgb(211,254,251)" d="M 1008.2 932.369 C 1027.11 929.763 1033.73 945.366 1020.07 957.486 C 1018.04 959.29 1006.21 959.591 1002.46 960.279 C 955.645 968.905 918.527 1003.83 906.95 1049.97 C 904.111 1061.29 905.297 1072.31 896.421 1080.01 C 895.455 1080.23 894.483 1080.44 893.506 1080.61 C 884.825 1082.17 876.477 1076.45 877.041 1067.8 C 881.888 993.4 938.922 941.958 1008.2 932.369 z"/>
<path transform="translate(0,0)" fill="rgb(211,254,251)" d="M 1152.96 1092.98 C 1164.13 1092.79 1166.53 1095.82 1170.67 1105.6 C 1166.76 1123.63 1155.15 1160.24 1139.2 1170.89 C 1105.65 1171.77 1131.63 1138.48 1137.55 1125.32 C 1143.22 1112.72 1139.24 1100.97 1152.96 1092.98 z"/>
<path transform="translate(0,0)" fill="rgb(211,254,251)" d="M 1095.36 1179.94 C 1098.05 1179.91 1103.13 1179.68 1105.3 1181.39 C 1134.14 1204.12 1067.29 1223.4 1053.85 1226.82 C 1047.32 1227.21 1042.96 1226.08 1039.46 1220.13 C 1027.61 1199.97 1060.97 1198.93 1072.24 1193.06 C 1080.3 1188.87 1087.62 1184.58 1095.36 1179.94 z"/>
<path transform="translate(0,0)" fill="rgb(238,77,76)" d="M 659.809 773.323 C 662.199 773.152 664.593 773.046 666.989 773.004 C 719.959 772.322 774.7 773.02 827.832 773.024 L 1153.76 773.035 L 1312.19 772.983 C 1337.26 772.978 1364.73 772.466 1389.68 773.663 C 1400.22 774.169 1416.55 783.053 1424.15 790.814 C 1447.43 814.581 1444.2 839.014 1444.01 869.131 C 1443.9 885.315 1443.9 901.5 1444.01 917.684 C 1406.48 916.647 1364.58 917.596 1326.75 917.669 L 1177.71 917.687 C 1140.25 882.226 1091.66 860.846 1040.21 857.185 C 973.036 852.646 920.112 874.14 870.191 917.547 C 842.348 916.802 810.887 917.596 782.694 917.602 L 603.922 917.634 C 604.164 894.495 601.325 846.387 605.286 825.742 C 607.002 816.794 610.512 808.285 615.605 800.728 C 626.739 784.259 640.768 776.888 659.809 773.323 z"/>
<path transform="translate(0,0)" fill="rgb(185,45,51)" d="M 1291.35 798.467 C 1314.85 797.785 1341.12 798.994 1363.54 798.272 C 1405.24 796.929 1405.25 815.676 1404.69 850.929 C 1404.37 871.726 1404 890.579 1378.84 894.605 C 1360.78 894.978 1289.48 897.822 1278.12 890.631 C 1271.2 886.247 1266.84 878.289 1265.44 870.36 C 1262.93 856.2 1263.04 821.109 1271.63 809.496 C 1276.8 802.507 1282.99 799.829 1291.35 798.467 z"/>
<path transform="translate(0,0)" fill="rgb(64,208,216)" d="M 1290.98 816.41 L 1344.91 816.238 C 1354.73 816.213 1376.86 814.562 1383.96 820.21 C 1387.89 828.977 1385.79 859.637 1385.28 870.36 C 1385.14 873.29 1380.96 875.594 1378.16 876.856 L 1323.72 877.017 C 1313.59 877.035 1292.03 878.81 1284.94 872.52 C 1281.34 863.342 1283.85 834.99 1283.99 823.696 C 1284.03 820.292 1287.95 817.891 1290.98 816.41 z"/>
<path transform="translate(0,0)" fill="rgb(238,77,76)" d="M 1156.16 1261.18 L 1443.91 1261.19 C 1444.05 1277.58 1445.54 1301.11 1441.5 1316.25 C 1434.26 1339.07 1414.25 1360.74 1388.99 1362.59 C 1365.84 1364.29 1340.23 1363.22 1316.77 1363.19 L 1169.38 1363.14 L 678.193 1363.17 C 662.705 1363.1 657.036 1364 642.364 1357.33 C 600.233 1338.19 603.731 1300.12 604.11 1261.16 L 892 1261.1 C 919.914 1281.72 952.3 1295.47 986.526 1301.22 C 1047.93 1311.74 1105.68 1296.77 1156.16 1261.18 z"/>
<path transform="translate(0,0)" fill="rgb(238,77,76)" d="M 1195.88 936.346 L 1444.13 936.08 L 1444.05 1242.59 L 1372.75 1242.73 L 1179.09 1242.52 C 1216.18 1207.38 1240.09 1160.57 1246.83 1109.92 C 1255.42 1043.48 1235.88 988.425 1195.88 936.346 z"/>
<path transform="translate(0,0)" fill="rgb(238,77,76)" d="M 604.103 936.197 L 852.585 936.078 C 783.431 1023.52 781.301 1125.21 844.996 1216.35 C 853.192 1225.69 860.457 1233.79 869.166 1242.65 C 837.48 1243.5 801.915 1242.71 769.835 1242.7 L 603.932 1242.5 L 604.103 936.197 z"/>
<path transform="translate(0,0)" fill="rgb(238,77,76)" d="M 929.391 684.415 L 1056.59 684.323 C 1144.24 684.323 1134.43 671.337 1167.8 754.531 L 1122.25 754.411 L 880.054 754.408 C 884.925 743.395 889.366 731.742 894.146 720.657 C 902.323 701.695 906.241 687.496 929.391 684.415 z"/>
<path transform="translate(0,0)" fill="rgb(238,77,76)" d="M 703.739 730.242 C 713.985 729.719 776.108 727.912 781.627 731.657 C 784.835 733.834 787.038 738.211 787.85 741.896 C 788.569 745.157 788.623 750.569 786.618 753.388 C 785.73 754.637 783.66 754.235 782.25 754.333 C 754.038 754.786 724.546 754.497 696.289 754.274 C 696.004 742.859 694.062 737.454 703.739 730.242 z"/>
<path transform="translate(0,0)" fill="rgb(21,26,48)" d="M 1559.7 953.476 C 1576.94 955.663 1582.47 976.269 1564.44 978.452 C 1563.63 978.164 1559.85 976.741 1559.29 976.755 L 1558.58 978.387 L 1558.65 978.381 C 1556.18 978.189 1556.71 978.056 1554.28 976.801 C 1546.7 967.056 1551.73 960.098 1559.7 953.476 z"/>
<path transform="translate(0,0)" fill="rgb(114,116,109)" d="M 1361.55 570.717 C 1362.2 572.245 1362.33 572.245 1362.53 573.715 C 1365.18 593.736 1369.42 593.083 1387.19 595.222 C 1363.91 600.212 1366.24 596.898 1361.65 620.795 C 1358.43 597.802 1357.27 598.193 1334.36 594.972 C 1356.7 593.046 1358.01 592.786 1361.55 570.717 z"/>
<path transform="translate(0,0)" fill="rgb(180,153,102)" d="M 1255.25 1711.72 C 1254.39 1707.77 1253.93 1709.17 1255.08 1706.18 C 1257.42 1706.8 1258.51 1710.07 1259.7 1712.34 L 1263 1711.64 C 1272.61 1718.58 1268.19 1716.75 1272.66 1724.22 C 1274.65 1725.02 1275.53 1725.25 1277.24 1726.51 C 1274.17 1727.75 1275.75 1727.52 1272.31 1726.99 C 1260.33 1728.83 1260.65 1728.75 1256.1 1739.94 C 1256.03 1739.48 1255.97 1739.02 1255.9 1738.56 L 1256.69 1737.67 C 1247.84 1729.72 1255.21 1729.8 1239.48 1726.56 C 1250.6 1723.97 1254.19 1723.96 1255.25 1711.72 z"/>
<path transform="translate(0,0)" fill="rgb(21,26,48)" d="M 1255.25 1711.72 C 1254.39 1707.77 1253.93 1709.17 1255.08 1706.18 C 1257.42 1706.8 1258.51 1710.07 1259.7 1712.34 L 1263 1711.64 C 1272.61 1718.58 1268.19 1716.75 1272.66 1724.22 C 1274.65 1725.02 1275.53 1725.25 1277.24 1726.51 C 1274.17 1727.75 1275.75 1727.52 1272.31 1726.99 C 1259.56 1723.41 1259.49 1724.1 1256.51 1711.54 L 1255.25 1711.72 z"/>
<path transform="translate(0,0)" fill="rgb(21,26,48)" d="M 1447.23 1617.68 C 1459.96 1615.36 1460.59 1618.9 1465.2 1629.25 C 1459.96 1635.99 1459.44 1637.85 1451.47 1639.61 L 1449.68 1638.91 C 1446.73 1635.14 1445.06 1634.37 1442.75 1629.84 L 1442.82 1631.43 C 1438.82 1625.65 1443.29 1621.33 1447.23 1617.68 z"/>
<path transform="translate(0,0)" fill="rgb(180,153,102)" d="M 527.535 541.87 C 528.877 551.071 528.416 555.788 534.76 562.271 L 536.846 564.248 C 536.551 567.463 535.968 567.013 533.143 569.983 C 528.825 577.006 528.808 582.855 527.955 590.98 C 524.577 569.712 524.816 568.27 503.026 565.521 C 523.449 562.945 524.4 562.166 527.535 541.87 z"/>
<path transform="translate(0,0)" fill="rgb(21,26,48)" d="M 865.472 503.346 C 867.833 504.842 870.68 505.023 872.086 506.402 C 881.577 515.709 875.971 524.709 864.107 525.164 C 860.176 523.72 858.044 521.957 857.086 517.715 L 856.696 518.68 C 857.029 510.19 861.82 510.621 865.472 503.346 z"/>
<path transform="translate(0,0)" fill="rgb(180,153,102)" d="M 456.436 1159.81 C 463.124 1168.67 453.946 1170.62 471.828 1174.38 C 459.59 1177.7 459.168 1177.1 457.43 1190.19 C 452.472 1185.09 459.741 1178.87 445.453 1175.26 L 443.993 1174.91 L 443.886 1173.96 C 453.873 1171.54 454.019 1171.46 456.144 1161.26 L 456.436 1159.81 z"/>
<path transform="translate(0,0)" fill="rgb(114,116,109)" d="M 534.76 562.271 C 541.032 563.763 546.662 564.769 553 565.879 C 546.097 566.768 541.088 567.067 534.582 569.467 L 533.143 569.983 C 535.968 567.013 536.551 567.463 536.846 564.248 L 534.76 562.271 z"/>
<path transform="translate(0,0)" fill="rgb(21,26,48)" d="M 685.069 1869.52 C 688.644 1870.74 701.658 1875.91 703.91 1876.39 C 712.303 1879.64 720.74 1882.79 729.218 1885.82 C 723.408 1887.19 686.485 1877.12 685.069 1869.52 z"/>
</svg>