<svg version="1.1" xmlns="http://www.w3.org/2000/svg" style="display: block;" viewBox="0 0 2048 2048" width="2048" height="2048" preserveAspectRatio="none">
<defs>
	<linearGradient id="Gradient1" gradientUnits="userSpaceOnUse" x1="1095.57" y1="983.607" x2="1013.58" y2="1051.58">
		<stop class="stop0" offset="0" stop-opacity="1" stop-color="rgb(111,239,235)"/>
		<stop class="stop1" offset="1" stop-opacity="1" stop-color="rgb(200,254,247)"/>
	</linearGradient>
	<linearGradient id="Gradient2" gradientUnits="userSpaceOnUse" x1="735.657" y1="1076.82" x2="938.238" y2="986.424">
		<stop class="stop0" offset="0" stop-opacity="1" stop-color="rgb(95,231,237)"/>
		<stop class="stop1" offset="1" stop-opacity="1" stop-color="rgb(196,255,247)"/>
	</linearGradient>
	<linearGradient id="Gradient3" gradientUnits="userSpaceOnUse" x1="1106.69" y1="1075.58" x2="1154.49" y2="915.586">
		<stop class="stop0" offset="0" stop-opacity="1" stop-color="rgb(8,180,210)"/>
		<stop class="stop1" offset="1" stop-opacity="1" stop-color="rgb(114,255,239)"/>
	</linearGradient>
	<linearGradient id="Gradient4" gradientUnits="userSpaceOnUse" x1="864.436" y1="1363.71" x2="1001.97" y2="987.551">
		<stop class="stop0" offset="0" stop-opacity="1" stop-color="rgb(9,193,214)"/>
		<stop class="stop1" offset="1" stop-opacity="1" stop-color="rgb(116,254,240)"/>
	</linearGradient>
	<linearGradient id="Gradient5" gradientUnits="userSpaceOnUse" x1="1083.59" y1="1358.24" x2="964.282" y2="687.431">
		<stop class="stop0" offset="0" stop-opacity="1" stop-color="rgb(38,105,153)"/>
		<stop class="stop1" offset="1" stop-opacity="1" stop-color="rgb(46,128,167)"/>
	</linearGradient>
	<linearGradient id="Gradient6" gradientUnits="userSpaceOnUse" x1="958.378" y1="1431.62" x2="1090.08" y2="614.103">
		<stop class="stop0" offset="0" stop-opacity="1" stop-color="rgb(47,133,239)"/>
		<stop class="stop1" offset="1" stop-opacity="1" stop-color="rgb(95,203,248)"/>
	</linearGradient>
	<linearGradient id="Gradient7" gradientUnits="userSpaceOnUse" x1="673.212" y1="1176.89" x2="1554.89" y2="791.039">
		<stop class="stop0" offset="0" stop-opacity="1" stop-color="rgb(217,168,92)"/>
		<stop class="stop1" offset="1" stop-opacity="1" stop-color="rgb(255,222,140)"/>
	</linearGradient>
</defs>
<path transform="translate(0,0)" fill="rgb(15,20,53)" d="M 0 0 L 2048 0 L 2048 2048 L 0 2048 L 0 0 z"/>
<path transform="translate(0,0)" fill="rgb(19,20,45)" d="M 1000.17 441.523 L 1000.78 439.825 C 1012.81 435.444 1031.77 436.524 1044.75 437.391 C 1055.21 438.09 1081.56 437.124 1088.48 444.662 C 1092.26 445.091 1098.08 445.944 1101.71 446.033 C 1111.54 444.924 1129.75 442.532 1136.3 451.866 C 1165.03 458.095 1187.46 463.583 1215.3 473.306 C 1339.25 516.943 1445.04 600.808 1515.81 711.541 C 1553.47 770.292 1580.16 835.395 1594.55 903.682 C 1596.56 913.25 1600.46 932.256 1601.17 941.879 C 1601.74 945.457 1604.05 966.86 1604.83 968.63 C 1608.1 972.598 1607.18 970.796 1607.61 976.48 C 1608.14 973.554 1607.97 973.9 1607.83 970.828 C 1611.8 975.998 1607.65 996.564 1608.77 1003.06 C 1611.8 1020.67 1611.2 1034.14 1610.24 1051.79 L 1609.97 1044.14 L 1609.22 1044.01 C 1608.45 1046.21 1608.64 1073.03 1608.07 1078.89 L 1607.79 1077.47 C 1606.89 1089.91 1605.92 1119.06 1598.04 1127.49 C 1594.72 1145.12 1591.28 1161.83 1586.3 1179.1 C 1577.74 1210.65 1569.07 1232.77 1556.32 1262.76 C 1556.82 1268.53 1557.1 1270.32 1554.68 1275.53 C 1551.4 1282.56 1547.85 1293.44 1540.05 1296.45 L 1539.89 1296.75 C 1542.09 1305.06 1539.13 1310.32 1532.94 1315.53 L 1529.19 1315.76 L 1528.25 1317.08 C 1522.58 1325.11 1517.48 1334.58 1512.08 1342.94 C 1482.97 1388.05 1447.88 1425.49 1408.66 1461.89 C 1408.53 1470.6 1402.83 1474.3 1395.43 1477.94 C 1394.17 1477.43 1392.82 1476.7 1391.58 1476.08 C 1371.18 1492.46 1351.08 1507.42 1328.61 1520.87 C 1325.04 1523.01 1320.38 1525.8 1317.11 1528.3 C 1314.87 1537.32 1309.06 1539.82 1300.69 1541.39 L 1296.7 1539.47 C 1250.05 1562.96 1222.15 1573.76 1172.24 1588.12 C 1163.57 1600.06 1130.33 1600.06 1117.09 1602.61 C 1095.3 1606.81 1072.14 1610.22 1049.72 1609.27 C 1050.74 1609.77 1051.93 1610.21 1053 1610.63 L 1052.34 1611.73 C 998.841 1610.06 945.344 1609.97 893.235 1595.62 C 884.923 1593.33 845.98 1584.85 844.131 1578.67 L 838.754 1576.48 C 826.898 1573.48 806.159 1564.58 794.698 1559.89 C 785.71 1561.66 780.485 1558.91 770.698 1554.26 C 753.829 1546.23 733.247 1535.5 718.02 1524.54 C 716.968 1523.79 715.413 1519.67 714.921 1518.36 C 712.664 1516.09 695.011 1505.08 691.003 1502.17 C 681.829 1495.5 673.062 1488.9 664.128 1481.8 C 540.85 1385.3 461.745 1243.13 444.743 1087.5 C 434.084 1074.78 436.282 947 447.326 937.665 C 448.125 935.98 455.144 895.349 457.007 887.83 C 468.339 842.12 484.308 799.232 505.642 757.234 C 508.298 752.007 515.847 737.583 519.27 733.82 C 529.234 710.505 574.827 652.199 592.405 633.18 C 702.172 514.409 839.73 449.988 1000.17 441.523 z"/>
<path transform="translate(0,0)" fill="url(#Gradient7)" d="M 1000.17 441.523 L 1000.78 439.825 C 1012.81 435.444 1031.77 436.524 1044.75 437.391 C 1055.21 438.09 1081.56 437.124 1088.48 444.662 C 1092.26 445.091 1098.08 445.944 1101.71 446.033 C 1111.54 444.924 1129.75 442.532 1136.3 451.866 C 1165.03 458.095 1187.46 463.583 1215.3 473.306 C 1339.25 516.943 1445.04 600.808 1515.81 711.541 C 1553.47 770.292 1580.16 835.395 1594.55 903.682 C 1596.56 913.25 1600.46 932.256 1601.17 941.879 C 1601.74 945.457 1604.05 966.86 1604.83 968.63 C 1608.1 972.598 1607.18 970.796 1607.61 976.48 C 1608.14 973.554 1607.97 973.9 1607.83 970.828 C 1611.8 975.998 1607.65 996.564 1608.77 1003.06 C 1611.8 1020.67 1611.2 1034.14 1610.24 1051.79 L 1609.97 1044.14 L 1609.22 1044.01 C 1608.45 1046.21 1608.64 1073.03 1608.07 1078.89 L 1607.79 1077.47 C 1606.89 1089.91 1605.92 1119.06 1598.04 1127.49 C 1594.72 1145.12 1591.28 1161.83 1586.3 1179.1 C 1577.74 1210.65 1569.07 1232.77 1556.32 1262.76 C 1556.82 1268.53 1557.1 1270.32 1554.68 1275.53 C 1551.4 1282.56 1547.85 1293.44 1540.05 1296.45 L 1539.89 1296.75 C 1542.09 1305.06 1539.13 1310.32 1532.94 1315.53 L 1529.19 1315.76 L 1528.25 1317.08 C 1522.58 1325.11 1517.48 1334.58 1512.08 1342.94 C 1482.97 1388.05 1447.88 1425.49 1408.66 1461.89 C 1408.53 1470.6 1402.83 1474.3 1395.43 1477.94 C 1394.17 1477.43 1392.82 1476.7 1391.58 1476.08 C 1371.18 1492.46 1351.08 1507.42 1328.61 1520.87 C 1325.04 1523.01 1320.38 1525.8 1317.11 1528.3 C 1314.87 1537.32 1309.06 1539.82 1300.69 1541.39 L 1296.7 1539.47 C 1250.05 1562.96 1222.15 1573.76 1172.24 1588.12 C 1163.57 1600.06 1130.33 1600.06 1117.09 1602.61 C 1095.3 1606.81 1072.14 1610.22 1049.72 1609.27 C 1050.74 1609.77 1051.93 1610.21 1053 1610.63 L 1052.34 1611.73 C 998.841 1610.06 945.344 1609.97 893.235 1595.62 C 884.923 1593.33 845.98 1584.85 844.131 1578.67 L 838.754 1576.48 C 841.663 1576.01 842.963 1576.01 845.534 1574.49 C 847.284 1571.51 848.051 1569.42 851.205 1567.72 C 852.255 1564.56 852.922 1564.43 855.485 1562.55 C 850.473 1561.01 850.227 1561.61 849.146 1556.55 C 871.173 1563.17 891.636 1567.4 912.205 1573.36 C 915.066 1573.88 920.444 1574.66 922.963 1575.56 C 944.55 1578.95 965.321 1581.81 987.147 1583.31 C 1116.91 1591.9 1245.59 1554.82 1350.89 1478.49 C 1369.22 1465.06 1386.84 1450.68 1403.67 1435.42 C 1410.48 1429.21 1418.01 1420.71 1424.47 1415.14 L 1426.02 1413.82 C 1430.25 1408.88 1434.19 1404.76 1438.72 1400.09 C 1442.32 1394.73 1450.65 1386.23 1455.08 1380.94 C 1522.87 1299.97 1567.2 1199.22 1579.96 1094.29 C 1580.98 1085.88 1581.46 1077.4 1582.68 1069.01 C 1585.07 1019.92 1584.1 993.708 1578.87 944.641 C 1574.51 926.148 1572.75 908.749 1567.51 887.804 C 1536.36 764.909 1464.58 656.155 1363.83 579.201 C 1341.03 561.696 1320.53 549.099 1296.06 534.401 C 1272.33 521.59 1247.86 510.199 1222.78 500.285 C 1203.95 493.889 1187.99 488.112 1168.53 482.996 C 1158.05 480.242 1142.86 477.315 1133.38 474.282 C 1071.62 464.26 1016.59 460.682 953.964 468.509 C 935.437 470.825 919.557 474.191 901.359 477.314 C 872.205 486.32 849.255 490.636 819.79 502.586 C 693.947 553.623 600.703 637.739 533.289 754.201 C 531.484 747.372 534.744 746.871 535.41 739.611 L 534.084 739.162 C 531.963 740.427 531.161 740.889 528.897 741.845 L 527.874 740.116 C 527.574 735.706 527.446 732.86 529.847 728.917 C 527.484 730.055 521.15 733.223 519.27 733.82 C 529.234 710.505 574.827 652.199 592.405 633.18 C 702.172 514.409 839.73 449.988 1000.17 441.523 z"/>
<path transform="translate(0,0)" fill="rgb(19,20,45)" d="M 844.131 1578.67 C 859.83 1583.07 880.488 1590.09 896.241 1592.63 L 900.931 1593.59 C 910.066 1596.56 936.542 1600.44 946.469 1601.84 C 1023.72 1612.74 1096.66 1606.65 1172.24 1588.12 C 1163.57 1600.06 1130.33 1600.06 1117.09 1602.61 C 1095.3 1606.81 1072.14 1610.22 1049.72 1609.27 C 1050.74 1609.77 1051.93 1610.21 1053 1610.63 L 1052.34 1611.73 C 998.841 1610.06 945.344 1609.97 893.235 1595.62 C 884.923 1593.33 845.98 1584.85 844.131 1578.67 z"/>
<path transform="translate(0,0)" fill="rgb(246,215,145)" d="M 1601.17 941.879 C 1601.74 945.457 1604.05 966.86 1604.83 968.63 C 1608.1 972.598 1607.18 970.796 1607.61 976.48 C 1608.14 973.554 1607.97 973.9 1607.83 970.828 C 1611.8 975.998 1607.65 996.564 1608.77 1003.06 C 1611.8 1020.67 1611.2 1034.14 1610.24 1051.79 L 1609.97 1044.14 L 1609.22 1044.01 C 1608.45 1046.21 1608.64 1073.03 1608.07 1078.89 L 1607.79 1077.47 C 1606.89 1089.91 1605.92 1119.06 1598.04 1127.49 C 1594.72 1145.12 1591.28 1161.83 1586.3 1179.1 C 1583.56 1169.56 1596.98 1123.51 1598.65 1110.33 C 1603.27 1074.19 1605.2 1037.76 1604.42 1001.33 C 1604.04 986.154 1599.26 954.198 1601.17 941.879 z"/>
<path transform="translate(0,0)" fill="rgb(19,20,45)" d="M 1604.83 968.63 C 1608.1 972.598 1607.18 970.796 1607.61 976.48 C 1608.14 973.554 1607.97 973.9 1607.83 970.828 C 1611.8 975.998 1607.65 996.564 1608.77 1003.06 C 1611.8 1020.67 1611.2 1034.14 1610.24 1051.79 L 1609.97 1044.14 L 1609.22 1044.01 C 1608.45 1046.21 1608.64 1073.03 1608.07 1078.89 L 1607.79 1077.47 C 1606.89 1089.91 1605.92 1119.06 1598.04 1127.49 C 1608.45 1065.87 1608.25 1030.24 1604.83 968.63 z"/>
<path transform="translate(0,0)" fill="rgb(246,215,145)" d="M 901.359 477.314 L 902.187 476.137 C 931.387 463.289 1049.58 459.107 1085.38 462.176 L 1084.86 463.609 L 1083.49 464.079 L 1083.78 464.818 C 1095.64 468.462 1124.5 467.167 1133.38 474.282 C 1071.62 464.26 1016.59 460.682 953.964 468.509 C 935.437 470.825 919.557 474.191 901.359 477.314 z"/>
<path transform="translate(0,0)" fill="rgb(246,215,145)" d="M 1578.87 944.641 C 1582.25 948.799 1583.39 961.024 1584.51 967.293 L 1584.23 960.8 C 1587.56 977.424 1588.5 1055.11 1583.95 1069.08 L 1582.68 1069.01 C 1585.07 1019.92 1584.1 993.708 1578.87 944.641 z"/>
<path transform="translate(0,0)" fill="rgb(19,20,45)" d="M 1000.17 441.523 L 1000.78 439.825 C 1012.81 435.444 1031.77 436.524 1044.75 437.391 C 1055.21 438.09 1081.56 437.124 1088.48 444.662 C 1059.16 441.402 1029.64 440.353 1000.17 441.523 z"/>
<path transform="translate(0,0)" fill="rgb(246,215,145)" d="M 1222.78 500.285 C 1232.52 497.981 1291.52 525.866 1296.06 534.401 C 1272.33 521.59 1247.86 510.199 1222.78 500.285 z"/>
<path transform="translate(0,0)" fill="rgb(19,20,45)" d="M 1556.32 1262.76 C 1556.82 1268.53 1557.1 1270.32 1554.68 1275.53 C 1551.4 1282.56 1547.85 1293.44 1540.05 1296.45 C 1544.28 1286.3 1551.34 1272.86 1556.32 1262.76 z"/>
<path transform="translate(0,0)" fill="rgb(19,20,45)" d="M 1101.71 446.033 C 1111.54 444.924 1129.75 442.532 1136.3 451.866 C 1124.76 449.98 1113.23 448.035 1101.71 446.033 z"/>
<path transform="translate(0,0)" fill="rgb(210,160,83)" d="M 912.205 1573.36 C 915.066 1573.88 920.444 1574.66 922.963 1575.56 C 922.695 1576.74 922.459 1577.33 922.062 1578.47 C 914.753 1578.73 913.615 1582.17 905.883 1578.92 L 905.717 1576.01 L 905.436 1575.86 L 905.522 1575.17 C 908.068 1574.04 909.523 1573.88 912.205 1573.36 z"/>
<path transform="translate(0,0)" fill="rgb(19,20,45)" d="M 1391.58 1476.08 C 1397.23 1471.3 1402.93 1466.57 1408.66 1461.89 C 1408.53 1470.6 1402.83 1474.3 1395.43 1477.94 C 1394.17 1477.43 1392.82 1476.7 1391.58 1476.08 z"/>
<path transform="translate(0,0)" fill="rgb(19,20,45)" d="M 1296.7 1539.47 L 1317.11 1528.3 C 1314.87 1537.32 1309.06 1539.82 1300.69 1541.39 L 1296.7 1539.47 z"/>
<path transform="translate(0,0)" fill="rgb(19,20,45)" d="M 1529.19 1315.76 C 1531.73 1310.64 1536.82 1301.11 1539.89 1296.75 C 1542.09 1305.06 1539.13 1310.32 1532.94 1315.53 L 1529.19 1315.76 z"/>
<path transform="translate(0,0)" fill="rgb(246,215,145)" d="M 1438.72 1400.09 C 1438.59 1408.35 1433.93 1412.3 1426.02 1413.82 C 1430.25 1408.88 1434.19 1404.76 1438.72 1400.09 z"/>
<path transform="translate(0,0)" fill="rgb(210,160,83)" d="M 896.241 1592.63 L 897.82 1591.23 L 897.361 1590.8 C 902.015 1589.12 903.138 1588.31 907.847 1588.9 L 908.635 1589.99 L 907.395 1592.06 L 900.931 1593.59 L 896.241 1592.63 z"/>
<path transform="translate(0,0)" fill="rgb(210,160,83)" d="M 519.27 733.82 C 521.15 733.223 527.484 730.055 529.847 728.917 C 527.446 732.86 527.574 735.706 527.874 740.116 L 528.897 741.845 C 531.161 740.889 531.963 740.427 534.084 739.162 L 535.41 739.611 C 534.744 746.871 531.484 747.372 533.289 754.201 C 516.659 786.705 506.185 807.764 494.102 842.647 C 454.954 957.233 453.924 1081.41 491.168 1196.63 C 537.523 1337.91 637.752 1455.19 770.081 1522.99 C 797.199 1536.87 820.666 1546.07 849.146 1556.55 C 850.227 1561.61 850.473 1561.01 855.485 1562.55 C 852.922 1564.43 852.255 1564.56 851.205 1567.72 C 848.051 1569.42 847.284 1571.51 845.534 1574.49 C 842.963 1576.01 841.663 1576.01 838.754 1576.48 C 826.898 1573.48 806.159 1564.58 794.698 1559.89 C 785.71 1561.66 780.485 1558.91 770.698 1554.26 C 753.829 1546.23 733.247 1535.5 718.02 1524.54 C 716.968 1523.79 715.413 1519.67 714.921 1518.36 C 712.664 1516.09 695.011 1505.08 691.003 1502.17 C 681.829 1495.5 673.062 1488.9 664.128 1481.8 C 540.85 1385.3 461.745 1243.13 444.743 1087.5 C 434.084 1074.78 436.282 947 447.326 937.665 C 448.125 935.98 455.144 895.349 457.007 887.83 C 468.339 842.12 484.308 799.232 505.642 757.234 C 508.298 752.007 515.847 737.583 519.27 733.82 z"/>
<path transform="translate(0,0)" fill="rgb(19,20,45)" d="M 444.743 1087.5 C 434.084 1074.78 436.282 947 447.326 937.665 C 441.246 994.135 438.799 1029.92 444.743 1087.5 z"/>
<path transform="translate(0,0)" fill="rgb(19,20,45)" d="M 714.921 1518.36 C 742.746 1534.73 764.876 1546.88 794.698 1559.89 C 785.71 1561.66 780.485 1558.91 770.698 1554.26 C 753.829 1546.23 733.247 1535.5 718.02 1524.54 C 716.968 1523.79 715.413 1519.67 714.921 1518.36 z"/>
<path transform="translate(0,0)" fill="rgb(15,20,53)" d="M 1005.48 466.72 C 1026.07 466.899 1088.08 466.92 1106.06 472.841 L 1101.87 474.253 C 1102.63 474.628 1114.3 473.187 1119 474.093 C 1167.53 483.443 1216.71 497.361 1261.36 519.521 L 1256.18 519.368 C 1259.74 523.952 1271.66 524.339 1277.68 527.423 C 1426.77 603.875 1538.46 748.564 1570.89 913.27 C 1572.85 923.198 1571.39 925.825 1571.57 935.481 C 1571.65 939.629 1574.08 948.667 1575.11 952.917 L 1575.89 952.47 L 1575.96 946.534 C 1579.05 952.863 1574.83 963.75 1576.55 965.497 C 1583.96 973.039 1576.49 977.041 1580.42 989.015 L 1579.89 987.924 C 1583.09 996.673 1581.7 997.319 1579.78 1006.03 C 1578.86 1014.59 1579.78 1026.74 1579.84 1035.18 C 1579.9 1044.02 1572.6 1106.53 1574.21 1109.79 L 1575.04 1109.42 C 1575.56 1093.75 1578.93 1079.41 1579.44 1061.02 L 1580.99 1060.2 L 1580.33 1058.71 L 1579.36 1060.32 L 1581.09 1061.47 C 1582.04 1069.16 1579.94 1070.67 1579.34 1077.16 C 1575.93 1114.11 1569.31 1151.85 1557.69 1187.1 L 1557.28 1186.22 L 1558.46 1183.56 L 1557.77 1182.41 L 1555.68 1182.72 C 1554.66 1184.21 1550.85 1201.2 1550.63 1203.08 L 1552.49 1204.53 C 1548.32 1210.61 1544.76 1221.89 1541.87 1229.21 L 1541.88 1228.46 C 1539.47 1233.12 1532.01 1245.75 1531.09 1250.08 L 1536.08 1246.2 C 1534.98 1247.69 1529.31 1260.16 1527.9 1262.95 C 1519.96 1278.74 1512.25 1293.91 1503.19 1309.12 C 1468.6 1366.53 1424.14 1417.38 1371.88 1459.34 C 1368.08 1462.33 1364.27 1464.4 1360.42 1467.23 C 1352.21 1473.24 1343.16 1482.01 1334.27 1486.64 L 1333.16 1485.99 L 1332.72 1484.24 C 1328 1486.36 1326.75 1491.14 1321.64 1493.62 C 1311.5 1498.53 1300.57 1510.54 1289.43 1513.13 C 1280.07 1515.3 1269.48 1522.59 1261.41 1528.01 C 1259.51 1527.07 1260.12 1527.33 1258 1526.97 C 1244.89 1534.1 1227.15 1541.04 1213.42 1547.79 C 1201.29 1552.99 1185.84 1554.28 1173.73 1558.18 C 1151.29 1565.4 1121.71 1576.55 1097.95 1576.12 C 1087.87 1577.79 1068.25 1578.87 1057.3 1581.78 C 1056.71 1581.43 1056.11 1581.08 1055.51 1580.73 C 1059.68 1578.93 1066.45 1581.13 1071.22 1579.43 L 1070.26 1577.97 C 1069.94 1577.9 1035.26 1579.3 1031.18 1579.54 C 994.381 1581.73 962.297 1575.61 926.226 1571.75 L 925.33 1572.52 C 928.148 1573.13 930.192 1573.61 932.955 1574.4 C 928.47 1574.61 921.809 1573.33 917.551 1571.88 L 917.814 1571.09 C 919.646 1571.06 921.466 1571.04 923.296 1571.13 C 918.477 1569.72 912.32 1567.74 907.478 1566.88 C 899.052 1565.69 890.467 1565.23 882.192 1563.14 C 877.711 1562 873.558 1560.02 869.216 1558.47 C 864.922 1556.82 860.588 1555.32 856.258 1553.76 C 842.92 1548.95 828.691 1545.28 815.617 1539.88 C 798.893 1532.98 782.388 1525.09 766.277 1516.89 C 758.735 1513.05 751.729 1507.86 744.481 1503.5 C 742.684 1503.48 741.177 1503.47 739.96 1503.46 C 734.357 1498.12 727.776 1492.47 721.344 1488.2 C 716.811 1485.19 707.781 1481.5 703.859 1478.27 C 690.588 1467.34 675.622 1456.23 662.598 1445.15 C 596.686 1388.82 544.933 1317.79 511.512 1237.78 C 502.78 1216.6 495.636 1196.25 489.349 1174.29 C 484.717 1158.11 483.478 1142.72 477.685 1127.59 C 476.239 1123.81 476.65 1119.89 475.958 1115.77 C 472.172 1095.49 470.725 1075.1 470.485 1054.5 C 470.439 1050.55 466.944 1051.4 466.612 1045.31 L 468.863 1044.42 C 470.312 1040.33 467.889 1006.73 468.507 998.575 C 470.233 975.799 474.656 953.616 476.552 930.99 C 476.879 927.089 476.24 922.449 477.854 918.723 C 486.653 878.629 499.123 841.043 514.446 802.757 L 513.589 801.684 C 516.191 799.082 535.717 761.11 535.848 759.264 C 535.885 758.73 535.769 758.195 535.777 757.66 C 535.816 754.773 536.308 753.611 538.381 751.6 C 546.299 743.92 555.721 721.535 562.968 711.073 C 565.419 707.536 569.573 705.479 572.115 702.047 C 576.515 696.103 579.907 689.481 584.51 683.513 C 610.58 649.708 641.676 618.14 674.703 591.082 C 679.436 587.205 684.203 583.054 689.298 579.661 C 694.852 575.963 728.369 555.908 730.389 553.233 C 731.108 552.281 731.1 550.956 731.456 549.817 C 750.91 540.607 769.141 529.423 787.962 519.183 C 796.405 514.168 807.719 511.973 816.252 507.779 C 833.111 499.492 850.221 494.124 868.255 489.037 C 870.44 488.42 880.494 486.712 881.425 486.146 C 895.548 477.565 912.683 480.34 927.746 474.347 C 929.88 473.509 944.241 472.79 947.125 472.573 L 941.215 473.577 C 954.805 473.707 960.713 473.168 973.972 470.366 L 972.635 470.175 C 983.763 466.943 994.473 468.412 1005.48 466.72 z"/>
<path transform="translate(0,0)" fill="url(#Gradient6)" d="M 986.796 723.219 C 989.635 720.38 989.031 717.168 991.665 713.751 C 993.56 714.229 993.588 714.218 995.477 714.426 C 1016.2 691.332 1059.85 658.434 1088.57 646.042 C 1094.39 643.529 1121.68 635.975 1129.35 633.746 L 1128.45 633.692 C 1133.63 631.719 1147.7 630.455 1153.93 629.721 L 1153.15 629.639 C 1163.14 628.347 1198.21 625.628 1206 631.188 C 1271.96 639.643 1326.53 666.004 1367.94 719.476 C 1406.45 769.315 1423.54 832.433 1415.42 894.89 C 1413.44 910.235 1410.55 921.493 1406.59 936.193 C 1407.62 970.621 1369.69 1010.14 1352.54 1037.67 C 1349.35 1042.8 1345.23 1047.94 1341.11 1052.28 C 1337.43 1056.16 1335.5 1056.46 1335.67 1062.29 C 1335.65 1065.19 1325.42 1072.98 1325.37 1076.27 C 1324.75 1082.43 1324.85 1081.96 1321.82 1086.83 C 1312.85 1101.23 1309 1112.29 1297.7 1125.5 C 1297.69 1128.35 1297.56 1127.29 1298.66 1130.02 C 1296.18 1133.19 1292.71 1133.35 1292.51 1133.71 C 1287.05 1143.44 1280.48 1154.15 1274.55 1163.68 C 1268.66 1173.12 1257.89 1181.8 1251.87 1191.66 C 1250.61 1193.43 1244.39 1196.97 1243.41 1198.55 C 1230.41 1219.59 1211.16 1234.6 1194.28 1252.23 C 1192.42 1253.51 1190.21 1253.91 1188.2 1254.76 C 1182.34 1257.24 1180.7 1265.19 1175.23 1269.11 C 1161.31 1279.08 1144.64 1286.83 1131.58 1297.7 C 1129.77 1299.2 1128.33 1301.32 1126.17 1302.24 C 1119.02 1304.31 1117.63 1299.9 1115.37 1308.24 C 1109.53 1312.45 1099.07 1315.37 1094.56 1319.03 L 1094.56 1321.55 C 1091.78 1324.08 1085.18 1323.72 1081.82 1325.35 C 1077.55 1327.4 1075.15 1332.28 1070.31 1333.65 C 1067.15 1332.74 1066.06 1331.65 1063.78 1333.03 C 1054.01 1338.96 1057.58 1339.9 1048.71 1340.56 C 1043.43 1340.94 1020.01 1366.13 1014.19 1370.34 C 1009.04 1374.06 1003.69 1376.96 998.622 1379.97 C 999.487 1381.17 998.906 1380.57 1000.55 1381.57 C 996.849 1387 987.289 1382.49 984.15 1391.18 C 966.631 1399.17 919.044 1416.83 900.675 1415.17 C 869.783 1419.42 844.559 1418.86 813.777 1412.18 C 753.787 1399.12 701.43 1362.79 668.199 1311.17 C 629.359 1250.61 623.395 1189.1 638.683 1120.36 C 638.763 1092.22 659.588 1059.9 675.085 1037.68 C 677.433 1034.31 686.461 1025.02 687.166 1023.05 C 690.124 1014.76 702.227 1009.22 701.373 1002.33 C 700.296 993.644 708.61 994.889 713.945 988.785 C 716.53 985.828 712.562 983.69 714.42 980.488 L 716.241 980.632 C 716.68 978.458 716.671 978.023 718.279 976.382 C 723.607 972.135 722.54 959.637 725.688 955.091 C 735.46 940.979 741.288 923.845 753.429 911.552 C 756.605 908.337 753.136 907.428 755.506 903.692 C 759.92 896.73 770.087 892.21 771.338 883.708 C 771.669 878.133 776.971 876.171 781.891 872.126 C 789.735 865.677 792.621 854.696 799.93 846.161 C 804.833 840.436 817.268 833.327 820.922 829.218 C 829.603 819.455 838.732 810.177 847.478 800.567 C 852.045 799.169 852.997 799.122 856.706 796.335 L 856.867 793.345 C 858.62 790.307 863.431 790.009 868.547 785.792 C 868.747 783.643 868.395 784.612 869.56 782.87 L 871.681 785.639 C 875.778 783.49 873.631 779.809 877.959 776.499 L 881.873 777.217 C 884.848 774.87 884.4 774.381 885.154 770.476 C 889.602 766.946 896.336 769.274 898.642 766.26 C 905.431 757.386 904.583 761.674 910.913 760.14 C 915.611 747.016 918.84 755.421 921.446 752.427 C 929.557 743.104 927.369 745.472 940.353 741.644 C 941.305 739.868 941.496 738.718 941.827 736.734 C 945.447 735.735 946.991 736.53 950.475 737.816 L 952.488 733.524 C 953.183 733.169 978.085 724.501 979.068 724.347 L 980 721.014 C 984.862 720.842 979.726 721.126 983.298 724.416 L 986.796 723.219 z"/>
<path transform="translate(0,0)" fill="rgb(29,91,118)" d="M 900.675 1415.17 C 917.765 1410.74 928.069 1409.45 945.583 1403.08 C 970.568 1393.93 993.872 1380.72 1014.55 1363.98 C 1034.59 1347.61 1063.8 1316.83 1082.81 1297.84 L 1196.43 1184.37 L 1304.72 1075.81 C 1340.16 1040.26 1376.42 1008.89 1396.73 961.684 C 1400.02 954.055 1402.35 945.023 1405.83 937.75 L 1406.59 936.193 C 1407.62 970.621 1369.69 1010.14 1352.54 1037.67 C 1349.35 1042.8 1345.23 1047.94 1341.11 1052.28 C 1337.43 1056.16 1335.5 1056.46 1335.67 1062.29 C 1335.65 1065.19 1325.42 1072.98 1325.37 1076.27 C 1324.75 1082.43 1324.85 1081.96 1321.82 1086.83 C 1312.85 1101.23 1309 1112.29 1297.7 1125.5 C 1297.69 1128.35 1297.56 1127.29 1298.66 1130.02 C 1296.18 1133.19 1292.71 1133.35 1292.51 1133.71 C 1287.05 1143.44 1280.48 1154.15 1274.55 1163.68 C 1268.66 1173.12 1257.89 1181.8 1251.87 1191.66 C 1250.61 1193.43 1244.39 1196.97 1243.41 1198.55 C 1230.41 1219.59 1211.16 1234.6 1194.28 1252.23 C 1192.42 1253.51 1190.21 1253.91 1188.2 1254.76 C 1182.34 1257.24 1180.7 1265.19 1175.23 1269.11 C 1161.31 1279.08 1144.64 1286.83 1131.58 1297.7 C 1129.77 1299.2 1128.33 1301.32 1126.17 1302.24 C 1119.02 1304.31 1117.63 1299.9 1115.37 1308.24 C 1109.53 1312.45 1099.07 1315.37 1094.56 1319.03 L 1094.56 1321.55 C 1091.78 1324.08 1085.18 1323.72 1081.82 1325.35 C 1077.55 1327.4 1075.15 1332.28 1070.31 1333.65 C 1067.15 1332.74 1066.06 1331.65 1063.78 1333.03 C 1054.01 1338.96 1057.58 1339.9 1048.71 1340.56 C 1043.43 1340.94 1020.01 1366.13 1014.19 1370.34 C 1009.04 1374.06 1003.69 1376.96 998.622 1379.97 C 999.487 1381.17 998.906 1380.57 1000.55 1381.57 C 996.849 1387 987.289 1382.49 984.15 1391.18 C 966.631 1399.17 919.044 1416.83 900.675 1415.17 z"/>
<path transform="translate(0,0)" fill="rgb(29,91,118)" d="M 638.683 1120.36 C 638.763 1092.22 659.588 1059.9 675.085 1037.68 C 677.433 1034.31 686.461 1025.02 687.166 1023.05 C 690.124 1014.76 702.227 1009.22 701.373 1002.33 C 700.296 993.644 708.61 994.889 713.945 988.785 C 716.53 985.828 712.562 983.69 714.42 980.488 L 716.241 980.632 C 716.68 978.458 716.671 978.023 718.279 976.382 C 723.607 972.135 722.54 959.637 725.688 955.091 C 735.46 940.979 741.288 923.845 753.429 911.552 C 756.605 908.337 753.136 907.428 755.506 903.692 C 759.92 896.73 770.087 892.21 771.338 883.708 C 771.669 878.133 776.971 876.171 781.891 872.126 C 789.735 865.677 792.621 854.696 799.93 846.161 C 804.833 840.436 817.268 833.327 820.922 829.218 C 829.603 819.455 838.732 810.177 847.478 800.567 C 852.045 799.169 852.997 799.122 856.706 796.335 L 856.867 793.345 C 858.62 790.307 863.431 790.009 868.547 785.792 C 868.747 783.643 868.395 784.612 869.56 782.87 L 871.681 785.639 C 875.778 783.49 873.631 779.809 877.959 776.499 L 881.873 777.217 C 884.848 774.87 884.4 774.381 885.154 770.476 C 889.602 766.946 896.336 769.274 898.642 766.26 C 905.431 757.386 904.583 761.674 910.913 760.14 C 915.611 747.016 918.84 755.421 921.446 752.427 C 929.557 743.104 927.369 745.472 940.353 741.644 C 941.305 739.868 941.496 738.718 941.827 736.734 C 945.447 735.735 946.991 736.53 950.475 737.816 L 952.488 733.524 C 953.183 733.169 978.085 724.501 979.068 724.347 L 980 721.014 C 984.862 720.842 979.726 721.126 983.298 724.416 L 986.796 723.219 L 986.057 724.213 C 982.463 728.979 979.94 731.505 975.765 735.739 C 976.36 737.579 975.854 736.809 977.252 738.07 C 970.547 746.017 958.291 757.505 950.542 765.199 L 902.575 812.927 L 751.31 964.374 C 717.496 998.217 679.087 1031.3 656.836 1074.16 C 648.578 1090.07 644.939 1104.15 638.683 1120.36 z"/>
<path transform="translate(0,0)" fill="rgb(29,91,118)" d="M 986.796 723.219 C 989.635 720.38 989.031 717.168 991.665 713.751 C 993.56 714.229 993.588 714.218 995.477 714.426 C 1016.2 691.332 1059.85 658.434 1088.57 646.042 C 1094.39 643.529 1121.68 635.975 1129.35 633.746 L 1128.45 633.692 C 1133.63 631.719 1147.7 630.455 1153.93 629.721 L 1153.15 629.639 C 1163.14 628.347 1198.21 625.628 1206 631.188 C 1131.58 628.408 1076.48 644.79 1019.85 696.17 C 1006.09 708.651 990.47 726.616 977.252 738.07 C 975.854 736.809 976.36 737.579 975.765 735.739 C 979.94 731.505 982.463 728.979 986.057 724.213 L 986.796 723.219 z"/>
<path transform="translate(0,0)" fill="url(#Gradient5)" d="M 1161.99 651.629 C 1216.39 645.998 1270.9 661.246 1314.49 694.288 C 1359.83 729.161 1389.1 780.924 1395.61 837.754 C 1402.38 892.834 1386.5 954.785 1351.53 997.971 C 1335.14 1018.21 1307.94 1043.86 1288.86 1062.89 L 1178.44 1172.99 L 1065.22 1286.81 C 1005.53 1346.8 973.832 1386.31 883.082 1397 C 828.595 1400.41 777.266 1387.4 733.655 1353.48 C 688.593 1318.42 659.28 1266.92 652.148 1210.27 C 645.437 1156.14 659.921 1095.23 694.243 1052.56 C 710.051 1032.91 737.7 1006.69 756.121 988.277 L 864.799 879.742 L 981.394 763.033 C 1040.81 703.607 1072.26 662.483 1161.99 651.629 z"/>
<path transform="translate(0,0)" fill="url(#Gradient4)" d="M 942.706 946.789 L 992.355 896.909 C 997.536 891.712 1012.15 876.444 1017.34 872.745 C 1016.08 878.604 960.26 930.884 952.075 939.864 C 950.867 941.19 946.168 943.381 947.838 946.078 C 951.275 951.439 958.904 953.06 961.175 958.835 C 962.195 954.985 972.584 946.789 975.963 944.47 C 988.26 943.203 1008.73 944.593 1016.35 943.182 L 1016.45 940.64 L 1018.29 940.35 L 1019.29 941.295 C 1021.18 943.047 1023.83 945.96 1026.2 945.465 C 1044.72 941.609 1057.11 947.513 1071.1 959.259 C 1077.1 964.297 1082.22 972.733 1088.54 978.488 C 1106.97 976.93 1146.06 950.401 1154.49 949.928 L 1155.19 950.581 C 1191.9 932.968 1229.53 915.563 1270.8 929.994 C 1283.74 934.519 1295.89 942.002 1302.11 954.729 C 1306.73 964.181 1307.32 975.1 1303.75 984.994 C 1302.06 989.682 1299.58 994.046 1296.42 997.898 C 1293.94 1001.45 1276.66 1019.88 1273.55 1022.26 C 1269.17 1026.93 1264.54 1032.21 1259.61 1036.25 C 1246.5 1050.12 1231.82 1064.21 1218.22 1077.74 C 1209.26 1086.67 1196.85 1100.11 1187.61 1108.13 C 1162.44 1133.85 1137.1 1159.4 1111.6 1184.78 C 1097.62 1198.78 1078.38 1219.15 1064.2 1231.6 C 1058.52 1239.54 1041.94 1254 1034.18 1261.67 C 1001.35 1294.09 976.021 1325.8 932.069 1343.82 C 888.937 1361.68 840.456 1361.56 797.414 1343.48 C 754.194 1325.16 720.139 1290.26 702.891 1246.6 C 684.397 1200.29 687.895 1153.44 707.112 1108.22 C 710.376 1101.45 714.752 1092.5 719.418 1086.69 C 727.684 1071.95 743.383 1056.41 755.861 1045.12 C 757.415 1042.2 826.887 972.606 832.002 968.819 C 835.748 964.345 839.676 960.586 843.804 956.482 C 860.154 938.712 877.68 928.053 902.781 931.368 L 904.989 931.751 L 909.594 932.233 C 918.182 934.864 927.2 937.523 934.739 942.539 C 937.714 943.972 939.909 944.964 942.706 946.789 z"/>
<path transform="translate(0,0)" fill="url(#Gradient3)" d="M 942.706 946.789 L 992.355 896.909 C 997.536 891.712 1012.15 876.444 1017.34 872.745 C 1016.08 878.604 960.26 930.884 952.075 939.864 C 950.867 941.19 946.168 943.381 947.838 946.078 C 951.275 951.439 958.904 953.06 961.175 958.835 C 962.195 954.985 972.584 946.789 975.963 944.47 C 988.26 943.203 1008.73 944.593 1016.35 943.182 L 1016.45 940.64 L 1018.29 940.35 L 1019.29 941.295 C 1021.18 943.047 1023.83 945.96 1026.2 945.465 C 1044.72 941.609 1057.11 947.513 1071.1 959.259 C 1077.1 964.297 1082.22 972.733 1088.54 978.488 C 1106.97 976.93 1146.06 950.401 1154.49 949.928 L 1155.19 950.581 C 1191.9 932.968 1229.53 915.563 1270.8 929.994 C 1283.74 934.519 1295.89 942.002 1302.11 954.729 C 1306.73 964.181 1307.32 975.1 1303.75 984.994 C 1302.06 989.682 1299.58 994.046 1296.42 997.898 C 1293.94 1001.45 1276.66 1019.88 1273.55 1022.26 C 1268.52 1023.16 1260.91 1030.1 1256.24 1033.81 C 1246.42 1041.61 1233.43 1047.62 1223.86 1054.53 C 1214.17 1058.42 1205.05 1062.88 1195.17 1066.7 C 1190.38 1068.56 1182.5 1070.88 1178.59 1072.54 C 1152.49 1078.31 1130.81 1081.52 1104.05 1077.31 C 1044.83 1067.99 1015.39 1029.73 982.435 985.211 C 967.61 966.995 961.627 960.629 942.706 946.789 z"/>
<path transform="translate(0,0)" fill="rgb(38,181,207)" d="M 942.706 946.789 L 992.355 896.909 C 997.536 891.712 1012.15 876.444 1017.34 872.745 C 1016.08 878.604 960.26 930.884 952.075 939.864 C 950.867 941.19 946.168 943.381 947.838 946.078 C 951.275 951.439 958.904 953.06 961.175 958.835 C 962.195 954.985 972.584 946.789 975.963 944.47 C 988.26 943.203 1008.73 944.593 1016.35 943.182 L 1016.45 940.64 L 1018.29 940.35 L 1019.29 941.295 C 1021.18 943.047 1023.83 945.96 1026.2 945.465 C 1044.72 941.609 1057.11 947.513 1071.1 959.259 C 1077.1 964.297 1082.22 972.733 1088.54 978.488 C 1106.97 976.93 1146.06 950.401 1154.49 949.928 L 1155.19 950.581 C 1151.27 953.966 1142.74 957.484 1137.88 960.477 C 1126.2 965.332 1114.94 971.633 1103.15 976.188 C 1063.82 991.375 1010.88 991.111 973.183 970.72 C 976.872 975.147 980.647 979.127 983.148 984.274 L 982.435 985.211 C 967.61 966.995 961.627 960.629 942.706 946.789 z"/>
<path transform="translate(0,0)" fill="rgb(128,241,237)" d="M 1155.19 950.581 C 1191.9 932.968 1229.53 915.563 1270.8 929.994 C 1283.74 934.519 1295.89 942.002 1302.11 954.729 C 1306.73 964.181 1307.32 975.1 1303.75 984.994 C 1302.06 989.682 1299.58 994.046 1296.42 997.898 C 1296.67 985.724 1297.24 972.974 1288.81 963.192 C 1259.53 929.182 1202.88 942.893 1168.57 960.723 C 1162.97 963.631 1156.04 967.551 1149.78 966.557 L 1152.69 965.79 C 1148.72 963.777 1148.24 962.644 1144.85 959.883 L 1144 960.643 L 1143.84 961.928 C 1140.83 962.603 1141.36 962.124 1137.88 960.477 C 1142.74 957.484 1151.27 953.966 1155.19 950.581 z"/>
<path transform="translate(0,0)" fill="url(#Gradient2)" d="M 904.989 931.751 L 909.594 932.233 C 918.182 934.864 927.2 937.523 934.739 942.539 L 935.711 943.829 C 936.882 945.353 937.468 946.024 938.758 947.392 L 939.18 949.97 C 937.504 952.03 934.636 955.032 934.004 957.323 C 937.053 959.8 935.858 958.286 937.322 962.312 C 933.256 960.199 933.653 959.489 930.26 960.246 C 922.284 967.075 913.479 976.582 905.939 984.181 L 866.173 1023.97 C 854.476 1035.64 777.157 1110.78 776.081 1116.48 L 772.633 1120.35 C 770.442 1120.96 769.379 1121.08 767.112 1121.38 C 763.711 1118.08 761.783 1110.28 759.338 1109.4 C 756.258 1108.29 752.172 1108.82 748.615 1105.73 C 747.476 1102.74 748.234 1103.64 746.044 1101.64 L 742.708 1102.07 C 745.115 1096.45 753.797 1085.69 758.13 1081.22 C 790.815 1047.46 824.38 1014.53 857.298 980.989 C 864.9 973.244 873.709 963.566 881.963 956.81 C 887.668 953.435 897.852 938.854 904.989 931.751 z"/>
<path transform="translate(0,0)" fill="rgb(207,252,250)" d="M 909.594 932.233 C 918.182 934.864 927.2 937.523 934.739 942.539 L 935.711 943.829 C 936.882 945.353 937.468 946.024 938.758 947.392 L 939.18 949.97 C 937.504 952.03 934.636 955.032 934.004 957.323 C 926.663 958.03 915.636 950.731 907.452 948.657 C 902.042 947.286 899.86 946.809 894.251 945.984 C 898.805 940.511 902.896 934.435 909.594 932.233 z"/>
<path transform="translate(0,0)" fill="rgb(38,181,207)" d="M 776.081 1116.48 C 777.221 1115.99 778.039 1115.63 779.16 1115.08 L 779.527 1116.07 C 761.561 1135.54 754.99 1153.04 748.675 1178.46 L 749.206 1178.75 L 750.048 1177.27 C 752.701 1177.37 752.976 1177.06 754.972 1178.64 L 755.094 1179.72 C 751.953 1183.04 752.619 1181.23 751.935 1184.95 C 756.943 1196.82 760.489 1192.9 768.712 1200.23 C 769.538 1200.96 766.822 1203.08 769.182 1207.7 C 771.881 1208 773.09 1208.03 775.814 1208 C 785.06 1213.99 790.372 1230.42 801.864 1233.59 C 803.29 1233.98 803.354 1234.47 804.341 1235.78 L 805.247 1243.4 C 807.465 1243.85 808.095 1243.81 810.381 1243.84 C 818.736 1248.69 823.152 1252.48 830.061 1259.2 C 834.821 1263.83 849.703 1265.09 855.851 1267.41 C 856.215 1269.35 856.343 1269.73 857.286 1271.59 C 860.564 1273.14 867.504 1276.87 870.637 1277.19 L 872.616 1273.68 L 874.606 1273.41 C 879.192 1277.7 873.244 1279.27 883.052 1280.49 C 889.565 1281.3 894.864 1280.91 899.76 1285.52 L 899.683 1287.53 C 897.732 1288.77 898.309 1288.65 896.171 1289.21 C 901.015 1292.88 906.457 1288.13 907.503 1294.06 L 906.404 1295.97 L 905.208 1295.12 C 905.563 1297.56 905.545 1297.4 906.833 1299.52 L 910.576 1299.39 C 911.259 1296.3 911.552 1292.72 913.655 1290.66 C 916.729 1290.94 918.081 1292.78 918.93 1295.58 C 917.067 1298.56 918.319 1297.83 915.631 1298.73 L 915.565 1296.29 C 909.087 1305.55 915.36 1316 893.52 1308.85 C 892.39 1308.48 885.32 1316.82 880.796 1317.39 C 870.146 1318.75 870.568 1307.43 861.515 1316.27 C 861.245 1314.92 860.928 1313.69 860.478 1312.38 C 846.437 1310.74 849.905 1319.13 838.365 1308.45 C 835.022 1307.68 832.733 1309.12 829.433 1310.43 C 821.106 1309.64 817.203 1300.6 812.409 1300.66 L 810.679 1302.95 L 809.46 1302.74 C 809.142 1300.47 809.078 1301.63 809.752 1299.28 C 803.322 1294.64 805.205 1300.19 802.875 1295.94 L 803.44 1293.4 L 802.16 1292.6 L 801.775 1295.71 C 799.884 1294.66 799.753 1292.83 798.695 1290.25 C 797.614 1291.3 798.096 1290.67 797.346 1292.23 L 796.621 1291.06 L 798.599 1285.31 L 797.578 1284.01 C 794.573 1284.63 794.195 1284.95 791.497 1286.27 C 787.241 1285.01 787.632 1283.06 786.817 1278.84 C 784.568 1278.3 784.024 1278.97 781.417 1279.8 C 780.507 1276.93 781.058 1276.27 781.585 1273.05 L 780.445 1270.45 C 780.177 1272.6 780.394 1274.35 779.22 1275.62 C 776.368 1273.03 770.563 1268.35 769.129 1265.18 C 768.893 1251.73 759.324 1260.29 758.684 1241.83 C 754.295 1235.37 753.975 1237.21 753.43 1229.49 L 752.424 1229.83 C 752.496 1234.86 753.443 1235.46 751.047 1238.44 L 747.674 1236.31 L 748.697 1236.52 L 746.627 1237.65 C 744.336 1245.61 753.887 1254.52 749.591 1262.95 C 747.754 1256.56 746.226 1250.08 745.013 1243.53 C 736.436 1197.35 746.419 1158.58 772.633 1120.35 L 776.081 1116.48 z"/>
<path transform="translate(0,0)" fill="url(#Gradient1)" d="M 934.739 942.539 C 937.714 943.972 939.909 944.964 942.706 946.789 C 961.627 960.629 967.61 966.995 982.435 985.211 C 1015.39 1029.73 1044.83 1067.99 1104.05 1077.31 C 1130.81 1081.52 1152.49 1078.31 1178.59 1072.54 C 1177.08 1074.95 1176.93 1074.77 1174.42 1076.23 C 1170.11 1088.83 1164.36 1081.11 1157.69 1086.91 C 1162.08 1089.25 1177.72 1082.43 1179.98 1083.3 C 1177.37 1090.39 1149.2 1090.21 1144.02 1093.57 C 1054.92 1097.1 1015.03 1063.33 967.903 992.251 C 961.004 981.846 947.038 970.256 937.322 962.312 C 935.858 958.286 937.053 959.8 934.004 957.323 C 934.636 955.032 937.504 952.03 939.18 949.97 L 938.758 947.392 C 937.468 946.024 936.882 945.353 935.711 943.829 L 934.739 942.539 z"/>
<path transform="translate(0,0)" fill="rgb(102,204,228)" d="M 742.708 1102.07 L 746.044 1101.64 C 748.234 1103.64 747.476 1102.74 748.615 1105.73 C 752.172 1108.82 756.258 1108.29 759.338 1109.4 C 761.783 1110.28 763.711 1118.08 767.112 1121.38 C 769.379 1121.08 770.442 1120.96 772.633 1120.35 C 746.419 1158.58 736.436 1197.35 745.013 1243.53 C 746.226 1250.08 747.754 1256.56 749.591 1262.95 C 751.708 1269.12 753.677 1275.34 755.497 1281.61 C 735.267 1251.02 725.116 1231.9 720.621 1194.04 C 717.556 1168.23 725.816 1122.04 742.708 1102.07 z"/>
<path transform="translate(0,0)" fill="rgb(128,241,237)" d="M 707.112 1108.22 L 710.021 1107.71 C 712.253 1111.74 707.228 1120.95 703.314 1123.65 L 703.266 1124.52 C 704.473 1125.82 704.918 1126.35 706.272 1127.5 L 705.571 1128.68 C 696.685 1143.96 701.406 1154.97 698.463 1160.86 C 698.268 1158.79 698.263 1155.2 697.286 1153.73 C 693.949 1172.72 696.624 1192.85 696.062 1212.32 L 696.869 1208.62 C 698.33 1210.86 698.303 1214.58 698.608 1217.52 C 698.832 1216.2 699.054 1215.03 699.556 1213.78 C 703.486 1219.2 698.775 1224.29 701.378 1226.05 C 702.8 1227.01 703.163 1228.32 704.196 1230.59 L 704.091 1231.76 L 702.575 1231.35 C 702.842 1234.38 705.239 1236.83 706.211 1239.81 C 707.266 1243.05 710.721 1253.39 712.028 1255.76 C 714.579 1260.37 728.846 1289.38 731.62 1291.19 C 741.501 1297.7 748.338 1306.62 757.673 1313.78 C 758.514 1314.42 757.987 1317.63 760.4 1318.93 C 772.974 1325.69 785.149 1333.06 798.036 1339.33 C 802.303 1341.41 806.455 1341.44 810.936 1342.83 C 815.789 1344.76 817.477 1346.18 822.917 1347.55 C 843.655 1352.8 865.604 1352.39 886.799 1351.07 C 893.3 1350.67 903.843 1346.79 908.95 1346.67 C 919.91 1346.43 923.131 1343.77 932.263 1336.39 C 932.974 1337.59 932.699 1336.96 933.093 1338.29 C 944.66 1335.45 957.747 1323.99 962.119 1323.3 L 962.831 1324.78 L 964.267 1323.7 C 963.621 1316.48 976.613 1315.22 979.656 1311.41 C 1000.99 1284.69 1028.3 1265.23 1052.08 1241.02 C 1056.15 1236.88 1057.89 1233.99 1063 1230.83 L 1064.2 1231.6 C 1058.52 1239.54 1041.94 1254 1034.18 1261.67 C 1001.35 1294.09 976.021 1325.8 932.069 1343.82 C 888.937 1361.68 840.456 1361.56 797.414 1343.48 C 754.194 1325.16 720.139 1290.26 702.891 1246.6 C 684.397 1200.29 687.895 1153.44 707.112 1108.22 z"/>
<path transform="translate(0,0)" fill="rgb(128,241,237)" d="M 1223.86 1054.53 C 1233.43 1047.62 1246.42 1041.61 1256.24 1033.81 C 1260.91 1030.1 1268.52 1023.16 1273.55 1022.26 C 1269.17 1026.93 1264.54 1032.21 1259.61 1036.25 C 1246.5 1050.12 1231.82 1064.21 1218.22 1077.74 C 1209.26 1086.67 1196.85 1100.11 1187.61 1108.13 C 1187.08 1100.89 1219.8 1078.92 1222.05 1068.03 C 1217.85 1068.67 1216.18 1072.74 1212.66 1074.34 C 1200.32 1079.97 1189.29 1086.09 1176.32 1090.14 C 1170 1092.11 1162.66 1091.76 1158.92 1093.7 C 1152.12 1097.3 1144.26 1098.35 1136.75 1096.68 C 1138.91 1094.75 1141.21 1094.4 1144.02 1093.57 C 1149.2 1090.21 1177.37 1090.39 1179.98 1083.3 C 1177.72 1082.43 1162.08 1089.25 1157.69 1086.91 C 1164.36 1081.11 1170.11 1088.83 1174.42 1076.23 C 1176.93 1074.77 1177.08 1074.95 1178.59 1072.54 C 1182.5 1070.88 1190.38 1068.56 1195.17 1066.7 C 1205.05 1062.88 1214.17 1058.42 1223.86 1054.53 z"/>
<path transform="translate(0,0)" fill="rgb(128,241,237)" d="M 843.804 956.482 C 860.154 938.712 877.68 928.053 902.781 931.368 L 904.989 931.751 C 897.852 938.854 887.668 953.435 881.963 956.81 C 884.427 953.409 887.235 950.355 890.004 947.193 C 872.28 942.724 847.646 960.709 832.002 968.819 C 835.748 964.345 839.676 960.586 843.804 956.482 z"/>
<path transform="translate(0,0)" fill="rgb(128,241,237)" d="M 755.861 1045.12 C 760.361 1043.98 762.035 1038.46 764.917 1038.22 L 764.47 1038.07 L 764.909 1039.92 C 761.466 1046.86 745.749 1060.82 739.953 1067.71 C 734.627 1074.04 728.388 1081.56 722.996 1087.89 L 719.418 1086.69 C 727.684 1071.95 743.383 1056.41 755.861 1045.12 z"/>
<path transform="translate(0,0)" fill="rgb(102,204,228)" d="M 902.781 931.368 C 903.911 931.229 905.943 931.03 906.762 930.263 C 920.246 917.64 933.462 903.816 946.525 890.77 L 1035.34 801.55 C 1051.72 785.001 1071.26 764.227 1088.19 748.716 C 1116.45 722.984 1153.85 709.652 1192.02 711.705 C 1239.32 714.093 1272.41 735.274 1303.1 769.326 C 1270.68 750.086 1246.13 738.593 1207.01 739.887 C 1145.02 741.939 1112.87 775.059 1073 816.584 C 1055.09 835.24 1035.35 853.689 1017.34 872.745 C 1012.15 876.444 997.536 891.712 992.355 896.909 L 942.706 946.789 C 939.909 944.964 937.714 943.972 934.739 942.539 C 927.2 937.523 918.182 934.864 909.594 932.233 L 904.989 931.751 L 902.781 931.368 z"/>
<path transform="translate(0,0)" fill="rgb(26,53,83)" d="M 643.998 773.567 C 652.739 773.37 660.829 778.547 667.423 783.842 C 671.322 786.974 668.663 794.869 669.729 798.13 C 675.23 814.959 668.97 820.379 655.044 828.316 C 651.797 830.167 653.402 831.808 647.898 830.488 C 646.032 830.431 636.711 831.1 636.681 831.09 C 614.329 823.423 610.661 807.558 616.005 786.244 C 616.973 782.384 624.351 780.5 627.406 779.516 L 626.314 776.716 C 631.34 774.242 638.075 775.152 643.998 773.567 z"/>
<path transform="translate(0,0)" fill="rgb(252,254,254)" d="M 641.631 783.341 C 644.811 784.859 646.757 792.365 648.191 796.176 C 653.242 798.921 658.314 800.051 663.832 801.557 C 649.592 807.152 647.95 806.428 643.369 820.854 L 641.647 819.953 C 636.398 806.496 634.188 806.211 620.505 802.326 C 626.205 800.694 630.379 799.293 635.925 797.236 C 638.508 792.542 639.83 788.354 641.631 783.341 z"/>
<path transform="translate(0,0)" fill="rgb(26,53,83)" d="M 1129.7 1453.49 C 1142.68 1453.01 1154.11 1458.04 1156.25 1472.89 C 1157.43 1481.08 1150.34 1487.84 1145.27 1493.5 C 1139.69 1493.53 1137.65 1494.69 1130.63 1493.08 C 1113.17 1489.08 1111 1465.63 1124.53 1456.23 C 1124.58 1456.19 1127.78 1456.7 1130.04 1455.58 L 1129.7 1453.49 z"/>
<path transform="translate(0,0)" fill="rgb(252,254,254)" d="M 1134.94 1463.53 C 1136.06 1464.5 1136.3 1464.37 1136.57 1465.61 C 1137.7 1470.8 1140.61 1471.11 1143.95 1475.1 C 1138.95 1476.81 1137.8 1479.8 1136.26 1484.46 L 1134.84 1483.5 C 1132.98 1477.82 1131.38 1478.1 1127.57 1473.75 C 1133.34 1470.5 1133.49 1469.99 1134.94 1463.53 z"/>
<path transform="translate(0,0)" fill="rgb(26,53,83)" d="M 852.199 649.343 C 874.294 645.977 881.501 673.225 869.556 680.375 L 868.802 676.638 C 867.256 681.291 867.325 681.754 863.602 684.584 C 854.05 684.039 843.933 686.179 839.938 674.774 C 835.894 663.229 841.327 653.375 852.199 649.343 z"/>
<path transform="translate(0,0)" fill="rgb(29,91,118)" d="M 846.4 666.45 C 851.624 664.244 852.705 662.872 856.517 658.657 C 859.294 663.132 860.987 664.23 865.827 665.979 C 866.625 667.229 866.887 668.058 867.472 669.426 C 865.475 677.882 853.765 680.595 847.754 674.503 C 845.433 672.151 846.221 669.479 846.4 666.45 z"/>
<path transform="translate(0,0)" fill="rgb(252,254,254)" d="M 846.4 666.45 C 851.624 664.244 852.705 662.872 856.517 658.657 C 859.294 663.132 860.987 664.23 865.827 665.979 C 860.978 667.918 860.074 669.009 856.637 672.942 L 855.99 672.877 C 852.35 668.881 851.533 668.141 846.4 666.45 z"/>
<path transform="translate(0,0)" fill="rgb(26,53,83)" d="M 1319.25 1184.57 L 1320.25 1184.25 C 1322.74 1185.87 1326.68 1185.42 1331.33 1188.74 C 1335.53 1191.75 1338.26 1196.39 1338.88 1201.52 C 1339.97 1210.27 1334.11 1218.6 1325.07 1218.82 C 1324.85 1218.73 1323.12 1218.1 1322.88 1217.89 C 1318.29 1214.07 1315.07 1216.4 1308.68 1213.39 C 1299.28 1197.23 1304.5 1193.26 1319.25 1184.57 z"/>
<path transform="translate(0,0)" fill="rgb(29,91,118)" d="M 1316.46 1205.7 L 1316.6 1207.31 L 1315.36 1208.24 C 1303.21 1204.85 1306.1 1190.26 1319.34 1190.57 C 1322.4 1190.65 1322.14 1191.24 1323.79 1193.33 L 1323.06 1195.23 C 1325.31 1196.23 1326.76 1198.44 1326.79 1200.9 C 1326.81 1203.35 1325.4 1205.59 1323.17 1206.63 C 1320.95 1207.66 1318.32 1207.3 1316.46 1205.7 z"/>
<path transform="translate(0,0)" fill="rgb(252,254,254)" d="M 1316.46 1205.7 C 1314.1 1203.68 1313.59 1200.24 1315.24 1197.62 C 1316.9 1194.99 1320.22 1193.98 1323.06 1195.23 C 1325.31 1196.23 1326.76 1198.44 1326.79 1200.9 C 1326.81 1203.35 1325.4 1205.59 1323.17 1206.63 C 1320.95 1207.66 1318.32 1207.3 1316.46 1205.7 z"/>
<path transform="translate(0,0)" fill="rgb(29,91,118)" d="M 769.02 796.51 C 775.826 796.249 790.696 798.03 793.675 805.266 C 793.416 807.434 793.846 806.439 792.225 808.174 C 788.461 806.223 787.798 802.308 782.947 799.044 L 785.137 803.42 L 784.52 804.372 C 792.82 810.33 789.035 822.791 780.246 826.369 C 777.609 826.43 774.898 826.585 772.256 826.7 L 775.111 829.176 L 774.69 830.691 C 771.179 829.921 770.472 829.276 767.472 827.418 L 766.497 826.807 L 766.918 827.463 C 760.407 822.397 753.476 816.941 756.337 807.787 L 760.347 807.317 C 763.756 803.403 765.953 800.776 769.02 796.51 z"/>
<path transform="translate(0,0)" fill="rgb(252,254,254)" d="M 771.823 807.536 C 773.899 806.327 776.475 806.376 778.503 807.664 C 780.53 808.951 781.671 811.262 781.459 813.655 C 781.247 816.047 779.719 818.122 777.497 819.034 C 774.373 820.315 770.79 818.96 769.296 815.932 C 767.801 812.904 768.906 809.236 771.823 807.536 z"/>
<path transform="translate(0,0)" fill="rgb(252,254,254)" d="M 1373.3 1299.7 C 1375.31 1301.84 1376.44 1306.29 1378 1309.31 C 1381.51 1316.06 1387.29 1316.48 1394.36 1318.37 C 1387.36 1320.76 1385.29 1321.75 1378.83 1325.39 L 1374.21 1336.82 C 1371.99 1335.27 1369.08 1327.87 1367.76 1324.96 C 1362.94 1321.93 1358.81 1320.45 1353.58 1318.3 C 1359.66 1316.46 1361.95 1315.64 1367.79 1312.96 C 1369.7 1308.66 1371.5 1304.07 1373.3 1299.7 z"/>
<path transform="translate(0,0)" fill="rgb(26,53,83)" d="M 566.196 1000.79 C 572.468 999.706 575.946 998.966 580.711 1003.98 C 586.896 1010.49 583.508 1016.57 577.771 1021.11 C 564.224 1026.86 556.766 1013.93 566.196 1000.79 z"/>
<path transform="translate(0,0)" fill="rgb(26,53,83)" d="M 1492 935.551 C 1506.09 935.969 1516.13 947.497 1501.33 957.477 C 1486.27 958.933 1481.59 947.331 1492 935.551 z"/>
<path transform="translate(0,0)" fill="rgb(252,254,254)" d="M 1495.47 942.56 C 1497.85 941.966 1500.31 943.174 1501.3 945.419 C 1502.28 947.663 1501.51 950.291 1499.46 951.64 C 1497.79 952.741 1495.62 952.747 1493.95 951.655 C 1492.27 950.563 1491.4 948.581 1491.73 946.607 C 1492.06 944.634 1493.53 943.045 1495.47 942.56 z"/>
<path transform="translate(0,0)" fill="rgb(252,254,254)" d="M 1196.24 1330.54 C 1199 1329.77 1201.88 1331.32 1202.75 1334.05 C 1203.62 1336.79 1202.16 1339.72 1199.46 1340.68 C 1197.63 1341.33 1195.59 1340.93 1194.13 1339.64 C 1192.68 1338.35 1192.05 1336.36 1192.49 1334.47 C 1192.93 1332.57 1194.37 1331.07 1196.24 1330.54 z"/>
<path transform="translate(0,0)" fill="rgb(252,254,254)" d="M 1085.84 551.531 C 1088.26 550.602 1090.99 551.661 1092.16 553.979 C 1093.32 556.298 1092.53 559.119 1090.33 560.5 C 1088.71 561.521 1086.65 561.533 1085.01 560.529 C 1083.38 559.526 1082.46 557.682 1082.63 555.773 C 1082.81 553.863 1084.05 552.219 1085.84 551.531 z"/>
<path transform="translate(0,0)" fill="rgb(252,254,254)" d="M 719.985 644.502 C 721.606 643.636 723.572 643.733 725.101 644.752 C 726.629 645.772 727.473 647.549 727.297 649.378 C 727.121 651.207 725.954 652.791 724.259 653.501 C 721.802 654.528 718.972 653.445 717.829 651.04 C 716.687 648.634 717.636 645.756 719.985 644.502 z"/>
</svg>