<svg version="1.1" xmlns="http://www.w3.org/2000/svg" style="display: block;" viewBox="0 0 2048 2048" width="1024" height="1024" preserveAspectRatio="none">
<defs>
	<linearGradient id="Gradient1" gradientUnits="userSpaceOnUse" x1="1112.18" y1="1578.12" x2="1067.7" y2="1615.5">
		<stop class="stop0" offset="0" stop-opacity="1" stop-color="rgb(37,23,68)"/>
		<stop class="stop1" offset="1" stop-opacity="1" stop-color="rgb(79,55,155)"/>
	</linearGradient>
	<linearGradient id="Gradient2" gradientUnits="userSpaceOnUse" x1="1164.74" y1="1469.73" x2="1200.81" y2="1509.86">
		<stop class="stop0" offset="0" stop-opacity="1" stop-color="rgb(0,0,0)"/>
		<stop class="stop1" offset="1" stop-opacity="1" stop-color="rgb(41,23,70)"/>
	</linearGradient>
	<linearGradient id="Gradient3" gradientUnits="userSpaceOnUse" x1="949.476" y1="1595.91" x2="986.273" y2="1635.04">
		<stop class="stop0" offset="0" stop-opacity="1" stop-color="rgb(61,61,114)"/>
		<stop class="stop1" offset="1" stop-opacity="1" stop-color="rgb(86,78,179)"/>
	</linearGradient>
	<linearGradient id="Gradient4" gradientUnits="userSpaceOnUse" x1="793.879" y1="1422.97" x2="724.15" y2="1421">
		<stop class="stop0" offset="0" stop-opacity="1" stop-color="rgb(34,37,79)"/>
		<stop class="stop1" offset="1" stop-opacity="1" stop-color="rgb(39,78,150)"/>
	</linearGradient>
	<linearGradient id="Gradient5" gradientUnits="userSpaceOnUse" x1="889.844" y1="1464.3" x2="844.22" y2="1545.86">
		<stop class="stop0" offset="0" stop-opacity="1" stop-color="rgb(28,27,18)"/>
		<stop class="stop1" offset="1" stop-opacity="1" stop-color="rgb(51,57,109)"/>
	</linearGradient>
	<linearGradient id="Gradient6" gradientUnits="userSpaceOnUse" x1="960.09" y1="1500.69" x2="759.668" y2="1552.37">
		<stop class="stop0" offset="0" stop-opacity="1" stop-color="rgb(108,102,203)"/>
		<stop class="stop1" offset="1" stop-opacity="1" stop-color="rgb(73,144,233)"/>
	</linearGradient>
	<linearGradient id="Gradient7" gradientUnits="userSpaceOnUse" x1="1022.48" y1="1438.68" x2="1036.21" y2="1631.06">
		<stop class="stop0" offset="0" stop-opacity="1" stop-color="rgb(8,8,20)"/>
		<stop class="stop1" offset="1" stop-opacity="1" stop-color="rgb(33,33,28)"/>
	</linearGradient>
	<linearGradient id="Gradient8" gradientUnits="userSpaceOnUse" x1="764.187" y1="712.357" x2="907.619" y2="447.389">
		<stop class="stop0" offset="0" stop-opacity="1" stop-color="rgb(33,33,32)"/>
		<stop class="stop1" offset="1" stop-opacity="1" stop-color="rgb(41,46,64)"/>
	</linearGradient>
	<linearGradient id="Gradient9" gradientUnits="userSpaceOnUse" x1="1105.87" y1="468.605" x2="1070.34" y2="405.016">
		<stop class="stop0" offset="0" stop-opacity="1" stop-color="rgb(52,51,104)"/>
		<stop class="stop1" offset="1" stop-opacity="1" stop-color="rgb(71,78,180)"/>
	</linearGradient>
	<linearGradient id="Gradient10" gradientUnits="userSpaceOnUse" x1="1227.49" y1="567.78" x2="1082.61" y2="526.39">
		<stop class="stop0" offset="0" stop-opacity="1" stop-color="rgb(33,32,23)"/>
		<stop class="stop1" offset="1" stop-opacity="1" stop-color="rgb(45,45,85)"/>
	</linearGradient>
	<linearGradient id="Gradient11" gradientUnits="userSpaceOnUse" x1="1019.35" y1="417.942" x2="1024.25" y2="391.859">
		<stop class="stop0" offset="0" stop-opacity="1" stop-color="rgb(43,54,109)"/>
		<stop class="stop1" offset="1" stop-opacity="1" stop-color="rgb(60,77,151)"/>
	</linearGradient>
	<linearGradient id="Gradient12" gradientUnits="userSpaceOnUse" x1="1129.17" y1="746.884" x2="1135.19" y2="775.871">
		<stop class="stop0" offset="0" stop-opacity="1" stop-color="rgb(28,27,60)"/>
		<stop class="stop1" offset="1" stop-opacity="1" stop-color="rgb(40,39,104)"/>
	</linearGradient>
	<linearGradient id="Gradient13" gradientUnits="userSpaceOnUse" x1="1020.97" y1="755.234" x2="1047.44" y2="431.92">
		<stop class="stop0" offset="0" stop-opacity="1" stop-color="rgb(0,0,0)"/>
		<stop class="stop1" offset="1" stop-opacity="1" stop-color="rgb(36,36,37)"/>
	</linearGradient>
	<linearGradient id="Gradient14" gradientUnits="userSpaceOnUse" x1="1248.43" y1="652.153" x2="887.875" y2="554.344">
		<stop class="stop0" offset="0" stop-opacity="1" stop-color="rgb(116,87,208)"/>
		<stop class="stop1" offset="1" stop-opacity="1" stop-color="rgb(88,164,229)"/>
	</linearGradient>
	<linearGradient id="Gradient15" gradientUnits="userSpaceOnUse" x1="981.339" y1="1128.82" x2="586.039" y2="994.761">
		<stop class="stop0" offset="0" stop-opacity="1" stop-color="rgb(100,124,208)"/>
		<stop class="stop1" offset="1" stop-opacity="1" stop-color="rgb(67,184,234)"/>
	</linearGradient>
	<linearGradient id="Gradient16" gradientUnits="userSpaceOnUse" x1="921.139" y1="775.697" x2="914.773" y2="823.492">
		<stop class="stop0" offset="0" stop-opacity="1" stop-color="rgb(46,59,85)"/>
		<stop class="stop1" offset="1" stop-opacity="1" stop-color="rgb(60,78,150)"/>
	</linearGradient>
	<linearGradient id="Gradient17" gradientUnits="userSpaceOnUse" x1="1000.38" y1="1066.17" x2="958.462" y2="778.846">
		<stop class="stop0" offset="0" stop-opacity="1" stop-color="rgb(16,15,11)"/>
		<stop class="stop1" offset="1" stop-opacity="1" stop-color="rgb(39,40,45)"/>
	</linearGradient>
	<linearGradient id="Gradient18" gradientUnits="userSpaceOnUse" x1="1213.72" y1="1139.49" x2="777.603" y2="1034.94">
		<stop class="stop0" offset="0" stop-opacity="1" stop-color="rgb(114,79,204)"/>
		<stop class="stop1" offset="1" stop-opacity="1" stop-color="rgb(82,151,225)"/>
	</linearGradient>
	<linearGradient id="Gradient19" gradientUnits="userSpaceOnUse" x1="1143.15" y1="1036.88" x2="618.164" y2="917.645">
		<stop class="stop0" offset="0" stop-opacity="1" stop-color="rgb(112,101,214)"/>
		<stop class="stop1" offset="1" stop-opacity="1" stop-color="rgb(63,184,236)"/>
	</linearGradient>
	<linearGradient id="Gradient20" gradientUnits="userSpaceOnUse" x1="1422.48" y1="1105.42" x2="624.719" y2="941.618">
		<stop class="stop0" offset="0" stop-opacity="1" stop-color="rgb(214,230,255)"/>
		<stop class="stop1" offset="1" stop-opacity="1" stop-color="rgb(162,255,255)"/>
	</linearGradient>
	<linearGradient id="Gradient21" gradientUnits="userSpaceOnUse" x1="59.8569" y1="989.467" x2="899.672" y2="1024.13">
		<stop class="stop0" offset="0" stop-opacity="1" stop-color="rgb(199,156,82)"/>
		<stop class="stop1" offset="1" stop-opacity="1" stop-color="rgb(231,205,129)"/>
	</linearGradient>
	<linearGradient id="Gradient22" gradientUnits="userSpaceOnUse" x1="1987.73" y1="1053.23" x2="1151.25" y2="1028.81">
		<stop class="stop0" offset="0" stop-opacity="1" stop-color="rgb(199,157,82)"/>
		<stop class="stop1" offset="1" stop-opacity="1" stop-color="rgb(229,202,127)"/>
	</linearGradient>
</defs>
<path transform="translate(0,0)" fill="rgb(8,13,43)" d="M 0 0 L 984.31 0 L 1064.6 0 L 2048 0 L 2048 980.156 L 2048 1066.46 L 2048 2048 L 1057.56 2048 L 989.05 2048 L 0 2048 L 0 1061.49 L 0 989.154 L 0 0 z"/>
<path transform="translate(0,0)" fill="rgb(255,254,254)" d="M 0 0 L 984.31 0 L 983.228 0.154712 C 965.351 2.58714 941.491 3.15422 922.859 4.82557 C 889.021 8.11758 855.368 13.0947 822.025 19.7385 C 579.981 68.8385 363.69 203.406 212.691 398.842 C 109.82 532.006 41.5766 688.603 14.0707 854.61 C 9.54725 882.056 6.14693 909.675 3.87824 937.398 C 2.88264 950.31 2.06508 977.693 0 989.154 L 0 0 z"/>
<path transform="translate(0,0)" fill="rgb(255,254,254)" d="M 0 1061.49 L 0.158849 1062.53 C 2.71936 1080.15 3.18948 1105.27 4.83253 1123.82 C 8.02336 1158.62 13.1507 1193.22 20.1909 1227.45 C 69.4332 1471.25 205.921 1688.71 404.059 1839.05 C 535.905 1939.55 690.256 2006.4 853.753 2033.83 C 882.467 2038.53 911.359 2042.06 940.358 2044.43 C 949.987 2045.19 981.367 2046.51 989.05 2048 L 0 2048 L 0 1061.49 z"/>
<path transform="translate(0,0)" fill="rgb(255,254,254)" d="M 1064.6 0 L 2048 0 L 2048 980.156 C 2045.91 968.942 2045.03 942.7 2043.88 929.611 C 2041.43 902.379 2037.82 875.264 2033.06 848.34 C 2004.73 684.405 1936.7 529.896 1834.92 398.299 C 1690.03 210.619 1484.59 78.9446 1253.55 25.688 C 1212.91 16.46 1171.76 9.64875 1130.32 5.29011 C 1109.83 3.16759 1085.1 2.81835 1065.69 0.158021 L 1064.6 0 z"/>
<path transform="translate(0,0)" fill="rgb(255,254,254)" d="M 1057.56 2048 C 1066.86 2046.3 1099.5 2045.07 1110.68 2044.27 C 1136.57 2042.25 1162.37 2039.15 1188 2034.97 C 1356.86 2007.67 1516.16 1938.36 1651.24 1833.41 C 1842.69 1685.88 1975.38 1475.03 2025.56 1238.6 C 2033.29 1202.42 2039.03 1165.85 2042.76 1129.04 C 2044.71 1109.44 2045.36 1086.34 2047.85 1067.58 L 2048 1066.46 L 2048 2048 L 1057.56 2048 z"/>
<path transform="translate(0,0)" fill="rgb(12,24,57)" d="M 852.081 73.1863 C 976.521 50.664 1104.17 52.7979 1227.79 79.4671 C 1689.67 179.114 2011.66 598.298 1988.84 1070.26 C 1966.03 1542.22 1605.1 1928.39 1135.76 1983.01 C 1037.55 1994.44 938.167 1990.72 841.085 1971.99 C 384.533 1883.89 55.5522 1482.99 58.2449 1018.02 C 60.9376 553.055 394.539 155.997 852.081 73.1863 z"/>
<path transform="translate(0,0)" fill="url(#Gradient22)" d="M 1222.35 107.467 C 1216.77 103.129 1209.57 101.266 1204.77 96.45 C 1199.85 91.5126 1209.31 80.194 1213.37 78.2264 L 1216.83 80.5705 C 1220.46 79.9381 1222.65 80.1516 1226.07 79.7003 L 1227.79 79.4671 C 1689.67 179.114 2011.66 598.298 1988.84 1070.26 C 1966.03 1542.22 1605.1 1928.39 1135.76 1983.01 C 1135.49 1980.28 1135.61 1980.43 1133.96 1978.27 C 1116.32 1971.83 1126.81 1965.7 1127.14 1956.29 L 1123.22 1955.66 C 1210.27 1946.32 1295.56 1924.7 1376.54 1891.44 C 1610.35 1795.98 1796.01 1610.6 1891.82 1376.93 C 1960.75 1207.42 1978.58 1021.44 1943.11 841.917 C 1938.45 818.074 1923.22 753.933 1913.67 731.22 C 1912.57 726.783 1910.77 721.718 1909.27 717.332 C 1846.34 535.773 1729.11 377.951 1573.47 265.255 C 1551.22 249.156 1510.7 221.282 1486.08 209.183 C 1476.97 202.615 1445.78 186.984 1435.09 181.824 C 1385.07 157.603 1333.14 137.576 1279.81 121.947 C 1260.58 116.42 1241.53 112.542 1222.35 107.467 z"/>
<path transform="translate(0,0)" fill="url(#Gradient21)" d="M 841.085 1971.99 C 384.533 1883.89 55.5522 1482.99 58.2449 1018.02 C 60.9376 553.055 394.539 155.997 852.081 73.1863 C 857.572 74.9882 867.703 78.0893 870.838 82.7867 C 870.815 88.9737 861.807 96.411 857.248 101.596 C 697.703 130.629 548.435 200.606 424.067 304.674 C 401.298 323.451 357.68 363.066 338.11 386.603 C 312.183 412.664 282.52 450.88 261.314 480.546 C 147.028 640.669 86.0483 832.706 87.0218 1029.43 C 88.8457 1276.8 188.268 1513.45 363.664 1687.91 C 479.264 1802.27 622.348 1884.97 779.153 1928.04 C 803.531 1934.64 837.69 1942.98 862.661 1946.58 C 860.608 1950.86 862.092 1949.31 858.387 1951.71 C 860.914 1955.49 863.169 1957.59 862.558 1961.58 C 854.01 1972.18 844.89 1966.24 841.085 1971.99 z"/>
<path transform="translate(0,0)" fill="rgb(239,216,138)" d="M 852.081 73.1863 C 976.521 50.664 1104.17 52.7979 1227.79 79.4671 L 1226.07 79.7003 C 1222.65 80.1516 1220.46 79.9381 1216.83 80.5705 L 1213.37 78.2264 C 1209.31 80.194 1199.85 91.5126 1204.77 96.45 C 1209.57 101.266 1216.77 103.129 1222.35 107.467 C 1138.62 90.7807 1076.57 85.1106 991.154 87.2382 C 951.338 88.034 896.306 93.9852 857.248 101.596 C 861.807 96.411 870.815 88.9737 870.838 82.7867 C 867.703 78.0893 857.572 74.9882 852.081 73.1863 z"/>
<path transform="translate(0,0)" fill="rgb(239,216,138)" d="M 862.661 1946.58 C 948.663 1961.77 1036.37 1964.83 1123.22 1955.66 L 1127.14 1956.29 C 1126.81 1965.7 1116.32 1971.83 1133.96 1978.27 C 1135.61 1980.43 1135.49 1980.28 1135.76 1983.01 C 1037.55 1994.44 938.167 1990.72 841.085 1971.99 C 844.89 1966.24 854.01 1972.18 862.558 1961.58 C 863.169 1957.59 860.914 1955.49 858.387 1951.71 C 862.092 1949.31 860.608 1950.86 862.661 1946.58 z"/>
<path transform="translate(0,0)" fill="rgb(8,13,43)" d="M 857.248 101.596 C 896.306 93.9852 951.338 88.034 991.154 87.2382 C 994.997 89.4583 998.603 89.5801 1003.05 90.24 C 1002.55 90.4226 1002.05 90.6179 1001.54 90.788 C 994.662 93.1018 954.019 90.644 952.885 92.184 C 952.131 93.2077 951.334 94.1748 950.518 95.1483 C 926.942 96.6165 873.964 99.4286 854.611 107.92 C 847.588 111.001 837.663 110.54 829.931 112.172 C 811.889 115.979 794.741 122.575 776.839 126.614 C 767.31 128.764 757.099 127.859 747.761 130.233 C 737.711 132.789 729.973 139.657 720.465 143.212 C 704.245 149.276 687.299 154.679 670.865 160.205 C 664.209 162.443 656.368 164.06 650.066 167.03 C 639.61 171.96 631.109 180.924 620.973 185.916 C 614.222 189.241 605.722 188.951 598.566 191.322 C 595.684 192.277 569.419 206.003 566.629 208.053 C 564.761 209.424 563.697 212.145 562.636 214.136 C 561.716 215.862 562.212 215.187 560.908 216.477 C 558.628 215.952 559.336 216.261 557.434 214.585 C 557.786 216.633 557.486 215.633 558.352 217.581 C 555.092 220.556 553.125 220.077 549.318 218.889 C 538.807 223.426 520.496 236.918 509.762 243.247 C 502.405 247.585 498.8 253.373 489.226 255.972 C 484.179 260.567 481.6 272.925 473.917 272.462 C 473.359 272.428 472.811 272.301 472.255 272.25 C 462.208 271.341 423.161 311.354 411.152 318.163 C 394.826 327.421 348.485 384.033 338.11 386.603 C 357.68 363.066 401.298 323.451 424.067 304.674 C 548.435 200.606 697.703 130.629 857.248 101.596 z"/>
<path transform="translate(0,0)" fill="rgb(21,24,41)" d="M 991.154 87.2382 C 1076.57 85.1106 1138.62 90.7807 1222.35 107.467 C 1241.53 112.542 1260.58 116.42 1279.81 121.947 C 1333.14 137.576 1385.07 157.603 1435.09 181.824 C 1445.78 186.984 1476.97 202.615 1486.08 209.183 C 1483.11 208.737 1480.88 207.986 1478 207.167 C 1471.63 207.816 1451.05 192.018 1449.34 192.181 C 1429.94 194.03 1432 176.525 1412 178.159 C 1408.93 176.519 1408.64 175.982 1406.62 173.326 C 1403.16 172.728 1386.41 168.645 1384.72 167.123 C 1373.98 157.464 1371.84 160.233 1359.52 157.29 C 1353.95 155.961 1341.45 144.012 1334.06 143.396 C 1322.15 142.403 1311.13 135.626 1299.44 133.103 C 1288.12 130.714 1276.13 129.878 1264.84 126.199 C 1262.72 125.505 1254.72 121.645 1253.09 120.326 C 1247.14 115.499 1240.01 116.59 1235.46 114.27 C 1225.42 108.87 1209.52 113.904 1198.63 111.906 C 1174.88 107.548 1157 96.6482 1131.5 98.8145 C 1128.65 99.0563 1123.69 96.6431 1120.62 96.4424 C 1101.04 95.1661 1081.46 93.1303 1061.88 92.2573 C 1053.38 91.7981 1006.81 92.3461 1003.05 90.24 C 998.603 89.5801 994.997 89.4583 991.154 87.2382 z"/>
<path transform="translate(0,0)" fill="rgb(8,13,43)" d="M 1478 207.167 C 1480.88 207.986 1483.11 208.737 1486.08 209.183 C 1510.7 221.282 1551.22 249.156 1573.47 265.255 C 1729.11 377.951 1846.34 535.773 1909.27 717.332 C 1910.77 721.718 1912.57 726.783 1913.67 731.22 C 1910.13 728.8 1905.56 712.992 1903.62 707.563 C 1895.06 683.003 1885.37 658.853 1874.56 635.194 C 1869.82 624.788 1861.68 610.836 1857.89 600.827 C 1853.95 590.416 1852.3 591.692 1848.41 583.971 C 1841.32 569.921 1833.96 557.033 1825.83 543.539 C 1819.89 533.701 1813.29 523.951 1807.81 513.905 C 1807.48 512.063 1805.47 512.955 1804.39 512.058 C 1795.75 504.859 1793.21 491.129 1786.99 483.314 C 1759.79 449.152 1733.92 412.398 1701.91 382.701 C 1701 381.852 1699.16 382.763 1698.06 383.066 C 1692.76 375.617 1686.74 364.16 1679.75 358.5 C 1676.56 355.919 1667.59 353.269 1664.37 349.838 C 1663.44 346.562 1663.05 344.351 1660.43 342.097 C 1655.49 337.846 1649.76 331.045 1644.59 327.344 C 1643.39 327.291 1638.67 327.148 1637.95 326.39 C 1630.19 318.253 1624.49 308.63 1616.3 300.73 C 1614.4 298.895 1615.17 298.848 1612.62 297.627 C 1604.48 293.73 1598.26 286.817 1591 281.825 C 1587.85 279.466 1565.42 271.948 1564.37 270.209 C 1555.45 255.402 1541.12 248.607 1526.26 240.476 C 1522.02 238.158 1517.21 232.671 1512.7 229.544 C 1504.96 224.184 1480.16 216.514 1478 207.167 z"/>
<path transform="translate(0,0)" fill="url(#Gradient20)" d="M 928.911 424.684 C 925.521 406.042 953.902 388.647 965.878 378.722 C 971.183 374.326 989.552 354.529 991.155 348.684 C 987.978 350.047 986.347 350.554 983.009 351.513 L 982.249 350.63 C 986.667 343.867 998.221 344.486 1004.74 340.201 C 1007.31 338.515 1007.5 332.273 1011.48 329.914 C 1017.47 326.372 1034.76 328.32 1040.97 329.877 C 1039.36 330.762 1027.21 331.63 1024.84 331.798 L 1024.56 333.067 C 1030.29 338.731 1034.3 343.769 1040.29 349.446 C 1042.33 348.085 1041.76 348.713 1042.89 346.604 C 1041.51 341.575 1035.19 335.991 1029.98 335.563 L 1030.4 334.501 C 1044.24 328.907 1039.99 340.968 1052.85 343.081 L 1054.12 343.942 C 1061 348.569 1066.46 349.283 1069.55 354.844 L 1068.99 355.407 L 1063.32 350.971 L 1062.68 351.411 C 1067.05 360.558 1074.13 357.758 1073.63 367.987 L 1072.48 368.418 C 1069.4 366.782 1070.37 366.558 1067.75 366.812 C 1073.37 374.637 1097.25 376.564 1100.08 389.985 L 1099.26 390.658 L 1098.44 389.982 C 1094.02 386.398 1088.1 382.253 1082.81 380.057 C 1083.04 383.077 1089.35 387.094 1091.44 389.678 C 1107.05 405.265 1123.67 411.489 1133.4 431.511 C 1134.89 434.569 1142 438.287 1144.36 443.984 L 1137.67 442.084 C 1140.34 446.008 1160.35 460.579 1164.88 465.123 C 1171.47 471.736 1178.45 479.267 1184.98 485.937 L 1223.2 524.393 C 1239.8 541.254 1249.59 546.583 1264.93 567.23 C 1268.48 570.427 1274.83 576.908 1275.97 581.603 C 1301.15 607.553 1329.47 632.031 1354.26 658.583 C 1361.98 666.857 1371.36 675.269 1378.43 683.945 C 1378.86 700.09 1378.47 716.486 1379.1 732.49 C 1380.73 734.744 1380.3 734.331 1380.64 737.39 L 1380.73 738.291 L 1381.76 738.6 C 1383.12 729.026 1379.68 724.302 1382.62 713.053 C 1391.54 734.455 1389.59 772.06 1393.19 795.602 C 1393.79 799.514 1395.57 804.378 1395.67 808.078 C 1396.46 838.347 1402.77 868.973 1404.95 898.957 C 1407.62 935.814 1412.04 971.341 1412.54 1008.21 C 1413.84 1051.54 1410.23 1093.29 1406.07 1136.35 C 1405.01 1147.39 1406.55 1159.24 1403.26 1169.96 C 1401.41 1176.18 1402 1187.09 1401.23 1194.14 C 1398.92 1212.64 1397.89 1232.96 1393.75 1251.09 C 1391.27 1261.99 1392.53 1273.18 1390.54 1282.99 C 1385.88 1305.97 1386.48 1327.93 1386.16 1351.14 C 1386.13 1353.11 1385.23 1357.65 1384.94 1359.91 L 1384.24 1360.12 C 1383.97 1358.08 1383.95 1357 1383.93 1354.94 L 1382.33 1355.16 C 1382.21 1355.56 1382.09 1355.95 1381.98 1356.34 C 1381.4 1359.5 1382.72 1364.43 1380.17 1367.33 C 1370.58 1378.25 1361.41 1391.05 1351.51 1401.49 C 1344.23 1409.16 1336.8 1415.57 1328.73 1422.24 C 1325.72 1424.57 1329.42 1425.21 1325.96 1428.68 C 1315.3 1439.38 1303.96 1450.24 1292.91 1460.51 C 1289.73 1463.46 1281.42 1463.18 1277.55 1469.29 C 1277.14 1469.65 1276.73 1470.01 1276.32 1470.37 C 1273.31 1474.41 1273.21 1475.64 1273.14 1480.47 C 1269.38 1484.14 1265.28 1483.23 1263.16 1489.26 C 1260.5 1496.82 1234.28 1509.24 1231.57 1513.37 C 1221.48 1528.77 1218.59 1531.34 1204.45 1543.01 C 1202.17 1546.03 1197.22 1550.1 1194.07 1554 L 1201.68 1547.89 C 1199.97 1552.43 1191.8 1560.54 1188.16 1564.19 L 1187.38 1564.21 L 1186.7 1561.64 C 1182.54 1564.72 1169.04 1576.1 1166.9 1579.98 C 1161.41 1589.9 1161.17 1591.19 1152.28 1599.12 C 1152.68 1597.24 1153.14 1595.29 1153.47 1593.4 C 1150.07 1593.78 1144.94 1598.79 1142.6 1601.39 L 1141.78 1598.79 L 1090.76 1647.76 C 1088 1650.38 1070.06 1667.21 1068.87 1669.17 C 1055.31 1681.64 1042.13 1696.25 1028.73 1708.23 C 1025.48 1710.44 1027.17 1709.93 1023.63 1710.28 C 1014.76 1706.34 991.971 1681.39 982.373 1672.57 L 823.247 1516.79 L 822.233 1519.15 C 815.831 1512.03 807.472 1508.19 803.576 1501.52 C 787.579 1492.4 790.008 1488.87 778.265 1479.81 L 777.379 1481.22 C 777.632 1483.8 777.681 1483 777.251 1485.39 C 770.614 1480.12 769.278 1467.18 766.283 1465.08 C 750.192 1453.78 744.671 1456.85 735.703 1438.2 C 732.826 1432.22 707.343 1414.8 701.693 1408.66 C 699.81 1406.62 687.347 1407.32 684.929 1402.24 C 687.316 1402.11 686.717 1402.5 688.509 1401.42 L 686.832 1399.5 L 688.291 1398.94 C 683.366 1388.86 662.578 1390.8 660.55 1371.73 C 663.003 1372.85 674.519 1386.18 678.114 1388.53 C 680.391 1390.01 680.138 1389.35 684.008 1388.84 L 684.328 1387.58 C 680.939 1375.36 669.646 1373.88 666.601 1363.48 C 667.688 1361.24 667.465 1361.22 667.655 1358.7 L 665.003 1351.99 C 662.891 1352.48 663.924 1352.46 661.908 1352.14 C 661.247 1345.41 664.424 1339.74 663.146 1332.37 C 659.504 1311.39 658.401 1288.56 656.027 1267.33 C 655.062 1258.7 653.011 1252.71 651.866 1243.76 C 649.802 1227.62 647.853 1212.9 647.126 1196.6 C 647.027 1194.38 644.611 1186.54 644.086 1181.85 C 642.904 1171.28 642.419 1161.7 642.091 1151.08 C 641.976 1147.36 640.024 1142.91 639.651 1138.92 C 638.658 1128.3 638.734 1117.59 638.166 1106.94 C 637.925 1102.44 636.315 1098.01 636.156 1093.39 C 634.748 1052.58 633.638 1011.99 636.025 971.174 C 636.816 957.646 635.961 943.16 637.198 929.527 C 641.017 887.469 645.558 845.408 649.703 803.383 C 651.085 789.362 653.963 775.597 655.677 761.687 C 657.436 747.399 658.304 732.731 660.247 718.45 C 661.526 709.047 666.258 698.979 666.762 689.496 C 666.768 689.203 666.773 688.911 666.779 688.618 L 665.447 688.541 C 665.568 686.427 666.35 676.027 667.781 674.77 C 677.754 667.386 686.648 654.243 695.853 646.866 C 708.349 636.853 716.364 627.888 727.447 616.705 L 761.191 583.063 C 772.101 572.271 783.64 562.14 794.17 550.623 C 805.276 538.476 819.245 519.398 830.587 508.338 C 828.976 511.098 828.846 511.125 828.052 514.171 C 829.994 514.279 849.343 496.546 852.495 493.744 C 852.556 488.31 877.066 471.133 881.673 466.178 C 885.778 461.763 891.019 456.052 895.11 451.622 C 900.378 439.63 910.099 434.032 920.844 426.193 L 922.029 426.409 L 922.271 430.387 C 925.847 428.066 926.254 427.91 928.911 424.684 z"/>
<path transform="translate(0,0)" fill="url(#Gradient19)" d="M 928.911 424.684 C 925.521 406.042 953.902 388.647 965.878 378.722 C 971.183 374.326 989.552 354.529 991.155 348.684 C 987.978 350.047 986.347 350.554 983.009 351.513 L 982.249 350.63 C 986.667 343.867 998.221 344.486 1004.74 340.201 C 1007.31 338.515 1007.5 332.273 1011.48 329.914 C 1017.47 326.372 1034.76 328.32 1040.97 329.877 C 1039.36 330.762 1027.21 331.63 1024.84 331.798 L 1024.56 333.067 C 1030.29 338.731 1034.3 343.769 1040.29 349.446 C 1042.33 348.085 1041.76 348.713 1042.89 346.604 C 1041.51 341.575 1035.19 335.991 1029.98 335.563 L 1030.4 334.501 C 1044.24 328.907 1039.99 340.968 1052.85 343.081 L 1054.12 343.942 C 1061 348.569 1066.46 349.283 1069.55 354.844 L 1068.99 355.407 L 1063.32 350.971 L 1062.68 351.411 C 1067.05 360.558 1074.13 357.758 1073.63 367.987 L 1072.48 368.418 C 1069.4 366.782 1070.37 366.558 1067.75 366.812 C 1073.37 374.637 1097.25 376.564 1100.08 389.985 L 1099.26 390.658 L 1098.44 389.982 C 1094.02 386.398 1088.1 382.253 1082.81 380.057 C 1083.04 383.077 1089.35 387.094 1091.44 389.678 C 1107.05 405.265 1123.67 411.489 1133.4 431.511 C 1134.89 434.569 1142 438.287 1144.36 443.984 L 1137.67 442.084 C 1140.34 446.008 1160.35 460.579 1164.88 465.123 C 1171.47 471.736 1178.45 479.267 1184.98 485.937 L 1223.2 524.393 C 1239.8 541.254 1249.59 546.583 1264.93 567.23 C 1268.48 570.427 1274.83 576.908 1275.97 581.603 C 1269.78 576.787 1259.07 565.24 1253.27 559.282 C 1250.37 569.025 1254.53 563.937 1256.85 572.874 C 1190.32 509.397 1125.78 443.259 1059.36 379.614 C 1047.45 368.199 1035.06 355.656 1023.91 343.57 C 945.875 421.576 867.267 499.004 788.09 575.848 L 710.986 651.221 C 700.404 661.662 685.049 675.595 675.601 686.408 L 675.752 1061.48 C 675.768 1161.68 676.865 1263.9 675.571 1363.93 L 954.186 1636.68 C 963.851 1646.21 1010.52 1688.25 1015.11 1696.16 C 1007.6 1697.89 997.851 1673.06 982.373 1672.57 L 823.247 1516.79 L 822.233 1519.15 C 815.831 1512.03 807.472 1508.19 803.576 1501.52 C 787.579 1492.4 790.008 1488.87 778.265 1479.81 L 777.379 1481.22 C 777.632 1483.8 777.681 1483 777.251 1485.39 C 770.614 1480.12 769.278 1467.18 766.283 1465.08 C 750.192 1453.78 744.671 1456.85 735.703 1438.2 C 732.826 1432.22 707.343 1414.8 701.693 1408.66 C 699.81 1406.62 687.347 1407.32 684.929 1402.24 C 687.316 1402.11 686.717 1402.5 688.509 1401.42 L 686.832 1399.5 L 688.291 1398.94 C 683.366 1388.86 662.578 1390.8 660.55 1371.73 C 663.003 1372.85 674.519 1386.18 678.114 1388.53 C 680.391 1390.01 680.138 1389.35 684.008 1388.84 L 684.328 1387.58 C 680.939 1375.36 669.646 1373.88 666.601 1363.48 C 667.688 1361.24 667.465 1361.22 667.655 1358.7 L 665.003 1351.99 C 662.891 1352.48 663.924 1352.46 661.908 1352.14 C 661.247 1345.41 664.424 1339.74 663.146 1332.37 C 659.504 1311.39 658.401 1288.56 656.027 1267.33 C 655.062 1258.7 653.011 1252.71 651.866 1243.76 C 649.802 1227.62 647.853 1212.9 647.126 1196.6 C 647.027 1194.38 644.611 1186.54 644.086 1181.85 C 642.904 1171.28 642.419 1161.7 642.091 1151.08 C 641.976 1147.36 640.024 1142.91 639.651 1138.92 C 638.658 1128.3 638.734 1117.59 638.166 1106.94 C 637.925 1102.44 636.315 1098.01 636.156 1093.39 C 634.748 1052.58 633.638 1011.99 636.025 971.174 C 636.816 957.646 635.961 943.16 637.198 929.527 C 641.017 887.469 645.558 845.408 649.703 803.383 C 651.085 789.362 653.963 775.597 655.677 761.687 C 657.436 747.399 658.304 732.731 660.247 718.45 C 661.526 709.047 666.258 698.979 666.762 689.496 C 666.768 689.203 666.773 688.911 666.779 688.618 L 665.447 688.541 C 665.568 686.427 666.35 676.027 667.781 674.77 C 677.754 667.386 686.648 654.243 695.853 646.866 C 708.349 636.853 716.364 627.888 727.447 616.705 L 761.191 583.063 C 772.101 572.271 783.64 562.14 794.17 550.623 C 805.276 538.476 819.245 519.398 830.587 508.338 C 828.976 511.098 828.846 511.125 828.052 514.171 C 829.994 514.279 849.343 496.546 852.495 493.744 C 852.556 488.31 877.066 471.133 881.673 466.178 C 885.778 461.763 891.019 456.052 895.11 451.622 C 900.378 439.63 910.099 434.032 920.844 426.193 L 922.029 426.409 L 922.271 430.387 C 925.847 428.066 926.254 427.91 928.911 424.684 z"/>
<path transform="translate(0,0)" fill="rgb(55,114,172)" d="M 669.79 684.983 C 671.517 758.316 669.478 837.885 669.566 911.864 L 669.893 1358.53 L 668.717 1352.8 C 667.53 1355.34 667.825 1355.79 667.655 1358.7 L 665.003 1351.99 C 662.891 1352.48 663.924 1352.46 661.908 1352.14 C 661.247 1345.41 664.424 1339.74 663.146 1332.37 C 659.504 1311.39 658.401 1288.56 656.027 1267.33 C 655.062 1258.7 653.011 1252.71 651.866 1243.76 C 649.802 1227.62 647.853 1212.9 647.126 1196.6 C 647.027 1194.38 644.611 1186.54 644.086 1181.85 C 642.904 1171.28 642.419 1161.7 642.091 1151.08 C 641.976 1147.36 640.024 1142.91 639.651 1138.92 C 638.658 1128.3 638.734 1117.59 638.166 1106.94 C 637.925 1102.44 636.315 1098.01 636.156 1093.39 C 634.748 1052.58 633.638 1011.99 636.025 971.174 C 636.816 957.646 635.961 943.16 637.198 929.527 C 641.017 887.469 645.558 845.408 649.703 803.383 C 651.085 789.362 653.963 775.597 655.677 761.687 C 657.436 747.399 658.304 732.731 660.247 718.45 C 661.526 709.047 666.258 698.979 666.762 689.496 C 666.768 689.203 666.773 688.911 666.779 688.618 L 667.573 687.198 C 668.512 691.151 667.364 701.801 668.117 708.294 L 668.857 708.783 C 669.545 706.576 669.587 689.126 669.79 684.983 z"/>
<path transform="translate(0,0)" fill="rgb(50,102,163)" d="M 895.11 451.622 C 904.847 447.516 907.427 439.583 921.913 436.216 C 900.686 456.557 878.445 480.513 857.194 499.891 C 805.701 549.489 754.866 601.404 703.439 651.218 C 697.027 657.429 673.027 678.707 669.79 684.983 C 669.587 689.126 669.545 706.576 668.857 708.783 L 668.117 708.294 C 667.364 701.801 668.512 691.151 667.573 687.198 L 666.779 688.618 L 665.447 688.541 C 665.568 686.427 666.35 676.027 667.781 674.77 C 677.754 667.386 686.648 654.243 695.853 646.866 C 708.349 636.853 716.364 627.888 727.447 616.705 L 761.191 583.063 C 772.101 572.271 783.64 562.14 794.17 550.623 C 805.276 538.476 819.245 519.398 830.587 508.338 C 828.976 511.098 828.846 511.125 828.052 514.171 C 829.994 514.279 849.343 496.546 852.495 493.744 C 852.556 488.31 877.066 471.133 881.673 466.178 C 885.778 461.763 891.019 456.052 895.11 451.622 z"/>
<path transform="translate(0,0)" fill="rgb(50,77,144)" d="M 928.911 424.684 C 925.521 406.042 953.902 388.647 965.878 378.722 C 971.183 374.326 989.552 354.529 991.155 348.684 C 987.978 350.047 986.347 350.554 983.009 351.513 L 982.249 350.63 C 986.667 343.867 998.221 344.486 1004.74 340.201 C 1007.31 338.515 1007.5 332.273 1011.48 329.914 C 1017.47 326.372 1034.76 328.32 1040.97 329.877 C 1039.36 330.762 1027.21 331.63 1024.84 331.798 L 1024.56 333.067 C 1030.29 338.731 1034.3 343.769 1040.29 349.446 C 1042.33 348.085 1041.76 348.713 1042.89 346.604 C 1041.51 341.575 1035.19 335.991 1029.98 335.563 L 1030.4 334.501 C 1044.24 328.907 1039.99 340.968 1052.85 343.081 L 1054.12 343.942 C 1061 348.569 1066.46 349.283 1069.55 354.844 L 1068.99 355.407 L 1063.32 350.971 L 1062.68 351.411 C 1067.05 360.558 1074.13 357.758 1073.63 367.987 L 1072.48 368.418 C 1069.4 366.782 1070.37 366.558 1067.75 366.812 C 1073.37 374.637 1097.25 376.564 1100.08 389.985 L 1099.26 390.658 L 1098.44 389.982 C 1094.02 386.398 1088.1 382.253 1082.81 380.057 C 1083.04 383.077 1089.35 387.094 1091.44 389.678 C 1088.3 395.689 1090.16 395.366 1093.67 401.144 C 1091.22 398.959 1089.84 399.77 1087.39 396.745 C 1084.93 393.702 1082.84 391.118 1078.96 390.595 C 1075.44 387.981 1059.4 371.057 1055.7 367.033 C 1045.53 359.011 1033.19 345.385 1024.11 335.696 C 1010.75 348.983 983.626 378.159 970.134 388.837 C 964.3 388.681 952.147 400.898 946.226 405.107 C 941.71 406.375 933.447 419.668 928.911 424.684 z"/>
<path transform="translate(0,0)" fill="rgb(57,91,163)" d="M 1078.96 390.595 C 1082.84 391.118 1084.93 393.702 1087.39 396.745 C 1089.84 399.77 1091.22 398.959 1093.67 401.144 C 1090.16 395.366 1088.3 395.689 1091.44 389.678 C 1107.05 405.265 1123.67 411.489 1133.4 431.511 C 1134.89 434.569 1142 438.287 1144.36 443.984 L 1137.67 442.084 C 1140.34 446.008 1160.35 460.579 1164.88 465.123 C 1171.47 471.736 1178.45 479.267 1184.98 485.937 L 1223.2 524.393 C 1239.8 541.254 1249.59 546.583 1264.93 567.23 C 1268.48 570.427 1274.83 576.908 1275.97 581.603 C 1269.78 576.787 1259.07 565.24 1253.27 559.282 C 1244.29 550.126 1233.97 541.258 1224.63 532.152 L 1118.69 429.398 C 1109.88 420.716 1085.71 398.476 1078.96 390.595 z"/>
<path transform="translate(0,0)" fill="rgb(50,102,163)" d="M 667.655 1358.7 C 667.825 1355.79 667.53 1355.34 668.717 1352.8 L 669.893 1358.53 C 669.932 1364.44 670.771 1365.7 674.594 1370.01 C 714.71 1415.2 765.31 1455.43 805.574 1499.99 L 803.576 1501.52 C 787.579 1492.4 790.008 1488.87 778.265 1479.81 L 777.379 1481.22 C 777.632 1483.8 777.681 1483 777.251 1485.39 C 770.614 1480.12 769.278 1467.18 766.283 1465.08 C 750.192 1453.78 744.671 1456.85 735.703 1438.2 C 732.826 1432.22 707.343 1414.8 701.693 1408.66 C 699.81 1406.62 687.347 1407.32 684.929 1402.24 C 687.316 1402.11 686.717 1402.5 688.509 1401.42 L 686.832 1399.5 L 688.291 1398.94 C 683.366 1388.86 662.578 1390.8 660.55 1371.73 C 663.003 1372.85 674.519 1386.18 678.114 1388.53 C 680.391 1390.01 680.138 1389.35 684.008 1388.84 L 684.328 1387.58 C 680.939 1375.36 669.646 1373.88 666.601 1363.48 C 667.688 1361.24 667.465 1361.22 667.655 1358.7 z"/>
<path transform="translate(0,0)" fill="rgb(50,102,163)" d="M 928.911 424.684 C 933.447 419.668 941.71 406.375 946.226 405.107 L 946.455 407.232 C 947.386 406.845 948.319 406.464 949.255 406.088 C 947.716 410.433 945.263 409.404 943.145 415.009 C 940.898 418.073 924.861 434.262 921.913 436.216 C 907.427 439.583 904.847 447.516 895.11 451.622 C 900.378 439.63 910.099 434.032 920.844 426.193 L 922.029 426.409 L 922.271 430.387 C 925.847 428.066 926.254 427.91 928.911 424.684 z"/>
<path transform="translate(0,0)" fill="rgb(57,91,163)" d="M 946.226 405.107 C 952.147 400.898 964.3 388.681 970.134 388.837 C 966.163 393.904 948.4 410.749 943.145 415.009 C 945.263 409.404 947.716 410.433 949.255 406.088 C 948.319 406.464 947.386 406.845 946.455 407.232 L 946.226 405.107 z"/>
<path transform="translate(0,0)" fill="rgb(57,91,163)" d="M 803.576 1501.52 L 805.574 1499.99 L 823.247 1516.79 L 822.233 1519.15 C 815.831 1512.03 807.472 1508.19 803.576 1501.52 z"/>
<path transform="translate(0,0)" fill="rgb(55,114,172)" d="M 1382.62 713.053 C 1391.54 734.455 1389.59 772.06 1393.19 795.602 C 1393.79 799.514 1395.57 804.378 1395.67 808.078 C 1396.46 838.347 1402.77 868.973 1404.95 898.957 C 1407.62 935.814 1412.04 971.341 1412.54 1008.21 C 1413.84 1051.54 1410.23 1093.29 1406.07 1136.35 C 1405.01 1147.39 1406.55 1159.24 1403.26 1169.96 C 1401.41 1176.18 1402 1187.09 1401.23 1194.14 C 1398.92 1212.64 1397.89 1232.96 1393.75 1251.09 C 1391.27 1261.99 1392.53 1273.18 1390.54 1282.99 C 1385.88 1305.97 1386.48 1327.93 1386.16 1351.14 C 1386.13 1353.11 1385.23 1357.65 1384.94 1359.91 L 1384.24 1360.12 C 1383.97 1358.08 1383.95 1357 1383.93 1354.94 L 1382.33 1355.16 C 1382.54 1328.66 1383.28 1314.11 1379.8 1287.58 C 1379.47 1267.66 1380.58 1245.49 1380.5 1224.97 C 1380.12 1134.88 1380.25 1044.79 1380.87 954.707 C 1381.1 880.53 1378.92 806.476 1379.1 732.49 C 1380.73 734.744 1380.3 734.331 1380.64 737.39 L 1380.73 738.291 L 1381.76 738.6 C 1383.12 729.026 1379.68 724.302 1382.62 713.053 z"/>
<path transform="translate(0,0)" fill="rgb(110,88,210)" d="M 1253.27 559.282 C 1259.07 565.24 1269.78 576.787 1275.97 581.603 C 1301.15 607.553 1329.47 632.031 1354.26 658.583 C 1361.98 666.857 1371.36 675.269 1378.43 683.945 C 1378.86 700.09 1378.47 716.486 1379.1 732.49 C 1378.92 806.476 1381.1 880.53 1380.87 954.707 C 1380.25 1044.79 1380.12 1134.88 1380.5 1224.97 C 1380.58 1245.49 1379.47 1267.66 1379.8 1287.58 C 1383.28 1314.11 1382.54 1328.66 1382.33 1355.16 C 1382.21 1355.56 1382.09 1355.95 1381.98 1356.34 C 1381.4 1359.5 1382.72 1364.43 1380.17 1367.33 C 1370.58 1378.25 1361.41 1391.05 1351.51 1401.49 C 1344.23 1409.16 1336.8 1415.57 1328.73 1422.24 C 1325.72 1424.57 1329.42 1425.21 1325.96 1428.68 C 1315.3 1439.38 1303.96 1450.24 1292.91 1460.51 C 1289.73 1463.46 1281.42 1463.18 1277.55 1469.29 C 1277.14 1469.65 1276.73 1470.01 1276.32 1470.37 C 1273.31 1474.41 1273.21 1475.64 1273.14 1480.47 C 1269.38 1484.14 1265.28 1483.23 1263.16 1489.26 C 1260.5 1496.82 1234.28 1509.24 1231.57 1513.37 C 1221.48 1528.77 1218.59 1531.34 1204.45 1543.01 C 1202.17 1546.03 1197.22 1550.1 1194.07 1554 L 1201.68 1547.89 C 1199.97 1552.43 1191.8 1560.54 1188.16 1564.19 L 1187.38 1564.21 L 1186.7 1561.64 C 1182.54 1564.72 1169.04 1576.1 1166.9 1579.98 C 1161.41 1589.9 1161.17 1591.19 1152.28 1599.12 C 1152.68 1597.24 1153.14 1595.29 1153.47 1593.4 C 1150.07 1593.78 1144.94 1598.79 1142.6 1601.39 L 1141.78 1598.79 L 1090.76 1647.76 C 1088 1650.38 1070.06 1667.21 1068.87 1669.17 C 1055.31 1681.64 1042.13 1696.25 1028.73 1708.23 C 1025.48 1710.44 1027.17 1709.93 1023.63 1710.28 C 1014.76 1706.34 991.971 1681.39 982.373 1672.57 C 997.851 1673.06 1007.6 1697.89 1015.11 1696.16 C 1017.73 1698.32 1021.17 1701.69 1023.74 1704.07 C 1032.11 1697.21 1042.4 1686.1 1050.61 1678.19 L 1112.6 1618.12 L 1268.62 1465.78 C 1301.69 1433.09 1338.32 1395.67 1372.09 1364.1 C 1373.22 1309.5 1372.2 1251.09 1372.2 1196.28 L 1372.15 870.924 C 1372.13 812.341 1370.57 744.71 1372.86 686.573 L 1295.86 611.134 C 1285.92 601.418 1265.3 582.673 1256.85 572.874 C 1254.53 563.937 1250.37 569.025 1253.27 559.282 z"/>
<path transform="translate(0,0)" fill="rgb(57,91,163)" d="M 1378.41 1365.44 C 1380.85 1343.54 1378.15 1311.7 1379.8 1287.58 C 1383.28 1314.11 1382.54 1328.66 1382.33 1355.16 C 1382.21 1355.56 1382.09 1355.95 1381.98 1356.34 C 1381.4 1359.5 1382.72 1364.43 1380.17 1367.33 C 1370.58 1378.25 1361.41 1391.05 1351.51 1401.49 C 1344.23 1409.16 1336.8 1415.57 1328.73 1422.24 C 1325.72 1424.57 1329.42 1425.21 1325.96 1428.68 C 1315.3 1439.38 1303.96 1450.24 1292.91 1460.51 C 1289.73 1463.46 1281.42 1463.18 1277.55 1469.29 C 1277.14 1469.65 1276.73 1470.01 1276.32 1470.37 L 1273.64 1469.37 C 1279.65 1462.68 1289.84 1453.4 1296.47 1446.91 L 1350.64 1394.32 C 1358.32 1386.77 1372.01 1373.67 1378.41 1365.44 z"/>
<path transform="translate(0,0)" fill="rgb(57,91,163)" d="M 1204.48 1537.54 C 1210.24 1532.91 1222.57 1520.05 1228.36 1514.32 L 1273.64 1469.37 L 1276.32 1470.37 C 1273.31 1474.41 1273.21 1475.64 1273.14 1480.47 C 1269.38 1484.14 1265.28 1483.23 1263.16 1489.26 C 1260.5 1496.82 1234.28 1509.24 1231.57 1513.37 C 1221.48 1528.77 1218.59 1531.34 1204.45 1543.01 L 1204.48 1537.54 z"/>
<path transform="translate(0,0)" fill="rgb(57,91,163)" d="M 1204.48 1537.54 L 1204.45 1543.01 C 1202.17 1546.03 1197.22 1550.1 1194.07 1554 L 1201.68 1547.89 C 1199.97 1552.43 1191.8 1560.54 1188.16 1564.19 L 1187.38 1564.21 L 1186.7 1561.64 C 1182.54 1564.72 1169.04 1576.1 1166.9 1579.98 C 1161.41 1589.9 1161.17 1591.19 1152.28 1599.12 C 1152.68 1597.24 1153.14 1595.29 1153.47 1593.4 C 1150.07 1593.78 1144.94 1598.79 1142.6 1601.39 L 1141.78 1598.79 C 1162.67 1578.7 1183.45 1557.09 1204.48 1537.54 z"/>
<path transform="translate(0,0)" fill="url(#Gradient18)" d="M 1119.5 779.292 L 1223.23 779.076 C 1221.94 807.382 1216.26 845.856 1212.79 874.592 L 1194.89 1026.81 L 1162.56 1301.64 C 1157.58 1343.3 1153.45 1385.37 1147.6 1426.94 L 900.298 1427.08 C 893.913 1379.67 888.644 1330.07 883.056 1282.5 L 853.526 1031.24 L 838.671 902.817 C 837.078 889.105 831.907 855.291 831.953 843.285 C 829.769 834.16 825.207 789.638 824.449 779.071 L 1119.5 779.292 z"/>
<path transform="translate(0,0)" fill="rgb(10,10,11)" d="M 1081.61 803.523 C 1097.04 803.145 1184.19 802.39 1192.86 805.187 C 1199.36 818.537 1193.94 831.033 1192.04 844.874 L 1183.1 914.192 C 1180.11 936.162 1179.57 958.059 1174.82 979.998 C 1173.17 987.621 1173.07 995.846 1171.26 1003.91 L 1172.29 1005.48 C 1175.61 1010.64 1172.97 1035.67 1173.59 1043.35 C 1173.72 1044.99 1166.38 1058.22 1165.55 1060.85 C 1163.32 1071.97 1162.98 1084.24 1161.82 1095.56 C 1161.69 1096.78 1163.7 1100.68 1164.29 1102.16 L 1165.03 1103.95 C 1163.88 1110.78 1157.26 1153.21 1158.03 1157.56 C 1156.38 1159.63 1157.39 1159.21 1155.23 1159.5 C 1152.78 1157.51 1152.54 1154.09 1152.22 1150.99 C 1152.05 1149.26 1151.91 1147.53 1151.79 1145.79 C 1150.73 1156.19 1149.35 1170.19 1155.17 1179.02 C 1153.51 1187.25 1152.53 1193.36 1149.32 1201.23 C 1147.85 1204.82 1148.64 1220.31 1148.11 1226.02 C 1147.56 1231.94 1145.05 1236.11 1144.75 1240.5 C 1144.3 1246.94 1145.24 1259.81 1145.22 1266.88 C 1144.35 1267.62 1143.48 1268.36 1142.6 1269.11 C 1141.44 1276.28 1140.64 1288.4 1139.8 1295.04 C 1138.72 1303.63 1139.62 1316.05 1137.38 1322.95 C 1135.1 1329.96 1139.95 1341.52 1136.73 1347.9 C 1134.4 1346.37 1134.54 1345.97 1133.31 1342.82 C 1131.73 1349.66 1132.73 1360.12 1131.97 1364.08 C 1130.55 1371.39 1125.03 1401.5 1117.32 1403.45 C 1096.23 1408.78 1069.87 1406.2 1048.37 1406.32 C 1041.29 1406.36 1033.05 1401.96 1028.37 1402.21 C 1011.96 1402.95 995.708 1403.04 979.319 1404.38 C 972.155 1404.96 962.41 1404.27 955.006 1404.16 C 945.246 1404.03 932.034 1408.74 925.047 1401.14 C 920.963 1396.7 918.648 1395 917.312 1389.09 L 917.676 1387.57 L 920.409 1392.47 L 921.31 1392.5 C 916.695 1384.4 920.306 1377.23 918.114 1368.19 L 916.43 1371.41 C 913.758 1368.11 906.347 1313.88 907.124 1306.8 C 909.737 1283.02 906.637 1269.53 903.44 1246.22 L 902.222 1249.63 L 900.935 1249.33 L 900.427 1244.16 C 897.801 1243.89 898.925 1244.43 896.843 1242.98 C 895.506 1226.43 893.62 1206.61 890.474 1190.17 C 890.25 1189 891.498 1178.38 891.68 1176.47 L 889.886 1177.66 C 889.335 1164.93 892.031 1117.47 886.777 1107.68 C 886.035 1110.57 886.236 1110.78 886.469 1113.83 L 884.494 1115.49 C 882.678 1112.95 884.888 1092.9 884.944 1088.08 L 886.507 1085.4 C 887.891 1084.09 896.421 1069.21 898.544 1066.1 C 905.833 1055.41 913.309 1044.82 920.728 1034.21 L 1024.61 884.739 C 1042.03 859.52 1062.75 826.706 1081.61 803.523 z"/>
<path transform="translate(0,0)" fill="url(#Gradient17)" d="M 830.767 785.383 C 863.036 786.294 896.408 784.878 928.743 785.434 C 939.046 785.611 954.848 785.046 964.713 785.849 C 1007.31 784.983 1050.31 786.325 1092.84 785.764 C 1090.01 791.914 1084.73 794.755 1083.5 799.515 C 1082.59 801.123 1081.92 801.848 1081.61 803.523 C 1062.75 826.706 1042.03 859.52 1024.61 884.739 L 920.728 1034.21 C 913.309 1044.82 905.833 1055.41 898.544 1066.1 C 896.421 1069.21 887.891 1084.09 886.507 1085.4 L 884.222 1083.66 C 883.407 1076.8 884.054 1064.66 883.02 1059.46 C 881.68 1052.72 873.843 1053.49 879.36 1039.99 C 879.813 1038.88 878.897 1026.33 878.715 1023.8 L 877.405 1025.55 L 876.384 1025.38 C 874.457 1019.57 879.888 1018.16 878.342 1010.42 L 877.155 1009.45 L 877.427 1008.57 L 876.463 1014.03 L 876.573 1013.75 L 874.666 1016.89 L 875.097 1016.98 C 866.931 1009.78 872.396 996.004 873 987.465 C 873.592 979.091 871.384 963.276 870.532 954.31 L 869.536 955.013 L 867.821 966.186 C 867.831 963.288 868.263 963.963 867.099 961.718 C 865.443 963.36 866.215 963.074 864.213 963.611 C 862.292 952.52 863.239 929.689 861.978 916.275 C 859.697 892.01 843.918 830.823 854.549 811.292 C 856.598 807.528 858.2 805.955 862.382 804.745 C 870.589 802.372 873.3 801.165 882.016 801.398 C 892.258 801.672 923.827 803.625 930.456 797.405 C 925.494 796.61 923.853 797.548 919.097 797.514 L 917.88 796.725 L 917.112 797.31 L 917.951 797.405 L 917.322 796.873 C 920.626 796.166 922.441 795.996 925.407 794.293 C 921.593 791.171 888.404 791.047 880.975 790.902 C 872.166 792.846 850.146 786.873 843.513 796.409 C 840.055 801.381 838.197 811.841 834.641 818.241 C 833.02 810.402 831.534 793.464 830.767 785.383 z"/>
<path transform="translate(0,0)" fill="url(#Gradient16)" d="M 830.767 785.383 C 863.036 786.294 896.408 784.878 928.743 785.434 C 939.046 785.611 954.848 785.046 964.713 785.849 C 980.104 788.956 998.878 785.887 1009.32 788.398 C 999.529 794.944 954.271 787.262 941.421 788.666 C 923.082 790.671 898.677 788.63 880.975 790.902 C 872.166 792.846 850.146 786.873 843.513 796.409 C 840.055 801.381 838.197 811.841 834.641 818.241 C 833.02 810.402 831.534 793.464 830.767 785.383 z"/>
<path transform="translate(0,0)" fill="rgb(50,51,96)" d="M 964.713 785.849 C 1007.31 784.983 1050.31 786.325 1092.84 785.764 C 1090.01 791.914 1084.73 794.755 1083.5 799.515 C 1081.58 799.895 1081.33 799.743 1079.33 799.684 L 1083.49 796.991 L 1083.55 795.619 C 1069.56 795.34 1047.87 802.465 1029.04 798.562 L 1028.37 797.48 L 1032.41 793.137 L 1033.54 794.231 L 1031.18 794.255 L 1032.26 793.036 L 1031.95 794.273 C 1033.17 794.084 1033.72 794.137 1034.63 793.559 C 1039.11 790.731 1042.37 792.632 1046.43 791.35 C 1033.68 791.456 1022.88 788.21 1009.32 788.398 C 998.878 785.887 980.104 788.956 964.713 785.849 z"/>
<path transform="translate(0,0)" fill="rgb(33,36,76)" d="M 1092.84 785.764 C 1134.14 785.632 1175.44 785.805 1216.73 786.284 C 1214.66 799.158 1213.41 815.909 1211.96 829.156 L 1203.95 897.931 C 1198.71 943.177 1144.52 1417.14 1140.34 1420.31 C 1114.99 1421.76 1079.22 1420.63 1053.26 1420.61 L 905.659 1420.74 C 904.052 1404.58 900.684 1385.31 899.867 1369.77 C 898.317 1366.15 895.464 1336.14 894.905 1330.72 C 892.726 1320.91 890.723 1298.52 889.522 1287.89 L 880.532 1209.24 C 878.1 1190.29 875.577 1169.57 873.906 1150.62 C 872.542 1144.36 871.357 1130.65 870.553 1123.76 L 864.569 1072.08 C 859.001 1028.71 851.062 971.499 847.95 928.349 C 846.385 921.388 845.052 906.73 844.191 899.323 C 842.251 883.238 840.442 867.137 838.765 851.022 C 838.132 844.944 837.512 839.213 836.628 833.158 C 836.244 828.185 835.387 823.182 834.641 818.241 C 838.197 811.841 840.055 801.381 843.513 796.409 C 850.146 786.873 872.166 792.846 880.975 790.902 C 888.404 791.047 921.593 791.171 925.407 794.293 C 922.441 795.996 920.626 796.166 917.322 796.873 L 917.951 797.405 L 917.112 797.31 L 917.88 796.725 L 919.097 797.514 C 923.853 797.548 925.494 796.61 930.456 797.405 C 923.827 803.625 892.258 801.672 882.016 801.398 C 873.3 801.165 870.589 802.372 862.382 804.745 C 858.2 805.955 856.598 807.528 854.549 811.292 C 843.918 830.823 859.697 892.01 861.978 916.275 C 863.239 929.689 862.292 952.52 864.213 963.611 C 866.215 963.074 865.443 963.36 867.099 961.718 C 868.263 963.963 867.831 963.288 867.821 966.186 L 869.536 955.013 L 870.532 954.31 C 871.384 963.276 873.592 979.091 873 987.465 C 872.396 996.004 866.931 1009.78 875.097 1016.98 L 874.666 1016.89 L 876.573 1013.75 L 876.463 1014.03 L 877.427 1008.57 L 877.155 1009.45 L 878.342 1010.42 C 879.888 1018.16 874.457 1019.57 876.384 1025.38 L 877.405 1025.55 L 878.715 1023.8 C 878.897 1026.33 879.813 1038.88 879.36 1039.99 C 873.843 1053.49 881.68 1052.72 883.02 1059.46 C 884.054 1064.66 883.407 1076.8 884.222 1083.66 L 886.507 1085.4 L 884.944 1088.08 C 884.888 1092.9 882.678 1112.95 884.494 1115.49 L 886.469 1113.83 C 886.236 1110.78 886.035 1110.57 886.777 1107.68 C 892.031 1117.47 889.335 1164.93 889.886 1177.66 L 891.68 1176.47 C 891.498 1178.38 890.25 1189 890.474 1190.17 C 893.62 1206.61 895.506 1226.43 896.843 1242.98 C 898.925 1244.43 897.801 1243.89 900.427 1244.16 L 900.935 1249.33 L 902.222 1249.63 L 903.44 1246.22 C 906.637 1269.53 909.737 1283.02 907.124 1306.8 C 906.347 1313.88 913.758 1368.11 916.43 1371.41 L 918.114 1368.19 C 920.306 1377.23 916.695 1384.4 921.31 1392.5 L 920.409 1392.47 L 917.676 1387.57 L 917.312 1389.09 C 918.648 1395 920.963 1396.7 925.047 1401.14 C 932.034 1408.74 945.246 1404.03 955.006 1404.16 C 962.41 1404.27 972.155 1404.96 979.319 1404.38 C 995.708 1403.04 1011.96 1402.95 1028.37 1402.21 C 1033.05 1401.96 1041.29 1406.36 1048.37 1406.32 C 1069.87 1406.2 1096.23 1408.78 1117.32 1403.45 C 1125.03 1401.5 1130.55 1371.39 1131.97 1364.08 C 1132.73 1360.12 1131.73 1349.66 1133.31 1342.82 C 1134.54 1345.97 1134.4 1346.37 1136.73 1347.9 C 1139.95 1341.52 1135.1 1329.96 1137.38 1322.95 C 1139.62 1316.05 1138.72 1303.63 1139.8 1295.04 C 1140.64 1288.4 1141.44 1276.28 1142.6 1269.11 C 1143.48 1268.36 1144.35 1267.62 1145.22 1266.88 C 1145.24 1259.81 1144.3 1246.94 1144.75 1240.5 C 1145.05 1236.11 1147.56 1231.94 1148.11 1226.02 C 1148.64 1220.31 1147.85 1204.82 1149.32 1201.23 C 1152.53 1193.36 1153.51 1187.25 1155.17 1179.02 C 1149.35 1170.19 1150.73 1156.19 1151.79 1145.79 C 1151.91 1147.53 1152.05 1149.26 1152.22 1150.99 C 1152.54 1154.09 1152.78 1157.51 1155.23 1159.5 C 1157.39 1159.21 1156.38 1159.63 1158.03 1157.56 C 1157.26 1153.21 1163.88 1110.78 1165.03 1103.95 L 1164.29 1102.16 C 1163.7 1100.68 1161.69 1096.78 1161.82 1095.56 C 1162.98 1084.24 1163.32 1071.97 1165.55 1060.85 C 1166.38 1058.22 1173.72 1044.99 1173.59 1043.35 C 1172.97 1035.67 1175.61 1010.64 1172.29 1005.48 L 1171.26 1003.91 C 1173.07 995.846 1173.17 987.621 1174.82 979.998 C 1179.57 958.059 1180.11 936.162 1183.1 914.192 L 1192.04 844.874 C 1193.94 831.033 1199.36 818.537 1192.86 805.187 C 1184.19 802.39 1097.04 803.145 1081.61 803.523 C 1081.92 801.848 1082.59 801.123 1083.5 799.515 C 1084.73 794.755 1090.01 791.914 1092.84 785.764 z"/>
<path transform="translate(0,0)" fill="rgb(50,51,96)" d="M 850.7 900.226 C 850.787 900.427 861.816 989.094 861.98 993.708 C 859.185 1018.34 869.926 1050.81 864.569 1072.08 C 859.001 1028.71 851.062 971.499 847.95 928.349 C 848.943 924.169 848.899 922.372 849.066 918.013 L 849.269 918.362 C 849.625 913.299 849.386 904.447 850.7 900.226 z"/>
<path transform="translate(0,0)" fill="rgb(42,62,104)" d="M 838.765 851.022 C 841.804 842.302 839.312 825.55 840.82 822.363 C 840.226 821.733 850.445 895.319 850.7 900.226 C 849.386 904.447 849.625 913.299 849.269 918.362 L 849.066 918.013 C 848.899 922.372 848.943 924.169 847.95 928.349 C 846.385 921.388 845.052 906.73 844.191 899.323 C 842.251 883.238 840.442 867.137 838.765 851.022 z"/>
<path transform="translate(0,0)" fill="rgb(42,62,104)" d="M 861.98 993.708 C 864.477 1012.17 876.151 1111.53 871.441 1121.89 C 871.263 1122.29 871.105 1122.69 870.921 1123.08 C 870.809 1123.31 870.676 1123.53 870.553 1123.76 L 864.569 1072.08 C 869.926 1050.81 859.185 1018.34 861.98 993.708 z"/>
<path transform="translate(0,0)" fill="rgb(42,62,104)" d="M 873.906 1150.62 C 884.38 1156.83 886.971 1200.16 880.532 1209.24 C 878.1 1190.29 875.577 1169.57 873.906 1150.62 z"/>
<path transform="translate(0,0)" fill="rgb(81,160,223)" d="M 824.449 779.071 L 1119.5 779.292 C 1094.61 780.32 1068.83 779.373 1043.89 779.834 C 976.388 781.08 906.419 778.774 839.124 780.496 L 838.824 782.892 L 838.992 782.137 L 838.192 783.437 C 835.716 784.125 833.279 784.839 830.767 785.383 C 831.534 793.464 833.02 810.402 834.641 818.241 C 835.387 823.182 836.244 828.185 836.628 833.158 L 835.289 835.786 L 832.943 835.76 C 831.735 838.67 832.065 840.003 831.953 843.285 C 829.769 834.16 825.207 789.638 824.449 779.071 z"/>
<path transform="translate(0,0)" fill="rgb(110,88,210)" d="M 1362.72 696.979 L 1363.16 697.415 C 1365.45 703.696 1363.98 828.424 1363.98 846.115 L 1364.06 1358.95 C 1328.99 1371.7 1290.07 1383.1 1254.36 1394.51 C 1222.33 1404.74 1190.44 1415.62 1158.26 1425.42 L 1157.31 1424.4 C 1156.64 1419.55 1160.95 1387.86 1161.84 1380.36 L 1174.58 1272.34 L 1232.38 778.636 C 1247.56 767.421 1273.06 752.711 1289.29 742.776 L 1362.72 696.979 z"/>
<path transform="translate(0,0)" fill="rgb(33,36,76)" d="M 1238.63 781.281 L 1306.66 738.89 C 1315.49 733.388 1346.56 712.262 1354.98 713.433 C 1358.68 718.84 1357.17 902.992 1357.16 926.189 L 1357.15 1174.66 L 1356.89 1295.9 C 1356.84 1308.47 1357.45 1340.74 1355.92 1351.49 C 1345.9 1362.2 1219.04 1396.66 1195.31 1406.62 C 1186.65 1410.41 1173.54 1414.55 1164.37 1417.74 C 1165.06 1408.65 1166.2 1390.57 1168.05 1382.02 L 1216.9 963.667 L 1232.05 837.343 C 1234.13 819.855 1237.29 798.486 1238.63 781.281 z"/>
<path transform="translate(0,0)" fill="rgb(65,45,128)" d="M 1168.05 1382.02 C 1169.34 1386.27 1172.78 1400.44 1174.7 1402.94 C 1183.05 1406.6 1189.76 1404.63 1195.31 1406.62 C 1186.65 1410.41 1173.54 1414.55 1164.37 1417.74 C 1165.06 1408.65 1166.2 1390.57 1168.05 1382.02 z"/>
<path transform="translate(0,0)" fill="rgb(10,10,11)" d="M 1342.76 741.988 C 1347.65 745.443 1347.56 758.509 1345.03 763.093 L 1345.84 759.683 C 1345.15 762.721 1345.94 761.491 1343.96 763.71 L 1342.24 763.592 L 1339.96 760.438 C 1341.68 766.196 1340.32 776.15 1340.48 782.417 C 1341.12 816.252 1339.09 849.431 1339.69 883.349 C 1339.98 899.164 1345.59 918.49 1340.6 933.379 C 1338.1 940.818 1342.27 945.253 1342.2 952.23 C 1342.12 960.647 1339.69 969.805 1339.59 978.297 C 1341.66 991.894 1343.82 999.992 1342.5 1014.26 C 1341.86 1021.19 1342.91 1031.11 1342.43 1038.96 L 1342.13 1029.03 C 1341.09 1037.72 1341.59 1060.31 1341.54 1069.66 L 1341.51 1155.02 C 1341.6 1168.97 1340.94 1182.31 1341.13 1197.14 C 1341.3 1210.18 1336.75 1234.39 1341.19 1247.36 C 1345.6 1255.87 1340.97 1269.39 1343.17 1278.49 C 1345.77 1289.2 1345.65 1291.26 1344.68 1301.93 C 1343.23 1300.12 1343.93 1300.54 1342.01 1299.6 C 1341.43 1310.38 1340.62 1321.56 1338.11 1332.12 C 1337.53 1334.57 1337.3 1334.45 1337.42 1336.94 C 1336.29 1339.2 1334.43 1341.88 1331.76 1341.87 L 1331.23 1337.81 L 1329.6 1337.74 C 1322.64 1343.94 1314.62 1349.99 1305.22 1350.87 C 1300.38 1351.32 1296.46 1351.68 1291.98 1353.5 L 1291.64 1354.3 L 1295.09 1355.46 L 1295.07 1356.99 C 1291.34 1360.76 1258.1 1373.74 1253.05 1371.85 C 1253.42 1369.29 1255.1 1368.49 1257.37 1366.17 L 1256.41 1365.68 C 1248.85 1367.59 1230 1380.96 1223.87 1378.81 C 1225.11 1376.71 1224.67 1377.8 1225.25 1375.56 C 1218.42 1375.57 1213.58 1384.96 1205.69 1383.66 C 1202.52 1383.14 1200.97 1383.68 1199.02 1385.93 C 1203.62 1389.84 1211.45 1383.54 1216.77 1385.16 C 1219.23 1385.9 1222.7 1385.32 1225.46 1385.22 C 1221.28 1391.89 1202.47 1390.55 1196.02 1391.68 C 1184.18 1393.78 1179.25 1398.3 1177.98 1382.2 C 1184.27 1373.74 1184.05 1355.86 1183.91 1345.72 C 1183.87 1342.44 1186.41 1340.35 1188.75 1338.18 L 1189.82 1338.59 C 1188.93 1345.33 1186.65 1351.64 1187 1357.91 L 1188.17 1358.49 C 1195.8 1346.04 1194.64 1321.91 1195.31 1307.74 C 1195.87 1295.84 1197.1 1288.35 1194.66 1276.57 C 1194.04 1273.54 1203.45 1257.58 1200.72 1251.48 L 1199.41 1251.89 L 1197.04 1257.29 L 1195.93 1257.34 C 1194.98 1251.81 1199.36 1238.66 1199.84 1231.54 C 1201.42 1236.59 1201.25 1243.61 1201.3 1249 C 1206.88 1230.05 1205.19 1219.73 1205.49 1200.38 C 1205.53 1198.01 1207.81 1191.3 1208.5 1187.6 L 1206.75 1187.76 L 1205.71 1186.75 C 1206.32 1172.5 1209.08 1166.18 1211.65 1152.72 C 1213.02 1140.72 1210.73 1127.38 1212.58 1115.65 C 1213.82 1107.83 1211.7 1090.72 1216.2 1083.58 C 1220.37 1088.33 1213.44 1108.44 1215.34 1114.68 C 1216.08 1117.12 1216.07 1118.23 1216.5 1120.69 C 1218.19 1087.62 1222.46 1050.17 1225.61 1017.01 L 1236.07 908.212 C 1238.05 889.509 1240.48 819.35 1255.54 812.353 C 1255.34 810.021 1255.25 808.281 1255.21 805.94 C 1262.67 792.555 1299.53 768.925 1313.95 762.155 L 1313.69 760.873 C 1310.36 760.853 1307.4 760.86 1304.08 760.592 C 1306.52 757.398 1312.82 756.204 1314.93 754.296 C 1325.62 744.64 1328.59 743.446 1342.76 741.988 z"/>
<path transform="translate(0,0)" fill="url(#Gradient15)" d="M 684.114 696.803 C 728.25 723.458 772.119 750.552 815.714 778.082 C 818.351 797.456 820.28 819.144 822.613 838.79 C 829.376 893.654 835.782 948.562 841.832 1003.51 L 889.919 1412.37 C 890.432 1416.87 891.058 1421.62 891.465 1426.11 L 876.622 1420.77 C 871.431 1418.08 830.609 1406.24 822.291 1403.58 L 683.98 1359.11 C 684.976 1282.37 684.113 1203.51 684.111 1126.59 L 684.114 696.803 z"/>
<path transform="translate(0,0)" fill="rgb(33,36,76)" d="M 690.344 1342.71 L 690.436 917.492 C 690.114 847.338 690.143 777.183 690.525 707.03 L 710.949 720.19 C 725.347 728.672 741.103 738.223 754.955 747.471 C 773.493 758.747 791.967 770.128 810.376 781.613 C 812.71 808.864 816.631 838.273 819.819 865.579 L 837.433 1015.18 L 881.97 1396.03 C 875.007 1403.38 873.288 1409.26 862.085 1410.32 L 858.96 1408.9 L 844.583 1404.4 C 831.145 1398.72 797.477 1389.1 781.82 1383.9 C 776.085 1382.71 759.514 1376.96 754.1 1375.07 C 745.361 1372.59 734.988 1368.85 726.236 1365.95 C 717.561 1363.33 698.026 1357.81 691.042 1354.05 C 689.51 1350.64 690.16 1346.55 690.344 1342.71 z"/>
<path transform="translate(0,0)" fill="rgb(42,62,104)" d="M 754.955 747.471 C 757.13 750.06 758.433 751.272 759.699 754.453 L 758.346 754.39 C 748.35 745.506 717.458 726.991 704.659 730.704 L 704.758 730.941 L 706.031 731.484 C 706.317 734.139 706.826 733.982 708.663 736.467 C 705.519 739.215 704.05 735.044 698.747 734.835 C 694.905 736.961 694.826 740.618 691.868 744.025 L 691.115 743.334 C 691.074 737.402 689.473 724.489 695.845 721.143 C 702.268 717.77 705.695 720.277 710.949 720.19 C 725.347 728.672 741.103 738.223 754.955 747.471 z"/>
<path transform="translate(0,0)" fill="rgb(42,62,104)" d="M 690.344 1342.71 C 692.248 1337.15 690.158 1311.37 692.701 1309.39 C 694.431 1315.36 691.997 1318.75 694.924 1327.54 C 697.973 1336.7 693.88 1346.15 705.557 1353.05 C 711.781 1356.72 722.189 1360.25 726.236 1365.95 C 717.561 1363.33 698.026 1357.81 691.042 1354.05 C 689.51 1350.64 690.16 1346.55 690.344 1342.71 z"/>
<path transform="translate(0,0)" fill="rgb(42,62,104)" d="M 754.1 1375.07 C 748.88 1370.82 722.332 1357.22 716.739 1356.1 L 716.771 1355.28 C 719.94 1356.35 726.981 1358.42 729.633 1359.6 C 745.443 1366.59 761.634 1372.05 778.044 1377.41 C 785.644 1379.97 795.25 1381.74 801.989 1385.04 L 801.469 1385.83 C 791.724 1387.62 790.76 1383.5 781.82 1383.9 C 776.085 1382.71 759.514 1376.96 754.1 1375.07 z"/>
<path transform="translate(0,0)" fill="rgb(42,62,104)" d="M 844.583 1404.4 C 851.976 1402 857.791 1401.05 865.624 1401.28 L 866.611 1402.29 C 864.356 1405.48 862.694 1407.56 858.96 1408.9 L 844.583 1404.4 z"/>
<path transform="translate(0,0)" fill="rgb(10,10,11)" d="M 771.694 1364.04 C 761.748 1351.78 743.497 1358 737.127 1344.71 C 736.05 1342.47 715.817 1338.7 713.996 1333.24 C 715.237 1330.32 716.447 1327.38 717.625 1324.43 C 715.589 1325.97 715.047 1327.26 713.679 1329.44 L 712.44 1329.11 C 709.217 1319.88 710.25 1273.83 708.607 1271.78 L 706.263 1274.43 L 706.065 1273.75 L 706.637 1273.94 C 705.375 1265.93 713.777 1258.7 709.348 1243.93 L 707.089 1251.87 C 706.447 1245.2 709.709 1241.43 708.894 1235.28 L 707.115 1236.75 L 706.555 1236.12 C 708.355 1228.39 711.176 1219.15 709.821 1211.48 L 709.417 1215.01 C 708.63 1198.64 712.448 1194.92 711.618 1178.14 C 707.266 1181.79 709.422 1188.95 705.757 1192.87 C 705.775 1186.85 708.484 1179.9 709.153 1172.34 L 708.824 1172.79 L 709.226 1164.93 L 708.9 1165.74 L 708.974 1164.53 C 709.666 1151.94 707.34 1127.5 711.719 1116.58 L 711.267 1115.26 L 710.982 1118.78 L 709.804 1119.34 C 708.345 1116.29 710.989 1106.28 711.5 1101.77 C 714.614 1074.29 712.223 1048.14 711.338 1020.75 C 711.156 1015.13 714.519 1010.51 714.863 1005.02 C 715.243 997.392 711.534 984.178 712.456 976.847 L 714.032 981.219 L 714.919 981.3 C 714.835 976.735 715.279 956.928 713.347 954.897 L 710.933 955.659 L 710.679 954.18 C 711.979 952.542 714.508 949.224 714.612 947.123 C 715.184 935.522 714.098 923.772 714.259 912.147 C 714.195 902.856 715.958 889.929 715.209 881.373 L 714.155 883.903 L 712.711 883.522 C 712.255 875.193 710.273 872.359 715.06 866.245 C 714.13 867.432 713.82 815.736 714.174 817.578 C 713.864 821.062 713.482 824.538 713.027 828.006 L 712.143 828.724 C 710.762 822.073 712.177 813.029 709.741 809.497 C 709.629 799.53 713.708 792.794 713.455 782.95 C 712.703 783.862 713.138 783.281 712.251 784.761 C 710.759 783.155 710.762 782.782 711.242 780.309 C 712.171 775.522 713.629 771.414 711.921 766.389 C 710.052 760.892 712.641 753.584 719.058 753.265 C 731.044 752.669 740.154 766.66 749.612 772.22 C 758.548 777.061 766.308 776.23 774.514 784.229 C 781.086 790.636 786.98 794.743 790.279 804.262 C 795.388 819.007 794.955 835.596 796.71 850.978 C 800.431 882.224 805.107 913.35 806.736 944.761 L 807.778 942.508 L 809.28 942.518 L 809.205 944.873 L 808.424 945.069 L 808.387 947.026 L 808.821 946.318 L 808.135 946.849 L 808.67 946.662 L 809.158 945.418 L 808.404 945.097 L 808.742 946.455 L 809.207 945.47 C 810.969 948.848 810.413 947.765 809.317 952.553 L 812.384 950.219 L 813.288 951.019 C 812.322 958.46 807.872 965.613 810.326 971.111 L 812.305 969.439 C 812.463 972.327 810.821 979.728 811.457 980.394 C 818.123 987.37 813.487 988.156 813.763 989.699 C 815.751 1000.8 822.392 1012.01 817.379 1023.5 L 817.796 1023.18 C 815.999 1026.61 816.242 1027.35 816.623 1031 L 818.695 1027.27 L 820.288 1027.19 C 825.296 1033.11 825.34 1047.53 826.224 1056.07 L 825.338 1056.89 C 821.171 1053.07 817.187 1039.82 817.019 1034.26 L 815.553 1035.48 C 815.598 1036.25 818.685 1050.92 819.055 1052.34 C 826.058 1079.03 829.117 1108.5 828.798 1136.12 C 829.122 1136.65 829.446 1137.18 829.77 1137.71 C 836.953 1147.09 828.259 1168.1 836.367 1173.41 C 836.571 1186.5 836.528 1202.02 837.73 1214.85 L 839.197 1212.56 L 840.126 1212.61 C 839.399 1220.25 849.293 1248.64 848.697 1259.52 C 848.123 1269.99 842.064 1277.76 847.36 1287.08 C 853.564 1300.74 847.256 1318.12 853.509 1334.98 C 857.132 1344.75 856.763 1370.41 857.906 1381.29 C 857.827 1383.19 855.901 1384.94 854.605 1385.94 C 848.541 1387.86 843.763 1385.59 838.292 1382.69 C 832.024 1379.36 824.65 1380.87 818.256 1378.1 C 807.043 1375.82 782.072 1368.55 771.694 1364.04 z"/>
<path transform="translate(0,0)" fill="rgb(21,24,41)" d="M 771.694 1364.04 C 779.739 1362.66 781.357 1365.58 788.973 1366.43 L 789.002 1365.31 C 786.603 1363.59 784.193 1361.89 781.772 1360.21 L 783.28 1360.76 C 797.529 1365.97 819.565 1369.63 831.902 1376.25 L 832.03 1377.34 C 825.815 1377.54 822.597 1376.35 817.286 1373.15 L 814.899 1374.52 C 816.363 1375.74 817.179 1376.53 818.256 1378.1 C 807.043 1375.82 782.072 1368.55 771.694 1364.04 z"/>
<path transform="translate(0,0)" fill="rgb(50,51,96)" d="M 691 1094.5 C 693.822 1098.15 694.514 1221.89 694.49 1235.5 C 694.347 1235.36 694.186 1235.23 694.061 1235.07 C 690.186 1230.15 690.982 1109.9 691 1094.5 z"/>
<path transform="translate(0,0)" fill="rgb(65,45,128)" d="M 862.085 1410.32 C 873.288 1409.26 875.007 1403.38 881.97 1396.03 L 884.336 1411.72 L 884.803 1416.26 L 883.714 1417.27 L 878.966 1415.86 C 876.081 1414.46 865.693 1411.45 862.085 1410.32 z"/>
<path transform="translate(0,0)" fill="rgb(55,114,172)" d="M 884.336 1411.72 L 886.49 1410.71 L 889.919 1412.37 C 890.432 1416.87 891.058 1421.62 891.465 1426.11 L 876.622 1420.77 L 879.318 1418.53 L 878.966 1415.86 L 883.714 1417.27 L 884.803 1416.26 L 884.336 1411.72 z"/>
<path transform="translate(0,0)" fill="url(#Gradient14)" d="M 1024.11 359.33 L 1164.82 652.753 C 1183.17 691.27 1203.84 731.958 1221.07 770.692 L 839.302 770.97 L 826.402 770.79 C 829.697 763.839 832.549 757.694 836.424 751.057 C 841.052 738.073 853.379 714.165 859.632 701.317 C 872.657 674.671 885.525 647.949 898.237 621.153 L 988.277 434.266 C 1000.15 409.769 1011.92 383.425 1024.11 359.33 z"/>
<path transform="translate(0,0)" fill="rgb(81,160,223)" d="M 836.424 751.057 C 837.154 760.28 825.446 764.566 839.302 770.97 L 826.402 770.79 C 829.697 763.839 832.549 757.694 836.424 751.057 z"/>
<path transform="translate(0,0)" fill="rgb(33,36,76)" d="M 1024.15 372.344 C 1026.92 378.046 1029.79 383.778 1032.29 389.597 C 1038.08 401.481 1043.67 413.465 1049.04 425.546 C 1098.69 532.955 1154.66 640.75 1203.37 748.365 C 1206.27 754.052 1208.46 758.751 1210.98 764.617 C 1175.05 765.276 1129.25 766.071 1093.58 764.896 C 1082.32 765.723 1060.54 765.042 1048.64 765.048 L 960.652 764.958 L 928.089 765.079 C 908.085 765.129 888.081 765.069 868.077 764.899 C 858.435 765.312 846.333 764.802 836.515 764.652 C 839.552 757.638 845.534 743.516 849.532 737.528 C 857.562 718.497 873.655 685.127 883.278 667.222 C 886.638 658.158 893.133 645.695 897.482 636.729 L 1004.38 414.883 C 1007.64 406.19 1011.35 398.848 1015.42 390.541 C 1018.15 384.815 1021.24 377.862 1024.15 372.344 z"/>
<path transform="translate(0,0)" fill="url(#Gradient13)" d="M 1021.51 428.459 C 1023.59 429.918 1031.49 435.475 1032.51 436.857 C 1036.64 442.457 1054.99 476.207 1056.03 480.826 L 1054.92 481.475 L 1051.59 478.418 C 1055.73 485.16 1069.44 502.116 1070.59 504.912 C 1072.21 508.179 1075.21 513.61 1075.94 516.95 C 1073.91 514.786 1073.42 514.041 1071 512.283 L 1071.51 512.29 C 1072 519.215 1078.86 524.111 1082.83 529.522 C 1085.17 532.701 1083.51 540.629 1084.15 541.379 C 1089.72 547.912 1091.65 556.985 1095.39 563.586 L 1096.46 564.126 C 1095.76 559.825 1094.45 556.354 1093.09 552.231 C 1101.61 559.924 1102.42 566.552 1106.74 576.919 C 1110.18 585.199 1118.72 593.692 1118.86 602.314 C 1121.32 606.127 1122.75 610.725 1124.94 613.896 C 1134.47 627.717 1141.68 641.08 1147.19 656.97 C 1148.1 659.6 1150.41 662.902 1150.74 665.562 L 1150.2 671.364 C 1147.68 670.074 1147.34 670.166 1144.54 669.394 C 1148.77 675.495 1153.87 676.589 1154.17 687.373 L 1149.48 686.069 C 1146.67 691.981 1173.61 723.449 1175.23 729.961 C 1177.48 736.766 1174.52 740.864 1172.28 746.495 C 1167.53 758.421 1161.55 753.522 1149.37 752.637 C 1150.04 750.254 1164.05 749.951 1169.36 745.819 L 1168.56 744.297 C 1163.79 743.344 1163.6 744.767 1160.08 745.014 C 1146.95 745.936 1132.99 744.914 1119.31 745.141 C 1062.26 746.021 1005.01 746.264 947.964 745.685 C 927.578 745.478 908.281 748.318 888.188 744.167 C 880.976 742.677 879.548 746.335 875.7 739.353 L 874.967 737.995 L 872.67 738.145 C 870.272 735.279 870.633 736.548 870.049 733.286 C 873.348 730.646 875.099 730.101 876.924 726.146 C 881.967 715.213 903.977 680.46 904.519 670.516 C 903.34 672.616 903.522 672.082 901.574 673.771 L 901.052 673.088 C 906.33 661.126 911.68 649.919 918.071 638.472 C 921.187 632.89 917.295 632.03 924.408 627.134 L 923.903 625.959 C 920.221 627.598 914.704 635.153 911.777 638.76 C 911.268 632.366 930.944 608.936 934.433 600.985 C 950.993 563.246 972.522 528.197 987.733 489.884 C 990.094 483.937 996.55 468.663 1002.19 466.568 C 1004.73 464.013 1008.27 453.503 1009.88 449.451 L 1009.9 450.224 L 1012.56 446.184 C 1017.14 439.256 1016.79 435.324 1021.51 428.459 z"/>
<path transform="translate(0,0)" fill="rgb(12,24,57)" d="M 1144.54 669.394 C 1143.07 667.26 1143.42 667.947 1142.56 665.652 C 1145.22 665.955 1144.4 666.377 1146.16 665.396 C 1145.4 662.199 1145.58 662.202 1143.72 659.568 L 1142.31 661.411 L 1141.48 660.892 L 1141.29 655.963 C 1130.85 642.665 1126.68 626.814 1119.12 612.148 C 1116.86 607.746 1114.9 603.609 1112.96 599.07 C 1116.09 599.311 1115.88 599.974 1118.86 602.314 C 1121.32 606.127 1122.75 610.725 1124.94 613.896 C 1134.47 627.717 1141.68 641.08 1147.19 656.97 C 1148.1 659.6 1150.41 662.902 1150.74 665.562 L 1150.2 671.364 C 1147.68 670.074 1147.34 670.166 1144.54 669.394 z"/>
<path transform="translate(0,0)" fill="rgb(42,62,104)" d="M 1004.38 414.883 C 1007.2 416.62 1008.09 416.548 1009.35 420.072 C 996.767 451.649 977.185 480.697 964.916 512.676 C 961.494 521.598 953.879 531.252 950.02 540.261 C 944.112 550.787 939.601 568.287 933.779 577.852 C 926.336 590.08 913.695 622.622 905.436 631.914 C 903.215 633.216 899.42 635.299 897.482 636.729 L 1004.38 414.883 z"/>
<path transform="translate(0,0)" fill="url(#Gradient12)" d="M 1178.29 747.403 C 1187.61 744.081 1178.55 741.198 1184.34 732.892 C 1185.99 738.713 1187.72 744.509 1189.55 750.279 L 1190.85 742.007 C 1194.4 742.945 1193.28 751.171 1203.37 748.365 C 1206.27 754.052 1208.46 758.751 1210.98 764.617 C 1175.05 765.276 1129.25 766.071 1093.58 764.896 C 1095.81 764.18 1096.34 764.482 1097.37 763.163 C 1092.76 761.021 1069.88 762.358 1062.22 761.434 C 1068.68 758.995 1077.99 761.499 1086.28 759.568 C 1074.46 758.127 1061.29 759.212 1048.11 757.256 L 1046.58 757.019 C 1051.43 755.197 1065.99 755.455 1072.98 754.772 C 1088.57 755.214 1166.23 763.27 1173.87 756.663 C 1174.9 755.778 1174.25 752.492 1174.19 751.134 C 1175.6 748.873 1175.86 748.509 1178.29 747.403 z"/>
<path transform="translate(0,0)" fill="rgb(21,24,41)" d="M 1017.6 421.108 C 1045.06 425.826 1046.31 453.762 1058.57 474.112 C 1061.51 478.984 1065.33 483.492 1068.44 488.253 C 1070.89 491.998 1074.58 495.762 1074.27 500.464 C 1073.32 501.688 1071.19 504 1070.59 504.912 C 1069.44 502.116 1055.73 485.16 1051.59 478.418 L 1054.92 481.475 L 1056.03 480.826 C 1054.99 476.207 1036.64 442.457 1032.51 436.857 C 1031.49 435.475 1023.59 429.918 1021.51 428.459 C 1016.79 435.324 1017.14 439.256 1012.56 446.184 C 1012.25 433.242 1011.51 432.196 1017.6 421.108 z"/>
<path transform="translate(0,0)" fill="url(#Gradient11)" d="M 1024.15 372.344 C 1026.92 378.046 1029.79 383.778 1032.29 389.597 C 1038.08 401.481 1043.67 413.465 1049.04 425.546 L 1045.46 424.513 C 1044.78 426.917 1045.36 425.96 1043.97 427.518 C 1035.35 422.538 1037.31 401.104 1024.91 401.354 C 1010.64 401.642 1018.76 412.733 1009.35 420.072 C 1008.09 416.548 1007.2 416.62 1004.38 414.883 C 1007.64 406.19 1011.35 398.848 1015.42 390.541 C 1018.15 384.815 1021.24 377.862 1024.15 372.344 z"/>
<path transform="translate(0,0)" fill="rgb(57,91,163)" d="M 1024.15 372.344 C 1026.92 378.046 1029.79 383.778 1032.29 389.597 C 1024.49 388.128 1023.03 388.894 1015.42 390.541 C 1018.15 384.815 1021.24 377.862 1024.15 372.344 z"/>
<path transform="translate(0,0)" fill="rgb(12,24,57)" d="M 1046.58 757.019 C 1042.94 757.781 996.316 757.947 993.913 756.686 C 1000.24 756.049 1004.5 757.201 1007.84 751.765 C 1013.23 748.173 1086.31 752.417 1095.59 753.975 C 1088.06 754.297 1080.52 754.562 1072.98 754.772 C 1065.99 755.455 1051.43 755.197 1046.58 757.019 z"/>
<path transform="translate(0,0)" fill="rgb(12,24,57)" d="M 1150.74 665.562 C 1166.04 682.177 1171.36 694.489 1178.65 715.693 C 1180.21 720.232 1184.72 728.267 1184.34 732.892 C 1178.55 741.198 1187.61 744.081 1178.29 747.403 C 1178.75 745.259 1179.44 740.363 1179.8 738.559 C 1181.99 727.553 1156.85 678.996 1150.2 671.364 L 1150.74 665.562 z"/>
<path transform="translate(0,0)" fill="rgb(42,62,104)" d="M 855.879 763.418 C 852.523 758.721 854.324 745.53 855.019 739.613 L 855.824 739.389 C 856.421 743.488 856.782 751.016 858.57 753.976 C 869.141 760.855 887.427 761.062 899.813 762.185 L 886.615 761.837 C 900.165 763.644 913.85 764.221 927.503 763.561 L 928.089 765.079 C 908.085 765.129 888.081 765.069 868.077 764.899 C 864.793 764.181 859.377 763.784 855.879 763.418 z"/>
<path transform="translate(0,0)" fill="rgb(50,77,144)" d="M 849.532 737.528 L 850.959 737.723 L 851.918 737.053 C 853.352 744.508 846.545 750.628 853.74 762.627 C 855.602 763.5 854.842 763.484 855.879 763.418 C 859.377 763.784 864.793 764.181 868.077 764.899 C 858.435 765.312 846.333 764.802 836.515 764.652 C 839.552 757.638 845.534 743.516 849.532 737.528 z"/>
<path transform="translate(0,0)" fill="rgb(50,51,96)" d="M 897.482 636.729 C 899.42 635.299 903.215 633.216 905.436 631.914 C 902.318 643.137 894.921 662.905 883.278 667.222 C 886.638 658.158 893.133 645.695 897.482 636.729 z"/>
<path transform="translate(0,0)" fill="rgb(33,36,76)" d="M 927.503 763.561 L 930.742 761.991 L 928.537 761.857 C 940.317 758.074 949.729 761.148 960.652 764.958 L 928.089 765.079 L 927.503 763.561 z"/>
<path transform="translate(0,0)" fill="rgb(110,88,210)" d="M 1039.96 372.265 C 1053.26 384.719 1066.18 397.575 1078.69 410.815 C 1132.88 462.943 1186.69 515.459 1240.12 568.357 C 1279.6 607.038 1323.47 648.091 1361.44 687.828 L 1279.12 739.089 C 1267.37 746.435 1241.52 763.228 1229.56 769.184 C 1216.17 739.474 1200.99 709.285 1186.86 679.813 L 1109.97 519.025 C 1095.89 489.531 1075 450.344 1063.39 421.067 C 1059.98 417.828 1043.42 379.515 1039.96 372.265 z"/>
<path transform="translate(0,0)" fill="rgb(33,36,76)" d="M 1100.47 480.831 C 1100.65 478.323 1098.71 472.022 1099.39 470.493 C 1107.98 451.291 1121.5 467.37 1126.92 476.39 C 1129.97 473.782 1129.8 473.771 1133.53 472.49 L 1271.02 607.381 C 1291.49 627.439 1323.6 657.085 1342.95 679.772 C 1343.14 679.994 1343.27 684.24 1343.33 684.535 C 1344.02 688.317 1336.54 695.492 1333.71 697.175 C 1319.88 705.403 1243.43 755.775 1233.47 758.994 C 1228.92 753.71 1208.7 710.972 1204.99 703.226 L 1156.82 602.904 L 1161.66 606.691 L 1162.85 606.335 L 1156 595.453 C 1150.96 587.504 1149.72 570.139 1146.14 562.14 C 1140.28 549.035 1135.3 543.642 1130.53 529.26 C 1127.3 524.243 1111.85 492.635 1109.07 486.631 C 1107.9 491.59 1110.49 492.269 1109.38 496.518 C 1106.62 493.767 1102.55 484.735 1100.47 480.831 z"/>
<path transform="translate(0,0)" fill="rgb(10,10,11)" d="M 1220.16 592.905 C 1223.13 591.549 1224.51 590.017 1227.91 591.153 C 1240.01 595.202 1243.18 601.514 1251.38 610.32 C 1248.43 611.101 1249.24 610.795 1245.93 610.385 C 1257.15 623.798 1315.8 671.427 1315.06 685.095 C 1314.91 687.981 1314.12 689.073 1311.91 690.801 C 1308.06 693.815 1297.3 697.342 1295.07 701.008 L 1295.27 703.268 C 1293.09 705.473 1294.38 704.928 1291.66 705.61 L 1291.12 703.519 C 1278.65 708.116 1267.64 717.735 1255.49 723.959 C 1246.82 728.396 1247.24 733.625 1237.5 723.352 C 1237.14 722.157 1236.82 721.08 1236.49 719.87 C 1232.56 716.516 1193.36 635.058 1193.72 633.109 C 1197.7 628.088 1218.96 596.851 1220.16 592.905 z"/>
<path transform="translate(0,0)" fill="url(#Gradient10)" d="M 1100.47 480.831 C 1100.65 478.323 1098.71 472.022 1099.39 470.493 C 1107.98 451.291 1121.5 467.37 1126.92 476.39 L 1126 477.541 L 1123.19 476.78 C 1124.01 481.431 1141.01 497.316 1145.51 500.024 C 1145.73 505.315 1145.51 504.112 1150.22 508.677 C 1155.38 513.682 1159.98 516.672 1164.63 522.459 C 1173.48 538.486 1186.2 548.742 1198.92 561.353 C 1207.36 569.721 1212.8 578.83 1222.42 586.51 C 1221.77 588.191 1220.44 591.28 1220.16 592.905 C 1218.96 596.851 1197.7 628.088 1193.72 633.109 L 1193.28 632.93 L 1192.43 630.281 C 1189.33 628.647 1187.9 629.385 1183.79 629.5 C 1184.74 616.794 1161.95 585.539 1155.93 573.155 C 1148.74 558.378 1141.58 541.554 1130.53 529.26 C 1127.3 524.243 1111.85 492.635 1109.07 486.631 C 1107.9 491.59 1110.49 492.269 1109.38 496.518 C 1106.62 493.767 1102.55 484.735 1100.47 480.831 z"/>
<path transform="translate(0,0)" fill="rgb(12,24,57)" d="M 1145.51 500.024 C 1150.62 503.437 1164.39 513.246 1167.78 517.78 C 1179.9 533.977 1191.74 543.729 1208.11 554.987 C 1208.62 555.333 1214.46 565.329 1216.38 567.69 C 1219.11 567.17 1217.72 567.157 1220.54 568.435 C 1223.2 572.879 1227.32 578.791 1226.28 583.959 L 1224.57 584.198 C 1215.87 577.965 1212.33 571.439 1206 563.363 C 1201.14 555.617 1173.36 531.537 1164.63 522.459 C 1159.98 516.672 1155.38 513.682 1150.22 508.677 C 1145.51 504.112 1145.73 505.315 1145.51 500.024 z"/>
<path transform="translate(0,0)" fill="rgb(12,24,57)" d="M 1183.79 629.5 C 1187.9 629.385 1189.33 628.647 1192.43 630.281 L 1193.28 632.93 C 1190.33 637.184 1189.47 641.18 1185.76 645.354 L 1184.78 644.838 C 1183.93 640.936 1182.62 633.235 1183.79 629.5 z"/>
<path transform="translate(0,0)" fill="rgb(8,13,43)" d="M 1302.24 652.509 C 1311.67 654.769 1324.63 676.673 1322.56 687.759 L 1319.87 689.146 L 1317.26 691.287 L 1315.96 690.813 C 1319.32 664.817 1309.11 671.405 1302.24 652.509 z"/>
<path transform="translate(0,0)" fill="url(#Gradient9)" d="M 1064.03 411.245 C 1062.77 408.361 1062.13 406.605 1061.12 403.611 L 1061.94 402.823 L 1065.8 405.156 C 1087.69 428.259 1111.95 449.933 1133.53 472.49 C 1129.8 473.771 1129.97 473.782 1126.92 476.39 C 1121.5 467.37 1107.98 451.291 1099.39 470.493 C 1098.71 472.022 1100.65 478.323 1100.47 480.831 L 1098.96 481.505 C 1087.67 460.148 1075.94 431.16 1064.03 411.245 z"/>
<path transform="translate(0,0)" fill="rgb(50,51,96)" d="M 1100.47 480.831 C 1102.55 484.735 1106.62 493.767 1109.38 496.518 C 1110.49 492.269 1107.9 491.59 1109.07 486.631 C 1111.85 492.635 1127.3 524.243 1130.53 529.26 C 1135.3 543.642 1140.28 549.035 1146.14 562.14 C 1149.72 570.139 1150.96 587.504 1156 595.453 L 1162.85 606.335 L 1161.66 606.691 L 1156.82 602.904 C 1151.51 594.32 1137.89 563.893 1133.41 554.09 C 1122.45 530.136 1109.45 505.376 1098.96 481.505 L 1100.47 480.831 z"/>
<path transform="translate(0,0)" fill="rgb(81,160,223)" d="M 1039.96 372.265 C 1053.26 384.719 1066.18 397.575 1078.69 410.815 C 1072.1 409.019 1071.79 405.357 1065.8 405.156 L 1061.94 402.823 L 1061.12 403.611 C 1062.13 406.605 1062.77 408.361 1064.03 411.245 L 1062.59 410.958 C 1060.65 407.287 1060.04 405.966 1058.68 402.066 L 1059.35 400.334 L 1061.69 399.434 C 1063.7 400.654 1063.5 400.164 1064.72 401.902 C 1062.48 394.987 1053.23 388.204 1047.46 383.006 C 1050.26 390.553 1063.82 416.604 1063.39 421.067 C 1059.98 417.828 1043.42 379.515 1039.96 372.265 z"/>
<path transform="translate(0,0)" fill="rgb(81,160,223)" d="M 1007.74 372.066 C 1006.69 377.344 990.112 411.177 986.89 417.81 L 955.809 482.665 L 882.228 635.105 C 861.071 679.823 839.646 724.414 817.953 768.874 C 808.276 763.782 795.162 755.117 785.601 749.19 C 769.259 739.236 752.998 729.149 736.82 718.931 C 720.013 708.671 703.338 698.195 686.8 687.507 C 695.932 679.035 705.683 668.614 714.746 659.738 L 776.768 599.175 L 1007.74 372.066 z"/>
<path transform="translate(0,0)" fill="rgb(42,62,104)" d="M 827.467 558.407 C 832.073 552.657 841.657 543.662 847.137 538.226 C 860.166 525.261 873.289 512.393 886.505 499.621 C 920.973 466.224 954.227 433.153 989.331 400.353 C 955.571 466.261 921.924 538.453 889.741 605.586 L 860.683 666.187 C 857.315 673.179 850.226 688.954 846.499 695.166 C 839.338 712.833 828.131 732.876 819.943 750.653 C 819.054 753.247 816.917 757.807 815.765 760.493 C 810.086 757.28 805.442 754.604 800.026 750.975 C 798.011 749.969 794.663 747.791 792.619 746.541 C 785.423 742.354 780.728 739.402 773.991 734.554 C 766.365 731.444 718.212 699.952 709.488 694.233 L 696.951 686.379 L 711.242 672.33 L 719.549 664.133 C 723.601 659.216 735.71 647.778 740.594 642.976 C 753.541 630.176 766.572 617.463 779.689 604.837 C 784.272 599.066 821.053 564.049 827.467 558.407 z"/>
<path transform="translate(0,0)" fill="url(#Gradient8)" d="M 937 466.167 C 939.11 466.729 940.261 466.804 942.446 466.778 C 948.028 474.56 933.883 489.493 929.05 495.327 C 919.939 506.326 913.152 523.152 906.573 535.802 L 847.466 651.993 C 845.271 656.256 840.165 661.301 838.339 665.603 C 834.759 674.079 832.168 683.782 828.155 691.996 C 824.09 700.315 812.871 707.744 813.704 717.571 C 814.106 722.317 810.669 727.387 805.594 727.028 C 798.346 726.516 776.943 724.178 773.599 716.896 L 774.895 715.867 C 779.668 717.112 783.165 718.428 787.76 720.113 L 788.543 719.6 C 778.68 712.053 773.298 713.697 763.285 710.728 C 760.008 709.756 746.256 699.127 742.813 696.573 L 743.757 695.426 C 746.289 696.854 747.045 697.392 749.353 699.174 C 746.441 689.746 737.445 695.442 733.304 685.993 C 728.513 675.06 736.492 669.024 744.405 661.947 C 744.624 663.27 744.758 664.298 745.331 665.522 C 749.861 662.559 759.28 649.864 761.985 648.408 C 769.804 644.197 788.814 612.333 794.78 612.629 C 800.553 606.007 826.631 579.599 833.024 574.984 C 834.377 574.629 882.854 527.029 885.532 520.904 C 889.467 511.904 904.897 508.408 905.271 501.001 C 903.409 501.594 901.559 502.221 899.721 502.882 C 903.369 491.029 917.324 495.371 922.326 487.232 C 919.038 487.703 917.089 488.221 913.801 487.58 C 913.06 480.744 924.03 479.918 928.205 470.401 C 931.911 468.749 931.762 467.495 937 466.167 z"/>
<path transform="translate(0,0)" fill="rgb(21,24,41)" d="M 794.78 612.629 C 800.553 606.007 826.631 579.599 833.024 574.984 C 828.38 583.561 805.5 616.854 794.78 612.629 z"/>
<path transform="translate(0,0)" fill="rgb(50,77,144)" d="M 827.467 558.407 C 832.073 552.657 841.657 543.662 847.137 538.226 C 860.166 525.261 873.289 512.393 886.505 499.621 C 920.973 466.224 954.227 433.153 989.331 400.353 C 955.571 466.261 921.924 538.453 889.741 605.586 L 860.683 666.187 C 857.315 673.179 850.226 688.954 846.499 695.166 C 845.129 670.905 934.902 520.963 941.018 484.536 C 941.947 479.005 951.771 470.747 943.319 463.983 C 939.542 463.897 940.748 463.898 937 466.167 C 931.762 467.495 931.911 468.749 928.205 470.401 C 906.979 480.293 796.045 601.098 789.084 599.138 C 793.525 590.624 825.551 565.616 827.467 558.407 z"/>
<path transform="translate(0,0)" fill="rgb(50,77,144)" d="M 719.549 664.133 C 723.601 659.216 735.71 647.778 740.594 642.976 C 753.541 630.176 766.572 617.463 779.689 604.837 C 779.592 606.863 779.412 611.699 778.293 613.264 C 767.868 627.849 751.337 641.004 738.702 653.647 C 732.503 659.849 723.464 664.989 720.873 672.178 C 719.943 674.759 718.999 676.533 716.796 677.696 L 715.713 677.613 C 715.852 674.05 717.96 667.341 719.549 664.133 z"/>
<path transform="translate(0,0)" fill="rgb(50,102,163)" d="M 696.951 686.379 L 711.242 672.33 C 713.619 677.755 708.908 685.816 709.488 694.233 L 696.951 686.379 z"/>
<path transform="translate(0,0)" fill="rgb(50,77,144)" d="M 773.991 734.554 C 785.252 736.069 788.235 736.978 797.511 743.505 C 803.081 743.53 809.012 743.33 814.474 744.163 C 807.785 745.352 795.85 745.355 792.619 746.541 C 785.423 742.354 780.728 739.402 773.991 734.554 z"/>
<path transform="translate(0,0)" fill="rgb(57,91,163)" d="M 800.026 750.975 C 806.084 749.826 813.738 750.198 819.943 750.653 C 819.054 753.247 816.917 757.807 815.765 760.493 C 810.086 757.28 805.442 754.604 800.026 750.975 z"/>
<path transform="translate(0,0)" fill="rgb(110,88,210)" d="M 903.874 1435.51 C 983.131 1436.64 1065.53 1435.63 1144.91 1435.41 C 1136.7 1456.59 1119.57 1490.2 1109.6 1510.96 L 1064.72 1605.62 C 1051.59 1633.31 1038.3 1662.35 1023.94 1689.29 C 1013.04 1667.62 903.339 1440.24 903.874 1435.51 z"/>
<path transform="translate(0,0)" fill="rgb(50,51,96)" d="M 932.776 1441.88 L 1071.72 1441.62 C 1081.23 1441.63 1125.53 1441.26 1132.95 1442.71 C 1133.37 1446.89 1122.22 1469.95 1119.59 1475.44 L 1051.45 1617.76 C 1044.6 1631.83 1037.44 1648.05 1030.04 1662.01 C 1028.92 1664.11 1024.4 1665.68 1021.98 1666.63 C 1015.7 1663.49 994.247 1613.39 989.437 1603.47 C 967.503 1558.64 946.068 1513.56 925.138 1468.26 C 921.031 1460.93 916.356 1449.81 912.784 1441.93 L 932.776 1441.88 z"/>
<path transform="translate(0,0)" fill="rgb(42,62,104)" d="M 912.784 1441.93 L 932.776 1441.88 C 923.843 1451.38 927.993 1460.4 925.138 1468.26 C 921.031 1460.93 916.356 1449.81 912.784 1441.93 z"/>
<path transform="translate(0,0)" fill="url(#Gradient7)" d="M 992.097 1449 C 984.117 1448.98 964.271 1449.68 956.348 1447.85 C 955.73 1447.71 954.078 1445.04 949.459 1444.13 L 950.425 1444.23 C 972.064 1446.16 1085.1 1441.01 1093.94 1446.75 C 1094.42 1447.06 1094.92 1447.35 1095.4 1447.66 C 1101.63 1451.67 1107.46 1457.04 1109.14 1464.57 C 1109.81 1467.55 1110.2 1472.17 1109.05 1475.04 C 1103.65 1488.5 1093.36 1501.17 1086.48 1514.09 C 1079.06 1528.06 1073.37 1542.75 1066.36 1556.88 C 1060.71 1568.26 1053.88 1579.5 1047.15 1590.28 C 1042.75 1597.34 1040.63 1606.27 1038.25 1614.21 L 1036.8 1613.66 L 1036.6 1613 L 1037.81 1614.29 L 1036.31 1612.34 C 1035.53 1618.74 1027.39 1627.22 1023.03 1632.11 C 1019.65 1631.31 1018.25 1630.58 1015.15 1629.18 C 1012.75 1628.07 1009.22 1620.4 1007.52 1617.37 C 1007.93 1602.22 1003.53 1600.16 1003.33 1589.14 C 1000.09 1585.7 998.627 1580.79 995.989 1576.94 C 990.274 1568.61 979.285 1562.7 982.915 1551.29 C 974.995 1536.18 960.677 1502.2 951.664 1491.91 C 954.899 1497.12 961.751 1506.54 960.723 1512.32 L 959.484 1512.75 C 952.982 1506.98 941.808 1484.83 942.055 1475.41 C 942.259 1467.61 943.027 1464.1 946.042 1456.87 C 948.657 1454.98 949.382 1454.11 952.613 1453.83 C 952.872 1455.56 952.837 1454.69 951.639 1456.74 C 953.921 1456.89 953.212 1456.9 955.666 1456.43 L 955.282 1456.29 L 954.853 1457.13 C 954.165 1458.45 954.434 1457.95 953.529 1459.36 C 963.861 1457.11 979.932 1455.82 990.5 1456.3 C 989.504 1457.76 988.347 1457.68 986.489 1459.51 C 994.323 1463 1031.16 1460.23 1040.53 1458.73 C 1047.94 1452.13 1050.74 1457.25 1056.13 1453.9 C 1055.14 1452.72 1054.77 1452.32 1054.16 1450.87 L 1056.09 1449.9 C 1052.51 1447.32 1036.2 1447.36 1032.37 1448.8 C 1016.04 1454.97 998.206 1449.82 983.301 1452.71 L 983.197 1451.85 C 986.988 1449.51 987.545 1449.64 992.097 1449 z"/>
<path transform="translate(0,0)" fill="rgb(21,24,41)" d="M 1003.33 1589.14 C 1012.65 1599.58 1014.16 1611.11 1014.06 1624.52 C 1014.04 1626.56 1014.46 1627.3 1015.15 1629.18 C 1012.75 1628.07 1009.22 1620.4 1007.52 1617.37 C 1007.93 1602.22 1003.53 1600.16 1003.33 1589.14 z"/>
<path transform="translate(0,0)" fill="url(#Gradient6)" d="M 695.63 1371.65 C 701.545 1373.3 704.303 1374.15 710.031 1376.58 L 894.216 1435.16 C 901.745 1455.35 912.5 1474.65 921.546 1494.24 L 981.624 1621.67 C 990.403 1640.23 999.843 1658.79 1008 1677.58 C 993.184 1663.12 977.59 1648.56 963.303 1633.69 C 920.59 1592.66 878.225 1551.27 836.213 1509.51 C 815.953 1489.54 784.579 1460.6 766.212 1440.11 C 753.101 1429.65 720.646 1396.52 708.266 1383.45 C 706.236 1381.99 697.919 1373.82 695.63 1371.65 z"/>
<path transform="translate(0,0)" fill="url(#Gradient5)" d="M 800.561 1452 C 797.847 1450.04 796.413 1447.8 794.594 1445 L 798.584 1446.09 C 795.701 1440.86 768.505 1430.78 773.819 1420.79 C 777.003 1418.62 787.673 1415.18 790.576 1417.39 L 789.438 1418.8 L 793.454 1420.23 C 790.946 1423.24 791.09 1421.84 791.332 1424.56 C 796.466 1426.71 799.051 1423.96 804.071 1426.78 C 817.537 1434.33 827.047 1428.84 841.031 1439.23 C 839.242 1440.29 839.943 1439.81 837.202 1439.65 C 844.185 1444.16 871.448 1452.88 875.31 1456.59 C 880.098 1461.19 879.471 1467.56 890.285 1475.3 C 895.281 1478.88 897.413 1488.89 901.593 1494.25 C 906.284 1500.26 910.453 1520.9 918.395 1529.19 C 921.63 1532.56 922.866 1541.75 924.335 1546.31 C 925.098 1544.29 925.198 1543.56 925.608 1541.42 C 932.536 1547.95 926.894 1560.84 939.282 1564.61 L 938.536 1563.77 C 936.638 1561.6 935.473 1560.78 935.144 1557.97 L 936.508 1557.51 C 939.127 1559.22 940.297 1560.98 940.781 1564.14 L 943.114 1568.54 L 945.464 1568.63 L 945.484 1569.9 C 945.575 1573.84 945.291 1574.81 947.139 1578.04 C 949.363 1578.8 949.274 1578.78 951.621 1578.83 C 957.417 1585.14 963.07 1605.39 947.194 1603.33 C 942.096 1602.67 939.384 1596.18 933.269 1595.27 C 929.258 1592.76 916.601 1579.34 912.501 1575.32 C 877.344 1540.89 841.224 1506.81 807.095 1471.37 C 805.896 1470.52 801.204 1466.06 799.841 1464.82 C 800.49 1461.49 800.462 1455.59 800.561 1452 z"/>
<path transform="translate(0,0)" fill="rgb(21,24,41)" d="M 800.561 1452 C 817.788 1461.61 828.183 1475.56 842.647 1487.82 C 850.687 1494.63 903.592 1535.53 898.95 1542.77 C 894.434 1540.23 873.921 1519.31 867.691 1514.38 C 858.855 1507.38 850.884 1502.85 841.405 1496.73 C 832.027 1490.67 816.369 1475.37 807.095 1471.37 C 805.896 1470.52 801.204 1466.06 799.841 1464.82 C 800.49 1461.49 800.462 1455.59 800.561 1452 z"/>
<path transform="translate(0,0)" fill="rgb(33,36,76)" d="M 787.112 1407.62 C 813.672 1416.09 863.439 1431.16 887.65 1440.92 C 891.833 1442.61 942.908 1553.81 947.239 1563.99 L 940.781 1564.14 C 940.297 1560.98 939.127 1559.22 936.508 1557.51 L 935.144 1557.97 C 935.473 1560.78 936.638 1561.6 938.536 1563.77 L 939.282 1564.61 C 926.894 1560.84 932.536 1547.95 925.608 1541.42 C 925.198 1543.56 925.098 1544.29 924.335 1546.31 C 922.866 1541.75 921.63 1532.56 918.395 1529.19 C 910.453 1520.9 906.284 1500.26 901.593 1494.25 C 897.413 1488.89 895.281 1478.88 890.285 1475.3 C 879.471 1467.56 880.098 1461.19 875.31 1456.59 C 871.448 1452.88 844.185 1444.16 837.202 1439.65 C 839.943 1439.81 839.242 1440.29 841.031 1439.23 C 827.047 1428.84 817.537 1434.33 804.071 1426.78 C 799.051 1423.96 796.466 1426.71 791.332 1424.56 C 791.09 1421.84 790.946 1423.24 793.454 1420.23 L 798.448 1418.83 L 798.456 1417.97 C 791.453 1414.84 788.901 1415.25 787.112 1407.62 z"/>
<path transform="translate(0,0)" fill="rgb(55,114,172)" d="M 766.212 1440.11 L 766.547 1438.38 C 764.071 1434.52 755.056 1426.81 751.186 1423.04 L 716.05 1388.86 L 718.374 1388.58 C 720.405 1389.47 766.503 1434.77 771.494 1440.23 L 772.532 1441.37 L 773.228 1439.34 C 782.16 1447.77 791.031 1456.26 799.841 1464.82 C 801.204 1466.06 805.896 1470.52 807.095 1471.37 C 841.224 1506.81 877.344 1540.89 912.501 1575.32 C 916.601 1579.34 929.258 1592.76 933.269 1595.27 C 934.034 1596.15 938.764 1601.51 939.124 1602.14 C 943.075 1611.96 976.376 1637.28 985.685 1650.9 C 980.042 1651.15 969.923 1635.98 963.992 1633.29 L 963.303 1633.69 C 920.59 1592.66 878.225 1551.27 836.213 1509.51 C 815.953 1489.54 784.579 1460.6 766.212 1440.11 z"/>
<path transform="translate(0,0)" fill="url(#Gradient4)" d="M 720.436 1387.37 C 739.4 1391.29 767.908 1401.5 787.112 1407.62 C 788.901 1415.25 791.453 1414.84 798.456 1417.97 L 798.448 1418.83 L 793.454 1420.23 L 789.438 1418.8 L 790.576 1417.39 C 787.673 1415.18 777.003 1418.62 773.819 1420.79 C 768.505 1430.78 795.701 1440.86 798.584 1446.09 L 794.594 1445 C 796.413 1447.8 797.847 1450.04 800.561 1452 C 800.462 1455.59 800.49 1461.49 799.841 1464.82 C 791.031 1456.26 782.16 1447.77 773.228 1439.34 C 771.7 1437.14 760.187 1426.18 757.442 1423.52 C 744.963 1411.62 732.627 1399.57 720.436 1387.37 z"/>
<path transform="translate(0,0)" fill="url(#Gradient3)" d="M 940.781 1564.14 L 947.239 1563.99 C 960.455 1590.13 972.046 1617.27 985.775 1643.05 L 982.638 1644.66 C 973.624 1634.03 950.038 1612.28 939.124 1602.14 C 938.764 1601.51 934.034 1596.15 933.269 1595.27 C 939.384 1596.18 942.096 1602.67 947.194 1603.33 C 963.07 1605.39 957.417 1585.14 951.621 1578.83 C 949.274 1578.78 949.363 1578.8 947.139 1578.04 C 945.291 1574.81 945.575 1573.84 945.484 1569.9 L 945.464 1568.63 L 943.114 1568.54 L 940.781 1564.14 z"/>
<path transform="translate(0,0)" fill="rgb(81,160,223)" d="M 695.63 1371.65 C 701.545 1373.3 704.303 1374.15 710.031 1376.58 C 711.291 1380.49 712.899 1380.11 714.111 1384.18 L 712.896 1383.82 C 711.414 1383.39 710.524 1383.19 709.032 1382.89 L 708.266 1383.45 C 706.236 1381.99 697.919 1373.82 695.63 1371.65 z"/>
<path transform="translate(0,0)" fill="rgb(110,88,210)" d="M 985.775 1643.05 C 987.887 1645.99 990.402 1648.74 990.754 1652.22 C 987.467 1652.37 984.49 1647.2 982.638 1644.66 L 985.775 1643.05 z"/>
<path transform="translate(0,0)" fill="rgb(110,88,210)" d="M 1296.35 1390.34 C 1312.87 1384.12 1333.47 1378.09 1350.55 1372.75 C 1288.34 1434.89 1225.66 1496.56 1162.52 1557.76 L 1108.2 1611.14 C 1102.41 1616.78 1090.72 1628.77 1084.87 1633.59 C 1070.16 1648.28 1055.25 1662.77 1040.15 1677.06 C 1048.52 1660.32 1055.73 1643.2 1064.46 1626.06 L 1154.91 1435.05 C 1187.99 1425.94 1223.2 1412.74 1256.4 1402.93 C 1268.97 1399.21 1283.88 1393.32 1296.35 1390.34 z"/>
<path transform="translate(0,0)" fill="url(#Gradient2)" d="M 1281.96 1411.42 C 1283.13 1414.34 1284.26 1417.47 1282.53 1420.46 C 1276.54 1430.75 1270.66 1436.97 1265.24 1447.97 C 1217.09 1497.01 1165.31 1545.71 1116.03 1593.82 L 1116.16 1587.72 C 1109.49 1590.64 1096.83 1591.63 1100.01 1579.14 C 1101.08 1574.93 1106.25 1570.6 1107.63 1564.15 C 1112.78 1559.84 1117.09 1551.48 1120.63 1545.5 C 1135.15 1521.01 1152.61 1485.22 1168.78 1463.07 C 1178.07 1450.36 1224.76 1431.63 1240.75 1427.32 C 1240.11 1426.58 1239.48 1425.84 1238.84 1425.1 C 1244.26 1419.58 1254.26 1424.52 1263.57 1421.8 C 1261.48 1420.37 1261.23 1420.31 1259.57 1418.44 C 1264.87 1415.62 1275.08 1414.77 1281.96 1411.42 z"/>
<path transform="translate(0,0)" fill="rgb(21,24,41)" d="M 1232.9 1456.39 L 1234.45 1457.03 L 1234.52 1458.36 C 1223.94 1463.97 1213.17 1480.08 1203.85 1488.53 C 1196.89 1494.84 1189.63 1501.17 1182.9 1507.72 C 1179.21 1511.3 1174.17 1518.28 1170.34 1520.77 C 1171.17 1516.83 1170.75 1518.18 1173.61 1514.86 C 1177.33 1507.93 1179.58 1500.06 1184.85 1494.19 C 1191.76 1486.49 1200.58 1481.31 1207.68 1473.63 C 1211.55 1469.44 1213.24 1462.98 1217.6 1460.54 C 1216.55 1463.46 1214.59 1467.85 1214.84 1470.69 C 1219.52 1468.96 1225.62 1460.07 1232.9 1456.39 z"/>
<path transform="translate(0,0)" fill="rgb(33,36,76)" d="M 1247.78 1412.14 C 1261.15 1410.2 1267.59 1412.93 1281.1 1409.55 L 1282.47 1410.45 L 1281.96 1411.42 C 1275.08 1414.77 1264.87 1415.62 1259.57 1418.44 C 1261.23 1420.31 1261.48 1420.37 1263.57 1421.8 C 1254.26 1424.52 1244.26 1419.58 1238.84 1425.1 C 1239.48 1425.84 1240.11 1426.58 1240.75 1427.32 C 1224.76 1431.63 1178.07 1450.36 1168.78 1463.07 C 1152.61 1485.22 1135.15 1521.01 1120.63 1545.5 C 1117.09 1551.48 1112.78 1559.84 1107.63 1564.15 C 1103.44 1566.84 1104 1570.63 1100.33 1575.29 C 1101.03 1572.62 1101.71 1569.4 1102.82 1566.93 C 1098.07 1573.25 1098.55 1580.04 1092.85 1580.97 C 1102.42 1559.18 1113.34 1537.04 1123.58 1515.44 C 1135.22 1490.9 1146.53 1465.16 1158.61 1440.93 C 1170.87 1436.01 1189.36 1430.57 1202.2 1426.76 C 1210.65 1423.77 1219.75 1421.19 1228.37 1418.59 C 1234.3 1416.13 1241.54 1414.08 1247.78 1412.14 z"/>
<path transform="translate(0,0)" fill="url(#Gradient1)" d="M 1092.85 1580.97 C 1098.55 1580.04 1098.07 1573.25 1102.82 1566.93 C 1101.71 1569.4 1101.03 1572.62 1100.33 1575.29 C 1104 1570.63 1103.44 1566.84 1107.63 1564.15 C 1106.25 1570.6 1101.08 1574.93 1100.01 1579.14 C 1096.83 1591.63 1109.49 1590.64 1116.16 1587.72 L 1116.03 1593.82 C 1104.64 1605.04 1092.76 1616.55 1081.73 1628.11 C 1079.56 1625.83 1074.41 1623.75 1071.22 1624.51 C 1078.26 1609.92 1085.47 1595.4 1092.85 1580.97 z"/>
<path transform="translate(0,0)" fill="rgb(65,45,128)" d="M 1316.19 1390.2 C 1318.36 1391.78 1318.49 1391.59 1319.39 1394.05 C 1317.98 1398.76 1271.01 1443.15 1265.24 1447.97 C 1270.66 1436.97 1276.54 1430.75 1282.53 1420.46 C 1284.26 1417.47 1283.13 1414.34 1281.96 1411.42 L 1282.47 1410.45 L 1281.1 1409.55 C 1267.59 1412.93 1261.15 1410.2 1247.78 1412.14 C 1270.54 1404.69 1293.35 1397.38 1316.19 1390.2 z"/>
<path transform="translate(0,0)" fill="rgb(110,88,210)" d="M 1071.22 1624.51 C 1074.41 1623.75 1079.56 1625.83 1081.73 1628.11 L 1081.56 1629.13 C 1078.72 1635.22 1071.5 1639.95 1068.91 1645.4 C 1073.87 1641.2 1079.02 1636.25 1084.87 1633.59 C 1070.16 1648.28 1055.25 1662.77 1040.15 1677.06 C 1048.52 1660.32 1055.73 1643.2 1064.46 1626.06 C 1066.26 1632.47 1064.87 1631.39 1065.48 1636.21 L 1071.22 1624.51 z"/>
<path transform="translate(0,0)" fill="rgb(65,45,128)" d="M 1071.22 1624.51 C 1074.41 1623.75 1079.56 1625.83 1081.73 1628.11 L 1081.56 1629.13 C 1075.92 1634.52 1066.87 1643.69 1060.99 1648.2 C 1062.45 1644.01 1063.71 1640.31 1065.48 1636.21 L 1071.22 1624.51 z"/>
<path transform="translate(0,0)" fill="rgb(50,77,144)" d="M 823.247 1516.79 L 982.373 1672.57 C 991.971 1681.39 1014.76 1706.34 1023.63 1710.28 C 1027.17 1709.93 1025.48 1710.44 1028.73 1708.23 C 1042.13 1696.25 1055.31 1681.64 1068.87 1669.17 C 1070.06 1667.21 1088 1650.38 1090.76 1647.76 L 1141.78 1598.79 L 1142.6 1601.39 C 1138.84 1605.15 1110.03 1631.64 1109.67 1633.7 C 1112.21 1633.31 1110.98 1633.26 1113.35 1633.76 C 1108.86 1642.9 1098.57 1653.4 1090.44 1659.71 C 1088.16 1661.9 1081.58 1665.89 1080.15 1668.24 C 1072.52 1680.78 1065.26 1689.87 1054.34 1699.98 L 1053.54 1698.35 L 1052.24 1699.51 C 1052.27 1699.23 1051.97 1703.33 1051.9 1703.03 C 1053.16 1708.25 1033.54 1713.89 1030.63 1712.84 L 1031.71 1710.67 L 1030.26 1710.47 L 1026.66 1714.25 C 1019.95 1714.27 1005.79 1709.33 999.552 1705.97 C 996.048 1704.09 986.848 1681.94 980.688 1679.29 C 969.1 1674.29 968.186 1675.5 962.732 1664.21 C 962.146 1662.99 948.923 1658.72 946.107 1653.3 C 949.037 1653.14 949.57 1653.21 952.484 1652.55 C 945.54 1646.3 943.115 1645.16 936.631 1639.99 C 935.688 1636.79 935.571 1638.32 937.148 1635.24 C 939.923 1636.5 947.737 1644.27 951.86 1646.75 L 951.986 1645.91 C 948.142 1642.02 926.756 1619.79 923.492 1618.49 C 926.228 1621.62 928.103 1623.56 929.403 1627.5 L 928.606 1628.25 C 916.526 1621.31 888.44 1588.51 875.903 1577.87 C 869.488 1572.43 869.523 1573.75 863.987 1569.95 L 865.538 1568.16 C 865.406 1566.99 865.274 1565.82 865.142 1564.66 C 870.448 1567.6 874.375 1572.38 879.408 1576.18 C 872.243 1567.59 858.633 1554.14 850.108 1546.5 L 857.052 1558.03 C 855.883 1557.5 840.28 1542.6 839.362 1540.4 L 840.356 1538.86 C 839.315 1534.84 827.269 1523.52 823.547 1520.28 L 822.233 1519.15 L 823.247 1516.79 z"/>
<path transform="translate(0,0)" fill="rgb(65,45,128)" d="M 1068.87 1669.17 C 1067.19 1675.51 1066.43 1673.43 1063.21 1677.68 C 1052.97 1691.21 1050.23 1708.34 1028.73 1708.23 C 1042.13 1696.25 1055.31 1681.64 1068.87 1669.17 z"/>
<path transform="translate(0,0)" fill="rgb(50,102,163)" d="M 1264.93 567.23 C 1249.59 546.583 1239.8 541.254 1223.2 524.393 L 1184.98 485.937 C 1178.45 479.267 1171.47 471.736 1164.88 465.123 C 1160.35 460.579 1140.34 446.008 1137.67 442.084 L 1144.36 443.984 C 1169.93 459.816 1182.03 481.378 1205.3 499.005 C 1213.19 504.981 1213.91 509.177 1221.07 514.918 L 1222.13 514.91 C 1220.28 512.323 1219.57 511.777 1217.31 509.615 L 1217.88 508.349 C 1222.95 509.014 1228.67 517.685 1232.19 522.032 L 1231.56 522.816 C 1228.25 520.866 1225.35 517.416 1223.58 517.415 C 1242.13 537.353 1252.48 543.563 1269.52 566.172 C 1269.95 566.696 1270.37 567.229 1270.81 567.745 C 1272.1 569.263 1272.95 569.773 1274.73 570.554 C 1275.67 570.965 1322.08 618.434 1326.77 623.644 C 1331.18 628.549 1334.51 634.895 1339.22 639.372 C 1342.5 642.483 1346.98 644.226 1350.53 647.043 C 1356.82 652.037 1378.11 670.552 1380.67 677.009 C 1380.85 677.471 1380.89 677.978 1381.01 678.462 L 1378.41 679.279 L 1379.77 680.472 C 1382.54 688.807 1382.14 703.229 1382.62 713.053 C 1379.68 724.302 1383.12 729.026 1381.76 738.6 L 1380.73 738.291 L 1380.64 737.39 C 1380.3 734.331 1380.73 734.744 1379.1 732.49 C 1378.47 716.486 1378.86 700.09 1378.43 683.945 C 1371.36 675.269 1361.98 666.857 1354.26 658.583 C 1329.47 632.031 1301.15 607.553 1275.97 581.603 C 1274.83 576.908 1268.48 570.427 1264.93 567.23 z"/>
<path transform="translate(0,0)" fill="rgb(255,254,254)" d="M 1296.45 1842.24 C 1298.82 1842.79 1300.8 1843.24 1303.15 1844 C 1303.64 1846.61 1303.61 1847.95 1303.71 1850.59 C 1299.66 1849.91 1298.35 1850.92 1295.84 1849.29 L 1296.45 1842.24 z"/>
<path transform="translate(0,0)" fill="rgb(255,254,254)" d="M 1547.92 537.747 C 1549.59 540.353 1549.9 545.716 1548.29 548.507 L 1545.51 548.632 C 1542.95 542.065 1543.09 541.583 1547.92 537.747 z"/>
</svg>