<svg version="1.1" xmlns="http://www.w3.org/2000/svg" style="display: block;" viewBox="0 0 2048 2048" width="2048" height="2048" preserveAspectRatio="none">
<defs>
	<linearGradient id="Gradient1" gradientUnits="userSpaceOnUse" x1="393.187" y1="926.751" x2="402.614" y2="933.842">
		<stop class="stop0" offset="0" stop-opacity="1" stop-color="rgb(35,44,72)"/>
		<stop class="stop1" offset="1" stop-opacity="1" stop-color="rgb(59,71,94)"/>
	</linearGradient>
	<linearGradient id="Gradient2" gradientUnits="userSpaceOnUse" x1="681.001" y1="1143.69" x2="802.446" y2="1078.38">
		<stop class="stop0" offset="0" stop-opacity="1" stop-color="rgb(81,65,87)"/>
		<stop class="stop1" offset="1" stop-opacity="1" stop-color="rgb(121,83,102)"/>
	</linearGradient>
	<linearGradient id="Gradient3" gradientUnits="userSpaceOnUse" x1="1029.24" y1="1387.78" x2="1015.16" y2="1236.83">
		<stop class="stop0" offset="0" stop-opacity="1" stop-color="rgb(75,62,83)"/>
		<stop class="stop1" offset="1" stop-opacity="1" stop-color="rgb(121,81,99)"/>
	</linearGradient>
	<linearGradient id="Gradient4" gradientUnits="userSpaceOnUse" x1="1365.13" y1="1140.5" x2="1240.73" y2="1085.94">
		<stop class="stop0" offset="0" stop-opacity="1" stop-color="rgb(81,65,87)"/>
		<stop class="stop1" offset="1" stop-opacity="1" stop-color="rgb(121,82,101)"/>
	</linearGradient>
	<linearGradient id="Gradient5" gradientUnits="userSpaceOnUse" x1="812.401" y1="754.232" x2="900.966" y2="861.916">
		<stop class="stop0" offset="0" stop-opacity="1" stop-color="rgb(77,62,84)"/>
		<stop class="stop1" offset="1" stop-opacity="1" stop-color="rgb(129,85,104)"/>
	</linearGradient>
	<linearGradient id="Gradient6" gradientUnits="userSpaceOnUse" x1="1368.33" y1="684.453" x2="1130.09" y2="834.881">
		<stop class="stop0" offset="0" stop-opacity="1" stop-color="rgb(70,58,81)"/>
		<stop class="stop1" offset="1" stop-opacity="1" stop-color="rgb(116,81,101)"/>
	</linearGradient>
	<linearGradient id="Gradient7" gradientUnits="userSpaceOnUse" x1="1017.23" y1="1113.31" x2="1030.65" y2="788.233">
		<stop class="stop0" offset="0" stop-opacity="1" stop-color="rgb(213,74,107)"/>
		<stop class="stop1" offset="1" stop-opacity="1" stop-color="rgb(255,124,145)"/>
	</linearGradient>
	<linearGradient id="Gradient8" gradientUnits="userSpaceOnUse" x1="328.186" y1="1070.8" x2="1838.49" y2="968.414">
		<stop class="stop0" offset="0" stop-opacity="1" stop-color="rgb(200,153,81)"/>
		<stop class="stop1" offset="1" stop-opacity="1" stop-color="rgb(243,208,125)"/>
	</linearGradient>
</defs>
<path transform="translate(0,0)" fill="rgb(254,255,255)" d="M 0 0 L 2048 0 L 2048 2048 L 0 2048 L 0 0 z"/>
<path transform="translate(0,0)" fill="rgb(17,29,56)" d="M 1007.04 144.94 C 1493.04 135.474 1894.7 521.753 1904.21 1007.75 C 1913.72 1493.74 1527.48 1895.44 1041.48 1905 C 555.428 1914.55 153.667 1528.25 144.155 1042.19 C 134.643 556.134 520.983 154.408 1007.04 144.94 z"/>
<path transform="translate(0,0)" fill="rgb(17,29,56)" d="M 339.48 579.037 C 458.869 396.416 645.433 268.219 858.717 222.242 C 1065.25 179.092 1280.47 218.516 1458.3 332.074 C 1644.99 450.506 1776.84 638.409 1824.69 854.256 C 1834.08 898.869 1839.93 944.154 1842.18 989.688 C 1849.03 997.454 1845.5 1046.05 1844.06 1057.33 L 1843.09 1057.84 C 1842.9 1056.34 1842.67 1054.81 1842.53 1053.31 C 1839.98 1100.03 1836.39 1137.67 1827.12 1183.99 C 1791.72 1357.41 1701.27 1514.77 1569.23 1632.65 C 1453.72 1736.74 1311.03 1805.86 1157.75 1831.99 C 1137.69 1835.31 1095.06 1842.22 1075.16 1841.09 C 1049.35 1844.53 1002.94 1842.87 976.718 1841.57 C 942.522 1838.58 914.372 1836.57 880.064 1830.09 C 731.54 1802.06 607.033 1740.71 492.272 1643.95 L 486.517 1638.99 C 468.153 1623.16 450.589 1606.42 433.891 1588.84 C 347.221 1498.6 282.236 1389.81 243.862 1270.72 C 236.775 1248.52 229.544 1223.99 225.079 1201.1 C 221.664 1189.55 218.068 1168.56 216.12 1156.63 C 205.485 1092.99 202.659 1028.29 207.706 963.962 C 208.805 949.847 210.345 930.567 212.962 916.687 C 213.065 908.651 217.941 882.161 219.577 873.653 C 233.681 800.31 262.421 712.857 299.459 647.647 C 301.99 639.739 324.429 602.928 329.07 595.319 L 339.48 579.037 z"/>
<path transform="translate(0,0)" fill="url(#Gradient8)" d="M 339.48 579.037 C 458.869 396.416 645.433 268.219 858.717 222.242 C 1065.25 179.092 1280.47 218.516 1458.3 332.074 C 1644.99 450.506 1776.84 638.409 1824.69 854.256 C 1834.08 898.869 1839.93 944.154 1842.18 989.688 C 1849.03 997.454 1845.5 1046.05 1844.06 1057.33 L 1843.09 1057.84 C 1842.9 1056.34 1842.67 1054.81 1842.53 1053.31 C 1839.98 1100.03 1836.39 1137.67 1827.12 1183.99 C 1791.72 1357.41 1701.27 1514.77 1569.23 1632.65 C 1453.72 1736.74 1311.03 1805.86 1157.75 1831.99 C 1137.69 1835.31 1095.06 1842.22 1075.16 1841.09 C 1049.35 1844.53 1002.94 1842.87 976.718 1841.57 C 942.522 1838.58 914.372 1836.57 880.064 1830.09 C 731.54 1802.06 607.033 1740.71 492.272 1643.95 L 486.517 1638.99 C 468.153 1623.16 450.589 1606.42 433.891 1588.84 C 452.027 1588.81 451.992 1576.8 451.413 1562.99 C 472.114 1584.4 489.69 1601.04 511.813 1620.85 L 514.244 1622.97 C 604.682 1698.3 698.842 1750.21 812.522 1782.81 C 1010.96 1839.59 1223.87 1814.54 1403.72 1713.27 C 1581.52 1614.53 1723.2 1443.29 1779.42 1247.13 C 1778.3 1242.72 1785.91 1210.82 1787.71 1203.87 C 1807.73 1126.48 1812.22 1042.48 1807.09 962.914 C 1806.48 953.525 1803.27 934.766 1805.61 926.513 C 1803.66 905.214 1798.36 877.595 1793.8 856.751 C 1769.16 745.73 1720.61 641.418 1651.52 551.084 C 1528.62 388.65 1340.16 271.897 1137.57 243.993 C 1127.04 242.236 1115.18 241.091 1104.49 239.829 C 1054.54 234.257 992.779 234.728 943.121 240.22 L 929.826 241.394 C 914.797 244.096 898.481 245.528 883.673 248.365 C 860.692 252.767 836.18 258.795 813.724 265.219 C 639.459 314.96 487.387 422.681 382.645 570.571 C 377.041 578.634 367.329 594.017 361.692 600.976 L 356.621 609.275 C 344.134 630.373 331.627 651.421 320.402 673.233 L 317.36 671.661 C 315.962 668.82 315.856 668.239 315.029 665.282 C 315.57 662.149 315.795 661.878 317.898 659.493 C 310.729 654.868 302.753 664.895 299.459 647.647 C 301.99 639.739 324.429 602.928 329.07 595.319 L 339.48 579.037 z"/>
<path transform="translate(0,0)" fill="rgb(29,38,62)" d="M 1779.42 1247.13 C 1778.3 1242.72 1785.91 1210.82 1787.71 1203.87 C 1807.73 1126.48 1812.22 1042.48 1807.09 962.914 C 1806.48 953.525 1803.27 934.766 1805.61 926.513 C 1817.78 1019.45 1812.75 1113.83 1790.8 1204.95 C 1787.77 1217.41 1783.51 1234.99 1779.42 1247.13 z"/>
<path transform="translate(0,0)" fill="rgb(204,157,83)" d="M 929.826 241.394 L 929.632 240.279 C 933.331 237.608 941.662 238.271 946.33 237.473 C 971.38 233.192 1088.27 227.55 1104.49 239.829 C 1054.54 234.257 992.779 234.728 943.121 240.22 L 929.826 241.394 z"/>
<path transform="translate(0,0)" fill="rgb(204,157,83)" d="M 976.718 1841.57 C 987.488 1838.29 1061.35 1839.79 1075.16 1841.09 C 1049.35 1844.53 1002.94 1842.87 976.718 1841.57 z"/>
<path transform="translate(0,0)" fill="rgb(29,38,62)" d="M 1842.18 989.688 C 1849.03 997.454 1845.5 1046.05 1844.06 1057.33 L 1843.09 1057.84 C 1842.9 1056.34 1842.67 1054.81 1842.53 1053.31 C 1843.2 1032.11 1843.08 1010.88 1842.18 989.688 z"/>
<path transform="translate(0,0)" fill="rgb(204,157,83)" d="M 339.48 579.037 C 342.035 579.652 342.12 579.437 343.95 581.233 C 344.268 586.143 340.957 587.981 337.423 591.217 C 337.5 596.69 340.412 602.109 339.113 604.181 C 333.358 603.2 330.275 601.133 329.07 595.319 L 339.48 579.037 z"/>
<path transform="translate(0,0)" fill="rgb(204,157,83)" d="M 486.517 1638.99 L 486.389 1633.48 C 488.507 1631.3 488.512 1631.51 491.448 1630.51 C 497.08 1631.04 500.705 1633.5 500.934 1639.47 C 497.976 1644.17 497.813 1643.77 492.272 1643.95 L 486.517 1638.99 z"/>
<path transform="translate(0,0)" fill="rgb(204,157,83)" d="M 511.813 1620.85 L 514.244 1622.97 C 513.954 1627.02 513.229 1631.16 510.402 1633.95 C 504.777 1632.84 503.833 1628.5 504.595 1623.48 C 507.216 1620.77 507.119 1621.6 511.813 1620.85 z"/>
<path transform="translate(0,0)" fill="rgb(204,157,83)" d="M 356.621 609.275 C 355.547 606.126 353.257 601.543 354.113 598.82 L 356.617 599.84 C 359.003 599.242 357.776 599.472 360.302 599.168 L 361.692 600.976 L 356.621 609.275 z"/>
<path transform="translate(0,0)" fill="rgb(204,157,83)" d="M 350.031 580.555 L 351.677 580.492 C 351.845 583.817 352.237 586.54 351.4 589.752 L 350.452 589.176 C 349.339 585.761 349.028 584.823 348.454 581.328 L 350.031 580.555 z"/>
<path transform="translate(0,0)" fill="rgb(204,157,83)" d="M 386.977 515.994 C 391.024 516.2 389.609 515.359 392.116 517.44 L 392.22 521.575 C 388.367 521.945 389.514 522.61 387.298 521.026 L 386.977 515.994 z"/>
<path transform="translate(0,0)" fill="rgb(204,157,83)" d="M 342.804 595.392 C 345.026 596.141 344.398 595.859 346.331 597.099 L 345.367 598.578 L 343.746 599.287 L 342.804 595.392 z"/>
<path transform="translate(0,0)" fill="rgb(204,157,83)" d="M 299.459 647.647 C 302.753 664.895 310.729 654.868 317.898 659.493 C 315.795 661.878 315.57 662.149 315.029 665.282 C 315.856 668.239 315.962 668.82 317.36 671.661 L 320.402 673.233 C 226.517 862.85 209.031 1071.13 276.838 1272.52 C 313.297 1380.85 372.863 1479.96 451.413 1562.99 C 451.992 1576.8 452.027 1588.81 433.891 1588.84 C 347.221 1498.6 282.236 1389.81 243.862 1270.72 C 236.775 1248.52 229.544 1223.99 225.079 1201.1 C 221.664 1189.55 218.068 1168.56 216.12 1156.63 C 205.485 1092.99 202.659 1028.29 207.706 963.962 C 208.805 949.847 210.345 930.567 212.962 916.687 C 213.065 908.651 217.941 882.161 219.577 873.653 C 233.681 800.31 262.421 712.857 299.459 647.647 z"/>
<path transform="translate(0,0)" fill="rgb(198,157,97)" d="M 225.079 1201.1 C 221.664 1189.55 218.068 1168.56 216.12 1156.63 C 205.485 1092.99 202.659 1028.29 207.706 963.962 C 208.805 949.847 210.345 930.567 212.962 916.687 C 214.195 928.014 210.538 962.941 209.646 976.18 C 207.812 1003.62 207.525 1031.14 208.787 1058.61 C 210.235 1086.98 212.86 1115.27 216.653 1143.42 C 218.297 1156 226.279 1191.61 225.079 1201.1 z"/>
<path transform="translate(0,0)" fill="rgb(29,38,62)" d="M 943.121 240.22 C 992.779 234.728 1054.54 234.257 1104.49 239.829 C 1115.18 241.091 1127.04 242.236 1137.57 243.993 L 1137.19 245.949 C 1125.87 244.885 1111.68 241.709 1100.99 241.378 C 1057.25 240.026 1013.07 238.125 969.337 239.996 C 961.148 240.347 953.046 241.838 944.674 242.142 L 943.121 240.22 z"/>
<path transform="translate(0,0)" fill="rgb(254,177,187)" d="M 871.579 626.641 C 873.686 624.326 877.097 623.975 880.36 622.15 C 893.44 614.831 909.818 618.385 923.846 615.383 C 926.747 614.736 932.135 603.939 939.662 600.223 C 946.08 597.055 953.942 595.759 957.461 590.187 C 963.749 580.232 980.917 569.243 990.799 562.745 C 989.058 561.197 989.525 561.831 986.611 561.257 C 989.841 558.826 997.181 560.432 999.701 559.562 C 1007.5 556.873 1019.74 552.484 1027.96 551.944 L 1028.75 552.59 L 1027.64 553.882 C 1030.52 556.687 1035.03 556.464 1038.09 553.937 C 1049 559.261 1065.37 566.17 1073.93 574.512 C 1082.81 583.16 1092.98 593.016 1102.4 601.315 C 1103.49 602.268 1107.73 603.065 1109.33 603.413 C 1110.6 604.738 1117.89 613.37 1118.11 613.423 C 1142.94 619.309 1163.64 613.648 1184.27 632.436 C 1201.9 648.494 1204.4 663.031 1212.6 684.451 C 1217.33 687.439 1219.06 684.385 1224.09 688.312 C 1233.65 695.779 1238.66 698.13 1250.58 695.089 C 1256.36 693.613 1265.86 693.178 1267.35 686.918 C 1263.62 682.972 1259.96 679.143 1256.41 674.921 C 1241.92 657.709 1261.4 641.872 1278.85 642.693 C 1290.18 643.227 1295.35 660.835 1293.77 669.927 C 1292.96 674.551 1286.42 680.368 1282.68 682.856 L 1282.86 683.663 C 1288.46 683.594 1293.3 678.616 1299.37 677.167 C 1305.86 671.196 1311.71 669.16 1316.17 665.129 L 1315.94 664.215 C 1314.95 660.065 1314.94 658.997 1314.96 654.737 C 1294.56 641.31 1288.34 639.809 1302.68 616.098 C 1304.44 613.187 1310.26 611.378 1313.58 611.009 C 1340.81 612.128 1339.86 627.781 1335.29 645.035 L 1332.84 647.698 L 1335.11 649.227 C 1336.11 648.645 1337.11 648.062 1338.11 647.479 C 1338.5 647.79 1342.24 651.992 1340.77 651.736 C 1357.51 654.658 1350.59 668.875 1356.21 670.647 C 1372.31 675.724 1396.41 685.245 1378.92 707.37 C 1369.29 719.555 1359.67 718.424 1346.03 709.481 C 1345.38 710.037 1343.16 719.095 1342.48 721.167 C 1341.14 719.294 1341.46 719.884 1340.65 717.846 L 1340.37 719.576 L 1341.29 719.887 L 1340.27 721.038 C 1340.31 724.796 1340.82 725.5 1342.23 728.888 L 1341.61 730.656 C 1338.01 732.064 1333 733.32 1330.86 736.121 C 1330.2 740.691 1331.5 742.133 1334.4 746.036 C 1335.09 746.967 1335.78 747.891 1336.49 748.807 C 1336.8 748.761 1337.11 748.698 1337.42 748.668 C 1346.25 747.822 1384.06 770.473 1392.54 776.207 C 1403.37 788.441 1404.9 804.205 1413.85 817.717 C 1415.62 820.405 1426.93 822.037 1431.42 826.571 C 1438.77 833.989 1445.92 832.179 1448.7 842.448 C 1458.41 848.281 1463.46 850.183 1474.31 857.417 L 1476.94 855.643 C 1480.29 859.763 1475.95 857.695 1477.94 860.394 C 1479.79 862.9 1487.57 868.123 1489.26 870.074 C 1500.32 882.809 1505.13 902.187 1503.4 918.454 C 1501.49 936.31 1494.74 947.125 1486.39 962.206 C 1486.08 962.768 1479.43 982.015 1479.38 982.416 C 1478.41 991.105 1479.56 1006 1474.81 1015.08 C 1481.78 1034.88 1480.23 1048.26 1472.18 1066.7 C 1454.16 1094.44 1438.85 1102.95 1406 1112.2 C 1395.75 1115.13 1370.82 1114.85 1364.86 1124.78 C 1361.15 1130.96 1357.15 1144.31 1352.78 1151.17 C 1350.6 1154.59 1354.88 1165.68 1359.65 1169.61 C 1382.15 1188.18 1401.33 1214.72 1404.08 1244.52 C 1404.61 1250.09 1408.31 1254.5 1405.86 1261.06 L 1404.72 1260.85 L 1403.33 1258.48 C 1403.21 1264.09 1404.25 1272.37 1401.09 1275.49 C 1399.98 1276.58 1398.98 1280.16 1398.5 1281.81 C 1392.84 1299.83 1357.63 1309.88 1363.03 1332.69 C 1363.45 1334.45 1353.62 1342.66 1354.83 1346.47 C 1353.61 1354.07 1353.74 1361.79 1353.09 1369.38 C 1352.94 1371.11 1349.56 1377.07 1348.93 1379.33 C 1343.82 1397.66 1335.57 1411.53 1320.69 1423.74 C 1311.98 1430.88 1305.08 1430.6 1294.25 1432.04 C 1275.9 1436.35 1277.01 1437.16 1259.04 1431.33 L 1259.06 1431.31 L 1259.47 1432.82 L 1262.65 1435.91 L 1261.62 1436.84 C 1252.21 1435.85 1257.44 1432.57 1249.86 1431.67 C 1234.82 1429.89 1221.72 1433.49 1207.18 1436.21 C 1202.42 1437.1 1202.73 1432.45 1198.31 1433.55 C 1192.95 1436.83 1174.4 1449.6 1169.28 1449.38 C 1126.16 1462.11 1087.98 1432.59 1067.5 1398 C 1064.11 1392.28 1058.79 1387.33 1054.58 1380.91 C 1051.25 1375.83 1046.6 1365.14 1041.61 1361.05 C 1035.65 1360.24 1021.41 1357.72 1015.86 1358.84 C 1012.7 1359.47 1000.94 1364.52 998.019 1365.82 C 994.714 1371.42 992.316 1382 989.065 1387.79 C 988.82 1388.23 982.563 1393.6 980.963 1395.27 C 974.488 1421.99 926.365 1452.15 899.246 1453.92 L 898.616 1452.69 L 900.365 1450.91 L 899.363 1450.55 C 885.927 1453.69 868.97 1446.43 858.322 1438.18 C 856.244 1436.58 848.212 1437.94 845.073 1437.1 C 839.326 1435.55 833.309 1431.57 827.464 1429.95 C 819.011 1430.86 797.993 1431.28 790.361 1434.07 C 788.874 1435.75 787.652 1435.5 785.098 1435.53 C 778.214 1435.6 771.097 1434.43 764.194 1434.09 C 749.628 1433.36 733.444 1429.06 722.26 1419.2 C 710.569 1408.9 704.488 1395.26 699.606 1380.84 C 698.159 1376.57 695.141 1371.26 695.14 1366.66 C 695.244 1364.71 696.495 1360.57 695.469 1358.52 C 687.953 1343.52 685.376 1332.09 683.281 1315.66 L 680.351 1315.04 C 672.116 1298.9 660.426 1304.58 653.583 1286.82 C 653.384 1286.62 653.185 1286.43 652.986 1286.23 C 651.868 1284.73 642.034 1264.97 643.221 1264.07 C 647.757 1260.63 641.645 1247.6 643.234 1241.28 C 643.257 1240.67 643.28 1240.07 643.302 1239.46 C 642.731 1231.75 651.374 1226.68 650.857 1218.57 C 650.782 1215.36 652.187 1211.71 654.357 1209.15 C 655.461 1209.15 656.566 1209.15 657.671 1209.15 C 657.686 1208.51 657.905 1202.8 657.999 1202.66 C 662.686 1195.82 693.593 1164.98 694.802 1160.54 L 692.154 1159.18 L 691.626 1157.01 C 692.972 1153.44 693.466 1152.01 695.782 1149.03 L 694.889 1148.72 L 692.122 1150.88 L 690.351 1150.24 C 688.312 1146.08 691.696 1143.5 690.993 1136.53 C 688.268 1133.37 678.453 1121.36 676.857 1118.36 C 674.113 1118.57 670.579 1118.94 667.849 1117.72 C 658.075 1114.29 649.314 1114.12 639.521 1110.69 C 629.618 1107.23 619.075 1106.3 609.714 1099.03 C 608.63 1098.19 602.098 1094.04 600.918 1093.81 C 596.427 1092.93 597.148 1091.12 593.809 1088.6 C 583.235 1081.81 576.535 1069.53 572.807 1057.59 C 569.646 1047.47 567.34 1028.79 572.558 1018.83 C 572.894 1018.26 573.23 1017.68 573.566 1017.1 C 569.276 1010.54 566.682 997.124 568.569 989.435 C 565.46 983.22 563.222 976.422 561.885 969.649 C 557.408 946.969 542.985 934.151 544.396 909.424 C 545.098 897.122 550.406 889.882 550.98 880.033 C 557.244 874.365 555.904 874.156 560.746 868.178 C 567.419 859.94 579.38 853.732 587.473 847.893 C 596.045 841.707 601.291 842.999 607.152 838.685 C 614.278 817.132 627.083 822.007 639.358 808.597 C 645.339 802.063 647.519 775.371 663.029 771.164 C 678.763 761.871 688.858 756.561 708.213 755.765 C 711.013 755.65 710.679 755.553 711.863 756.722 C 710.195 757.973 710.207 757.307 706.988 757.062 L 706.244 757.774 C 709.462 758.238 712.57 757.923 715.826 757.767 L 713.249 756.769 L 713.421 755.88 C 718.159 755.569 719.901 755.479 724.589 756.019 C 721.296 756.359 720.106 755.831 718.281 757.631 C 727.77 757.248 735.654 761.233 744.873 758.723 C 747.102 758.116 746.11 758.344 749.038 759.893 C 748.221 760.413 747.405 760.934 746.589 761.454 C 754.785 765.218 770.987 768.231 779.833 772.26 C 780.25 772.45 786.78 777.297 788.057 778.158 C 793.317 778.478 792.19 775.073 793.677 775.01 C 799.382 774.767 809.267 776.421 814.739 774.774 C 817.868 770.254 818.11 769.439 823.504 768.284 C 829.178 762.903 833.853 742.559 836.148 734.635 C 838.071 727.994 835.565 707.817 836.024 700.024 C 837.7 671.584 847.163 643.324 871.579 626.641 z"/>
<path transform="translate(0,0)" fill="url(#Gradient7)" d="M 1003.58 915.191 C 1003.65 898.358 1007.69 788.896 1024.64 784.755 C 1040.44 791.984 1043.92 898.449 1044.24 916.074 C 1048.16 904.8 1065.89 854.004 1081.38 859.786 C 1085.85 864.538 1085.6 869.617 1086.35 876.132 C 1086.3 876.603 1086.25 877.074 1086.2 877.545 C 1060.06 917.797 1033.78 957.8 1013.91 1001.94 C 1008.2 1014.62 998.301 1031.29 1006.52 1045.04 C 1012.21 1054.5 1028.1 1057.37 1037 1050.71 C 1054.64 1037.2 1062.23 987.293 1076.6 973.423 C 1091.63 962.858 1164.45 914.311 1179.67 930.718 C 1181.51 944.452 1144.43 970.931 1134.54 977.978 C 1156.63 972.403 1249.17 949.152 1266.22 958.91 C 1275.47 975.428 1157.79 1011.3 1144.37 1015.35 C 1161.55 1016.53 1208.3 1020.49 1210.33 1029.19 C 1216.41 1055.15 1097.61 1051.87 1081.6 1050.92 C 1088.06 1054.92 1098.61 1061.96 1104.95 1065.34 C 1089.82 1085.91 1080.12 1099.61 1055.36 1109.76 C 1052.5 1110.93 1037.05 1115.13 1034.61 1114.72 L 1033.84 1113.55 C 1035.25 1111.96 1036.39 1110.71 1037.65 1109.01 C 1034.32 1109.39 1032.94 1109.59 1029.7 1110.35 C 1027.96 1103.35 1026.06 1096.4 1024 1089.48 C 1022.15 1096.42 1019.79 1104.48 1018.35 1111.41 C 1005.09 1117.04 986.718 1106.81 976.066 1099.06 C 962.535 1089.22 954.372 1077.67 946.593 1063.18 L 966.274 1050.93 C 938.878 1052.47 854.833 1054.3 837.584 1033.67 C 836.27 1018.01 892.719 1016.16 904.012 1015.64 C 882.6 1008.63 787.22 978.751 780.528 961.527 C 780.956 960.051 780.81 959.326 782.197 958.423 C 797.693 948.343 892.697 972.989 912.979 977.615 C 902.224 969.836 866.189 944.646 869.62 930.287 C 871.458 928.55 873.249 927.078 875.975 927.37 C 914.369 931.482 958.472 962.627 986.638 985.186 C 976.213 962.002 950.372 878.982 966.592 859.27 C 981.457 853.286 999.364 903.53 1003.58 915.191 z"/>
<path transform="translate(0,0)" fill="rgb(244,119,140)" d="M 1301.39 679.446 C 1308.36 675.135 1336.66 654.785 1342.46 662.243 C 1342.51 664.067 1343 667.368 1341.32 668.546 C 1287.9 705.946 1237.89 747.435 1193.91 795.852 C 1189.71 800.476 1183.43 806.698 1180.76 812.325 C 1179.77 812.54 1178.78 812.754 1177.79 812.969 C 1161.25 832.214 1137 866.437 1123.46 886.392 C 1114.37 899.8 1076.16 965.103 1076.6 973.423 C 1062.23 987.293 1054.64 1037.2 1037 1050.71 C 1028.1 1057.37 1012.21 1054.5 1006.52 1045.04 C 998.301 1031.29 1008.2 1014.62 1013.91 1001.94 C 1033.78 957.8 1060.06 917.797 1086.2 877.545 C 1086.25 877.074 1086.3 876.603 1086.35 876.132 C 1090.45 874.928 1113.23 843.123 1118.52 836.951 C 1136 816.481 1154.48 796.891 1173.9 778.254 C 1179.48 772.908 1199.61 756.254 1202.52 752.116 C 1209.59 747.528 1229.99 730.668 1237.77 724.493 C 1260.25 706.646 1277.28 694.621 1301.39 679.446 z"/>
<path transform="translate(0,0)" fill="url(#Gradient6)" d="M 1299.37 677.167 C 1305.86 671.196 1311.71 669.16 1316.17 665.129 L 1315.94 664.215 C 1314.95 660.065 1314.94 658.997 1314.96 654.737 C 1294.56 641.31 1288.34 639.809 1302.68 616.098 C 1304.44 613.187 1310.26 611.378 1313.58 611.009 C 1340.81 612.128 1339.86 627.781 1335.29 645.035 L 1332.84 647.698 L 1335.11 649.227 C 1336.11 648.645 1337.11 648.062 1338.11 647.479 C 1338.5 647.79 1342.24 651.992 1340.77 651.736 C 1357.51 654.658 1350.59 668.875 1356.21 670.647 C 1372.31 675.724 1396.41 685.245 1378.92 707.37 C 1369.29 719.555 1359.67 718.424 1346.03 709.481 C 1345.38 710.037 1343.16 719.095 1342.48 721.167 C 1341.14 719.294 1341.46 719.884 1340.65 717.846 L 1340.37 719.576 L 1341.29 719.887 L 1340.27 721.038 C 1340.31 724.796 1340.82 725.5 1342.23 728.888 L 1341.61 730.656 C 1338.01 732.064 1333 733.32 1330.86 736.121 C 1330.2 740.691 1331.5 742.133 1334.4 746.036 C 1335.09 746.967 1335.78 747.891 1336.49 748.807 C 1336.8 748.761 1337.11 748.698 1337.42 748.668 C 1346.25 747.822 1384.06 770.473 1392.54 776.207 C 1389.53 776.487 1389.35 777.514 1386.02 776.578 C 1333.03 736.829 1265.81 775.291 1219.8 808.438 C 1193.16 827.631 1170.35 850.834 1147.02 873.821 C 1159.03 853.523 1170.91 833.816 1180.76 812.325 C 1183.43 806.698 1189.71 800.476 1193.91 795.852 C 1237.89 747.435 1287.9 705.946 1341.32 668.546 C 1343 667.368 1342.51 664.067 1342.46 662.243 C 1336.66 654.785 1308.36 675.135 1301.39 679.446 L 1299.37 677.167 z"/>
<path transform="translate(0,0)" fill="rgb(244,119,140)" d="M 1316.84 615.541 C 1326.28 615.266 1334.21 622.602 1334.66 632.039 C 1335.12 641.476 1327.93 649.539 1318.5 650.17 C 1312.25 650.59 1306.25 647.597 1302.82 642.343 C 1299.4 637.09 1299.07 630.395 1301.98 624.837 C 1304.89 619.279 1310.57 615.724 1316.84 615.541 z"/>
<path transform="translate(0,0)" fill="rgb(244,119,140)" d="M 1314.2 705.544 C 1323.43 704.469 1331.86 710.885 1333.28 720.067 C 1334.7 729.25 1328.61 737.913 1319.48 739.678 C 1313.27 740.881 1306.9 738.59 1302.87 733.707 C 1298.84 728.824 1297.81 722.13 1300.17 716.258 C 1302.53 710.386 1307.92 706.276 1314.2 705.544 z"/>
<path transform="translate(0,0)" fill="rgb(244,119,140)" d="M 1359.29 677.6 C 1368.58 676.053 1377.39 682.24 1379.08 691.499 C 1380.77 700.757 1374.73 709.663 1365.5 711.503 C 1359.39 712.72 1353.11 710.552 1349.05 705.833 C 1345 701.113 1343.8 694.574 1345.92 688.724 C 1348.05 682.874 1353.16 678.622 1359.29 677.6 z"/>
<path transform="translate(0,0)" fill="rgb(244,119,140)" d="M 946.593 1063.18 C 954.372 1077.67 962.535 1089.22 976.066 1099.06 C 986.718 1106.81 1005.09 1117.04 1018.35 1111.41 C 1012.31 1130.35 983.853 1205.33 962.858 1203.01 C 949.565 1194.26 965.253 1151.02 969.002 1138.25 C 962.533 1144.6 951.76 1158.51 945.553 1165.94 C 933.087 1180.99 919.869 1195.39 905.947 1209.11 C 900.551 1214.37 878.353 1238.08 871.842 1229.59 C 868.382 1208.02 923.512 1135.08 936.071 1115.3 C 924.614 1122.68 886.297 1148.9 874.312 1141.62 C 861.828 1122.66 932.499 1072.73 946.593 1063.18 z"/>
<path transform="translate(0,0)" fill="rgb(244,119,140)" d="M 1104.95 1065.34 C 1121.52 1076.51 1178.55 1117.6 1174.53 1139.08 C 1164.56 1151.46 1122.21 1121.64 1110.77 1114.6 C 1121.98 1129.62 1186.77 1217.62 1174.5 1231.47 C 1157.46 1235.01 1091.75 1152.4 1078.83 1137.64 C 1082.15 1149.01 1099.13 1196.45 1085.12 1203.55 C 1062.28 1201.95 1035.52 1128.83 1029.7 1110.35 C 1032.94 1109.59 1034.32 1109.39 1037.65 1109.01 C 1036.39 1110.71 1035.25 1111.96 1033.84 1113.55 L 1034.61 1114.72 C 1037.05 1115.13 1052.5 1110.93 1055.36 1109.76 C 1080.12 1099.61 1089.82 1085.91 1104.95 1065.34 z"/>
<path transform="translate(0,0)" fill="rgb(80,62,84)" d="M 871.579 626.641 C 873.686 624.326 877.097 623.975 880.36 622.15 C 893.44 614.831 909.818 618.385 923.846 615.383 C 926.747 614.736 932.135 603.939 939.662 600.223 C 946.08 597.055 953.942 595.759 957.461 590.187 C 963.749 580.232 980.917 569.243 990.799 562.745 C 989.058 561.197 989.525 561.831 986.611 561.257 C 989.841 558.826 997.181 560.432 999.701 559.562 C 1007.5 556.873 1019.74 552.484 1027.96 551.944 L 1028.75 552.59 L 1027.64 553.882 C 1030.52 556.687 1035.03 556.464 1038.09 553.937 C 1049 559.261 1065.37 566.17 1073.93 574.512 C 1082.81 583.16 1092.98 593.016 1102.4 601.315 C 1103.49 602.268 1107.73 603.065 1109.33 603.413 C 1110.6 604.738 1117.89 613.37 1118.11 613.423 C 1142.94 619.309 1163.64 613.648 1184.27 632.436 C 1201.9 648.494 1204.4 663.031 1212.6 684.451 C 1217.33 687.439 1219.06 684.385 1224.09 688.312 C 1233.65 695.779 1238.66 698.13 1250.58 695.089 C 1256.36 693.613 1265.86 693.178 1267.35 686.918 C 1263.62 682.972 1259.96 679.143 1256.41 674.921 C 1241.92 657.709 1261.4 641.872 1278.85 642.693 C 1290.18 643.227 1295.35 660.835 1293.77 669.927 C 1292.96 674.551 1286.42 680.368 1282.68 682.856 L 1282.86 683.663 C 1288.46 683.594 1293.3 678.616 1299.37 677.167 L 1301.39 679.446 C 1277.28 694.621 1260.25 706.646 1237.77 724.493 C 1229.99 730.668 1209.59 747.528 1202.52 752.116 C 1202.96 750.555 1203.38 748.985 1203.76 747.408 C 1214.63 703.218 1210.92 632.727 1152.16 621.704 C 1138.76 619.19 1124.61 622.535 1112.02 613.816 C 1086.62 596.237 1070.03 566.428 1037.78 559.551 C 983.265 548.98 967.701 596.12 931.519 616.126 C 913.813 625.917 899.93 613.911 870.499 632.511 L 871.579 626.641 z"/>
<path transform="translate(0,0)" fill="rgb(244,119,140)" d="M 1271.28 646.596 C 1280.68 645.523 1289.19 652.228 1290.34 661.618 C 1291.49 671.009 1284.86 679.574 1275.48 680.809 C 1265.99 682.059 1257.29 675.329 1256.12 665.823 C 1254.96 656.317 1261.76 647.682 1271.28 646.596 z"/>
<path transform="translate(0,0)" fill="url(#Gradient5)" d="M 663.029 771.164 C 678.763 761.871 688.858 756.561 708.213 755.765 C 711.013 755.65 710.679 755.553 711.863 756.722 C 710.195 757.973 710.207 757.307 706.988 757.062 L 706.244 757.774 C 709.462 758.238 712.57 757.923 715.826 757.767 L 713.249 756.769 L 713.421 755.88 C 718.159 755.569 719.901 755.479 724.589 756.019 C 721.296 756.359 720.106 755.831 718.281 757.631 C 727.77 757.248 735.654 761.233 744.873 758.723 C 747.102 758.116 746.11 758.344 749.038 759.893 C 748.221 760.413 747.405 760.934 746.589 761.454 C 754.785 765.218 770.987 768.231 779.833 772.26 C 780.25 772.45 786.78 777.297 788.057 778.158 C 793.317 778.478 792.19 775.073 793.677 775.01 C 799.382 774.767 809.267 776.421 814.739 774.774 C 817.868 770.254 818.11 769.439 823.504 768.284 C 829.178 762.903 833.853 742.559 836.148 734.635 C 838.071 727.994 835.565 707.817 836.024 700.024 C 837.7 671.584 847.163 643.324 871.579 626.641 L 870.499 632.511 C 799.839 692.652 865.229 811.061 901.246 873.913 C 893.845 866.494 886.302 858.98 878.861 851.616 C 832.856 806.087 736.216 730.75 670.278 770.817 L 663.029 771.164 z"/>
<path transform="translate(0,0)" fill="url(#Gradient4)" d="M 1468.65 1065.05 L 1472.18 1066.7 C 1454.16 1094.44 1438.85 1102.95 1406 1112.2 C 1395.75 1115.13 1370.82 1114.85 1364.86 1124.78 C 1361.15 1130.96 1357.15 1144.31 1352.78 1151.17 C 1350.6 1154.59 1354.88 1165.68 1359.65 1169.61 C 1382.15 1188.18 1401.33 1214.72 1404.08 1244.52 C 1404.61 1250.09 1408.31 1254.5 1405.86 1261.06 L 1404.72 1260.85 L 1403.33 1258.48 C 1403.21 1264.09 1404.25 1272.37 1401.09 1275.49 C 1399.98 1276.58 1398.98 1280.16 1398.5 1281.81 L 1395.1 1279.69 C 1427.15 1202.22 1320.78 1140.09 1263.53 1112.85 C 1250.98 1106.88 1238.08 1101.43 1225.77 1095.06 C 1293.74 1110.75 1426.03 1138.27 1468.65 1065.05 z"/>
<path transform="translate(0,0)" fill="url(#Gradient3)" d="M 1024.09 1230.08 C 1031.94 1304.94 1053.92 1434.2 1144.04 1448.09 C 1150.4 1452.14 1161.48 1446.63 1169.28 1449.38 C 1126.16 1462.11 1087.98 1432.59 1067.5 1398 C 1064.11 1392.28 1058.79 1387.33 1054.58 1380.91 C 1051.25 1375.83 1046.6 1365.14 1041.61 1361.05 C 1035.65 1360.24 1021.41 1357.72 1015.86 1358.84 C 1012.7 1359.47 1000.94 1364.52 998.019 1365.82 L 994.552 1362.9 C 1012.47 1314.38 1018.82 1282.01 1024.09 1230.08 z"/>
<path transform="translate(0,0)" fill="url(#Gradient2)" d="M 681.167 1113.04 C 736.368 1112.99 768.074 1108.03 822.436 1095.64 C 762.885 1122.69 677.067 1160.84 651.942 1226.21 C 645.085 1244.05 645.475 1262.79 653.645 1280.22 C 654.538 1282.11 655.488 1283.97 656.492 1285.79 L 653.583 1286.82 C 653.384 1286.62 653.185 1286.43 652.986 1286.23 C 651.868 1284.73 642.034 1264.97 643.221 1264.07 C 647.757 1260.63 641.645 1247.6 643.234 1241.28 C 643.257 1240.67 643.28 1240.07 643.302 1239.46 C 642.731 1231.75 651.374 1226.68 650.857 1218.57 C 650.782 1215.36 652.187 1211.71 654.357 1209.15 C 655.461 1209.15 656.566 1209.15 657.671 1209.15 C 657.686 1208.51 657.905 1202.8 657.999 1202.66 C 662.686 1195.82 693.593 1164.98 694.802 1160.54 L 692.154 1159.18 L 691.626 1157.01 C 692.972 1153.44 693.466 1152.01 695.782 1149.03 L 694.889 1148.72 L 692.122 1150.88 L 690.351 1150.24 C 688.312 1146.08 691.696 1143.5 690.993 1136.53 C 688.268 1133.37 678.453 1121.36 676.857 1118.36 L 678.26 1117.63 C 677.512 1116.2 677.735 1116.92 677.519 1115.47 L 681.167 1113.04 z"/>
<path transform="translate(0,0)" fill="rgb(80,62,84)" d="M 676.857 1118.36 C 674.113 1118.57 670.579 1118.94 667.849 1117.72 C 658.075 1114.29 649.314 1114.12 639.521 1110.69 C 629.618 1107.23 619.075 1106.3 609.714 1099.03 C 608.63 1098.19 602.098 1094.04 600.918 1093.81 C 596.427 1092.93 597.148 1091.12 593.809 1088.6 C 583.235 1081.81 576.535 1069.53 572.807 1057.59 C 569.646 1047.47 567.34 1028.79 572.558 1018.83 C 572.894 1018.26 573.23 1017.68 573.566 1017.1 C 569.276 1010.54 566.682 997.124 568.569 989.435 C 565.46 983.22 563.222 976.422 561.885 969.649 C 557.408 946.969 542.985 934.151 544.396 909.424 C 545.098 897.122 550.406 889.882 550.98 880.033 C 557.244 874.365 555.904 874.156 560.746 868.178 C 567.419 859.94 579.38 853.732 587.473 847.893 C 596.045 841.707 601.291 842.999 607.152 838.685 C 614.278 817.132 627.083 822.007 639.358 808.597 C 645.339 802.063 647.519 775.371 663.029 771.164 L 670.278 770.817 C 642.02 790.702 649.896 808.474 633.459 825.115 C 606.862 852.042 557.365 852.843 549.259 901.539 C 543.287 937.412 570.99 960.648 577.385 989.138 C 583.475 1016.27 561.272 1042.94 585.71 1074.92 C 602.881 1097.39 632.143 1107.08 659.091 1110.74 C 666.429 1111.69 673.79 1112.46 681.167 1113.04 L 677.519 1115.47 C 677.735 1116.92 677.512 1116.2 678.26 1117.63 L 676.857 1118.36 z"/>
<path transform="translate(0,0)" fill="rgb(80,62,84)" d="M 656.492 1285.79 C 668.08 1300.04 681.023 1304.22 689.068 1320.08 C 696.84 1335.4 697.647 1354.04 701.085 1370.87 C 707.684 1403.17 725.854 1426.54 760.238 1430.25 C 786.427 1433.08 807.613 1422.96 833.057 1424.46 C 849.788 1425.45 859.901 1435.6 873.399 1442.26 C 898.652 1454.73 928.512 1445.97 949.106 1428.57 C 970.695 1410.33 983.38 1388.4 994.552 1362.9 L 998.019 1365.82 C 994.714 1371.42 992.316 1382 989.065 1387.79 C 988.82 1388.23 982.563 1393.6 980.963 1395.27 C 974.488 1421.99 926.365 1452.15 899.246 1453.92 L 898.616 1452.69 L 900.365 1450.91 L 899.363 1450.55 C 885.927 1453.69 868.97 1446.43 858.322 1438.18 C 856.244 1436.58 848.212 1437.94 845.073 1437.1 C 839.326 1435.55 833.309 1431.57 827.464 1429.95 C 819.011 1430.86 797.993 1431.28 790.361 1434.07 C 788.874 1435.75 787.652 1435.5 785.098 1435.53 C 778.214 1435.6 771.097 1434.43 764.194 1434.09 C 749.628 1433.36 733.444 1429.06 722.26 1419.2 C 710.569 1408.9 704.488 1395.26 699.606 1380.84 C 698.159 1376.57 695.141 1371.26 695.14 1366.66 C 695.244 1364.71 696.495 1360.57 695.469 1358.52 C 687.953 1343.52 685.376 1332.09 683.281 1315.66 L 680.351 1315.04 C 672.116 1298.9 660.426 1304.58 653.583 1286.82 L 656.492 1285.79 z"/>
<path transform="translate(0,0)" fill="rgb(80,62,84)" d="M 1386.02 776.578 C 1389.35 777.514 1389.53 776.487 1392.54 776.207 C 1403.37 788.441 1404.9 804.205 1413.85 817.717 C 1415.62 820.405 1426.93 822.037 1431.42 826.571 C 1438.77 833.989 1445.92 832.179 1448.7 842.448 C 1458.41 848.281 1463.46 850.183 1474.31 857.417 L 1476.94 855.643 C 1480.29 859.763 1475.95 857.695 1477.94 860.394 C 1479.79 862.9 1487.57 868.123 1489.26 870.074 C 1500.32 882.809 1505.13 902.187 1503.4 918.454 C 1501.49 936.31 1494.74 947.125 1486.39 962.206 C 1486.08 962.768 1479.43 982.015 1479.38 982.416 C 1478.41 991.105 1479.56 1006 1474.81 1015.08 C 1481.78 1034.88 1480.23 1048.26 1472.18 1066.7 L 1468.65 1065.05 C 1483.87 1030.47 1465.57 1019.57 1470.13 993.036 C 1474.66 966.666 1499.78 943.436 1499.55 911.386 C 1499.17 855.622 1445.45 854.003 1414.79 825.173 C 1403.07 814.15 1403.92 795.289 1386.02 776.578 z"/>
<path transform="translate(0,0)" fill="rgb(80,62,84)" d="M 1144.04 1448.09 C 1186.69 1447.37 1182.22 1429.22 1213.97 1424.79 C 1243.82 1422.35 1270.65 1436.94 1300.75 1427.76 C 1354.09 1411.5 1342.63 1359.75 1359.36 1319.62 C 1364.99 1306.12 1385.04 1297.33 1395.1 1279.69 L 1398.5 1281.81 C 1392.84 1299.83 1357.63 1309.88 1363.03 1332.69 C 1363.45 1334.45 1353.62 1342.66 1354.83 1346.47 C 1353.61 1354.07 1353.74 1361.79 1353.09 1369.38 C 1352.94 1371.11 1349.56 1377.07 1348.93 1379.33 C 1343.82 1397.66 1335.57 1411.53 1320.69 1423.74 C 1311.98 1430.88 1305.08 1430.6 1294.25 1432.04 C 1275.9 1436.35 1277.01 1437.16 1259.04 1431.33 L 1259.06 1431.31 L 1259.47 1432.82 L 1262.65 1435.91 L 1261.62 1436.84 C 1252.21 1435.85 1257.44 1432.57 1249.86 1431.67 C 1234.82 1429.89 1221.72 1433.49 1207.18 1436.21 C 1202.42 1437.1 1202.73 1432.45 1198.31 1433.55 C 1192.95 1436.83 1174.4 1449.6 1169.28 1449.38 C 1161.48 1446.63 1150.4 1452.14 1144.04 1448.09 z"/>
<path transform="translate(0,0)" fill="rgb(59,62,77)" d="M 1228.41 1591.06 C 1237.43 1589.38 1254.5 1589.19 1261.95 1595.18 C 1262.41 1595.28 1263.8 1596.13 1264.29 1596.4 C 1265.17 1600.49 1268.66 1604.14 1269.94 1607.9 C 1272.9 1616.6 1274.79 1628.86 1270.85 1637.35 L 1271.21 1637.95 L 1274.28 1636.21 L 1274.84 1637.04 C 1272.97 1640 1272.32 1641.06 1271.47 1644.43 C 1270.83 1642.7 1271.4 1643.25 1270 1642.56 C 1266.91 1644.38 1267.74 1643.13 1266.46 1645.83 L 1269.32 1646.56 C 1258.51 1649.07 1247.55 1661.38 1236.53 1652.29 L 1238.02 1651.76 C 1235.68 1650.11 1235.18 1649.39 1232.36 1649.11 C 1232.08 1650.46 1232.43 1651.76 1232.62 1653.11 L 1231.62 1654.32 C 1221.18 1653.85 1209.44 1638.39 1209.93 1627.89 C 1210.57 1614.1 1213.92 1596.17 1228.41 1591.06 z"/>
<path transform="translate(0,0)" fill="rgb(254,255,255)" d="M 1242.28 1597.16 C 1246.32 1601.05 1245.96 1609.82 1251.9 1615.52 L 1268.43 1621.92 C 1261.53 1624.54 1256.07 1626.59 1249.48 1629.86 L 1242.02 1647.74 C 1239.78 1641.62 1237.29 1635.39 1234.94 1629.3 C 1229.17 1626.42 1222.2 1623.86 1216.13 1621.47 C 1223.22 1618.93 1228.15 1617.19 1234.86 1613.86 C 1237.51 1607.93 1238.95 1602.91 1242.28 1597.16 z"/>
<path transform="translate(0,0)" fill="rgb(49,58,81)" d="M 1228.41 1591.06 C 1237.43 1589.38 1254.5 1589.19 1261.95 1595.18 C 1255.69 1605.4 1262.43 1609.21 1256.6 1614.89 L 1251.9 1615.52 C 1245.96 1609.82 1246.32 1601.05 1242.28 1597.16 C 1236.05 1596.29 1229.49 1597.7 1226.26 1596.51 L 1225.75 1594.78 L 1228.41 1591.06 z"/>
<path transform="translate(0,0)" fill="rgb(59,62,77)" d="M 1161.32 444.371 C 1164.59 444.231 1164.37 443.835 1167.09 445.02 L 1162.51 446.461 L 1162.42 447.134 C 1172.42 447.207 1176.39 445.435 1186.67 445.985 L 1186.08 444.611 L 1185.6 444.262 L 1187.17 443.439 C 1204.19 446.147 1206.54 459.47 1206.82 473.903 C 1207.63 474.039 1208.44 474.176 1209.26 474.312 C 1209.76 479.706 1204.62 484.472 1203.16 489.335 C 1202.61 491.175 1206.56 494.042 1203.46 498.492 C 1202.67 496.622 1203.25 497.364 1201.83 496.188 C 1198.19 499.039 1196.8 500.228 1193.67 503.653 L 1192.93 504.475 C 1185.11 503.297 1186.88 503.373 1180.44 498.909 C 1178.95 500.723 1179.6 500.247 1177.28 501.046 L 1172.84 498.541 L 1172.12 499.559 L 1176.08 501.688 L 1175.09 502.55 C 1173.7 502.644 1157.87 500.98 1157.25 500.75 C 1152 495.807 1146.29 487.344 1145.38 480.099 L 1146.26 479.264 L 1148 481.948 L 1149.85 480.651 C 1151.42 474.084 1145.35 470.115 1148 465.239 L 1151.37 464.621 C 1154.4 461.041 1148.3 449.38 1161.32 444.371 z"/>
<path transform="translate(0,0)" fill="rgb(254,255,255)" d="M 1176.35 448.659 C 1178.59 450.922 1182.7 462.179 1184.17 465.853 L 1202.63 473.128 C 1197.29 475.591 1190.18 478.068 1184.56 480.187 C 1182.1 485.311 1179.5 491.949 1177.25 497.305 L 1176.27 497.373 C 1173.6 491.866 1171.48 486.291 1169.22 480.608 L 1151.71 473.151 C 1157.38 470.949 1163.55 468.151 1169.19 465.733 C 1171.3 461.678 1174.52 453.144 1176.35 448.659 z"/>
<path transform="translate(0,0)" fill="rgb(204,157,83)" d="M 491.003 1313.84 L 491.291 1313.04 C 487.393 1310.41 484.641 1310.42 480.095 1310.59 C 482.154 1311.96 486.6 1314.44 487.529 1316.24 C 482.483 1314.74 464.446 1305.19 469.138 1298.67 C 471.394 1301.61 475.196 1308.09 477.569 1308.79 C 470.533 1301.34 472.865 1289.55 468.372 1285.29 C 466.737 1286.36 469.392 1287.21 466.71 1292.77 C 464.117 1285.23 471.23 1267.35 478.084 1262.77 C 476.417 1269.68 471.536 1272.58 472.315 1277.31 C 473.916 1275.33 474.949 1273.87 476.385 1271.8 C 477.655 1274.38 476.633 1276.34 476.131 1279.85 L 478.047 1280.28 L 479.714 1279.04 L 478.256 1276.4 C 481.553 1272.53 487.693 1275.01 490.671 1267.17 C 485.622 1265.7 485.122 1268.69 479.744 1267.99 C 481.46 1265.49 482.505 1263.17 485.227 1262.21 C 487.812 1264.12 489.794 1263.95 492.484 1262.69 L 491.395 1261.15 C 488.446 1260.99 485.494 1260.9 482.541 1260.88 L 481.421 1259.61 C 496.837 1257.19 501.498 1257.84 515.824 1265.3 L 515.865 1266.28 C 511.393 1266.42 510.319 1266 505.864 1264.96 C 508.833 1268.08 511.434 1270.34 515.631 1270.49 L 517.506 1269.86 C 521.714 1274.73 519.908 1281.71 526.211 1286.76 C 531.971 1291.38 526.308 1297.82 526.279 1298.27 C 524.904 1319.42 505.309 1309.5 501.781 1313.32 L 502.44 1314.89 L 506.92 1316.53 L 506.324 1317.36 L 507.101 1316.81 L 505.274 1315.9 L 504.605 1317.82 L 500.147 1318.75 C 496.209 1315.16 494.116 1316.47 491.003 1313.84 z"/>
<path transform="translate(0,0)" fill="rgb(59,62,77)" d="M 491.003 1313.84 L 491.291 1313.04 C 487.393 1310.41 484.641 1310.42 480.095 1310.59 C 482.154 1311.96 486.6 1314.44 487.529 1316.24 C 482.483 1314.74 464.446 1305.19 469.138 1298.67 C 471.394 1301.61 475.196 1308.09 477.569 1308.79 C 470.533 1301.34 472.865 1289.55 468.372 1285.29 C 466.737 1286.36 469.392 1287.21 466.71 1292.77 C 464.117 1285.23 471.23 1267.35 478.084 1262.77 C 476.417 1269.68 471.536 1272.58 472.315 1277.31 C 473.916 1275.33 474.949 1273.87 476.385 1271.8 C 477.655 1274.38 476.633 1276.34 476.131 1279.85 L 478.047 1280.28 L 479.714 1279.04 L 478.256 1276.4 C 481.553 1272.53 487.693 1275.01 490.671 1267.17 C 485.622 1265.7 485.122 1268.69 479.744 1267.99 C 481.46 1265.49 482.505 1263.17 485.227 1262.21 C 487.812 1264.12 489.794 1263.95 492.484 1262.69 L 491.395 1261.15 C 488.446 1260.99 485.494 1260.9 482.541 1260.88 L 481.421 1259.61 C 496.837 1257.19 501.498 1257.84 515.824 1265.3 L 515.865 1266.28 C 511.393 1266.42 510.319 1266 505.864 1264.96 C 501.222 1264.28 503.01 1264.25 498.383 1266.08 L 497.094 1263.78 C 493.616 1265.72 491.889 1277.85 488.882 1280.14 C 485.549 1282.68 474.991 1284.33 473.042 1287.9 C 475.076 1289.21 474.479 1288.95 476.774 1289.77 C 488.277 1293.81 489.938 1293.94 493.9 1306.02 L 495.046 1311.14 L 491.003 1313.84 z"/>
<path transform="translate(0,0)" fill="rgb(73,64,60)" d="M 476.774 1289.77 C 488.277 1293.81 489.938 1293.94 493.9 1306.02 C 479.779 1302.93 481.279 1302.64 476.774 1289.77 z"/>
<path transform="translate(0,0)" fill="rgb(59,62,77)" d="M 515.631 1270.49 L 517.506 1269.86 C 521.714 1274.73 519.908 1281.71 526.211 1286.76 C 531.971 1291.38 526.308 1297.82 526.279 1298.27 C 524.904 1319.42 505.309 1309.5 501.781 1313.32 L 502.44 1314.89 L 506.92 1316.53 L 506.324 1317.36 L 507.101 1316.81 L 505.274 1315.9 L 504.605 1317.82 L 500.147 1318.75 C 496.209 1315.16 494.116 1316.47 491.003 1313.84 L 495.046 1311.14 L 496.371 1312.52 L 497.589 1311.25 C 503.466 1294.28 503.98 1294.32 520.954 1288.3 L 521.427 1287.83 L 520.752 1286.91 C 519.362 1283.61 517.429 1275.41 515.631 1270.49 z"/>
<path transform="translate(0,0)" fill="rgb(73,64,60)" d="M 497.589 1311.25 C 503.466 1294.28 503.98 1294.32 520.954 1288.3 L 520.117 1290.14 C 518.433 1293.89 516.316 1304.18 512.048 1305.64 C 506.278 1307.61 502.712 1306.88 497.589 1311.25 z"/>
<path transform="translate(0,0)" fill="rgb(73,64,60)" d="M 498.383 1266.08 C 503.01 1264.25 501.222 1264.28 505.864 1264.96 C 508.833 1268.08 511.434 1270.34 515.631 1270.49 C 517.429 1275.41 519.362 1283.61 520.752 1286.91 C 504.593 1280.39 503.941 1282.58 498.383 1266.08 z"/>
<path transform="translate(0,0)" fill="rgb(59,62,77)" d="M 1613.28 1354.68 C 1609.85 1353.11 1602.69 1349.48 1599.37 1350.34 C 1599.4 1351.94 1599.43 1352.35 1598.94 1353.9 L 1597.45 1353.21 L 1596.18 1349.65 C 1593.56 1349.34 1594.89 1349.3 1592.09 1350.82 C 1587.54 1343.47 1594.16 1318.75 1602.19 1315.14 L 1603.09 1315.82 L 1603.4 1319.78 L 1604.44 1319.29 C 1604.83 1315.74 1606.49 1309.96 1611.29 1310.66 L 1608.46 1314.43 L 1609.14 1315.35 C 1612.27 1315.12 1612.47 1315.31 1615.26 1314.05 C 1617.8 1310.94 1616.19 1311.89 1620.41 1311.37 C 1626.44 1314.11 1625 1319.94 1629.28 1321.74 C 1631.24 1322.56 1637.63 1318.82 1639.5 1323.65 L 1638.31 1326.1 C 1640.91 1328.86 1641.15 1326.78 1641.62 1327.78 C 1643.12 1330.95 1641.64 1330.92 1645.89 1331.41 C 1645.98 1327.92 1641.89 1319.67 1639.04 1317.59 C 1636.4 1317.61 1635.53 1317.68 1632.92 1318.07 C 1630.37 1316.48 1631.06 1317.54 1629.95 1315.25 C 1632.43 1314.77 1640.34 1314.82 1641.87 1316.16 C 1649.56 1322.86 1651.25 1338.31 1650.18 1347.67 C 1649.71 1344.21 1650.23 1342.97 1648.26 1341.19 C 1645.43 1349.78 1648.6 1345.46 1642.63 1352.22 L 1647.83 1351.05 C 1645.93 1354.71 1639.93 1362.45 1637.18 1366.17 L 1635.67 1365.92 C 1627.62 1364.64 1624.31 1365.43 1616.44 1368.4 L 1615.21 1367.97 L 1615.81 1366.49 C 1609.76 1364.92 1599.31 1362.94 1595.11 1358.93 C 1594.82 1356.99 1594.6 1356.11 1593.67 1354.38 C 1596.53 1355.79 1599.42 1358.11 1602.05 1360.03 L 1602.46 1358.79 L 1600.06 1356.52 C 1599.95 1355.08 1600.25 1353.94 1600.47 1352.46 C 1602.71 1350.53 1604.95 1354.22 1607.42 1354.94 C 1607.42 1354.94 1612.86 1354.7 1613.28 1354.68 z"/>
<path transform="translate(0,0)" fill="rgb(204,157,83)" d="M 1619.25 1312.32 C 1621.39 1318.34 1624 1326.6 1627.11 1332.01 C 1633.47 1334.32 1639.87 1336.56 1646.29 1338.71 C 1640.54 1340.77 1631.61 1343.67 1626.49 1346.39 C 1623.73 1352.84 1621.73 1358.27 1619.42 1364.91 C 1618.74 1363.64 1616.9 1358.75 1616.27 1357.17 C 1612.28 1342.95 1606.11 1343.36 1593.05 1338.76 C 1598.61 1336.79 1606.65 1334.19 1611.79 1331.74 C 1615.1 1324.7 1616.76 1319.74 1619.25 1312.32 z"/>
<path transform="translate(0,0)" fill="rgb(59,62,77)" d="M 1615.81 1366.49 C 1609.76 1364.92 1599.31 1362.94 1595.11 1358.93 C 1594.82 1356.99 1594.6 1356.11 1593.67 1354.38 C 1596.53 1355.79 1599.42 1358.11 1602.05 1360.03 L 1602.46 1358.79 L 1600.06 1356.52 C 1599.95 1355.08 1600.25 1353.94 1600.47 1352.46 C 1602.71 1350.53 1604.95 1354.22 1607.42 1354.94 C 1607.42 1354.94 1612.86 1354.7 1613.28 1354.68 L 1616.27 1357.17 C 1616.9 1358.75 1618.74 1363.64 1619.42 1364.91 L 1615.81 1366.49 z"/>
<path transform="translate(0,0)" fill="rgb(73,64,60)" d="M 504.439 578.53 C 514.961 578.303 519.279 566.164 528.765 569.726 L 527.964 573.435 C 526.674 573.714 527.404 573.745 525.859 572.818 L 525.406 574.176 C 530.128 575.291 532.168 573.747 537.018 575.943 L 537.946 577.7 C 535.677 579.478 535.443 579.345 532.634 580.234 C 534.344 582.267 536.943 585.205 538.127 587.547 C 541.324 593.87 552.12 594.991 550.169 603.707 C 549.185 608.106 546.427 611.589 545.134 615.785 L 543.445 616.259 L 542.447 615.017 C 543.979 611.535 547.673 605.951 547.662 603.413 C 545.16 601.657 546.586 602.19 543.002 602.619 C 539.711 608.142 544.102 604.625 540.651 609.249 C 539.668 612.054 539.701 614.508 539.499 617.473 C 541.368 617.294 541.559 617.293 543.364 617.33 C 541.438 624.188 529.946 628.473 523.522 629.286 C 518.097 626.17 518.255 626.262 511.965 625.77 L 511.122 624.351 L 515.503 623.348 C 505.645 623.549 499.801 625.04 492.996 616.128 C 489.198 611.154 488.26 605.006 489.305 598.887 C 491.737 584.657 492.46 584.834 503.408 576.996 L 504.439 578.53 z"/>
<path transform="translate(0,0)" fill="rgb(204,157,83)" d="M 512.357 590.288 C 514.98 584.363 517.481 578.386 519.86 572.359 C 522.237 578.28 524.625 584.496 527.122 590.339 C 533.224 592.977 539.105 595.61 545.39 597.794 L 527.097 605.209 C 525.092 610.14 522.443 617.301 520.253 621.948 L 519.684 622.55 L 518.53 621.079 C 503.348 614.739 502.214 614.531 496.652 598.744 L 495.466 597.751 C 501.339 594.789 506.74 592.944 512.357 590.288 z"/>
<path transform="translate(0,0)" fill="rgb(73,64,60)" d="M 496.652 598.744 C 501.897 600.824 507.112 602.982 512.294 605.216 L 518.53 621.079 C 503.348 614.739 502.214 614.531 496.652 598.744 z"/>
<path transform="translate(0,0)" fill="rgb(59,62,77)" d="M 540.651 609.249 C 539.668 612.054 539.701 614.508 539.499 617.473 C 541.368 617.294 541.559 617.293 543.364 617.33 C 541.438 624.188 529.946 628.473 523.522 629.286 C 518.097 626.17 518.255 626.262 511.965 625.77 L 511.122 624.351 L 515.503 623.348 C 505.645 623.549 499.801 625.04 492.996 616.128 C 489.198 611.154 488.26 605.006 489.305 598.887 C 491.737 584.657 492.46 584.834 503.408 576.996 L 504.439 578.53 C 498.079 587.944 495.02 581.908 495.466 597.751 L 496.652 598.744 C 502.214 614.531 503.348 614.739 518.53 621.079 L 519.684 622.55 L 520.253 621.948 C 530.185 617.22 534.254 618.481 540.651 609.249 z"/>
<path transform="translate(0,0)" fill="rgb(73,64,60)" d="M 1600 724.387 C 1606.77 723.178 1607.62 725.034 1610.03 730.012 C 1613 729.364 1611.6 729.262 1614.37 730.157 L 1615.69 732.764 L 1614.84 733.373 L 1610.77 732.008 L 1610.56 733.898 C 1616.97 751.413 1622.13 740.749 1630.05 748.317 C 1632.02 753.446 1633.18 761.981 1627.88 765.525 L 1626.67 765.045 C 1627.7 762.137 1629.2 759.123 1628.72 756.238 C 1625.05 759.381 1627.03 756.332 1623.64 759.399 C 1623.62 762.149 1623.76 763.197 1623.05 765.867 C 1619.03 768.266 1616.23 770.081 1611.84 771.927 L 1610.64 772.424 C 1612.52 779.438 1609.8 772.379 1608.56 778.007 C 1611.67 778.037 1612.96 777.78 1615.95 777.296 L 1615.49 778.505 C 1612.12 779.876 1612.34 779.741 1608.68 779.425 C 1602.99 781.589 1590.28 778.913 1587.61 773.927 C 1589.52 772.034 1592.31 772.433 1595.75 772.039 C 1593.55 770.893 1589.7 770.413 1589.99 770.628 C 1584.86 766.817 1584.62 759.178 1578.23 757.029 C 1575.79 761.515 1578.49 761.586 1576.74 766.41 C 1574.18 760.205 1574.44 754.753 1574.94 748.102 C 1578.2 743.439 1581.34 739.451 1585.73 735.72 C 1588.35 733.486 1589.19 734.427 1593.26 734.939 L 1594.35 733.927 L 1589.95 732.693 L 1590.2 731.493 L 1592.02 730.528 L 1595 731.633 C 1600.4 727.598 1592.49 730.448 1600.55 725.664 L 1600 724.387 z"/>
<path transform="translate(0,0)" fill="rgb(204,157,83)" d="M 1602.69 727.677 C 1604.77 729.933 1609.11 741.098 1610.81 744.885 C 1616.37 747.478 1622.68 749.915 1628.41 752.253 C 1622.55 754.818 1616.66 757.286 1610.72 759.658 C 1608.01 764.917 1605.95 770.935 1603.84 776.508 L 1602.6 776.477 C 1600.25 770.931 1597.97 765.361 1595.75 759.766 C 1590.39 757.243 1583.69 754.611 1578.15 752.262 C 1584.37 749.817 1590.82 747.61 1596.43 744.013 L 1602.69 727.677 z"/>
<path transform="translate(0,0)" fill="rgb(29,38,62)" d="M 1558.6 1113.48 C 1585.13 1106.21 1598.14 1149.82 1563.8 1156.79 C 1554.15 1155.6 1547.83 1149.45 1543.38 1141.11 C 1543.75 1136.08 1545.77 1139.79 1548.23 1133.92 C 1546.37 1128.98 1545.47 1125.6 1546.95 1120.46 C 1550.13 1116.87 1552.48 1114.35 1557.54 1114.42 L 1558.6 1113.48 z"/>
<path transform="translate(0,0)" fill="rgb(254,255,255)" d="M 1564.08 1119.97 C 1566.94 1119.35 1569.32 1118.93 1572.1 1120.54 C 1574.56 1121.97 1576.36 1124.32 1577.12 1127.06 C 1577.57 1128.69 1577.62 1132.06 1577.63 1133.82 L 1576.27 1135.28 C 1579.68 1143.27 1571.67 1148.87 1565.1 1146.69 L 1563.44 1146.74 C 1555.4 1149.4 1548.94 1142.58 1551.62 1133.96 L 1551.93 1133.23 C 1550.28 1123.62 1555.92 1120.78 1564.08 1119.97 z"/>
<path transform="translate(0,0)" fill="rgb(59,62,77)" d="M 1564.08 1119.97 C 1566.94 1119.35 1569.32 1118.93 1572.1 1120.54 C 1574.56 1121.97 1576.36 1124.32 1577.12 1127.06 C 1577.57 1128.69 1577.62 1132.06 1577.63 1133.82 C 1567.72 1130.95 1567.79 1129 1564.08 1119.97 z"/>
<path transform="translate(0,0)" fill="rgb(59,62,77)" d="M 1563.44 1146.74 C 1555.4 1149.4 1548.94 1142.58 1551.62 1133.96 L 1552.81 1134.77 C 1559.61 1139.34 1561.09 1136.82 1563.44 1146.74 z"/>
<path transform="translate(0,0)" fill="rgb(59,62,77)" d="M 1551.93 1133.23 C 1550.28 1123.62 1555.92 1120.78 1564.08 1119.97 C 1561.63 1128.56 1561.15 1131.33 1551.93 1133.23 z"/>
<path transform="translate(0,0)" fill="rgb(59,62,77)" d="M 1576.27 1135.28 C 1579.68 1143.27 1571.67 1148.87 1565.1 1146.69 C 1567.58 1138.97 1568.11 1137.69 1576.27 1135.28 z"/>
<path transform="translate(0,0)" fill="rgb(49,58,81)" d="M 769.636 433.222 L 769.176 431.55 C 768.693 429.742 768.559 429.216 768.31 427.453 L 771.039 427.809 C 771.89 430.31 771.932 430.912 773.951 432.624 L 775.513 432.583 C 777.369 432.549 778.572 432.593 780.401 432.702 L 781.995 434.305 L 781.396 438.04 C 782.884 440.064 783.483 440.774 785.227 442.583 C 785.707 445.483 784.505 447.688 783.471 450.529 L 784.601 450.246 L 786.74 446.662 L 787.814 447.189 C 789.203 452.153 786.51 459.55 782.924 463.077 C 777.361 464.438 774.496 463.453 772.183 468.023 C 771.6 469.176 770.612 469.56 769.467 470.198 C 766.283 470.332 761.927 470.767 758.932 470.213 C 760.45 469.672 765.524 468.027 766.501 467.238 L 765.405 466.544 L 759.422 468.418 C 749.103 462.466 735.113 446.8 747.645 436.307 L 748.541 438.448 C 751.191 436.555 752.697 436.448 755.692 435.342 L 756.6 433.545 L 754.257 432.654 C 762.618 428.485 761.465 431.999 769.636 433.222 z"/>
<path transform="translate(0,0)" fill="rgb(29,38,62)" d="M 769.636 433.222 L 769.176 431.55 C 768.693 429.742 768.559 429.216 768.31 427.453 L 771.039 427.809 C 771.89 430.31 771.932 430.912 773.951 432.624 L 775.513 432.583 C 777.369 432.549 778.572 432.593 780.401 432.702 L 781.995 434.305 L 781.396 438.04 C 782.884 440.064 783.483 440.774 785.227 442.583 C 785.707 445.483 784.505 447.688 783.471 450.529 L 784.601 450.246 L 786.74 446.662 L 787.814 447.189 C 789.203 452.153 786.51 459.55 782.924 463.077 C 777.361 464.438 774.496 463.453 772.183 468.023 C 771.6 469.176 770.612 469.56 769.467 470.198 C 766.283 470.332 761.927 470.767 758.932 470.213 C 760.45 469.672 765.524 468.027 766.501 467.238 L 765.405 466.544 L 759.422 468.418 C 749.103 462.466 735.113 446.8 747.645 436.307 L 748.541 438.448 C 751.191 436.555 752.697 436.448 755.692 435.342 C 749.165 442.778 749.836 443.796 749.024 453.688 C 754.506 462.905 762.274 469.65 773.075 463.324 C 777.257 460.855 780.286 456.825 781.495 452.122 C 783.947 442.446 779.066 435.506 769.636 433.222 z"/>
<path transform="translate(0,0)" fill="rgb(254,255,255)" d="M 760.967 452.815 L 753.566 449.657 C 754.34 447.882 756.349 447.216 758.251 446.728 C 763.662 445.34 761.692 439.291 765.412 437.284 C 773.012 437.515 779.226 439.458 777.595 448.693 C 776.637 450.632 771.979 451.943 769.408 453.009 L 765.276 463.293 C 764.009 459.777 762.44 456.263 760.967 452.815 z"/>
<path transform="translate(0,0)" fill="rgb(59,62,77)" d="M 765.412 437.284 C 773.012 437.515 779.226 439.458 777.595 448.693 C 768.667 446.045 769.165 445.316 765.412 437.284 z"/>
<path transform="translate(0,0)" fill="rgb(29,38,62)" d="M 755.25 1634.97 C 760.654 1636.41 768.35 1633.43 773.885 1636.48 C 784.247 1642.2 789.41 1652.35 782.729 1663.21 C 780.34 1663.63 780.372 1663.84 778.252 1665.08 L 779.292 1663.63 L 777.118 1664.74 C 775.916 1668.04 776 1667.86 773.755 1670.57 C 769.774 1671.84 768.49 1671.36 764.145 1670.84 L 762.664 1670.66 L 764.843 1673.29 L 764.545 1674.38 C 751.162 1675.63 740.729 1664.88 742.747 1651.33 C 743.66 1645.21 750.578 1638.66 755.25 1634.97 z"/>
<path transform="translate(0,0)" fill="rgb(254,255,255)" d="M 764.123 1640.24 C 772.981 1638.96 780.734 1644.34 776.79 1653.9 L 776.992 1654.78 C 776.162 1661.51 773.466 1669.68 764.638 1666.8 L 763.367 1666.59 C 755.195 1669.54 746.68 1663.4 750.316 1654.76 L 751.974 1653.05 C 752.406 1648.22 752.499 1646.57 755.918 1642.99 C 759.269 1641.57 759.161 1641.38 762.879 1642.15 L 764.123 1640.24 z"/>
<path transform="translate(0,0)" fill="rgb(49,58,81)" d="M 764.123 1640.24 C 772.981 1638.96 780.734 1644.34 776.79 1653.9 C 767.119 1649.97 767.499 1650.02 764.123 1640.24 z"/>
<path transform="translate(0,0)" fill="rgb(49,58,81)" d="M 750.316 1654.76 C 759.833 1657.56 759.635 1657.99 763.367 1666.59 C 755.195 1669.54 746.68 1663.4 750.316 1654.76 z"/>
<path transform="translate(0,0)" fill="rgb(59,62,77)" d="M 764.638 1666.8 C 764.742 1666.49 764.845 1666.19 764.949 1665.89 L 765.493 1664.42 C 768.243 1656.87 769.628 1657.36 776.992 1654.78 C 776.162 1661.51 773.466 1669.68 764.638 1666.8 z"/>
<path transform="translate(0,0)" fill="rgb(59,62,77)" d="M 751.974 1653.05 C 752.406 1648.22 752.499 1646.57 755.918 1642.99 C 759.269 1641.57 759.161 1641.38 762.879 1642.15 C 760.217 1650.12 759.928 1650.61 751.974 1653.05 z"/>
<path transform="translate(0,0)" fill="rgb(59,62,77)" d="M 390.741 944.545 C 388.845 940.394 388.801 923.486 392.864 921.086 C 393.368 924.224 392.629 923.015 395.003 924.921 C 398.093 924.458 396.92 925.175 398.783 922.955 L 397.293 920.142 C 398.008 920.027 406.024 921.348 407.647 921.636 L 409.163 923.833 C 421.555 922.508 421.462 925.624 427.461 935.41 L 427.532 947.423 C 424.496 950.738 421.999 953.475 419.242 957.059 C 412.487 958.284 405.88 960.361 399.479 956.265 C 393.546 952.469 393.888 948.935 390.741 944.545 z"/>
<path transform="translate(0,0)" fill="url(#Gradient1)" d="M 390.741 944.545 C 388.845 940.394 388.801 923.486 392.864 921.086 C 393.368 924.224 392.629 923.015 395.003 924.921 C 398.093 924.458 396.92 925.175 398.783 922.955 L 397.293 920.142 C 398.008 920.027 406.024 921.348 407.647 921.636 L 409.163 923.833 L 408.874 925.957 C 407.612 929.333 406.335 932.966 404.984 936.282 C 402.865 937.151 397.11 939.346 395.397 940.335 C 393.713 941.974 392.644 943.136 390.741 944.545 z"/>
<path transform="translate(0,0)" fill="rgb(254,255,255)" d="M 408.874 925.957 L 409.336 927.354 C 410.19 929.861 410.841 932.31 412.54 934.378 C 414.801 937.13 419.913 938.421 419.812 941.204 C 417.288 942.469 415.726 943.176 413.107 944.223 L 410.165 950.859 L 408.684 951.408 C 402.166 943.33 404.714 944.675 395.397 940.335 C 397.11 939.346 402.865 937.151 404.984 936.282 C 406.335 932.966 407.612 929.333 408.874 925.957 z"/>
<path transform="translate(0,0)" fill="rgb(244,119,140)" d="M 1366.08 625.511 C 1372.12 623.721 1378.66 625.326 1383.19 629.71 C 1387.72 634.095 1389.53 640.58 1387.94 646.679 C 1386.35 652.779 1381.59 657.547 1375.5 659.156 C 1366.27 661.592 1356.79 656.168 1354.21 646.974 C 1351.64 637.78 1356.92 628.222 1366.08 625.511 z"/>
<path transform="translate(0,0)" fill="rgb(254,255,255)" d="M 1711.23 924.635 C 1715.55 931.141 1713.06 929.964 1719.97 936.211 L 1721.36 937.457 C 1715.36 939.163 1713.52 944.019 1711.77 949.364 C 1709.37 943.093 1708.12 942.128 1703.56 937.556 L 1701.94 937.217 L 1702.34 936.477 L 1701.46 936.936 L 1701.11 936.123 L 1704.05 936.439 C 1708 932.985 1709.64 929.496 1711.23 924.635 z"/>
<path transform="translate(0,0)" fill="rgb(254,255,255)" d="M 333.101 1134.57 C 337.337 1140.38 336.161 1140.31 342.253 1146.12 L 341.874 1146.88 C 336.347 1149.87 335.707 1151.55 333.853 1157.4 C 331.769 1154.89 332.107 1151.83 328.614 1149.67 C 327.143 1148.76 325.73 1147 325.035 1145.37 C 330.598 1141.2 330.993 1141.28 333.101 1134.57 z"/>
<path transform="translate(0,0)" fill="rgb(204,157,83)" d="M 941.081 344.623 C 943.527 350.221 945.191 352.847 950.291 356.316 C 946.168 356.595 943.201 363.05 941.926 366.45 C 939.609 364.199 939.953 361.674 936.484 359.622 C 929.738 355.631 938.314 353.661 941.081 344.623 z"/>
<path transform="translate(0,0)" fill="rgb(198,157,97)" d="M 1016.13 1540.64 C 1016.8 1541.59 1016.97 1541.65 1017.27 1542.68 C 1018.51 1547 1021.42 1548.54 1024.57 1552.4 C 1018.86 1556.45 1018.7 1556.62 1016.66 1563.28 C 1012.84 1558.75 1016.48 1558.51 1008.86 1552.41 L 1007.56 1551.39 C 1012.84 1551.35 1014.97 1544.8 1016.13 1540.64 z"/>
<path transform="translate(0,0)" fill="rgb(204,157,83)" d="M 713.51 631.779 C 714.544 633.176 715.35 636.235 716.039 636.94 C 718.253 639.208 719.626 640.448 721.734 642.968 C 716.428 647.42 716.306 646.841 714.022 653.489 C 712.07 648.79 709.355 644.724 704.665 642.421 L 706.13 642.472 C 710.348 640.065 711.991 636.132 713.51 631.779 z"/>
<path transform="translate(0,0)" fill="rgb(198,157,97)" d="M 1447.41 1460.74 C 1448.35 1461.77 1448.57 1461.8 1448.67 1462.8 C 1449.14 1467.86 1455.06 1470.42 1455.86 1472.3 C 1450.66 1474.18 1449.73 1477.39 1448.17 1482.23 C 1445.48 1479.44 1449.22 1483.52 1447.13 1480.68 C 1435.13 1464.37 1441.83 1477.01 1447.41 1460.74 z"/>
</svg>