<svg version="1.1" xmlns="http://www.w3.org/2000/svg" style="display: block;" viewBox="0 0 2048 2048" width="1024" height="1024" preserveAspectRatio="none">
<defs>
	<linearGradient id="Gradient1" gradientUnits="userSpaceOnUse" x1="1024.96" y1="562.427" x2="1026.82" y2="732.416">
		<stop class="stop0" offset="0" stop-opacity="1" stop-color="rgb(125,88,51)"/>
		<stop class="stop1" offset="1" stop-opacity="1" stop-color="rgb(188,130,57)"/>
	</linearGradient>
</defs>
<path transform="translate(0,0)" fill="rgb(7,21,46)" d="M 0 0 L 2048 0 L 2048 2048 L 0 2048 L 0 0 z"/>
<path transform="translate(0,0)" fill="rgb(228,180,97)" d="M 1011.1 233.786 C 1447.35 226.56 1806.88 574.321 1814.16 1010.57 C 1821.45 1446.82 1473.74 1806.4 1037.49 1813.75 C 601.154 1821.1 241.489 1473.31 234.199 1036.97 C 226.91 600.628 574.757 241.012 1011.1 233.786 z"/>
<path transform="translate(0,0)" fill="rgb(59,55,47)" d="M 993.868 258.992 C 1416.46 242.268 1772.53 571.428 1789 994.031 C 1805.47 1416.63 1476.09 1772.5 1053.48 1788.71 C 631.227 1804.91 275.728 1475.88 259.275 1053.64 C 242.821 631.4 571.637 275.702 993.868 258.992 z"/>
<path transform="translate(0,0)" fill="rgb(228,180,97)" d="M 633.904 599.84 C 651.221 560.514 670.531 558.085 708.361 567.796 C 710.095 568.241 711.695 571.136 713.609 571.507 C 718.721 572.83 723.953 573.369 729.133 574.343 C 741.351 576.502 753.089 579.17 764.748 583.31 C 777.795 587.944 785.187 594.83 796.5 601.525 C 801.896 604.719 813.082 607.617 820.039 611.189 C 856.022 629.661 895.016 654.731 936.942 652.824 C 956.593 651.931 979.241 646.862 998.594 646.42 C 1024.91 646.018 1051.23 646.479 1077.51 647.802 C 1093.09 648.635 1114.91 650.661 1130.31 649.689 C 1139.5 649.109 1163.04 642.034 1171.98 638.921 C 1181.55 635.593 1196.92 626.173 1206.59 621.176 C 1233.4 607.339 1260.66 592.411 1287.97 579.75 C 1293.9 577.002 1312.03 575.727 1319.29 573.531 C 1328.23 570.829 1342.3 560.553 1350.4 564.428 C 1354.16 566.227 1362.5 563.704 1367.26 563.032 C 1387.52 560.178 1402.28 575.465 1410.95 591.9 C 1411.77 593.449 1415.51 601.65 1415.69 602.72 C 1425.96 609.197 1430.1 627.686 1434.53 637.685 C 1445.9 663.316 1457.53 679.284 1459.56 707.681 C 1460.18 716.225 1464.78 734.371 1466.38 744.09 C 1473.24 785.975 1470.6 829.293 1469.35 871.61 C 1468.89 889.283 1465.01 912.967 1466.82 929.514 C 1475.8 1011.39 1513.86 1093.9 1495.83 1177.21 C 1490.93 1199.82 1488.01 1211.4 1475.65 1230.85 C 1460.94 1254.02 1451.01 1271.57 1427.73 1288.15 C 1419.94 1293.7 1412.7 1301.38 1403.99 1306.08 C 1380.45 1319.96 1354.26 1328.03 1329.95 1340.39 C 1309.85 1349.9 1291.81 1355.98 1272.44 1367.8 C 1232.26 1391.47 1193.28 1414.94 1155.84 1442.82 C 1141.49 1453.5 1123.94 1463.58 1109.66 1475.28 C 1097.7 1484.54 1080.85 1488.07 1068.37 1493.36 C 1019.45 1514.1 979.191 1498.93 934.978 1475.06 C 930.679 1472.74 925.39 1466.66 920.952 1463.95 C 899.158 1450.6 879.406 1434.56 858.647 1419.77 C 825.025 1397.65 790.271 1376.84 755.553 1356.5 C 733.984 1343.86 708.513 1335.17 685.254 1326.39 C 671.877 1321.21 638.876 1302.93 627.246 1294.94 C 607.165 1279.69 586.681 1257.93 574.197 1236.11 C 557.342 1206.64 551.84 1189.39 548.189 1156.77 C 539.411 1078.33 570.443 1009.13 579.986 932.71 C 583.111 907.689 577.476 875.682 576.209 850.509 C 574.937 835.646 575.899 820.329 575.446 805.489 C 574.272 767.027 582.007 728.642 590.038 691.214 C 592.752 678.564 600.242 664.271 605.532 652.241 C 612.59 636.192 617.892 609.291 633.904 599.84 z"/>
<path transform="translate(0,0)" fill="rgb(159,106,51)" d="M 1415.69 602.72 C 1425.96 609.197 1430.1 627.686 1434.53 637.685 C 1445.9 663.316 1457.53 679.284 1459.56 707.681 C 1460.18 716.225 1464.78 734.371 1466.38 744.09 C 1473.24 785.975 1470.6 829.293 1469.35 871.61 C 1468.89 889.283 1465.01 912.967 1466.82 929.514 C 1475.8 1011.39 1513.86 1093.9 1495.83 1177.21 C 1490.93 1199.82 1488.01 1211.4 1475.65 1230.85 C 1460.94 1254.02 1451.01 1271.57 1427.73 1288.15 C 1419.94 1293.7 1412.7 1301.38 1403.99 1306.08 C 1380.45 1319.96 1354.26 1328.03 1329.95 1340.39 C 1309.85 1349.9 1291.81 1355.98 1272.44 1367.8 C 1232.26 1391.47 1193.28 1414.94 1155.84 1442.82 C 1141.49 1453.5 1123.94 1463.58 1109.66 1475.28 C 1097.7 1484.54 1080.85 1488.07 1068.37 1493.36 C 1019.45 1514.1 979.191 1498.93 934.978 1475.06 C 930.679 1472.74 925.39 1466.66 920.952 1463.95 C 899.158 1450.6 879.406 1434.56 858.647 1419.77 C 825.025 1397.65 790.271 1376.84 755.553 1356.5 C 733.984 1343.86 708.513 1335.17 685.254 1326.39 C 671.877 1321.21 638.876 1302.93 627.246 1294.94 C 607.165 1279.69 586.681 1257.93 574.197 1236.11 C 557.342 1206.64 551.84 1189.39 548.189 1156.77 C 539.411 1078.33 570.443 1009.13 579.986 932.71 C 583.111 907.689 577.476 875.682 576.209 850.509 C 574.937 835.646 575.899 820.329 575.446 805.489 C 574.272 767.027 582.007 728.642 590.038 691.214 C 592.752 678.564 600.242 664.271 605.532 652.241 C 612.59 636.192 617.892 609.291 633.904 599.84 L 633.216 601.899 L 634.614 603.205 C 591.739 718.254 582.586 819.597 631.815 934.685 C 621.552 955.421 611.278 973.651 602.897 995.68 C 581.583 1051.71 560.184 1143.15 579.275 1200.52 C 591.628 1236.98 618.149 1266.92 652.849 1283.59 C 679.453 1296.57 701.574 1296.21 729.269 1302.2 C 806.86 1319 875.369 1371 931.464 1425 C 962.734 1455.1 997.266 1496.81 1045.96 1480.31 C 1074.05 1470.86 1097.15 1444.12 1118.39 1423.44 C 1129.88 1412.34 1141.69 1401.59 1153.82 1391.19 C 1182.52 1366.91 1213.82 1345.86 1247.13 1328.42 C 1289.53 1306.73 1316.1 1302.39 1361.73 1295.24 C 1403.2 1288.73 1444.25 1254.38 1462.45 1216.24 C 1470.21 1199.84 1474.91 1182.17 1476.31 1164.08 C 1479.8 1121.44 1464.55 1048.04 1449.53 1007.12 C 1440.03 981.255 1429.09 958.97 1416.22 934.663 C 1456.35 849.87 1458.22 746.04 1431.53 656.646 C 1429.4 649.491 1418.19 618.805 1417.99 613.668 C 1419.16 610.531 1416.99 606.658 1415.69 602.72 z"/>
<path transform="translate(0,0)" fill="url(#Gradient1)" d="M 633.904 599.84 C 651.221 560.514 670.531 558.085 708.361 567.796 C 710.095 568.241 711.695 571.136 713.609 571.507 C 718.721 572.83 723.953 573.369 729.133 574.343 C 741.351 576.502 753.089 579.17 764.748 583.31 C 777.795 587.944 785.187 594.83 796.5 601.525 C 801.896 604.719 813.082 607.617 820.039 611.189 C 856.022 629.661 895.016 654.731 936.942 652.824 C 956.593 651.931 979.241 646.862 998.594 646.42 C 1024.91 646.018 1051.23 646.479 1077.51 647.802 C 1093.09 648.635 1114.91 650.661 1130.31 649.689 C 1139.5 649.109 1163.04 642.034 1171.98 638.921 C 1181.55 635.593 1196.92 626.173 1206.59 621.176 C 1233.4 607.339 1260.66 592.411 1287.97 579.75 C 1293.9 577.002 1312.03 575.727 1319.29 573.531 C 1328.23 570.829 1342.3 560.553 1350.4 564.428 C 1354.16 566.227 1362.5 563.704 1367.26 563.032 C 1387.52 560.178 1402.28 575.465 1410.95 591.9 C 1411.77 593.449 1415.51 601.65 1415.69 602.72 C 1416.99 606.658 1419.16 610.531 1417.99 613.668 C 1416.06 610.102 1414.11 604.439 1412.43 600.552 C 1389.2 547.009 1358.93 562.973 1320.07 584.821 C 1253.17 622.444 1199.76 670.039 1157.46 733.862 C 1060.01 708.02 987.289 709.342 890.339 734.081 C 844.506 662.44 779.183 609.216 703.457 571.574 C 666.923 553.415 649.1 571.169 634.614 603.205 L 633.216 601.899 L 633.904 599.84 z"/>
<path transform="translate(0,0)" fill="rgb(236,120,39)" d="M 647.535 934.935 C 614.916 862.457 605.573 791.478 618.021 712.975 C 622.383 685.466 643.406 596.71 664.448 582.299 C 670.559 578.114 677 577.56 684.089 579.22 C 701.939 583.402 720.305 595.754 735.797 605.444 C 800.145 645.699 843.607 686.397 884.237 750.661 C 902.468 745.951 917.641 741.096 936.413 737.537 C 1018.23 722.028 1084.87 727.896 1163.73 750.615 C 1174.81 734.519 1181.56 722.941 1194.31 706.985 C 1236.12 654.728 1292.03 613.735 1351.52 583.744 C 1378.54 570.122 1391.42 583.398 1400.96 608.013 C 1436.24 698.975 1449.59 798.069 1417.95 892.095 C 1412.85 907.241 1406.8 920.735 1400.26 935.393 C 1436.94 999.313 1455.72 1057.6 1461.48 1131.22 C 1467.17 1163.16 1457.76 1202.39 1439.11 1229 C 1419.05 1257.41 1388.43 1276.57 1354.11 1282.19 C 1337.61 1285.07 1321.12 1286.59 1304.75 1290.91 C 1249.95 1305.39 1198.35 1337.27 1154.65 1372.71 C 1145.17 1380.39 1136.15 1388.22 1127.02 1396.18 C 1119.53 1402.69 1108.06 1414.82 1100.15 1419.85 C 1115.85 1380.47 1083.67 1368.27 1052.21 1362.5 C 1032.65 1358.88 1016.24 1360.1 996.9 1362.52 C 980.045 1365.38 959.797 1369.99 949.099 1384.6 C 940.32 1396.6 943.82 1407.63 947.629 1420.07 C 941.779 1416.38 937.356 1411.16 932.237 1406.43 C 871.581 1350.32 799.14 1298.29 715.626 1285.35 C 706.297 1283.91 697.289 1282.97 688.35 1281.12 C 657.785 1274.85 630.557 1257.65 611.769 1232.74 C 592.876 1207.75 581.769 1173.57 586.026 1142.27 C 586.674 1091.87 603.606 1027.03 624.217 981.372 C 631.3 965.681 639.687 950.317 647.535 934.935 z"/>
<path transform="translate(0,0)" fill="rgb(251,137,54)" d="M 586.026 1142.27 C 589.825 1136.18 589.451 1127.91 593.108 1121.59 C 645.666 1030.79 753.134 1054.15 829.686 1096.26 C 905.974 1138.23 960.215 1206.2 983.452 1289.89 C 990.785 1316.96 993.3 1334.81 996.9 1362.52 C 980.045 1365.38 959.797 1369.99 949.099 1384.6 C 940.32 1396.6 943.82 1407.63 947.629 1420.07 C 941.779 1416.38 937.356 1411.16 932.237 1406.43 C 871.581 1350.32 799.14 1298.29 715.626 1285.35 C 706.297 1283.91 697.289 1282.97 688.35 1281.12 C 657.785 1274.85 630.557 1257.65 611.769 1232.74 C 592.876 1207.75 581.769 1173.57 586.026 1142.27 z"/>
<path transform="translate(0,0)" fill="rgb(251,137,54)" d="M 1052.21 1362.5 C 1052.09 1344.8 1060.29 1304.58 1065.18 1287.53 C 1088.29 1206.44 1142.8 1137.91 1216.61 1097.15 C 1262.1 1072.03 1332.36 1047.82 1383.04 1063.73 C 1413.04 1073.15 1437.65 1091.76 1453.69 1119.31 C 1456.47 1124.09 1456.6 1129.02 1459.59 1134.55 L 1461.48 1131.22 C 1467.17 1163.16 1457.76 1202.39 1439.11 1229 C 1419.05 1257.41 1388.43 1276.57 1354.11 1282.19 C 1337.61 1285.07 1321.12 1286.59 1304.75 1290.91 C 1249.95 1305.39 1198.35 1337.27 1154.65 1372.71 C 1145.17 1380.39 1136.15 1388.22 1127.02 1396.18 C 1119.53 1402.69 1108.06 1414.82 1100.15 1419.85 C 1115.85 1380.47 1083.67 1368.27 1052.21 1362.5 z"/>
<path transform="translate(0,0)" fill="rgb(208,96,24)" d="M 700.835 666.058 C 723.006 663.642 774.51 713.551 790.252 729.609 C 797.773 737.281 818.883 761.286 819.223 772.798 C 819.292 775.131 814.592 779.237 812.739 780.403 C 790.944 793.685 767.989 806.066 748.5 822.812 C 734.704 831.881 717.946 849.459 705.809 860.681 C 701.728 864.454 697.466 868.753 691.93 868.553 C 683.284 863.645 683.539 847.881 680.629 839.543 C 670.377 810.166 674.786 682.359 700.835 666.058 z"/>
<path transform="translate(0,0)" fill="rgb(208,96,24)" d="M 1343.25 665.259 C 1358.64 668.591 1361.1 691.344 1364.25 704.886 C 1375.95 755.329 1376.32 809.368 1362.43 859.385 C 1361.29 863.49 1358.69 866.718 1354.79 868.406 C 1349.31 867.971 1345.61 863.408 1341.71 859.59 C 1329.64 847.779 1317.32 836.868 1304.32 826.086 C 1291.08 815.517 1277.29 805.657 1263 796.548 C 1255.35 791.743 1233.37 780.026 1229.74 773.722 C 1227.95 747.054 1317.99 670.441 1343.25 665.259 z"/>
<path transform="translate(0,0)" fill="rgb(208,96,24)" d="M 996.9 1362.52 C 1016.24 1360.1 1032.65 1358.88 1052.21 1362.5 C 1083.67 1368.27 1115.85 1380.47 1100.15 1419.85 C 1084.9 1442.11 1048.08 1472.93 1019.48 1469.64 C 991.569 1466.42 964.728 1440.18 947.629 1420.07 C 943.82 1407.63 940.32 1396.6 949.099 1384.6 C 959.797 1369.99 980.045 1365.38 996.9 1362.52 z"/>
<path transform="translate(0,0)" fill="rgb(228,180,97)" d="M 863.54 382.87 C 868.744 385.449 875.784 390.396 882.311 393.749 C 888.564 390.538 895.887 385.897 902.031 382.216 C 896.411 389.313 893.815 393.484 889.886 401.519 C 892.907 408.78 897.155 413.572 900.389 420.839 C 893.503 416.205 889.691 413.765 882.319 410.082 C 873.883 413.699 869.677 416.764 862.193 421.924 C 866.53 415.382 871.259 408.218 874.238 400.999 C 870.84 394.859 867.273 388.813 863.54 382.87 z"/>
<path transform="translate(0,0)" fill="rgb(228,180,97)" d="M 366.426 871.183 C 367.8 874.784 369.075 882.903 369.847 887.013 C 376.048 885.172 383.162 882.18 389.281 879.782 C 383.964 883.741 375.774 887.665 376.235 894.468 C 378.809 898.768 384.463 902.424 388.629 905.621 L 370.104 898.994 C 369.223 904.553 368.501 910.417 367.721 916.017 L 366.523 915.373 C 365.519 909.86 364.483 904.354 363.413 898.854 L 344.632 906.351 C 350.456 901.857 354.933 898.412 360.27 893.382 C 355.868 889.054 349.621 883.929 344.836 879.791 C 351.129 882.832 356.895 885.023 363.402 887.545 C 364.278 881.44 365.031 877.205 366.426 871.183 z"/>
<path transform="translate(0,0)" fill="rgb(228,180,97)" d="M 1648.5 1023.74 C 1649.99 1026.53 1651.89 1035.88 1652.74 1039.49 C 1658.61 1040.9 1663.87 1042.17 1669.65 1043.92 L 1653.12 1047.59 C 1651.55 1053.12 1650.46 1059.46 1649.32 1065.15 C 1647.57 1061.06 1645.56 1051.43 1644.5 1046.82 C 1639.03 1046.03 1633.69 1044.89 1628.28 1043.8 C 1633.77 1042.23 1639.29 1040.77 1644.84 1039.41 C 1646.13 1034.45 1647.32 1028.79 1648.5 1023.74 z"/>
<path transform="translate(0,0)" fill="rgb(228,180,97)" d="M 559.403 1466.77 C 560.703 1469.15 562.855 1479.39 563.798 1483.1 C 569.9 1482.16 576.008 1481.26 582.121 1480.39 C 575.792 1483.01 571.449 1485.29 565.394 1488.53 L 573.602 1505.9 L 563.81 1494.2 C 561.623 1492.88 562.8 1493.34 560.077 1493.35 C 555.407 1495.92 552.39 1499.89 548.754 1503.89 L 555.509 1488.59 C 550.268 1486.34 545.07 1483.99 539.919 1481.54 L 557.409 1483.34 C 558.579 1477.32 558.902 1472.87 559.403 1466.77 z"/>
<path transform="translate(0,0)" fill="rgb(206,172,111)" d="M 1310.94 1420.6 C 1313.5 1422.57 1317.08 1429.75 1318.88 1432.93 C 1324.88 1433 1331.1 1432.23 1337.08 1431.63 C 1331.6 1434.13 1326.28 1436.85 1320.9 1439.56 C 1321.02 1444.78 1321.28 1450.17 1321.47 1455.39 C 1319.09 1453.81 1315.47 1445.57 1313.74 1442.35 C 1308.83 1443.07 1301.31 1443.11 1296.16 1443.29 L 1311.62 1435.34 L 1310.94 1420.6 z"/>
<path transform="translate(0,0)" fill="rgb(228,180,97)" d="M 1142.05 1611.55 C 1143.61 1615 1143.42 1617.72 1145.63 1621.01 C 1148.55 1621.12 1151.46 1621.27 1154.37 1621.46 L 1154.17 1622.43 L 1146.53 1627.25 L 1151.99 1639.51 L 1142.49 1630.99 L 1133.46 1638.76 L 1137.81 1627.32 L 1127.5 1620.87 C 1131.2 1621.29 1134.8 1622.06 1138.29 1620.97 C 1140.84 1618.62 1141.2 1615.05 1142.05 1611.55 z"/>
<path transform="translate(0,0)" fill="rgb(228,180,97)" d="M 1656.65 785.699 L 1667.2 790.495 C 1670.21 788.79 1673.2 787.055 1676.17 785.29 C 1669.7 794.293 1668.74 794.687 1673.73 804.675 C 1671.05 803.433 1667.25 800.096 1664.82 798.148 L 1653.9 805.901 C 1659.98 797.074 1662.37 795.974 1656.65 785.699 z"/>
<path transform="translate(0,0)" fill="rgb(228,180,97)" d="M 1033.19 536.641 C 1034.08 539.246 1034.62 544.695 1035.03 547.653 L 1048.51 551.032 C 1044.21 551.457 1040.64 551.49 1036.66 553.15 C 1033.71 556.655 1034.45 559.253 1033.19 563.52 L 1032.6 565.463 C 1031.42 562.101 1031.11 557.879 1030.66 554.282 C 1028.01 551.12 1024.51 552.006 1020.57 550.141 C 1022.51 548.577 1027.41 548.199 1030.31 547.687 C 1031.32 544.018 1032.28 540.335 1033.19 536.641 z"/>
<path transform="translate(0,0)" fill="rgb(228,180,97)" d="M 1234.33 438.64 C 1236.53 441.056 1236.49 445.108 1237.1 448.886 C 1240.86 449.721 1244.5 450.749 1248.22 451.759 C 1244.22 452.498 1242.35 452.822 1238.54 454.124 C 1235.26 457.671 1236.19 457.342 1234.89 462.779 L 1234.25 463.956 C 1232.13 463.901 1233.77 457.073 1232.06 454.964 C 1228.91 451.067 1226.92 454.776 1223.56 451.381 C 1225.1 449.997 1229.02 449.569 1231.46 449.014 C 1233.55 446.341 1233.68 442.335 1234.33 438.64 z"/>
<path transform="translate(0,0)" fill="rgb(228,180,97)" d="M 697.47 1415.52 C 701.386 1419.25 701.93 1419.78 706.97 1421.64 L 708.19 1421.14 L 709.749 1422.29 L 708.965 1421.24 L 709.96 1422.26 L 707.161 1422.32 L 708.567 1421.19 L 706.969 1422.99 C 706.265 1428.15 706.653 1429.52 708.104 1434.54 C 705.148 1432.9 704.713 1431.74 702.457 1429.02 C 699.277 1427.92 699.544 1428.53 695.613 1429.47 C 699.404 1421.31 699.463 1423.14 697.47 1415.52 z"/>
<path transform="translate(0,0)" fill="rgb(206,172,111)" d="M 1741.44 1578.73 L 1754.5 1571.1 C 1751.93 1575.31 1749.64 1579.6 1747.28 1583.93 C 1749.15 1586.87 1753.28 1592.21 1752.99 1595.25 L 1742.11 1589.22 C 1738.13 1592.05 1733.79 1594.86 1729.72 1597.6 C 1732.21 1592.9 1734.74 1588.22 1737.3 1583.55 L 1729.68 1572.59 C 1732.8 1573.55 1738.37 1576.98 1741.44 1578.73 z"/>
<path transform="translate(0,0)" fill="rgb(228,180,97)" d="M 1948.7 930.773 C 1948.79 934.288 1947.22 939.408 1946.34 943.043 C 1949.77 945.663 1953.34 948.652 1956.73 951.375 L 1944.03 947.391 L 1936.34 956.209 C 1935.67 952.827 1937.66 948.268 1938.77 944.789 C 1935.63 941.967 1931.34 938.842 1927.93 936.211 L 1941.69 939.439 L 1948.7 930.773 z"/>
<path transform="translate(0,0)" fill="rgb(206,172,111)" d="M 618.011 274.034 L 618.701 275.088 L 615.513 283.257 C 617.117 285.545 619.195 287.869 619.538 290.508 C 611.72 289.048 611.258 287.976 605.127 292.215 L 604.186 292.879 L 603.538 292.027 L 606.934 283.633 C 605.112 281.371 603.638 279.869 602.578 277.151 C 604.539 277.473 606.506 277.757 608.479 278.001 C 613.077 278.536 613.112 277.937 617.06 274.802 L 618.011 274.034 z"/>
<path transform="translate(0,0)" fill="rgb(206,172,111)" d="M 1517.43 267.791 C 1521 272.648 1512.67 274.818 1524.67 283.395 C 1517.6 281.621 1515.49 286.185 1513.12 291.973 L 1512.56 293.369 C 1511.52 290.763 1511.87 285.255 1511.88 282.218 C 1508.46 280.536 1504.51 278.897 1500.99 277.338 C 1512.65 277.211 1512.44 278.204 1517.43 267.791 z"/>
<path transform="translate(0,0)" fill="rgb(206,172,111)" d="M 405.125 1600.13 C 402.658 1610.62 400.477 1607.34 407.393 1617.8 C 404.719 1616.35 402.007 1614.97 399.26 1613.66 C 394.578 1613.95 395.945 1613.95 391.495 1617.18 L 390.255 1617.08 C 393.314 1610.59 392.347 1610.07 391.364 1603.12 L 392.25 1602.04 C 398.667 1605.64 398.958 1603.77 405.125 1600.13 z"/>
</svg>