<svg version="1.1" xmlns="http://www.w3.org/2000/svg" style="display: block;" viewBox="0 0 2048 2048" width="1024" height="1024" preserveAspectRatio="none">
<defs>
	<linearGradient id="Gradient1" gradientUnits="userSpaceOnUse" x1="1750.87" y1="1055.89" x2="1231.35" y2="1033.28">
		<stop class="stop0" offset="0" stop-opacity="1" stop-color="rgb(200,158,79)"/>
		<stop class="stop1" offset="1" stop-opacity="1" stop-color="rgb(236,210,127)"/>
	</linearGradient>
	<linearGradient id="Gradient2" gradientUnits="userSpaceOnUse" x1="296.004" y1="1048.12" x2="930.88" y2="1027.71">
		<stop class="stop0" offset="0" stop-opacity="1" stop-color="rgb(194,149,67)"/>
		<stop class="stop1" offset="1" stop-opacity="1" stop-color="rgb(227,197,118)"/>
	</linearGradient>
</defs>
<path transform="translate(0,0)" fill="rgb(255,255,255)" d="M 0 0 L 2048 0 L 2048 2048 L 0 2048 L 0 0 z"/>
<path transform="translate(0,0)" fill="rgb(16,36,64)" d="M 959.629 297.863 C 975.564 295.524 999.216 294.914 1015.53 294.642 C 1098.74 293.253 1193.77 308.326 1271.83 338.085 C 1453.36 403.888 1601.47 538.86 1683.8 713.514 C 1766.29 887.918 1776.03 1087.97 1710.87 1269.56 C 1645.51 1450.41 1511.86 1598.44 1338.61 1681.9 C 1306.32 1697.51 1272.9 1710.65 1238.62 1721.19 C 1232.39 1723.13 1217.05 1728.02 1211.16 1728.86 C 1157.2 1744.79 1096.91 1751.95 1040.89 1753.57 C 1032.36 1753.82 1010.59 1754.16 1002.82 1753.03 C 976.046 1753.59 936.716 1748.87 910.359 1744.71 C 766.638 1721.67 633.058 1656.27 526.706 1556.9 C 386.712 1426.54 303.563 1246.39 295.192 1055.29 C 287.056 860.608 357.097 670.758 489.72 528.011 C 591.581 418.432 724.566 342.688 870.776 310.971 C 895.739 305.596 934.075 298.873 959.629 297.863 z"/>
<path transform="translate(0,0)" fill="url(#Gradient2)" d="M 1002.82 1753.03 C 976.046 1753.59 936.716 1748.87 910.359 1744.71 C 766.638 1721.67 633.058 1656.27 526.706 1556.9 C 386.712 1426.54 303.563 1246.39 295.192 1055.29 C 287.056 860.608 357.097 670.758 489.72 528.011 C 591.581 418.432 724.566 342.688 870.776 310.971 C 895.739 305.596 934.075 298.873 959.629 297.863 L 966.439 298.312 C 962.784 299.699 953.834 299.909 949.546 300.161 C 930.927 301.258 912.336 305.888 893.917 307.636 C 892.564 313.094 891.932 319.322 890.596 324.339 C 890.067 326.327 885.974 328.385 885.42 333.112 C 887.129 334.663 888.259 335.261 891.521 334.761 C 907.772 332.267 923.863 328.473 940.301 327.077 C 940.945 327.56 941.59 328.043 942.234 328.526 C 579.606 371.254 310.711 685.505 324.566 1050.38 C 338.422 1415.25 630.373 1708.21 995.197 1723.31 L 994.145 1723.52 C 976.699 1726.88 935.92 1718.19 930.602 1720.41 L 930.975 1726.35 C 931.223 1726.53 935.329 1729.39 935.452 1729.49 C 944.72 1736.61 938.145 1738.53 950.324 1745.68 C 962.788 1753.01 994.878 1748.32 1002.82 1753.03 z"/>
<path transform="translate(0,0)" fill="url(#Gradient1)" d="M 1271.83 338.085 C 1453.36 403.888 1601.47 538.86 1683.8 713.514 C 1766.29 887.918 1776.03 1087.97 1710.87 1269.56 C 1645.51 1450.41 1511.86 1598.44 1338.61 1681.9 C 1306.32 1697.51 1272.9 1710.65 1238.62 1721.19 C 1232.39 1723.13 1217.05 1728.02 1211.16 1728.86 C 1207.22 1728.35 1206.61 1730.06 1203.86 1728.58 C 1204.63 1723.79 1211.99 1724.11 1209.35 1717.19 C 1205.46 1706.99 1212.07 1708.86 1210.84 1698.56 C 1505.03 1617.17 1712.58 1354.55 1723.78 1049.51 C 1734.99 744.471 1547.27 467.334 1259.84 364.578 L 1262.73 362.927 C 1261.02 350.621 1261.88 346.248 1271.83 338.085 z"/>
<path transform="translate(0,0)" fill="rgb(236,212,130)" d="M 959.629 297.863 C 975.564 295.524 999.216 294.914 1015.53 294.642 C 1098.74 293.253 1193.77 308.326 1271.83 338.085 C 1261.88 346.248 1261.02 350.621 1262.73 362.927 L 1259.84 364.578 C 1158.17 328.229 1049.47 315.891 942.234 328.526 C 941.59 328.043 940.945 327.56 940.301 327.077 C 923.863 328.473 907.772 332.267 891.521 334.761 C 888.259 335.261 887.129 334.663 885.42 333.112 C 885.974 328.385 890.067 326.327 890.596 324.339 C 891.932 319.322 892.564 313.094 893.917 307.636 C 912.336 305.888 930.927 301.258 949.546 300.161 C 953.834 299.909 962.784 299.699 966.439 298.312 L 959.629 297.863 z"/>
<path transform="translate(0,0)" fill="rgb(236,212,130)" d="M 995.197 1723.31 C 1067.93 1726.32 1140.68 1717.97 1210.84 1698.56 C 1212.07 1708.86 1205.46 1706.99 1209.35 1717.19 C 1211.99 1724.11 1204.63 1723.79 1203.86 1728.58 C 1206.61 1730.06 1207.22 1728.35 1211.16 1728.86 C 1157.2 1744.79 1096.91 1751.95 1040.89 1753.57 C 1032.36 1753.82 1010.59 1754.16 1002.82 1753.03 C 994.878 1748.32 962.788 1753.01 950.324 1745.68 C 938.145 1738.53 944.72 1736.61 935.452 1729.49 C 935.329 1729.39 931.223 1726.53 930.975 1726.35 L 930.602 1720.41 C 935.92 1718.19 976.699 1726.88 994.145 1723.52 L 995.197 1723.31 z"/>
<path transform="translate(0,0)" fill="rgb(67,129,106)" d="M 1016.77 788.501 C 1018.41 787.616 1018.13 787.663 1020.01 787.797 C 1057.95 790.483 1100.2 798.186 1133.54 817.254 C 1141.78 822.281 1148.63 829.063 1156.24 834.932 C 1166.21 842.62 1178.56 848.565 1187.76 857.165 C 1195.34 864.256 1201.79 873.948 1208.04 882.29 C 1215.2 891.829 1222.64 901.545 1228.94 911.653 C 1235.6 922.909 1239.35 936.406 1243.34 948.774 C 1247.28 961.824 1252.15 975.504 1254.8 988.852 C 1260.01 1014.73 1259.21 1041.46 1252.45 1066.97 C 1250.64 1073.85 1247.68 1080.72 1245.98 1087.42 C 1242.95 1098.32 1239.46 1112.99 1233.93 1122.98 C 1225.69 1137.87 1213.44 1152.87 1204.86 1167.73 C 1194.67 1185.4 1179.32 1196.41 1162.68 1207.27 C 1154.52 1212.36 1146.04 1222.23 1137.69 1226.57 C 1113.01 1239.42 1083.94 1248.46 1057.13 1255.62 C 1049.4 1257.68 1041.77 1256.71 1034.15 1258.49 L 1032.31 1258.52 C 1003.45 1258.98 984.707 1257.43 958.062 1246.7 C 937.366 1238.37 917.937 1233.03 899.615 1218.79 C 889.565 1210.12 872.181 1201.2 863.642 1191.29 C 850.154 1175.65 835.702 1154.62 823.002 1138.17 C 817.631 1131.21 814.787 1113.82 811.083 1106.3 C 779.855 1042.9 790.737 956.389 832.147 899.996 C 835.308 894.563 839.387 888.905 842.498 883.568 C 853.448 864.785 870.621 852.724 888.451 841.06 C 894.579 837.052 900.354 829.466 906.76 825.456 C 916.937 819.085 928.848 814.416 939.894 809.706 C 965.567 798.718 988.22 788.54 1016.77 788.501 z"/>
<path transform="translate(0,0)" fill="rgb(131,246,153)" d="M 1014.12 854.986 C 1018.97 850.217 1020.42 844.656 1029.13 843.806 C 1035.42 843.193 1036.46 849.932 1036.59 854.279 C 1036.69 860.549 1029.3 866.411 1029.07 877.62 C 1036.26 877.323 1031.09 875.478 1038.18 875.27 C 1047.63 874.993 1057.29 876.104 1066.63 877.213 L 1067.27 876.214 C 1073.06 867.302 1080.16 859.972 1091.34 859.706 C 1099.26 860.793 1102.08 864.749 1100.5 872.704 C 1096.73 880.046 1083.06 885.841 1081.24 897.789 L 1082.24 899.822 C 1087.41 901.083 1086.61 898.636 1090.05 897.753 C 1100.09 895.183 1113.09 901.669 1122.74 903.918 C 1122.82 903.937 1134.91 898.351 1139.01 897.865 L 1142.23 898.973 C 1149.62 898.884 1151.01 899.713 1155.84 905.229 C 1158.56 921.312 1143.47 917.166 1132.19 923.819 C 1133.27 926.291 1147.22 934.829 1146.98 941.975 C 1146.86 945.507 1149.35 951.154 1151.06 954.349 C 1160.43 952.144 1173.88 947.008 1183.2 953.292 C 1188 955.572 1188.83 955.848 1191.92 960.191 C 1192.46 965.316 1192.57 967.029 1189.6 971.002 C 1181.94 974.974 1177.79 970.732 1173.98 972.786 C 1171.34 983.475 1176.53 1001.88 1168.61 1007.52 C 1177.51 1010.31 1182.36 1005.41 1188.93 1012.62 C 1200.36 1018.94 1214.49 1029.27 1194.79 1037.93 C 1187.65 1038.47 1178.48 1025.04 1169.45 1029.95 L 1169.96 1030.89 C 1175.51 1041.49 1174.71 1057.46 1174.49 1069.62 C 1180.52 1074.27 1190.05 1081.61 1188.37 1090.1 C 1187.74 1100.18 1183.71 1102.91 1174.04 1099.88 C 1167.56 1095.47 1164.38 1084.59 1156.18 1084.68 C 1154.97 1086.74 1155.25 1087.35 1155.12 1089.83 C 1154.5 1100.73 1149.86 1114.36 1143.92 1123.5 C 1144.02 1130.69 1154.64 1130.64 1149.59 1149.36 C 1144.86 1155.91 1143.28 1155.82 1135.55 1155.52 C 1127.97 1153.75 1131.71 1141.19 1125.77 1135.99 C 1120.09 1136.45 1116.12 1146.24 1111.54 1149.75 C 1106.45 1153.63 1098.04 1154.1 1095.69 1160.54 C 1096.78 1167.82 1100.31 1172.81 1095.39 1181.94 C 1091.79 1190.48 1090.52 1191.25 1081.4 1191.6 C 1078.77 1191.04 1078.47 1190.57 1076.63 1188.63 C 1074.27 1182.41 1077.25 1179.71 1074.65 1176.68 C 1060.26 1175.35 1054.35 1180.3 1041.32 1172.55 C 1037.1 1179.38 1038.79 1192.9 1028.73 1201.55 L 1027.19 1201.63 C 1017.35 1205.66 1013.12 1204.95 1010.1 1193.74 C 1009.17 1189.53 1017.76 1181.94 1017.49 1176.58 L 1015.29 1175.91 C 1001.17 1179.42 991.722 1176.19 977.795 1176.86 C 975.483 1176.97 967.876 1188.06 962.016 1187.04 C 950.379 1190 945.579 1187.3 946.268 1174.89 C 950.269 1167.21 959.347 1167.69 961.242 1159.44 L 960.13 1158.7 C 953.29 1160.52 932.462 1148.73 925.466 1147.19 C 916.003 1145.09 912.921 1150.7 900.497 1148.84 L 899.469 1148.68 C 893.304 1144.5 892.194 1142.6 893.326 1135.28 C 898.536 1125.69 906.045 1132.48 916.631 1122.67 C 914.789 1121.26 912.815 1120.52 910.641 1120.34 C 898.672 1121.57 897.602 1097.9 893.479 1096.67 C 886.247 1094.52 878.522 1101.92 866.764 1095.02 C 856.614 1092.06 855.298 1088.94 857.503 1078.76 C 860.617 1073.17 865.568 1074.73 870.689 1075.96 L 872.119 1076.31 C 877.99 1073.43 873.632 1050.51 877.554 1045.35 C 878.078 1044.67 878.976 1041.79 879.308 1040.83 C 877.552 1039.07 864.656 1039.93 853.795 1033.7 L 853.898 1032.01 C 844.255 1025.63 838.574 1019.07 849.914 1010.05 C 860.58 1008.16 860.023 1016.26 872.527 1017.79 L 873.642 1016.59 C 873.027 1004 874.265 992.206 874.491 979.789 C 874.525 977.874 861.666 970.202 860.501 960.617 C 858.457 948.829 862.938 945.071 874.351 947.348 C 881.215 951.071 883.124 963.222 892.389 963.331 C 893.214 948.421 896.099 944.157 901.509 930.953 C 903.584 925.888 903.162 921.781 901.041 916.91 C 897.862 909.61 897.525 911.809 898.96 905.471 C 898.647 893.705 901.737 891.661 913.026 892.675 C 919.356 895.42 917.355 906.512 921.852 913.053 C 923.411 913.018 924.351 912.29 925.406 910.873 C 932.333 901.564 943.72 900.012 952.829 895.226 C 954.48 894.359 946.858 870.845 952.127 866.992 C 952.416 866.551 952.705 866.109 952.994 865.668 C 956.686 855.849 959.626 854.965 969.413 857.676 L 970.035 857.579 C 977.459 862.685 968.788 869.075 973.334 879.824 C 973.794 879.849 974.254 879.874 974.714 879.899 C 981.525 877.54 996.369 877.581 1003.55 878.521 C 1005.44 880.301 1005.36 880.362 1007.69 881.427 C 1010.29 875.727 1004.22 866.007 1014.12 854.986 z"/>
<path transform="translate(0,0)" fill="rgb(95,183,124)" d="M 1036.71 1158.08 C 1049.79 1156.28 1057.69 1155.58 1069.92 1150.37 C 1071.91 1153.59 1074.99 1158.35 1076.04 1161.86 C 1079.72 1174.06 1073.65 1181.15 1081.4 1191.6 C 1078.77 1191.04 1078.47 1190.57 1076.63 1188.63 C 1074.27 1182.41 1077.25 1179.71 1074.65 1176.68 C 1060.26 1175.35 1054.35 1180.3 1041.32 1172.55 C 1037.1 1179.38 1038.79 1192.9 1028.73 1201.55 L 1027.19 1201.63 C 1027.36 1200.63 1030.98 1194.54 1031.72 1193.42 C 1039.73 1181.51 1038.32 1171.94 1036.71 1158.08 z"/>
<path transform="translate(0,0)" fill="rgb(95,183,124)" d="M 984.845 1152.84 C 997.183 1155.92 1005.94 1157.74 1018.64 1158.22 C 1020.44 1172.31 1021.51 1182.92 1010.1 1193.74 C 1009.17 1189.53 1017.76 1181.94 1017.49 1176.58 L 1015.29 1175.91 C 1001.17 1179.42 991.722 1176.19 977.795 1176.86 C 975.483 1176.97 967.876 1188.06 962.016 1187.04 C 963.404 1185.13 963.892 1184.98 965.691 1183.64 C 977.754 1174.65 981.208 1167.04 984.845 1152.84 z"/>
<path transform="translate(0,0)" fill="rgb(95,183,124)" d="M 938.386 1127.91 C 949.574 1136.12 955.652 1140.2 968.024 1146.28 C 965.469 1160.62 960.389 1169.04 946.268 1174.89 C 950.269 1167.21 959.347 1167.69 961.242 1159.44 L 960.13 1158.7 C 953.29 1160.52 932.462 1148.73 925.466 1147.19 C 916.003 1145.09 912.921 1150.7 900.497 1148.84 L 899.469 1148.68 C 919.459 1146.51 924.86 1143.2 938.386 1127.91 z"/>
<path transform="translate(0,0)" fill="rgb(95,183,124)" d="M 853.898 1032.01 C 868.473 1038.2 873.977 1038.93 890.042 1037.06 C 891.941 1050.98 893.436 1057.66 897.813 1070.97 C 874.617 1084.01 873.679 1074.09 857.503 1078.76 C 860.617 1073.17 865.568 1074.73 870.689 1075.96 L 872.119 1076.31 C 877.99 1073.43 873.632 1050.51 877.554 1045.35 C 878.078 1044.67 878.976 1041.79 879.308 1040.83 C 877.552 1039.07 864.656 1039.93 853.795 1033.7 L 853.898 1032.01 z"/>
<path transform="translate(0,0)" fill="rgb(95,183,124)" d="M 860.501 960.617 C 872.531 975.398 875.139 979.572 894.859 985.851 C 888.993 1004.76 894.914 1031.52 863.837 1016.9 C 858.487 1014.38 855.973 1011.46 849.914 1010.05 C 860.58 1008.16 860.023 1016.26 872.527 1017.79 L 873.642 1016.59 C 873.027 1004 874.265 992.206 874.491 979.789 C 874.525 977.874 861.666 970.202 860.501 960.617 z"/>
<path transform="translate(0,0)" fill="rgb(95,183,124)" d="M 1086.35 1143.21 C 1097.57 1136.27 1104.98 1131.38 1115.34 1123.38 C 1132.82 1134.81 1128.18 1140.51 1135.55 1155.52 C 1127.97 1153.75 1131.71 1141.19 1125.77 1135.99 C 1120.09 1136.45 1116.12 1146.24 1111.54 1149.75 C 1106.45 1153.63 1098.04 1154.1 1095.69 1160.54 C 1096.78 1167.82 1100.31 1172.81 1095.39 1181.94 C 1096.51 1164.18 1094.82 1158.62 1086.35 1143.21 z"/>
<path transform="translate(0,0)" fill="rgb(95,183,124)" d="M 1159.4 1028.15 C 1175.38 1025.21 1182.47 1027.92 1194.79 1037.93 C 1187.65 1038.47 1178.48 1025.04 1169.45 1029.95 L 1169.96 1030.89 C 1175.51 1041.49 1174.71 1057.46 1174.49 1069.62 C 1180.52 1074.27 1190.05 1081.61 1188.37 1090.1 C 1180.85 1072.82 1170.34 1067.51 1153.3 1062.52 C 1156.63 1051.2 1157.88 1039.8 1159.4 1028.15 z"/>
<path transform="translate(0,0)" fill="rgb(95,183,124)" d="M 1191.92 960.191 C 1192.46 965.316 1192.57 967.029 1189.6 971.002 C 1181.94 974.974 1177.79 970.732 1173.98 972.786 C 1171.34 983.475 1176.53 1001.88 1168.61 1007.52 C 1177.51 1010.31 1182.36 1005.41 1188.93 1012.62 C 1176.62 1009.1 1170.97 1008.45 1158.48 1010.29 C 1156.54 998.761 1154.87 988.587 1150.6 977.683 C 1168.67 966.777 1168.12 973.333 1186.83 969.487 C 1190.04 968.826 1191.22 963.23 1191.92 960.191 z"/>
<path transform="translate(0,0)" fill="rgb(95,183,124)" d="M 1147.28 1079.33 C 1162.21 1083.14 1167.47 1085.54 1174.04 1099.88 C 1167.56 1095.47 1164.38 1084.59 1156.18 1084.68 C 1154.97 1086.74 1155.25 1087.35 1155.12 1089.83 C 1154.5 1100.73 1149.86 1114.36 1143.92 1123.5 C 1144.02 1130.69 1154.64 1130.64 1149.59 1149.36 C 1147.85 1129.06 1142.5 1123.1 1128.04 1110.15 C 1137.03 1098.87 1140.51 1091.98 1147.28 1079.33 z"/>
<path transform="translate(0,0)" fill="rgb(95,183,124)" d="M 898.96 905.471 C 903.53 921.447 906.103 927.399 920.109 937.793 C 910.401 950.323 907.739 954.981 900.713 969.18 C 887.719 964.727 879.805 961.116 874.351 947.348 C 881.215 951.071 883.124 963.222 892.389 963.331 C 893.214 948.421 896.099 944.157 901.509 930.953 C 903.584 925.888 903.162 921.781 901.041 916.91 C 897.862 909.61 897.525 911.809 898.96 905.471 z"/>
<path transform="translate(0,0)" fill="rgb(95,183,124)" d="M 866.764 1095.02 C 883.77 1097.08 890.558 1096.17 904.968 1086.59 C 911.833 1097.45 917.304 1105.7 925.096 1116.07 C 909.056 1135 905.912 1126.91 893.326 1135.28 C 898.536 1125.69 906.045 1132.48 916.631 1122.67 C 914.789 1121.26 912.815 1120.52 910.641 1120.34 C 898.672 1121.57 897.602 1097.9 893.479 1096.67 C 886.247 1094.52 878.522 1101.92 866.764 1095.02 z"/>
<path transform="translate(0,0)" fill="rgb(95,183,124)" d="M 1036.59 854.279 C 1036.69 860.549 1029.3 866.411 1029.07 877.62 C 1036.26 877.323 1031.09 875.478 1038.18 875.27 C 1047.63 874.993 1057.29 876.104 1066.63 877.213 L 1067.27 876.214 C 1073.06 867.302 1080.16 859.972 1091.34 859.706 C 1072.47 866.983 1068.05 877.051 1062.24 895.2 C 1050.6 890.461 1041.92 890.132 1029.43 889.183 C 1029.02 887.083 1028.65 884.975 1028.32 882.86 C 1026.31 870.01 1029.4 864.089 1036.59 854.279 z"/>
<path transform="translate(0,0)" fill="rgb(95,183,124)" d="M 913.026 892.675 C 919.356 895.42 917.355 906.512 921.852 913.053 C 923.411 913.018 924.351 912.29 925.406 910.873 C 932.333 901.564 943.72 900.012 952.829 895.226 C 954.48 894.359 946.858 870.845 952.127 866.992 C 952.416 866.551 952.705 866.109 952.994 865.668 C 951.475 882.505 952.448 890.227 962.057 904.508 C 949.685 910.975 943.898 915.07 933.128 924.011 C 916.009 914.3 919.139 908.033 913.026 892.675 z"/>
<path transform="translate(0,0)" fill="rgb(95,183,124)" d="M 969.413 857.676 L 970.035 857.579 C 977.459 862.685 968.788 869.075 973.334 879.824 C 973.794 879.849 974.254 879.874 974.714 879.899 C 981.525 877.54 996.369 877.581 1003.55 878.521 C 1005.44 880.301 1005.36 880.362 1007.69 881.427 C 1010.29 875.727 1004.22 866.007 1014.12 854.986 C 1009.52 869.999 1008.68 873.855 1010.43 889.743 C 998.7 891.49 988.718 893.219 977.372 896.961 C 964.521 874.845 974.853 869.724 969.413 857.676 z"/>
<path transform="translate(0,0)" fill="rgb(95,183,124)" d="M 1155.84 905.229 C 1158.56 921.312 1143.47 917.166 1132.19 923.819 C 1133.27 926.291 1147.22 934.829 1146.98 941.975 C 1146.86 945.507 1149.35 951.154 1151.06 954.349 C 1160.43 952.144 1173.88 947.008 1183.2 953.292 C 1164.92 951.23 1159.33 952.485 1143.34 960.994 C 1137.15 951.421 1130.61 940.619 1122.65 932.583 C 1132.5 917.912 1136.97 921.387 1152.06 913.97 C 1154.85 912.597 1155.16 908.238 1155.84 905.229 z"/>
<path transform="translate(0,0)" fill="rgb(95,183,124)" d="M 1079.97 900.811 C 1080.12 899.881 1080.29 898.953 1080.47 898.027 C 1083.3 883.62 1089.08 880.353 1100.5 872.704 C 1096.73 880.046 1083.06 885.841 1081.24 897.789 L 1082.24 899.822 C 1087.41 901.083 1086.61 898.636 1090.05 897.753 C 1100.09 895.183 1113.09 901.669 1122.74 903.918 C 1122.82 903.937 1134.91 898.351 1139.01 897.865 L 1142.23 898.973 C 1125.72 902.783 1119.96 907.869 1109.18 919.914 C 1099.12 911.439 1091.35 907.328 1079.97 900.811 z"/>
<path transform="translate(0,0)" fill="rgb(73,164,110)" d="M 1011.12 908.459 C 1074.92 901.345 1132.38 947.343 1139.4 1011.15 C 1146.43 1074.95 1100.35 1132.35 1036.54 1139.28 C 972.851 1146.21 915.589 1100.24 908.577 1036.56 C 901.565 972.883 947.454 915.558 1011.12 908.459 z"/>
<path transform="translate(0,0)" fill="rgb(95,183,124)" d="M 1000.38 934.024 C 1006.9 934.522 1012.31 937.056 1014.48 943.583 C 1020.55 961.846 994.985 963.924 984.393 972.766 C 974.438 981.076 969.496 996.044 957.43 999.821 C 951.844 999.778 941.361 995.706 941.476 990.135 C 942.062 961.769 978.267 938.433 1000.38 934.024 z"/>
<path transform="translate(0,0)" fill="rgb(95,183,124)" d="M 1103.83 1015.97 C 1125.58 1014.64 1115.41 1041.6 1111.32 1053.34 C 1098.05 1091.46 1068.26 1111.48 1029.83 1116.51 C 1022.88 1116.27 1013.81 1114.64 1016.59 1105.24 C 1024.09 1097.87 1040.73 1102.02 1056.21 1094.09 C 1077.36 1084.08 1093.84 1064.58 1099.16 1041.66 C 1100.99 1033.79 1100.63 1023.56 1103.83 1015.97 z"/>
<path transform="translate(0,0)" fill="rgb(95,183,124)" d="M 940.099 1013.63 C 945.465 1011.41 951.623 1013.9 953.933 1019.23 C 956.243 1024.56 953.851 1030.76 948.56 1033.15 C 945.06 1034.74 940.978 1034.31 937.88 1032.04 C 934.782 1029.77 933.15 1026 933.61 1022.19 C 934.069 1018.37 936.55 1015.1 940.099 1013.63 z"/>
<path transform="translate(0,0)" fill="rgb(185,192,210)" d="M 603.379 576.56 C 606.866 574.541 611.33 575.754 613.317 579.26 C 615.303 582.765 614.049 587.218 610.525 589.172 C 607.047 591.1 602.664 589.866 600.704 586.406 C 598.744 582.946 599.937 578.552 603.379 576.56 z"/>
<path transform="translate(0,0)" fill="rgb(185,192,210)" d="M 664.565 1305.7 C 668.078 1303.79 672.474 1305.09 674.381 1308.61 C 676.288 1312.12 674.981 1316.52 671.464 1318.42 C 667.953 1320.32 663.568 1319.01 661.665 1315.51 C 659.762 1312 661.06 1307.61 664.565 1305.7 z"/>
<path transform="translate(0,0)" fill="rgb(185,192,210)" d="M 1463.05 573.53 C 1466.58 571.985 1470.71 573.488 1472.42 576.946 C 1474.13 580.403 1472.83 584.596 1469.46 586.474 C 1467.13 587.771 1464.28 587.681 1462.03 586.24 C 1459.79 584.798 1458.52 582.239 1458.73 579.581 C 1458.95 576.923 1460.6 574.597 1463.05 573.53 z"/>
<path transform="translate(0,0)" fill="rgb(223,226,241)" d="M 692.653 736.57 C 696.21 734.903 700.446 736.38 702.196 739.897 C 703.945 743.414 702.566 747.683 699.091 749.513 C 696.77 750.736 693.97 750.605 691.773 749.172 C 689.576 747.739 688.327 745.229 688.51 742.612 C 688.693 739.996 690.279 737.684 692.653 736.57 z"/>
<path transform="translate(0,0)" fill="rgb(223,226,241)" d="M 1398.56 763.556 C 1402.2 761.93 1406.47 763.563 1408.1 767.202 C 1409.73 770.842 1408.1 775.113 1404.46 776.745 C 1400.82 778.379 1396.54 776.748 1394.91 773.103 C 1393.28 769.459 1394.91 765.183 1398.56 763.556 z"/>
<path transform="translate(0,0)" fill="rgb(223,226,241)" d="M 1439.22 1448.56 C 1442.91 1447.17 1447.03 1449 1448.47 1452.67 C 1449.91 1456.34 1448.14 1460.48 1444.49 1461.97 C 1442.08 1462.95 1439.34 1462.56 1437.3 1460.95 C 1435.27 1459.34 1434.26 1456.76 1434.65 1454.2 C 1435.05 1451.63 1436.8 1449.48 1439.22 1448.56 z"/>
<path transform="translate(0,0)" fill="rgb(185,192,210)" d="M 1118.51 1479.61 C 1122.29 1478.65 1126.15 1480.88 1127.2 1484.64 C 1128.26 1488.39 1126.12 1492.3 1122.4 1493.45 C 1119.9 1494.22 1117.18 1493.57 1115.3 1491.76 C 1113.42 1489.95 1112.66 1487.27 1113.33 1484.74 C 1114 1482.22 1115.98 1480.25 1118.51 1479.61 z"/>
<path transform="translate(0,0)" fill="rgb(223,226,241)" d="M 1646.56 1124.7 C 1648.8 1123.33 1651.6 1123.29 1653.87 1124.6 C 1656.14 1125.91 1657.51 1128.36 1657.44 1130.98 C 1657.36 1133.6 1655.86 1135.97 1653.52 1137.15 C 1650.11 1138.88 1645.93 1137.61 1644.07 1134.27 C 1642.2 1130.93 1643.3 1126.7 1646.56 1124.7 z"/>
<path transform="translate(0,0)" fill="rgb(185,192,210)" d="M 494.182 1311.47 C 497.869 1310.4 501.737 1312.46 502.907 1316.11 C 504.077 1319.77 502.123 1323.69 498.5 1324.96 C 496.068 1325.81 493.364 1325.28 491.44 1323.56 C 489.516 1321.84 488.676 1319.22 489.246 1316.7 C 489.816 1314.19 491.707 1312.18 494.182 1311.47 z"/>
<path transform="translate(0,0)" fill="rgb(146,154,178)" d="M 988.998 401.595 C 992.305 399.652 996.557 400.706 998.575 403.967 C 1000.59 407.229 999.635 411.504 996.42 413.595 C 994.275 414.99 991.542 415.114 989.279 413.92 C 987.016 412.725 985.577 410.398 985.519 407.84 C 985.46 405.281 986.792 402.892 988.998 401.595 z"/>
<path transform="translate(0,0)" fill="rgb(255,255,255)" d="M 867.284 1567.62 C 869.99 1567.56 872.298 1569.57 872.611 1572.26 C 872.924 1574.95 871.139 1577.43 868.492 1577.99 C 866.545 1578.41 864.532 1577.68 863.295 1576.12 C 862.059 1574.56 861.811 1572.44 862.657 1570.64 C 863.502 1568.83 865.295 1567.67 867.284 1567.62 z"/>
<path transform="translate(0,0)" fill="rgb(255,255,255)" d="M 1634.97 908.522 C 1636.4 907.637 1638.19 907.6 1639.65 908.425 C 1641.11 909.249 1642 910.805 1641.97 912.481 C 1641.95 914.157 1641.01 915.686 1639.53 916.467 C 1637.35 917.618 1634.64 916.834 1633.42 914.694 C 1632.19 912.553 1632.88 909.825 1634.97 908.522 z"/>
<path transform="translate(0,0)" fill="rgb(255,255,255)" d="M 1535.95 1014.44 C 1537.46 1013.77 1539.2 1013.98 1540.52 1014.97 C 1541.83 1015.96 1542.51 1017.59 1542.28 1019.22 C 1542.06 1020.85 1540.97 1022.24 1539.44 1022.84 C 1537.13 1023.74 1534.52 1022.64 1533.57 1020.35 C 1532.62 1018.06 1533.68 1015.43 1535.95 1014.44 z"/>
<path transform="translate(0,0)" fill="rgb(255,255,255)" d="M 452.259 815.52 C 454.419 814.314 457.147 815.055 458.4 817.187 C 459.654 819.319 458.975 822.063 456.871 823.363 C 455.468 824.231 453.705 824.271 452.263 823.468 C 450.822 822.665 449.928 821.145 449.927 819.495 C 449.927 817.846 450.819 816.325 452.259 815.52 z"/>
<path transform="translate(0,0)" fill="rgb(255,255,255)" d="M 1299.38 1553.59 C 1301.76 1553.25 1303.99 1554.82 1304.48 1557.17 C 1304.97 1559.51 1303.54 1561.84 1301.23 1562.47 C 1299.6 1562.92 1297.86 1562.42 1296.7 1561.18 C 1295.55 1559.95 1295.18 1558.17 1295.75 1556.58 C 1296.31 1554.98 1297.71 1553.84 1299.38 1553.59 z"/>
<path transform="translate(0,0)" fill="rgb(255,255,255)" d="M 1256.69 433.686 C 1258.81 432.451 1261.53 433.137 1262.81 435.231 C 1264.09 437.325 1263.46 440.058 1261.39 441.382 C 1260.02 442.264 1258.27 442.333 1256.83 441.561 C 1255.39 440.79 1254.48 439.3 1254.45 437.665 C 1254.42 436.031 1255.27 434.509 1256.69 433.686 z"/>
<path transform="translate(0,0)" fill="rgb(255,255,255)" d="M 807.797 474.531 C 809.226 473.691 811.001 473.706 812.417 474.569 C 813.832 475.432 814.659 477.003 814.567 478.658 C 814.476 480.313 813.483 481.784 811.981 482.487 C 809.804 483.505 807.211 482.632 806.093 480.505 C 804.974 478.378 805.724 475.748 807.797 474.531 z"/>
<path transform="translate(0,0)" fill="rgb(146,154,178)" d="M 1119.03 497.422 C 1121.28 496.597 1123.79 497.69 1124.72 499.904 C 1125.65 502.118 1124.67 504.671 1122.5 505.702 C 1121.01 506.412 1119.24 506.244 1117.91 505.262 C 1116.58 504.281 1115.89 502.647 1116.12 501.008 C 1116.36 499.369 1117.47 497.991 1119.03 497.422 z"/>
<path transform="translate(0,0)" fill="rgb(255,255,255)" d="M 829.323 1393.51 C 831.743 1393.26 833.925 1394.98 834.239 1397.39 C 834.553 1399.81 832.885 1402.03 830.48 1402.4 C 828.872 1402.65 827.254 1402.01 826.255 1400.72 C 825.255 1399.44 825.031 1397.71 825.668 1396.22 C 826.305 1394.72 827.704 1393.68 829.323 1393.51 z"/>
<path transform="translate(0,0)" fill="rgb(255,255,255)" d="M 1421.31 1285.6 C 1423.13 1284.12 1425.78 1284.3 1427.39 1285.99 C 1429 1287.69 1429.03 1290.34 1427.47 1292.08 C 1426.34 1293.33 1424.6 1293.85 1422.97 1293.41 C 1421.35 1292.98 1420.1 1291.66 1419.75 1290.01 C 1419.4 1288.36 1420 1286.66 1421.31 1285.6 z"/>
<path transform="translate(0,0)" fill="rgb(255,255,255)" d="M 1022.6 1628.48 C 1023.94 1627.57 1025.67 1627.45 1027.13 1628.17 C 1028.58 1628.9 1029.53 1630.36 1029.6 1631.98 C 1029.68 1633.6 1028.87 1635.14 1027.49 1635.99 C 1025.42 1637.28 1022.7 1636.67 1021.37 1634.63 C 1020.04 1632.59 1020.59 1629.86 1022.6 1628.48 z"/>
<path transform="translate(0,0)" fill="rgb(255,255,255)" d="M 521.867 943.542 C 523.976 942.29 526.7 942.97 527.972 945.067 C 529.245 947.163 528.591 949.893 526.507 951.186 C 524.394 952.497 521.618 951.832 520.327 949.707 C 519.037 947.581 519.729 944.811 521.867 943.542 z"/>
<path transform="translate(0,0)" fill="rgb(255,255,255)" d="M 1282.34 607.508 C 1284.49 606.477 1287.07 607.321 1288.2 609.425 C 1289.33 611.529 1288.61 614.148 1286.56 615.373 C 1285.15 616.217 1283.38 616.217 1281.97 615.372 C 1280.56 614.527 1279.73 612.975 1279.8 611.331 C 1279.88 609.687 1280.85 608.218 1282.34 607.508 z"/>
<path transform="translate(0,0)" fill="rgb(255,255,255)" d="M 1549.36 1352.57 C 1551.67 1351.71 1554.23 1352.89 1555.09 1355.19 C 1555.95 1357.5 1554.78 1360.06 1552.47 1360.92 C 1550.17 1361.78 1547.6 1360.61 1546.74 1358.3 C 1545.88 1356 1547.05 1353.43 1549.36 1352.57 z"/>
<path transform="translate(0,0)" fill="rgb(255,255,255)" d="M 419.845 1138.48 C 421.303 1137.76 423.039 1137.9 424.37 1138.83 C 425.7 1139.77 426.412 1141.36 426.226 1142.97 C 426.04 1144.59 424.985 1145.98 423.477 1146.59 C 421.262 1147.48 418.736 1146.46 417.759 1144.28 C 416.782 1142.1 417.703 1139.54 419.845 1138.48 z"/>
<path transform="translate(0,0)" fill="rgb(255,255,255)" d="M 865.99 590.496 C 867.435 589.733 869.184 589.828 870.538 590.744 C 871.892 591.66 872.631 593.248 872.46 594.874 C 872.289 596.499 871.236 597.899 869.722 598.513 C 867.536 599.4 865.039 598.417 864.044 596.279 C 863.049 594.141 863.904 591.598 865.99 590.496 z"/>
<path transform="translate(0,0)" fill="rgb(255,255,255)" d="M 1250.85 1454.47 C 1252.29 1453.61 1254.08 1453.63 1255.5 1454.52 C 1256.91 1455.42 1257.7 1457.03 1257.54 1458.69 C 1257.37 1460.36 1256.28 1461.79 1254.72 1462.39 C 1252.58 1463.21 1250.17 1462.26 1249.16 1460.2 C 1248.15 1458.14 1248.89 1455.65 1250.85 1454.47 z"/>
<path transform="translate(0,0)" fill="rgb(255,255,255)" d="M 1121.03 1640.48 C 1122.29 1639.52 1123.96 1639.31 1125.42 1639.93 C 1126.87 1640.55 1127.87 1641.91 1128.05 1643.48 C 1128.22 1645.05 1127.53 1646.59 1126.24 1647.51 C 1124.3 1648.9 1121.6 1648.48 1120.18 1646.56 C 1118.76 1644.64 1119.14 1641.94 1121.03 1640.48 z"/>
<path transform="translate(0,0)" fill="rgb(255,255,255)" d="M 633.892 1487.61 C 636.106 1487.13 638.321 1488.42 638.99 1490.59 C 639.659 1492.75 638.559 1495.07 636.458 1495.92 C 634.932 1496.53 633.189 1496.24 631.95 1495.16 C 630.712 1494.07 630.19 1492.38 630.6 1490.79 C 631.011 1489.19 632.284 1487.97 633.892 1487.61 z"/>
<path transform="translate(0,0)" fill="rgb(255,255,255)" d="M 1576.1 763.539 C 1577.34 762.565 1579 762.334 1580.46 762.936 C 1581.91 763.538 1582.92 764.879 1583.11 766.442 C 1583.29 768.004 1582.62 769.544 1581.34 770.468 C 1579.43 771.856 1576.76 771.457 1575.33 769.571 C 1573.9 767.685 1574.25 765.005 1576.1 763.539 z"/>
<path transform="translate(0,0)" fill="rgb(255,255,255)" d="M 593.004 1167.61 C 594.408 1166.84 596.121 1166.91 597.462 1167.79 C 598.802 1168.66 599.554 1170.2 599.417 1171.8 C 599.28 1173.39 598.277 1174.78 596.807 1175.41 C 594.676 1176.33 592.2 1175.41 591.183 1173.33 C 590.167 1171.24 590.968 1168.73 593.004 1167.61 z"/>
<path transform="translate(0,0)" fill="rgb(61,75,104)" d="M 1562.99 1236.42 C 1564.32 1235.55 1566.02 1235.47 1567.42 1236.22 C 1568.83 1236.96 1569.71 1238.41 1569.73 1240 C 1569.75 1241.59 1568.89 1243.07 1567.51 1243.84 C 1565.47 1244.99 1562.89 1244.31 1561.67 1242.31 C 1560.46 1240.31 1561.04 1237.71 1562.99 1236.42 z"/>
<path transform="translate(0,0)" fill="rgb(223,226,241)" d="M 1444.05 880.557 C 1446.18 879.865 1448.48 880.909 1449.37 882.966 C 1450.25 885.023 1449.42 887.414 1447.45 888.483 C 1446.01 889.266 1444.25 889.166 1442.9 888.224 C 1441.56 887.282 1440.86 885.661 1441.1 884.036 C 1441.35 882.412 1442.49 881.065 1444.05 880.557 z"/>
<path transform="translate(0,0)" fill="rgb(185,192,210)" d="M 1090.16 587.546 C 1092.18 586.433 1094.71 587.123 1095.89 589.104 C 1097.06 591.086 1096.45 593.642 1094.5 594.876 C 1093.19 595.709 1091.53 595.762 1090.17 595.014 C 1088.81 594.266 1087.96 592.836 1087.96 591.282 C 1087.95 589.728 1088.8 588.296 1090.16 587.546 z"/>
</svg>