<svg version="1.1" xmlns="http://www.w3.org/2000/svg" style="display: block;" viewBox="0 0 2048 2048" width="1024" height="1024" preserveAspectRatio="none">
<defs>
	<linearGradient id="Gradient1" gradientUnits="userSpaceOnUse" x1="965.126" y1="1217.77" x2="797.099" y2="1117.6">
		<stop class="stop0" offset="0" stop-opacity="1" stop-color="rgb(255,176,183)"/>
		<stop class="stop1" offset="1" stop-opacity="1" stop-color="rgb(254,251,245)"/>
	</linearGradient>
	<linearGradient id="Gradient2" gradientUnits="userSpaceOnUse" x1="1047.58" y1="641.724" x2="1035.95" y2="827.685">
		<stop class="stop0" offset="0" stop-opacity="1" stop-color="rgb(19,109,136)"/>
		<stop class="stop1" offset="1" stop-opacity="1" stop-color="rgb(85,145,183)"/>
	</linearGradient>
	<linearGradient id="Gradient3" gradientUnits="userSpaceOnUse" x1="731.562" y1="742.906" x2="837.928" y2="612.493">
		<stop class="stop0" offset="0" stop-opacity="1" stop-color="rgb(232,14,83)"/>
		<stop class="stop1" offset="1" stop-opacity="1" stop-color="rgb(176,39,103)"/>
	</linearGradient>
	<linearGradient id="Gradient4" gradientUnits="userSpaceOnUse" x1="1086.82" y1="527.845" x2="1063.93" y2="881.969">
		<stop class="stop0" offset="0" stop-opacity="1" stop-color="rgb(40,43,73)"/>
		<stop class="stop1" offset="1" stop-opacity="1" stop-color="rgb(143,91,135)"/>
	</linearGradient>
	<linearGradient id="Gradient5" gradientUnits="userSpaceOnUse" x1="664.302" y1="973.76" x2="952.488" y2="1033.14">
		<stop class="stop0" offset="0" stop-opacity="1" stop-color="rgb(91,53,89)"/>
		<stop class="stop1" offset="1" stop-opacity="1" stop-color="rgb(148,84,130)"/>
	</linearGradient>
	<linearGradient id="Gradient6" gradientUnits="userSpaceOnUse" x1="563.005" y1="968.662" x2="924.002" y2="1022.6">
		<stop class="stop0" offset="0" stop-opacity="1" stop-color="rgb(9,66,93)"/>
		<stop class="stop1" offset="1" stop-opacity="1" stop-color="rgb(86,169,207)"/>
	</linearGradient>
	<linearGradient id="Gradient7" gradientUnits="userSpaceOnUse" x1="1488.98" y1="1584.79" x2="1299.72" y2="1370.09">
		<stop class="stop0" offset="0" stop-opacity="1" stop-color="rgb(105,13,46)"/>
		<stop class="stop1" offset="1" stop-opacity="1" stop-color="rgb(172,18,57)"/>
	</linearGradient>
	<linearGradient id="Gradient8" gradientUnits="userSpaceOnUse" x1="1230.16" y1="1317.05" x2="1318.04" y2="1277.51">
		<stop class="stop0" offset="0" stop-opacity="1" stop-color="rgb(255,175,189)"/>
		<stop class="stop1" offset="1" stop-opacity="1" stop-color="rgb(255,248,243)"/>
	</linearGradient>
	<linearGradient id="Gradient9" gradientUnits="userSpaceOnUse" x1="1032.48" y1="1383.2" x2="1016.39" y2="1108.08">
		<stop class="stop0" offset="0" stop-opacity="1" stop-color="rgb(33,114,143)"/>
		<stop class="stop1" offset="1" stop-opacity="1" stop-color="rgb(94,146,185)"/>
	</linearGradient>
	<linearGradient id="Gradient10" gradientUnits="userSpaceOnUse" x1="1454.56" y1="1021.82" x2="1113.9" y2="1042.21">
		<stop class="stop0" offset="0" stop-opacity="1" stop-color="rgb(98,27,60)"/>
		<stop class="stop1" offset="1" stop-opacity="1" stop-color="rgb(161,74,118)"/>
	</linearGradient>
	<linearGradient id="Gradient11" gradientUnits="userSpaceOnUse" x1="1415.37" y1="1001.4" x2="1155.83" y2="1016.83">
		<stop class="stop0" offset="0" stop-opacity="1" stop-color="rgb(15,106,133)"/>
		<stop class="stop1" offset="1" stop-opacity="1" stop-color="rgb(107,136,177)"/>
	</linearGradient>
	<linearGradient id="Gradient12" gradientUnits="userSpaceOnUse" x1="1066" y1="134.155" x2="1076.45" y2="1.69461">
		<stop class="stop0" offset="0" stop-opacity="1" stop-color="rgb(218,184,105)"/>
		<stop class="stop1" offset="1" stop-opacity="1" stop-color="rgb(243,226,141)"/>
	</linearGradient>
	<linearGradient id="Gradient13" gradientUnits="userSpaceOnUse" x1="2044.51" y1="1077.07" x2="1384.64" y2="1043.24">
		<stop class="stop0" offset="0" stop-opacity="1" stop-color="rgb(190,144,68)"/>
		<stop class="stop1" offset="1" stop-opacity="1" stop-color="rgb(227,200,118)"/>
	</linearGradient>
	<linearGradient id="Gradient14" gradientUnits="userSpaceOnUse" x1="2.41638" y1="1034.56" x2="721.65" y2="1025.9">
		<stop class="stop0" offset="0" stop-opacity="1" stop-color="rgb(185,140,64)"/>
		<stop class="stop1" offset="1" stop-opacity="1" stop-color="rgb(224,195,114)"/>
	</linearGradient>
</defs>
<path transform="translate(0,0)" fill="rgb(13,26,54)" d="M 0 0 L 966.437 0 L 1087.93 0 L 2048 0 L 2048 980.333 L 2048 1069.47 L 2048 2048 L 1081.84 2048 L 968.147 2048 L 0 2048 L 0 1069.95 L 0 981.49 L 0 0 z"/>
<path transform="translate(0,0)" fill="rgb(254,255,254)" d="M 0 0 L 966.437 0 C 958.595 3.32456 912.628 5.93686 900.392 7.40677 C 850.522 13.4614 801.163 23.1713 752.716 36.4581 C 745.258 38.5095 725.481 43.6685 718.711 46.6529 C 688.486 54.2903 635.314 76.0092 607.049 88.5756 C 414.046 174.89 252.366 318.64 144.062 500.219 C 77.4667 612.258 32.8065 735.95 12.466 864.69 C 8.93349 886.584 6.28088 908.61 4.51461 930.715 C 3.53101 943.463 2.37293 970.031 0 981.49 L 0 0 z"/>
<path transform="translate(0,0)" fill="rgb(254,255,254)" d="M 0 1069.95 C 2.96088 1090 3.72644 1113.88 5.8588 1134.58 C 9.44254 1169.52 15.036 1204.22 22.6112 1238.52 C 74.6441 1482 213.744 1698.12 413.807 1846.32 C 508.698 1916.64 614.957 1970.15 727.953 2004.51 C 742.576 2008.92 776.948 2019.14 791.746 2021.22 C 801.089 2024.41 819.584 2027.87 829.472 2029.73 C 859.111 2035.37 888.991 2039.66 919.02 2042.58 C 932.664 2043.9 955.977 2045.23 968.147 2048 L 0 2048 L 0 1069.95 z"/>
<path transform="translate(0,0)" fill="rgb(254,255,254)" d="M 1087.93 0 L 2048 0 L 2048 980.333 C 2046.18 968.005 2045.59 954.059 2044.57 941.512 C 2043.13 923.145 2041.18 904.819 2038.75 886.556 C 2027.41 802.621 2005.7 720.416 1974.13 641.826 C 1892.74 439.194 1748.6 267.949 1562.83 153.177 C 1530.87 133.475 1488 108.738 1453.18 94.0691 C 1440.78 87.2489 1415.39 77.2854 1402.24 72.1022 C 1329.53 43.3145 1253.8 22.8888 1176.48 11.2191 C 1163.33 9.23554 1150.12 7.59468 1136.89 6.29818 C 1125.21 5.18153 1097.24 3.43304 1087.93 0 z"/>
<path transform="translate(0,0)" fill="rgb(254,255,254)" d="M 1329.09 2001.37 C 1344.13 1998.05 1374.14 1986.62 1388.71 1981.01 C 1480.4 1946.01 1566.6 1898.08 1644.71 1838.67 C 1837.96 1691.7 1972.59 1480.73 2024.47 1243.55 C 2032.59 1206.67 2038.59 1169.36 2042.44 1131.8 C 2044.44 1112.59 2045.25 1088.94 2047.82 1070.66 L 2048 1069.47 L 2048 2048 L 1081.84 2048 C 1094.72 2044.61 1133.38 2042.38 1149.09 2040.56 C 1196.26 2034.93 1242.96 2025.88 1288.82 2013.48 C 1299.4 2010.63 1319.15 2005.51 1329.09 2001.37 z"/>
<path transform="translate(0,0)" fill="url(#Gradient14)" d="M 0 981.49 C 2.37293 970.031 3.53101 943.463 4.51461 930.715 C 6.28088 908.61 8.93349 886.584 12.466 864.69 C 32.8065 735.95 77.4667 612.258 144.062 500.219 C 252.366 318.64 414.046 174.89 607.049 88.5756 C 635.314 76.0092 688.486 54.2903 718.711 46.6529 L 718.878 47.8531 C 715.509 48.9469 708.946 50.5129 706.843 52.6887 C 708.671 55.5519 710.981 57.7879 710.972 61.169 C 706.1 73.2342 685.787 94.1066 673.727 99.465 L 672.962 103.221 C 677.1 103.779 685.032 96.0228 693.253 97.4937 C 649.345 114.127 613.647 128.863 571.732 150.64 C 375.081 252.546 218.604 417.874 127.661 619.829 C 20.489 858.044 12.2799 1129.06 104.838 1373.33 C 197.934 1617.57 384.332 1814.77 622.948 1921.45 C 642.466 1930.24 661.677 1937.19 681.065 1945.52 L 680.728 1947.61 C 686.597 1952.52 703.97 1960.41 711.226 1958.33 C 717.489 1965.51 724.975 1968.55 727.34 1979.8 C 729.035 1987.87 719.363 1993.89 722.698 2000.64 C 733.651 2006.19 788.683 2017.64 791.746 2021.22 C 776.948 2019.14 742.576 2008.92 727.953 2004.51 C 614.957 1970.15 508.698 1916.64 413.807 1846.32 C 213.744 1698.12 74.6441 1482 22.6112 1238.52 C 15.036 1204.22 9.44254 1169.52 5.8588 1134.58 C 3.72644 1113.88 2.96088 1090 0 1069.95 L 0 981.49 z"/>
<path transform="translate(0,0)" fill="url(#Gradient13)" d="M 1453.18 94.0691 C 1488 108.738 1530.87 133.475 1562.83 153.177 C 1748.6 267.949 1892.74 439.194 1974.13 641.826 C 2005.7 720.416 2027.41 802.621 2038.75 886.556 C 2041.18 904.819 2043.13 923.145 2044.57 941.512 C 2045.59 954.059 2046.18 968.005 2048 980.333 L 2048 1069.47 L 2047.82 1070.66 C 2045.25 1088.94 2044.44 1112.59 2042.44 1131.8 C 2038.59 1169.36 2032.59 1206.67 2024.47 1243.55 C 1972.59 1480.73 1837.96 1691.7 1644.71 1838.67 C 1566.6 1898.08 1480.4 1946.01 1388.71 1981.01 C 1374.14 1986.62 1344.13 1998.05 1329.09 2001.37 L 1328.74 2000.43 C 1333.6 1998.3 1341.82 1996.62 1344.61 1995.45 C 1356.91 1990.29 1340.36 1969.17 1356.23 1963.02 L 1362.22 1960.74 C 1367.4 1950.45 1375.94 1954.06 1381.96 1946.4 C 1384.55 1943.1 1386.12 1941.79 1389.23 1938.95 C 1380.05 1942.77 1327.2 1963.36 1319.35 1962.29 C 1332.95 1956.81 1351.6 1951.03 1366.04 1945.67 C 1394.71 1935.19 1422.83 1923.24 1450.28 1909.87 C 1637.77 1819.79 1791.85 1672.55 1890.37 1489.35 C 2012.37 1261.96 2040.22 995.764 1967.92 748.05 C 1903.51 526.87 1763.36 335.393 1571.99 207.142 C 1543.2 187.797 1513.39 170.02 1482.69 153.888 C 1470.8 147.551 1458.44 141.968 1446.71 135.591 L 1447.74 134.906 C 1450.48 135.143 1459.09 140.204 1462.41 141.81 L 1463.6 140.926 C 1455.9 133.153 1443.76 125.803 1438.26 118.364 C 1439.77 106.461 1442.81 110.721 1433.4 101.55 L 1433.68 99.8615 C 1436.97 98.9729 1437.96 99.6901 1441.58 100.424 C 1444.24 95.2655 1445.58 97.1273 1451.68 94.684 L 1453.18 94.0691 z"/>
<path transform="translate(0,0)" fill="url(#Gradient12)" d="M 966.437 0 L 1087.93 0 C 1097.24 3.43304 1125.21 5.18153 1136.89 6.29818 C 1150.12 7.59468 1163.33 9.23554 1176.48 11.2191 C 1253.8 22.8888 1329.53 43.3145 1402.24 72.1022 C 1415.39 77.2854 1440.78 87.2489 1453.18 94.0691 L 1451.68 94.684 C 1445.58 97.1273 1444.24 95.2655 1441.58 100.424 C 1437.96 99.6901 1436.97 98.9729 1433.68 99.8615 L 1433.4 101.55 C 1442.81 110.721 1439.77 106.461 1438.26 118.364 C 1443.76 125.803 1455.9 133.153 1463.6 140.926 L 1462.41 141.81 C 1459.09 140.204 1450.48 135.143 1447.74 134.906 L 1446.71 135.591 C 1433.23 129.801 1420.06 123.321 1406.36 117.565 C 1376.94 105.429 1347.03 94.4992 1316.71 84.8034 C 1154.07 34.3708 981.156 26.7858 814.721 62.7828 C 771.514 72.2079 734.914 83.5373 693.253 97.4937 C 685.032 96.0228 677.1 103.779 672.962 103.221 L 673.727 99.465 C 685.787 94.1066 706.1 73.2342 710.972 61.169 C 710.981 57.7879 708.671 55.5519 706.843 52.6887 C 708.946 50.5129 715.509 48.9469 718.878 47.8531 L 718.711 46.6529 C 725.481 43.6685 745.258 38.5095 752.716 36.4581 C 801.163 23.1713 850.522 13.4614 900.392 7.40677 C 912.628 5.93686 958.595 3.32456 966.437 0 z"/>
<path transform="translate(0,0)" fill="rgb(232,209,126)" d="M 1389.23 1938.95 C 1386.12 1941.79 1384.55 1943.1 1381.96 1946.4 C 1375.94 1954.06 1367.4 1950.45 1362.22 1960.74 L 1356.23 1963.02 C 1340.36 1969.17 1356.91 1990.29 1344.61 1995.45 C 1341.82 1996.62 1333.6 1998.3 1328.74 2000.43 L 1329.09 2001.37 C 1319.15 2005.51 1299.4 2010.63 1288.82 2013.48 C 1242.96 2025.88 1196.26 2034.93 1149.09 2040.56 C 1133.38 2042.38 1094.72 2044.61 1081.84 2048 L 968.147 2048 C 955.977 2045.23 932.664 2043.9 919.02 2042.58 C 888.991 2039.66 859.111 2035.37 829.472 2029.73 C 819.584 2027.87 801.089 2024.41 791.746 2021.22 C 788.683 2017.64 733.651 2006.19 722.698 2000.64 C 719.363 1993.89 729.035 1987.87 727.34 1979.8 C 724.975 1968.55 717.489 1965.51 711.226 1958.33 C 719.99 1960.56 757.827 1974.89 763.737 1972.7 C 763.813 1972.67 763.873 1972.61 763.941 1972.56 C 792.635 1978.17 819.466 1986.36 850.145 1991.75 C 971.256 2013.49 1095.37 2012.41 1216.08 1988.55 C 1238.75 1983.86 1261.27 1978.5 1283.63 1972.49 C 1295.21 1969.3 1307.97 1964.91 1319.35 1962.29 C 1327.2 1963.36 1380.05 1942.77 1389.23 1938.95 z"/>
<path transform="translate(0,0)" fill="rgb(220,194,114)" d="M 681.065 1945.52 C 698.399 1951.72 715.852 1957.59 733.414 1963.11 C 739.168 1964.91 759.382 1970.55 763.941 1972.56 C 763.873 1972.61 763.813 1972.67 763.737 1972.7 C 757.827 1974.89 719.99 1960.56 711.226 1958.33 C 703.97 1960.41 686.597 1952.52 680.728 1947.61 L 681.065 1945.52 z"/>
<path transform="translate(0,0)" fill="rgb(242,53,84)" d="M 1644.12 511.749 C 1653.06 509.967 1662.85 507.779 1671.84 506.822 C 1651.02 514.568 1631.7 520.287 1610.3 528.717 C 1601.39 537.346 1577.1 543.773 1566.72 550.572 C 1560.95 554.349 1532.26 566.954 1530.32 569.967 C 1521.74 583.299 1509.71 585.722 1498.6 595.714 C 1492.3 601.377 1484.68 620.752 1478.16 627.901 C 1469.38 638.097 1455.67 647.311 1446.03 656.924 C 1436.35 666.573 1427.14 678.303 1416.46 686.969 C 1410.85 691.358 1406.32 698.195 1400.93 703.083 C 1380.3 721.8 1336.48 764.261 1330.64 791.16 C 1334.58 810.796 1347.1 815.299 1360.43 827.732 C 1366.6 833.513 1371.9 840.158 1376.17 847.461 C 1399.74 888.175 1417.62 981.609 1417.48 1028.64 C 1417.44 1041.46 1416.93 1055.12 1415.17 1067.8 C 1411.19 1096.43 1397.95 1150.8 1383.08 1175.25 C 1372.57 1192.52 1353.87 1198.95 1353.3 1221.87 C 1356.8 1242.52 1375.04 1280.92 1385.72 1299.84 C 1391.9 1310.77 1417.92 1352.47 1419 1361 C 1421.63 1362.6 1439.95 1395.16 1443.51 1400.03 C 1448.75 1407.19 1455.53 1424.6 1460.93 1431.29 C 1470.59 1444.35 1472.61 1456.91 1479.07 1471.61 C 1483.25 1481.12 1488.26 1489.88 1493 1498.99 C 1500.7 1513.76 1502.04 1539.2 1499.34 1555.63 C 1496.06 1575.64 1488.76 1594.36 1471.67 1606.86 C 1447.86 1624.28 1426.5 1622.03 1398.58 1618.75 C 1395.8 1618.42 1392.69 1616.24 1390.36 1614.66 L 1389.18 1614.75 C 1393.16 1619.08 1396.01 1617.91 1397.68 1621.64 L 1396.73 1622.34 C 1382.57 1614.41 1345.15 1570.18 1331.53 1557.33 C 1330.7 1556.55 1313.44 1514.98 1312.82 1512.55 C 1309.3 1501.55 1300.78 1481.81 1293.43 1472.18 C 1291.34 1469.45 1282.34 1465.56 1279.59 1460.86 L 1280.6 1459.85 L 1287.42 1462.78 C 1285.75 1459.86 1283.37 1450.93 1282.31 1447.28 C 1273.38 1428.49 1255.87 1405.45 1244.08 1388 C 1239.57 1381.33 1228.58 1373.57 1223.74 1367.16 C 1220.07 1366.39 1214.38 1364.81 1210.5 1364.86 C 1207.47 1364.9 1199.32 1370.52 1197.71 1370.75 C 1175.62 1390.92 1146.07 1397.89 1118.55 1408.22 C 1113.94 1409.95 1100.27 1411.15 1094.57 1411.98 C 1060.97 1417.04 1026.96 1418.81 993.01 1417.28 C 969.446 1416.22 941.864 1408.58 918.616 1403.56 C 908.834 1401.45 869.73 1383.9 865.949 1375.17 C 854.987 1367.27 852.751 1369.78 840.44 1369.63 C 822.08 1382.57 806.869 1401.64 791.163 1416.83 L 791.364 1418.01 C 789.258 1421.64 784.091 1427.94 780.431 1429.55 C 773.255 1432.71 770.468 1446.96 767.821 1455.74 L 766.903 1455.33 C 766.4 1453.14 766.531 1452.27 765.365 1450.66 C 759.307 1456.06 756.386 1461.25 751.374 1467.49 L 726.547 1498.88 C 715.709 1512.86 699.406 1528.29 692.524 1545.38 C 691.29 1548.45 668.409 1563.41 664.796 1567.06 C 658.107 1573.68 652.277 1585.33 644.287 1590.67 C 596.331 1622.74 540.286 1628.42 501.678 1579.41 C 492.302 1567.51 478.991 1531.73 481.193 1517 C 491.036 1451.19 540.477 1402.37 581.237 1353.49 C 588.898 1344.33 603.173 1324.03 611.356 1318.12 L 613.005 1316.95 C 613.858 1316.33 614.712 1315.72 615.566 1315.1 C 617.108 1311.56 617.657 1313.23 619.156 1311.28 C 626.633 1301.23 634.114 1291.11 641.648 1281.12 C 645.664 1275.79 657.321 1265.34 657.851 1259.19 L 657.271 1258.47 C 656.071 1247.47 655.532 1248.98 656.598 1236.85 C 655.568 1237.18 654.539 1237.5 653.51 1237.83 C 648.817 1240.05 633.877 1244.02 629.183 1241.1 C 595.692 1220.33 586.316 1171.09 575.302 1135.71 C 574.022 1129.91 571.56 1124.49 570.144 1118.77 C 568.734 1113.06 567.925 1106.94 567.068 1101.19 C 566.379 1096.56 566.239 1089.89 564.317 1085.91 C 561.048 1079.15 562.879 1072.45 562.401 1065.03 C 561.885 1056.99 560.806 1048.79 560.574 1040.68 C 559.897 1015.36 561.148 990.021 564.316 964.887 C 572.249 899.486 592.741 847.192 626.455 790.997 C 633.101 780.523 640.311 765.611 649.323 757.26 C 677.99 730.694 680.689 723.688 719.771 730.411 C 719.09 722.644 713.799 714.944 724.247 709.02 C 719.336 696.953 669.279 646.164 657.832 634.621 C 652.731 629.477 638.765 618.962 633.157 613.41 C 628.549 607.96 626.576 598.53 620.451 594.6 C 588.069 573.818 554.368 556.007 519.138 540.582 C 516.99 539.642 515.733 538.032 514.37 536.195 C 498.588 529.321 482.558 523.033 466.312 517.345 C 460.769 515.414 445.009 511.299 441.293 509.321 C 479.971 508.441 575.238 547.283 611.648 565.538 C 622.091 570.774 646.277 584.856 654.978 588.207 L 656.344 586.862 C 663.205 588.247 667.844 587.921 674.851 590.144 C 684.384 593.27 692.542 600.96 701.96 603.62 C 740.682 614.751 781.33 639.269 817.91 655.747 C 854.144 672.069 864.331 690.659 900.059 656.946 C 906.86 650.528 925.299 640.875 934.492 639.662 C 938.266 640.166 940.266 636.028 943.15 635.836 C 954.102 635.32 965.849 631.628 976.734 631.33 C 1009.66 630.432 1042.79 625.063 1075.58 630.659 C 1107.82 636.161 1141.06 639.612 1169.79 656.414 C 1181.93 663.515 1188.69 674.633 1198.75 683.992 C 1202.03 687.954 1217.83 695.342 1223.04 693.15 C 1253.44 680.364 1282.93 661.823 1312.59 647.076 C 1317.73 644.522 1324.03 635.721 1328.46 633.568 C 1342.75 626.615 1354.58 617.825 1368.28 610.009 C 1390.39 598.733 1412.52 588.143 1434.13 575.85 C 1443 570.807 1461.93 570.294 1471.73 566.62 C 1480.61 563.293 1489.33 557.561 1498.84 555.537 C 1503.04 554.751 1512.76 557.14 1515.74 555.746 C 1528.04 549.979 1540.76 544.128 1553.27 538.807 C 1575.01 529.747 1597.33 522.158 1620.08 516.093 C 1626.9 514.259 1637.6 510.944 1644.12 511.749 z"/>
<path transform="translate(0,0)" fill="rgb(213,33,81)" d="M 1424.04 639.459 L 1430.18 637.76 C 1436.24 649.992 1422.82 676.115 1416.46 686.969 C 1410.85 691.358 1406.32 698.195 1400.93 703.083 C 1380.3 721.8 1336.48 764.261 1330.64 791.16 C 1334.58 810.796 1347.1 815.299 1360.43 827.732 C 1366.6 833.513 1371.9 840.158 1376.17 847.461 C 1399.74 888.175 1417.62 981.609 1417.48 1028.64 C 1417.44 1041.46 1416.93 1055.12 1415.17 1067.8 C 1411.19 1096.43 1397.95 1150.8 1383.08 1175.25 C 1372.57 1192.52 1353.87 1198.95 1353.3 1221.87 C 1356.8 1242.52 1375.04 1280.92 1385.72 1299.84 C 1391.9 1310.77 1417.92 1352.47 1419 1361 C 1421.63 1362.6 1439.95 1395.16 1443.51 1400.03 C 1448.75 1407.19 1455.53 1424.6 1460.93 1431.29 C 1470.59 1444.35 1472.61 1456.91 1479.07 1471.61 C 1483.25 1481.12 1488.26 1489.88 1493 1498.99 C 1500.7 1513.76 1502.04 1539.2 1499.34 1555.63 C 1496.06 1575.64 1488.76 1594.36 1471.67 1606.86 C 1447.86 1624.28 1426.5 1622.03 1398.58 1618.75 C 1395.8 1618.42 1392.69 1616.24 1390.36 1614.66 L 1389.18 1614.75 C 1393.16 1619.08 1396.01 1617.91 1397.68 1621.64 L 1396.73 1622.34 C 1382.57 1614.41 1345.15 1570.18 1331.53 1557.33 C 1330.7 1556.55 1313.44 1514.98 1312.82 1512.55 C 1309.3 1501.55 1300.78 1481.81 1293.43 1472.18 C 1291.34 1469.45 1282.34 1465.56 1279.59 1460.86 L 1280.6 1459.85 L 1287.42 1462.78 C 1285.75 1459.86 1283.37 1450.93 1282.31 1447.28 C 1273.38 1428.49 1255.87 1405.45 1244.08 1388 C 1239.57 1381.33 1228.58 1373.57 1223.74 1367.16 C 1220.07 1366.39 1214.38 1364.81 1210.5 1364.86 C 1207.47 1364.9 1199.32 1370.52 1197.71 1370.75 C 1175.62 1390.92 1146.07 1397.89 1118.55 1408.22 C 1113.94 1409.95 1100.27 1411.15 1094.57 1411.98 C 1060.97 1417.04 1026.96 1418.81 993.01 1417.28 C 969.446 1416.22 941.864 1408.58 918.616 1403.56 C 908.834 1401.45 869.73 1383.9 865.949 1375.17 C 854.987 1367.27 852.751 1369.78 840.44 1369.63 C 822.08 1382.57 806.869 1401.64 791.163 1416.83 C 770.252 1427.52 771.593 1444.06 753.299 1453.88 C 745.701 1457.96 735.79 1473.51 728.013 1473.21 C 729.638 1469.69 730.496 1465.32 731.868 1461.53 L 730.804 1460.65 L 729.765 1460.87 C 729.895 1460.43 730.025 1459.98 730.155 1459.54 C 730.89 1454.97 731.584 1450.03 732.906 1445.58 C 732.934 1445.49 729.841 1445.07 727.7 1441.41 C 727.83 1431.52 745.016 1423.15 749.692 1409.31 L 747.884 1407.62 C 746.215 1409.16 742.661 1412.5 741.739 1414.39 C 739.468 1419.04 720.869 1431.81 721.172 1435.17 L 723.485 1435.53 C 717.261 1450.56 710.561 1450.61 699.934 1461.64 C 699.687 1461.9 701.287 1465.95 701.524 1466.51 C 695.593 1471.6 689.951 1471.29 684.397 1477.43 L 683.24 1477.25 C 686.023 1471.86 689.909 1469.38 692.149 1464.69 L 691.405 1463.84 C 696.116 1456.48 705.371 1445.14 711.056 1437.84 L 748.126 1390.6 C 783.649 1345.28 817.541 1300.96 853.878 1256.05 L 992.872 1084.76 C 996.844 1079.81 1000.97 1073.4 1005.3 1067.96 C 1025.18 1042.88 1045.95 1018.52 1067.55 994.917 C 1071.66 998.164 1072.41 1003.88 1078.54 1005.16 C 1076.83 999.502 1075.26 999.249 1073.13 993.88 C 1073.21 989.497 1076.32 986.106 1079.11 982.779 C 1082.87 984.096 1084.2 989.112 1089.09 992.475 C 1085.66 983.943 1087.77 985.825 1080.59 978.567 C 1084.56 974.311 1087.99 969.24 1092.15 964.674 C 1105.01 950.82 1125.92 924.032 1138.67 912.832 C 1157.94 890.309 1176.35 871.214 1196.54 849.652 C 1245.64 796.568 1297.45 746.045 1351.74 698.281 C 1368.89 683.284 1405.45 651.945 1424.04 639.459 z"/>
<path transform="translate(0,0)" fill="url(#Gradient11)" d="M 1424.04 639.459 L 1430.18 637.76 C 1436.24 649.992 1422.82 676.115 1416.46 686.969 C 1410.85 691.358 1406.32 698.195 1400.93 703.083 C 1380.3 721.8 1336.48 764.261 1330.64 791.16 C 1334.58 810.796 1347.1 815.299 1360.43 827.732 C 1366.6 833.513 1371.9 840.158 1376.17 847.461 C 1399.74 888.175 1417.62 981.609 1417.48 1028.64 C 1417.44 1041.46 1416.93 1055.12 1415.17 1067.8 C 1411.19 1096.43 1397.95 1150.8 1383.08 1175.25 C 1372.57 1192.52 1353.87 1198.95 1353.3 1221.87 C 1356.8 1242.52 1375.04 1280.92 1385.72 1299.84 C 1391.9 1310.77 1417.92 1352.47 1419 1361 C 1417.16 1366.14 1430.05 1402.23 1429.36 1407.52 C 1428.02 1405.7 1428.64 1406.49 1426.18 1405.37 L 1425.08 1406.39 L 1425.28 1410.26 L 1424.08 1409.88 L 1422.59 1410.41 C 1422.11 1410.26 1421.63 1410.1 1421.15 1409.95 C 1417.32 1401.03 1413.22 1389.83 1408.54 1381.67 C 1409.65 1385.02 1411.36 1387.01 1410.74 1390.35 L 1409.61 1390.13 C 1403.49 1377.41 1404.23 1380.58 1393.24 1372.87 C 1392.84 1372.59 1385.68 1361.34 1384.28 1359.5 C 1378.61 1352.07 1372.5 1344.74 1367.25 1336.99 C 1362.14 1328.77 1354.22 1327.52 1349.91 1320.94 C 1341.22 1307.68 1316.18 1259.96 1306.15 1251.93 C 1253.98 1166.1 1187.79 1076.52 1124.6 998.356 C 1117.02 990.883 1107.6 975.808 1096.86 968.913 C 1094.54 967.422 1093.93 966.723 1092.15 964.674 C 1105.01 950.82 1125.92 924.032 1138.67 912.832 C 1157.94 890.309 1176.35 871.214 1196.54 849.652 C 1245.64 796.568 1297.45 746.045 1351.74 698.281 C 1368.89 683.284 1405.45 651.945 1424.04 639.459 z"/>
<path transform="translate(0,0)" fill="url(#Gradient10)" d="M 1424.04 639.459 L 1430.18 637.76 C 1436.24 649.992 1422.82 676.115 1416.46 686.969 C 1410.85 691.358 1406.32 698.195 1400.93 703.083 C 1380.3 721.8 1336.48 764.261 1330.64 791.16 C 1305.12 793.531 1281.39 815.381 1262.3 830.17 C 1252.96 837.403 1241.12 842.996 1232.65 850.875 C 1215.97 866.393 1200.67 884.376 1185.33 901.271 C 1181.04 905.999 1176.7 914.524 1172.99 919.843 C 1158.35 940.831 1152.89 958.577 1154.59 984.331 C 1155.52 998.489 1167.27 1006.17 1173.2 1016.64 C 1173.3 1016.75 1173.4 1016.87 1173.5 1016.98 C 1173.07 1009.85 1172.78 1008.5 1170.76 1001.61 C 1175.41 1009.86 1177.46 1016.98 1182.69 1025.35 C 1187.84 1033.57 1193.45 1036.53 1198.21 1042.95 L 1197.71 1043.8 C 1195.73 1042.09 1183.07 1029.27 1183.76 1029.62 C 1185.57 1046.7 1220.15 1081.71 1232.05 1094.9 C 1238.14 1101.65 1243.4 1113.07 1248.88 1120.2 C 1270.32 1148.1 1296.29 1177.51 1322.58 1200.84 C 1325.46 1203.39 1352.09 1221.63 1353.3 1221.87 C 1356.8 1242.52 1375.04 1280.92 1385.72 1299.84 C 1391.9 1310.77 1417.92 1352.47 1419 1361 C 1417.16 1366.14 1430.05 1402.23 1429.36 1407.52 C 1428.02 1405.7 1428.64 1406.49 1426.18 1405.37 L 1425.08 1406.39 L 1425.28 1410.26 L 1424.08 1409.88 L 1422.59 1410.41 C 1422.11 1410.26 1421.63 1410.1 1421.15 1409.95 C 1417.32 1401.03 1413.22 1389.83 1408.54 1381.67 C 1409.65 1385.02 1411.36 1387.01 1410.74 1390.35 L 1409.61 1390.13 C 1403.49 1377.41 1404.23 1380.58 1393.24 1372.87 C 1392.84 1372.59 1385.68 1361.34 1384.28 1359.5 C 1378.61 1352.07 1372.5 1344.74 1367.25 1336.99 C 1362.14 1328.77 1354.22 1327.52 1349.91 1320.94 C 1341.22 1307.68 1316.18 1259.96 1306.15 1251.93 C 1253.98 1166.1 1187.79 1076.52 1124.6 998.356 C 1117.02 990.883 1107.6 975.808 1096.86 968.913 C 1094.54 967.422 1093.93 966.723 1092.15 964.674 C 1105.01 950.82 1125.92 924.032 1138.67 912.832 C 1157.94 890.309 1176.35 871.214 1196.54 849.652 C 1245.64 796.568 1297.45 746.045 1351.74 698.281 C 1368.89 683.284 1405.45 651.945 1424.04 639.459 z"/>
<path transform="translate(0,0)" fill="rgb(196,16,57)" d="M 1092.15 964.674 C 1105.01 950.82 1125.92 924.032 1138.67 912.832 C 1135.65 923.174 1117.84 935.481 1113.35 946.162 C 1112.76 947.561 1114.23 960.792 1113.62 963.571 C 1113.5 966.212 1110.8 976.66 1111.35 977.767 C 1115.26 985.762 1121.8 988.916 1124.6 998.356 C 1117.02 990.883 1107.6 975.808 1096.86 968.913 C 1094.54 967.422 1093.93 966.723 1092.15 964.674 z"/>
<path transform="translate(0,0)" fill="url(#Gradient9)" d="M 840.44 1369.63 L 840.692 1368.53 C 850.148 1358.99 861.462 1346.92 868.244 1335.29 C 876.33 1321.42 883.756 1307.73 893.069 1294.43 C 898.497 1286.68 895.353 1285.93 904.35 1280.55 C 904.573 1277.5 904.823 1275.76 905.31 1272.79 C 906.924 1271.36 908.113 1270.9 910.107 1270.09 C 912.161 1262.81 918.259 1239.41 924.917 1236.21 L 924.437 1241.07 C 937.247 1229.72 955.72 1202.45 965.981 1187.39 C 967.973 1184.47 975.241 1170.98 976.725 1169.37 C 993.101 1151.64 1007.59 1128.77 1026.79 1114.15 C 1030.84 1111.08 1049 1107.11 1056.48 1103.88 C 1061.31 1104.37 1064.57 1105.37 1068.9 1107.7 C 1078.11 1112.74 1086.29 1119.47 1093.02 1127.54 C 1100.78 1136.88 1109.19 1154.34 1116.26 1165.18 L 1141.01 1202.93 C 1143.59 1206.94 1151.9 1217.23 1153.51 1220.77 C 1160.29 1235.68 1167.14 1250.76 1174.33 1265.49 C 1178.81 1274.68 1180.06 1287.7 1184.25 1296.25 C 1187.8 1303.48 1194.87 1312.55 1198.78 1320.02 C 1203.09 1328.22 1206.37 1336.37 1210.8 1344.52 C 1214.41 1351.18 1221.76 1360.28 1223.74 1367.16 C 1220.07 1366.39 1214.38 1364.81 1210.5 1364.86 C 1207.47 1364.9 1199.32 1370.52 1197.71 1370.75 C 1175.62 1390.92 1146.07 1397.89 1118.55 1408.22 C 1113.94 1409.95 1100.27 1411.15 1094.57 1411.98 C 1060.97 1417.04 1026.96 1418.81 993.01 1417.28 C 969.446 1416.22 941.864 1408.58 918.616 1403.56 C 908.834 1401.45 869.73 1383.9 865.949 1375.17 C 854.987 1367.27 852.751 1369.78 840.44 1369.63 z"/>
<path transform="translate(0,0)" fill="rgb(29,97,126)" d="M 865.949 1375.17 C 886.51 1370.24 915.404 1374.38 936.621 1375.18 C 940.17 1375.31 948.557 1375.59 951.793 1376.25 C 973.722 1380.68 995.715 1385.64 1018.22 1384.27 C 1022.69 1384 1047.67 1380.98 1049.96 1381.41 L 1049.04 1382.73 C 1046.71 1386.12 1045.71 1387.37 1046.37 1390.85 C 1049.33 1392.57 1051.23 1392.72 1053.87 1390.6 C 1055.35 1386.86 1055.21 1386.38 1055.31 1382.21 L 1055.33 1381.04 C 1068.4 1379.63 1080.59 1380.79 1094.45 1377.95 C 1118.6 1372.99 1140.79 1364.02 1166.01 1366.42 C 1173.44 1367.12 1191.63 1367.49 1197.71 1370.75 C 1175.62 1390.92 1146.07 1397.89 1118.55 1408.22 C 1113.94 1409.95 1100.27 1411.15 1094.57 1411.98 C 1060.97 1417.04 1026.96 1418.81 993.01 1417.28 C 969.446 1416.22 941.864 1408.58 918.616 1403.56 C 908.834 1401.45 869.73 1383.9 865.949 1375.17 z"/>
<path transform="translate(0,0)" fill="rgb(45,157,192)" d="M 1045.05 1170.51 C 1048.82 1170.31 1056.78 1171.19 1059.97 1173.3 C 1078.68 1185.68 1088.69 1211.06 1097.96 1231.57 C 1102.74 1242.17 1113.02 1272.9 1111.25 1285.88 C 1104.23 1296.64 1090.85 1303.26 1079.18 1307.84 C 1069.61 1311.6 1051.39 1310.86 1040.71 1310.61 C 1040.1 1308.65 1040.67 1309.44 1039.03 1308.23 C 1035.13 1311.73 1036.53 1311.22 1032.42 1311.37 C 1031.91 1309.79 1032.06 1310.72 1032.07 1308.51 C 1025.74 1308.98 1018.05 1309.44 1011.97 1307.55 C 1010.63 1305.45 1011.09 1305.98 1009.26 1304.21 C 1009.32 1304.18 1002.04 1306.8 1002.1 1306.77 C 994.464 1310.82 975.599 1301.82 972.166 1294.79 C 971.979 1292.69 970.68 1280.01 971.277 1278.84 C 978.233 1265.26 984.822 1251.62 991.26 1237.8 C 994.435 1230.69 999.231 1224.58 1003.29 1217.98 C 1012.11 1203.64 1026.97 1174.36 1045.05 1170.51 z"/>
<path transform="translate(0,0)" fill="rgb(189,196,230)" d="M 909.463 1271.76 C 911.808 1270.98 914.346 1272.2 915.194 1274.52 C 916.043 1276.84 914.894 1279.42 912.601 1280.34 C 911.055 1280.96 909.295 1280.68 908.007 1279.63 C 906.719 1278.57 906.107 1276.9 906.41 1275.26 C 906.713 1273.63 907.883 1272.28 909.463 1271.76 z"/>
<path transform="translate(0,0)" fill="rgb(189,196,230)" d="M 1174.39 1297.76 C 1176.34 1297.58 1178.13 1298.84 1178.62 1300.74 C 1179.1 1302.64 1178.12 1304.6 1176.32 1305.37 C 1174.88 1305.98 1173.22 1305.69 1172.07 1304.62 C 1170.92 1303.56 1170.51 1301.92 1171.01 1300.44 C 1171.51 1298.96 1172.83 1297.91 1174.39 1297.76 z"/>
<path transform="translate(0,0)" fill="rgb(127,62,102)" d="M 747.884 1407.62 C 760.809 1390.56 773.578 1377.98 788.799 1363.13 C 793.105 1358.93 799.268 1349.37 803.349 1344.26 C 811.258 1334.34 819.31 1324.36 826.835 1314.14 C 828.185 1313.56 834.588 1310.79 835.053 1309.93 C 846.807 1288.27 864.318 1270.85 877.041 1250.03 C 878.808 1244.98 886.794 1242.18 889.425 1238.14 C 901.983 1218.86 916.217 1200.44 931.216 1182.98 C 936.172 1177.22 940.323 1167.01 945.808 1160.97 C 961.884 1143.27 973.687 1122.31 989.884 1104.99 C 1004.24 1090.57 1024.7 1075.69 1043.27 1068.53 C 1050.5 1065.73 1068.45 1067.83 1075.38 1071.38 C 1081.08 1073.98 1098.23 1080.43 1103.47 1080.57 C 1102.2 1075.17 1093.79 1069.8 1094.14 1065.37 C 1105.85 1073.59 1220.67 1247.09 1233.65 1273.05 C 1233.81 1273.37 1234.32 1274.65 1234.62 1274.94 C 1235.15 1275.34 1235.67 1275.74 1236.19 1276.14 C 1240.74 1287.16 1250.48 1300.29 1256.6 1310.85 C 1270.31 1334.5 1284.26 1358.06 1297.45 1382 C 1298.42 1383.74 1302.49 1395.96 1302.48 1397.46 L 1300.64 1398.93 C 1306.48 1409.86 1319.73 1436.32 1320.23 1447.66 C 1320.59 1455.7 1329.28 1461.63 1327.92 1470.19 L 1326.67 1470.46 C 1321.83 1463.77 1311.58 1435.98 1307.86 1433.36 L 1306.23 1434.27 C 1308.01 1442.4 1322.57 1471.98 1328.5 1476.96 C 1333.77 1476.7 1335.68 1478.16 1334.41 1483.98 L 1332.89 1484.66 L 1332.56 1481.21 L 1331.23 1480.31 L 1331.8 1484.59 L 1329.08 1485.56 C 1343.94 1497.77 1336 1494.01 1342.15 1507.89 L 1341.71 1509.81 L 1340.38 1509.72 L 1339.75 1505.22 L 1338.17 1505.18 C 1337.15 1508.63 1337.95 1509.17 1337.71 1512.53 C 1333.22 1509.93 1330.36 1505.19 1326.73 1501.52 C 1322.19 1496.93 1317.08 1491.92 1312.73 1487.3 C 1307.67 1481.91 1292.3 1459.99 1287.62 1456.92 C 1291.5 1469.39 1311.11 1485.52 1311.81 1498.63 C 1311.29 1505.75 1312.65 1506.67 1312.82 1512.55 C 1309.3 1501.55 1300.78 1481.81 1293.43 1472.18 C 1291.34 1469.45 1282.34 1465.56 1279.59 1460.86 L 1280.6 1459.85 L 1287.42 1462.78 C 1285.75 1459.86 1283.37 1450.93 1282.31 1447.28 C 1273.38 1428.49 1255.87 1405.45 1244.08 1388 C 1239.57 1381.33 1228.58 1373.57 1223.74 1367.16 C 1221.76 1360.28 1214.41 1351.18 1210.8 1344.52 C 1206.37 1336.37 1203.09 1328.22 1198.78 1320.02 C 1194.87 1312.55 1187.8 1303.48 1184.25 1296.25 C 1180.06 1287.7 1178.81 1274.68 1174.33 1265.49 C 1167.14 1250.76 1160.29 1235.68 1153.51 1220.77 C 1151.9 1217.23 1143.59 1206.94 1141.01 1202.93 L 1116.26 1165.18 C 1109.19 1154.34 1100.78 1136.88 1093.02 1127.54 C 1086.29 1119.47 1078.11 1112.74 1068.9 1107.7 C 1064.57 1105.37 1061.31 1104.37 1056.48 1103.88 C 1049 1107.11 1030.84 1111.08 1026.79 1114.15 C 1007.59 1128.77 993.101 1151.64 976.725 1169.37 C 975.241 1170.98 967.973 1184.47 965.981 1187.39 C 955.72 1202.45 937.247 1229.72 924.437 1241.07 L 924.917 1236.21 C 918.259 1239.41 912.161 1262.81 910.107 1270.09 C 908.113 1270.9 906.924 1271.36 905.31 1272.79 C 904.823 1275.76 904.573 1277.5 904.35 1280.55 C 895.353 1285.93 898.497 1286.68 893.069 1294.43 C 883.756 1307.73 876.33 1321.42 868.244 1335.29 C 861.462 1346.92 850.148 1358.99 840.692 1368.53 L 840.44 1369.63 C 822.08 1382.57 806.869 1401.64 791.163 1416.83 C 770.252 1427.52 771.593 1444.06 753.299 1453.88 C 745.701 1457.96 735.79 1473.51 728.013 1473.21 C 729.638 1469.69 730.496 1465.32 731.868 1461.53 L 730.804 1460.65 L 729.765 1460.87 C 729.895 1460.43 730.025 1459.98 730.155 1459.54 C 730.89 1454.97 731.584 1450.03 732.906 1445.58 C 732.934 1445.49 729.841 1445.07 727.7 1441.41 C 727.83 1431.52 745.016 1423.15 749.692 1409.31 L 747.884 1407.62 z"/>
<path transform="translate(0,0)" fill="rgb(98,21,54)" d="M 1282.31 1447.28 C 1283.37 1442.58 1276.52 1427.89 1274.15 1422.62 L 1275.01 1421.95 C 1279.56 1426.74 1287.8 1442.43 1289.41 1448.57 C 1288.57 1451.7 1288.68 1451.53 1286.79 1454.14 C 1287.74 1456.27 1287.55 1455.36 1287.62 1456.92 C 1291.5 1469.39 1311.11 1485.52 1311.81 1498.63 C 1311.29 1505.75 1312.65 1506.67 1312.82 1512.55 C 1309.3 1501.55 1300.78 1481.81 1293.43 1472.18 C 1291.34 1469.45 1282.34 1465.56 1279.59 1460.86 L 1280.6 1459.85 L 1287.42 1462.78 C 1285.75 1459.86 1283.37 1450.93 1282.31 1447.28 z"/>
<path transform="translate(0,0)" fill="rgb(242,53,84)" d="M 1097.5 1028.35 L 1098.84 1027.67 L 1100.3 1029.42 C 1105.03 1025.21 1106.73 1023.35 1112.71 1020.78 C 1123.56 1034.73 1134.31 1048.76 1144.98 1062.85 C 1150.66 1070.44 1159.45 1083.15 1165.26 1090.03 C 1175.85 1097.18 1254.11 1211.87 1263.41 1228.72 L 1264.82 1229.51 L 1265.73 1229.03 C 1263.55 1221.55 1256.38 1218.42 1256.19 1210.16 C 1256.16 1208.95 1254.81 1203.66 1254.02 1202.71 C 1242.17 1188.42 1230.58 1174.56 1220.72 1158.72 C 1218.87 1155.74 1215.59 1153.62 1215.13 1150.2 C 1223.46 1148.91 1226.78 1161.81 1230.36 1166.44 C 1245.3 1185.77 1258.08 1205.46 1274.91 1223.52 C 1280.31 1229.34 1284.98 1246.06 1291.61 1250.38 L 1288.8 1251.47 C 1290.97 1260.74 1292.17 1264.46 1299.71 1271.11 L 1300.88 1270.93 C 1300.79 1268.01 1294.78 1257.99 1292.57 1255.47 C 1292.99 1254.76 1293.99 1252.99 1294.43 1252.37 C 1299.16 1260.8 1306.61 1278.24 1312.09 1283.95 C 1322.85 1295.4 1329.3 1310.6 1337.01 1324.48 C 1344.86 1338.6 1356.07 1352.57 1363.41 1366.47 C 1372.29 1383.3 1377.74 1395.61 1390.07 1410.52 C 1395.23 1416.75 1391.81 1427.3 1401.06 1438.1 C 1401.85 1436.21 1401.57 1436.65 1401.59 1434.42 C 1412.57 1457.13 1425.3 1479.02 1436.27 1501.67 C 1440.47 1509.82 1446.66 1518.19 1450.02 1526.71 C 1454.81 1538.85 1465.8 1555.14 1460.98 1568.5 C 1451.47 1594.86 1420.08 1602.22 1404.99 1575.47 C 1387.14 1543.9 1375.17 1509.56 1357.47 1477.9 C 1355.33 1474.07 1352.72 1468.38 1351.12 1464.32 C 1342.06 1441.38 1327.87 1420.86 1317.33 1398.6 C 1315.07 1393.83 1312.8 1388.86 1310.01 1384.37 C 1306.9 1379.66 1307.99 1375.47 1305.36 1370.77 C 1291.42 1352.73 1281.68 1333.5 1272.32 1312.82 C 1270.7 1309.23 1264.43 1303.88 1262.53 1300.17 C 1251.68 1278.91 1239.84 1257.36 1225.15 1238.52 C 1224.23 1237.33 1224.34 1235.76 1224.03 1234.38 C 1220.78 1222.65 1207.27 1208.78 1200.91 1198.87 C 1193.72 1187.67 1188.98 1174.53 1182.75 1162.71 C 1180.31 1158.06 1173.77 1151.52 1173.64 1148.56 L 1173.52 1149.45 L 1175.17 1148.29 L 1173.82 1150.3 L 1176.24 1148.68 C 1182.64 1153.75 1184.03 1168.3 1191.64 1174.77 L 1192.67 1173.47 L 1194 1173.33 L 1198.77 1177.51 L 1200.77 1177.3 C 1203.12 1180.4 1202.68 1179.98 1204.23 1183.41 C 1207.01 1189.58 1212.09 1194.7 1215.92 1200.74 L 1244.72 1246.41 C 1257.26 1266.07 1265.49 1285.51 1280.44 1304.05 C 1284.26 1308.79 1288.99 1322.92 1293.4 1325.51 C 1293.04 1316.63 1223.26 1211.53 1213.68 1194.84 C 1209.47 1187.5 1198.22 1174.66 1196.51 1165.79 C 1192.65 1158.28 1176.89 1136.44 1171.28 1128.43 C 1147.3 1094.62 1122.7 1061.25 1097.5 1028.35 z"/>
<path transform="translate(0,0)" fill="url(#Gradient8)" d="M 1097.5 1028.35 L 1098.84 1027.67 L 1100.3 1029.42 C 1105.03 1025.21 1106.73 1023.35 1112.71 1020.78 C 1123.56 1034.73 1134.31 1048.76 1144.98 1062.85 C 1150.66 1070.44 1159.45 1083.15 1165.26 1090.03 C 1201.74 1141.06 1235.3 1188.04 1269.41 1241.25 C 1284.51 1264.87 1299.38 1288.65 1314.01 1312.57 C 1323.1 1327.65 1332.09 1343.92 1341.46 1358.7 L 1365.74 1401.2 L 1387.97 1442.31 C 1390.33 1446.7 1396.25 1458.45 1398.49 1461.62 C 1401.43 1468.21 1411.47 1488.06 1415.44 1494.1 C 1417.06 1498.68 1420.67 1506.02 1423.35 1510.15 C 1428.8 1526.59 1444.45 1544.99 1446.19 1562.16 C 1447.58 1575.79 1427.48 1583.88 1420.13 1569.21 C 1414.32 1557.6 1409.09 1545.67 1403.55 1533.9 C 1392.21 1509.65 1380.63 1485.52 1368.81 1461.5 C 1332.36 1387.63 1292.23 1315.63 1248.57 1245.78 C 1234.95 1223.72 1212.24 1185.93 1196.51 1165.79 C 1192.65 1158.28 1176.89 1136.44 1171.28 1128.43 C 1147.3 1094.62 1122.7 1061.25 1097.5 1028.35 z"/>
<path transform="translate(0,0)" fill="rgb(247,105,121)" d="M 1398.49 1461.62 C 1406.04 1464.79 1410.18 1472.99 1413.64 1479.86 C 1419.19 1486.78 1423.94 1501.05 1423.35 1510.15 C 1420.67 1506.02 1417.06 1498.68 1415.44 1494.1 C 1411.47 1488.06 1401.43 1468.21 1398.49 1461.62 z"/>
<path transform="translate(0,0)" fill="rgb(247,105,121)" d="M 1341.46 1358.7 C 1351.49 1367.78 1365.06 1388.2 1370.13 1400.74 L 1369.84 1401.86 L 1365.74 1401.2 L 1341.46 1358.7 z"/>
<path transform="translate(0,0)" fill="url(#Gradient7)" d="M 1306.15 1251.93 C 1316.18 1259.96 1341.22 1307.68 1349.91 1320.94 C 1354.22 1327.52 1362.14 1328.77 1367.25 1336.99 C 1372.5 1344.74 1378.61 1352.07 1384.28 1359.5 C 1385.68 1361.34 1392.84 1372.59 1393.24 1372.87 C 1404.23 1380.58 1403.49 1377.41 1409.61 1390.13 L 1410.74 1390.35 C 1411.36 1387.01 1409.65 1385.02 1408.54 1381.67 C 1413.22 1389.83 1417.32 1401.03 1421.15 1409.95 C 1421.63 1410.1 1422.11 1410.26 1422.59 1410.41 L 1424.08 1409.88 L 1425.28 1410.26 L 1425.08 1406.39 L 1426.18 1405.37 C 1428.64 1406.49 1428.02 1405.7 1429.36 1407.52 C 1430.05 1402.23 1417.16 1366.14 1419 1361 C 1421.63 1362.6 1439.95 1395.16 1443.51 1400.03 C 1448.75 1407.19 1455.53 1424.6 1460.93 1431.29 C 1470.59 1444.35 1472.61 1456.91 1479.07 1471.61 C 1483.25 1481.12 1488.26 1489.88 1493 1498.99 C 1500.7 1513.76 1502.04 1539.2 1499.34 1555.63 C 1496.06 1575.64 1488.76 1594.36 1471.67 1606.86 C 1447.86 1624.28 1426.5 1622.03 1398.58 1618.75 C 1395.8 1618.42 1392.69 1616.24 1390.36 1614.66 L 1389.18 1614.75 C 1393.16 1619.08 1396.01 1617.91 1397.68 1621.64 L 1396.73 1622.34 C 1382.57 1614.41 1345.15 1570.18 1331.53 1557.33 C 1330.7 1556.55 1313.44 1514.98 1312.82 1512.55 C 1312.65 1506.67 1311.29 1505.75 1311.81 1498.63 C 1311.11 1485.52 1291.5 1469.39 1287.62 1456.92 C 1292.3 1459.99 1307.67 1481.91 1312.73 1487.3 C 1317.08 1491.92 1322.19 1496.93 1326.73 1501.52 C 1330.36 1505.19 1333.22 1509.93 1337.71 1512.53 C 1337.95 1509.17 1337.15 1508.63 1338.17 1505.18 L 1339.75 1505.22 L 1340.38 1509.72 L 1341.71 1509.81 L 1342.15 1507.89 C 1336 1494.01 1343.94 1497.77 1329.08 1485.56 L 1331.8 1484.59 L 1331.23 1480.31 L 1332.56 1481.21 L 1332.89 1484.66 L 1334.41 1483.98 C 1335.68 1478.16 1333.77 1476.7 1328.5 1476.96 C 1322.57 1471.98 1308.01 1442.4 1306.23 1434.27 L 1307.86 1433.36 C 1311.58 1435.98 1321.83 1463.77 1326.67 1470.46 L 1327.92 1470.19 C 1329.28 1461.63 1320.59 1455.7 1320.23 1447.66 C 1319.73 1436.32 1306.48 1409.86 1300.64 1398.93 L 1302.48 1397.46 C 1302.49 1395.96 1298.42 1383.74 1297.45 1382 C 1284.26 1358.06 1270.31 1334.5 1256.6 1310.85 C 1250.48 1300.29 1240.74 1287.16 1236.19 1276.14 C 1241.79 1280.32 1261.46 1315.37 1266.04 1323.35 C 1296.59 1375.84 1325.67 1429.18 1353.26 1483.29 C 1365.19 1506.93 1373.61 1531.15 1388 1553.89 C 1396.96 1568.04 1400.2 1588.46 1418.44 1595.43 C 1437.43 1602.69 1459.07 1593.52 1465.86 1574.4 C 1468.2 1567.8 1468.68 1560.69 1467.25 1553.84 C 1464.86 1542.59 1450.83 1515.83 1445.28 1503.93 C 1418.21 1445.77 1388.18 1389.02 1355.31 1333.92 C 1345.28 1316.82 1335.08 1299.82 1324.72 1282.91 C 1318.83 1273.34 1310.79 1261.81 1306.15 1251.93 z"/>
<path transform="translate(0,0)" fill="rgb(98,21,54)" d="M 1419 1361 C 1421.63 1362.6 1439.95 1395.16 1443.51 1400.03 C 1448.75 1407.19 1455.53 1424.6 1460.93 1431.29 C 1470.59 1444.35 1472.61 1456.91 1479.07 1471.61 C 1483.25 1481.12 1488.26 1489.88 1493 1498.99 C 1500.7 1513.76 1502.04 1539.2 1499.34 1555.63 C 1496.06 1575.64 1488.76 1594.36 1471.67 1606.86 C 1447.86 1624.28 1426.5 1622.03 1398.58 1618.75 C 1395.8 1618.42 1392.69 1616.24 1390.36 1614.66 L 1389.18 1614.75 C 1393.16 1619.08 1396.01 1617.91 1397.68 1621.64 L 1396.73 1622.34 C 1382.57 1614.41 1345.15 1570.18 1331.53 1557.33 C 1330.7 1556.55 1313.44 1514.98 1312.82 1512.55 C 1312.65 1506.67 1311.29 1505.75 1311.81 1498.63 C 1321.4 1521.67 1337.28 1563.22 1359.43 1577.14 C 1363.76 1579.85 1371.2 1580.56 1373.61 1586.46 L 1372.32 1586.94 C 1367.53 1585.99 1365.68 1583.72 1361.95 1580.49 L 1361.31 1580.8 C 1371.22 1593.72 1388.5 1613.63 1404.95 1614.36 C 1427.25 1615.32 1442.84 1618.09 1462.53 1605.4 C 1479.81 1594.25 1482.98 1591.47 1489.21 1570.89 C 1494.02 1554.71 1495.36 1519.63 1488.82 1503.97 C 1480.33 1483.68 1468.64 1451.63 1458.29 1432.61 C 1452.56 1423.85 1446.52 1410.7 1441.09 1401.29 C 1436.23 1392.86 1419.69 1368.9 1419 1361 z"/>
<path transform="translate(0,0)" fill="rgb(247,105,121)" d="M 1078.54 1005.16 C 1076.83 999.502 1075.26 999.249 1073.13 993.88 C 1073.21 989.497 1076.32 986.106 1079.11 982.779 C 1082.87 984.096 1084.2 989.112 1089.09 992.475 C 1092.26 994.968 1111.4 1017.75 1112.71 1020.78 C 1106.73 1023.35 1105.03 1025.21 1100.3 1029.42 L 1098.84 1027.67 L 1097.5 1028.35 C 1093.76 1026.33 1083.78 1010.19 1078.54 1005.16 z"/>
<path transform="translate(0,0)" fill="rgb(242,53,84)" d="M 1132.58 1028.32 C 1143.13 1031.71 1165.21 1065.62 1166.29 1076.73 L 1165.3 1077.89 L 1164.25 1077 C 1159.28 1069.28 1136.14 1046.79 1136.85 1039.84 L 1139.66 1039.63 C 1138.67 1036.24 1134.66 1034.9 1132.58 1028.32 z"/>
<path transform="translate(0,0)" fill="url(#Gradient6)" d="M 724.247 709.02 C 735.097 702.588 763.078 709.691 775.761 710.737 C 780.96 715.018 786.061 719.332 791.052 723.853 C 857.88 784.38 917.206 850.182 976.601 917.715 C 973.082 921.402 970.275 948.708 969.184 956.849 C 966.699 978.034 952.363 995.214 943.807 1014.5 C 942.803 1016.76 929.078 1029.43 925.793 1032.78 C 858.025 1101.79 787.412 1170.42 713.34 1232.56 C 706.847 1238.01 667.59 1259.54 662.018 1261.02 L 657.851 1259.19 L 657.271 1258.47 C 656.071 1247.47 655.532 1248.98 656.598 1236.85 C 655.568 1237.18 654.539 1237.5 653.51 1237.83 C 648.817 1240.05 633.877 1244.02 629.183 1241.1 C 595.692 1220.33 586.316 1171.09 575.302 1135.71 C 574.022 1129.91 571.56 1124.49 570.144 1118.77 C 568.734 1113.06 567.925 1106.94 567.068 1101.19 C 566.379 1096.56 566.239 1089.89 564.317 1085.91 C 561.048 1079.15 562.879 1072.45 562.401 1065.03 C 561.885 1056.99 560.806 1048.79 560.574 1040.68 C 559.897 1015.36 561.148 990.021 564.316 964.887 C 572.249 899.486 592.741 847.192 626.455 790.997 C 633.101 780.523 640.311 765.611 649.323 757.26 C 677.99 730.694 680.689 723.688 719.771 730.411 C 719.09 722.644 713.799 714.944 724.247 709.02 z"/>
<path transform="translate(0,0)" fill="url(#Gradient5)" d="M 724.247 709.02 C 735.097 702.588 763.078 709.691 775.761 710.737 C 780.96 715.018 786.061 719.332 791.052 723.853 C 857.88 784.38 917.206 850.182 976.601 917.715 C 973.082 921.402 970.275 948.708 969.184 956.849 C 966.699 978.034 952.363 995.214 943.807 1014.5 C 942.803 1016.76 929.078 1029.43 925.793 1032.78 C 858.025 1101.79 787.412 1170.42 713.34 1232.56 C 706.847 1238.01 667.59 1259.54 662.018 1261.02 L 657.851 1259.19 L 657.271 1258.47 C 656.071 1247.47 655.532 1248.98 656.598 1236.85 C 674.905 1231.15 683.237 1221.61 697.892 1211.03 C 714.395 1199.12 728.605 1191.56 740.707 1174.48 C 743.716 1170.23 756.366 1165.14 758.806 1156.51 C 759.747 1153.17 763.806 1152.28 766.891 1151.66 C 774.673 1145.24 780.566 1136.17 787.897 1129.27 C 798.333 1119.46 807.223 1112.51 813.705 1099.41 C 814.186 1098.44 824.568 1090.85 826.036 1089.88 C 838.536 1081.63 845.476 1073.45 852.111 1060.15 C 865.388 1053.73 864.525 1048.35 873.588 1038.05 C 880.154 1030.59 886.693 1022.02 893.496 1014.91 C 892.448 1018.57 889.865 1021.72 887.656 1024.9 C 898.043 1018.84 899.533 1011.43 907.206 1004.64 C 926.849 989.64 944.052 943.03 931.475 920.003 C 909.987 882.623 882.008 852.418 850.769 823.317 C 808.993 784.401 773.262 752.141 719.771 730.411 C 719.09 722.644 713.799 714.944 724.247 709.02 z"/>
<path transform="translate(0,0)" fill="rgb(45,157,192)" d="M 843.306 939.595 C 850.019 939.965 851.922 944.583 853.937 950.166 L 854.269 951.108 C 856.383 950.013 856.369 949.328 857.93 947.059 L 859.008 947.706 C 859.513 958.497 858.682 960.099 854.69 969.913 C 851.266 971.661 847.822 973.37 844.359 975.04 C 840.215 978.966 838.552 980.531 833.131 978.578 C 824.644 968.824 829.877 942.776 843.306 939.595 z"/>
<path transform="translate(0,0)" fill="rgb(254,255,254)" d="M 583.72 1019.49 C 585.123 1018.56 586.924 1018.47 588.413 1019.26 C 589.903 1020.04 590.842 1021.58 590.862 1023.27 C 590.881 1024.95 589.978 1026.51 588.507 1027.33 C 586.35 1028.54 583.627 1027.82 582.34 1025.72 C 581.053 1023.61 581.663 1020.86 583.72 1019.49 z"/>
<path transform="translate(0,0)" fill="rgb(188,234,254)" d="M 836.208 853.449 C 837.749 852.808 839.517 853.056 840.823 854.096 C 842.128 855.137 842.764 856.805 842.483 858.451 C 842.202 860.096 841.048 861.458 839.471 862.006 C 837.131 862.819 834.569 861.625 833.687 859.311 C 832.804 856.997 833.921 854.4 836.208 853.449 z"/>
<path transform="translate(0,0)" fill="url(#Gradient4)" d="M 514.37 536.195 C 498.588 529.321 482.558 523.033 466.312 517.345 C 460.769 515.414 445.009 511.299 441.293 509.321 C 479.971 508.441 575.238 547.283 611.648 565.538 C 622.091 570.774 646.277 584.856 654.978 588.207 L 656.344 586.862 C 663.205 588.247 667.844 587.921 674.851 590.144 C 684.384 593.27 692.542 600.96 701.96 603.62 C 740.682 614.751 781.33 639.269 817.91 655.747 C 854.144 672.069 864.331 690.659 900.059 656.946 C 906.86 650.528 925.299 640.875 934.492 639.662 C 938.266 640.166 940.266 636.028 943.15 635.836 C 954.102 635.32 965.849 631.628 976.734 631.33 C 1009.66 630.432 1042.79 625.063 1075.58 630.659 C 1107.82 636.161 1141.06 639.612 1169.79 656.414 C 1181.93 663.515 1188.69 674.633 1198.75 683.992 C 1202.03 687.954 1217.83 695.342 1223.04 693.15 C 1253.44 680.364 1282.93 661.823 1312.59 647.076 C 1317.73 644.522 1324.03 635.721 1328.46 633.568 C 1342.75 626.615 1354.58 617.825 1368.28 610.009 C 1390.39 598.733 1412.52 588.143 1434.13 575.85 C 1443 570.807 1461.93 570.294 1471.73 566.62 C 1480.61 563.293 1489.33 557.561 1498.84 555.537 C 1503.04 554.751 1512.76 557.14 1515.74 555.746 C 1528.04 549.979 1540.76 544.128 1553.27 538.807 C 1575.01 529.747 1597.33 522.158 1620.08 516.093 C 1626.9 514.259 1637.6 510.944 1644.12 511.749 C 1632.05 515.408 1581.37 527.69 1572.95 533.657 C 1487.38 563.345 1390.41 627.657 1317.8 681.758 C 1292.77 700.402 1268.73 721.645 1244.05 740.641 C 1240.9 744.384 1225.01 757.686 1220.62 761.501 C 1203.63 776.016 1186.89 790.81 1170.39 805.879 C 1145.28 828.677 1120.53 851.873 1096.15 875.457 C 1078.06 893.047 1056.9 914.994 1038.41 931.473 C 1033.16 925.932 1024.89 916.672 1019.2 912.132 C 1021.43 918.845 1029.97 925.466 1035.08 931.863 C 1032.42 934.847 1030.17 938.227 1026.43 939.16 C 1018.13 936.615 1017.79 926.934 1008.98 923.46 C 1013.11 930.224 1022.41 938.127 1024.78 944.319 C 1021.15 954.456 1000.57 971.354 991.196 977.858 C 994.703 970.639 1002.65 966.897 1005.91 960.282 C 1005.02 950.469 983.411 925.448 976.601 917.715 C 917.206 850.182 857.88 784.38 791.052 723.853 C 786.061 719.332 780.96 715.018 775.761 710.737 C 763.078 709.691 735.097 702.588 724.247 709.02 C 719.336 696.953 669.279 646.164 657.832 634.621 C 652.731 629.477 638.765 618.962 633.157 613.41 C 628.549 607.96 626.576 598.53 620.451 594.6 C 588.069 573.818 554.368 556.007 519.138 540.582 C 516.99 539.642 515.733 538.032 514.37 536.195 z"/>
<path transform="translate(0,0)" fill="url(#Gradient3)" d="M 514.37 536.195 C 498.588 529.321 482.558 523.033 466.312 517.345 C 460.769 515.414 445.009 511.299 441.293 509.321 C 479.971 508.441 575.238 547.283 611.648 565.538 C 622.091 570.774 646.277 584.856 654.978 588.207 C 726.138 628.765 793.41 675.793 855.941 728.695 C 902.965 768.785 948.377 810.728 992.07 854.425 C 998.051 860.478 1008.65 871.789 1015.09 876.862 C 1019.34 880.219 1035.6 873.551 1041.52 872.9 C 1046.33 872.37 1053.07 873.947 1057.74 873.885 C 1064.94 873.499 1073.63 871.276 1080.48 869.367 C 1084.98 868.114 1096.96 865.134 1100.4 862.251 C 1109.8 854.374 1123.96 845.433 1132.72 837.513 C 1168.73 804.937 1204.17 771.765 1241.66 740.878 C 1242.46 740.799 1243.25 740.72 1244.05 740.641 C 1240.9 744.384 1225.01 757.686 1220.62 761.501 C 1203.63 776.016 1186.89 790.81 1170.39 805.879 C 1145.28 828.677 1120.53 851.873 1096.15 875.457 C 1078.06 893.047 1056.9 914.994 1038.41 931.473 C 1033.16 925.932 1024.89 916.672 1019.2 912.132 C 1021.43 918.845 1029.97 925.466 1035.08 931.863 C 1032.42 934.847 1030.17 938.227 1026.43 939.16 C 1018.13 936.615 1017.79 926.934 1008.98 923.46 C 1013.11 930.224 1022.41 938.127 1024.78 944.319 C 1021.15 954.456 1000.57 971.354 991.196 977.858 C 994.703 970.639 1002.65 966.897 1005.91 960.282 C 1005.02 950.469 983.411 925.448 976.601 917.715 C 917.206 850.182 857.88 784.38 791.052 723.853 C 786.061 719.332 780.96 715.018 775.761 710.737 C 763.078 709.691 735.097 702.588 724.247 709.02 C 719.336 696.953 669.279 646.164 657.832 634.621 C 652.731 629.477 638.765 618.962 633.157 613.41 C 628.549 607.96 626.576 598.53 620.451 594.6 C 588.069 573.818 554.368 556.007 519.138 540.582 C 516.99 539.642 515.733 538.032 514.37 536.195 z"/>
<path transform="translate(0,0)" fill="rgb(247,105,121)" d="M 1008.98 923.46 C 1001.16 914.49 992.615 906.073 984.576 897.258 C 945.951 854.772 905.728 813.766 863.993 774.331 C 841.441 752.934 817.767 732.306 795.404 710.706 C 792.536 707.937 792.332 706.934 792.423 703.63 C 793.558 702.472 793.631 701.854 794.97 701.988 C 800.67 702.554 811.749 711.972 816.417 715.463 C 839.182 732.485 860.303 751.831 881.261 770.99 C 929.761 815.507 975.81 862.624 1019.2 912.132 C 1021.43 918.845 1029.97 925.466 1035.08 931.863 C 1032.42 934.847 1030.17 938.227 1026.43 939.16 C 1018.13 936.615 1017.79 926.934 1008.98 923.46 z"/>
<path transform="translate(0,0)" fill="rgb(98,21,54)" d="M 514.37 536.195 C 602.09 571.608 705.855 647.097 775.761 710.737 C 763.078 709.691 735.097 702.588 724.247 709.02 C 719.336 696.953 669.279 646.164 657.832 634.621 C 652.731 629.477 638.765 618.962 633.157 613.41 C 628.549 607.96 626.576 598.53 620.451 594.6 C 588.069 573.818 554.368 556.007 519.138 540.582 C 516.99 539.642 515.733 538.032 514.37 536.195 z"/>
<path transform="translate(0,0)" fill="url(#Gradient2)" d="M 1035.38 641.761 C 1062.54 648.6 1156.21 643.038 1156.8 683.645 C 1157.27 715.539 1146.19 759.456 1122.92 782.226 C 1113.82 791.13 1113.82 802.919 1101.08 808.997 C 1084.07 820.771 1078.13 822.041 1058.73 828.51 C 1046.29 828.624 1028.29 827.641 1016.77 820.045 C 990.558 801.695 969.38 773.773 951.771 747.027 C 941.817 731.909 927.795 683.04 938.465 665.973 C 946.978 652.356 978.059 643.729 993.787 644.61 C 1009.86 645.51 1017.63 645.291 1034.11 642.02 L 1035.38 641.761 z"/>
<path transform="translate(0,0)" fill="rgb(158,25,64)" d="M 976.601 917.715 C 983.411 925.448 1005.02 950.469 1005.91 960.282 C 1002.65 966.897 994.703 970.639 991.196 977.858 C 978.32 992.381 964.557 1004.75 951.245 1018.64 L 855.141 1120.42 C 838.01 1138.67 821.016 1157.86 803.959 1176.27 C 791.151 1190.1 778.502 1206.19 764.943 1219.28 C 747.731 1241.44 718.654 1272.26 699.463 1294.39 C 662.979 1336.19 626.985 1378.4 591.488 1421.04 C 573.951 1441.98 556.488 1462.96 539.195 1484.11 C 537.781 1485.84 527.325 1499.66 526.653 1500.19 C 521.988 1511.06 519.186 1520.25 520.163 1532.45 C 521.334 1547.22 528.645 1560.82 540.319 1569.94 C 552.118 1579.35 566.14 1583.03 581.06 1581.19 C 591.013 1579.97 600.408 1575.93 608.132 1569.54 C 617.467 1561.85 634.753 1537.6 643.182 1526.55 L 691.405 1463.84 L 692.149 1464.69 C 689.909 1469.38 686.023 1471.86 683.24 1477.25 L 684.397 1477.43 C 689.951 1471.29 695.593 1471.6 701.524 1466.51 C 701.287 1465.95 699.687 1461.9 699.934 1461.64 C 710.561 1450.61 717.261 1450.56 723.485 1435.53 L 721.172 1435.17 C 720.869 1431.81 739.468 1419.04 741.739 1414.39 C 742.661 1412.5 746.215 1409.16 747.884 1407.62 L 749.692 1409.31 C 745.016 1423.15 727.83 1431.52 727.7 1441.41 C 729.841 1445.07 732.934 1445.49 732.906 1445.58 C 731.584 1450.03 730.89 1454.97 730.155 1459.54 C 730.025 1459.98 729.895 1460.43 729.765 1460.87 L 730.804 1460.65 L 731.868 1461.53 C 730.496 1465.32 729.638 1469.69 728.013 1473.21 C 735.79 1473.51 745.701 1457.96 753.299 1453.88 C 771.593 1444.06 770.252 1427.52 791.163 1416.83 L 791.364 1418.01 C 789.258 1421.64 784.091 1427.94 780.431 1429.55 C 773.255 1432.71 770.468 1446.96 767.821 1455.74 L 766.903 1455.33 C 766.4 1453.14 766.531 1452.27 765.365 1450.66 C 759.307 1456.06 756.386 1461.25 751.374 1467.49 L 726.547 1498.88 C 715.709 1512.86 699.406 1528.29 692.524 1545.38 C 691.29 1548.45 668.409 1563.41 664.796 1567.06 C 658.107 1573.68 652.277 1585.33 644.287 1590.67 C 596.331 1622.74 540.286 1628.42 501.678 1579.41 C 492.302 1567.51 478.991 1531.73 481.193 1517 C 491.036 1451.19 540.477 1402.37 581.237 1353.49 C 588.898 1344.33 603.173 1324.03 611.356 1318.12 L 613.005 1316.95 C 613.858 1316.33 614.712 1315.72 615.566 1315.1 C 617.108 1311.56 617.657 1313.23 619.156 1311.28 C 626.633 1301.23 634.114 1291.11 641.648 1281.12 C 645.664 1275.79 657.321 1265.34 657.851 1259.19 L 662.018 1261.02 C 667.59 1259.54 706.847 1238.01 713.34 1232.56 C 787.412 1170.42 858.025 1101.79 925.793 1032.78 C 929.078 1029.43 942.803 1016.76 943.807 1014.5 C 952.363 995.214 966.699 978.034 969.184 956.849 C 970.275 948.708 973.082 921.402 976.601 917.715 z"/>
<path transform="translate(0,0)" fill="rgb(98,21,54)" d="M 791.163 1416.83 L 791.364 1418.01 C 789.258 1421.64 784.091 1427.94 780.431 1429.55 C 773.255 1432.71 770.468 1446.96 767.821 1455.74 L 766.903 1455.33 C 766.4 1453.14 766.531 1452.27 765.365 1450.66 C 759.307 1456.06 756.386 1461.25 751.374 1467.49 L 726.547 1498.88 C 715.709 1512.86 699.406 1528.29 692.524 1545.38 C 691.29 1548.45 668.409 1563.41 664.796 1567.06 C 658.107 1573.68 652.277 1585.33 644.287 1590.67 C 596.331 1622.74 540.286 1628.42 501.678 1579.41 C 492.302 1567.51 478.991 1531.73 481.193 1517 C 491.036 1451.19 540.477 1402.37 581.237 1353.49 C 588.898 1344.33 603.173 1324.03 611.356 1318.12 L 613.005 1316.95 C 613.858 1316.33 614.712 1315.72 615.566 1315.1 L 620.466 1318.29 C 619.173 1323.77 604.46 1341.07 600.847 1347.93 L 603.368 1348.56 C 601.056 1350.12 602.04 1349.44 598.425 1349.48 L 598.665 1350.63 L 602.012 1351.47 C 603.785 1358.24 590.909 1366.86 585.749 1369.99 L 586.255 1371.31 L 588.17 1371.4 L 588.169 1372.26 C 586.668 1372.47 585.514 1372.66 583.998 1372.94 C 585.098 1374.4 584.342 1373.84 586.461 1374.33 L 585.76 1377.54 L 586.133 1374.08 C 585.389 1383.7 556.731 1413.84 550.498 1423.03 C 548.398 1426.13 537.265 1444.08 535.21 1445.3 L 535.742 1441.21 C 527.449 1450.67 522.824 1470.2 514.834 1481.12 C 514.33 1477.67 515.741 1474.48 516.821 1471.08 L 516.342 1470.9 C 512.522 1477.65 512.974 1479.89 510.554 1484.8 C 511.622 1487.03 511.943 1487.84 512.254 1490.28 L 511.391 1485.72 C 513.354 1489.96 512.512 1495.48 511.633 1499.96 C 509.753 1495.37 509.781 1496.76 510.786 1492.57 L 509.65 1492.18 L 509.47 1493.81 C 505.888 1524.8 500.886 1527.75 514.285 1559.05 L 514.825 1558.91 L 514.564 1554.79 C 517.205 1558.32 519.483 1564.21 522.135 1568.34 C 532.399 1584.31 538.405 1585.5 554.266 1591.06 C 571.602 1599.59 588.351 1591.09 605.958 1588.44 C 610.061 1587.82 623.364 1582.45 627.199 1579.34 C 649.289 1561.39 670.832 1540.47 691.09 1520.36 C 698.312 1513.19 693.5 1504.33 703.914 1503.56 C 706.039 1503.11 707.966 1487.9 716.757 1480.35 C 716.744 1483.77 715.538 1485.85 714.304 1489.22 C 721.338 1492.01 727.298 1478.23 724.717 1473.58 C 722.634 1469.83 727.484 1464.38 729.765 1460.87 L 730.804 1460.65 L 731.868 1461.53 C 730.496 1465.32 729.638 1469.69 728.013 1473.21 C 735.79 1473.51 745.701 1457.96 753.299 1453.88 C 771.593 1444.06 770.252 1427.52 791.163 1416.83 z"/>
<path transform="translate(0,0)" fill="rgb(196,16,57)" d="M 526.653 1500.19 L 526.566 1498.05 C 530.99 1487.9 575.878 1438.27 584.702 1425.99 C 587.872 1421.58 598.387 1407.14 602.113 1402.78 C 607.372 1396.62 615.238 1389.48 621.238 1382.46 C 653.751 1344.12 686.591 1306.05 719.753 1268.26 C 728.106 1258.68 756.119 1225.01 764.943 1219.28 C 747.731 1241.44 718.654 1272.26 699.463 1294.39 C 662.979 1336.19 626.985 1378.4 591.488 1421.04 C 573.951 1441.98 556.488 1462.96 539.195 1484.11 C 537.781 1485.84 527.325 1499.66 526.653 1500.19 z"/>
<path transform="translate(0,0)" fill="rgb(98,21,54)" d="M 657.851 1259.19 L 662.018 1261.02 C 660.302 1264.72 653.047 1275.35 650.068 1278.43 C 640.414 1288.41 629.86 1310.41 620.466 1318.29 L 615.566 1315.1 C 617.108 1311.56 617.657 1313.23 619.156 1311.28 C 626.633 1301.23 634.114 1291.11 641.648 1281.12 C 645.664 1275.79 657.321 1265.34 657.851 1259.19 z"/>
<path transform="translate(0,0)" fill="rgb(98,21,54)" d="M 1581.09 540.562 C 1585.19 539.972 1603.59 531.051 1610.3 528.717 C 1601.39 537.346 1577.1 543.773 1566.72 550.572 C 1560.95 554.349 1532.26 566.954 1530.32 569.967 C 1521.74 583.299 1509.71 585.722 1498.6 595.714 C 1492.3 601.377 1484.68 620.752 1478.16 627.901 C 1469.38 638.097 1455.67 647.311 1446.03 656.924 C 1436.35 666.573 1427.14 678.303 1416.46 686.969 C 1422.82 676.115 1436.24 649.992 1430.18 637.76 L 1424.04 639.459 C 1429.91 633.809 1446.94 622.043 1453.93 617.061 C 1480.53 597.749 1508.19 579.95 1536.79 563.749 C 1551.39 555.512 1566.29 548.36 1581.09 540.562 z"/>
<path transform="translate(0,0)" fill="rgb(158,25,64)" d="M 1644.12 511.749 C 1653.06 509.967 1662.85 507.779 1671.84 506.822 C 1651.02 514.568 1631.7 520.287 1610.3 528.717 C 1603.59 531.051 1585.19 539.972 1581.09 540.562 L 1581.45 539.166 C 1586.28 536.716 1636.84 515.462 1635.56 516.634 C 1623.93 516.539 1588.15 530.862 1574.57 534.348 L 1572.95 533.657 C 1581.37 527.69 1632.05 515.408 1644.12 511.749 z"/>
<path transform="translate(0,0)" fill="url(#Gradient1)" d="M 1205.68 794.505 L 1206.25 796.262 L 1205.55 798.001 C 1208.06 802.705 1208.17 803.373 1212.11 806.735 C 1214.14 805.435 1213.11 805.828 1215.12 805.383 L 1215.59 805.698 C 1201.38 820.626 1186.84 833.709 1172.56 848.189 C 1132.99 888.228 1094.21 929.03 1056.22 970.571 C 1037.5 991.001 1011.54 1018.41 994.047 1039.84 C 994.713 1048.09 871.077 1176.52 867.269 1194.02 L 868.474 1194.35 C 873.307 1190.38 871.666 1188.97 877.554 1183.45 C 877.826 1187.2 852.84 1220.21 848.966 1224.55 C 842.28 1232.05 834 1239.87 827.688 1248.07 C 820.701 1257.15 815.961 1267.24 808.881 1276.16 C 794.293 1295.11 776.195 1311.94 765.235 1333.4 C 757.295 1348.95 744.045 1359.23 733.603 1373.05 C 726.755 1382.1 721.646 1391.02 715.489 1400.44 C 703.133 1416.03 691.426 1431.44 679.706 1447.54 C 674.382 1454.85 667.354 1462.46 662.272 1469.82 C 656.396 1478.33 650.83 1488.95 645.421 1497.75 C 642.783 1502.04 633.452 1506.31 630.974 1513.02 C 629.791 1516.22 622.765 1523.11 620.403 1526.52 C 617.75 1530.35 615.745 1534.63 613.244 1538.39 C 605.294 1550.41 593.34 1559.22 579.506 1563.26 C 569.278 1566.24 558.367 1558.5 548.698 1555.56 C 545.303 1554.53 538.477 1534.6 537.605 1530.92 C 532.135 1507.87 557.753 1488.55 570.944 1473.04 C 575.954 1467.15 579.568 1456.78 585.084 1450.85 C 608.335 1426.92 630.736 1402.85 651.109 1376.33 C 654.569 1371.83 661.302 1366.78 665.259 1362.28 C 682.206 1343.02 700.183 1325.62 714.808 1304.38 C 720.318 1296.38 734.566 1288.6 741.831 1282.24 C 743.722 1280.68 754.262 1264.77 756.692 1261.25 C 759.665 1260.99 758.46 1261.61 760.651 1260 C 761.915 1256.62 762.819 1256.09 762.084 1253.27 C 759.372 1253.93 759.519 1253.89 757.178 1255.43 C 758.331 1253.73 759.837 1251.51 761.696 1248.77 C 766.175 1245.95 771.617 1246.16 772.012 1240.15 C 768.886 1240.61 767.479 1241.35 764.609 1242.53 C 766.596 1238.19 767.938 1239.1 771.604 1236.39 C 779.336 1230.6 785.082 1221.95 792.139 1214.98 C 823.086 1184.41 850.757 1149.84 882.465 1120.21 C 887.748 1115.28 921.399 1079.44 924.887 1078.88 C 917.392 1088.36 906.663 1097.68 898.499 1107.71 C 875.792 1135.59 851.003 1162.19 828.155 1190.03 C 819.064 1201.11 795.654 1224.09 789.915 1234.83 C 800.405 1227.45 807.729 1214.99 812.657 1210.17 C 825.904 1197.21 890.539 1117.48 900.769 1113.11 C 904.286 1110.71 922.021 1089.62 925.964 1085.24 L 1000.33 1003.26 C 1051.33 947.532 1103.87 893.236 1157.9 840.44 C 1173.86 825.005 1189.01 809.388 1205.68 794.505 z"/>
<path transform="translate(0,0)" fill="rgb(247,105,121)" d="M 657.344 1450.82 C 731.775 1353.99 808.122 1258.65 886.339 1164.86 C 909.684 1136.82 933.363 1109.06 957.372 1081.58 C 966.738 1070.72 984.587 1048.74 994.047 1039.84 C 994.713 1048.09 871.077 1176.52 867.269 1194.02 L 868.474 1194.35 C 873.307 1190.38 871.666 1188.97 877.554 1183.45 C 877.826 1187.2 852.84 1220.21 848.966 1224.55 C 842.28 1232.05 834 1239.87 827.688 1248.07 C 820.701 1257.15 815.961 1267.24 808.881 1276.16 C 794.293 1295.11 776.195 1311.94 765.235 1333.4 C 757.295 1348.95 744.045 1359.23 733.603 1373.05 C 726.755 1382.1 721.646 1391.02 715.489 1400.44 C 703.133 1416.03 691.426 1431.44 679.706 1447.54 C 674.382 1454.85 667.354 1462.46 662.272 1469.82 C 656.396 1478.33 650.83 1488.95 645.421 1497.75 C 642.783 1502.04 633.452 1506.31 630.974 1513.02 C 629.791 1516.22 622.765 1523.11 620.403 1526.52 C 617.75 1530.35 615.745 1534.63 613.244 1538.39 C 605.294 1550.41 593.34 1559.22 579.506 1563.26 C 569.278 1566.24 558.367 1558.5 548.698 1555.56 C 545.303 1554.53 538.477 1534.6 537.605 1530.92 C 532.135 1507.87 557.753 1488.55 570.944 1473.04 C 575.954 1467.15 579.568 1456.78 585.084 1450.85 C 608.335 1426.92 630.736 1402.85 651.109 1376.33 C 654.569 1371.83 661.302 1366.78 665.259 1362.28 C 682.206 1343.02 700.183 1325.62 714.808 1304.38 C 720.318 1296.38 734.566 1288.6 741.831 1282.24 C 743.722 1280.68 754.262 1264.77 756.692 1261.25 C 759.665 1260.99 758.46 1261.61 760.651 1260 C 761.915 1256.62 762.819 1256.09 762.084 1253.27 C 759.372 1253.93 759.519 1253.89 757.178 1255.43 C 758.331 1253.73 759.837 1251.51 761.696 1248.77 C 766.175 1245.95 771.617 1246.16 772.012 1240.15 C 768.886 1240.61 767.479 1241.35 764.609 1242.53 C 766.596 1238.19 767.938 1239.1 771.604 1236.39 C 779.336 1230.6 785.082 1221.95 792.139 1214.98 C 823.086 1184.41 850.757 1149.84 882.465 1120.21 C 887.748 1115.28 921.399 1079.44 924.887 1078.88 C 917.392 1088.36 906.663 1097.68 898.499 1107.71 C 875.792 1135.59 851.003 1162.19 828.155 1190.03 C 819.064 1201.11 795.654 1224.09 789.915 1234.83 C 800.405 1227.45 807.729 1214.99 812.657 1210.17 C 825.904 1197.21 890.539 1117.48 900.769 1113.11 C 891.813 1124.27 880.412 1136.49 870.825 1147.36 L 819.857 1205.62 C 755.82 1279.04 685.875 1358.61 624.859 1434.3 C 616.52 1444.87 599.356 1466.41 590.317 1475.91 C 588.077 1478.85 577.233 1493.04 574.732 1495.16 C 567.008 1504.68 558.737 1512.9 554.819 1524.4 C 555.441 1541.65 571.345 1553.15 586.598 1541.63 C 592.64 1537.07 602.431 1522.37 607.697 1515.53 L 648.497 1462.26 C 651.399 1457.89 654.016 1454.81 657.344 1450.82 z"/>
<path transform="translate(0,0)" fill="rgb(246,135,136)" d="M 590.317 1475.91 C 590.813 1463.15 611.837 1432.38 624.859 1434.3 C 616.52 1444.87 599.356 1466.41 590.317 1475.91 z"/>
<path transform="translate(0,0)" fill="rgb(246,135,136)" d="M 657.344 1450.82 C 661.362 1448.1 666.905 1443.09 670.892 1442.09 C 661.75 1452.61 647.849 1471.98 640.617 1484.18 L 639.862 1482.9 C 643.526 1476.18 646.659 1469.75 648.497 1462.26 C 651.399 1457.89 654.016 1454.81 657.344 1450.82 z"/>
<path transform="translate(0,0)" fill="rgb(246,135,136)" d="M 554.819 1524.4 C 553.58 1507.05 559.435 1502.49 574.732 1495.16 C 567.008 1504.68 558.737 1512.9 554.819 1524.4 z"/>
<path transform="translate(0,0)" fill="rgb(247,105,121)" d="M 1205.68 794.505 C 1223.92 775.109 1347.78 668.031 1365.04 665.237 L 1367.05 665.97 C 1367.95 670.579 1341.9 692.165 1337.21 696.302 C 1317.81 713.201 1298.51 730.205 1279.3 747.314 L 1237.53 785.831 C 1232.22 790.757 1220.91 801.797 1215.59 805.698 L 1215.12 805.383 C 1213.11 805.828 1214.14 805.435 1212.11 806.735 C 1208.17 803.373 1208.06 802.705 1205.55 798.001 L 1206.25 796.262 L 1205.68 794.505 z"/>
<path transform="translate(0,0)" fill="rgb(254,255,254)" d="M 1809.42 915.54 C 1811.88 914.906 1814.41 916.291 1815.2 918.707 C 1816 921.122 1814.78 923.739 1812.42 924.687 C 1810.75 925.358 1808.85 925.045 1807.48 923.875 C 1806.12 922.705 1805.51 920.872 1805.92 919.12 C 1806.33 917.368 1807.67 915.988 1809.42 915.54 z"/>
<path transform="translate(0,0)" fill="rgb(254,255,254)" d="M 1010.05 1520.47 C 1012.53 1519.69 1015.18 1521.04 1016.01 1523.51 C 1016.84 1525.98 1015.54 1528.65 1013.09 1529.53 C 1011.46 1530.11 1009.65 1529.77 1008.34 1528.64 C 1007.04 1527.5 1006.45 1525.75 1006.8 1524.05 C 1007.16 1522.36 1008.4 1520.99 1010.05 1520.47 z"/>
<path transform="translate(0,0)" fill="rgb(254,255,254)" d="M 853.893 441.529 C 855.317 440.547 857.164 440.42 858.709 441.199 C 860.253 441.978 861.25 443.538 861.308 445.267 C 861.365 446.996 860.474 448.618 858.985 449.498 C 856.791 450.794 853.964 450.119 852.592 447.972 C 851.219 445.824 851.795 442.975 853.893 441.529 z"/>
<path transform="translate(0,0)" fill="rgb(254,255,254)" d="M 1230.89 345.572 C 1232.22 344.484 1234.04 344.211 1235.63 344.861 C 1237.22 345.51 1238.32 346.978 1238.51 348.686 C 1238.69 350.393 1237.93 352.065 1236.52 353.042 C 1234.45 354.47 1231.63 354.014 1230.12 352.009 C 1228.61 350.004 1228.95 347.163 1230.89 345.572 z"/>
<path transform="translate(0,0)" fill="rgb(254,255,254)" d="M 1109.23 550.495 C 1110.66 549.621 1112.45 549.586 1113.92 550.403 C 1115.39 551.22 1116.3 552.762 1116.32 554.442 C 1116.33 556.121 1115.44 557.678 1113.99 558.518 C 1111.77 559.796 1108.95 559.056 1107.64 556.859 C 1106.34 554.662 1107.04 551.825 1109.23 550.495 z"/>
<path transform="translate(0,0)" fill="rgb(254,255,254)" d="M 215.272 1214.51 C 217.702 1213.75 220.289 1215.09 221.085 1217.5 C 221.88 1219.92 220.59 1222.53 218.186 1223.37 C 216.595 1223.92 214.83 1223.57 213.568 1222.46 C 212.306 1221.34 211.744 1219.63 212.097 1217.98 C 212.45 1216.34 213.664 1215.01 215.272 1214.51 z"/>
<path transform="translate(0,0)" fill="rgb(254,255,254)" d="M 1768.3 1290.6 C 1769.93 1290.02 1771.74 1290.41 1772.99 1291.61 C 1774.23 1292.82 1774.69 1294.62 1774.17 1296.27 C 1773.65 1297.92 1772.24 1299.13 1770.53 1299.4 C 1768.21 1299.77 1765.98 1298.3 1765.4 1296.02 C 1764.82 1293.74 1766.08 1291.39 1768.3 1290.6 z"/>
<path transform="translate(0,0)" fill="rgb(254,255,254)" d="M 1580.45 965.597 C 1582.38 964.203 1585.06 964.555 1586.56 966.401 C 1588.06 968.247 1587.86 970.944 1586.11 972.549 C 1584.88 973.672 1583.13 974.022 1581.56 973.459 C 1579.99 972.896 1578.87 971.512 1578.63 969.864 C 1578.4 968.215 1579.1 966.573 1580.45 965.597 z"/>
<path transform="translate(0,0)" fill="rgb(254,255,254)" d="M 455.347 1108.51 C 456.767 1107.64 458.552 1107.63 459.981 1108.49 C 461.41 1109.34 462.247 1110.92 462.152 1112.58 C 462.058 1114.24 461.049 1115.71 459.533 1116.4 C 457.38 1117.38 454.84 1116.51 453.732 1114.42 C 452.625 1112.34 453.332 1109.75 455.347 1108.51 z"/>
<path transform="translate(0,0)" fill="rgb(254,255,254)" d="M 499.105 843.593 C 501.191 842.737 503.579 843.694 504.496 845.754 C 505.413 847.813 504.526 850.229 502.494 851.206 C 501.125 851.863 499.508 851.725 498.271 850.845 C 497.034 849.964 496.374 848.481 496.547 846.973 C 496.721 845.464 497.701 844.17 499.105 843.593 z"/>
<path transform="translate(0,0)" fill="rgb(254,255,254)" d="M 347.294 600.505 C 349.435 600.21 351.431 601.645 351.833 603.769 C 352.235 605.893 350.9 607.958 348.799 608.465 C 347.344 608.816 345.814 608.336 344.819 607.218 C 343.824 606.1 343.526 604.524 344.044 603.12 C 344.561 601.715 345.811 600.71 347.294 600.505 z"/>
<path transform="translate(0,0)" fill="rgb(254,255,254)" d="M 1494.85 1704.58 C 1496.74 1703.65 1499.03 1704.34 1500.09 1706.16 C 1501.15 1707.98 1500.62 1710.32 1498.87 1711.5 C 1497.63 1712.34 1496.03 1712.42 1494.71 1711.7 C 1493.39 1710.99 1492.58 1709.6 1492.61 1708.1 C 1492.64 1706.6 1493.5 1705.24 1494.85 1704.58 z"/>
<path transform="translate(0,0)" fill="rgb(254,255,254)" d="M 298.941 1338.71 C 301.017 1338.45 302.939 1339.84 303.331 1341.9 C 303.723 1343.96 302.452 1345.96 300.426 1346.49 C 298.994 1346.85 297.476 1346.4 296.487 1345.3 C 295.497 1344.2 295.2 1342.64 295.715 1341.26 C 296.231 1339.87 297.474 1338.89 298.941 1338.71 z"/>
<path transform="translate(0,0)" fill="rgb(254,255,254)" d="M 788.019 1714.5 C 789.283 1713.59 790.966 1713.51 792.312 1714.29 C 793.657 1715.08 794.411 1716.59 794.233 1718.14 C 794.055 1719.69 792.979 1720.99 791.49 1721.45 C 789.648 1722.02 787.664 1721.17 786.802 1719.45 C 785.94 1717.72 786.455 1715.63 788.019 1714.5 z"/>
</svg>