<svg version="1.1" xmlns="http://www.w3.org/2000/svg" style="display: block;" viewBox="0 0 2048 2048" width="1024" height="1024" preserveAspectRatio="none">
<defs>
	<linearGradient id="Gradient1" gradientUnits="userSpaceOnUse" x1="966.903" y1="491.515" x2="1068.75" y2="464.003">
		<stop class="stop0" offset="0" stop-opacity="1" stop-color="rgb(193,126,87)"/>
		<stop class="stop1" offset="1" stop-opacity="1" stop-color="rgb(225,166,115)"/>
	</linearGradient>
	<linearGradient id="Gradient2" gradientUnits="userSpaceOnUse" x1="783.778" y1="692.594" x2="879.906" y2="673.162">
		<stop class="stop0" offset="0" stop-opacity="1" stop-color="rgb(164,95,62)"/>
		<stop class="stop1" offset="1" stop-opacity="1" stop-color="rgb(185,122,81)"/>
	</linearGradient>
	<linearGradient id="Gradient3" gradientUnits="userSpaceOnUse" x1="1463.12" y1="1242.02" x2="1345.76" y2="1233.37">
		<stop class="stop0" offset="0" stop-opacity="1" stop-color="rgb(144,80,43)"/>
		<stop class="stop1" offset="1" stop-opacity="1" stop-color="rgb(170,103,65)"/>
	</linearGradient>
	<linearGradient id="Gradient4" gradientUnits="userSpaceOnUse" x1="812.047" y1="873.416" x2="926.809" y2="874.682">
		<stop class="stop0" offset="0" stop-opacity="1" stop-color="rgb(160,94,58)"/>
		<stop class="stop1" offset="1" stop-opacity="1" stop-color="rgb(203,141,96)"/>
	</linearGradient>
	<linearGradient id="Gradient5" gradientUnits="userSpaceOnUse" x1="1253.36" y1="871.56" x2="1115.88" y2="882.279">
		<stop class="stop0" offset="0" stop-opacity="1" stop-color="rgb(193,130,88)"/>
		<stop class="stop1" offset="1" stop-opacity="1" stop-color="rgb(215,156,103)"/>
	</linearGradient>
	<linearGradient id="Gradient6" gradientUnits="userSpaceOnUse" x1="1247.94" y1="1091.42" x2="956.459" y2="1045.29">
		<stop class="stop0" offset="0" stop-opacity="1" stop-color="rgb(201,138,91)"/>
		<stop class="stop1" offset="1" stop-opacity="1" stop-color="rgb(235,175,117)"/>
	</linearGradient>
	<linearGradient id="Gradient7" gradientUnits="userSpaceOnUse" x1="824.075" y1="1518.12" x2="1166.79" y2="1355.24">
		<stop class="stop0" offset="0" stop-opacity="1" stop-color="rgb(201,138,90)"/>
		<stop class="stop1" offset="1" stop-opacity="1" stop-color="rgb(230,169,113)"/>
	</linearGradient>
	<linearGradient id="Gradient8" gradientUnits="userSpaceOnUse" x1="712.344" y1="1239.61" x2="1083.5" y2="1183.49">
		<stop class="stop0" offset="0" stop-opacity="1" stop-color="rgb(157,85,55)"/>
		<stop class="stop1" offset="1" stop-opacity="1" stop-color="rgb(216,160,105)"/>
	</linearGradient>
	<linearGradient id="Gradient9" gradientUnits="userSpaceOnUse" x1="1240.82" y1="1834.29" x2="414.885" y2="1673.28">
		<stop class="stop0" offset="0" stop-opacity="1" stop-color="rgb(168,102,69)"/>
		<stop class="stop1" offset="1" stop-opacity="1" stop-color="rgb(237,200,134)"/>
	</linearGradient>
	<linearGradient id="Gradient10" gradientUnits="userSpaceOnUse" x1="198.825" y1="865.279" x2="730.789" y2="926.076">
		<stop class="stop0" offset="0" stop-opacity="1" stop-color="rgb(196,145,91)"/>
		<stop class="stop1" offset="1" stop-opacity="1" stop-color="rgb(237,205,134)"/>
	</linearGradient>
	<linearGradient id="Gradient11" gradientUnits="userSpaceOnUse" x1="1079.37" y1="1526.23" x2="1449.13" y2="276.861">
		<stop class="stop0" offset="0" stop-opacity="1" stop-color="rgb(178,112,76)"/>
		<stop class="stop1" offset="1" stop-opacity="1" stop-color="rgb(231,195,125)"/>
	</linearGradient>
</defs>
<path transform="translate(0,0)" fill="rgb(4,15,45)" d="M 0 0 L 2048 0 L 2048 2048 L 0 2048 L 0 0 z"/>
<path transform="translate(0,0)" fill="rgb(4,15,45)" d="M 756.518 229.586 C 1137 101.39 1554.95 261.013 1753.11 610.203 C 1951.27 959.393 1873.98 1400.06 1568.8 1660.96 C 1470.6 1744.92 1354.33 1805.03 1229.06 1836.62 C 944.705 1908.31 643.563 1826.18 434.981 1620.05 C 228.078 1415.58 141.985 1118.45 207.522 835.044 C 273.059 551.632 480.854 322.466 756.518 229.586 z"/>
<path transform="translate(0,0)" fill="url(#Gradient11)" d="M 756.518 229.586 C 1137 101.39 1554.95 261.013 1753.11 610.203 C 1951.27 959.393 1873.98 1400.06 1568.8 1660.96 C 1564.14 1661.12 1561.74 1663.7 1557.99 1667.02 L 1557.28 1667.65 L 1555.77 1667.24 C 1555.29 1664.35 1550.76 1647.79 1551.83 1646.66 C 1555.52 1642.75 1558.29 1640.33 1560.86 1635.27 C 1565.91 1629.44 1583.26 1614.2 1589.46 1608.38 C 1602.32 1596.15 1614.71 1583.42 1626.59 1570.24 C 1696.58 1493.44 1751.37 1404.08 1788.06 1306.87 C 1848.27 1146.42 1855.7 970.951 1809.29 805.987 C 1800.9 776.344 1791.01 745.937 1778.45 717.763 C 1766.9 681.594 1735.57 626.113 1715.28 593.988 C 1629.61 457.025 1505.54 348.294 1358.52 281.342 C 1185.41 203.16 990.366 188.133 807.323 238.875 C 762.87 250.986 736.182 263.372 694.951 278.66 C 701.576 269.577 780.136 244.448 795.129 240.129 C 800.328 238.631 809.688 237.575 811.233 231.489 C 806.842 228.456 802.433 223.172 798.716 219.146 C 788.997 217.333 768.111 230.845 756.518 229.586 z"/>
<path transform="translate(0,0)" fill="url(#Gradient10)" d="M 756.518 229.586 C 768.111 230.845 788.997 217.333 798.716 219.146 C 802.433 223.172 806.842 228.456 811.233 231.489 C 809.688 237.575 800.328 238.631 795.129 240.129 C 780.136 244.448 701.576 269.577 694.951 278.66 L 693.738 279.416 C 689.004 282.313 675.739 288.162 669.803 291.013 C 655.618 297.856 641.622 305.083 627.83 312.687 C 571.455 344.492 519.015 382.814 471.588 426.864 C 458.629 438.78 439.44 457.199 428.012 470.654 C 406.462 491.614 379.878 525.948 362.521 550.097 C 266.111 683.675 212.53 843.376 208.865 1008.07 C 206.224 1188.66 258.366 1351.08 362.953 1497.95 C 377.299 1518.07 392.645 1537.44 408.933 1556.02 C 414.59 1562.35 444.348 1592.39 447.086 1597.35 C 443.404 1597.1 444.495 1597.11 441.02 1594.35 L 440.522 1595.34 C 437.756 1600.77 434.114 1607.35 427.508 1608.41 C 430.174 1610.61 434.042 1616.73 434.981 1620.05 C 228.078 1415.58 141.985 1118.45 207.522 835.044 C 273.059 551.632 480.854 322.466 756.518 229.586 z"/>
<path transform="translate(0,0)" fill="url(#Gradient9)" d="M 434.981 1620.05 C 434.042 1616.73 430.174 1610.61 427.508 1608.41 C 434.114 1607.35 437.756 1600.77 440.522 1595.34 L 441.02 1594.35 C 444.495 1597.11 443.404 1597.1 447.086 1597.35 C 478.345 1626.26 498.765 1646.36 533.501 1672.59 C 683.238 1786.75 867.917 1845.48 1056.09 1838.77 C 1101.8 1836.75 1147.26 1830.93 1192 1821.35 C 1209.29 1817.6 1231.8 1810.59 1247.64 1807.57 L 1247.9 1808.75 C 1243.26 1812.77 1247.23 1819.15 1238.29 1825.16 C 1230.59 1830.35 1219.41 1829.27 1216.37 1837.4 L 1217.01 1838.32 C 1221.34 1837.39 1226.33 1835.11 1229.06 1836.62 C 944.705 1908.31 643.563 1826.18 434.981 1620.05 z"/>
<path transform="translate(0,0)" fill="rgb(156,89,56)" d="M 1560.86 1635.27 C 1558.29 1640.33 1555.52 1642.75 1551.83 1646.66 C 1550.76 1647.79 1555.29 1664.35 1555.77 1667.24 L 1557.28 1667.65 L 1557.99 1667.02 C 1561.74 1663.7 1564.14 1661.12 1568.8 1660.96 C 1470.6 1744.92 1354.33 1805.03 1229.06 1836.62 C 1226.33 1835.11 1221.34 1837.39 1217.01 1838.32 L 1216.37 1837.4 C 1219.41 1829.27 1230.59 1830.35 1238.29 1825.16 C 1247.23 1819.15 1243.26 1812.77 1247.9 1808.75 L 1247.64 1807.57 C 1262.29 1802.52 1277.18 1798.19 1291.91 1793.12 C 1393.74 1758.05 1478.56 1703.81 1560.86 1635.27 z"/>
<path transform="translate(0,0)" fill="rgb(4,6,25)" d="M 694.951 278.66 C 736.182 263.372 762.87 250.986 807.323 238.875 C 990.366 188.133 1185.41 203.16 1358.52 281.342 C 1505.54 348.294 1629.61 457.025 1715.28 593.988 C 1735.57 626.113 1766.9 681.594 1778.45 717.763 C 1773.81 717.181 1765.21 689.758 1762.66 684.446 C 1750.08 658.24 1736.48 633.825 1721.65 608.963 C 1675.52 531.271 1616.67 461.879 1547.55 403.682 C 1541.2 398.266 1516.19 376.295 1510.39 373.462 C 1503.71 370.196 1498.29 365.121 1492.33 360.733 C 1432 316.322 1362.71 282.497 1292.46 257.117 C 1287.09 255.174 1270.92 247.44 1265.6 248.691 C 1264.68 248.907 1263.78 249.205 1262.86 249.371 C 1262.51 249.433 1262.16 249.485 1261.81 249.548 L 1260.19 249.851 L 1258.8 248.713 L 1260.41 247.188 C 1257.21 244.111 1217.48 234.349 1211.13 233.558 C 1200.85 232.275 1191.07 232.517 1178.72 229.827 C 1179.02 228.653 1179.34 228.934 1180.97 227.895 L 1180.73 226.866 C 1176.13 225.092 1163.83 223.362 1158.57 222.485 C 1130.73 217.693 1102.64 214.527 1074.43 213.003 C 887.001 201.208 701.322 255.145 549.379 365.524 C 521.864 385.186 497.306 406.521 472.183 428.788 C 464.588 435.519 434.181 469.411 428.012 470.654 C 439.44 457.199 458.629 438.78 471.588 426.864 C 519.015 382.814 571.455 344.492 627.83 312.687 C 641.622 305.083 655.618 297.856 669.803 291.013 C 675.739 288.162 689.004 282.313 693.738 279.416 L 694.951 278.66 z"/>
<path transform="translate(0,0)" fill="rgb(36,69,105)" d="M 865.682 805.204 C 868.484 801.719 872.526 799.523 874.916 795.471 C 878.661 789.124 872.433 779.753 876.746 773.619 C 883.14 772.255 892.528 770.835 899.008 771.761 C 900.62 775.111 901.499 778.641 902.112 782.296 C 909.855 828.428 917.766 874.556 926.104 920.586 C 926.948 925.247 928.484 927.309 928.55 932.399 C 928.819 931.944 931.079 928.096 931.068 928.107 C 936.747 922.712 932.04 909.57 934.747 906.54 L 936.206 907.926 C 935.548 898.439 933.076 883.384 947.24 884.426 L 947.823 887.88 L 949.417 888.316 C 951.992 886.873 952.84 886.342 955.658 885.292 C 958.415 885.996 958.396 886.175 961.159 885.787 C 967.443 880.583 965.877 855.07 966.241 846.032 L 969.127 757.996 C 969.367 749.996 969.053 731.885 971.112 725.424 C 974.57 722.826 990.96 723.428 995 725.123 C 997.494 729.394 996.066 733.11 995.072 738.302 C 996.765 760.161 1030.92 757.65 1045.56 751.91 C 1053.23 748.902 1052.65 734.43 1054.63 726.943 C 1057.19 724.531 1056.75 725.349 1061.46 725.238 C 1066.38 725.32 1072.65 724.601 1076.15 727.509 C 1077.32 730.392 1077.11 731.228 1077.18 734.332 C 1077.31 734.59 1077.45 734.839 1077.55 735.107 C 1080.13 742.102 1079.34 758.028 1079.51 765.838 C 1079.87 782.161 1080.87 873.61 1084.93 883.801 C 1085.43 885.046 1085.89 886.296 1086.4 887.538 C 1086.91 878.366 1089.4 884.717 1089.71 878.239 C 1089.84 875.429 1089.68 875.758 1091.06 872.8 C 1093.22 874.075 1092.33 873.803 1093.56 877.337 L 1094.48 876.443 C 1102.01 869.27 1105.21 870.67 1112.84 876.905 C 1117.39 876.66 1117.86 875.497 1120.6 879.449 L 1122.66 877.439 C 1124.78 879.321 1124.47 884.537 1124.48 887.45 C 1127.24 882.335 1123.02 886.644 1125.22 880.02 C 1127.87 879.477 1126.83 879.512 1129.55 880.21 L 1130.01 878.555 L 1127.93 877.602 C 1127.5 873.641 1132.31 865.293 1133.38 859.005 C 1137.36 835.676 1140.99 812.083 1145.49 788.862 C 1146.53 783.493 1147.7 776 1149.39 771.182 C 1153.73 770.231 1166.99 772.946 1171.65 774.082 C 1175.08 782.701 1168.72 792.685 1175.51 798.701 C 1179.54 802.267 1183.45 803.447 1186.48 806.161 C 1211.66 810.573 1225.05 813.378 1228.32 783.593 C 1235.99 785.661 1242.28 784.288 1248 788.581 C 1250.05 791.628 1249.21 794.515 1248.87 798.366 C 1251.78 802.767 1238.98 898.805 1238.52 913.226 C 1238.3 920.447 1236.07 935.472 1235.19 943.344 C 1232.25 952.947 1234.71 980.253 1229.21 983.887 C 1224.63 983.554 1212.45 978.341 1207.39 976.435 C 1204.12 960.664 1218.8 933.292 1202.69 923.888 C 1192.53 917.952 1153.68 910.468 1146.46 924.785 C 1144.18 929.312 1144.28 937.04 1143.78 942.038 C 1145.23 940.168 1146.11 938.737 1147.92 937.242 C 1149.97 939.16 1149.17 938.715 1150.21 942.121 L 1149.68 937.532 L 1150.58 936.585 L 1153.39 936.883 C 1154.87 921.224 1192.48 929.977 1197.38 934.114 C 1203.19 945.496 1190.08 982.056 1193.13 994.802 C 1193.62 996.836 1224.19 1007.01 1231.8 1016.42 C 1241.83 1028.83 1250.16 1102.02 1248.57 1112.03 C 1244.52 1118.23 1223.3 1139.23 1216.66 1146.04 L 1157.68 1206.88 C 1155.04 1209.57 1139.45 1224.82 1138.32 1226.92 C 1130.95 1225.21 1120.94 1208.89 1114.34 1203.74 C 1108.25 1198.97 1082.16 1178.7 1075.37 1182.47 C 1073.44 1186.88 1071.84 1191.88 1068.38 1194.94 L 1065.38 1195.9 L 1064 1199.94 C 1061.79 1199.32 1062.94 1199.51 1060.53 1199.42 C 1064.64 1201.62 1066.88 1202.91 1071.42 1204.21 C 1074.9 1205.21 1080.52 1209.23 1084.01 1211.22 C 1117.24 1230.17 1139.03 1274.46 1134.24 1312.17 C 1134.12 1312.41 1134.01 1312.65 1133.89 1312.88 L 1139.05 1382.88 C 1144.48 1454.52 1153.97 1496.22 1216.53 1539.06 C 1202.82 1556.94 1190.31 1578.32 1172.37 1591.98 C 1160.69 1600.87 1143.36 1603.3 1128.86 1605.96 C 1064.49 1617.27 998.715 1618.03 934.101 1608.22 C 867.837 1598.51 871.039 1592.26 831.641 1539.24 C 841.272 1532.32 847.712 1528.36 856.413 1520.18 C 902.044 1477.31 906.844 1428.48 910.025 1369.71 C 911.233 1347.4 914.193 1323.55 914.906 1301.05 C 911.978 1294.01 915.391 1284.09 917.024 1276.91 C 925.166 1241.13 950.465 1214.08 984.412 1200.92 C 990.685 1198.49 1007.15 1196.64 1011.17 1194.34 C 1003.86 1187.9 997.32 1184.04 997.602 1173.99 C 995.849 1172.92 994.031 1173.03 992.092 1173.74 C 983.01 1177.04 968.03 1181.56 959.911 1185.96 C 934.28 1200.24 914.259 1221.09 901.967 1247.78 C 898.768 1254.73 894.523 1273.43 890.872 1277.95 C 887.893 1290.62 887.406 1305.05 886.468 1318.08 L 882.112 1378.41 C 878.25 1428.78 874.233 1475.7 827.855 1509.18 C 822.723 1512.88 817.485 1514.75 811.313 1516.14 C 804.984 1511.03 790.801 1499.36 787.329 1492.11 C 785.226 1490.43 783.957 1488.52 782.262 1486.45 C 750.364 1447.47 739.605 1406.37 728.472 1358.25 C 713.619 1293.22 703.214 1227.25 697.33 1160.8 C 695.972 1146.12 693.306 1124.26 694.724 1110.2 C 696.702 1090.57 713.624 1079.07 728.024 1068.44 L 724.5 1054.74 C 721.218 1048.49 714.784 1023.16 714.293 1015.98 C 722.716 1012.46 733.066 1009.27 741.854 1005.96 L 742.221 1005.12 L 743.998 1004.52 C 755.58 1009.6 755.268 1035.73 761.83 1042.08 C 781.283 1031.28 800.063 1020.2 820.444 1011.07 C 824.482 1009.26 856.806 996.835 856.958 995.005 C 858.114 981.062 846.195 946.869 850.595 934.082 C 853.691 930.299 885.287 925.693 889.078 928.737 C 895.567 933.949 896.966 978.246 901.546 981.477 C 907.69 980.969 908.806 980.947 914.418 978.533 C 913.577 975.299 908.972 971.5 908.229 968.127 C 908.038 966.877 909.798 958.538 909.857 958.602 C 903.382 951.702 906.818 934.262 901.737 926.088 C 898.048 920.154 897.249 919.067 892.065 917.316 C 886.399 915.403 880.609 916.29 875.02 917.024 C 869.768 918.6 848.796 920.734 845.423 922.875 C 830.788 932.168 843.734 963.39 841.678 975.648 C 839.181 977.656 821.695 984.4 818.473 983.696 C 815.946 976.143 798.228 809.629 799.502 804.172 C 799.634 803.607 799.796 803.05 799.943 802.489 C 799.908 798.592 798.979 791.472 798.574 787.354 C 804.854 786.273 810.173 785.327 816.535 784.794 L 818.886 784.299 C 823.299 790.799 820.199 806 835.925 808.451 C 845.683 809.972 856.116 807.222 865.682 805.204 z"/>
<path transform="translate(0,0)" fill="url(#Gradient8)" d="M 1002.93 968.312 C 1002.84 949.836 1002.3 931.011 1003.4 912.589 C 1004.04 901.972 1014.86 905.483 1022.53 904.873 C 1028.15 904.426 1037.19 904.16 1042.32 906.403 C 1045.06 909.631 1044.24 907.816 1044.77 912.09 L 1043.47 911.98 C 1039.18 921.718 1044.06 931.043 1040.11 940.682 C 1034.17 955.166 1024.38 961.972 1021.21 978 C 1023.75 978.017 1031.43 977.742 1033.23 978.579 C 1022.54 979.301 976.472 982.47 967.359 986.211 C 963.296 1015.83 966.699 1054.32 967.325 1084.42 C 967.85 1109.69 966.199 1135.58 967.831 1160.95 C 968.134 1165.66 970.621 1171.45 972.562 1175.74 C 978.216 1174.18 988.113 1170.56 993.137 1171.84 C 941.899 1186.42 898.734 1222.76 890.872 1277.95 C 887.893 1290.62 887.406 1305.05 886.468 1318.08 L 882.112 1378.41 C 878.25 1428.78 874.233 1475.7 827.855 1509.18 C 822.723 1512.88 817.485 1514.75 811.313 1516.14 C 804.984 1511.03 790.801 1499.36 787.329 1492.11 C 785.226 1490.43 783.957 1488.52 782.262 1486.45 C 750.364 1447.47 739.605 1406.37 728.472 1358.25 C 713.619 1293.22 703.214 1227.25 697.33 1160.8 C 695.972 1146.12 693.306 1124.26 694.724 1110.2 C 696.702 1090.57 713.624 1079.07 728.024 1068.44 L 724.5 1054.74 C 721.218 1048.49 714.784 1023.16 714.293 1015.98 C 722.716 1012.46 733.066 1009.27 741.854 1005.96 C 752.232 1009.69 756.528 1035.06 759.903 1045.6 C 770.137 1040.18 780.108 1034.07 790.202 1028.36 C 812.378 1015.82 835.755 1006.58 859.354 997.167 C 858.104 983.121 850.223 948.053 851.892 936.433 C 853.5 934.454 855.03 933.161 857.697 932.804 C 884.086 929.272 890.017 920.418 893.87 952.944 C 894.808 960.865 897.677 975.954 899.113 984.765 C 932.956 975.172 967.99 971.078 1002.93 968.312 z"/>
<path transform="translate(0,0)" fill="rgb(215,151,104)" d="M 724.5 1054.74 L 725.594 1053.88 C 734.096 1074.47 723.375 1071.8 712.088 1083.49 C 713.271 1086.26 714.554 1089.11 715.596 1091.92 C 720.247 1087.07 738.744 1071.97 744.434 1071.04 C 730.785 1080.79 708.948 1094.05 706.903 1112.08 C 705.694 1122.74 708.537 1148.36 709.54 1159.41 C 715.496 1225.01 738.646 1395.11 770.867 1447.88 L 770.693 1448.74 C 758.516 1434.8 748.618 1392.34 742.764 1373.59 C 741.356 1369.08 739.502 1358.03 738.753 1356.56 C 735.284 1359.61 734.524 1360.46 731.782 1364.18 C 732.622 1375.71 739.494 1395.38 742.622 1407.28 C 749.393 1433.03 764.115 1457.62 778.855 1479.57 C 781.207 1483.07 787.355 1488.02 787.329 1492.11 C 785.226 1490.43 783.957 1488.52 782.262 1486.45 C 750.364 1447.47 739.605 1406.37 728.472 1358.25 C 713.619 1293.22 703.214 1227.25 697.33 1160.8 C 695.972 1146.12 693.306 1124.26 694.724 1110.2 C 696.702 1090.57 713.624 1079.07 728.024 1068.44 L 724.5 1054.74 z"/>
<path transform="translate(0,0)" fill="url(#Gradient7)" d="M 914.906 1301.05 C 916.896 1285.7 919.281 1271.28 925.839 1257.11 C 945.499 1214.65 992.736 1190.61 1038.71 1196.62 C 1067.24 1200.42 1093.12 1215.3 1110.77 1238.04 C 1131.43 1264.97 1130.14 1282.01 1133.89 1312.88 L 1139.05 1382.88 C 1144.48 1454.52 1153.97 1496.22 1216.53 1539.06 C 1202.82 1556.94 1190.31 1578.32 1172.37 1591.98 C 1160.69 1600.87 1143.36 1603.3 1128.86 1605.96 C 1064.49 1617.27 998.715 1618.03 934.101 1608.22 C 867.837 1598.51 871.039 1592.26 831.641 1539.24 C 841.272 1532.32 847.712 1528.36 856.413 1520.18 C 902.044 1477.31 906.844 1428.48 910.025 1369.71 C 911.233 1347.4 914.193 1323.55 914.906 1301.05 z"/>
<path transform="translate(0,0)" fill="url(#Gradient6)" d="M 1021.21 978 C 1024.38 961.972 1034.17 955.166 1040.11 940.682 C 1044.06 931.043 1039.18 921.718 1043.47 911.98 L 1044.77 912.09 C 1045.47 930.94 1044.77 949.683 1045.31 968.357 C 1085.89 971.216 1109.69 974.496 1149.63 984.6 C 1151.48 972.519 1155.31 939.286 1160.19 930.542 C 1165.35 927.411 1190.96 932.106 1195.96 936.009 C 1198.92 942.031 1191.13 986.593 1189.5 996.597 C 1205.53 1002.73 1230.05 1009.79 1235 1026.94 C 1241.75 1050.36 1244.99 1085.99 1248.28 1110.58 C 1212.2 1149.01 1173.23 1187.92 1136.4 1225.93 C 1099.66 1178.08 1052.12 1161.72 993.137 1171.84 C 988.113 1170.56 978.216 1174.18 972.562 1175.74 C 970.621 1171.45 968.134 1165.66 967.831 1160.95 C 966.199 1135.58 967.85 1109.69 967.325 1084.42 C 966.699 1054.32 963.296 1015.83 967.359 986.211 C 976.472 982.47 1022.54 979.301 1033.23 978.579 C 1031.43 977.742 1023.75 978.017 1021.21 978 z"/>
<path transform="translate(0,0)" fill="url(#Gradient5)" d="M 1150.5 772.556 C 1157.44 773.509 1164.36 774.535 1171.27 775.634 C 1169.06 791.044 1168.45 802.325 1186.48 806.161 C 1211.66 810.573 1225.05 813.378 1228.32 783.593 C 1235.99 785.661 1242.28 784.288 1248 788.581 C 1250.05 791.628 1249.21 794.515 1248.87 798.366 C 1247.3 803.132 1244.24 839.488 1243.36 846.822 C 1238.03 891.343 1235.3 938.695 1228.99 982.947 C 1221.85 980.027 1215.5 977.331 1208.12 975.109 C 1214.04 936.401 1222.05 919.586 1172.4 914.691 C 1141.1 911.605 1142.58 930.081 1139.05 955.216 C 1132.75 953.51 1125.42 951.337 1119.1 950.125 C 1129.68 892.441 1138.3 829.496 1150.5 772.556 z"/>
<path transform="translate(0,0)" fill="rgb(232,170,115)" d="M 995.072 738.302 C 996.765 760.161 1030.92 757.65 1045.56 751.91 C 1053.23 748.902 1052.65 734.43 1054.63 726.943 C 1057.19 724.531 1056.75 725.349 1061.46 725.238 C 1063.69 726.802 1063.96 726.284 1064.2 729.44 C 1064.72 736.23 1064.79 743.586 1065.04 750.406 L 1066.6 794.198 C 1068.03 835.779 1068.12 877.397 1070.03 918.973 C 1070.31 925.101 1071.02 938.651 1068.04 943.885 C 1050.42 941.825 1067.95 910.584 1055.76 898.848 C 1049.19 892.528 1045.55 890.476 1036.13 889.988 C 982.712 887.224 989.189 897.039 986.967 940.926 C 983.814 941.56 983.772 941.751 980.655 941.294 C 978.186 937.571 978.147 916.858 978.488 911.507 C 982.391 850.219 980.383 786.726 985.502 725.699 C 990.239 725.872 990.525 725.084 993.722 727.328 C 995.227 731.865 994.123 733.952 995.072 738.302 z"/>
<path transform="translate(0,0)" fill="url(#Gradient4)" d="M 876.749 775.551 C 884.478 774.025 890.477 773.263 898.386 772.608 C 908.38 831.669 919.952 891.221 929.505 950.132 C 922.794 951.808 916.098 953.545 909.419 955.344 C 901.87 914.326 902.689 908.561 855.713 918.183 C 825.522 924.367 838.826 952.284 840.626 973.088 C 840.761 974.652 838.262 976.235 837.264 976.931 C 835.671 974.524 830.743 966.888 830.574 964.561 C 828.8 939.998 805.915 796.172 816.535 784.794 L 818.886 784.299 C 823.299 790.799 820.199 806 835.925 808.451 C 845.683 809.972 856.116 807.222 865.682 805.204 C 880.816 799.765 878.725 789.141 876.749 775.551 z"/>
<path transform="translate(0,0)" fill="rgb(215,151,104)" d="M 972.109 726.026 L 985.502 725.699 C 980.383 786.726 982.391 850.219 978.488 911.507 C 978.147 916.858 978.186 937.571 980.655 941.294 C 983.772 941.751 983.814 941.56 986.967 940.926 L 985.635 942.563 C 979.721 943.802 971.375 944.249 965.164 944.76 C 965.749 873.657 969.762 797.335 972.109 726.026 z"/>
<path transform="translate(0,0)" fill="rgb(215,151,104)" d="M 1061.46 725.238 C 1066.38 725.32 1072.65 724.601 1076.15 727.509 C 1077.32 730.392 1077.11 731.228 1077.18 734.332 C 1075.53 749.459 1078.36 783.463 1078.74 799.989 C 1079.87 848.273 1082.53 896.88 1082.84 945.22 C 1077.74 944.562 1073.19 943.811 1068.04 943.885 C 1071.02 938.651 1070.31 925.101 1070.03 918.973 C 1068.12 877.397 1068.03 835.779 1066.6 794.198 L 1065.04 750.406 C 1064.79 743.586 1064.72 736.23 1064.2 729.44 C 1063.96 726.284 1063.69 726.802 1061.46 725.238 z"/>
<path transform="translate(0,0)" fill="rgb(190,125,84)" d="M 798.574 787.354 C 804.854 786.273 810.173 785.327 816.535 784.794 C 805.915 796.172 828.8 939.998 830.574 964.561 C 830.743 966.888 835.671 974.524 837.264 976.931 C 832.715 977.035 823.864 981.216 819.329 983.095 L 806.477 861.606 C 804.804 845.866 802.811 817.034 799.943 802.489 C 799.908 798.592 798.979 791.472 798.574 787.354 z"/>
<path transform="translate(0,0)" fill="rgb(190,125,84)" d="M 1255.43 1139.71 C 1259.08 1142.64 1265.2 1153.72 1269.6 1157.6 C 1277.08 1164.2 1292.12 1164.42 1301.07 1164.63 C 1302.44 1187.22 1301.82 1213.02 1301.38 1235.75 C 1300.03 1304.91 1302.97 1374.99 1301.09 1444.02 C 1295.46 1452.14 1283.19 1464.59 1276.22 1471.93 C 1262.1 1486.61 1248.08 1501.39 1234.18 1516.28 C 1223.85 1511.47 1219.25 1508.1 1210.55 1500.78 C 1144.45 1441.67 1178.25 1326.8 1148.95 1249.3 C 1183.13 1212.99 1220.4 1175.32 1255.43 1139.71 z"/>
<path transform="translate(0,0)" fill="rgb(215,151,104)" d="M 1380.57 1078.33 C 1386.63 1080.31 1397.46 1096.82 1416.86 1094.96 C 1431.21 1093.59 1438.08 1090.5 1448.18 1080.2 C 1457.1 1084.28 1483.63 1094.47 1487.15 1102.68 C 1487.76 1116.47 1474.02 1145.32 1468.38 1159.13 L 1436.55 1236.6 C 1423.35 1268.51 1410.67 1301.89 1395.9 1333.03 C 1392.29 1340.63 1377.87 1356.55 1371.82 1363.56 C 1356.74 1381.34 1343.67 1397.61 1326.49 1413.53 C 1323.85 1388.99 1325.08 1343.89 1325.09 1317.43 C 1330.28 1314.33 1335.35 1311.15 1340.41 1307.88 C 1368.6 1289.66 1377.69 1256.01 1376.25 1224.1 C 1374.8 1191.95 1364.75 1161.98 1346.63 1135.45 C 1356.84 1116.67 1369.6 1097.19 1380.57 1078.33 z"/>
<path transform="translate(0,0)" fill="url(#Gradient3)" d="M 1450.58 1094.78 C 1457.3 1096.7 1469.5 1102.9 1476.27 1106.09 C 1472.84 1116.4 1466.88 1128.98 1462.89 1139.47 C 1450.61 1171.79 1436.83 1203.56 1423.66 1235.52 L 1400.33 1292.33 C 1392.39 1311.56 1386.41 1329.04 1372.24 1344.63 C 1360.64 1357.39 1349.94 1370.6 1337.76 1382.94 L 1337.94 1371.42 C 1338.05 1356.06 1338.25 1339.98 1336.92 1324.72 C 1408.02 1281.49 1395.59 1198.61 1361.09 1134.8 C 1368.63 1122.17 1376.31 1109.62 1384.14 1097.16 C 1407.45 1110.11 1428.06 1111.04 1450.58 1094.78 z"/>
<path transform="translate(0,0)" fill="rgb(215,151,104)" d="M 1490.17 884.216 C 1509.45 882.982 1525.93 883.811 1522.61 907.672 C 1518.57 932.006 1516.5 958.602 1511.92 982.668 C 1506.7 1010.08 1506.31 1053.54 1494.97 1077.94 C 1482.23 1071.91 1469.38 1066.1 1456.44 1060.5 C 1456.49 1059.22 1456.52 1057.94 1456.53 1056.66 C 1456.7 1025.71 1437.6 1011.17 1408.18 1011.12 C 1410.96 994.481 1416.45 979.047 1421.13 962.925 C 1431.03 928.78 1453.29 893.111 1490.17 884.216 z"/>
<path transform="translate(0,0)" fill="rgb(156,89,56)" d="M 1491.93 896.16 C 1498.86 895.784 1503.9 895.033 1510.23 898.129 C 1510.7 898.819 1511.17 899.51 1511.64 900.2 C 1504.28 947.744 1495.08 1016.72 1488.79 1061.79 L 1468.17 1052.6 C 1468 1048.69 1467.15 1043.67 1466.6 1039.71 C 1460.43 1017.4 1445.78 1004.73 1423.17 1000.4 C 1434.09 963.824 1447.27 905.697 1491.93 896.16 z"/>
<path transform="translate(0,0)" fill="rgb(215,151,104)" d="M 1010.69 529.066 C 1047.03 527.257 1038.65 530.619 1039.68 563.994 L 1070.93 564.278 C 1071.72 610.468 1074.77 656.779 1075.24 703.049 L 1052.93 702.986 C 1053.3 687.45 1055.6 676.611 1038.98 669.989 C 1027.58 669.667 1018.82 669.569 1007.37 670.104 C 992.368 679.478 994.799 686.758 995.012 702.969 L 972.967 702.969 C 973.021 657.662 976.912 610.747 977.146 564.956 C 987.753 564.575 998.365 564.329 1008.98 564.219 C 1009.14 554.354 1007.88 537.766 1010.69 529.066 z"/>
<path transform="translate(0,0)" fill="url(#Gradient2)" d="M 832.946 605.426 C 835.873 605.024 834.474 604.824 837.247 606.277 C 841.331 613.08 842.525 627.781 843.584 636.137 C 853.711 634.604 863.866 633.27 874.044 632.135 C 880.474 671.386 887.783 710.895 894.595 750.123 L 874.108 753.068 C 869.283 726.022 865.386 721.982 838.033 726.291 C 813.266 730.164 814 740.839 816.849 762.269 C 809.977 763.302 803.117 764.411 796.27 765.595 C 793.192 726.169 788.297 685.881 784.576 646.386 L 814.341 641.306 C 813.424 630.772 811.289 620.908 810.474 609.629 C 817.782 607.011 825.292 606.313 832.946 605.426 z"/>
<path transform="translate(0,0)" fill="rgb(190,125,84)" d="M 1204.75 636.764 C 1205.64 631.525 1206.96 607.41 1212.78 606.45 C 1246.25 600.929 1236.35 622.328 1233.67 641.371 C 1243.52 643.062 1253.84 644.987 1263.68 646.506 L 1257.35 710.618 C 1256.74 716.901 1255.28 736.262 1254.13 741.559 C 1253.95 749.101 1252.86 757.417 1252 764.92 L 1231.66 761.153 C 1232.8 754.844 1233.08 748.509 1233.53 742.107 C 1225.9 723.854 1207.76 725.063 1190.44 724.395 C 1183.79 727.482 1182.69 728.862 1177.56 733.854 C 1176.61 740.24 1175.32 746.495 1174.18 752.842 C 1168.26 751.95 1160.01 750.934 1154.37 749.64 C 1158.85 713.806 1167.79 668.339 1174.02 632.274 C 1185.1 633.504 1193.78 634.769 1204.75 636.764 z"/>
<path transform="translate(0,0)" fill="rgb(215,151,104)" d="M 1204.75 636.764 C 1205.64 631.525 1206.96 607.41 1212.78 606.45 C 1246.25 600.929 1236.35 622.328 1233.67 641.371 C 1243.52 643.062 1253.84 644.987 1263.68 646.506 L 1257.35 710.618 C 1256.74 716.901 1255.28 736.262 1254.13 741.559 C 1248.18 748.86 1254.83 759.056 1248.44 762.576 C 1245.54 761.707 1239.92 761.724 1239.95 757.873 C 1240.09 743.343 1253.71 663.909 1248.99 656.348 C 1245.88 654.296 1192.68 646.928 1187.13 647.369 C 1182.33 654.056 1169.27 743.03 1170.11 750.614 L 1171.34 750.703 C 1174.74 743.967 1173.85 738.712 1176.88 733.151 L 1177.56 733.854 C 1176.61 740.24 1175.32 746.495 1174.18 752.842 C 1168.26 751.95 1160.01 750.934 1154.37 749.64 C 1158.85 713.806 1167.79 668.339 1174.02 632.274 C 1185.1 633.504 1193.78 634.769 1204.75 636.764 z"/>
<path transform="translate(0,0)" fill="rgb(232,170,115)" d="M 978.562 542.984 C 979.144 509.068 980.427 471.212 984.59 437.632 C 988.326 407.491 1023.98 387.865 1048.39 409.19 C 1069.17 427.343 1066.54 466.955 1067.54 492.185 L 1069.98 542.575 L 1053.01 542.359 C 1052.96 537.904 1053.07 534.02 1053.27 529.567 C 1051.35 524.012 1047.99 518.337 1042.13 516.429 C 1023.33 510.308 995.048 510.249 994.636 536.265 C 994.979 539.02 995.058 538.857 994.27 541.493 C 990.397 544.06 983.509 543.121 978.562 542.984 z"/>
<path transform="translate(0,0)" fill="url(#Gradient1)" d="M 978.562 542.984 C 979.144 509.068 980.427 471.212 984.59 437.632 C 988.326 407.491 1023.98 387.865 1048.39 409.19 C 1069.17 427.343 1066.54 466.955 1067.54 492.185 L 1069.98 542.575 L 1053.01 542.359 C 1052.96 537.904 1053.07 534.02 1053.27 529.567 C 1058.99 522.558 1054.21 468.653 1053.7 456.493 C 1051.01 391.835 994.786 400.116 994.548 459.027 C 994.487 474.165 989.127 528.414 992.594 540.414 C 993.531 538.777 993.901 538.004 994.636 536.265 C 994.979 539.02 995.058 538.857 994.27 541.493 C 990.397 544.06 983.509 543.121 978.562 542.984 z"/>
<path transform="translate(0,0)" fill="rgb(156,89,56)" d="M 730.032 898.302 L 742.466 894.113 C 755.219 930.172 768.575 968.472 780.118 1004.88 C 775.276 1007.45 770.511 1009.92 765.807 1012.75 C 763.303 1006.74 762.219 1003.62 758.488 998.275 C 751.924 993.084 747.418 990.882 738.826 992.603 C 691.896 1002 696.527 1013.57 708.025 1051.05 C 705.694 1052.8 703.549 1054.57 701.036 1056.03 L 690.629 1063.94 C 678.176 1019.51 665.973 966.886 655.176 921.803 C 660.398 920.234 666.75 915.892 671.685 917.177 C 673.313 917.601 673.846 919.734 674.857 921.679 C 681.548 942.494 706.536 933.591 720.243 926.149 C 732.483 919.504 725.166 907.895 726.854 899.769 L 730.032 898.302 z"/>
<path transform="translate(0,0)" fill="rgb(190,125,84)" d="M 655.176 921.803 C 660.398 920.234 666.75 915.892 671.685 917.177 C 673.313 917.601 673.846 919.734 674.857 921.679 C 673.567 922.505 672.81 923.115 671.319 923.52 C 668.597 927.924 672.19 940.554 673.482 946.011 C 679.436 970.691 685.743 995.284 692.401 1019.78 C 694.29 1026.95 700.748 1049.55 701.036 1056.03 L 690.629 1063.94 C 678.176 1019.51 665.973 966.886 655.176 921.803 z"/>
<path transform="translate(0,0)" fill="rgb(190,125,84)" d="M 730.032 898.302 L 742.466 894.113 C 755.219 930.172 768.575 968.472 780.118 1004.88 C 775.276 1007.45 770.511 1009.92 765.807 1012.75 C 763.303 1006.74 762.219 1003.62 758.488 998.275 C 759.727 997.632 759.54 997.981 761.46 998.223 C 762.208 986.971 735.726 908.859 730.032 898.302 z"/>
<path transform="translate(0,0)" fill="rgb(156,89,56)" d="M 782.549 624.979 C 779.813 593.098 774.623 560.812 775.465 528.8 C 776.261 498.525 806.736 478.05 833.431 494.11 C 854.113 506.553 857.741 543.287 861.786 565.102 L 870.489 611.676 C 865.529 612.058 859.664 613.066 854.667 613.792 C 853.77 607.097 853.531 605.919 851.112 599.481 C 847.072 594.399 843.283 591.207 836.562 590.865 C 816.924 589.864 795.335 593.379 796.617 617.583 C 797.1 619.96 797.244 619.843 796.269 622.024 C 792.56 624.086 786.948 624.386 782.549 624.979 z"/>
<path transform="translate(0,0)" fill="rgb(190,125,84)" d="M 782.549 624.979 C 779.813 593.098 774.623 560.812 775.465 528.8 C 776.261 498.525 806.736 478.05 833.431 494.11 C 854.113 506.553 857.741 543.287 861.786 565.102 L 870.489 611.676 C 865.529 612.058 859.664 613.066 854.667 613.792 C 853.77 607.097 853.531 605.919 851.112 599.481 C 852.103 598.435 853.421 597.14 853.141 595.237 C 849.745 572.172 846.458 545.684 839.423 523.594 C 837.531 517.654 832.79 510.173 828.544 506.426 C 823.901 502.327 818.539 500.207 812.417 500.799 C 805.695 501.449 798.419 505.537 794.174 510.798 C 780.554 527.686 790.603 566.872 791.682 587.526 C 791.72 588.25 796.446 616.834 796.617 617.583 C 797.1 619.96 797.244 619.843 796.269 622.024 C 792.56 624.086 786.948 624.386 782.549 624.979 z"/>
<path transform="translate(0,0)" fill="rgb(190,125,84)" d="M 1178.19 611.626 C 1181.43 592.612 1185.28 573.702 1188.49 554.298 C 1192.95 524.599 1201.53 483.304 1241.37 489.296 C 1268.1 493.316 1274.6 523.126 1273 545.728 C 1271.12 572.356 1268.19 598.821 1265.78 625.336 C 1261.14 624.417 1255.4 623.11 1250.8 622.505 C 1251.19 618.568 1251.76 614.022 1252 610.136 C 1247.87 592.409 1230.2 590.472 1214.47 590.446 C 1206.51 590.432 1202.4 593.126 1197.38 599.033 C 1195.13 604.712 1194.78 608.084 1193.82 614.016 L 1178.19 611.626 z"/>
<path transform="translate(0,0)" fill="rgb(215,151,104)" d="M 1178.19 611.626 C 1181.43 592.612 1185.28 573.702 1188.49 554.298 C 1192.95 524.599 1201.53 483.304 1241.37 489.296 C 1268.1 493.316 1274.6 523.126 1273 545.728 C 1271.12 572.356 1268.19 598.821 1265.78 625.336 C 1261.14 624.417 1255.4 623.11 1250.8 622.505 C 1251.19 618.568 1251.76 614.022 1252 610.136 C 1258.36 598.403 1260.79 549.856 1261.37 535.727 C 1263.06 494.967 1215.29 486.756 1206.89 528.34 C 1204.54 539.932 1193.32 591.653 1197.38 599.033 C 1195.13 604.712 1194.78 608.084 1193.82 614.016 L 1178.19 611.626 z"/>
<path transform="translate(0,0)" fill="rgb(190,125,84)" d="M 648.318 776.11 C 655.907 772.836 662.504 771.082 670.465 769.106 C 674.738 777.136 677.372 786.903 680.011 795.678 C 688.734 793.05 697.469 790.466 706.218 787.927 C 715.74 813.553 728.097 849.53 736.143 875.342 C 730.376 876.555 727.327 879.089 721.719 879.183 C 718.305 877.519 719.387 877.985 717.585 873.178 C 712.302 864.316 710.285 862.064 700.147 858.574 C 640.082 873.595 676.894 891.522 663.142 898.185 L 650.754 901.974 C 644.287 872.693 635.396 841.518 628.224 811.955 L 654.789 803.584 C 652.431 794.622 649.714 785.228 648.318 776.11 z"/>
<path transform="translate(0,0)" fill="rgb(156,89,56)" d="M 643.139 819.69 C 658.619 813.855 680.883 807.912 696.975 803.152 C 703.274 817.942 719.021 858.13 719.23 872.845 L 718.736 872.702 L 717.585 873.178 C 712.302 864.316 710.285 862.064 700.147 858.574 C 640.082 873.595 676.894 891.522 663.142 898.185 C 659.839 893.74 645.339 828.927 643.139 819.69 z"/>
<path transform="translate(0,0)" fill="rgb(156,89,56)" d="M 624.149 792.351 C 618.49 770.041 600.381 712.499 608.661 691.68 C 612.341 682.427 618.648 676.315 627.842 672.675 C 636.098 669.406 645.053 669.28 653.108 673.212 C 673.794 683.31 680.184 710.789 686.938 730.607 C 691.401 743.488 695.724 756.417 699.904 769.392 L 687.777 773.254 C 686.16 768.091 684.619 765.172 682.275 760.355 C 674.334 754.978 669.82 753.925 660.296 755.957 C 647.567 758.672 637.981 762.75 633.845 775.294 C 634.028 779.034 635.029 784.571 635.603 788.414 L 624.149 792.351 z"/>
<path transform="translate(0,0)" fill="rgb(190,125,84)" d="M 624.149 792.351 C 618.49 770.041 600.381 712.499 608.661 691.68 C 612.341 682.427 618.648 676.315 627.842 672.675 C 636.098 669.406 645.053 669.28 653.108 673.212 C 673.794 683.31 680.184 710.789 686.938 730.607 C 691.401 743.488 695.724 756.417 699.904 769.392 L 687.777 773.254 C 686.16 768.091 684.619 765.172 682.275 760.355 C 680.48 747.345 673.841 733.782 670.791 722.415 C 664.391 698.562 648.149 665.328 621.49 691.926 C 611.305 702.089 627.868 764.648 633.845 775.294 C 634.028 779.034 635.029 784.571 635.603 788.414 L 624.149 792.351 z"/>
<path transform="translate(0,0)" fill="rgb(215,151,104)" d="M 1334.55 1150.91 C 1347.88 1154.3 1358.89 1208.96 1359.08 1221.51 C 1359.44 1246.21 1357.8 1266.04 1340.83 1284.93 C 1334.94 1290.51 1332.12 1292.49 1325.33 1296.86 C 1324 1252.3 1325.13 1201.46 1325.12 1156.43 L 1334.55 1150.91 z"/>
<path transform="translate(0,0)" fill="rgb(215,151,104)" d="M 1011.85 684.292 C 1019.2 683.956 1031.03 682.549 1037.18 685.686 C 1041.18 693.353 1038.96 728.588 1038.4 738.598 C 1037.71 739.343 1037.01 740.087 1036.32 740.832 C 1028.92 741.077 1017.73 742.02 1010.95 739.755 C 1007.59 736.177 1007.65 688.921 1011.85 684.292 z"/>
<path transform="translate(0,0)" fill="rgb(215,151,104)" d="M 1408.97 1031.51 C 1421.12 1027.85 1433.95 1034.7 1437.66 1046.84 C 1441.37 1058.98 1434.57 1071.83 1422.45 1075.59 C 1410.26 1079.38 1397.3 1072.53 1393.57 1060.32 C 1389.84 1048.11 1396.74 1035.19 1408.97 1031.51 z"/>
<path transform="translate(0,0)" fill="rgb(215,151,104)" d="M 1191.71 739.007 C 1199.26 739.76 1210.93 740.2 1217.38 743.659 C 1220.31 749.566 1213.51 786.783 1211.68 794.48 C 1202.94 795.047 1193.04 792.875 1184.57 790.798 C 1184.51 780.832 1188.44 748.132 1191.71 739.007 z"/>
<path transform="translate(0,0)" fill="rgb(190,125,84)" d="M 844.706 740.327 C 846.395 739.967 854.257 739.428 856.427 739.229 C 858.763 746.085 863.996 781.7 863.511 788.831 C 859.941 793.071 853.785 792.988 848.281 793.65 C 844.883 794.357 840.003 794.403 836.405 794.588 C 833.877 786.012 830.295 753.592 829.538 743.9 C 836.161 741.556 837.775 741.236 844.706 740.327 z"/>
<path transform="translate(0,0)" fill="rgb(190,125,84)" d="M 696.375 874.983 C 697.668 874.943 699.603 874.626 700.457 875.269 C 707.008 880.201 711.985 904.744 713.982 912.416 C 706.733 915.725 702.889 917.045 695.238 919.406 C 694.193 919.768 692.772 919.718 691.57 919.786 C 685.602 915.254 680.649 889.731 678.679 881.432 C 684.305 878.772 690.444 876.95 696.375 874.983 z"/>
<path transform="translate(0,0)" fill="rgb(242,245,253)" d="M 1492.72 491.546 C 1494.62 490.266 1497.06 490.115 1499.11 491.15 C 1501.16 492.186 1502.48 494.247 1502.58 496.537 C 1502.67 498.828 1501.52 500.991 1499.56 502.191 C 1496.63 503.994 1492.79 503.119 1490.93 500.222 C 1489.06 497.324 1489.86 493.469 1492.72 491.546 z"/>
<path transform="translate(0,0)" fill="rgb(242,245,253)" d="M 390.288 978.531 C 392.243 977.442 394.637 977.504 396.532 978.694 C 398.428 979.884 399.525 982.011 399.394 984.246 C 399.264 986.48 397.926 988.465 395.905 989.426 C 392.916 990.847 389.338 989.64 387.822 986.698 C 386.305 983.756 387.397 980.141 390.288 978.531 z"/>
<path transform="translate(0,0)" fill="rgb(242,245,253)" d="M 1607.09 679.496 C 1609.1 678.673 1611.39 678.998 1613.1 680.346 C 1614.8 681.694 1615.64 683.855 1615.29 685.998 C 1614.95 688.14 1613.48 689.932 1611.44 690.682 C 1608.37 691.815 1604.96 690.278 1603.77 687.227 C 1602.59 684.176 1604.06 680.737 1607.09 679.496 z"/>
<path transform="translate(0,0)" fill="rgb(242,245,253)" d="M 1615.87 1238.51 C 1619.03 1237.8 1622.17 1239.77 1622.89 1242.93 C 1623.61 1246.08 1621.64 1249.22 1618.49 1249.95 C 1615.33 1250.69 1612.17 1248.71 1611.45 1245.55 C 1610.72 1242.38 1612.7 1239.23 1615.87 1238.51 z"/>
<path transform="translate(0,0)" fill="rgb(242,245,253)" d="M 758.063 344.552 C 761.046 343.307 764.473 344.72 765.71 347.706 C 766.947 350.692 765.524 354.115 762.534 355.344 C 759.557 356.568 756.149 355.152 754.917 352.177 C 753.685 349.203 755.092 345.792 758.063 344.552 z"/>
<path transform="translate(0,0)" fill="rgb(242,245,253)" d="M 489.93 1453.54 C 492.672 1451.87 496.251 1452.74 497.918 1455.49 C 499.585 1458.23 498.707 1461.81 495.958 1463.47 C 493.218 1465.12 489.654 1464.25 487.992 1461.51 C 486.33 1458.78 487.197 1455.21 489.93 1453.54 z"/>
<path transform="translate(0,0)" fill="rgb(242,245,253)" d="M 783.087 1674.63 C 785.78 1673.03 789.26 1673.89 790.895 1676.56 C 792.531 1679.23 791.714 1682.72 789.062 1684.39 C 787.317 1685.49 785.116 1685.57 783.301 1684.59 C 781.485 1683.61 780.335 1681.73 780.291 1679.67 C 780.247 1677.61 781.315 1675.68 783.087 1674.63 z"/>
<path transform="translate(0,0)" fill="rgb(242,245,253)" d="M 1766.72 1101.54 C 1769.25 1100.82 1771.89 1102.27 1772.63 1104.79 C 1773.38 1107.31 1771.95 1109.96 1769.44 1110.73 C 1767.79 1111.24 1766 1110.82 1764.75 1109.64 C 1763.49 1108.45 1762.97 1106.69 1763.38 1105.01 C 1763.79 1103.34 1765.07 1102.01 1766.72 1101.54 z"/>
<path transform="translate(0,0)" fill="rgb(242,245,253)" d="M 1441.01 725.621 C 1443.42 725.491 1445.53 727.203 1445.9 729.582 C 1446.27 731.962 1444.78 734.234 1442.45 734.84 C 1440.72 735.289 1438.88 734.716 1437.72 733.362 C 1436.55 732.008 1436.25 730.109 1436.95 728.465 C 1437.66 726.821 1439.23 725.718 1441.01 725.621 z"/>
<path transform="translate(0,0)" fill="rgb(242,245,253)" d="M 309.852 1141.41 C 311.334 1140.74 313.066 1140.91 314.384 1141.87 C 315.701 1142.83 316.399 1144.42 316.209 1146.04 C 316.02 1147.66 314.973 1149.05 313.47 1149.68 C 311.197 1150.63 308.581 1149.58 307.594 1147.33 C 306.606 1145.07 307.611 1142.44 309.852 1141.41 z"/>
<path transform="translate(0,0)" fill="rgb(242,245,253)" d="M 405.421 602.482 C 407.237 601.165 409.769 601.517 411.158 603.279 C 412.546 605.041 412.297 607.584 410.593 609.043 C 409.427 610.04 407.809 610.319 406.377 609.77 C 404.945 609.221 403.929 607.931 403.729 606.411 C 403.53 604.89 404.179 603.382 405.421 602.482 z"/>
</svg>