<svg version="1.1" xmlns="http://www.w3.org/2000/svg" style="display: block;" viewBox="0 0 2048 2048" width="2048" height="2048" preserveAspectRatio="none">
<defs>
	<linearGradient id="Gradient1" gradientUnits="userSpaceOnUse" x1="1023.71" y1="1459.46" x2="1023.25" y2="1424.54">
		<stop class="stop0" offset="0" stop-opacity="1" stop-color="rgb(91,61,79)"/>
		<stop class="stop1" offset="1" stop-opacity="1" stop-color="rgb(134,64,82)"/>
	</linearGradient>
	<linearGradient id="Gradient2" gradientUnits="userSpaceOnUse" x1="1027.52" y1="767.196" x2="1019.17" y2="808.495">
		<stop class="stop0" offset="0" stop-opacity="1" stop-color="rgb(113,42,61)"/>
		<stop class="stop1" offset="1" stop-opacity="1" stop-color="rgb(178,51,71)"/>
	</linearGradient>
	<linearGradient id="Gradient3" gradientUnits="userSpaceOnUse" x1="1014.62" y1="841.523" x2="1027.03" y2="641.655">
		<stop class="stop0" offset="0" stop-opacity="1" stop-color="rgb(112,40,60)"/>
		<stop class="stop1" offset="1" stop-opacity="1" stop-color="rgb(28,49,72)"/>
	</linearGradient>
	<linearGradient id="Gradient4" gradientUnits="userSpaceOnUse" x1="1021.77" y1="963.291" x2="1024.31" y2="1392.28">
		<stop class="stop0" offset="0" stop-opacity="1" stop-color="rgb(40,44,66)"/>
		<stop class="stop1" offset="1" stop-opacity="1" stop-color="rgb(126,55,75)"/>
	</linearGradient>
	<linearGradient id="Gradient5" gradientUnits="userSpaceOnUse" x1="702.624" y1="1071.93" x2="1894.37" y2="891.671">
		<stop class="stop0" offset="0" stop-opacity="1" stop-color="rgb(202,162,97)"/>
		<stop class="stop1" offset="1" stop-opacity="1" stop-color="rgb(244,209,137)"/>
	</linearGradient>
</defs>
<path transform="translate(0,0)" fill="rgb(15,24,49)" d="M 0 0 L 2048 0 L 2048 2048 L 0 2048 L 0 0 z"/>
<path transform="translate(0,0)" fill="rgb(15,24,49)" d="M 578.062 263.33 C 606.66 244.986 649.604 224.058 680.799 210.714 C 848.501 139.304 1034.3 121.976 1212.31 161.143 C 1359.53 193.601 1495.94 263.327 1608.47 363.639 C 1625.15 378.288 1641.3 393.535 1656.89 409.348 C 1661.4 414.011 1692.4 449.382 1695.21 451.111 C 1702.1 453.805 1714.75 471.176 1719.72 477.559 C 1765.94 536.304 1804.6 600.626 1834.78 669.013 C 1856.28 718.05 1874.33 772.285 1887.05 824.127 C 1893.27 849.493 1895.69 878.181 1901.5 903.61 C 1901.52 903.729 1903.57 905.295 1903.64 905.347 C 1903.26 908.27 1902.28 907.259 1901.4 909.345 C 1899.93 912.831 1908.52 938.54 1905.85 943.728 C 1904.82 945.73 1904.81 946.958 1905.1 949.203 C 1907.9 951.596 1907.53 950.337 1908.06 953.003 C 1904.95 958.526 1904.73 958.166 1908.89 963.661 C 1908.68 972.833 1907.99 982.052 1908.2 991.218 C 1908.29 995.047 1909.68 995.848 1909.77 999.813 L 1911.26 997.157 C 1910 1016.17 1908.78 1032.59 1911.3 1051.52 C 1911.81 1055.36 1907.29 1055.98 1908.02 1060.47 C 1907.42 1067.75 1912 1073.96 1908.88 1077.74 L 1907.5 1077.38 C 1907.26 1087.44 1906.84 1097.5 1906.24 1107.54 L 1906.09 1106.93 C 1905.77 1111.04 1905.34 1130.67 1904.24 1131.88 L 1903.53 1129.44 C 1902.92 1130.54 1899.22 1156.01 1899.17 1158.71 C 1898.95 1170.39 1889.33 1202.61 1891.67 1211.22 L 1889.89 1209.85 C 1888.2 1214.74 1887.56 1218.76 1886.41 1223.97 C 1871.18 1292.67 1845.89 1359.43 1814.32 1422.41 C 1811.12 1428.79 1804.65 1443.27 1799.39 1446.29 C 1790.66 1459.79 1782.38 1475.35 1773.68 1489.28 C 1758.42 1513.5 1742.02 1536.99 1724.55 1559.66 C 1595.42 1728.57 1409.91 1845.47 1201.82 1889.06 C 1161.98 1897.45 1121.56 1902.87 1080.92 1905.27 C 1076.21 1905.52 1060.16 1906.52 1056.09 1906.11 C 1038.68 1908.56 992.228 1906.61 974.63 1905.64 C 931.071 1903.41 887.758 1897.71 845.106 1888.6 L 836.269 1886.61 C 817.184 1882.7 789.286 1875.63 770.786 1869.53 C 755.912 1866.58 716.029 1851.28 701.921 1845.71 C 571.289 1793.76 454.812 1711.62 362.018 1606.01 C 206.954 1431.07 128.05 1201.52 142.788 968.217 C 154.047 796.731 215.031 632.242 318.285 494.863 C 329.68 479.753 363.57 436.761 377.129 424.853 C 386.762 411.739 423.026 378.453 435.777 367.322 C 439.344 363.448 454.768 350.466 458.999 347.027 C 493.731 318.798 538.753 284.463 578.062 263.33 z"/>
<path transform="translate(0,0)" fill="url(#Gradient5)" d="M 578.062 263.33 C 606.66 244.986 649.604 224.058 680.799 210.714 C 848.501 139.304 1034.3 121.976 1212.31 161.143 C 1359.53 193.601 1495.94 263.327 1608.47 363.639 C 1625.15 378.288 1641.3 393.535 1656.89 409.348 C 1661.4 414.011 1692.4 449.382 1695.21 451.111 C 1702.1 453.805 1714.75 471.176 1719.72 477.559 C 1765.94 536.304 1804.6 600.626 1834.78 669.013 C 1856.28 718.05 1874.33 772.285 1887.05 824.127 C 1893.27 849.493 1895.69 878.181 1901.5 903.61 C 1901.52 903.729 1903.57 905.295 1903.64 905.347 C 1903.26 908.27 1902.28 907.259 1901.4 909.345 C 1899.93 912.831 1908.52 938.54 1905.85 943.728 C 1904.82 945.73 1904.81 946.958 1905.1 949.203 C 1907.9 951.596 1907.53 950.337 1908.06 953.003 C 1904.95 958.526 1904.73 958.166 1908.89 963.661 C 1908.68 972.833 1907.99 982.052 1908.2 991.218 C 1908.29 995.047 1909.68 995.848 1909.77 999.813 L 1911.26 997.157 C 1910 1016.17 1908.78 1032.59 1911.3 1051.52 C 1911.81 1055.36 1907.29 1055.98 1908.02 1060.47 C 1907.42 1067.75 1912 1073.96 1908.88 1077.74 L 1907.5 1077.38 C 1907.26 1087.44 1906.84 1097.5 1906.24 1107.54 L 1906.09 1106.93 C 1905.77 1111.04 1905.34 1130.67 1904.24 1131.88 L 1903.53 1129.44 C 1902.92 1130.54 1899.22 1156.01 1899.17 1158.71 C 1898.95 1170.39 1889.33 1202.61 1891.67 1211.22 L 1889.89 1209.85 C 1888.2 1214.74 1887.56 1218.76 1886.41 1223.97 C 1871.18 1292.67 1845.89 1359.43 1814.32 1422.41 C 1811.12 1428.79 1804.65 1443.27 1799.39 1446.29 C 1790.66 1459.79 1782.38 1475.35 1773.68 1489.28 C 1758.42 1513.5 1742.02 1536.99 1724.55 1559.66 C 1595.42 1728.57 1409.91 1845.47 1201.82 1889.06 C 1161.98 1897.45 1121.56 1902.87 1080.92 1905.27 C 1076.21 1905.52 1060.16 1906.52 1056.09 1906.11 C 1038.68 1908.56 992.228 1906.61 974.63 1905.64 C 931.071 1903.41 887.758 1897.71 845.106 1888.6 L 836.269 1886.61 C 817.184 1882.7 789.286 1875.63 770.786 1869.53 C 780.166 1866.59 816.516 1882.05 826.613 1878.73 C 828.294 1876.35 827.822 1866.05 827.848 1862.42 C 818.877 1855.73 754.696 1840.8 737.745 1832.62 L 737.979 1831.07 C 762.758 1837.94 785.793 1846.61 811.85 1853.37 C 839.868 1861.78 889.158 1869.77 918.225 1873.6 C 1055.64 1891.68 1211.52 1872.9 1340.04 1819.16 C 1353.29 1814.06 1366.36 1808.52 1379.24 1802.54 C 1536.5 1729.78 1668.43 1611.7 1758.13 1463.44 C 1782.49 1423.33 1807.26 1374.38 1823.41 1330.23 C 1836.06 1299.96 1850.45 1251.79 1857.45 1219.84 C 1858.92 1216.44 1863.28 1194.63 1864.2 1189.89 C 1874.47 1137.75 1879.9 1084.77 1880.44 1031.62 C 1880.56 1018.16 1880.72 999.556 1879.44 986.224 C 1878.3 958.594 1875.67 931.046 1871.57 903.698 C 1871.17 896.283 1867.79 878.412 1866.43 871.029 C 1860.23 836.658 1851.85 802.718 1841.33 769.416 C 1774.49 558.55 1622.91 371.23 1426.07 268.902 C 1409.18 259.566 1391.88 250.981 1374.24 243.172 C 1368.9 240.092 1351.42 233.05 1345.41 230.592 C 1307.37 214.938 1268.2 202.197 1228.23 192.477 C 1133.98 165.536 998.726 161.692 902.613 176.416 C 821.642 185.829 730.959 216.198 657.493 250.871 C 635.409 261.294 615.916 273.531 595.305 283.635 C 596.038 277.167 616.325 275.264 607.439 260.309 C 598.026 244.467 588.777 268.948 578.062 263.33 z"/>
<path transform="translate(0,0)" fill="rgb(24,30,46)" d="M 1695.21 451.111 C 1702.1 453.805 1714.75 471.176 1719.72 477.559 C 1765.94 536.304 1804.6 600.626 1834.78 669.013 C 1856.28 718.05 1874.33 772.285 1887.05 824.127 C 1893.27 849.493 1895.69 878.181 1901.5 903.61 C 1901.52 903.729 1903.57 905.295 1903.64 905.347 C 1903.26 908.27 1902.28 907.259 1901.4 909.345 C 1899.93 912.831 1908.52 938.54 1905.85 943.728 C 1904.82 945.73 1904.81 946.958 1905.1 949.203 C 1907.9 951.596 1907.53 950.337 1908.06 953.003 C 1904.95 958.526 1904.73 958.166 1908.89 963.661 C 1908.68 972.833 1907.99 982.052 1908.2 991.218 C 1908.29 995.047 1909.68 995.848 1909.77 999.813 L 1911.26 997.157 C 1910 1016.17 1908.78 1032.59 1911.3 1051.52 C 1911.81 1055.36 1907.29 1055.98 1908.02 1060.47 C 1907.42 1067.75 1912 1073.96 1908.88 1077.74 L 1907.5 1077.38 C 1907.26 1087.44 1906.84 1097.5 1906.24 1107.54 L 1906.09 1106.93 C 1905.77 1111.04 1905.34 1130.67 1904.24 1131.88 L 1903.53 1129.44 C 1902.92 1130.54 1899.22 1156.01 1899.17 1158.71 C 1898.95 1170.39 1889.33 1202.61 1891.67 1211.22 L 1889.89 1209.85 C 1888.2 1214.74 1887.56 1218.76 1886.41 1223.97 C 1871.18 1292.67 1845.89 1359.43 1814.32 1422.41 C 1811.12 1428.79 1804.65 1443.27 1799.39 1446.29 C 1811.39 1422.01 1823.06 1400.1 1833.93 1375.06 C 1875.17 1280.05 1899.47 1178.56 1905.72 1075.18 C 1907.64 1040.09 1907.45 1011.65 1905.7 976.532 C 1897.15 823.18 1848.78 674.704 1765.36 545.745 C 1740.82 508.007 1721.15 485.442 1695.21 451.111 z"/>
<path transform="translate(0,0)" fill="rgb(230,191,127)" d="M 1905.72 1075.18 C 1903.46 1066.08 1903.3 986.826 1905.7 976.532 C 1907.45 1011.65 1907.64 1040.09 1905.72 1075.18 z"/>
<path transform="translate(0,0)" fill="rgb(190,148,85)" d="M 974.63 1905.64 C 988.913 1901.71 1040.28 1904.48 1056.09 1906.11 C 1038.68 1908.56 992.228 1906.61 974.63 1905.64 z"/>
<path transform="translate(0,0)" fill="rgb(190,148,85)" d="M 836.269 1886.61 L 835.305 1881.34 C 837.137 1879.2 836.026 1879.69 838.354 1879.14 C 839.767 1881.48 839.782 1881.93 840.589 1884.59 C 844.147 1883.23 843.429 1880.9 843.57 1877.28 L 845.007 1875.44 L 846.997 1875.46 C 850.247 1880.57 846.625 1879.89 847.747 1885.3 L 845.106 1888.6 L 836.269 1886.61 z"/>
<path transform="translate(0,0)" fill="rgb(190,148,85)" d="M 578.062 263.33 C 588.777 268.948 598.026 244.467 607.439 260.309 C 616.325 275.264 596.038 277.167 595.305 283.635 C 585.304 290.899 570.069 299.683 559.279 306.625 C 542.296 317.712 525.623 329.266 509.279 341.275 C 506.815 343.102 493.287 353.337 491.765 355.265 C 485.336 360.037 450.964 387.722 447.866 393.098 C 433.615 404.48 412.861 425.933 400.3 439.366 C 333.343 510.875 278.941 593.177 239.389 682.8 C 235.047 692.561 221.038 725.321 218.629 734.772 C 148.916 920.659 150.863 1151.41 226.661 1335.21 C 255.743 1412.32 301.994 1489.53 352.921 1553.99 C 357.154 1559.35 376.325 1583.45 381.062 1587.3 C 386.344 1593.4 391.552 1599.61 397.313 1605.25 C 471.241 1685.09 559.611 1750.23 657.758 1797.21 C 670.625 1803.34 687.665 1811.52 701.1 1816.24 C 711.747 1821.05 729.563 1826.76 737.979 1831.07 L 737.745 1832.62 C 754.696 1840.8 818.877 1855.73 827.848 1862.42 C 827.822 1866.05 828.294 1876.35 826.613 1878.73 C 816.516 1882.05 780.166 1866.59 770.786 1869.53 C 755.912 1866.58 716.029 1851.28 701.921 1845.71 C 571.289 1793.76 454.812 1711.62 362.018 1606.01 C 206.954 1431.07 128.05 1201.52 142.788 968.217 C 154.047 796.731 215.031 632.242 318.285 494.863 C 329.68 479.753 363.57 436.761 377.129 424.853 C 386.762 411.739 423.026 378.453 435.777 367.322 C 439.344 363.448 454.768 350.466 458.999 347.027 C 493.731 318.798 538.753 284.463 578.062 263.33 z"/>
<path transform="translate(0,0)" fill="rgb(24,30,46)" d="M 218.629 734.772 C 220.671 740.736 206.24 778.421 203.836 787.878 C 199.835 803.623 196.986 820.836 192.896 836.423 C 180.066 885.313 177.233 935.074 171.984 985.006 L 171.893 984.51 C 170.394 1023.22 170.773 1057.98 175.372 1096.45 C 176.048 1102.09 172.653 1101.1 174.192 1104.22 C 176.051 1114.57 177.037 1128.59 178.527 1138.98 C 181.058 1155.89 183.913 1172.75 187.09 1189.55 C 195.311 1232.87 207.528 1274.57 222.103 1316.12 C 223.993 1321.51 227.9 1329.83 226.661 1335.21 C 150.863 1151.41 148.916 920.659 218.629 734.772 z"/>
<path transform="translate(0,0)" fill="rgb(24,30,46)" d="M 811.85 1853.37 C 819.158 1851.29 836.565 1857.02 844.769 1858.41 C 852.189 1859.66 861.135 1860.81 868.309 1862.38 C 882.54 1865.48 896.042 1869.14 910.734 1870.1 C 923.291 1871.25 935.475 1872.12 948.077 1872.92 C 961.039 1873.74 977.04 1876.64 989.865 1876.72 C 1008.9 1876.82 1028.41 1877.01 1047.38 1876.1 C 1053.03 1875.83 1062.04 1879.58 1066.68 1877.62 C 1075.56 1873.86 1085.8 1877.93 1094.68 1875.31 C 1097.36 1874.52 1095.66 1874.63 1098.69 1874.24 L 1100.32 1874.05 L 1094.95 1873.86 C 1095.82 1872.36 1118.86 1871.09 1121.37 1871.08 C 1141.39 1870.99 1159.6 1866.75 1179.08 1862.99 C 1181.34 1862.13 1188.77 1862.92 1190.4 1862.36 C 1214.67 1854.02 1240.82 1852.62 1264.37 1841.51 C 1269.2 1839.24 1278.69 1838.6 1284.28 1837.16 C 1293.83 1834.69 1333 1817.37 1340.04 1819.16 C 1211.52 1872.9 1055.64 1891.68 918.225 1873.6 C 889.158 1869.77 839.868 1861.78 811.85 1853.37 z"/>
<path transform="translate(0,0)" fill="rgb(24,30,46)" d="M 902.613 176.416 C 998.726 161.692 1133.98 165.536 1228.23 192.477 C 1219.38 194.925 1159.57 179.431 1144.99 178.126 C 1129.68 176.755 1108.88 176.183 1094.02 174.236 L 1095.95 173.966 C 1083.37 173.332 1071.59 171.795 1059.96 171.146 C 1030.6 169.465 1001.15 169.67 971.817 171.761 C 958.655 172.603 910.028 178.481 902.613 176.416 z"/>
<path transform="translate(0,0)" fill="rgb(24,30,46)" d="M 1823.41 1330.23 C 1820.88 1321.61 1847.78 1255.77 1849.94 1241.79 C 1850.59 1237.52 1853.8 1223.63 1855.51 1219.78 L 1857.45 1219.84 C 1850.45 1251.79 1836.06 1299.96 1823.41 1330.23 z"/>
<path transform="translate(0,0)" fill="rgb(24,30,46)" d="M 1871.57 903.698 C 1875.67 931.046 1878.3 958.594 1879.44 986.224 L 1878.92 987.89 L 1878.14 988.081 C 1875.89 980.319 1875.97 963.735 1875.33 955.131 C 1874.44 943.014 1868.28 915.015 1871.57 903.698 z"/>
<path transform="translate(0,0)" fill="rgb(24,30,46)" d="M 447.866 393.098 C 450.964 387.722 485.336 360.037 491.765 355.265 C 487.422 367.101 460.476 384.537 450.086 393.325 L 447.866 393.098 z"/>
<path transform="translate(0,0)" fill="rgb(24,30,46)" d="M 657.758 1797.21 C 666.501 1795.02 696.459 1808.22 701.1 1816.24 C 687.665 1811.52 670.625 1803.34 657.758 1797.21 z"/>
<path transform="translate(0,0)" fill="rgb(24,30,46)" d="M 1374.24 243.172 C 1391.88 250.981 1409.18 259.566 1426.07 268.902 C 1424.89 269.014 1423.72 269.125 1422.55 269.236 C 1406.95 262.545 1388.77 253.529 1374.79 245.354 L 1374.24 243.172 z"/>
<path transform="translate(0,0)" fill="rgb(24,30,46)" d="M 381.062 1587.3 C 390.921 1590.79 392.454 1593.93 397.913 1603.1 C 397.82 1604.81 398.106 1604.12 397.313 1605.25 C 391.552 1599.61 386.344 1593.4 381.062 1587.3 z"/>
<path transform="translate(0,0)" fill="rgb(0,0,0)" d="M 771.52 653.51 C 755.258 653.659 742.007 652.171 729.504 639.985 C 720.265 630.925 715.063 618.527 715.071 605.586 C 714.863 592.081 720.257 579.093 729.971 569.708 C 736.925 563.023 745.868 558.786 755.445 557.638 C 771.212 555.862 809.42 556.894 827.202 556.913 L 962.312 556.93 L 1176.16 556.937 C 1216.36 556.942 1256.94 555.972 1296.99 558.112 C 1304.94 558.536 1316.62 567.966 1321.41 573.624 C 1330.3 584.072 1334.37 597.793 1332.59 611.398 C 1330.88 624.293 1324.18 636.003 1313.93 644.004 C 1302.52 652.942 1290.22 653.526 1276.59 653.51 C 1276.74 688.362 1278.51 737.926 1273.02 770.683 C 1271.11 781.72 1268.66 792.657 1265.69 803.455 C 1264.43 807.942 1255.78 833.521 1255.76 834.899 C 1256.82 846.554 1225.93 893.757 1214.96 903.105 C 1212.9 904.852 1212.25 909.295 1211.1 911.965 L 1209.5 909.239 C 1207.31 912.519 1209.44 918.701 1207.97 921.594 C 1203.42 930.541 1196.53 939.243 1190.23 947.047 C 1184.13 953.766 1176.06 955.672 1173.06 965.541 C 1172.52 967.295 1171.22 968.457 1169.91 969.584 L 1169.33 969.107 L 1171.21 965.745 L 1170.78 964.851 C 1167.37 966.237 1162.64 968.283 1160.76 971.604 L 1161.36 972.712 L 1164.26 973.131 C 1161.35 977.005 1157.78 980.033 1154.23 983.341 L 1153.21 983.032 C 1154.09 980.279 1153.68 980.883 1155.21 978.563 C 1145.34 982.871 1120.85 1012.84 1112.98 1022.6 C 1112.57 1023.52 1112.06 1025.69 1112.25 1026.66 C 1112.65 1028.77 1102.38 1037.17 1102.45 1037.43 C 1103.71 1041.48 1096.96 1044.36 1092.57 1044.53 C 1095.15 1053.62 1121.87 1065.41 1122.63 1071.93 C 1125.04 1074.86 1161.57 1100.64 1167.34 1105.05 C 1209.06 1136.95 1236.68 1167.63 1256.83 1216.82 C 1260.03 1224.63 1265.55 1243.72 1267.45 1247.78 L 1268.58 1246.06 C 1269.55 1248.42 1275.48 1275.91 1275.72 1278.98 C 1277.5 1301.68 1279.07 1324.1 1278.53 1346.91 C 1278.48 1349.3 1278.02 1362.72 1279.66 1363.69 C 1283.63 1366.03 1286.94 1385.84 1286.93 1390.11 C 1290.45 1393.74 1318.31 1397.26 1322.16 1408.94 L 1321.26 1410.08 C 1333.7 1429.52 1337.98 1449.18 1324.42 1470.17 C 1318.01 1480.09 1304.02 1489.15 1292 1490.02 C 1268.73 1491.7 1244.66 1490.95 1221.2 1490.94 L 1071.25 1490.91 L 864.2 1490.93 L 797.51 1490.99 C 775.49 1491 752.048 1494.54 733.769 1480.6 C 723.583 1472.92 717.006 1461.39 715.583 1448.72 C 713.58 1431.41 719.756 1420.19 729.753 1407.35 L 728.059 1407.03 C 729.081 1403.86 734.497 1402.6 736.068 1400.16 C 741.718 1391.4 761.751 1398.73 759.302 1386.41 C 759.228 1386.04 763.259 1386.46 765.513 1377.03 C 775.744 1334.27 764.342 1288.28 779.368 1245.77 L 780.417 1249.93 C 798.349 1184.61 829.08 1144.34 882.321 1103.84 C 891.875 1096.58 913.252 1082.51 920.803 1075.73 L 922.069 1074.58 L 920.489 1073.9 C 921.827 1071.19 948.067 1055.4 953.98 1046.76 C 950.277 1042.29 947.321 1038.08 941.636 1035.57 C 934.229 1032.04 928.401 1014.02 923.276 1009.16 C 914.451 1000.79 908.052 997.074 901.549 985.912 C 900.45 984.026 891.157 980.521 888.464 977.628 C 889.863 975.604 889.44 976.731 889.698 974.233 C 887.958 971.818 886.051 970.025 883.265 968.97 C 875.875 966.375 874.269 957.712 868.162 953.512 C 864.008 950.655 852.899 949.422 851.861 943.422 C 854.773 945.229 855.135 945.862 858.391 946.585 C 855.728 937.632 850.817 940.145 844.33 936.817 C 844.725 935.62 845.688 932.573 845.612 932.467 C 840.19 925.019 829.893 913.196 825.852 905.226 C 823.24 900.074 824.823 897.085 825.742 894.562 C 824.662 894.925 824.436 895.912 823.514 897.327 L 821.944 897.079 C 818.163 890.218 816.154 890.318 809.704 886.31 C 805.171 883.494 806.317 876.783 804.559 871.283 C 800.776 870.021 798.919 870.009 797.528 866.376 C 799.467 866.771 798.885 866.916 800.651 866.516 C 799.749 862.745 799.041 862.87 800.488 860.442 L 802.983 860.166 L 802.377 858.55 L 799.188 857.852 L 798.815 856.086 C 797.24 848.483 790.429 833.817 787.342 825.866 C 781.548 810.945 767.284 759.269 771.733 744.418 C 772.43 739.201 771.437 723.683 771.472 717.259 C 771.586 696.207 770.944 674.538 771.52 653.51 z"/>
<path transform="translate(0,0)" fill="rgb(101,53,72)" d="M 825.742 894.562 C 830.852 900.877 839.561 913.086 846.995 914.859 C 853.585 919.861 860.766 926.36 867.041 931.873 C 896.151 957.451 932.496 976.508 960.179 1003.44 C 989.58 1032.04 941.864 1060.7 922.069 1074.58 L 920.489 1073.9 C 921.827 1071.19 948.067 1055.4 953.98 1046.76 C 950.277 1042.29 947.321 1038.08 941.636 1035.57 C 934.229 1032.04 928.401 1014.02 923.276 1009.16 C 914.451 1000.79 908.052 997.074 901.549 985.912 C 900.45 984.026 891.157 980.521 888.464 977.628 C 889.863 975.604 889.44 976.731 889.698 974.233 C 887.958 971.818 886.051 970.025 883.265 968.97 C 875.875 966.375 874.269 957.712 868.162 953.512 C 864.008 950.655 852.899 949.422 851.861 943.422 C 854.773 945.229 855.135 945.862 858.391 946.585 C 855.728 937.632 850.817 940.145 844.33 936.817 C 844.725 935.62 845.688 932.573 845.612 932.467 C 840.19 925.019 829.893 913.196 825.852 905.226 C 823.24 900.074 824.823 897.085 825.742 894.562 z"/>
<path transform="translate(0,0)" fill="rgb(101,53,72)" d="M 1255.76 834.899 C 1256.82 846.554 1225.93 893.757 1214.96 903.105 C 1212.9 904.852 1212.25 909.295 1211.1 911.965 L 1209.5 909.239 C 1207.31 912.519 1209.44 918.701 1207.97 921.594 C 1203.42 930.541 1196.53 939.243 1190.23 947.047 C 1184.13 953.766 1176.06 955.672 1173.06 965.541 C 1172.52 967.295 1171.22 968.457 1169.91 969.584 L 1169.33 969.107 L 1171.21 965.745 L 1170.78 964.851 C 1167.37 966.237 1162.64 968.283 1160.76 971.604 L 1161.36 972.712 L 1164.26 973.131 C 1161.35 977.005 1157.78 980.033 1154.23 983.341 L 1153.21 983.032 C 1154.09 980.279 1153.68 980.883 1155.21 978.563 C 1145.34 982.871 1120.85 1012.84 1112.98 1022.6 C 1112.57 1023.52 1112.06 1025.69 1112.25 1026.66 C 1112.65 1028.77 1102.38 1037.17 1102.45 1037.43 C 1103.71 1041.48 1096.96 1044.36 1092.57 1044.53 C 1095.15 1053.62 1121.87 1065.41 1122.63 1071.93 C 1058.69 1027.91 1068.2 1013.93 1127.4 972.059 C 1167.97 943.362 1212.74 911.924 1238.29 868.395 C 1244.88 857.167 1250.34 846.61 1255.76 834.899 z"/>
<path transform="translate(0,0)" fill="rgb(81,55,73)" d="M 825.742 894.562 C 824.662 894.925 824.436 895.912 823.514 897.327 L 821.944 897.079 C 818.163 890.218 816.154 890.318 809.704 886.31 C 805.171 883.494 806.317 876.783 804.559 871.283 C 800.776 870.021 798.919 870.009 797.528 866.376 C 799.467 866.771 798.885 866.916 800.651 866.516 C 799.749 862.745 799.041 862.87 800.488 860.442 L 802.983 860.166 L 802.377 858.55 L 799.188 857.852 L 798.815 856.086 C 797.24 848.483 790.429 833.817 787.342 825.866 C 781.548 810.945 767.284 759.269 771.733 744.418 C 778.163 816.682 797.526 862.176 846.995 914.859 C 839.561 913.086 830.852 900.877 825.742 894.562 z"/>
<path transform="translate(0,0)" fill="rgb(81,55,73)" d="M 1267.45 1247.78 L 1268.58 1246.06 C 1269.55 1248.42 1275.48 1275.91 1275.72 1278.98 C 1277.5 1301.68 1279.07 1324.1 1278.53 1346.91 C 1278.48 1349.3 1278.02 1362.72 1279.66 1363.69 C 1283.63 1366.03 1286.94 1385.84 1286.93 1390.11 C 1290.45 1393.74 1318.31 1397.26 1322.16 1408.94 L 1321.26 1410.08 C 1318.88 1408.64 1314.07 1403.78 1310.77 1401.62 C 1298.8 1393.79 1289.92 1393.82 1276.27 1394.03 C 1276.51 1345.81 1279.38 1294.25 1267.45 1247.78 z"/>
<path transform="translate(0,0)" fill="rgb(81,55,73)" d="M 729.753 1407.35 L 728.059 1407.03 C 729.081 1403.86 734.497 1402.6 736.068 1400.16 C 741.718 1391.4 761.751 1398.73 759.302 1386.41 C 759.228 1386.04 763.259 1386.46 765.513 1377.03 C 775.744 1334.27 764.342 1288.28 779.368 1245.77 L 780.417 1249.93 C 768.864 1284.97 771.878 1354.26 771.985 1394.1 C 754.973 1393.84 743.212 1394.76 729.753 1407.35 z"/>
<path transform="translate(0,0)" fill="url(#Gradient4)" d="M 1002.93 985.481 L 1002.7 988.133 C 1008.02 992.514 1008.54 997.235 1012.59 1002.27 C 1023.67 1016.05 1035.18 1005.44 1040.73 993.16 C 1042.54 989.155 1045.66 988.712 1048.75 986.011 L 1047.87 984.956 L 1044.64 984.735 L 1044.79 983.474 C 1048.78 982.135 1051.82 981.368 1055.91 980.395 L 1053.17 980.077 L 1054.6 980.883 C 1052.16 979.483 1052.93 979.99 1049.73 979.843 C 1051.47 976.721 1069.52 965.479 1073.65 963.139 L 1078.26 963.351 C 1072.96 968.491 1059.69 982.139 1053.96 984.96 L 1051.19 984.385 L 1051.09 985.569 C 1053.66 986.359 1053.81 986.152 1055.92 987.734 C 1047.98 992.655 1042.5 1016.96 1044.47 1025.78 C 1045.86 1022.32 1045.94 1019.98 1047.02 1016.8 C 1047.29 1041.27 1052.37 1054.88 1070.79 1071.66 C 1106.14 1103.88 1148.69 1125.37 1182.45 1159.85 C 1248.97 1227.78 1244.88 1307.03 1244.48 1393.94 L 1219.14 1394.02 L 828.669 1393.94 L 827.284 1393.87 C 820.534 1394.36 810.855 1394.07 803.872 1394.06 C 803.816 1365.13 802.169 1307.99 807.348 1281.7 C 807.391 1268.17 816.197 1243.02 820.539 1230.62 C 847.197 1154.44 917.519 1121.89 975.214 1073.8 C 995.474 1056.91 1000.28 1041.85 1001.28 1015.91 C 1002.27 1020.41 1001.58 1020.71 1004.24 1023.59 L 1004.78 1022.6 C 1001.7 1015.02 1002.85 1008.7 1000.95 1001.18 C 1000.65 1000.01 996.328 993.977 995.004 991.582 C 996.618 990.026 997.197 989.968 999.238 988.984 C 996.257 985.472 987.679 984.074 986.063 978.399 L 987.423 976.991 C 993.171 975.981 997.265 974.711 1001 979.4 C 999.499 981.476 998.084 980.589 994.184 981.72 L 994.116 982.023 L 995.472 983.045 C 997.813 982.768 999.761 982.848 1002.1 982.876 L 1002.93 985.481 z"/>
<path transform="translate(0,0)" fill="rgb(253,77,83)" d="M 828.669 1393.94 C 830.097 1309.53 912.561 1263.96 973.784 1221.85 C 992.747 1208.8 1018.84 1179.85 1041.4 1197.46 C 1078.72 1226.6 1121.05 1251.15 1157.74 1280.88 C 1167.47 1288.88 1176.51 1297.67 1184.79 1307.17 C 1199.93 1324.54 1212.02 1345.32 1216.76 1368.03 C 1218.28 1375.33 1220.99 1386.76 1219.14 1394.02 L 828.669 1393.94 z"/>
<path transform="translate(0,0)" fill="rgb(101,53,72)" d="M 807.348 1281.7 C 808.788 1289.31 806.666 1309.79 806.634 1318.51 C 806.581 1332.78 806.729 1347.14 806.838 1361.43 L 810.795 1360.46 C 814.067 1365.92 807.433 1382.68 807.95 1390.98 C 816.268 1391.38 819.457 1391.18 827.284 1393.87 C 820.534 1394.36 810.855 1394.07 803.872 1394.06 C 803.816 1365.13 802.169 1307.99 807.348 1281.7 z"/>
<path transform="translate(0,0)" fill="rgb(253,77,83)" d="M 1024.42 1045.55 C 1027.65 1045.13 1030.68 1047.2 1031.47 1050.36 C 1032.26 1053.52 1030.55 1056.77 1027.49 1057.92 C 1025.18 1058.78 1022.58 1058.25 1020.8 1056.54 C 1019.02 1054.83 1018.37 1052.25 1019.15 1049.9 C 1019.92 1047.56 1021.97 1045.86 1024.42 1045.55 z"/>
<path transform="translate(0,0)" fill="url(#Gradient3)" d="M 803.057 653.505 L 1245.27 653.431 C 1245.18 680.797 1245.6 709.25 1244.59 736.496 C 1242.48 793.138 1217.13 862.714 1171.12 898.764 C 1154.94 912.7 1141.85 922.037 1125.03 934.618 C 1096.78 955.746 1053.3 979.429 1047.02 1016.8 C 1045.94 1019.98 1045.86 1022.32 1044.47 1025.78 C 1042.5 1016.96 1047.98 992.655 1055.92 987.734 C 1053.81 986.152 1053.66 986.359 1051.09 985.569 L 1051.19 984.385 L 1053.96 984.96 C 1059.69 982.139 1072.96 968.491 1078.26 963.351 L 1073.65 963.139 C 1069.52 965.479 1051.47 976.721 1049.73 979.843 C 1052.93 979.99 1052.16 979.483 1054.6 980.883 L 1053.17 980.077 L 1055.91 980.395 C 1051.82 981.368 1048.78 982.135 1044.79 983.474 L 1044.64 984.735 L 1047.87 984.956 L 1048.75 986.011 C 1045.66 988.712 1042.54 989.155 1040.73 993.16 C 1035.18 1005.44 1023.67 1016.05 1012.59 1002.27 C 1008.54 997.235 1008.02 992.514 1002.7 988.133 L 1002.93 985.481 L 1002.1 982.876 C 999.761 982.848 997.813 982.768 995.472 983.045 L 994.116 982.023 L 994.184 981.72 C 998.084 980.589 999.499 981.476 1001 979.4 C 997.265 974.711 993.171 975.981 987.423 976.991 L 986.063 978.399 C 987.679 984.074 996.257 985.472 999.238 988.984 C 997.197 989.968 996.618 990.026 995.004 991.582 C 996.328 993.977 1000.65 1000.01 1000.95 1001.18 C 1002.85 1008.7 1001.7 1015.02 1004.78 1022.6 L 1004.24 1023.59 C 1001.58 1020.71 1002.27 1020.41 1001.28 1015.91 C 990.519 976.127 952.549 955.677 920.885 932.918 C 904.989 921.608 889.655 909.529 874.935 896.725 C 855.017 881.228 834.562 849.596 824.193 826.739 C 798.315 767.553 803.466 715.872 803.057 653.505 z"/>
<path transform="translate(0,0)" fill="rgb(253,77,83)" d="M 869.175 776.808 L 871.971 778.325 C 876.798 776.766 894.558 772.392 899.195 772.847 C 889.841 777.066 877.58 779.114 871.66 782.43 C 915.46 772.766 957.284 773.019 998.616 792.172 C 1035.57 809.296 1060.31 824.526 1103.46 826.863 C 1132.89 828.456 1154.11 824.252 1182.3 815.331 C 1188.53 813.362 1202.91 807.475 1208.34 806.81 L 1202.51 822.804 C 1201.37 829.327 1197.76 835.727 1195.37 842.307 L 1196.11 842.9 C 1201.07 839.647 1200.83 833.388 1205.85 828.848 L 1206.91 829.63 C 1207.61 835.954 1207.65 839.144 1210.39 845.024 C 1209.55 848.016 1209.89 848.952 1207.93 850.509 L 1205.96 849.361 L 1205.78 850.185 C 1204.51 856.272 1198.33 866.866 1192.36 868.4 C 1191.18 866.527 1191.52 867.217 1190.99 865.04 C 1189.44 866.622 1191.85 872.796 1189.12 874.446 C 1183.6 877.784 1174.42 893.043 1171.12 898.764 C 1154.94 912.7 1141.85 922.037 1125.03 934.618 C 1096.78 955.746 1053.3 979.429 1047.02 1016.8 C 1045.94 1019.98 1045.86 1022.32 1044.47 1025.78 C 1042.5 1016.96 1047.98 992.655 1055.92 987.734 C 1053.81 986.152 1053.66 986.359 1051.09 985.569 L 1051.19 984.385 L 1053.96 984.96 C 1059.69 982.139 1072.96 968.491 1078.26 963.351 L 1073.65 963.139 C 1069.52 965.479 1051.47 976.721 1049.73 979.843 C 1052.93 979.99 1052.16 979.483 1054.6 980.883 L 1053.17 980.077 L 1055.91 980.395 C 1051.82 981.368 1048.78 982.135 1044.79 983.474 L 1044.64 984.735 L 1047.87 984.956 L 1048.75 986.011 C 1045.66 988.712 1042.54 989.155 1040.73 993.16 C 1035.18 1005.44 1023.67 1016.05 1012.59 1002.27 C 1008.54 997.235 1008.02 992.514 1002.7 988.133 L 1002.93 985.481 L 1002.1 982.876 C 999.761 982.848 997.813 982.768 995.472 983.045 L 994.116 982.023 L 994.184 981.72 C 998.084 980.589 999.499 981.476 1001 979.4 C 997.265 974.711 993.171 975.981 987.423 976.991 L 986.063 978.399 C 987.679 984.074 996.257 985.472 999.238 988.984 C 997.197 989.968 996.618 990.026 995.004 991.582 C 996.328 993.977 1000.65 1000.01 1000.95 1001.18 C 1002.85 1008.7 1001.7 1015.02 1004.78 1022.6 L 1004.24 1023.59 C 1001.58 1020.71 1002.27 1020.41 1001.28 1015.91 C 990.519 976.127 952.549 955.677 920.885 932.918 C 904.989 921.608 889.655 909.529 874.935 896.725 C 855.017 881.228 834.562 849.596 824.193 826.739 L 826.127 823.884 L 827.552 824.026 C 828.446 827.145 828.407 828.053 830.122 830.754 C 835.713 823.861 836.438 797.1 840.575 788.008 C 842.593 787.661 850.983 784.345 852.674 784.024 C 859.295 782.769 863.281 776.719 869.175 776.808 z"/>
<path transform="translate(0,0)" fill="rgb(173,59,78)" d="M 869.175 776.808 L 871.971 778.325 C 876.798 776.766 894.558 772.392 899.195 772.847 C 889.841 777.066 877.58 779.114 871.66 782.43 C 863.917 785.013 855.716 787.39 848.143 790.316 C 835.621 795.154 839.762 804.801 842.658 813.73 C 869.326 873.934 899.316 892.516 951.76 929.899 C 967.281 940.962 979.744 949.255 993.431 962.953 C 1007.01 976.539 1010.08 990.564 1019.2 1003.56 C 1035.57 1005.9 1035.91 988.569 1043.65 976.969 C 1057.84 955.696 1077.82 944.919 1097.59 930.132 C 1132.94 903.689 1171.28 878.861 1193.13 839.157 C 1196 833.941 1198.84 828.492 1202.04 823.529 L 1202.51 822.804 C 1201.37 829.327 1197.76 835.727 1195.37 842.307 L 1196.11 842.9 C 1201.07 839.647 1200.83 833.388 1205.85 828.848 L 1206.91 829.63 C 1207.61 835.954 1207.65 839.144 1210.39 845.024 C 1209.55 848.016 1209.89 848.952 1207.93 850.509 L 1205.96 849.361 L 1205.78 850.185 C 1204.51 856.272 1198.33 866.866 1192.36 868.4 C 1191.18 866.527 1191.52 867.217 1190.99 865.04 C 1189.44 866.622 1191.85 872.796 1189.12 874.446 C 1183.6 877.784 1174.42 893.043 1171.12 898.764 C 1154.94 912.7 1141.85 922.037 1125.03 934.618 C 1096.78 955.746 1053.3 979.429 1047.02 1016.8 C 1045.94 1019.98 1045.86 1022.32 1044.47 1025.78 C 1042.5 1016.96 1047.98 992.655 1055.92 987.734 C 1053.81 986.152 1053.66 986.359 1051.09 985.569 L 1051.19 984.385 L 1053.96 984.96 C 1059.69 982.139 1072.96 968.491 1078.26 963.351 L 1073.65 963.139 C 1069.52 965.479 1051.47 976.721 1049.73 979.843 C 1052.93 979.99 1052.16 979.483 1054.6 980.883 L 1053.17 980.077 L 1055.91 980.395 C 1051.82 981.368 1048.78 982.135 1044.79 983.474 L 1044.64 984.735 L 1047.87 984.956 L 1048.75 986.011 C 1045.66 988.712 1042.54 989.155 1040.73 993.16 C 1035.18 1005.44 1023.67 1016.05 1012.59 1002.27 C 1008.54 997.235 1008.02 992.514 1002.7 988.133 L 1002.93 985.481 L 1002.1 982.876 C 999.761 982.848 997.813 982.768 995.472 983.045 L 994.116 982.023 L 994.184 981.72 C 998.084 980.589 999.499 981.476 1001 979.4 C 997.265 974.711 993.171 975.981 987.423 976.991 L 986.063 978.399 C 987.679 984.074 996.257 985.472 999.238 988.984 C 997.197 989.968 996.618 990.026 995.004 991.582 C 996.328 993.977 1000.65 1000.01 1000.95 1001.18 C 1002.85 1008.7 1001.7 1015.02 1004.78 1022.6 L 1004.24 1023.59 C 1001.58 1020.71 1002.27 1020.41 1001.28 1015.91 C 990.519 976.127 952.549 955.677 920.885 932.918 C 904.989 921.608 889.655 909.529 874.935 896.725 C 855.017 881.228 834.562 849.596 824.193 826.739 L 826.127 823.884 L 827.552 824.026 C 828.446 827.145 828.407 828.053 830.122 830.754 C 835.713 823.861 836.438 797.1 840.575 788.008 C 842.593 787.661 850.983 784.345 852.674 784.024 C 859.295 782.769 863.281 776.719 869.175 776.808 z"/>
<path transform="translate(0,0)" fill="rgb(101,53,72)" d="M 869.175 776.808 L 871.971 778.325 C 876.798 776.766 894.558 772.392 899.195 772.847 C 889.841 777.066 877.58 779.114 871.66 782.43 C 863.917 785.013 855.716 787.39 848.143 790.316 C 835.621 795.154 839.762 804.801 842.658 813.73 C 844.695 826.509 848.586 828.247 848.03 841.381 L 847.056 841.672 C 844.355 836.688 847.957 833.32 844.563 829.196 C 843.341 831.85 840.355 839.816 838.452 840.586 C 838.22 832.734 841.807 829.756 841.42 821.58 L 840.059 821.494 C 831.567 832.825 840.447 856.186 851.313 861.675 C 852.808 859.855 852.154 860.743 852.263 857.545 C 855.073 859.302 855.632 866.808 857.369 870.195 C 860.634 876.561 872.957 890.802 874.935 896.725 C 855.017 881.228 834.562 849.596 824.193 826.739 L 826.127 823.884 L 827.552 824.026 C 828.446 827.145 828.407 828.053 830.122 830.754 C 835.713 823.861 836.438 797.1 840.575 788.008 C 842.593 787.661 850.983 784.345 852.674 784.024 C 859.295 782.769 863.281 776.719 869.175 776.808 z"/>
<path transform="translate(0,0)" fill="url(#Gradient2)" d="M 869.175 776.808 C 888.515 767.285 895.316 760.882 917.766 755.307 L 917.916 754.253 L 915.941 753.223 C 930.856 750.327 996.449 760.36 1013.59 765.077 C 1018.91 766.539 1033.17 773.099 1037.83 773.179 L 1039.27 770.653 L 1040.96 771.048 C 1044.89 777.461 1048.73 778.43 1055.38 775.205 C 1058.54 777.296 1063.49 781.721 1067.09 782.399 C 1084.08 785.596 1102.32 786.831 1118.63 793.047 C 1130.38 797.529 1127.76 795.915 1138.45 795.593 C 1138.12 797.196 1138.41 796.435 1137.56 797.87 C 1141.63 800.69 1157.65 805.305 1163.29 808.082 C 1167.08 809.946 1172.51 805.921 1179.45 811.601 L 1181.49 811.332 C 1180.93 809.916 1180.71 809.487 1180.64 807.943 C 1186.3 807.713 1205.42 805.469 1208.34 806.81 C 1202.91 807.475 1188.53 813.362 1182.3 815.331 C 1154.11 824.252 1132.89 828.456 1103.46 826.863 C 1060.31 824.526 1035.57 809.296 998.616 792.172 C 957.284 773.019 915.46 772.766 871.66 782.43 C 877.58 779.114 889.841 777.066 899.195 772.847 C 894.558 772.392 876.798 776.766 871.971 778.325 L 869.175 776.808 z"/>
<path transform="translate(0,0)" fill="rgb(50,58,77)" d="M 759.981 589.056 L 1157.8 588.88 L 1252.57 588.889 C 1263.95 588.897 1277.52 588.38 1288.15 589.312 C 1295.67 589.97 1303.95 603.311 1299.62 610.801 C 1295.76 617.463 1294.97 617.957 1288.18 620.94 C 1241.57 621.979 1192.58 621.24 1145.81 621.208 L 905.346 621.229 C 866.069 621.242 800.274 622.193 758.744 620.211 C 747.83 619.69 739.516 598.221 759.981 589.056 z"/>
<path transform="translate(0,0)" fill="url(#Gradient1)" d="M 1132.73 1426.91 C 1161.92 1425.13 1196.53 1427.45 1226.54 1426.76 C 1246.42 1427.05 1266.41 1426.34 1286.25 1427.49 C 1289.67 1427.69 1292.23 1429.37 1294.92 1431.47 C 1304.97 1439.32 1298.27 1456.87 1286.45 1457.87 C 1270.42 1459.22 1252.48 1457.91 1236.28 1458.4 C 1208.98 1457.92 1180.81 1459.45 1153.62 1458.31 C 1085.41 1459.6 1016.63 1457.49 948.358 1458.52 C 931.874 1458.77 913.777 1458.95 897.399 1458.15 C 887.041 1459.01 871.676 1458.51 860.739 1458.51 L 794.381 1458.4 C 783.892 1458.37 756.723 1460.62 752.14 1452.41 C 736.169 1422.91 774.587 1426.89 791.521 1426.87 C 821.587 1426.84 851.109 1426.57 881.106 1426.59 C 894.214 1426.6 909.991 1425.62 922.753 1426.89 C 966.054 1425.62 1014.35 1426.62 1058.06 1426.63 L 1106.5 1426.6 C 1113.39 1426.6 1126.33 1426.26 1132.73 1426.91 z"/>
<path transform="translate(0,0)" fill="rgb(173,59,78)" d="M 922.753 1426.89 C 966.054 1425.62 1014.35 1426.62 1058.06 1426.63 L 1106.5 1426.6 C 1113.39 1426.6 1126.33 1426.26 1132.73 1426.91 C 1142.13 1428.55 1152.19 1427.43 1161.26 1429.5 C 1157.2 1431.36 1111.31 1427.51 1102.99 1431.62 L 1103.17 1432.63 C 1111.34 1429.82 1123.37 1434.49 1132.21 1434.86 L 1133.46 1434.9 C 1126.78 1435.47 1099.79 1434.1 1095.62 1435.96 C 1098.51 1436.48 1103.69 1436.9 1105.51 1438.5 C 1097.46 1442.31 1084.16 1436.58 1072.77 1438.66 L 1075.32 1439.27 L 1075.58 1440.35 C 1072.25 1442.62 994.18 1438.31 983.238 1438.73 C 980.896 1438.82 956.909 1440.91 955.934 1440.72 C 957.502 1439.62 957.353 1439.95 958.466 1438.49 C 955.723 1438.36 952.857 1437.87 950.479 1438.98 L 951.534 1441.14 L 950.941 1442.23 C 946.138 1443.05 942.519 1438.52 939.966 1438.71 C 925.133 1439.81 915.625 1441.45 900.752 1439.37 C 907.436 1435.15 941.645 1436.6 950.845 1436.68 L 952.713 1434.34 C 964.387 1434.71 975.026 1433.79 986.618 1433.71 L 987.993 1434.81 L 987.778 1433.89 L 988.283 1434.56 C 985.914 1435.35 984.489 1435.87 982.21 1436.88 C 985.603 1438 991.543 1436.2 995.886 1435.86 C 1008.98 1434.85 1021.62 1436.77 1034.75 1437.61 C 1048.04 1438.46 1058.59 1437.36 1071.75 1436.56 C 1066.26 1435.98 1054.14 1435.92 1049.55 1434.76 L 1049.98 1433.94 C 1056.94 1433.97 1096.29 1435.85 1099.64 1431.24 L 1097.87 1429.78 C 1095.77 1429.55 1095.27 1429.47 1093.25 1430.2 C 1079.05 1435.32 1061.04 1429.15 1046.36 1429.1 C 1032.9 1429.06 1018.63 1430.05 1005.04 1430.72 L 1004.08 1432.66 L 1002.52 1432.98 C 1001.13 1431.04 1001.75 1431.85 1000.64 1430.47 C 999.979 1430.54 993.673 1431.12 993.576 1431.15 C 983.46 1434.64 977.253 1426.32 967.421 1430.06 C 961.712 1432.23 947.158 1430.28 940.534 1430.1 C 923.1 1429.77 905.663 1429.6 888.225 1429.58 C 896.449 1426.68 915.524 1429.39 922.753 1426.89 z"/>
<path transform="translate(0,0)" fill="rgb(101,53,72)" d="M 897.399 1458.15 C 892.757 1457.67 880.938 1456.72 877.028 1455.65 C 892.95 1452.69 905.293 1455.09 920.528 1456.71 C 917.991 1455.9 917.198 1455.84 915.381 1453.88 C 918.026 1453.13 924.952 1454.58 928.156 1455.05 L 927.79 1454.81 C 933.814 1455.18 940.669 1455.72 946.716 1455.62 C 948.926 1455.58 950.911 1453.01 953.683 1453.21 C 975.272 1454.76 996.354 1454.57 1017.96 1453.8 C 1024.34 1453.57 1036.21 1452.85 1041.99 1453.82 L 1042.23 1455.25 C 1038.25 1456.55 1037.13 1456.47 1032.86 1456.73 C 1035.85 1456.23 1033.29 1456.48 1036.44 1456.73 C 1049.8 1457.79 1075.8 1449.52 1088.7 1454.06 C 1091.11 1454.91 1120.25 1455.3 1124.44 1454.92 C 1135.84 1453.88 1147.27 1453.58 1158.65 1452.22 C 1159.82 1453.56 1159.37 1452.77 1159.9 1454.65 C 1163.85 1454.87 1167.79 1455.13 1171.74 1455.42 C 1165.18 1456.18 1160.12 1457.05 1153.62 1458.31 C 1085.41 1459.6 1016.63 1457.49 948.358 1458.52 C 931.874 1458.77 913.777 1458.95 897.399 1458.15 z"/>
<path transform="translate(0,0)" fill="rgb(24,30,46)" d="M 633.681 564.493 C 648.295 563.904 664.903 570.697 665.255 588.268 C 665.27 589.009 663.498 591.912 663.519 592.674 C 663.633 596.776 664.021 600.925 664.248 605.051 C 658.968 613.996 645.634 614.345 643.945 619.306 L 646.416 621.21 L 644.24 621.325 C 636.374 621.999 634.859 622.695 627.774 618.843 C 611.622 610.061 609.557 594.515 618.028 579.438 L 618.605 578.431 L 615.828 579.781 L 615.537 578.931 C 619.979 569.325 625.776 569.474 634.431 565.565 L 633.681 564.493 z"/>
<path transform="translate(0,0)" fill="rgb(251,252,252)" d="M 638.574 575.747 L 639.539 574.448 C 642.079 577.15 643.614 583.251 644.973 587.153 C 648.69 588.67 656.715 590.818 657.906 593.222 C 658.935 601.516 651.358 607.353 644.084 609.253 L 641.492 608.396 L 640.456 611.021 L 638.743 611.518 C 626.298 615.304 618.28 603.53 621.301 592.17 L 623.126 591.233 C 623.689 580.444 628.639 577.332 638.574 575.747 z"/>
<path transform="translate(0,0)" fill="rgb(50,58,77)" d="M 638.743 611.518 C 626.298 615.304 618.28 603.53 621.301 592.17 L 624.934 594.549 C 634.709 597.085 635.288 598.36 637.813 608.096 L 638.743 611.518 z"/>
<path transform="translate(0,0)" fill="rgb(66,75,93)" d="M 624.934 594.549 C 634.709 597.085 635.288 598.36 637.813 608.096 C 628.81 606.662 626.456 602.884 624.934 594.549 z"/>
<path transform="translate(0,0)" fill="rgb(66,75,93)" d="M 641.492 608.396 C 644.457 596.174 646.545 596.946 657.906 593.222 C 658.935 601.516 651.358 607.353 644.084 609.253 L 641.492 608.396 z"/>
<path transform="translate(0,0)" fill="rgb(66,75,93)" d="M 623.126 591.233 C 623.689 580.444 628.639 577.332 638.574 575.747 C 635.149 587.476 635.479 587.983 623.126 591.233 z"/>
<path transform="translate(0,0)" fill="rgb(45,47,60)" d="M 1489.5 578.51 C 1491.29 578.457 1493.07 578.424 1494.86 578.411 C 1503 578.37 1517.62 580.677 1523.41 586.925 C 1529.46 593.453 1528.11 604.529 1527.83 613.13 L 1527.19 613.571 C 1526.75 610.914 1526.71 608.582 1525.06 606.558 C 1522.17 613.174 1524.13 618.361 1522.47 621.761 C 1518.13 625.51 1514.36 626.377 1508.72 627.289 L 1508.97 628.941 L 1511.17 629.369 L 1510.2 630.409 C 1504.11 631.866 1493.57 631.073 1488.29 627.907 L 1488.51 626.908 C 1478.43 624.462 1485.17 622.274 1480.32 616.351 L 1478.3 617.947 L 1477.33 616.331 L 1476.59 617.076 C 1472.45 610.24 1473.91 592.949 1476.73 585.719 C 1481.29 581.408 1484.35 584.617 1489.5 578.51 z"/>
<path transform="translate(0,0)" fill="rgb(190,148,85)" d="M 1499.3 584.501 C 1508.83 591.654 1495.32 597.162 1521.97 603.441 L 1505.43 609.046 C 1503.76 613.005 1502.18 618.48 1500.83 622.671 C 1497.04 619.213 1496.53 614.666 1494.66 609.158 C 1490.18 607.222 1483.4 605.228 1478.61 603.66 C 1494.75 598.807 1494.5 600.765 1499.3 584.501 z"/>
<path transform="translate(0,0)" fill="rgb(45,47,60)" d="M 1408.9 1025.01 C 1424.37 1024.83 1434.19 1054.12 1424.26 1069.1 C 1425.5 1066.31 1425.98 1063.88 1426.71 1060.94 C 1423.76 1067.02 1421.37 1071.77 1415.33 1075.19 C 1409.51 1078.49 1391.39 1081.34 1387.39 1074.35 L 1389.32 1074.34 C 1391.78 1074.76 1393.5 1074.99 1395.99 1075.21 C 1393.58 1073.96 1390.29 1072.29 1387.67 1071.53 C 1373.3 1067.34 1374.06 1048.48 1378.45 1037.27 C 1379.6 1034.33 1385.84 1035.05 1389.35 1034.38 C 1391.93 1031.19 1391.46 1032.85 1391.86 1029.5 C 1389.08 1029.7 1388.94 1030.69 1386.28 1032.99 L 1385.39 1032.85 L 1387.06 1029 C 1392.03 1025.03 1402.35 1026.49 1409.51 1026.39 L 1406.52 1025.88 L 1408.9 1025.01 z"/>
<path transform="translate(0,0)" fill="rgb(190,148,85)" d="M 1400.73 1033.49 C 1403.75 1035.03 1405.32 1042.66 1406.39 1046.04 C 1411.43 1047.93 1417.95 1049.85 1423.17 1051.52 C 1417.96 1053.41 1412.08 1055.22 1406.76 1056.97 C 1405.37 1060.85 1404.04 1064.85 1402.69 1068.74 L 1401.91 1069.58 L 1400.4 1068.98 C 1398.75 1064.83 1397.54 1061.13 1396.18 1056.89 C 1391.7 1055.07 1386.66 1053.36 1382.06 1051.7 L 1396.19 1046.44 L 1400.73 1033.49 z"/>
<path transform="translate(0,0)" fill="rgb(45,47,60)" d="M 1296.8 1712.91 C 1301.24 1716.6 1310.22 1720 1314.47 1724.51 L 1312.47 1726.52 L 1312.78 1724.65 C 1312.11 1727.06 1315.09 1730.98 1316.67 1733.83 L 1317.34 1730.45 L 1318.26 1732.51 C 1317.24 1735.75 1318.15 1734.28 1314.56 1736.46 C 1316.79 1740.01 1314.72 1751.33 1313.26 1755.37 L 1295.33 1759.41 C 1297.75 1760.57 1302.4 1759.86 1305.49 1759.72 L 1305.14 1761.25 C 1302.12 1762.96 1300.92 1763.36 1297.75 1764.51 C 1294.22 1764.6 1292.81 1764.55 1289.29 1764.22 L 1288.64 1763.08 L 1292.46 1762.86 L 1292.99 1761.55 C 1287.7 1760.98 1287.25 1764.36 1283.65 1762.69 C 1270.01 1756.37 1263.26 1746.37 1269.34 1731.53 C 1271.13 1727.17 1271.59 1722.66 1274.48 1718.8 C 1281.29 1714.93 1289.09 1713.5 1296.8 1712.91 z"/>
<path transform="translate(0,0)" fill="rgb(251,252,252)" d="M 1292.02 1721.55 C 1296.77 1734.65 1296.97 1734.6 1310.23 1738.28 C 1296.52 1742.17 1296.49 1741.98 1292.11 1755.57 C 1290.56 1751.36 1288.92 1747.18 1287.17 1743.05 C 1282.86 1740.88 1278.85 1739.82 1274.26 1738.39 C 1287.51 1734.55 1287.48 1734.57 1292.02 1721.55 z"/>
<path transform="translate(0,0)" fill="rgb(45,47,60)" d="M 527.609 1122.31 C 532.884 1121.63 539.77 1125.88 543.565 1129.22 C 552.746 1137.3 551.507 1147.35 550.473 1157.81 C 548.312 1161 546.246 1163.78 543.925 1166.86 C 539.123 1168.58 536.557 1169.73 531.44 1170.38 C 522.5 1169.92 525.842 1170.88 518.26 1166.94 C 505.469 1160.29 500.639 1147.03 508.135 1134.23 C 512.512 1126.76 519.34 1123.96 527.609 1122.31 z"/>
<path transform="translate(0,0)" fill="rgb(230,191,127)" d="M 522.473 1141.38 C 523.834 1137.4 525.304 1131.88 527.854 1128.77 C 530.014 1130.31 529.447 1130.69 530.292 1134.06 C 534.026 1144.4 539.538 1143.87 549.477 1146.65 L 533.263 1152.02 C 531.504 1157.11 529.648 1162.89 527.765 1167.88 L 523.897 1154.6 C 520.199 1150.17 512.774 1148.58 506.976 1146.59 C 512.38 1145.11 517.222 1143.28 522.473 1141.38 z"/>
<path transform="translate(0,0)" fill="rgb(190,148,85)" d="M 522.473 1141.38 C 523.834 1137.4 525.304 1131.88 527.854 1128.77 C 530.014 1130.31 529.447 1130.69 530.292 1134.06 C 522.248 1142.51 525.961 1144.02 523.897 1154.6 C 520.199 1150.17 512.774 1148.58 506.976 1146.59 C 512.38 1145.11 517.222 1143.28 522.473 1141.38 z"/>
<path transform="translate(0,0)" fill="rgb(45,47,60)" d="M 995.36 257.169 C 996.303 273.4 993.691 274.458 980.808 282.612 C 978.134 281.358 977.824 282.028 974.306 282.538 L 975 279.669 L 968.671 283.197 C 964.705 283.13 964.027 281.117 960.431 277.656 C 962.834 279.253 964.741 279.715 967.449 280.622 L 967.924 279.718 C 962.673 274.631 963.591 277.086 957.587 274.003 C 955.696 270.691 956.202 266.261 956.192 262.294 C 954.101 260.893 955.197 261.45 952.919 260.595 L 952.787 260.055 L 955.097 260.942 L 952.697 259.534 L 954.985 261.01 L 952.78 259.951 C 952.843 260.149 952.905 260.347 952.967 260.545 C 952.589 256.988 952.116 254.928 952.942 251.416 C 956.307 249.205 959.506 244.918 961.373 241.319 C 959.33 240.45 959.984 240.93 958.425 239.354 C 969.393 237.555 968.272 230.804 981.97 237.816 L 983.009 239.422 C 986.397 238.663 986.719 238.942 990.077 239.509 C 996.726 243.776 997.695 249.589 998.408 256.938 C 999.136 264.436 1000.88 263.61 996.603 270.594 C 996.923 265.789 997.131 262.867 996.865 258.02 L 995.36 257.169 z"/>
<path transform="translate(0,0)" fill="rgb(24,30,46)" d="M 983.009 239.422 C 986.397 238.663 986.719 238.942 990.077 239.509 C 996.726 243.776 997.695 249.589 998.408 256.938 C 999.136 264.436 1000.88 263.61 996.603 270.594 C 996.923 265.789 997.131 262.867 996.865 258.02 L 995.36 257.169 C 993.331 244.026 990.047 248.23 983.009 239.422 z"/>
<path transform="translate(0,0)" fill="rgb(251,252,252)" d="M 973.104 246.363 C 975.899 248.575 976.505 253.271 983.23 258.587 L 984.768 259.792 C 978.543 260.37 976.18 266.508 974.629 271.584 L 972.775 270.122 C 971.544 264.438 969.232 263.078 964.798 259.511 L 963.255 258.284 C 969.863 257.099 971.512 252.034 973.104 246.363 z"/>
<path transform="translate(0,0)" fill="rgb(50,58,77)" d="M 1761.53 926.848 C 1761.18 929.818 1761.3 930.414 1762.14 933.29 L 1760.31 933.416 C 1756.8 930.585 1753.99 921.923 1754.92 917.301 L 1757.27 914.715 C 1760.75 910.933 1761.1 910.057 1762.89 905.096 C 1765.9 902.569 1791.5 898.989 1791.38 907.689 L 1788.49 908.074 L 1791.88 910.221 C 1792.49 913.937 1792.68 915.224 1795.5 917.882 C 1796.17 920.308 1797.35 924.402 1797.79 926.797 C 1801.04 944.44 1774.35 950.423 1764.45 940.29 C 1768.47 940.749 1777.59 942.388 1780.99 941.565 L 1780.49 940.58 C 1773.94 940.522 1774.94 940.777 1769.59 937.351 C 1766.26 934.75 1763.72 930.139 1764.03 925.859 L 1761.53 926.848 z"/>
<path transform="translate(0,0)" fill="rgb(24,30,46)" d="M 1761.53 926.848 C 1761.18 929.818 1761.3 930.414 1762.14 933.29 L 1760.31 933.416 C 1756.8 930.585 1753.99 921.923 1754.92 917.301 L 1757.27 914.715 C 1760.75 910.933 1761.1 910.057 1762.89 905.096 C 1765.9 902.569 1791.5 898.989 1791.38 907.689 L 1788.49 908.074 L 1788.21 905.763 L 1786.8 906.027 C 1779.2 907.385 1771.48 905.005 1765.91 912.062 C 1761.08 918.176 1763.34 920.529 1761.53 926.848 z"/>
<path transform="translate(0,0)" fill="rgb(24,30,46)" d="M 1795.5 917.882 C 1796.17 920.308 1797.35 924.402 1797.79 926.797 C 1801.04 944.44 1774.35 950.423 1764.45 940.29 C 1768.47 940.749 1777.59 942.388 1780.99 941.565 L 1780.49 940.58 C 1773.94 940.522 1774.94 940.777 1769.59 937.351 C 1775.01 938.843 1784.54 940.002 1789.18 935.844 C 1795.05 930.576 1794.05 924.81 1795.5 917.882 z"/>
<path transform="translate(0,0)" fill="rgb(251,252,252)" d="M 1777.95 910.401 C 1781.21 913.213 1780.19 916.28 1787.02 921.428 L 1788.36 922.43 C 1782.69 928.309 1783 922.54 1778.94 934.397 C 1776.14 931.361 1777.33 928.428 1773.7 925.784 C 1772.17 924.675 1770.08 922.566 1768.58 921.237 L 1768.66 921.145 L 1770.85 921.29 C 1775.41 918.512 1776.42 915.297 1777.95 910.401 z"/>
<path transform="translate(0,0)" fill="rgb(24,30,46)" d="M 405.261 1245.93 C 408.718 1249.45 409.415 1250.32 411.995 1254.52 C 408.574 1269.91 418.733 1292.66 389.2 1286.11 L 388.566 1284.84 L 391.488 1284.01 L 390.952 1283.58 C 382.669 1284.03 382.932 1284.76 377.574 1278.53 C 377.549 1277.92 377.506 1277.32 377.469 1276.71 C 376.189 1278.78 377.038 1278.33 375.259 1278.83 C 373.734 1274.53 372.524 1261.5 374.098 1257.15 C 375.447 1253.42 383.023 1249.57 386.765 1248.37 C 399.376 1244.33 398.786 1249.83 408.417 1254.29 L 409.911 1252.99 L 409.394 1253.96 L 409.373 1252.45 L 409.293 1253.95 C 407.878 1250.08 406.899 1251.44 402.853 1247.81 L 405.261 1245.93 z"/>
<path transform="translate(0,0)" fill="rgb(45,47,60)" d="M 388.252 1250.73 C 405.528 1247.97 409.28 1256.72 410.206 1271.42 C 405.188 1279.15 404.955 1279.6 396.218 1282.25 C 391.91 1282.31 389.839 1281.54 385.6 1280.47 C 374.444 1269.65 375.517 1259.95 388.252 1250.73 z"/>
<path transform="translate(0,0)" fill="rgb(251,252,252)" d="M 394.226 1254.77 C 402.102 1253.3 406.676 1258.21 406.655 1265.96 C 400.164 1268.56 399.76 1268.58 395.781 1274.35 L 395.22 1275.17 C 390.676 1270 390.308 1268.93 384.206 1265.98 L 383.264 1265.53 C 383.848 1261.49 384.329 1260.63 386.463 1257.35 C 390.499 1255.03 388.711 1255.55 393.686 1255.97 L 394.226 1254.77 z"/>
<path transform="translate(0,0)" fill="rgb(50,58,77)" d="M 394.226 1254.77 C 402.102 1253.3 406.676 1258.21 406.655 1265.96 C 395.274 1262.22 400.098 1262.09 394.226 1254.77 z"/>
<path transform="translate(0,0)" fill="rgb(66,75,93)" d="M 383.264 1265.53 C 383.848 1261.49 384.329 1260.63 386.463 1257.35 C 390.499 1255.03 388.711 1255.55 393.686 1255.97 C 391.622 1263.63 390.819 1263.41 383.264 1265.53 z"/>
<path transform="translate(0,0)" fill="rgb(45,47,60)" d="M 1179.45 426.563 C 1181.09 426.479 1182.74 426.406 1184.39 426.346 C 1189.73 426.145 1192.33 425.462 1196.15 429.011 C 1196.3 433.898 1195.83 434.232 1199.8 436.412 L 1200.47 434.581 L 1201.87 434.058 C 1208.84 437.605 1206.97 436.978 1207.36 443.313 C 1207.77 450.064 1206.77 456.87 1202.54 462.265 L 1201.51 461.382 C 1194.17 464.196 1179.31 465.413 1172.77 460.093 C 1169.21 457.238 1167.07 452.976 1166.9 448.418 C 1166.52 438.334 1173.1 432.956 1179.45 426.563 z"/>
<path transform="translate(0,0)" fill="rgb(251,252,252)" d="M 1187.32 433.274 C 1194.6 432.484 1195.4 434.254 1199.21 441.069 L 1199.02 444.471 L 1197.25 446.176 C 1199.78 453.996 1196.03 455.725 1189.54 458.403 L 1187.38 458.152 C 1180.44 457.998 1174.09 453.958 1176.87 446.162 L 1177.04 445.099 C 1176.14 440.639 1175.82 442.083 1177.17 438.18 C 1179.71 435.507 1183.73 434.543 1187.32 433.274 z"/>
<path transform="translate(0,0)" fill="rgb(50,58,77)" d="M 1187.32 433.274 C 1194.6 432.484 1195.4 434.254 1199.21 441.069 L 1199.02 444.471 C 1190.27 443.081 1190.24 441.254 1187.32 433.274 z"/>
<path transform="translate(0,0)" fill="rgb(50,58,77)" d="M 1176.87 446.162 C 1183.62 448.33 1183.99 448.436 1186.26 454.977 L 1187.38 458.152 C 1180.44 457.998 1174.09 453.958 1176.87 446.162 z"/>
<path transform="translate(0,0)" fill="rgb(50,58,77)" d="M 1187.38 458.152 C 1191.09 450.47 1188.02 449.823 1197.25 446.176 C 1199.78 453.996 1196.03 455.725 1189.54 458.403 L 1187.38 458.152 z"/>
<path transform="translate(0,0)" fill="rgb(50,58,77)" d="M 1177.04 445.099 C 1176.14 440.639 1175.82 442.083 1177.17 438.18 C 1179.71 435.507 1183.73 434.543 1187.32 433.274 C 1185.09 439.899 1185.35 441.15 1179.37 444.038 C 1178.6 444.404 1177.82 444.757 1177.04 445.099 z"/>
<path transform="translate(0,0)" fill="rgb(45,47,60)" d="M 1426.12 350.38 C 1431.92 351.358 1440.07 350.662 1442.49 358.299 L 1440.79 358.782 C 1439.74 357.846 1437.3 355.512 1436.25 354.889 L 1437.27 355.724 C 1435.88 360.04 1441.67 359.265 1442.45 368.524 L 1442.94 368.464 C 1442.92 366.377 1442.87 365.3 1442.57 363.271 L 1442.31 361.514 L 1443.82 360.94 L 1445.34 362.681 C 1447.19 370.359 1443.94 370.813 1441.12 377.29 C 1438.95 382.293 1439.67 388.239 1434.04 391.047 C 1429.24 391.864 1423.45 390.162 1419.42 387.51 C 1416.53 388.009 1417.61 388.094 1414.8 387.394 L 1405.71 378.091 C 1405.03 374.526 1404.02 371.765 1404.94 368.475 L 1406.54 369.153 C 1404.4 374.702 1412.35 386.972 1417.53 385.504 C 1411.92 380.356 1408.07 377.737 1408.16 370.076 C 1408.23 363.614 1408.44 356.933 1413.06 351.972 C 1416.12 351.516 1414.93 351.079 1416.99 352.461 L 1413.26 353.553 L 1413.16 355.22 C 1419.13 355.239 1415.62 350.839 1426.12 350.38 z"/>
<path transform="translate(0,0)" fill="rgb(230,191,127)" d="M 1424.99 357.539 C 1425.97 358.529 1426.35 358.586 1426.59 359.84 C 1427.56 364.908 1431.34 366.48 1434.67 369.956 C 1429 370.517 1427.42 375.929 1426.17 380.635 C 1422.9 377.701 1424.45 374.771 1420.74 372.402 C 1418.92 371.237 1418.12 370.252 1416.82 368.525 C 1423.06 364.57 1422.92 364.778 1424.99 357.539 z"/>
<path transform="translate(0,0)" fill="rgb(45,47,60)" d="M 1593.45 1349.51 L 1594.31 1351.02 C 1600.43 1351.66 1601.91 1351.56 1606.6 1356.11 L 1606.21 1356.71 L 1603.68 1355.23 L 1602.63 1355.56 L 1604.27 1355.72 L 1602.37 1356.65 L 1602.45 1357.3 C 1608.73 1359.31 1610.89 1371.66 1607.39 1376.01 L 1604.63 1370.62 C 1605.94 1371.95 1605.36 1371.26 1605.79 1373.55 C 1604.45 1375.46 1604.3 1375.54 1603.5 1377.7 C 1605.31 1377.37 1606.28 1377.26 1608.07 1377.07 L 1608.13 1378.89 C 1605.7 1382.78 1605.53 1383.18 1602.16 1386.17 C 1600.89 1382.82 1602.81 1381.31 1602.29 1375.87 L 1601.07 1374.89 C 1598.53 1379.19 1597.9 1380.05 1594.43 1383.64 L 1594.65 1382.81 L 1593.89 1383.13 L 1594.49 1383.78 L 1598.08 1383.25 L 1598.99 1384.08 C 1594.3 1388.65 1588.46 1386.48 1583.31 1384.13 C 1578.24 1385.41 1579.78 1385.72 1575.87 1384.2 C 1571.71 1379.05 1567.77 1364.59 1571.52 1358.7 C 1574.31 1359.56 1570.72 1361.65 1572.82 1364.99 C 1575.07 1363.55 1575.85 1360.27 1577.1 1357.37 L 1576.07 1356.36 L 1572.02 1357.15 C 1575.56 1352.71 1587.53 1349.11 1593.45 1349.51 z"/>
<path transform="translate(0,0)" fill="rgb(230,191,127)" d="M 1589.06 1357.53 C 1590.77 1358.95 1591.51 1361.05 1592.3 1363.12 L 1593.02 1365.02 C 1595.47 1366.85 1597.48 1367.4 1600.32 1368.46 L 1600.38 1369.63 C 1593.12 1372.83 1592.96 1371.98 1590.58 1379.6 L 1590.18 1380.93 L 1588.62 1379.61 C 1586.56 1371.8 1586.73 1373.15 1579.48 1369.89 L 1579.28 1368.71 C 1586.19 1365.82 1586.3 1366.15 1588.64 1358.86 L 1589.06 1357.53 z"/>
<path transform="translate(0,0)" fill="rgb(45,47,60)" d="M 341.837 958.997 L 342.089 957.928 C 342.866 954.534 343.205 954.949 342.412 951.877 L 341.243 951.007 C 336.512 947.424 335.327 947.221 335.263 941.119 C 338.638 938.106 338.151 939.415 338.981 935.653 C 337.783 935.824 336.587 935.839 335.38 935.89 C 336.27 928.631 352.224 923.482 359.122 925.375 C 357.012 926.528 357.824 925.811 356.542 927.349 C 359.627 929.405 361.349 930.463 364.039 932.965 L 363.68 933.958 L 359.682 933.712 L 359.287 934.826 L 359.106 934.186 L 360.563 933.676 L 360.083 935.87 C 365.206 939.292 365.102 937.18 369.143 942.609 L 370.236 942.149 C 370.529 939.422 369.253 937.511 368.074 934.943 L 368.584 933.776 C 373.322 937.227 371.379 951.435 370.9 957.11 C 365.013 963.031 363.65 964.563 355.195 963.101 L 354.594 964.565 C 356.256 964.945 356.452 964.83 358.093 964.532 L 357.038 966.917 C 352.629 969.071 345.011 968.06 341.323 965.01 L 341.602 961.713 L 339.038 959.161 L 339.273 958.218 L 341.837 958.997 z"/>
<path transform="translate(0,0)" fill="rgb(24,30,46)" d="M 355.195 963.101 L 354.594 964.565 C 356.256 964.945 356.452 964.83 358.093 964.532 L 357.038 966.917 C 352.629 969.071 345.011 968.06 341.323 965.01 L 341.602 961.713 L 339.038 959.161 L 339.273 958.218 L 341.837 958.997 C 349.929 962.977 347.691 961.242 355.195 963.101 z"/>
<path transform="translate(0,0)" fill="rgb(190,148,85)" d="M 350.378 934.384 C 354.977 937.575 350.272 939.606 359.206 944.077 L 360.296 944.609 C 361.061 947.973 356.095 947.172 353.588 951.091 C 353.508 951.216 352.133 955.795 351.977 956.3 C 350.915 956.406 351.615 956.438 350.035 955.491 C 348.42 948.907 348.889 949.147 342.454 946.632 L 341.262 946.177 L 340.816 945.129 C 347.698 942.474 347.912 942.862 350.016 935.664 L 350.378 934.384 z"/>
<path transform="translate(0,0)" fill="rgb(45,47,60)" d="M 853.529 1691.54 C 856.805 1693.08 861.6 1691.95 865.41 1691.5 L 864.782 1691.25 C 866.537 1690.62 874.613 1694.67 875.66 1697.42 C 873.335 1698.19 873.418 1698.11 871.223 1699.25 L 872.819 1701.15 L 876.148 1700.69 C 880.768 1705.15 882.644 1709.36 879.96 1715.61 C 876.202 1724.36 871.446 1724.04 865.576 1729.04 C 864.725 1729.83 864.125 1729.96 863.006 1730.48 C 857.786 1728.91 852.404 1727.39 849.133 1722.77 C 844.286 1715.92 839.399 1703.94 847.757 1697.89 C 849.924 1698.86 848.439 1701.06 850.833 1704.9 C 853.205 1702.02 853.876 1698.99 854.982 1695.42 L 853.294 1694.2 L 853.529 1691.54 z"/>
<path transform="translate(0,0)" fill="rgb(190,148,85)" d="M 858.441 1705.36 C 859.445 1702.43 859.765 1699.55 861.778 1698.2 C 866.799 1705.46 860.112 1705.18 872.58 1708.99 L 873.058 1709.96 C 871.035 1711.1 867.022 1712.94 865.404 1713.41 C 864.244 1713.74 863.566 1721.47 860.922 1721.52 C 859.786 1718.56 859.582 1718.11 858.98 1714.87 L 856.87 1712.88 C 853.647 1711.91 853.583 1712.01 850.812 1710.18 C 852.096 1708.04 854.128 1708.01 857.192 1706.91 L 858.441 1705.36 z"/>
<path transform="translate(0,0)" fill="rgb(230,191,127)" d="M 858.441 1705.36 C 862.538 1705.02 860.663 1704.58 864.227 1706.87 C 865.758 1710.45 865.596 1708.64 864.638 1712.49 C 861.228 1715.24 863.088 1714.57 858.98 1714.87 L 856.87 1712.88 C 853.647 1711.91 853.583 1712.01 850.812 1710.18 C 852.096 1708.04 854.128 1708.01 857.192 1706.91 L 858.441 1705.36 z"/>
<path transform="translate(0,0)" fill="rgb(190,148,85)" d="M 857.192 1706.91 C 857.345 1710.02 857.64 1710.03 856.87 1712.88 C 853.647 1711.91 853.583 1712.01 850.812 1710.18 C 852.096 1708.04 854.128 1708.01 857.192 1706.91 z"/>
<path transform="translate(0,0)" fill="rgb(24,30,46)" d="M 787.511 342.743 C 796.128 341.583 804.732 349.562 804.738 358.521 C 804.743 363.06 802.782 367.379 799.36 370.361 C 793.852 375.244 789.576 374.641 782.751 374.324 C 781.569 373.97 782.167 374.299 781.13 373.072 L 781.297 372.076 L 776.852 367.97 L 777.876 370.611 C 765.505 361.095 773.416 344.559 787.511 342.743 z"/>
<path transform="translate(0,0)" fill="rgb(230,191,127)" d="M 788.15 349.572 C 788.751 350.162 794.956 358.258 795.055 358.943 C 790.91 362.354 790.162 363.097 788.592 368.241 C 787.209 366.193 787.281 363.722 784.89 361.993 C 783.674 361.113 782.63 359.522 781.897 358.232 C 785.647 355.039 786.628 354.273 788.15 349.572 z"/>
<path transform="translate(0,0)" fill="rgb(45,47,60)" d="M 543.312 1578.77 C 545.354 1578.45 549.714 1579.26 551.455 1580.28 C 554.552 1582.13 556.689 1585.24 557.305 1588.79 C 558.752 1596.69 553.437 1604.28 545.633 1605.87 C 542.018 1604.73 541.307 1604.56 537.541 1604.76 L 535.594 1602.58 C 537.937 1602.51 536.894 1602.74 538.756 1602.07 C 538.247 1598.82 538.346 1599.03 536.527 1596.3 C 535.282 1597.27 534.262 1598.25 533.194 1599.4 C 529.577 1597.36 527.256 1591.57 528.97 1587.44 C 531.457 1584.69 532.034 1584.73 535.74 1583.47 L 536.807 1583.12 L 537.207 1580.06 L 537.105 1583 L 536.616 1580.65 L 536.525 1581.04 C 539.127 1578.77 539.237 1579.43 543.312 1578.77 z"/>
<path transform="translate(0,0)" fill="rgb(230,191,127)" d="M 543.359 1581.71 C 545.642 1584.61 545.045 1585.59 548.688 1589.3 L 549.938 1590.56 C 547.334 1595.46 545.98 1592.23 543.905 1600.44 C 541.872 1595.26 541.802 1595.27 537.993 1591.39 L 537.188 1590.57 C 541.555 1587.9 542.201 1586.49 543.359 1581.71 z"/>
<path transform="translate(0,0)" fill="rgb(24,30,46)" d="M 439.507 494.475 C 445.636 492.542 452.812 494.727 455.984 500.313 C 456.387 505.56 453.453 509.543 450.853 514.423 C 441.559 521.441 421.296 508.718 439.507 494.475 z"/>
<path transform="translate(0,0)" fill="rgb(45,47,60)" d="M 1438.16 1283.5 C 1441.76 1283.51 1447.62 1282.9 1450.22 1284.59 L 1447.96 1285.09 C 1447.73 1287.22 1456.18 1290.21 1456.35 1293.87 C 1456.38 1294.33 1457.44 1296.7 1457.53 1296.91 C 1456.92 1300.05 1456.06 1301.73 1454.12 1304.3 C 1446.84 1304.74 1443.08 1304.72 1435.72 1303.95 C 1430.76 1298.55 1433.2 1288.36 1438.16 1283.5 z"/>
<path transform="translate(0,0)" fill="rgb(251,252,252)" d="M 1445.54 1287.77 C 1446.86 1291.26 1447.32 1291.54 1449.87 1294.46 L 1450.61 1295.29 C 1447.5 1298.4 1447.08 1299.08 1445.61 1303.24 C 1444.11 1299.38 1443.87 1299.21 1441.07 1295.97 L 1440.35 1295.15 C 1443.34 1292.31 1443.81 1291.54 1445.54 1287.77 z"/>
<path transform="translate(0,0)" fill="rgb(24,30,46)" d="M 637.264 372.318 C 647.55 373.301 648.932 384.792 645.103 392.793 L 644.645 391.152 C 644.388 390.827 644.132 390.501 643.876 390.176 L 640.567 393.001 C 634.979 401.811 614.174 378.115 637.264 372.318 z"/>
<path transform="translate(0,0)" fill="rgb(251,252,252)" d="M 1450.35 757.489 C 1453.11 756.39 1456.24 757.706 1457.38 760.445 C 1458.52 763.184 1457.26 766.335 1454.54 767.523 C 1452.74 768.31 1450.66 768.065 1449.09 766.882 C 1447.52 765.7 1446.71 763.763 1446.97 761.817 C 1447.23 759.87 1448.52 758.216 1450.35 757.489 z"/>
<path transform="translate(0,0)" fill="rgb(251,252,252)" d="M 1682.74 1301.48 C 1685.61 1301 1688.33 1302.93 1688.81 1305.8 C 1689.3 1308.67 1687.36 1311.39 1684.49 1311.87 C 1681.62 1312.35 1678.91 1310.41 1678.43 1307.55 C 1677.95 1304.69 1679.87 1301.97 1682.74 1301.48 z"/>
<path transform="translate(0,0)" fill="rgb(251,252,252)" d="M 950.027 1573.51 C 951.592 1572.37 953.663 1572.19 955.395 1573.06 C 957.127 1573.93 958.229 1575.69 958.252 1577.63 C 958.274 1579.57 957.213 1581.35 955.501 1582.26 C 953.103 1583.53 950.13 1582.73 948.69 1580.43 C 947.25 1578.13 947.834 1575.11 950.027 1573.51 z"/>
<path transform="translate(0,0)" fill="rgb(251,252,252)" d="M 277.231 776.505 C 278.858 775.816 280.731 776.067 282.12 777.16 C 283.508 778.253 284.192 780.014 283.905 781.758 C 283.617 783.501 282.404 784.95 280.739 785.54 C 278.268 786.414 275.55 785.167 274.601 782.724 C 273.653 780.281 274.818 777.526 277.231 776.505 z"/>
<path transform="translate(0,0)" fill="rgb(251,252,252)" d="M 1580.71 1000.5 C 1582.93 999.011 1585.93 999.599 1587.43 1001.82 C 1588.92 1004.03 1588.33 1007.04 1586.12 1008.54 C 1583.9 1010.03 1580.89 1009.44 1579.4 1007.22 C 1577.9 1005.01 1578.49 1002 1580.71 1000.5 z"/>
<path transform="translate(0,0)" fill="rgb(161,129,85)" d="M 1729.25 699.478 C 1731.5 698.536 1734.09 699.485 1735.2 701.656 C 1736.31 703.826 1735.55 706.484 1733.47 707.752 C 1731.98 708.661 1730.1 708.658 1728.61 707.744 C 1727.12 706.831 1726.27 705.16 1726.4 703.417 C 1726.54 701.674 1727.64 700.153 1729.25 699.478 z"/>
<path transform="translate(0,0)" fill="rgb(251,252,252)" d="M 438.766 758.512 C 440.677 757.548 443.008 758.215 444.121 760.044 C 445.233 761.872 444.754 764.249 443.019 765.504 C 441.768 766.409 440.114 766.535 438.74 765.83 C 437.366 765.125 436.503 763.708 436.509 762.163 C 436.514 760.618 437.386 759.208 438.766 758.512 z"/>
<path transform="translate(0,0)" fill="rgb(251,252,252)" d="M 952.971 422.521 C 955.062 421.815 957.328 422.942 958.027 425.036 C 958.725 427.13 957.588 429.392 955.492 430.082 C 953.407 430.768 951.16 429.639 950.466 427.557 C 949.772 425.475 950.892 423.224 952.971 422.521 z"/>
<path transform="translate(0,0)" fill="rgb(251,252,252)" d="M 1574.45 497.497 C 1576.12 496.16 1578.55 496.4 1579.93 498.039 C 1581.3 499.677 1581.12 502.113 1579.51 503.526 C 1578.44 504.47 1576.94 504.759 1575.6 504.281 C 1574.25 503.803 1573.27 502.634 1573.03 501.226 C 1572.79 499.817 1573.34 498.39 1574.45 497.497 z"/>
<path transform="translate(0,0)" fill="rgb(251,252,252)" d="M 789.266 1034.48 C 790.295 1033.51 791.762 1033.18 793.108 1033.6 C 794.454 1034.01 795.471 1035.12 795.771 1036.5 C 796.071 1037.88 795.608 1039.31 794.558 1040.25 C 792.96 1041.68 790.507 1041.56 789.057 1039.98 C 787.608 1038.4 787.701 1035.94 789.266 1034.48 z"/>
<path transform="translate(0,0)" fill="rgb(251,252,252)" d="M 1450.15 1519.54 C 1452.01 1519.13 1453.87 1520.22 1454.41 1522.04 C 1454.96 1523.86 1454 1525.8 1452.23 1526.48 C 1450.96 1526.96 1449.52 1526.69 1448.51 1525.78 C 1447.49 1524.88 1447.07 1523.48 1447.42 1522.16 C 1447.77 1520.84 1448.82 1519.83 1450.15 1519.54 z"/>
</svg>