<svg version="1.1" xmlns="http://www.w3.org/2000/svg" style="display: block;" viewBox="0 0 2048 2048" width="1024" height="1024" preserveAspectRatio="none">
<path transform="translate(0,0)" fill="rgb(209,175,94)" d="M 0 0 L 975.088 0 L 1075.54 0 L 2048 0 L 2048 974.432 L 2048 1073.76 L 2048 2048 L 1073.75 2048 L 976.32 2048 L 0 2048 L 0 1074.56 L 0 977.463 L 0 0 z"/>
<path transform="translate(0,0)" fill="rgb(254,254,254)" d="M 0 0 L 975.088 0 L 973.745 0.292466 C 961.435 2.88053 921.76 5.07182 907.003 6.65374 C 868.211 10.9202 829.713 17.5242 791.717 26.4299 C 537.733 85.6454 315.888 239.481 171.391 456.587 C 92.5039 575.111 39.2328 708.801 14.9874 849.098 C 10.7025 874.095 7.37483 899.247 5.01181 924.498 C 3.96538 936.204 2.4104 968.352 0 977.463 L 0 0 z"/>
<path transform="translate(0,0)" fill="rgb(254,254,254)" d="M 0 1074.56 L 0.286129 1075.88 C 3.20191 1089.82 4.83326 1124.83 6.65076 1141.23 C 10.9669 1180 17.665 1218.46 26.7071 1256.4 C 84.9819 1508.05 236.536 1728.24 450.791 1872.52 C 572.844 1955.25 711.403 2010.49 856.893 2034.43 C 879.814 2038.12 902.851 2041.05 925.967 2043.2 C 938.103 2044.24 965.497 2045.74 976.32 2048 L 0 2048 L 0 1074.56 z"/>
<path transform="translate(0,0)" fill="rgb(254,254,254)" d="M 2048 1073.76 L 2048 2048 L 1073.75 2048 C 1087.61 2045.38 1111.21 2044.47 1126.14 2043.09 C 1150.96 2040.61 1175.69 2037.24 1200.28 2032.98 C 1357.7 2005.42 1506.5 1941.42 1634.79 1846.11 C 1833.47 1698.83 1971.96 1484.47 2024.57 1242.82 C 2032.58 1207.15 2038.5 1171.05 2042.31 1134.69 C 2044.37 1115.41 2045.23 1092.37 2048 1073.76 z"/>
<path transform="translate(0,0)" fill="rgb(254,254,254)" d="M 1075.54 0 L 2048 0 L 2048 974.432 C 2045.9 961.608 2045.18 945.007 2043.95 931.745 C 2041.8 907.4 2038.79 883.139 2034.92 859.007 C 2010.46 708.809 1952.84 565.949 1866.23 440.821 C 1721.41 231.579 1503.85 83.7763 1255.97 26.2348 C 1216.42 17.1167 1176.39 10.2733 1136.06 5.73836 C 1119.36 3.88967 1092.1 3.25184 1076.94 0.283339 L 1075.54 0 z"/>
<path transform="translate(0,0)" fill="rgb(6,20,43)" d="M 996.323 56.9404 C 1530.37 41.5827 1975.72 462.127 1990.96 996.178 C 2006.21 1530.23 1585.56 1975.49 1051.51 1990.61 C 517.619 2005.74 72.526 1585.25 57.289 1051.36 C 42.052 517.477 462.439 72.2934 996.323 56.9404 z"/>
<path transform="translate(0,0)" fill="rgb(45,77,106)" d="M 1070.66 655.2 C 1083.14 643.846 1099.08 626.749 1111.26 614.386 L 1192.38 531.531 C 1202.92 520.764 1224.98 496.244 1235.81 488.647 C 1256.25 474.32 1302.47 508.532 1313.85 524.479 C 1328.36 544.824 1336.26 560.752 1334.83 585.038 C 1329.78 593.565 1295.1 627.715 1286.26 636.671 L 1197.64 726.984 C 1192.53 732.192 1170.07 753.881 1166.76 758.901 C 1161.23 770.328 1127.9 799.9 1117.15 811.447 C 1120.53 812.499 1122.01 813.241 1125.56 812.894 C 1128.39 816.939 1138.48 829.199 1143.08 830.096 C 1155.79 818.442 1167.46 805.477 1179.55 793.229 C 1183.31 789.415 1193.48 778.055 1197.15 775.785 L 1198.18 776.507 C 1211.4 763.304 1224.49 749.968 1237.44 736.499 C 1243.71 730.027 1257.68 714.612 1264.6 710.261 C 1281.63 699.563 1311.8 721.716 1321.24 735.907 C 1328.28 746.49 1337.57 769.446 1329.57 781.112 C 1315.61 801.493 1291.1 818.669 1276.02 837.965 C 1276.17 844.351 1220.51 892.203 1219.72 899.461 C 1221.47 900.199 1221.81 900.193 1223.77 900.376 C 1233.08 901.25 1238.62 912.698 1242.49 919.758 C 1252.41 915.175 1294.44 864.115 1301.44 863.172 C 1331.46 832.91 1363.27 800.985 1392.66 770.3 L 1422.23 740.025 C 1430.13 731.778 1442.59 717.859 1451.5 711.309 C 1494.15 704.678 1542.7 755.066 1548.81 795.014 C 1549.59 800.143 1549.23 805.452 1548.81 810.603 C 1544.14 816.967 1535.81 825.061 1530.14 830.926 L 1490.99 870.84 L 1359.11 1006.57 C 1342.22 1023.9 1308.58 1056.19 1294.02 1073.82 L 1294.24 1075.53 C 1281.61 1090.05 1266.43 1103.64 1253.12 1117.71 C 1237.24 1134.49 1220.84 1151.3 1203.88 1166.95 C 1200.4 1170.16 1187.43 1172.86 1182.45 1173.52 L 1185.1 1175.07 C 1183.16 1178.9 1178.5 1180.03 1178.42 1180.81 C 1177.31 1191.72 1180.95 1190.96 1166.05 1196.33 L 1164.57 1195.45 L 1164.33 1196.34 C 1163.6 1198.92 1163.58 1199.87 1161.58 1201.66 C 1157.26 1201.58 1157.24 1201.13 1155.47 1196.84 C 1151.57 1196.87 1147.95 1201.33 1145.14 1204.19 L 1138.9 1210.6 C 1145.36 1222.2 1149.04 1227.56 1137.72 1238.33 C 1133.42 1242.41 1128.68 1246.67 1124.56 1250.94 C 1119.54 1246.11 1107.49 1233.13 1102.9 1229.98 C 1099.11 1230.84 1099.18 1233.44 1098.05 1233.85 C 1095.06 1234.93 1088.43 1234.48 1086.37 1237.47 C 1080.84 1245.49 1068.38 1296.78 1063.46 1300.3 C 1059.26 1311 1056.49 1322.16 1052.53 1332.83 C 1047.09 1327.83 1041.55 1322.63 1035.99 1317.8 C 1021.61 1310.51 969.983 1249.1 962.703 1248.11 C 962.469 1252.77 956.603 1257.07 952.372 1257.85 C 958.933 1264.17 965.349 1270.27 971.598 1276.91 C 984.803 1290.5 1005.56 1310.41 1019.08 1324.86 C 1019.15 1325.64 1019.21 1326.41 1019.28 1327.19 C 1016.47 1325.29 1000.06 1308.69 996.862 1305.41 C 977.556 1285.65 958.663 1266.53 938.804 1247.29 C 926.549 1259.83 906.642 1283.03 894.238 1293.74 C 894.373 1292.87 894.507 1292 894.642 1291.12 C 908.666 1276.25 922.54 1260.7 937.082 1246.4 C 938.057 1245.44 939.257 1246.08 941.068 1246.36 C 942.029 1243.53 942.057 1226.84 940.51 1224.49 C 930.901 1225.44 897.825 1271.75 884.363 1276.97 C 861.595 1299.82 836.975 1327.54 814.126 1349.08 C 775.543 1329.42 724.486 1281.97 708.557 1240.65 C 728.316 1217.13 758.194 1191.91 779.071 1167.16 C 777.81 1161.77 833.134 1114.18 833.13 1106.61 C 829.865 1103.76 826.459 1100.68 822.997 1098.09 C 822.736 1097.89 820.574 1096.55 820.542 1096.57 C 820.175 1096.81 816.031 1099.52 816.031 1099.52 C 812.151 1099.14 810.357 1098.79 806.592 1099.46 L 806.648 1100.68 C 808.842 1102.94 812.802 1107.69 810.421 1110.62 C 805.489 1116.7 794.948 1128.94 788.104 1131.82 C 793.06 1125.55 804.303 1114.74 810.306 1108.16 C 806.029 1102.09 797.238 1093.73 791.821 1088.3 L 752.359 1049 C 746.969 1043.6 737.1 1034.28 732.842 1028.75 C 740.25 1028.82 769.276 1065.32 777.166 1071.38 C 779.406 1073.1 780.235 1072.86 782.801 1072.51 C 787.006 1069.57 789.059 1068.59 790.1 1063.79 C 788.102 1059.52 756.29 1028.87 750.017 1021.66 L 750.011 1019.81 C 744.942 1013.31 731.28 1000.3 725.213 994.667 L 725.633 993.391 C 732.755 986.4 798.923 967.892 813.8 961.563 C 811.888 961.184 812.56 961.197 810.712 959.611 L 811.079 958.443 L 813.67 958.475 C 814.942 955.474 810.042 954.231 811.769 948.276 C 815.396 945.575 824.05 945.765 828.835 945.591 C 824.12 937.43 812.561 930.497 805.666 919.313 L 804.892 918.039 C 811.355 912.738 822.146 901.599 829.346 895.23 C 831.077 896.46 832.818 897.676 834.568 898.878 C 838.585 901.684 841.59 904.105 846.659 902.384 C 848.881 899.203 848.184 901.002 848.125 896.583 L 846.838 895.131 L 847.821 895.827 L 845.726 895.185 C 843.24 896.262 842.962 896.689 840.338 896.551 C 839.623 891.371 847.831 879.373 850.59 874.638 C 853.542 869.571 864.672 868.665 870.42 868.19 C 874.246 865.052 874.923 865.131 879.891 863.869 C 882.385 866.352 882.159 866.238 885.579 867.052 L 887.294 865.88 C 885.675 861.658 880.592 845.197 880.213 841.651 C 881.428 838.682 881.846 838.62 884.19 836.504 L 885.562 836.196 C 887.717 835.685 890.538 835.594 892.176 833.948 C 950.949 774.865 1008.97 714.897 1067.86 655.878 C 1068.79 655.652 1069.72 655.426 1070.66 655.2 z"/>
<path transform="translate(0,0)" fill="rgb(254,254,254)" d="M 1070.66 655.2 C 1083.14 643.846 1099.08 626.749 1111.26 614.386 L 1192.38 531.531 C 1202.92 520.764 1224.98 496.244 1235.81 488.647 C 1256.25 474.32 1302.47 508.532 1313.85 524.479 C 1328.36 544.824 1336.26 560.752 1334.83 585.038 C 1329.78 593.565 1295.1 627.715 1286.26 636.671 L 1197.64 726.984 C 1192.53 732.192 1170.07 753.881 1166.76 758.901 C 1153.25 771.207 1137.55 787.896 1124.49 801.107 L 1031.46 896.318 C 1018.77 909.204 1004.58 924.732 991.982 937.059 C 968.073 960.455 922.221 911.57 907.572 895.891 L 905.552 896.16 C 900.035 889.515 888.675 873.857 887.294 865.88 C 885.675 861.658 880.592 845.197 880.213 841.651 C 881.428 838.682 881.846 838.62 884.19 836.504 L 885.562 836.196 C 887.717 835.685 890.538 835.594 892.176 833.948 C 950.949 774.865 1008.97 714.897 1067.86 655.878 C 1068.79 655.652 1069.72 655.426 1070.66 655.2 z"/>
<path transform="translate(0,0)" fill="rgb(33,60,86)" d="M 887.294 865.88 C 885.675 861.658 880.592 845.197 880.213 841.651 C 881.428 838.682 881.846 838.62 884.19 836.504 L 885.562 836.196 C 887.717 835.685 890.538 835.594 892.176 833.948 C 950.949 774.865 1008.97 714.897 1067.86 655.878 C 1068.79 655.652 1069.72 655.426 1070.66 655.2 C 1058.61 669.128 1038.26 688.574 1024.8 702.258 L 929 799.369 C 921.212 807.339 891.753 836.353 887.137 843.932 C 885.98 867.94 893.255 876.835 907.572 895.891 L 905.552 896.16 C 900.035 889.515 888.675 873.857 887.294 865.88 z"/>
<path transform="translate(0,0)" fill="rgb(254,254,254)" d="M 1451.5 711.309 C 1494.15 704.678 1542.7 755.066 1548.81 795.014 C 1549.59 800.143 1549.23 805.452 1548.81 810.603 C 1544.14 816.967 1535.81 825.061 1530.14 830.926 L 1490.99 870.84 L 1359.11 1006.57 C 1342.22 1023.9 1308.58 1056.19 1294.02 1073.82 C 1291.34 1075.35 1275.12 1092.46 1272.02 1095.58 C 1250.97 1116.83 1230.28 1138.71 1209.07 1159.79 C 1203.26 1165.58 1198.15 1168.98 1189.64 1168.24 C 1165.8 1166.15 1136.13 1137.17 1121.38 1120.25 C 1106.98 1103.74 1100.47 1090.72 1102.24 1069.04 L 1102.6 1068.56 C 1110.51 1057.75 1136.01 1033.12 1146.45 1022.37 L 1246.93 919.568 C 1261.21 905.064 1289.93 877.483 1301.44 863.172 C 1331.46 832.91 1363.27 800.985 1392.66 770.3 L 1422.23 740.025 C 1430.13 731.778 1442.59 717.859 1451.5 711.309 z"/>
<path transform="translate(0,0)" fill="rgb(254,254,254)" d="M 876.703 1027.14 C 926.35 1074.09 976.057 1126.92 1025.05 1175.16 L 972.209 1203.58 C 942.974 1219.34 926.049 1229.34 904.562 1255.58 C 898.865 1262.54 889.68 1269.79 884.363 1276.97 C 861.595 1299.82 836.975 1327.54 814.126 1349.08 C 775.543 1329.42 724.486 1281.97 708.557 1240.65 C 728.316 1217.13 758.194 1191.91 779.071 1167.16 C 784.236 1163.1 794.882 1151.47 800.238 1146.19 C 809.992 1136.58 823.049 1123.5 831.53 1113.02 C 837.559 1105.57 845.841 1087.95 850.586 1078.66 L 876.703 1027.14 z"/>
<path transform="translate(0,0)" fill="rgb(254,254,254)" d="M 1198.18 776.507 C 1211.4 763.304 1224.49 749.968 1237.44 736.499 C 1243.71 730.027 1257.68 714.612 1264.6 710.261 C 1281.63 699.563 1311.8 721.716 1321.24 735.907 C 1328.28 746.49 1337.57 769.446 1329.57 781.112 C 1315.61 801.493 1291.1 818.669 1276.02 837.965 C 1269.99 842.325 1236.91 877.127 1230.28 883.96 C 1200.02 914.62 1169.97 945.477 1140.11 976.528 C 1124.86 945.59 1101.1 923.236 1071.76 906.006 C 1100.33 875.446 1132.85 844.989 1161.67 814.5 C 1172.25 803.301 1189.33 787.599 1198.18 776.507 z"/>
<path transform="translate(0,0)" fill="rgb(254,254,254)" d="M 1036.59 1189.33 C 1052.87 1204.64 1068.89 1220.23 1084.62 1236.09 C 1077.7 1254.29 1068.03 1281.64 1063.46 1300.3 C 1059.26 1311 1056.49 1322.16 1052.53 1332.83 C 1047.09 1327.83 1041.55 1322.63 1035.99 1317.8 C 1027.5 1307.75 1017.17 1298.21 1007.85 1288.76 C 990.127 1270.72 972.241 1252.84 954.195 1235.12 C 978.43 1220.41 1011.34 1203.06 1036.59 1189.33 z"/>
<path transform="translate(0,0)" fill="rgb(254,254,254)" d="M 725.213 994.667 C 745.796 984.79 796.903 969.211 820.206 961.743 C 835.64 976.884 850.902 992.933 866.548 1007.64 C 856.478 1026.27 846.701 1045.06 837.222 1063.99 C 832.745 1072.78 826.624 1083.69 822.796 1092.53 C 813.235 1082.85 756.536 1023.27 750.011 1019.81 C 744.942 1013.31 731.28 1000.3 725.213 994.667 z"/>
<path transform="translate(0,0)" fill="rgb(254,254,254)" d="M 1061.36 922.61 C 1082.65 929.398 1111.89 964.193 1122.79 983.744 C 1117.84 990.101 1106.4 1000.99 1100.52 1007.23 C 1083.45 1025.33 1065.34 1042.77 1048.79 1061.36 C 1042.58 1058.07 993.493 1006.59 986.415 998.83 C 1009.38 977.352 1039.6 945.606 1061.36 922.61 z"/>
<path transform="translate(0,0)" fill="rgb(254,254,254)" d="M 1087.54 1103.74 C 1091.13 1107.41 1096.49 1119.28 1100.42 1124.05 C 1119.74 1147.47 1139.37 1166.9 1166.3 1180.84 C 1157.89 1190.05 1146.25 1200.06 1136.89 1209.94 C 1139.06 1216.28 1141.63 1220.17 1145.03 1225.92 C 1140.27 1233.35 1130.89 1241.81 1124.38 1248.2 L 1114.73 1238.45 C 1088.4 1212.16 1061.66 1186.34 1035.85 1159.52 C 1031.22 1154.7 1027.34 1151.15 1023.62 1145.54 C 1028.87 1138.88 1037.92 1130.41 1044.41 1124.92 L 1058.65 1132.62 C 1068.13 1123.81 1078.34 1113.05 1087.54 1103.74 z"/>
<path transform="translate(0,0)" fill="rgb(254,254,254)" d="M 872.243 877.853 C 873.739 878.588 883.973 896.887 886.998 900.514 C 904.892 921.967 924.871 942.105 949.58 955.297 C 940.442 965.557 930.667 975.231 920.311 984.26 C 923.503 989.628 926.598 995.053 929.595 1000.53 C 924.826 1007.59 915.394 1016.28 909.047 1022.45 C 905.187 1019.01 900.971 1014.56 897.271 1010.85 L 841.878 955.235 C 832.084 945.393 815.754 929.736 807.762 919.313 C 814.499 910.436 821.075 905 829.717 897.956 C 834.814 901.333 838.941 903.801 844.256 906.812 C 851.505 900.644 865.158 885.377 872.243 877.853 z"/>
<path transform="translate(0,0)" fill="rgb(254,254,254)" d="M 954.593 994.367 C 956.99 995.418 1049.17 1088.09 1054.01 1094.86 C 1042.3 1101.07 1030.49 1107.07 1018.58 1112.86 L 999.402 1122.88 C 975.186 1098.31 950.328 1074.16 926.574 1049.15 C 933.623 1034.8 946.267 1007.14 954.593 994.367 z"/>
<path transform="translate(0,0)" fill="rgb(254,254,254)" d="M 375.321 756.755 C 380.124 758.659 636.589 1018.32 662.168 1044.82 C 646.359 1072.5 628.654 1099.4 613.123 1127.28 L 604.642 1119.07 L 310.964 822.504 C 332.48 801.252 354.113 778.441 375.321 756.755 z"/>
<path transform="translate(0,0)" fill="rgb(254,254,254)" d="M 1009.26 1394.1 C 1015.35 1397.22 1058.83 1442.77 1066.86 1450.78 L 1287.49 1672.08 L 1222.4 1738.93 L 1216.53 1733 L 1018.08 1534.34 C 1000.73 1516.8 983.3 1499.34 965.776 1481.98 C 955.434 1471.71 939.789 1456.85 930.905 1446.01 C 955.859 1429.57 985.422 1411.3 1009.26 1394.1 z"/>
<path transform="translate(0,0)" fill="rgb(254,254,254)" d="M 451.904 678.617 C 455.541 680.766 470.909 696.904 474.752 700.793 L 518.735 744.975 L 741.969 969.261 C 727.27 973.233 714.103 979.388 699.338 983.527 C 691.572 994.83 681.65 1012.77 674.408 1024.97 L 672.324 1027.86 C 667.212 1027.09 646.628 1004.01 641.596 998.99 L 561.157 917.841 C 504.455 860.901 443.053 801.234 388.009 743.412 L 451.904 678.617 z"/>
<path transform="translate(0,0)" fill="rgb(254,254,254)" d="M 1079.97 1308.54 C 1117.06 1343.52 1158.23 1386.6 1194.48 1423.08 C 1250.21 1479.17 1309.26 1536.55 1363.95 1593.46 L 1306.19 1652.73 L 1299.76 1659.33 L 1138.35 1496.98 C 1101.59 1460.1 1061.42 1421.46 1025.76 1383.88 C 1035.19 1377.92 1056.16 1365.19 1063.72 1358.36 C 1069.26 1341.8 1074.68 1325.19 1079.97 1308.54 z"/>
<path transform="translate(0,0)" fill="rgb(254,254,254)" d="M 707.936 1004.33 C 716.126 1012.52 724.334 1020.92 732.842 1028.75 C 737.1 1034.28 746.969 1043.6 752.359 1049 L 791.821 1088.3 C 797.238 1093.73 806.029 1102.09 810.306 1108.16 C 804.303 1114.74 793.06 1125.55 788.104 1131.82 C 775.004 1143.56 754.344 1166.36 741.567 1179.61 L 652.415 1271.96 C 639.245 1285.63 626.39 1299.53 612.867 1312.92 C 603.091 1322.87 589.11 1317.17 579.262 1310.59 C 561.865 1298.98 555.011 1286.39 550.887 1266.38 C 567.357 1235.83 590.465 1199.49 608.743 1169.39 C 642.137 1114.57 675.202 1059.55 707.936 1004.33 z"/>
<path transform="translate(0,0)" fill="rgb(254,254,254)" d="M 894.238 1293.74 C 906.642 1283.03 926.549 1259.83 938.804 1247.29 C 958.663 1266.53 977.556 1285.65 996.862 1305.41 C 1000.06 1308.69 1016.47 1325.29 1019.28 1327.19 C 1025.27 1334.02 1035.59 1343.37 1042.55 1350.88 C 1029.42 1360.23 1012.82 1370.41 999.068 1379.39 C 968.129 1399.65 937.083 1419.74 905.93 1439.66 C 868.879 1463.45 828.553 1491.46 791.35 1513.84 C 760.391 1507.51 742.391 1490.5 738.549 1458.23 C 745.306 1449.21 766.947 1427.61 775.566 1418.45 L 853.378 1336.35 C 865.881 1323.33 882.667 1307.25 894.238 1293.74 z"/>
<path transform="translate(0,0)" fill="rgb(254,254,254)" d="M 1484.41 485.781 C 1490.03 489.86 1505.03 505.825 1510.46 511.193 C 1524.7 525.278 1539.11 539.961 1552.91 554.481 L 1352.04 759.257 L 1351.74 759.393 C 1349.57 758.744 1349.85 756.524 1349.36 753.996 C 1343.41 723.553 1315.19 696.328 1285.06 690.353 C 1293.9 680.007 1306.92 667.377 1316.59 657.34 C 1338.41 634.452 1360.48 611.804 1382.8 589.401 C 1414.81 556.794 1451.58 516.774 1484.41 485.781 z"/>
<path transform="translate(0,0)" fill="rgb(254,254,254)" d="M 1341.37 387.336 C 1360.97 387.884 1373.83 396.965 1389.78 407.763 C 1409.78 421.292 1447.5 471.648 1425.15 494.371 C 1417.21 502.445 1354.34 567.381 1353.26 567.477 L 1352.66 564.702 C 1342 514.583 1304.99 477.965 1254.99 467.479 L 1302.95 418.52 C 1313.08 408.172 1327.43 390.316 1341.37 387.336 z"/>
<path transform="translate(0,0)" fill="rgb(254,254,254)" d="M 1549.95 613.08 C 1557.63 612.457 1564.03 612.703 1571.4 615.479 C 1605.07 628.169 1635.32 657.583 1644.39 692.985 C 1645.57 697.569 1646.53 709.394 1643.38 713.131 C 1620.28 740.481 1593.26 764.832 1569.07 791.312 C 1568.42 791.42 1567.78 791.529 1567.13 791.638 C 1557.62 742.14 1517.26 703.334 1468.65 692.156 C 1485.34 677.125 1536.38 619.905 1549.95 613.08 z"/>
<path transform="translate(0,0)" fill="rgb(254,254,254)" d="M 670.383 1307.45 C 674.299 1310.63 683.742 1325.58 688.387 1330.59 C 707.2 1350.85 729.512 1372.54 752.731 1387.47 C 738.765 1396.58 726.059 1403.86 711.509 1412.08 C 705.31 1415.43 696.775 1418.82 690.127 1421.67 C 669.889 1413.61 645.386 1398.61 640.328 1376.03 C 636.283 1357.98 660.939 1322.8 670.383 1307.45 z"/>
<path transform="translate(0,0)" fill="rgb(254,254,254)" d="M 694.879 1254.89 C 695.84 1255.94 695.573 1255.5 696.23 1256.97 C 712.25 1292.77 767.14 1346.08 803.164 1361.41 C 796.247 1368.18 790.575 1374.14 784.042 1381.26 C 780.626 1382.35 769.928 1377.4 766.613 1375.31 C 733.963 1354.81 687.235 1313.82 676.858 1276.04 C 682.908 1269.13 688.919 1261.9 694.879 1254.89 z"/>
<path transform="translate(0,0)" fill="rgb(254,254,254)" d="M 1513.15 460.975 C 1537.73 460.67 1562.94 489.863 1573.94 509.915 C 1578.43 518.105 1575.26 534.219 1565.94 539.072 L 1564.02 538.35 C 1542.15 516.125 1519.51 494.322 1498.04 471.844 C 1503.23 466.693 1506.62 464.173 1513.15 460.975 z"/>
<path transform="translate(0,0)" fill="rgb(254,254,254)" d="M 722.771 1477.81 C 725.114 1480.55 727.14 1487.6 729.53 1491.61 C 740.737 1510.42 752.107 1518.54 771.528 1526.88 C 768.476 1529.19 764.519 1531.53 761.235 1533.6 C 731.682 1543.67 699.374 1506.85 722.771 1477.81 z"/>
<path transform="translate(0,0)" fill="rgb(254,254,254)" d="M 537.215 1286.62 C 550.47 1312.94 559.765 1323.1 587.688 1333.44 C 584.381 1336.36 581.481 1338.21 577.855 1340.66 C 552.682 1350.41 524.019 1323.87 531.315 1298.12 C 532.513 1293.89 534.891 1290.29 537.215 1286.62 z"/>
<path transform="translate(0,0)" fill="rgb(254,254,254)" d="M 315.219 1477.4 C 318.302 1476.41 321.607 1478.09 322.61 1481.17 C 323.613 1484.25 321.937 1487.56 318.861 1488.58 C 315.769 1489.6 312.437 1487.91 311.429 1484.82 C 310.42 1481.72 312.119 1478.4 315.219 1477.4 z"/>
<path transform="translate(0,0)" fill="rgb(254,254,254)" d="M 421.469 1153.71 C 423.294 1152.96 425.377 1153.26 426.92 1154.49 C 428.463 1155.71 429.227 1157.67 428.919 1159.62 C 428.611 1161.56 427.278 1163.19 425.432 1163.88 C 422.636 1164.92 419.523 1163.52 418.44 1160.74 C 417.358 1157.96 418.706 1154.83 421.469 1153.71 z"/>
<path transform="translate(0,0)" fill="rgb(33,60,86)" d="M 971.598 1276.91 C 969.733 1274.07 968.884 1273.36 969.059 1269.97 C 972.476 1265.34 976.12 1267.93 979.231 1267 L 980.822 1268.63 C 979.574 1273.48 976.353 1273.74 972.943 1276.95 L 971.598 1276.91 z"/>
<path transform="translate(0,0)" fill="rgb(254,254,254)" d="M 1702.58 1511.47 C 1704.46 1510.76 1706.59 1511.22 1708.01 1512.64 C 1709.43 1514.07 1709.89 1516.19 1709.19 1518.07 C 1708.48 1519.96 1706.74 1521.25 1704.73 1521.39 C 1702.19 1521.56 1699.91 1519.85 1699.37 1517.36 C 1698.83 1514.87 1700.2 1512.36 1702.58 1511.47 z"/>
<path transform="translate(0,0)" fill="rgb(254,254,254)" d="M 660.068 1771.52 C 661.585 1770.43 663.581 1770.26 665.258 1771.09 C 666.934 1771.92 668.017 1773.6 668.073 1775.47 C 668.128 1777.34 667.148 1779.09 665.523 1780.01 C 663.189 1781.34 660.223 1780.61 658.77 1778.35 C 657.318 1776.09 657.888 1773.09 660.068 1771.52 z"/>
<path transform="translate(0,0)" fill="rgb(254,254,254)" d="M 1844.43 724.197 C 1846.9 723 1849.87 724.041 1851.05 726.517 C 1852.23 728.993 1851.16 731.955 1848.68 733.115 C 1846.22 734.263 1843.3 733.212 1842.13 730.763 C 1840.96 728.313 1841.99 725.382 1844.43 724.197 z"/>
<path transform="translate(0,0)" fill="rgb(171,178,197)" d="M 1590.1 407.544 C 1592.24 406.962 1594.49 408.064 1595.34 410.116 C 1596.19 412.169 1595.38 414.534 1593.45 415.639 C 1591.97 416.492 1590.12 416.408 1588.72 415.424 C 1587.32 414.44 1586.61 412.733 1586.91 411.046 C 1587.2 409.358 1588.45 407.993 1590.1 407.544 z"/>
<path transform="translate(0,0)" fill="rgb(171,178,197)" d="M 886.437 192.618 C 887.796 191.881 889.446 191.93 890.759 192.747 C 892.071 193.564 892.843 195.023 892.781 196.568 C 892.718 198.112 891.831 199.505 890.457 200.213 C 888.364 201.293 885.792 200.486 884.69 198.404 C 883.588 196.323 884.367 193.742 886.437 192.618 z"/>
<path transform="translate(0,0)" fill="rgb(254,254,254)" d="M 1300.21 212.498 C 1302.37 211.785 1304.72 212.898 1305.53 215.027 C 1306.35 217.156 1305.35 219.549 1303.26 220.464 C 1301.82 221.095 1300.15 220.882 1298.91 219.91 C 1297.67 218.938 1297.07 217.365 1297.34 215.815 C 1297.61 214.265 1298.72 212.991 1300.21 212.498 z"/>
<path transform="translate(0,0)" fill="rgb(254,254,254)" d="M 298.564 667.5 C 299.951 666.876 301.57 667.069 302.771 668.003 C 303.972 668.937 304.558 670.458 304.296 671.956 C 304.033 673.454 302.963 674.685 301.516 675.154 C 299.441 675.827 297.202 674.76 296.417 672.725 C 295.632 670.689 296.574 668.395 298.564 667.5 z"/>
</svg>