<svg version="1.1" xmlns="http://www.w3.org/2000/svg" style="display: block;" viewBox="0 0 2048 2048" width="2048" height="2048" preserveAspectRatio="none">
<defs>
	<linearGradient id="Gradient1" gradientUnits="userSpaceOnUse" x1="1405.93" y1="1274.02" x2="581.725" y2="827.652">
		<stop class="stop0" offset="0" stop-opacity="1" stop-color="rgb(209,207,213)"/>
		<stop class="stop1" offset="1" stop-opacity="1" stop-color="rgb(245,246,249)"/>
	</linearGradient>
</defs>
<path transform="translate(0,0)" fill="rgb(16,23,50)" d="M 0 0 L 2048 0 L 2048 2048 L 0 2048 L 0 0 z"/>
<path transform="translate(0,0)" fill="rgb(225,191,115)" d="M 981.16 279.491 L 981.96 277.556 C 1007.49 275.643 1038.53 273.855 1063.99 276.917 L 1062.98 277.17 C 1077.24 278.581 1089.93 277.426 1103.6 279.281 L 1105.6 279.54 C 1110.79 280.248 1111.53 280.343 1115.5 283.831 C 1121.85 284.707 1134.59 286.862 1140.49 287.12 C 1148.27 286.043 1161.64 285.502 1167.25 292.015 C 1172.45 293.161 1204.67 300.759 1207.44 300.92 C 1217.52 299.888 1259.08 309.929 1263.88 317.799 L 1264.57 317.995 C 1272.97 316.812 1281.25 318.616 1286.24 326.08 C 1326.04 342.061 1361.53 357.827 1398.69 379.793 C 1410.3 386.67 1421.72 393.859 1432.94 401.352 C 1437.2 404.158 1447.1 411.178 1451.15 413.364 C 1459.86 413.523 1462.34 414.841 1464.77 422.96 L 1465.95 424.066 C 1475.31 432.672 1490.43 442.499 1500.84 451.533 C 1537.79 483.616 1578.99 522.617 1608.14 562.072 C 1611.21 565.871 1614.99 570.193 1617.45 574.328 L 1617.81 574.762 C 1621.88 579.455 1626.57 585.485 1629.79 590.798 C 1635.7 597.827 1643.97 610.96 1649.07 618.831 C 1668.77 648.879 1686.34 680.264 1701.67 712.757 C 1710.05 717.493 1716 734.894 1715.33 744.222 C 1719.22 756.244 1724.87 769.014 1729.12 781.204 C 1734 795.174 1737.78 808.929 1742.29 822.916 C 1749.17 827.014 1748.99 837.104 1748.08 844.424 C 1748.86 848.44 1750.95 859.111 1752.45 862.806 C 1760.44 869.4 1763.19 901.917 1761.96 912.44 C 1763.07 923.641 1764.73 939.175 1766.61 950.122 C 1767.61 951.263 1769.42 953.208 1769.61 954.833 C 1773.92 991.237 1772.97 1029.41 1771.26 1066.02 C 1771.13 1068.73 1770.02 1071.02 1768.96 1073.34 C 1771.38 1082.13 1771.62 1085.6 1769.74 1094.87 C 1768.19 1096.6 1768.79 1096.18 1766.85 1097.37 C 1765.91 1100.75 1765.96 1101.34 1765.73 1104.74 C 1762.77 1130.9 1757.02 1168.83 1750.03 1194.32 C 1749.33 1197.32 1746.35 1209.12 1746.09 1211.55 C 1746.67 1218.91 1748.12 1227.09 1740.55 1231.38 C 1732.02 1253.17 1726.48 1275.89 1716.78 1299.48 C 1711.18 1312.87 1705.25 1326.11 1698.98 1339.19 C 1697.28 1342.81 1690.18 1357.19 1689.4 1359.88 C 1690.2 1366.93 1684.29 1381.74 1676.59 1383.32 C 1665.36 1402.73 1622.78 1473.49 1607.76 1485.11 C 1604.13 1490.38 1598.74 1497.14 1594.29 1501.75 C 1583.96 1515.26 1573.05 1526.31 1561.32 1538.48 C 1558.1 1541.82 1545.79 1553.85 1543.83 1556.96 C 1540.66 1565.16 1536.2 1569.47 1528.02 1571.78 C 1522.84 1575.58 1517.21 1580.59 1512.38 1584.99 C 1479.31 1615.08 1443.15 1639.77 1405.31 1663.55 C 1401.5 1671.75 1398.73 1672.45 1390 1672.55 C 1381.38 1676.96 1350.27 1694.72 1343.19 1696.68 C 1335.99 1700.63 1327.7 1704.39 1320.07 1707.56 C 1299.96 1716.58 1279.4 1724.6 1258.49 1731.58 C 1251.47 1733.92 1231.98 1739.02 1226.32 1741.84 C 1222.58 1748.61 1209.67 1748.89 1202.9 1748.11 C 1198.66 1749.06 1189.85 1750.83 1186.16 1752.16 C 1180.2 1759.18 1172.04 1758.14 1163.72 1756.85 C 1142.24 1760.66 1122.92 1763.95 1101.25 1766.23 C 1090.62 1775.45 1042.32 1770.37 1026.37 1771.54 C 1025.24 1771.63 1023.25 1771.28 1022.35 1770.48 C 1002.48 1770.12 983.151 1768.44 963.451 1767.89 C 955.472 1769.04 937.618 1770.88 931.773 1764.63 C 930.679 1764.16 928.677 1764.1 927.354 1763.96 C 918.538 1764.94 899.025 1766.43 893.757 1758.57 C 886.736 1755.43 851.739 1749.07 842.305 1747.13 C 833.535 1748.12 816.336 1745.92 811.109 1738.08 C 790.117 1731.52 741.551 1715.4 722.848 1704.76 C 712.036 1700.97 696.927 1693.07 686.997 1687.6 C 682.718 1686.01 666.817 1677.07 662.52 1674.64 C 621.274 1651.44 582.297 1624.42 546.102 1593.94 C 537.159 1586.46 523.697 1575.28 515.877 1566.74 C 511.615 1563.22 508.914 1560.02 504.064 1556.32 C 497.618 1556.94 491.791 1550.49 491.708 1544.11 L 492.034 1543.27 C 487.51 1539.73 483.1 1534.49 479.318 1530.12 C 467.635 1518.89 458.599 1506.39 447.748 1494.83 C 439.966 1494.21 437.368 1489.44 437.383 1482.07 C 428.632 1469.45 417.901 1455.53 408.623 1443.17 C 401.788 1442.08 394.358 1428.79 394.448 1422.07 C 394.104 1421.2 393.453 1420.63 392.779 1419.85 C 386.716 1419.37 382.608 1415.29 386.874 1409.34 C 378.634 1395.9 371.063 1381.97 363.419 1368.17 C 356.484 1365.02 354.035 1359.84 354.939 1352.45 L 355.288 1351.65 C 351.71 1345.61 346.574 1333.92 343.386 1327.22 L 339.708 1325.15 C 334.843 1317.98 328.177 1301.85 328.692 1292.79 C 320.836 1270.46 313.916 1248.24 306.263 1226.34 C 298.699 1221.98 297.106 1202.89 297.884 1194.87 C 295.71 1183.54 292.163 1164.2 289.212 1153.37 C 281.257 1146.54 283.284 1130.2 284.053 1120.57 C 283.811 1115.76 283.28 1111.18 282.77 1106.39 L 281.762 1098.49 C 273.534 1089.47 272.533 987.347 279.279 975.74 C 280.376 971.846 281.833 948.625 282.093 943.531 C 280.812 932.527 280.124 912.36 287.829 903.737 C 290.041 890.869 292.982 872.989 296.855 860.7 L 296.306 859.991 C 293.803 853.648 299.433 831.272 304.001 828.038 L 304.909 828.356 C 306.972 815.741 315.338 792.12 319.654 779.708 C 335.512 734.743 355.475 691.334 379.29 650.028 C 387.145 636.413 396.65 623.438 404.52 609.925 C 404.331 603.077 405.339 599.212 412.653 597.937 C 426.391 581.354 440.871 560.489 455.239 542.726 C 455.503 535.385 457.35 532.259 464.993 531.19 C 474.675 522.571 490.634 504.013 501.319 493.546 C 510.968 484.094 530.753 467.244 538.16 458.919 C 538.745 455.398 538.72 455.637 540.688 452.626 C 543.788 450.57 544.545 450.719 548.177 450.365 C 550.373 449.529 567.73 435.37 570.544 433.128 C 587.111 419.928 604.411 408.66 621.787 396.637 C 623.959 387.774 627.8 387.006 636.053 387.771 C 645.193 382.301 654.41 376.961 663.701 371.751 C 672.029 367.033 680.502 362.576 689.109 358.389 C 706.635 347.547 738.25 336.557 757.622 327.424 C 764.869 319.683 770.65 317.924 781.285 318.771 C 784.278 318.216 800.742 312.485 803.617 311.322 C 810.61 303.811 819.495 302.632 829.305 303.969 C 840.746 301.003 852.237 298.235 863.774 295.667 C 902.408 286.685 941.647 282.137 981.16 279.491 z"/>
<path transform="translate(0,0)" fill="rgb(221,191,123)" d="M 287.829 903.737 C 290.041 890.869 292.982 872.989 296.855 860.7 C 298.197 866.871 286.503 927.501 285.279 940.467 C 281.954 975.68 280.853 1012.08 281.078 1047.43 C 281.202 1066.77 285.596 1087.19 282.77 1106.39 L 281.762 1098.49 C 273.534 1089.47 272.533 987.347 279.279 975.74 C 280.376 971.846 281.833 948.625 282.093 943.531 C 280.812 932.527 280.124 912.36 287.829 903.737 z"/>
<path transform="translate(0,0)" fill="rgb(26,32,54)" d="M 281.762 1098.49 C 273.534 1089.47 272.533 987.347 279.279 975.74 C 277.45 1021.46 277.522 1052.41 281.762 1098.49 z"/>
<path transform="translate(0,0)" fill="rgb(26,32,54)" d="M 282.093 943.531 C 280.812 932.527 280.124 912.36 287.829 903.737 C 286.049 915.407 284.258 932.699 282.093 943.531 z"/>
<path transform="translate(0,0)" fill="rgb(221,191,123)" d="M 981.16 279.491 L 981.96 277.556 C 1007.49 275.643 1038.53 273.855 1063.99 276.917 L 1062.98 277.17 C 1077.24 278.581 1089.93 277.426 1103.6 279.281 L 1105.6 279.54 C 1110.79 280.248 1111.53 280.343 1115.5 283.831 C 1121.85 284.707 1134.59 286.862 1140.49 287.12 L 1147.26 288.535 C 1140.76 290.159 1132.73 288.553 1126.02 287.545 C 1111.21 285.319 1096.8 284.922 1081.87 284.256 L 1083.38 282.614 C 1082.78 282.191 1082.17 281.769 1081.57 281.346 C 1058.61 283.706 1025.65 277.057 1003.91 280.901 L 1007.15 281.751 C 985.544 284.505 963.811 282.663 941.514 284.936 C 924.397 286.68 877.713 298.76 863.774 295.667 C 902.408 286.685 941.647 282.137 981.16 279.491 z"/>
<path transform="translate(0,0)" fill="rgb(26,32,54)" d="M 981.16 279.491 L 981.96 277.556 C 1007.49 275.643 1038.53 273.855 1063.99 276.917 L 1062.98 277.17 C 1077.24 278.581 1089.93 277.426 1103.6 279.281 L 1105.6 279.54 C 1110.79 280.248 1111.53 280.343 1115.5 283.831 C 1074.82 278.057 1021.95 277.185 981.16 279.491 z"/>
<path transform="translate(0,0)" fill="rgb(26,32,54)" d="M 1766.61 950.122 C 1767.61 951.263 1769.42 953.208 1769.61 954.833 C 1773.92 991.237 1772.97 1029.41 1771.26 1066.02 C 1771.13 1068.73 1770.02 1071.02 1768.96 1073.34 C 1768.52 1065.74 1769.56 1050.35 1769.83 1042.22 C 1770.4 1026.71 1770.32 1011.19 1769.59 995.688 C 1768.94 980.684 1767.7 965.13 1766.61 950.122 z"/>
<path transform="translate(0,0)" fill="rgb(221,191,123)" d="M 1769.59 995.688 L 1767.96 995.375 C 1765.8 988.101 1767.25 986.626 1766.41 980.526 C 1764.61 967.12 1763.84 953.698 1762.66 940.233 C 1761.32 924.967 1754.02 902.375 1757.37 887.699 C 1758.77 895.358 1760.25 905.008 1761.96 912.44 C 1763.07 923.641 1764.73 939.175 1766.61 950.122 C 1767.7 965.13 1768.94 980.684 1769.59 995.688 z"/>
<path transform="translate(0,0)" fill="rgb(221,191,123)" d="M 1750.03 1194.32 L 1748.96 1191.6 C 1750.73 1177.74 1760.53 1111.42 1765.73 1104.74 C 1762.77 1130.9 1757.02 1168.83 1750.03 1194.32 z"/>
<path transform="translate(0,0)" fill="rgb(26,32,54)" d="M 1101.25 1766.23 C 1090.62 1775.45 1042.32 1770.37 1026.37 1771.54 C 1025.24 1771.63 1023.25 1771.28 1022.35 1770.48 C 1050.58 1770.03 1073.18 1768.99 1101.25 1766.23 z"/>
<path transform="translate(0,0)" fill="rgb(26,32,54)" d="M 1207.44 300.92 C 1217.52 299.888 1259.08 309.929 1263.88 317.799 C 1246.96 313.553 1225.06 305.962 1207.44 300.92 z"/>
<path transform="translate(0,0)" fill="rgb(221,191,123)" d="M 319.654 779.708 C 322.544 789.496 310.167 816.445 306.741 827.918 L 304.909 828.356 C 306.972 815.741 315.338 792.12 319.654 779.708 z"/>
<path transform="translate(0,0)" fill="rgb(26,32,54)" d="M 1752.45 862.806 C 1760.44 869.4 1763.19 901.917 1761.96 912.44 C 1760.25 905.008 1758.77 895.358 1757.37 887.699 C 1755.59 879.429 1753.95 871.13 1752.45 862.806 z"/>
<path transform="translate(0,0)" fill="rgb(221,191,123)" d="M 686.997 1687.6 C 695.844 1687.44 717.557 1697.37 722.848 1704.76 C 712.036 1700.97 696.927 1693.07 686.997 1687.6 z"/>
<path transform="translate(0,0)" fill="rgb(221,191,123)" d="M 340.514 1320.44 C 347.787 1323.04 356.033 1343.57 355.288 1351.65 C 351.71 1345.61 346.574 1333.92 343.386 1327.22 L 340.514 1320.44 z"/>
<path transform="translate(0,0)" fill="rgb(26,32,54)" d="M 328.692 1292.79 L 340.514 1320.44 L 343.386 1327.22 L 339.708 1325.15 C 334.843 1317.98 328.177 1301.85 328.692 1292.79 z"/>
<path transform="translate(0,0)" fill="rgb(26,32,54)" d="M 1701.67 712.757 C 1710.05 717.493 1716 734.894 1715.33 744.222 C 1710.77 735.081 1705.72 722.354 1701.67 712.757 z"/>
<path transform="translate(0,0)" fill="rgb(221,191,123)" d="M 689.109 358.389 C 685.093 366.104 672.681 374.222 663.701 371.751 C 672.029 367.033 680.502 362.576 689.109 358.389 z"/>
<path transform="translate(0,0)" fill="rgb(26,32,54)" d="M 893.757 1758.57 C 902.566 1759.75 918.855 1761.99 927.354 1763.96 C 918.538 1764.94 899.025 1766.43 893.757 1758.57 z"/>
<path transform="translate(0,0)" fill="rgb(26,32,54)" d="M 296.306 859.991 C 293.803 853.648 299.433 831.272 304.001 828.038 C 303.241 835.114 298.434 852.599 296.306 859.991 z"/>
<path transform="translate(0,0)" fill="rgb(26,32,54)" d="M 284.053 1120.57 C 285.744 1130.17 288.17 1143.76 289.212 1153.37 C 281.257 1146.54 283.284 1130.2 284.053 1120.57 z"/>
<path transform="translate(0,0)" fill="rgb(26,32,54)" d="M 811.109 1738.08 C 820.994 1740.92 832.646 1743.99 842.305 1747.13 C 833.535 1748.12 816.336 1745.92 811.109 1738.08 z"/>
<path transform="translate(0,0)" fill="rgb(26,32,54)" d="M 297.884 1194.87 C 300.74 1205.35 303.533 1215.83 306.263 1226.34 C 298.699 1221.98 297.106 1202.89 297.884 1194.87 z"/>
<path transform="translate(0,0)" fill="rgb(221,191,123)" d="M 1320.07 1707.56 C 1321.74 1699.59 1336.15 1696.28 1343.19 1696.68 C 1335.99 1700.63 1327.7 1704.39 1320.07 1707.56 z"/>
<path transform="translate(0,0)" fill="rgb(26,32,54)" d="M 1676.59 1383.32 C 1680.7 1375.42 1684.97 1367.61 1689.4 1359.88 C 1690.2 1366.93 1684.29 1381.74 1676.59 1383.32 z"/>
<path transform="translate(0,0)" fill="rgb(26,32,54)" d="M 931.773 1764.63 C 939.345 1765.31 956.207 1766.52 963.451 1767.89 C 955.472 1769.04 937.618 1770.88 931.773 1764.63 z"/>
<path transform="translate(0,0)" fill="rgb(26,32,54)" d="M 1766.85 1097.37 C 1766.88 1093.2 1767.61 1076.57 1768.96 1073.34 C 1771.38 1082.13 1771.62 1085.6 1769.74 1094.87 C 1768.19 1096.6 1768.79 1096.18 1766.85 1097.37 z"/>
<path transform="translate(0,0)" fill="rgb(26,32,54)" d="M 803.617 311.322 C 810.61 303.811 819.495 302.632 829.305 303.969 C 821.774 306.164 811.017 309.67 803.617 311.322 z"/>
<path transform="translate(0,0)" fill="rgb(26,32,54)" d="M 394.448 1422.07 C 399.345 1428.99 404.071 1436.02 408.623 1443.17 C 401.788 1442.08 394.358 1428.79 394.448 1422.07 z"/>
<path transform="translate(0,0)" fill="rgb(26,32,54)" d="M 757.622 327.424 C 764.869 319.683 770.65 317.924 781.285 318.771 C 773.99 321.538 764.956 325.247 757.622 327.424 z"/>
<path transform="translate(0,0)" fill="rgb(26,32,54)" d="M 1264.57 317.995 C 1272.97 316.812 1281.25 318.616 1286.24 326.08 C 1278.66 323.451 1271.98 321.03 1264.57 317.995 z"/>
<path transform="translate(0,0)" fill="rgb(26,32,54)" d="M 1140.49 287.12 C 1148.27 286.043 1161.64 285.502 1167.25 292.015 L 1147.26 288.535 L 1140.49 287.12 z"/>
<path transform="translate(0,0)" fill="rgb(221,191,123)" d="M 1617.81 574.762 C 1621.88 579.455 1626.57 585.485 1629.79 590.798 C 1622.09 587.756 1617.43 583.218 1617.81 574.762 z"/>
<path transform="translate(0,0)" fill="rgb(26,32,54)" d="M 1202.9 1748.11 C 1210.09 1745.88 1218.92 1743.8 1226.32 1741.84 C 1222.58 1748.61 1209.67 1748.89 1202.9 1748.11 z"/>
<path transform="translate(0,0)" fill="rgb(221,191,123)" d="M 479.318 1530.12 C 485.678 1532.06 488.351 1533.6 492.264 1539.01 L 492.034 1543.27 C 487.51 1539.73 483.1 1534.49 479.318 1530.12 z"/>
<path transform="translate(0,0)" fill="rgb(26,32,54)" d="M 1163.72 1756.85 L 1186.16 1752.16 C 1180.2 1759.18 1172.04 1758.14 1163.72 1756.85 z"/>
<path transform="translate(0,0)" fill="rgb(26,32,54)" d="M 491.708 1544.11 C 494.503 1546.4 501.889 1553.56 503.838 1554.85 L 504.064 1556.32 C 497.618 1556.94 491.791 1550.49 491.708 1544.11 z"/>
<path transform="translate(0,0)" fill="rgb(221,191,123)" d="M 1594.29 1501.75 C 1597.15 1491.73 1597.99 1489.98 1607.76 1485.11 C 1604.13 1490.38 1598.74 1497.14 1594.29 1501.75 z"/>
<path transform="translate(0,0)" fill="rgb(26,32,54)" d="M 1742.29 822.916 C 1749.17 827.014 1748.99 837.104 1748.08 844.424 C 1745.8 837.377 1744.09 830.109 1742.29 822.916 z"/>
<path transform="translate(0,0)" fill="rgb(26,32,54)" d="M 1528.02 1571.78 C 1532.46 1566.75 1538.66 1561.23 1543.83 1556.96 C 1540.66 1565.16 1536.2 1569.47 1528.02 1571.78 z"/>
<path transform="translate(0,0)" fill="rgb(26,32,54)" d="M 1740.55 1231.38 C 1741.99 1224.65 1744.1 1218.13 1746.09 1211.55 C 1746.67 1218.91 1748.12 1227.09 1740.55 1231.38 z"/>
<path transform="translate(0,0)" fill="rgb(221,191,123)" d="M 503.838 1554.85 C 511.426 1554.55 513.975 1559.94 515.877 1566.74 C 511.615 1563.22 508.914 1560.02 504.064 1556.32 L 503.838 1554.85 z"/>
<path transform="translate(0,0)" fill="rgb(26,32,54)" d="M 621.787 396.637 C 623.959 387.774 627.8 387.006 636.053 387.771 L 621.787 396.637 z"/>
<path transform="translate(0,0)" fill="rgb(26,32,54)" d="M 437.383 1482.07 C 441.172 1486.48 444.295 1490.13 447.748 1494.83 C 439.966 1494.21 437.368 1489.44 437.383 1482.07 z"/>
<path transform="translate(0,0)" fill="rgb(26,32,54)" d="M 354.939 1352.45 C 358.292 1357.48 360.735 1362.76 363.419 1368.17 C 356.484 1365.02 354.035 1359.84 354.939 1352.45 z"/>
<path transform="translate(0,0)" fill="rgb(26,32,54)" d="M 1451.15 413.364 C 1459.86 413.523 1462.34 414.841 1464.77 422.96 C 1460.11 420.213 1455.53 416.605 1451.15 413.364 z"/>
<path transform="translate(0,0)" fill="rgb(26,32,54)" d="M 1405.31 1663.55 C 1401.5 1671.75 1398.73 1672.45 1390 1672.55 C 1394.2 1669.74 1400.77 1666.18 1405.31 1663.55 z"/>
<path transform="translate(0,0)" fill="rgb(221,191,123)" d="M 1608.14 562.072 C 1611.21 565.871 1614.99 570.193 1617.45 574.328 C 1613.64 573.503 1613.78 573.457 1610.67 571.485 C 1608.34 568.407 1608.53 565.952 1608.14 562.072 z"/>
<path transform="translate(0,0)" fill="rgb(26,32,54)" d="M 386.874 1409.34 C 388.615 1412.31 391.462 1416.84 392.779 1419.85 C 386.716 1419.37 382.608 1415.29 386.874 1409.34 z"/>
<path transform="translate(0,0)" fill="rgb(26,32,54)" d="M 455.239 542.726 C 455.503 535.385 457.35 532.259 464.993 531.19 C 461.503 535.69 459.173 538.526 455.239 542.726 z"/>
<path transform="translate(0,0)" fill="rgb(26,32,54)" d="M 404.52 609.925 C 404.331 603.077 405.339 599.212 412.653 597.937 C 410.302 601.541 407.153 606.706 404.52 609.925 z"/>
<path transform="translate(0,0)" fill="rgb(26,32,54)" d="M 538.16 458.919 C 538.745 455.398 538.72 455.637 540.688 452.626 C 543.788 450.57 544.545 450.719 548.177 450.365 C 544.453 454.011 542.59 455.979 538.16 458.919 z"/>
<path transform="translate(0,0)" fill="rgb(16,23,50)" d="M 888.145 343.435 C 1077.59 309.194 1258.8 343.053 1418.19 453.607 C 1570.49 558.809 1674.5 720.44 1707.14 902.635 C 1708.43 909.822 1712.21 942.913 1713.84 946.727 C 1726.06 963.691 1719.71 1130.67 1707.15 1145.26 C 1702.33 1171.82 1695.99 1198.09 1688.14 1223.93 C 1686.19 1230.4 1675.79 1259.53 1675.28 1262.62 C 1676.14 1271.29 1673.46 1282.56 1665.59 1287.25 C 1648.79 1324.93 1623.95 1376.91 1599.23 1410.06 C 1593.95 1418.1 1561.98 1462.66 1555.79 1467.23 C 1544.04 1482.52 1524.03 1503.88 1509.97 1517.18 C 1505.88 1521.35 1486.26 1540.41 1482.03 1543.18 C 1440.47 1581.56 1383.1 1618.18 1332.91 1643.93 C 1326.13 1647.41 1308.12 1656.47 1301.08 1658.73 C 1296.67 1661.37 1293.03 1662.58 1288.26 1664.42 C 1229.81 1688.86 1168.33 1705.3 1105.48 1713.3 C 1097.65 1720.3 1060.52 1719.63 1049.73 1717.88 C 1037.72 1716.84 1016.36 1718.38 1002.8 1717.82 C 984.118 1717.06 966.553 1714.95 948.203 1713.93 C 941.531 1714.97 912.525 1714.75 910.119 1708.42 C 887.589 1703.99 862.725 1697.08 841.494 1693.2 C 834.345 1694.19 815.349 1690.32 811.703 1683.85 C 810.513 1683.21 794.158 1677.55 791.971 1676.76 C 779.639 1672.35 767.413 1667.65 755.304 1662.66 C 748.033 1664.24 736.218 1660.21 734.08 1653.29 C 712.499 1642.37 694.591 1633.78 673.79 1621.21 C 670.932 1620.08 657.314 1611.55 654.206 1609.53 C 638.286 1599.25 622.729 1588.41 607.562 1577.04 C 599.982 1571.3 588.533 1561.39 581.105 1556.62 C 571.658 1556.48 567.547 1549.99 564.2 1542.07 C 561.864 1538.83 537.455 1516.88 532.172 1511.31 C 504.261 1481.9 457.944 1430.35 439.296 1394.97 C 431.689 1384.93 420.066 1363.72 413.994 1352.51 C 376.21 1283.19 350.654 1207.88 338.449 1129.88 C 333.45 1098.09 333.406 1074.62 330.068 1044.97 C 326.3 1039.55 329.345 979.175 328.771 968.43 C 328.542 964.146 331.759 947.542 334.863 943.753 C 344.718 861.368 369.125 781.387 406.946 707.536 C 471.659 582.514 572.459 479.833 696.262 412.819 C 742.703 388.054 780.668 373.507 830.234 357.582 C 830.384 356.336 830.225 357.17 831.105 355.188 C 846.21 349.086 872.15 339.696 888.145 343.435 z"/>
<path transform="translate(0,0)" fill="rgb(26,32,54)" d="M 888.145 343.435 C 1077.59 309.194 1258.8 343.053 1418.19 453.607 C 1570.49 558.809 1674.5 720.44 1707.14 902.635 C 1708.43 909.822 1712.21 942.913 1713.84 946.727 C 1726.06 963.691 1719.71 1130.67 1707.15 1145.26 C 1702.33 1171.82 1695.99 1198.09 1688.14 1223.93 C 1686.19 1230.4 1675.79 1259.53 1675.28 1262.62 C 1676.14 1271.29 1673.46 1282.56 1665.59 1287.25 C 1648.79 1324.93 1623.95 1376.91 1599.23 1410.06 L 1599.34 1408.54 C 1599.77 1401.41 1618.58 1378.24 1622.25 1369.54 C 1627.59 1356.88 1634.08 1341.54 1641.01 1329.64 L 1642.74 1330.1 C 1645.83 1327.87 1668.27 1274.69 1669.96 1266.23 C 1670.42 1263.91 1675.97 1254.14 1677.04 1250.76 C 1679.92 1241.62 1682.35 1232.05 1685.15 1222.84 C 1686.42 1218.68 1688.86 1214.48 1690.08 1210.3 C 1692.41 1202.29 1693.45 1193.13 1695.91 1185.23 C 1697.46 1180.26 1697.45 1182.95 1697.58 1177.18 C 1697.82 1167.26 1695.41 1162.08 1701.72 1153.83 C 1702.62 1152.67 1704.66 1148.83 1704.89 1147.16 C 1708.49 1120.31 1714.03 1090.92 1713.39 1063.95 L 1713.15 1064.06 C 1713.32 1060.07 1713.41 1056.56 1713.93 1052.68 C 1717.55 1025.65 1714.34 943.874 1707.33 920.268 L 1706.71 920.408 C 1707.35 923.949 1708.29 927.559 1707.82 931.077 C 1701.8 927.149 1705.37 902.987 1703.93 897.786 C 1702.52 892.707 1700.86 874.754 1697.98 871.843 C 1697.73 880.565 1703.62 888.43 1701.59 894.056 C 1696.74 888.653 1690.81 837.495 1687.36 827.782 C 1685.86 823.558 1683.89 817.036 1682.5 812.575 L 1680.81 814.213 L 1680.13 813.78 L 1682.08 813.234 L 1681.09 814.196 C 1675.52 809.933 1679.86 801.328 1674.93 790.564 C 1667.61 774.568 1662.63 757.245 1654.4 741.047 C 1653.88 743.563 1654.53 743.007 1653.11 744.009 C 1648.33 732.941 1645.15 720.763 1640.02 710.028 C 1631.72 692.637 1582.37 609.428 1570.73 603.192 C 1562.52 598.792 1561.53 588.681 1555.75 581.726 C 1550.86 575.824 1544.74 570.794 1539.55 565.129 C 1536.73 562.048 1534.72 558.34 1531.72 555.414 C 1522.73 546.643 1512.31 539.145 1503.33 530.3 C 1499.63 526.664 1499.09 520.381 1494.9 517.696 C 1486.05 512.026 1477.97 503.404 1469.91 496.54 C 1457.45 486.024 1444.67 475.888 1431.6 466.146 C 1372.37 422.377 1306.34 388.663 1236.16 366.357 C 1205.84 356.413 1173.62 347.449 1142 342.438 C 1130.67 340.641 1110.8 336.795 1099.59 336.58 C 1082.63 336.253 1069.86 336.115 1052.37 331.983 C 1048.45 331.13 1037.1 335.254 1033.15 334.841 C 1010.84 332.505 988.401 332.596 966.143 334.984 C 955.182 336.627 934.885 334.533 928.954 342.447 L 927.055 342.544 L 924.766 339.649 C 920.457 340.152 919.142 343.836 912.598 345.153 L 911.93 344.383 L 912.697 342.545 C 907.724 341.995 907.146 342.056 902.736 344.4 L 904.037 344.216 C 891.868 349.705 887.734 344.63 880.933 347.442 C 871.84 351.202 856.328 349.771 851.044 356.324 C 847.326 360.934 841.834 356.542 837.507 357.801 C 835.694 358.329 831.991 360.414 829.135 361.07 C 809.251 365.634 790.898 372.893 772.092 380.858 L 773.397 380.725 C 763.709 385.647 748.301 389.869 738.674 394.981 C 719.446 405.19 711.564 412.156 691.158 419.453 C 675.835 424.931 637.945 451.346 623.559 461.413 C 567.959 500.446 518.553 548.604 477.12 602.395 C 468.97 612.976 465.629 623.844 455.032 633.689 C 451.959 636.544 443.73 648.938 441.127 653.119 C 419.507 687.853 400.522 724.405 384.327 761.983 C 374.354 785.338 366.409 811.688 358.958 835.971 C 356.62 843.591 354.696 859.809 351.928 865.555 C 343.786 882.456 346.434 900.166 344.065 916.567 C 343.606 916.743 343.137 916.896 342.687 917.095 C 337.63 919.333 340.228 931.9 338.47 936.879 C 333.918 949.766 337.971 964.451 334.385 977.628 C 334.235 978.181 333.848 979.465 333.737 980.048 C 331.162 993.56 334.114 1009.11 334.479 1022.75 C 334.763 1033.42 332.805 1044.12 333.109 1054.94 C 333.508 1069.12 342.18 1155.66 347.306 1163.14 C 349.143 1165.82 350.352 1168.41 351.184 1171.58 C 353.228 1179.36 352.589 1187.53 354.153 1195.34 C 357.049 1209.79 362.707 1225.05 367.202 1239.13 C 378.045 1273.11 392.858 1306.34 409.194 1337.99 C 412.636 1344.66 438.789 1389.32 439.181 1391.24 C 439.429 1392.46 439.258 1393.73 439.296 1394.97 C 431.689 1384.93 420.066 1363.72 413.994 1352.51 C 376.21 1283.19 350.654 1207.88 338.449 1129.88 C 333.45 1098.09 333.406 1074.62 330.068 1044.97 C 326.3 1039.55 329.345 979.175 328.771 968.43 C 328.542 964.146 331.759 947.542 334.863 943.753 C 344.718 861.368 369.125 781.387 406.946 707.536 C 471.659 582.514 572.459 479.833 696.262 412.819 C 742.703 388.054 780.668 373.507 830.234 357.582 C 830.384 356.336 830.225 357.17 831.105 355.188 C 846.21 349.086 872.15 339.696 888.145 343.435 z"/>
<path transform="translate(0,0)" fill="rgb(221,191,123)" d="M 1713.84 946.727 C 1726.06 963.691 1719.71 1130.67 1707.15 1145.26 C 1720.41 1067.05 1719.62 1023.92 1713.84 946.727 z"/>
<path transform="translate(0,0)" fill="rgb(221,191,123)" d="M 330.068 1044.97 C 326.3 1039.55 329.345 979.175 328.771 968.43 C 328.542 964.146 331.759 947.542 334.863 943.753 C 332.472 964.935 330.962 986.206 330.335 1007.51 C 329.992 1019.88 330.586 1032.87 330.068 1044.97 z"/>
<path transform="translate(0,0)" fill="rgb(221,191,123)" d="M 830.234 357.582 C 830.384 356.336 830.225 357.17 831.105 355.188 C 846.21 349.086 872.15 339.696 888.145 343.435 C 868.104 347.731 850.015 352.613 830.234 357.582 z"/>
<path transform="translate(0,0)" fill="rgb(221,191,123)" d="M 1665.59 1287.25 C 1668.73 1279.01 1671.96 1270.8 1675.28 1262.62 C 1676.14 1271.29 1673.46 1282.56 1665.59 1287.25 z"/>
<path transform="translate(0,0)" fill="rgb(26,32,54)" d="M 673.79 1621.21 C 674.844 1621.11 675.897 1620.81 676.952 1620.9 C 680.106 1621.18 724.826 1645.84 733.31 1649.47 C 761.262 1661.43 790.385 1670.99 819.003 1681.2 C 827.431 1684.2 835.859 1688.88 844.296 1691.39 C 850.818 1693.34 866.485 1697.67 872.689 1697.01 C 877.942 1696.44 903.825 1702.58 913.091 1703.67 C 914.952 1703.89 916.565 1704.77 918.247 1705.54 C 916.089 1706.6 914.734 1705.64 911.69 1704.95 C 926.743 1712.91 1032.95 1716.9 1053.51 1714.63 L 1049.47 1714.23 C 1059.86 1712.69 1068.49 1711.43 1079.02 1712.47 L 1078.51 1712.68 C 1083.52 1712.65 1090.48 1712.82 1095.31 1712.31 L 1094.79 1711.44 C 1091.43 1711.58 1088.34 1711.73 1084.98 1711.66 L 1085.48 1710.56 L 1087.22 1710.48 C 1098.75 1709.91 1115.32 1703.91 1125.51 1708.89 C 1121.39 1709.24 1161.07 1701.66 1159.58 1702.27 C 1189.71 1689.86 1226.08 1685.94 1256.65 1674.11 C 1264.45 1671.1 1283.58 1662.92 1288.26 1664.42 C 1229.81 1688.86 1168.33 1705.3 1105.48 1713.3 C 1097.65 1720.3 1060.52 1719.63 1049.73 1717.88 C 1037.72 1716.84 1016.36 1718.38 1002.8 1717.82 C 984.118 1717.06 966.553 1714.95 948.203 1713.93 C 941.531 1714.97 912.525 1714.75 910.119 1708.42 C 887.589 1703.99 862.725 1697.08 841.494 1693.2 C 834.345 1694.19 815.349 1690.32 811.703 1683.85 C 810.513 1683.21 794.158 1677.55 791.971 1676.76 C 779.639 1672.35 767.413 1667.65 755.304 1662.66 C 748.033 1664.24 736.218 1660.21 734.08 1653.29 C 712.499 1642.37 694.591 1633.78 673.79 1621.21 z"/>
<path transform="translate(0,0)" fill="rgb(221,191,123)" d="M 1105.48 1713.3 C 1097.65 1720.3 1060.52 1719.63 1049.73 1717.88 C 1068.28 1715.99 1086.45 1715.39 1105.48 1713.3 z"/>
<path transform="translate(0,0)" fill="rgb(221,191,123)" d="M 910.119 1708.42 C 921.375 1709.91 937.429 1711.72 948.203 1713.93 C 941.531 1714.97 912.525 1714.75 910.119 1708.42 z"/>
<path transform="translate(0,0)" fill="rgb(221,191,123)" d="M 811.703 1683.85 C 820.509 1686.55 833.169 1690 841.494 1693.2 C 834.345 1694.19 815.349 1690.32 811.703 1683.85 z"/>
<path transform="translate(0,0)" fill="rgb(221,191,123)" d="M 755.304 1662.66 C 748.033 1664.24 736.218 1660.21 734.08 1653.29 L 755.304 1662.66 z"/>
<path transform="translate(0,0)" fill="rgb(26,32,54)" d="M 1301.08 1658.73 C 1308.39 1648.94 1369.5 1627.18 1379.62 1612.57 C 1380.19 1611.75 1400.17 1602.43 1400.25 1602.27 C 1407.43 1588.41 1422.46 1589.26 1432.92 1579.38 C 1446.13 1569.21 1461.73 1551.61 1475.57 1543.9 C 1478.17 1543.92 1479.49 1543.59 1482.03 1543.18 C 1440.47 1581.56 1383.1 1618.18 1332.91 1643.93 C 1326.13 1647.41 1308.12 1656.47 1301.08 1658.73 z"/>
<path transform="translate(0,0)" fill="rgb(26,32,54)" d="M 1509.97 1517.18 L 1509.77 1514.7 C 1519.43 1503.98 1539.35 1475.47 1550.82 1469.7 L 1555.79 1467.23 C 1544.04 1482.52 1524.03 1503.88 1509.97 1517.18 z"/>
<path transform="translate(0,0)" fill="rgb(221,191,123)" d="M 564.2 1542.07 C 569.155 1546.19 576.821 1552.21 581.105 1556.62 C 571.658 1556.48 567.547 1549.99 564.2 1542.07 z"/>
<path transform="translate(0,0)" fill="url(#Gradient1)" d="M 553.342 876.066 C 553.147 875.392 552.952 874.719 552.757 874.045 C 556.527 861.913 611.763 857.319 625.714 855.283 L 771.906 833.781 C 774.197 833.428 776.098 832.082 777.719 830.499 C 779.639 831.216 781.211 831.744 783.17 832.345 L 784.813 831.399 C 785.948 829.231 786.032 829.147 787.422 827.184 C 795.068 826.707 817.851 824.571 823.652 821.415 C 831.677 817.047 840.923 823.863 847.387 820.346 C 855.208 816.091 870.393 800.3 873.585 792.435 C 872.525 790.188 872.717 791.072 872.62 788.575 C 876.579 786.926 877.762 786.776 880.508 783.694 C 880.165 780.625 879.761 779.91 881.036 777.129 C 882.565 778.496 881.684 778.106 883.654 778.352 L 886.46 774.447 L 890.644 774.323 C 896.537 764.24 901.338 754.016 906.6 743.686 C 910.462 736.105 905.583 730.688 908.651 725.224 L 910.301 726.174 C 913.1 725.172 921.304 702.816 926.757 700.845 C 927.773 700.477 929.235 698.442 929.705 697.242 L 928.115 696.361 C 935.518 688.595 945.252 667.022 950.708 656.211 L 986.24 586.36 C 990.227 578.518 1007.4 538.728 1015.98 541.25 C 1024.28 538.995 1025.85 539.371 1033.97 542.399 L 1036.53 541.795 C 1043.35 547.548 1050.81 564.609 1055.44 573.649 L 1097.36 655.787 C 1105.27 671.227 1113.7 692.943 1124.98 705.712 C 1124.35 706.173 1123.72 706.633 1123.1 707.093 C 1126.4 713.725 1130.37 720.893 1133.37 727.479 L 1134.99 725.202 L 1136.75 725.552 L 1137.99 728.057 C 1136.58 729.769 1137.47 729.123 1135.26 729.907 C 1134.79 735.494 1147.43 750.337 1148.86 759.186 C 1151.23 761.289 1150.2 760.601 1153.43 761.539 C 1164.05 774.406 1169.14 785.454 1174.71 798.887 C 1178.08 807.041 1214.58 817.636 1225.36 820.069 C 1227.37 820.525 1229.39 820.916 1231.43 821.243 C 1233.27 823.818 1234.04 825.028 1236.37 827.27 C 1248.25 828.936 1260.92 831.243 1272.75 832.532 C 1278.22 833.127 1290.11 830.813 1296.14 831.398 C 1299.53 831.726 1300.11 832.301 1302.68 833.972 C 1305.42 835.752 1316.26 833.379 1318.99 834.411 C 1323.99 836.488 1328.78 840.437 1333.86 842.202 C 1336.05 842.963 1341.79 841.581 1343.98 842.188 C 1357.34 845.894 1371.29 847.696 1385.01 849.706 C 1388.74 850.253 1394.57 848.286 1398.43 847.928 C 1404.84 846.768 1407.78 849.636 1412.42 853.763 C 1426.97 851.431 1423.28 856.539 1438.05 857.635 C 1446.94 858.296 1494.16 863.407 1492.86 873.814 C 1496.75 881.568 1496.98 883.284 1495.54 891.955 C 1496.83 898.814 1491.5 898.715 1488.32 907.366 L 1488.04 908.169 C 1486.74 907.507 1487.33 908.008 1486.46 906.475 C 1479.97 911.804 1474.46 919.109 1468.54 925.035 C 1461.75 931.824 1456.19 939.006 1450.63 946.79 C 1450.29 947.267 1446.6 947.479 1445.86 947.487 C 1444.78 949.846 1444.64 950.45 1443.99 952.983 C 1441.87 954.522 1438.09 955.76 1438.96 954.832 C 1434.73 959.367 1427.92 966.092 1423.78 970.207 L 1424.62 972.639 C 1421.84 975.811 1420.89 975.829 1416.76 977.351 C 1410.46 994.973 1406.06 991.886 1392.12 1003.32 C 1385.83 1008.49 1380.26 1015.26 1373.54 1020.47 C 1371.54 1026.48 1372.29 1029.96 1366.79 1034.06 C 1360 1039.13 1358.72 1037.88 1356.83 1046.11 C 1349.1 1054.67 1341.28 1054.48 1331.19 1062.93 C 1316.23 1075.46 1316.89 1086.07 1305.27 1098.9 C 1300.96 1103.65 1293.93 1099.76 1288.31 1110.99 L 1291.87 1112.78 C 1292.08 1115.06 1291.55 1115.62 1290.62 1117.69 C 1287.62 1124.43 1282.13 1147.82 1284.5 1154.63 C 1288.76 1166.92 1292.54 1167.94 1289.69 1182.26 C 1287.97 1190.88 1306.41 1287.11 1309.02 1302.79 C 1315.28 1340.55 1319.6 1379.19 1327.36 1416.64 L 1325.65 1419.45 C 1326.27 1431.95 1321.93 1437.12 1310.67 1441.82 C 1305.7 1443.07 1288.55 1439.84 1284.86 1437.09 C 1284.27 1434.25 1284.47 1434.18 1282.78 1431.9 C 1264.31 1428.73 1224.61 1396.9 1210.83 1397.63 C 1209.11 1397.72 1188.55 1383.14 1184.6 1381.03 C 1179.82 1378.46 1174.56 1377.21 1169.63 1374.51 C 1166.33 1372.7 1158.52 1366.75 1155.17 1366.81 L 1155.2 1369.55 L 1153.46 1369.85 L 1152.17 1368.51 L 1153.6 1365.32 C 1148.58 1362.4 1132.99 1360.77 1129.35 1357.81 C 1113.7 1345.07 1099.71 1335.68 1080.9 1327.41 C 1079.45 1328.48 1079.16 1328.63 1077.61 1329.51 C 1071.65 1328.24 1053.66 1322.09 1048.81 1317.48 C 1047.51 1316.15 1043.95 1307.72 1042.63 1307.59 C 1036.61 1307 1026.24 1309.5 1020.2 1308.71 C 1012.35 1307.69 1011.15 1302.94 1003.05 1307.91 C 996.079 1312.19 994.603 1322.23 987.215 1324.67 C 980.716 1325.93 976.313 1329.39 969.707 1330.19 L 969.299 1327.6 C 963.724 1327.74 945.101 1339.76 938.764 1342.39 C 937.491 1342.92 938.942 1345.52 937.166 1348.76 C 926.137 1349.84 922.136 1357.98 918.668 1358.46 C 895.546 1361.68 877.104 1375.5 856.529 1385.87 C 852.238 1388.04 848.736 1393.87 841.877 1397.35 C 839.085 1396.73 838.416 1396.54 835.588 1396.43 C 833.951 1399.1 833.719 1399.35 831.567 1401.65 C 831.092 1401.54 830.618 1401.43 830.143 1401.31 C 829.654 1401.05 829.165 1400.78 828.676 1400.51 C 801.916 1413.03 775.978 1428.98 749.354 1441.43 C 746.251 1442.88 740.72 1442.33 737.948 1441.86 C 725.353 1436.14 721.798 1432.4 722.141 1418.16 C 721.67 1418.11 722.017 1418.21 720.901 1417.48 C 725.956 1372.77 738.735 1325.66 740.032 1279.9 C 740.29 1270.91 745.988 1262.6 747.569 1253.4 C 751.035 1233.2 753.488 1212.87 757.516 1192.71 C 757.926 1190.66 756.241 1190.15 754.763 1189.01 C 754.751 1177.26 757.948 1155.92 761.767 1144.17 C 764.469 1135.85 758.149 1114.53 755.116 1105.9 C 754.491 1104.12 742.318 1099.28 739.592 1095.61 C 737.326 1092.55 734.079 1082.94 732.257 1080.34 C 727.155 1073.08 717.051 1062.12 710.135 1055.97 C 709.056 1055.01 701.161 1054.02 700.337 1053.37 C 693.877 1048.31 685.841 1041.27 680.141 1035.34 C 679.455 1034.63 678.186 1030.37 678.096 1029.85 C 675.087 1012.43 645.819 1000.51 634.837 986.693 C 632.866 984.213 633.74 983.232 634.351 979.703 L 632.964 979.307 L 631.505 982.147 C 630.355 981.224 629.942 981.166 629.607 979.915 C 626.991 970.158 617.896 964.127 611.06 957.058 C 608.953 954.88 606.288 953.779 603.732 950.712 L 604.738 949.515 L 604.458 948.616 C 596.086 949.015 593.842 947.645 590.124 940.025 C 581.983 923.343 568.102 913.604 555.537 900.649 C 551.581 896.57 551.218 894.371 551.687 888.877 C 551.705 883.177 552.057 881.669 553.342 876.066 z"/>
<path transform="translate(0,0)" fill="rgb(55,61,82)" d="M 551.687 888.877 C 556.334 900.208 576.219 918.09 585.493 927.444 L 635.505 977.862 C 680.96 1023.68 726.893 1071.17 772.86 1116.24 L 736.245 1334.36 L 727.405 1388.64 C 726.462 1394.61 723.914 1413.4 722.141 1418.16 C 721.67 1418.11 722.017 1418.21 720.901 1417.48 C 725.956 1372.77 738.735 1325.66 740.032 1279.9 C 740.29 1270.91 745.988 1262.6 747.569 1253.4 C 751.035 1233.2 753.488 1212.87 757.516 1192.71 C 757.926 1190.66 756.241 1190.15 754.763 1189.01 C 754.751 1177.26 757.948 1155.92 761.767 1144.17 C 764.469 1135.85 758.149 1114.53 755.116 1105.9 C 754.491 1104.12 742.318 1099.28 739.592 1095.61 C 737.326 1092.55 734.079 1082.94 732.257 1080.34 C 727.155 1073.08 717.051 1062.12 710.135 1055.97 C 709.056 1055.01 701.161 1054.02 700.337 1053.37 C 693.877 1048.31 685.841 1041.27 680.141 1035.34 C 679.455 1034.63 678.186 1030.37 678.096 1029.85 C 675.087 1012.43 645.819 1000.51 634.837 986.693 C 632.866 984.213 633.74 983.232 634.351 979.703 L 632.964 979.307 L 631.505 982.147 C 630.355 981.224 629.942 981.166 629.607 979.915 C 626.991 970.158 617.896 964.127 611.06 957.058 C 608.953 954.88 606.288 953.779 603.732 950.712 L 604.738 949.515 L 604.458 948.616 C 596.086 949.015 593.842 947.645 590.124 940.025 C 581.983 923.343 568.102 913.604 555.537 900.649 C 551.581 896.57 551.218 894.371 551.687 888.877 z"/>
<path transform="translate(0,0)" fill="rgb(55,61,82)" d="M 1033.97 542.399 L 1036.53 541.795 C 1043.35 547.548 1050.81 564.609 1055.44 573.649 L 1097.36 655.787 C 1105.27 671.227 1113.7 692.943 1124.98 705.712 C 1124.35 706.173 1123.72 706.633 1123.1 707.093 C 1126.4 713.725 1130.37 720.893 1133.37 727.479 L 1134.99 725.202 L 1136.75 725.552 L 1137.99 728.057 C 1136.58 729.769 1137.47 729.123 1135.26 729.907 C 1134.79 735.494 1147.43 750.337 1148.86 759.186 C 1151.23 761.289 1150.2 760.601 1153.43 761.539 C 1164.05 774.406 1169.14 785.454 1174.71 798.887 C 1178.08 807.041 1214.58 817.636 1225.36 820.069 C 1227.37 820.525 1229.39 820.916 1231.43 821.243 C 1233.27 823.818 1234.04 825.028 1236.37 827.27 C 1248.25 828.936 1260.92 831.243 1272.75 832.532 C 1278.22 833.127 1290.11 830.813 1296.14 831.398 C 1299.53 831.726 1300.11 832.301 1302.68 833.972 C 1305.42 835.752 1316.26 833.379 1318.99 834.411 C 1323.99 836.488 1328.78 840.437 1333.86 842.202 C 1336.05 842.963 1341.79 841.581 1343.98 842.188 C 1357.34 845.894 1371.29 847.696 1385.01 849.706 C 1388.74 850.253 1394.57 848.286 1398.43 847.928 C 1404.84 846.768 1407.78 849.636 1412.42 853.763 C 1426.97 851.431 1423.28 856.539 1438.05 857.635 C 1446.94 858.296 1494.16 863.407 1492.86 873.814 C 1482.18 864.117 1465.9 864.068 1451.69 861.808 L 1386.65 851.757 L 1178.18 820.543 L 1085.26 637.285 C 1074.39 615.514 1063.39 593.806 1052.27 572.162 C 1048.35 564.574 1044.48 556.815 1040.32 549.383 C 1039.54 547.987 1035.4 544.167 1033.97 542.399 z"/>
<path transform="translate(0,0)" fill="rgb(55,61,82)" d="M 737.948 1441.86 C 750.796 1440.41 768.214 1429.61 780.029 1423.4 L 838.79 1392.55 L 1023.97 1295.16 L 1201.12 1388.17 L 1263.62 1420.97 C 1276.03 1427.48 1297.22 1440.57 1310.67 1441.82 C 1305.7 1443.07 1288.55 1439.84 1284.86 1437.09 C 1284.27 1434.25 1284.47 1434.18 1282.78 1431.9 C 1264.31 1428.73 1224.61 1396.9 1210.83 1397.63 C 1209.11 1397.72 1188.55 1383.14 1184.6 1381.03 C 1179.82 1378.46 1174.56 1377.21 1169.63 1374.51 C 1166.33 1372.7 1158.52 1366.75 1155.17 1366.81 L 1155.2 1369.55 L 1153.46 1369.85 L 1152.17 1368.51 L 1153.6 1365.32 C 1148.58 1362.4 1132.99 1360.77 1129.35 1357.81 C 1113.7 1345.07 1099.71 1335.68 1080.9 1327.41 C 1079.45 1328.48 1079.16 1328.63 1077.61 1329.51 C 1071.65 1328.24 1053.66 1322.09 1048.81 1317.48 C 1047.51 1316.15 1043.95 1307.72 1042.63 1307.59 C 1036.61 1307 1026.24 1309.5 1020.2 1308.71 C 1012.35 1307.69 1011.15 1302.94 1003.05 1307.91 C 996.079 1312.19 994.603 1322.23 987.215 1324.67 C 980.716 1325.93 976.313 1329.39 969.707 1330.19 L 969.299 1327.6 C 963.724 1327.74 945.101 1339.76 938.764 1342.39 C 937.491 1342.92 938.942 1345.52 937.166 1348.76 C 926.137 1349.84 922.136 1357.98 918.668 1358.46 C 895.546 1361.68 877.104 1375.5 856.529 1385.87 C 852.238 1388.04 848.736 1393.87 841.877 1397.35 C 839.085 1396.73 838.416 1396.54 835.588 1396.43 C 833.951 1399.1 833.719 1399.35 831.567 1401.65 C 831.092 1401.54 830.618 1401.43 830.143 1401.31 C 829.654 1401.05 829.165 1400.78 828.676 1400.51 C 801.916 1413.03 775.978 1428.98 749.354 1441.43 C 746.251 1442.88 740.72 1442.33 737.948 1441.86 z"/>
<path transform="translate(0,0)" fill="rgb(55,61,82)" d="M 1495.54 891.955 C 1496.83 898.814 1491.5 898.715 1488.32 907.366 L 1488.04 908.169 C 1486.74 907.507 1487.33 908.008 1486.46 906.475 C 1479.97 911.804 1474.46 919.109 1468.54 925.035 C 1461.75 931.824 1456.19 939.006 1450.63 946.79 C 1450.29 947.267 1446.6 947.479 1445.86 947.487 C 1444.78 949.846 1444.64 950.45 1443.99 952.983 C 1441.87 954.522 1438.09 955.76 1438.96 954.832 C 1434.73 959.367 1427.92 966.092 1423.78 970.207 L 1424.62 972.639 C 1421.84 975.811 1420.89 975.829 1416.76 977.351 C 1410.46 994.973 1406.06 991.886 1392.12 1003.32 C 1385.83 1008.49 1380.26 1015.26 1373.54 1020.47 C 1371.54 1026.48 1372.29 1029.96 1366.79 1034.06 C 1360 1039.13 1358.72 1037.88 1356.83 1046.11 C 1349.1 1054.67 1341.28 1054.48 1331.19 1062.93 C 1316.23 1075.46 1316.89 1086.07 1305.27 1098.9 C 1300.96 1103.65 1293.93 1099.76 1288.31 1110.99 L 1291.87 1112.78 C 1292.08 1115.06 1291.55 1115.62 1290.62 1117.69 C 1287.62 1124.43 1282.13 1147.82 1284.5 1154.63 C 1288.76 1166.92 1292.54 1167.94 1289.69 1182.26 C 1287.97 1190.88 1306.41 1287.11 1309.02 1302.79 C 1315.28 1340.55 1319.6 1379.19 1327.36 1416.64 L 1325.65 1419.45 C 1324.4 1415.49 1321.8 1396.68 1321.01 1391.54 C 1318.25 1373.35 1315.37 1355.18 1312.37 1337.03 C 1300.28 1263.95 1288.42 1189.78 1275.38 1116.94 L 1428.19 962.439 C 1440.41 950.109 1488.84 903.014 1495.54 891.955 z"/>
<path transform="translate(0,0)" fill="rgb(55,61,82)" d="M 553.342 876.066 C 553.147 875.392 552.952 874.719 552.757 874.045 C 556.527 861.913 611.763 857.319 625.714 855.283 L 771.906 833.781 C 774.197 833.428 776.098 832.082 777.719 830.499 C 779.639 831.216 781.211 831.744 783.17 832.345 L 784.813 831.399 C 785.948 829.231 786.032 829.147 787.422 827.184 C 795.068 826.707 817.851 824.571 823.652 821.415 C 831.677 817.047 840.923 823.863 847.387 820.346 C 855.208 816.091 870.393 800.3 873.585 792.435 C 872.525 790.188 872.717 791.072 872.62 788.575 C 876.579 786.926 877.762 786.776 880.508 783.694 C 880.165 780.625 879.761 779.91 881.036 777.129 C 882.565 778.496 881.684 778.106 883.654 778.352 L 886.46 774.447 L 890.644 774.323 C 896.537 764.24 901.338 754.016 906.6 743.686 C 910.462 736.105 905.583 730.688 908.651 725.224 L 910.301 726.174 C 913.1 725.172 921.304 702.816 926.757 700.845 C 927.773 700.477 929.235 698.442 929.705 697.242 L 928.115 696.361 C 935.518 688.595 945.252 667.022 950.708 656.211 L 986.24 586.36 C 990.227 578.518 1007.4 538.728 1015.98 541.25 C 1015.38 541.787 1014.78 542.33 1014.19 542.879 C 1004.69 551.568 996.116 571.555 989.892 583.697 L 958.506 645.45 L 869.835 820.522 L 660.902 851.886 L 600.646 861.018 C 588.457 862.857 576.237 864.39 564.248 867.283 C 559.164 868.51 556.092 874.688 553.342 876.066 z"/>
<path transform="translate(0,0)" fill="rgb(196,196,200)" d="M 596.526 894.982 C 599.816 894.124 636.199 906.925 641.649 908.671 L 756.411 945.764 L 850.633 976.482 C 863.897 980.81 880.514 985.515 893.193 990.176 L 893.754 990.139 C 900.508 995.448 913.49 998.131 920.999 1002.46 C 914.378 1038.95 923.491 1070.97 949.156 1097.69 L 953.719 1102.14 C 947.071 1109.8 941.505 1117.45 935.775 1125.8 C 938.258 1127.66 945.217 1132.59 947.011 1134.53 C 898.634 1205.2 845.603 1274.76 796.695 1345.24 C 791.079 1353.33 760.546 1393.93 758.291 1399.63 L 757.588 1399.55 C 755.101 1391.68 802.345 1140.16 805.193 1106.36 C 788.873 1087.64 757.458 1057.63 739.198 1039.09 L 596.526 894.982 z"/>
<path transform="translate(0,0)" fill="rgb(240,241,245)" d="M 893.754 990.139 C 900.508 995.448 913.49 998.131 920.999 1002.46 C 914.378 1038.95 923.491 1070.97 949.156 1097.69 L 953.719 1102.14 C 947.071 1109.8 941.505 1117.45 935.775 1125.8 C 894.797 1089.53 882.216 1042.86 893.193 990.176 L 893.754 990.139 z"/>
<path transform="translate(0,0)" fill="rgb(216,216,221)" d="M 1024.12 585.355 C 1023.33 595.715 1023.79 610.165 1023.83 620.92 L 1024.05 681.416 L 1023.85 888.931 L 1023.14 889.145 C 1024.32 894.739 1024.81 911.721 1024.37 917.513 L 1022.68 918.608 C 992.111 920.031 967.271 930.239 946.324 953.178 C 933.698 967.093 924.963 984.09 920.999 1002.46 C 913.49 998.131 900.508 995.448 893.754 990.139 L 893.193 990.176 C 880.514 985.515 863.897 980.81 850.633 976.482 L 756.411 945.764 L 641.649 908.671 C 636.199 906.925 599.816 894.124 596.526 894.982 L 595.559 894.092 C 599.118 891.267 805.072 862.977 825.458 859.305 C 838.177 857.013 871.177 853.303 885.805 849.736 C 889.343 848.873 891.308 846.203 893.096 842.946 C 905.502 820.344 916.992 796.327 928.646 773.323 L 987.993 656.335 C 999.514 633.523 1011.9 607.564 1024.12 585.355 z"/>
<path transform="translate(0,0)" fill="rgb(240,241,245)" d="M 893.754 990.139 C 908.137 930.353 962.639 890.692 1023.14 889.145 C 1024.32 894.739 1024.81 911.721 1024.37 917.513 L 1022.68 918.608 C 992.111 920.031 967.271 930.239 946.324 953.178 C 933.698 967.093 924.963 984.09 920.999 1002.46 C 913.49 998.131 900.508 995.448 893.754 990.139 z"/>
<path transform="translate(0,0)" fill="rgb(196,196,200)" d="M 1024.12 585.355 C 1028.83 587.897 1048.2 631.385 1052.18 639.289 L 1128.88 790.881 C 1133.85 800.725 1153.14 840.332 1158.75 848.217 C 1172.39 852.465 1205.6 855.586 1221.52 858.159 L 1372.18 881.305 C 1397.28 885.089 1427.35 888.849 1451.96 893.719 C 1446.41 894.689 1429.07 900.899 1422.65 902.992 L 1356.6 924.578 L 1221.86 968.384 C 1203.48 974.336 1170.4 983.656 1154.2 990.193 C 1153.25 983.828 1149.09 973.013 1146.61 967.026 C 1140.67 972.637 1128.09 983.327 1123.54 988.97 C 1117.15 971.741 1109.89 961.126 1097.31 948.101 C 1074.84 927.627 1052.89 919.159 1022.68 918.608 L 1024.37 917.513 C 1024.81 911.721 1024.32 894.739 1023.14 889.145 L 1023.85 888.931 L 1024.05 681.416 L 1023.83 620.92 C 1023.79 610.165 1023.33 595.715 1024.12 585.355 z"/>
<path transform="translate(0,0)" fill="rgb(240,241,245)" d="M 1023.85 888.931 C 1081.1 890.064 1119.64 918.077 1146.61 967.026 C 1140.67 972.637 1128.09 983.327 1123.54 988.97 C 1117.15 971.741 1109.89 961.126 1097.31 948.101 C 1074.84 927.627 1052.89 919.159 1022.68 918.608 L 1024.37 917.513 C 1024.81 911.721 1024.32 894.739 1023.14 889.145 L 1023.85 888.931 z"/>
<path transform="translate(0,0)" fill="rgb(168,169,174)" d="M 947.011 1134.53 C 997.298 1168.71 1050.24 1165.92 1100.93 1134.99 L 1261.14 1359.74 C 1266 1366.61 1287.72 1393.3 1289.62 1399.32 C 1272.17 1391.3 1247.08 1376.93 1229.16 1367.55 L 1095.94 1297.6 C 1073.96 1286.07 1051.98 1273.7 1029.42 1263.46 C 1020.06 1259.22 1002.86 1271.05 993.887 1275.78 L 947.062 1300.46 L 820.76 1366.76 C 800.369 1377.47 778.856 1389.62 758.291 1399.63 C 760.546 1393.93 791.079 1353.33 796.695 1345.24 C 845.603 1274.76 898.634 1205.2 947.011 1134.53 z"/>
<path transform="translate(0,0)" fill="rgb(184,184,189)" d="M 1451.96 893.719 C 1451.07 897.665 1439.56 907.287 1436.18 910.645 C 1426.63 920.141 1417.15 929.706 1407.7 939.304 L 1297.25 1050.87 C 1281.32 1067.01 1257.42 1089.83 1243.03 1106.49 C 1245.89 1138.84 1292.68 1394.67 1290.05 1399.4 L 1289.62 1399.32 C 1287.72 1393.3 1266 1366.61 1261.14 1359.74 L 1100.93 1134.99 C 1146.36 1100.15 1170.47 1047.02 1154.2 990.193 C 1170.4 983.656 1203.48 974.336 1221.86 968.384 L 1356.6 924.578 L 1422.65 902.992 C 1429.07 900.899 1446.41 894.689 1451.96 893.719 z"/>
<path transform="translate(0,0)" fill="rgb(79,124,210)" d="M 1022.68 918.608 C 1052.89 919.159 1074.84 927.627 1097.31 948.101 C 1109.89 961.126 1117.15 971.741 1123.54 988.97 C 1128.09 983.327 1140.67 972.637 1146.61 967.026 C 1149.09 973.013 1153.25 983.828 1154.2 990.193 C 1170.47 1047.02 1146.36 1100.15 1100.93 1134.99 C 1050.24 1165.92 997.298 1168.71 947.011 1134.53 C 945.217 1132.59 938.258 1127.66 935.775 1125.8 C 941.505 1117.45 947.071 1109.8 953.719 1102.14 L 949.156 1097.69 C 923.491 1070.97 914.378 1038.95 920.999 1002.46 C 924.963 984.09 933.698 967.093 946.324 953.178 C 967.271 930.239 992.111 920.031 1022.68 918.608 z"/>
<path transform="translate(0,0)" fill="rgb(44,86,167)" d="M 1069.74 976.258 C 1077.45 968.779 1090.62 956.102 1097.31 948.101 C 1109.89 961.126 1117.15 971.741 1123.54 988.97 C 1128.09 983.327 1140.67 972.637 1146.61 967.026 C 1149.09 973.013 1153.25 983.828 1154.2 990.193 C 1170.47 1047.02 1146.36 1100.15 1100.93 1134.99 C 1050.24 1165.92 997.298 1168.71 947.011 1134.53 C 945.217 1132.59 938.258 1127.66 935.775 1125.8 C 941.505 1117.45 947.071 1109.8 953.719 1102.14 L 949.156 1097.69 C 958.56 1088.68 967.705 1079 976.778 1069.63 C 991.238 1083.05 1007.19 1090.04 1027.12 1089.63 C 1035.87 1089.45 1059.27 1083.59 1063.07 1075.81 L 1067.38 1075.12 C 1068.6 1072.54 1070.72 1070.5 1073.34 1069.38 L 1073.4 1066.41 C 1073.91 1066.08 1074.43 1065.74 1074.94 1065.41 C 1092.44 1044.49 1094.42 1013.46 1080.26 990.294 C 1076.33 983.874 1073.52 980.787 1069.74 976.258 z"/>
<path transform="translate(0,0)" fill="rgb(216,216,221)" d="M 1146.61 967.026 C 1149.09 973.013 1153.25 983.828 1154.2 990.193 C 1170.47 1047.02 1146.36 1100.15 1100.93 1134.99 C 1050.24 1165.92 997.298 1168.71 947.011 1134.53 C 945.217 1132.59 938.258 1127.66 935.775 1125.8 C 941.505 1117.45 947.071 1109.8 953.719 1102.14 C 959.777 1107.02 964.568 1110.82 971.312 1114.72 C 995.965 1128.92 1025.29 1132.64 1052.7 1125.03 C 1079.56 1117.59 1102.31 1099.67 1115.86 1075.31 C 1131.49 1047.09 1132.16 1019.29 1123.54 988.97 C 1128.09 983.327 1140.67 972.637 1146.61 967.026 z"/>
<path transform="translate(0,0)" fill="rgb(240,241,245)" d="M 1073.34 1069.38 C 1078.5 1067.18 1084.51 1068.98 1087.61 1073.67 C 1090.71 1078.35 1090.02 1084.58 1085.97 1088.48 C 1081.92 1092.37 1075.67 1092.82 1071.11 1089.54 C 1066.55 1086.27 1064.98 1080.2 1067.38 1075.12 C 1068.6 1072.54 1070.72 1070.5 1073.34 1069.38 z"/>
<path transform="translate(0,0)" fill="rgb(70,115,201)" d="M 1022.68 918.608 C 1052.89 919.159 1074.84 927.627 1097.31 948.101 C 1090.62 956.102 1077.45 968.779 1069.74 976.258 C 1052.63 965.311 1055.4 962.218 1030.37 958.946 L 1029.29 959.257 C 1022.64 961.11 1018.38 961.024 1012.03 962.501 C 994.738 966.528 979.901 976.746 970.891 992.234 C 966.462 1000.01 963.56 1008.56 962.34 1017.43 C 961.666 1022.41 961.825 1025.62 960.16 1030.38 C 960.651 1045.86 966.013 1058.49 976.778 1069.63 C 967.705 1079 958.56 1088.68 949.156 1097.69 C 923.491 1070.97 914.378 1038.95 920.999 1002.46 C 924.963 984.09 933.698 967.093 946.324 953.178 C 967.271 930.239 992.111 920.031 1022.68 918.608 z"/>
<path transform="translate(0,0)" fill="rgb(240,241,245)" d="M 960.16 1030.38 C 935.624 1045.66 941.973 1009.09 946.272 996.833 C 953.633 975.884 968.985 958.701 988.975 949.035 C 1000.68 943.519 1045.01 930.531 1030.37 958.946 L 1029.29 959.257 C 1022.64 961.11 1018.38 961.024 1012.03 962.501 C 994.738 966.528 979.901 976.746 970.891 992.234 C 966.462 1000.01 963.56 1008.56 962.34 1017.43 C 961.666 1022.41 961.825 1025.62 960.16 1030.38 z"/>
<path transform="translate(0,0)" fill="rgb(26,32,54)" d="M 616.416 612.436 C 617.454 612.077 618.263 611.71 619.504 611.758 C 645.891 612.779 657.313 648.285 640.599 666.675 C 638.386 669.111 637.49 668.334 634.229 668.246 C 631.539 669.799 632.391 668.669 631.159 671.274 C 632.923 671.782 633.72 671.694 634.792 672.753 C 630.516 674.608 628.874 675.246 624.312 675.589 L 623.699 676.127 C 616.623 674.457 613.205 678.063 604.931 674.382 C 587.763 666.864 584.452 643.291 591.022 627.688 C 594.526 619.367 608.553 614.933 616.416 612.436 z"/>
<path transform="translate(0,0)" fill="rgb(240,241,245)" d="M 617.252 618.661 C 619.178 620.608 622.694 629.897 624.556 633.346 C 627.925 639.588 636.734 641.009 643.58 643.004 C 625.553 649.337 624.506 649.305 618.174 667.343 C 615.365 665.185 613.398 657.37 611.406 653.707 C 608.248 647.9 598.173 645.366 592.094 643.282 C 610.722 637.671 610.665 636.979 617.252 618.661 z"/>
<path transform="translate(0,0)" fill="rgb(26,32,54)" d="M 955.769 1463.18 C 964.826 1464.08 976.626 1460.88 982.438 1470.75 C 984.124 1473.61 984.666 1475.64 987.222 1477.27 L 988.468 1474.58 C 990.259 1477.1 990.716 1482.54 991.253 1485.83 L 994.622 1488.09 C 999.359 1498.88 992.549 1510.58 984.851 1518.03 C 979.424 1523.28 980.132 1523.11 973.007 1523.62 L 969.558 1525.23 C 967.055 1524.55 965.511 1524.66 962.972 1524.96 C 952.996 1526.16 942.738 1521.45 937.782 1512.57 C 933.044 1504.08 933.887 1491.19 935.251 1481.86 C 935.782 1478.22 947.631 1468.8 951.099 1467.17 C 954.271 1465.35 953.735 1465.28 955.769 1463.18 z"/>
<path transform="translate(0,0)" fill="rgb(240,241,245)" d="M 963.794 1470.69 C 966.205 1473.09 969.92 1483.5 971.389 1487.2 C 977.908 1490.84 982.881 1492.64 989.84 1495.33 C 983.786 1497.65 977.498 1500.57 971.534 1503.21 L 964.479 1519.43 C 961.795 1516.85 958.199 1506.94 956.559 1502.93 C 951.221 1500.32 944.225 1497.51 938.665 1495.08 C 945.71 1492.33 950.635 1490.61 957.118 1486.69 L 963.794 1470.69 z"/>
<path transform="translate(0,0)" fill="rgb(26,32,54)" d="M 1472.06 1150.87 L 1472.89 1150.64 C 1476.49 1153.1 1484.39 1157.62 1486.75 1159.65 C 1487.04 1163.38 1487.4 1164.06 1488.62 1167.47 L 1488.85 1167.37 L 1489.34 1166.09 L 1490.28 1166.34 C 1496.67 1179.26 1496.62 1185.82 1488.34 1199.68 C 1484.92 1205.39 1480.59 1208.64 1473.94 1209.87 C 1469.02 1206.65 1467.14 1209.9 1462.1 1207.71 C 1447.78 1210.94 1438.64 1195.53 1434.74 1183.97 L 1434.55 1184.66 C 1431.34 1168.08 1441.92 1156.16 1458.47 1151.06 C 1461.27 1150.19 1467.21 1151.82 1472.06 1150.87 z"/>
<path transform="translate(0,0)" fill="rgb(225,191,115)" d="M 1462 1163.27 C 1463.45 1159.61 1463 1158.76 1465.66 1157.24 C 1467.98 1159.3 1469.33 1165.14 1470.38 1168.4 C 1475.91 1176.12 1481.86 1177.05 1490.96 1180.42 C 1483.84 1182.99 1479.33 1184.46 1472.74 1188.19 C 1469.66 1193.81 1467.56 1200.13 1465.33 1206.16 C 1462.78 1198.99 1461.38 1194.77 1457.75 1188.16 C 1451.13 1184.51 1446.61 1183.03 1439.5 1180.49 C 1451.96 1176.32 1457.15 1176.33 1462 1163.27 z"/>
<path transform="translate(0,0)" fill="rgb(221,191,123)" d="M 1462 1163.27 C 1463.45 1159.61 1463 1158.76 1465.66 1157.24 C 1467.98 1159.3 1469.33 1165.14 1470.38 1168.4 C 1466.79 1164.33 1467.36 1163.14 1462 1163.27 z"/>
<path transform="translate(0,0)" fill="rgb(55,61,82)" d="M 769.957 674.364 C 777.232 674.428 782.642 674.365 787.559 680.122 L 792.166 685.551 L 794.178 684.122 C 800.269 692.618 799.341 710.466 800.468 711.752 L 801.498 705.322 L 802.794 708.094 C 798.42 718.564 785.436 728.904 774.113 730.661 C 774.661 731.614 774.372 730.924 774.204 732.902 C 765.405 735.276 755.213 728.679 747.306 724.694 C 750.304 723.872 750.789 723.776 753.539 722.4 C 752.301 721.058 748.819 719.452 747.327 718.843 C 740.614 716.533 744.191 711.902 742.054 706.799 C 740.659 703.467 741.044 703.384 741.694 699.863 L 739.591 699.922 C 748.075 685.913 751.953 676.338 769.957 674.364 z"/>
<path transform="translate(0,0)" fill="rgb(225,191,115)" d="M 770.165 676.778 C 772.346 682.857 774.984 691.198 778.211 696.528 L 778.716 696.81 C 785.754 700.093 789.46 701.236 796.98 703.462 C 788.467 706.296 781.86 707.649 775.633 714.152 L 774.143 718.398 L 770.173 729.679 C 768.544 725.327 766.162 719.959 765.757 715.473 C 758.037 706.997 754.461 707.021 743.667 703.467 C 753.798 700.394 760.559 699.662 765.612 690.367 L 770.165 676.778 z"/>
<path transform="translate(0,0)" fill="rgb(221,191,123)" d="M 778.716 696.81 C 785.754 700.093 789.46 701.236 796.98 703.462 C 788.467 706.296 781.86 707.649 775.633 714.152 L 775.965 711.495 C 779.179 707.532 782.968 705.905 787.452 703.348 C 782.833 701.401 780.914 701.01 778.716 696.81 z"/>
<path transform="translate(0,0)" fill="rgb(221,191,123)" d="M 770.165 676.778 C 772.346 682.857 774.984 691.198 778.211 696.528 C 774.05 694.53 773.927 693.035 772.146 688.763 L 771.476 687.134 L 769.6 686.845 L 765.612 690.367 L 770.165 676.778 z"/>
<path transform="translate(0,0)" fill="rgb(221,191,123)" d="M 765.757 715.473 C 767.862 717.046 768.455 718.302 769.776 720.513 C 772.264 720.3 772.163 720.042 774.143 718.398 L 770.173 729.679 C 768.544 725.327 766.162 719.959 765.757 715.473 z"/>
<path transform="translate(0,0)" fill="rgb(55,61,82)" d="M 527.651 1265.24 C 536.165 1265.1 554.36 1270.94 553.906 1280.85 L 551.762 1279.41 L 551.288 1281.98 L 551.836 1282.35 L 553.23 1282.42 L 554.567 1284.82 L 554.836 1281.71 C 559.468 1285.63 552.544 1302.23 549.18 1306.17 C 544.764 1311.33 538.85 1310.99 532.643 1311.85 C 531.231 1311.39 529.363 1310.84 527.903 1310.85 C 510.643 1310.95 516.103 1298.02 510.678 1293.71 L 511.565 1298.62 L 509.395 1299.71 C 507.751 1296.22 507.665 1284.38 509.636 1280.84 L 511.581 1281.47 L 512.416 1280.69 C 513.101 1275.2 512.297 1274.49 516.147 1270.33 C 519.727 1268.34 522.587 1269.43 526.967 1269.43 L 527.651 1265.24 z"/>
<path transform="translate(0,0)" fill="rgb(225,191,115)" d="M 526.822 1282.85 L 531.99 1269.84 C 533.628 1274.29 534.933 1277.88 536.211 1282.51 L 539.32 1284.41 C 542.496 1285.7 547.058 1286.82 548.412 1289.23 C 546.021 1290.86 545.981 1290.72 543.13 1291.47 L 536.225 1295.3 C 535.226 1299.03 533.204 1303.72 531.761 1307.42 L 526.807 1294.72 L 526.532 1294.21 L 513.004 1288.85 C 518.909 1286.8 521.226 1286.03 526.822 1282.85 z"/>
<path transform="translate(0,0)" fill="rgb(221,191,123)" d="M 526.822 1282.85 L 531.99 1269.84 C 533.628 1274.29 534.933 1277.88 536.211 1282.51 C 534.474 1281.3 533.411 1280.26 531.991 1278.69 C 528.728 1281.15 527.774 1284.18 521.999 1288.2 C 522.892 1291.27 524.403 1291.03 526.532 1294.21 L 513.004 1288.85 C 518.909 1286.8 521.226 1286.03 526.822 1282.85 z"/>
<path transform="translate(0,0)" fill="rgb(221,191,123)" d="M 526.807 1294.72 L 528.064 1295.61 C 529.567 1296.7 530.345 1297.34 531.718 1298.54 C 534.038 1297.47 534.288 1297.03 536.225 1295.3 C 535.226 1299.03 533.204 1303.72 531.761 1307.42 L 526.807 1294.72 z"/>
<path transform="translate(0,0)" fill="rgb(221,191,123)" d="M 539.32 1284.41 C 542.496 1285.7 547.058 1286.82 548.412 1289.23 C 546.021 1290.86 545.981 1290.72 543.13 1291.47 C 542.119 1287.71 541.649 1287.37 539.32 1284.41 z"/>
<path transform="translate(0,0)" fill="rgb(55,61,82)" d="M 1242.83 488.235 C 1250.53 487.595 1261.57 487.75 1266.74 494.794 C 1264.33 495.685 1263.61 495.736 1261.06 496.28 C 1266.51 502.869 1275.23 495.364 1274.34 512.501 C 1273.05 509.642 1272.15 507.293 1271.06 504.35 C 1271.08 504.9 1271.38 511.576 1271.37 511.622 C 1271 513.272 1268.27 516.084 1268.71 518.488 C 1270.61 517.003 1272.04 515.332 1274.07 515.019 L 1273.52 517.94 C 1264.25 541.347 1229.48 537.346 1226.82 512.303 C 1225.56 500.539 1235.68 496.072 1242.83 488.235 z"/>
<path transform="translate(0,0)" fill="rgb(225,191,115)" d="M 1245.5 505.081 C 1247.21 500.418 1249.09 495.572 1250.57 490.852 C 1252.16 495.159 1254.07 500.819 1255.95 504.883 C 1260.69 507.24 1263.95 508.841 1268.99 510.71 C 1261.12 513.339 1257.32 513.478 1253.62 520.82 C 1252.79 523.867 1252.84 524.269 1251.14 527.013 C 1248.85 525.662 1247.75 521.321 1246.51 518.31 L 1244.99 515.291 C 1242.17 514.637 1235.39 511.913 1232.37 510.794 C 1236.76 508.93 1241.14 507.026 1245.5 505.081 z"/>
<path transform="translate(0,0)" fill="rgb(221,191,123)" d="M 1245.5 505.081 C 1244.35 509.576 1245.37 506.565 1242.08 509.845 C 1242.82 513.571 1243.99 512.766 1244.99 515.291 C 1242.17 514.637 1235.39 511.913 1232.37 510.794 C 1236.76 508.93 1241.14 507.026 1245.5 505.081 z"/>
<path transform="translate(0,0)" fill="rgb(221,191,123)" d="M 1246.51 518.31 C 1250.68 521.201 1248.42 520.337 1253.62 520.82 C 1252.79 523.867 1252.84 524.269 1251.14 527.013 C 1248.85 525.662 1247.75 521.321 1246.51 518.31 z"/>
<path transform="translate(0,0)" fill="rgb(26,32,54)" d="M 1535.83 1322 C 1529.29 1323.4 1527.29 1337.2 1514.61 1330.79 C 1504.61 1325.73 1502.33 1331.19 1498.32 1317.55 L 1497.9 1316.08 L 1496.07 1317.7 L 1494.74 1316.17 C 1492.9 1309.38 1494.45 1303.96 1495.37 1296.79 L 1495.91 1297.43 C 1494.74 1300.24 1495.13 1300.83 1495.57 1303.86 L 1496.65 1304.13 C 1498.08 1301.2 1503.74 1288.32 1506.18 1287.98 C 1519.6 1286.11 1530.07 1284.62 1536.87 1296.83 L 1535.92 1297.69 L 1536.84 1299.83 C 1542.3 1305.56 1540.8 1316.37 1535.83 1322 z"/>
<path transform="translate(0,0)" fill="rgb(240,241,245)" d="M 1516.38 1295.6 C 1517.49 1296.63 1517.61 1296.51 1518 1297.81 C 1519.85 1304.02 1523.34 1304.17 1526.69 1308.34 C 1520.45 1311.86 1519.87 1312.79 1517.43 1319.45 C 1516.52 1318.62 1515.83 1318.2 1515.74 1317.21 C 1514.99 1309.51 1500.5 1309.27 1511.57 1303.99 C 1513.95 1302.86 1515.03 1299.35 1515.95 1296.82 L 1516.38 1295.6 z"/>
<path transform="translate(0,0)" fill="rgb(26,32,54)" d="M 1290.17 686.539 L 1291.98 687.53 C 1301.45 686.306 1314.37 687.376 1317.93 697.839 C 1319.83 703.408 1319.33 716.293 1316.84 721.643 L 1315.39 721.954 C 1312.54 724.541 1309.06 726.835 1305.97 729.218 L 1305.05 728.888 C 1302.71 728.426 1296.97 728.514 1294.35 728.472 L 1296.17 730.464 C 1293.3 730.583 1294.39 730.643 1291.53 729.555 C 1288.35 724.61 1283.84 725.638 1278.98 720.254 C 1273.48 714.156 1275.02 704.928 1275.5 697.153 C 1281.02 689.534 1281.2 688.92 1290.17 686.539 z"/>
<path transform="translate(0,0)" fill="rgb(240,241,245)" d="M 1296.35 700.538 C 1299.92 699.961 1303.32 702.244 1304.14 705.763 C 1304.96 709.281 1302.92 712.834 1299.47 713.893 C 1297.01 714.645 1294.34 713.967 1292.54 712.133 C 1290.75 710.299 1290.12 707.616 1290.92 705.177 C 1291.72 702.737 1293.82 700.948 1296.35 700.538 z"/>
<path transform="translate(0,0)" fill="rgb(55,61,82)" d="M 801.622 482.347 L 801.802 481.408 C 802.624 476.924 802.597 474.984 802.579 470.42 L 800.976 468.584 C 805.507 463.029 812.806 455.356 820.427 454.531 C 835.623 452.888 849.741 477.9 837.479 488.994 C 835.922 490.402 835.173 491.117 833.089 491.227 L 832.041 489.411 C 825.389 495.407 824.081 498.389 814.202 494.389 C 809.507 492.488 806.485 493.086 803.366 488.593 L 803.16 486.163 C 802.697 484.288 802.474 484.11 801.622 482.347 z"/>
<path transform="translate(0,0)" fill="rgb(240,241,245)" d="M 816.676 469.491 C 818.832 468.295 821.469 468.374 823.549 469.697 C 825.629 471.021 826.818 473.377 826.646 475.836 C 826.475 478.296 824.972 480.464 822.728 481.487 C 819.444 482.984 815.563 481.621 813.937 478.398 C 812.311 475.175 813.52 471.243 816.676 469.491 z"/>
<path transform="translate(0,0)" fill="rgb(26,32,54)" d="M 633.354 1166.7 C 621.512 1172.78 613.648 1181.89 601.737 1167.27 C 597.813 1162.46 595.987 1156.28 596.668 1150.11 C 598.894 1131.6 623.951 1129.4 633.759 1144.55 C 631.055 1142.35 631.312 1141.81 628.359 1141.41 C 628.858 1144.01 628.791 1145.47 630.536 1147.38 L 632.734 1146.31 L 634.013 1148.67 L 636.154 1149.75 C 636.459 1153.9 635.765 1162.95 633.354 1166.7 z"/>
<path transform="translate(0,0)" fill="rgb(55,61,82)" d="M 610.232 1140.75 C 627.675 1139.02 634.53 1154.55 622.231 1166.64 C 619.755 1169.07 615.929 1168.28 612.568 1167.77 C 604.965 1163.65 602.745 1160.32 600.499 1151.5 C 599.742 1148.52 601.348 1143.41 604.752 1142.9 C 603.961 1145.04 602.456 1147.9 602.787 1149.75 C 605.481 1146.06 607.12 1144.09 610.232 1140.75 z"/>
<path transform="translate(0,0)" fill="rgb(240,241,245)" d="M 614.031 1147.52 C 616.371 1146.88 618.869 1147.57 620.553 1149.32 C 622.237 1151.06 622.841 1153.58 622.13 1155.9 C 621.419 1158.21 619.505 1159.96 617.134 1160.46 C 613.608 1161.2 610.133 1159 609.293 1155.49 C 608.453 1151.99 610.553 1148.46 614.031 1147.52 z"/>
<path transform="translate(0,0)" fill="rgb(55,61,82)" d="M 1452.5 614.502 C 1454.35 613.301 1453.41 613.803 1456.11 613.78 C 1458.42 615.096 1458.8 616.77 1459.99 619.263 L 1460.5 620.355 L 1461.78 620.524 L 1462.61 616.093 C 1474.96 626.094 1469.51 649.365 1451.09 653.407 C 1448.95 652.501 1439.9 649.045 1438.79 647.564 C 1427.36 632.31 1431.64 613.901 1452.5 614.502 z"/>
<path transform="translate(0,0)" fill="rgb(225,191,115)" d="M 1449.13 626.527 C 1452.45 624.86 1456.49 626.157 1458.21 629.443 C 1459.94 632.728 1458.71 636.789 1455.45 638.569 C 1453.3 639.749 1450.67 639.674 1448.59 638.372 C 1446.5 637.07 1445.28 634.745 1445.4 632.29 C 1445.51 629.834 1446.94 627.631 1449.13 626.527 z"/>
<path transform="translate(0,0)" fill="rgb(55,61,82)" d="M 1186.45 1552.43 C 1200.42 1548.59 1205.09 1560 1204.64 1571.68 L 1204.58 1573.03 L 1205.22 1571.07 C 1205 1580.49 1194.78 1591.02 1184.9 1585.67 C 1176.87 1581.32 1177.01 1583.91 1173.32 1574.74 C 1179.86 1577.67 1172.07 1576.55 1180.57 1579.7 L 1181.57 1578.97 C 1178.06 1576.57 1177 1575.67 1173.99 1572.67 C 1173.12 1566.62 1172.73 1563.22 1175.5 1557.78 C 1181.77 1552.02 1197.69 1558.16 1201.29 1562.74 C 1201.11 1560.12 1201.36 1560.98 1200.21 1558.72 C 1196.15 1557.05 1193.31 1554.47 1189.26 1553.3 C 1185.8 1552.29 1190.07 1554.13 1186.45 1552.43 z"/>
<path transform="translate(0,0)" fill="rgb(225,191,115)" d="M 1187.08 1563.54 C 1190.42 1562.24 1194.19 1563.8 1195.63 1567.08 C 1197.07 1570.36 1195.67 1574.19 1192.45 1575.77 C 1190.25 1576.85 1187.63 1576.63 1185.63 1575.21 C 1183.63 1573.78 1182.57 1571.38 1182.88 1568.94 C 1183.18 1566.5 1184.8 1564.43 1187.08 1563.54 z"/>
<path transform="translate(0,0)" fill="rgb(55,61,82)" d="M 1620.88 952.304 C 1623.98 951.477 1626.71 951.686 1629.93 951.684 L 1629.72 952.696 C 1627.37 953.816 1625.59 953.735 1622.99 953.93 C 1628.22 954.445 1630.9 953.76 1631.01 959.49 L 1634.53 960.274 C 1638.37 959.055 1636.78 960.126 1639.32 956.713 C 1643.77 964.35 1643.87 968.321 1640.55 976.534 L 1642.95 972.374 C 1642.46 978.258 1638.07 981.103 1633.56 984.112 C 1629.53 985.436 1624.09 987.458 1620.22 985.754 C 1621.77 982.864 1630.37 984.907 1633.9 980.62 L 1633.47 979.621 C 1628.3 981.511 1626.85 981.707 1621.35 981.632 L 1621.65 981.792 C 1617.22 981.745 1615.28 982.122 1611.43 980.237 C 1608.15 976.238 1610.52 965.372 1610.51 958.202 C 1614.82 955.059 1615.92 954.101 1620.88 952.304 z"/>
<path transform="translate(0,0)" fill="rgb(221,191,123)" d="M 1623.27 962.511 C 1625.57 961.678 1628.14 962.158 1629.98 963.765 C 1631.82 965.372 1632.65 967.852 1632.13 970.242 C 1631.62 972.631 1629.85 974.553 1627.51 975.261 C 1624.03 976.314 1620.34 974.402 1619.19 970.947 C 1618.04 967.493 1619.85 963.752 1623.27 962.511 z"/>
<path transform="translate(0,0)" fill="rgb(225,191,115)" d="M 1624.35 965.448 C 1625.96 964.847 1627.77 965.545 1628.57 967.076 C 1629.36 968.607 1628.89 970.488 1627.46 971.462 C 1626.38 972.207 1624.96 972.258 1623.82 971.593 C 1622.68 970.928 1622.02 969.666 1622.14 968.353 C 1622.25 967.039 1623.11 965.908 1624.35 965.448 z"/>
<path transform="translate(0,0)" fill="rgb(55,61,82)" d="M 708.478 1546.06 L 705.137 1546.53 L 705.169 1545.31 C 710.269 1537.2 720.784 1535.99 726.187 1545.17 C 727.118 1546.74 727.013 1546.87 728.535 1547.9 L 729.391 1547.47 L 728.124 1542.58 C 731.446 1545.78 732.022 1555.94 732.837 1560.67 C 733.094 1562.16 731.36 1561.77 731.131 1565.86 L 727.477 1568.28 L 729.42 1569.21 C 725.811 1572.14 723.261 1573.78 718.304 1573.33 C 713.62 1572.9 709.314 1570.58 706.38 1566.91 C 701.449 1560.72 701.717 1550.7 708.478 1546.06 z"/>
<path transform="translate(0,0)" fill="rgb(26,32,54)" d="M 708.478 1546.06 L 705.137 1546.53 L 705.169 1545.31 C 710.269 1537.2 720.784 1535.99 726.187 1545.17 C 717.74 1542.25 716.684 1542.78 708.478 1546.06 z"/>
<path transform="translate(0,0)" fill="rgb(225,191,115)" d="M 716.337 1549.69 C 719.825 1548.32 723.768 1550.03 725.143 1553.52 C 726.518 1557.01 724.804 1560.95 721.315 1562.33 C 717.826 1563.7 713.885 1561.99 712.51 1558.5 C 711.135 1555.01 712.849 1551.07 716.337 1549.69 z"/>
<path transform="translate(0,0)" fill="rgb(55,61,82)" d="M 423.514 917.998 C 428.504 919.103 435.225 917.414 437.124 921.141 C 434.493 921.225 432.756 921.217 430.132 921.716 C 433.871 922.719 434.774 922.407 438.584 921.605 C 445.489 923.638 443.668 934.782 443.52 940.483 L 444.357 940.967 C 447.501 937.053 443.844 935.058 446.176 931.225 C 453.245 938.524 447.023 943.213 440.862 947.67 L 439.75 948.462 L 439.717 950.122 L 436.457 950.627 C 434.112 949.399 434.141 949.376 432.198 947.555 L 435.405 946.368 C 431.163 942.969 425.624 947.771 422.315 945.77 C 417.361 942.775 414.108 932.278 416.508 927.07 C 417.147 930.49 417.546 935.432 419.992 937.573 L 421.373 936.788 C 421.905 933.465 421.551 932.932 420.545 929.816 L 418.899 924.691 C 420.085 921.168 420.96 920.62 423.514 917.998 z"/>
<path transform="translate(0,0)" fill="rgb(225,191,115)" d="M 430.7 927.511 C 434.294 926.789 437.8 929.094 438.562 932.68 C 439.325 936.265 437.06 939.797 433.484 940.601 C 431.133 941.129 428.681 940.353 427.062 938.569 C 425.443 936.785 424.908 934.269 425.661 931.981 C 426.413 929.692 428.338 927.985 430.7 927.511 z"/>
</svg>