<svg version="1.1" xmlns="http://www.w3.org/2000/svg" style="display: block;" viewBox="0 0 2048 2048" width="1024" height="1024" preserveAspectRatio="none">
<defs>
	<linearGradient id="Gradient1" gradientUnits="userSpaceOnUse" x1="684.42" y1="1035.88" x2="1942.87" y2="989.578">
		<stop class="stop0" offset="0" stop-opacity="1" stop-color="rgb(197,164,97)"/>
		<stop class="stop1" offset="1" stop-opacity="1" stop-color="rgb(245,214,128)"/>
	</linearGradient>
</defs>
<path transform="translate(0,0)" fill="rgb(23,38,58)" d="M 0 0 L 984.134 0 L 1066.95 0 L 2048 0 L 2048 982.265 L 2048 1066.7 L 2048 2048 L 1060.64 2048 L 988.518 2048 L 0 2048 L 0 1062.47 L 0 983.363 L 0 0 z"/>
<path transform="translate(0,0)" fill="rgb(254,254,254)" d="M 0 0 L 984.134 0 C 964.657 2.44938 942.044 3.04391 921.97 4.9863 C 884.958 8.68766 848.165 14.3279 811.744 21.8837 C 575.587 72.3642 364.719 204.325 216.077 394.651 C 111.751 528.205 42.417 685.691 14.3622 852.824 C 9.80082 878.898 6.40919 905.162 4.19748 931.538 C 3.06718 945.262 2.1972 970.896 0 983.363 L 0 0 z"/>
<path transform="translate(0,0)" fill="rgb(254,254,254)" d="M 0 1062.47 L 0.157149 1063.51 C 2.78706 1081.86 3.33125 1107.81 5.19392 1127.3 C 8.80314 1164.67 14.5609 1201.8 22.4385 1238.51 C 74.317 1479.73 211.362 1694.19 408.471 1842.6 C 540.981 1942.36 695.791 2008.34 859.521 2034.85 C 886.01 2039.1 912.658 2042.29 939.4 2044.42 C 949.676 2045.19 980.226 2046.42 988.518 2048 L 0 2048 L 0 1062.47 z"/>
<path transform="translate(0,0)" fill="rgb(254,254,254)" d="M 1066.95 0 L 2048 0 L 2048 982.265 C 2046.61 975.456 2045.13 945.091 2044.4 936.322 C 2042.21 908.643 2038.71 881.082 2033.92 853.732 C 2006.39 688.526 1938.47 532.681 1836.19 400.051 C 1688.44 207.996 1477.54 74.3715 1240.78 22.8053 C 1203.84 14.9227 1166.5 9.00121 1128.94 5.06575 C 1110.08 3.20013 1085.61 2.66873 1067.99 0.15675 L 1066.95 0 z"/>
<path transform="translate(0,0)" fill="rgb(254,254,254)" d="M 1060.64 2048 C 1070.41 2046.3 1100.11 2045.04 1111.5 2044.16 C 1139.23 2041.95 1166.86 2038.57 1194.32 2034.03 C 1362.03 2005.76 1520.05 1936.14 1654.11 1831.48 C 1844.77 1682.75 1976.66 1471.35 2026.44 1234.72 C 2033.86 1198.89 2039.43 1162.7 2043.12 1126.3 C 2045.03 1106.85 2045.68 1085.82 2048 1066.7 L 2048 2048 L 1060.64 2048 z"/>
<path transform="translate(0,0)" fill="rgb(23,38,58)" d="M 644.171 184.343 C 1015.46 16.2805 1453.04 112.107 1720.11 419.961 C 1987.17 727.815 2020.25 1174.55 1801.45 1518.38 C 1582.65 1862.22 1163.96 2021.46 771.967 1909.93 C 400.081 1804.12 133.818 1477.37 105.262 1091.78 C 76.705 706.189 291.929 343.785 644.171 184.343 z"/>
<path transform="translate(0,0)" fill="url(#Gradient1)" d="M 644.171 184.343 C 1015.46 16.2805 1453.04 112.107 1720.11 419.961 C 1987.17 727.815 2020.25 1174.55 1801.45 1518.38 C 1582.65 1862.22 1163.96 2021.46 771.967 1909.93 C 776.642 1908.76 783.211 1911.25 787.947 1910.62 C 790.633 1909.94 793.075 1907.01 795.978 1907.39 C 802.596 1908.27 804.831 1903.54 804.015 1897.59 C 801.744 1894.73 797.082 1894.53 792.316 1892.93 L 792.268 1891.68 C 801.937 1893.37 816.283 1897.37 826.277 1899.69 C 846.464 1904.4 866.823 1908.35 887.31 1911.52 C 1037.25 1935.13 1190.75 1919.73 1333.01 1866.8 C 1555.12 1784.64 1736.16 1618.66 1837.27 1404.5 C 1957.21 1145.03 1950.9 848.125 1813.61 596.37 C 1721.59 426.656 1577.61 290.895 1402.79 209.003 C 1211.12 119.633 994.021 100.892 789.867 156.091 C 758.931 164.633 728.441 174.718 698.512 186.308 C 683.789 192.103 668.217 199.6 653.726 204.959 C 653.93 202.199 657.023 202.867 659.002 199.917 C 662.178 195.183 656.003 185.295 651.89 182.922 C 648.561 184.896 647.749 185.472 644.171 184.343 z"/>
<path transform="translate(0,0)" fill="rgb(185,148,79)" d="M 644.171 184.343 C 647.749 185.472 648.561 184.896 651.89 182.922 C 656.003 185.295 662.178 195.183 659.002 199.917 C 657.023 202.867 653.93 202.199 653.726 204.959 C 642.015 211.15 629.512 216.634 617.567 222.806 C 589.737 236.88 562.719 252.508 536.644 269.618 C 361.277 383.222 230.867 554.268 167.753 753.457 C 95.1513 982.395 117.679 1230.91 230.265 1443.06 C 341.963 1653.35 532.202 1811 759.571 1881.7 C 769.924 1884.88 782.275 1888.04 792.268 1891.68 L 792.316 1892.93 C 797.082 1894.53 801.744 1894.73 804.015 1897.59 C 804.831 1903.54 802.596 1908.27 795.978 1907.39 C 793.075 1907.01 790.633 1909.94 787.947 1910.62 C 783.211 1911.25 776.642 1908.76 771.967 1909.93 C 400.081 1804.12 133.818 1477.37 105.262 1091.78 C 76.705 706.189 291.929 343.785 644.171 184.343 z"/>
<path transform="translate(0,0)" fill="rgb(252,209,92)" d="M 702.898 1161.73 C 704.467 1145.85 705.704 1132.41 708.953 1116.75 C 724.09 1044.63 763.638 979.932 820.925 933.574 C 886.659 879.488 971.233 853.82 1055.94 862.247 C 1142.12 871.091 1221.16 914.099 1275.39 981.656 C 1316.69 1033 1341.02 1095.91 1345 1161.69 C 1435.02 1160.74 1526.1 1161.64 1616.19 1161.74 L 1698.14 1161.62 C 1712.82 1161.58 1727.93 1161.01 1742.5 1162.32 C 1764.46 1164.3 1778.48 1183.09 1779.32 1204.19 C 1779.09 1214.25 1776.29 1223.59 1769.62 1231.24 C 1762.09 1239.87 1751.56 1245.72 1739.97 1246.13 C 1714.33 1247.05 1688.05 1246.7 1662.35 1246.69 L 1522.15 1246.63 L 1090.93 1246.64 L 565.563 1246.62 L 397.352 1246.63 C 368.36 1246.64 339.259 1246.96 310.287 1246.39 C 286.306 1245.92 270.004 1227.66 268.753 1204.4 C 269.076 1183.24 283.296 1164.41 304.843 1162.44 C 319.825 1161.06 336.093 1161.67 351.219 1161.71 L 433.001 1161.77 L 702.898 1161.73 z"/>
<path transform="translate(0,0)" fill="rgb(36,112,166)" d="M 702.898 1161.73 L 1128.14 1161.81 C 1199.99 1161.8 1273.23 1162.51 1345 1161.69 C 1435.02 1160.74 1526.1 1161.64 1616.19 1161.74 L 1698.14 1161.62 C 1712.82 1161.58 1727.93 1161.01 1742.5 1162.32 C 1764.46 1164.3 1778.48 1183.09 1779.32 1204.19 C 1779.09 1214.25 1776.29 1223.59 1769.62 1231.24 C 1762.09 1239.87 1751.56 1245.72 1739.97 1246.13 C 1714.33 1247.05 1688.05 1246.7 1662.35 1246.69 L 1522.15 1246.63 L 1090.93 1246.64 L 565.563 1246.62 L 397.352 1246.63 C 368.36 1246.64 339.259 1246.96 310.287 1246.39 C 286.306 1245.92 270.004 1227.66 268.753 1204.4 C 269.076 1183.24 283.296 1164.41 304.843 1162.44 C 319.825 1161.06 336.093 1161.67 351.219 1161.71 L 433.001 1161.77 L 702.898 1161.73 z"/>
<path transform="translate(0,0)" fill="rgb(68,145,197)" d="M 702.898 1161.73 L 1128.14 1161.81 C 1199.99 1161.8 1273.23 1162.51 1345 1161.69 C 1435.02 1160.74 1526.1 1161.64 1616.19 1161.74 L 1698.14 1161.62 C 1712.82 1161.58 1727.93 1161.01 1742.5 1162.32 C 1764.46 1164.3 1778.48 1183.09 1779.32 1204.19 L 815.407 1204.14 L 471.594 1204.12 C 403.98 1203.8 336.365 1203.89 268.753 1204.4 C 269.076 1183.24 283.296 1164.41 304.843 1162.44 C 319.825 1161.06 336.093 1161.67 351.219 1161.71 L 433.001 1161.77 L 702.898 1161.73 z"/>
<path transform="translate(0,0)" fill="rgb(252,209,92)" d="M 1020.33 568.944 C 1023.21 568.871 1025.95 568.861 1028.75 569.664 C 1034.62 571.355 1039.61 575.155 1042.4 580.654 C 1044.45 584.716 1044.49 590.482 1044.72 595.001 C 1045.68 614.72 1046.9 781.494 1043.3 790.323 C 1040.55 797.065 1034.41 800.297 1028.07 802.948 C 1024.75 802.932 1021.4 802.761 1018.22 801.75 C 1012.99 800.086 1007.49 795.894 1005.14 790.819 C 1003.09 786.391 1003.27 779.082 1003.08 774.193 C 1002.27 752.774 1001.56 590.639 1005.05 582.099 C 1008.06 574.713 1013.37 571.917 1020.33 568.944 z"/>
<path transform="translate(0,0)" fill="rgb(252,209,92)" d="M 591.016 748.163 C 599.631 747.203 605.012 747.516 611.676 753.865 C 619.746 761.555 627.486 769.623 635.345 777.534 L 684.342 827.015 L 721.502 864.693 C 729.382 872.637 746.335 888.784 751.571 897.596 C 753.9 901.599 754.465 906.388 753.132 910.822 C 750.822 918.535 745.155 922.4 738.657 926.032 C 719.692 927.561 710.635 912.249 698.032 899.421 L 657.643 858.359 L 605.581 805.969 C 589.827 789.977 558.358 766.173 591.016 748.163 z"/>
<path transform="translate(0,0)" fill="rgb(252,209,92)" d="M 1445.27 748.131 C 1468.43 745.642 1479.51 766.981 1464.38 783.344 C 1445.11 804.197 1424.42 824.118 1404.52 844.431 L 1356.78 892.828 C 1347.32 902.455 1332.01 919.99 1320.71 926.044 C 1300.95 927.85 1288.62 909.232 1295.62 899.642 C 1309.72 880.332 1346.73 843.035 1364.11 827.114 C 1383.94 808.937 1425.9 758.878 1445.27 748.131 z"/>
<path transform="translate(0,0)" fill="rgb(254,254,254)" d="M 520.758 406.861 C 529.069 410.897 526.515 410.201 535.854 408.787 C 532.767 417.042 532.843 415.364 537.018 422.781 C 533.729 422.775 532.494 421.028 530.781 420.516 C 530.781 420.516 523.108 421.198 522.606 421.242 L 523.461 420.486 C 524.785 413.615 524.109 412.924 520.758 406.861 z"/>
<path transform="translate(0,0)" fill="rgb(254,254,254)" d="M 346.19 973.502 C 357.116 979.899 353.302 974.444 360.537 976.312 C 357.878 982.446 357.887 981.982 361.163 987.958 L 361.793 989.089 L 360.645 989.317 C 350.223 982.298 354.451 988.792 346.908 989.119 C 350.896 981.786 350.79 982.091 346.929 974.859 L 346.19 973.502 z"/>
<path transform="translate(0,0)" fill="rgb(254,254,254)" d="M 1689.76 838.12 C 1700.8 843.436 1695.11 839.048 1703.83 839.965 C 1700.06 846.415 1700.56 845.403 1704.26 851.477 C 1699.21 851.936 1700.86 849.046 1696.04 849.796 C 1695 849.957 1693.29 852.413 1690.76 852.347 C 1693.94 844.174 1693.79 845.426 1689.76 838.12 z"/>
<path transform="translate(0,0)" fill="rgb(254,254,254)" d="M 888.367 482.716 C 892.91 487.277 885.873 484.643 895.706 491.953 L 894.558 491.715 C 890.19 494.809 890.183 496.262 889.369 501.271 L 888.46 500.346 C 887.786 497.356 887.819 496.776 886.319 494.045 C 883.627 493.135 884.076 493.484 881.772 491.985 C 887.741 487.307 886.768 489.167 888.367 482.716 z"/>
</svg>