<svg version="1.1" xmlns="http://www.w3.org/2000/svg" style="display: block;" viewBox="0 0 2048 2048" width="2048" height="2048" preserveAspectRatio="none">
<defs>
	<linearGradient id="Gradient1" gradientUnits="userSpaceOnUse" x1="1013.98" y1="1789.87" x2="1033.84" y2="255.933">
		<stop class="stop0" offset="0" stop-opacity="1" stop-color="rgb(204,162,90)"/>
		<stop class="stop1" offset="1" stop-opacity="1" stop-color="rgb(231,196,128)"/>
	</linearGradient>
	<linearGradient id="Gradient2" gradientUnits="userSpaceOnUse" x1="992.376" y1="1976.14" x2="1055.23" y2="67.337">
		<stop class="stop0" offset="0" stop-opacity="1" stop-color="rgb(199,156,83)"/>
		<stop class="stop1" offset="1" stop-opacity="1" stop-color="rgb(231,197,130)"/>
	</linearGradient>
</defs>
<path transform="translate(0,0)" fill="rgb(12,22,50)" d="M 0 0 L 992.423 0 L 1057.55 0 L 2048 0 L 2048 2048 L 1053.59 2048 L 992.36 2048 L 0 2048 L 0 0 z"/>
<path transform="translate(0,0)" fill="rgb(253,254,254)" d="M 0 0 L 992.423 0 L 991.397 0.142612 C 975.97 2.15804 952.076 2.46182 935.144 3.91436 C 897.909 7.08239 860.899 12.4853 824.313 20.0938 C 584.891 72.3186 371.534 207.255 221.737 401.192 C 54.4669 613.205 -21.0152 883.333 12.1204 1151.35 C 47.0736 1423.75 188.67 1671.16 405.836 1839.27 C 538.794 1941.69 695.357 2009.05 861.142 2035.17 C 888.39 2039.59 915.821 2042.79 943.354 2044.77 C 955.191 2045.65 982.613 2046.35 992.36 2048 L 0 2048 L 0 0 z"/>
<path transform="translate(0,0)" fill="rgb(253,254,254)" d="M 1057.55 0 L 2048 0 L 2048 2048 L 1053.59 2048 C 1059.66 2046.75 1093.03 2045.58 1102.23 2044.91 C 1131.89 2042.78 1161.44 2039.31 1190.78 2034.51 C 1358.77 2007.34 1517.09 1937.86 1650.82 1832.62 C 1867.01 1662.28 2006.34 1412.76 2037.92 1139.34 C 2067.72 872.34 1990.04 604.456 1822.04 394.803 C 1671.99 203.496 1459.69 70.7606 1222 19.6302 C 1187.09 12.4191 1151.79 7.24035 1116.27 4.12004 C 1098.3 2.56761 1075.54 2.18732 1058.65 0.141542 L 1057.55 0 z"/>
<path transform="translate(0,0)" fill="url(#Gradient2)" d="M 1005.33 65.6878 L 1005.68 63.6803 C 1019.99 63.19 1072.09 62.3779 1082.94 64.9641 L 1087.38 65.9824 L 1087.68 67.5851 C 1342.36 86.8488 1578.67 207.494 1743.63 402.481 C 1880.18 560.874 1961.25 759.543 1974.49 968.253 L 1976.2 968.779 C 1980.17 982.157 1980.17 1075.3 1974.74 1085.28 L 1974.45 1086.65 C 1973.12 1093.09 1971.22 1121.43 1970.22 1130 C 1967.01 1157.81 1962.66 1185.48 1957.19 1212.93 C 1927.03 1359.54 1862.77 1497 1769.64 1614.17 C 1746.81 1643.32 1722.27 1671.07 1696.13 1697.29 C 1686.97 1706.49 1677.63 1715.51 1668.12 1724.35 C 1665.96 1726.34 1649.7 1740.92 1648.86 1742.2 C 1647.45 1752.15 1636.3 1758.44 1627.19 1760.48 C 1523.78 1842.93 1412.49 1906.14 1284.49 1942.4 C 1273.27 1945.58 1252.31 1949.63 1242.38 1953.86 C 1229.84 1968.08 1067.49 1982.78 1040.86 1982.3 C 1023.81 1981.99 920.838 1981.52 909.87 1972.69 C 903.756 1970.28 868.018 1966.29 858.283 1964.59 C 847.984 1967.39 773.684 1951.54 766.692 1943.5 C 763.336 1941.83 734.848 1933.37 729.605 1931.69 C 709.841 1925.31 690.342 1918.14 671.153 1910.19 C 571.409 1869.36 479.188 1812.15 398.3 1740.92 C 252.618 1612.3 149.028 1442.81 101.012 1254.5 C 94.7369 1229.56 82.6445 1175.73 80.9773 1150.12 C 78.3067 1138.27 77.0221 1117.9 75.4832 1105.13 L 73.8079 1105.38 C 68.9789 1086.33 66.2762 988.265 71.8046 971.8 L 73.5763 971.307 C 74.17 962.118 74.8532 952.936 75.6258 943.76 C 91.2047 769.148 154.4 602.159 258.328 460.982 C 407.934 254.771 633.202 116.294 884.746 75.9113 C 891.324 70.1275 930.22 66.3315 939.191 69.4309 C 961.194 67.4918 983.252 66.2435 1005.33 65.6878 z"/>
<path transform="translate(0,0)" fill="rgb(12,15,35)" d="M 909.87 1972.69 C 936.123 1973.78 964.152 1977.79 992.489 1978.76 C 1081.95 1981.83 1155.71 1972.81 1242.38 1953.86 C 1229.84 1968.08 1067.49 1982.78 1040.86 1982.3 C 1023.81 1981.99 920.838 1981.52 909.87 1972.69 z"/>
<path transform="translate(0,0)" fill="rgb(12,15,35)" d="M 75.4832 1105.13 L 73.8079 1105.38 C 68.9789 1086.33 66.2762 988.265 71.8046 971.8 L 73.5763 971.307 C 71.902 999.003 71.5166 1026.76 72.4211 1054.49 C 72.6356 1060.18 72.952 1073.13 73.905 1078.06 C 74.0043 1081.63 73.9872 1087.37 74.5084 1090.73 L 75.4832 1105.13 z"/>
<path transform="translate(0,0)" fill="rgb(207,170,105)" d="M 75.6258 943.76 C 79.7005 960.471 74.2492 972.804 74.5373 989.328 C 74.9378 1012.3 75.8484 1035.15 74.6512 1058.14 C 74.3855 1063.52 74.6917 1073.35 73.905 1078.06 C 72.952 1073.13 72.6356 1060.18 72.4211 1054.49 C 71.5166 1026.76 71.902 999.003 73.5763 971.307 C 74.17 962.118 74.8532 952.936 75.6258 943.76 z"/>
<path transform="translate(0,0)" fill="rgb(12,15,35)" d="M 1974.49 968.253 L 1976.2 968.779 C 1980.17 982.157 1980.17 1075.3 1974.74 1085.28 C 1975.04 1042.97 1977.28 1012.47 1974.49 968.253 z"/>
<path transform="translate(0,0)" fill="rgb(12,15,35)" d="M 766.692 1943.5 C 796.247 1950.73 828.194 1959.92 858.283 1964.59 C 847.984 1967.39 773.684 1951.54 766.692 1943.5 z"/>
<path transform="translate(0,0)" fill="rgb(12,15,35)" d="M 1005.33 65.6878 L 1005.68 63.6803 C 1019.99 63.19 1072.09 62.3779 1082.94 64.9641 L 1087.38 65.9824 L 1087.68 67.5851 C 1060.27 65.8801 1032.8 65.2472 1005.33 65.6878 z"/>
<path transform="translate(0,0)" fill="rgb(207,170,105)" d="M 74.5084 1090.73 C 81.7193 1098.44 82.2614 1138.85 80.9773 1150.12 C 78.3067 1138.27 77.0221 1117.9 75.4832 1105.13 L 74.5084 1090.73 z"/>
<path transform="translate(0,0)" fill="rgb(12,15,35)" d="M 884.746 75.9113 C 891.324 70.1275 930.22 66.3315 939.191 69.4309 C 921.494 71.218 902.298 73.0654 884.746 75.9113 z"/>
<path transform="translate(0,0)" fill="rgb(12,15,35)" d="M 1648.86 1742.2 C 1647.45 1752.15 1636.3 1758.44 1627.19 1760.48 C 1634.29 1754.25 1641.52 1748.15 1648.86 1742.2 z"/>
<path transform="translate(0,0)" fill="rgb(12,22,50)" d="M 96.3722 930.557 C 98.3136 905.723 102.555 879.507 107.062 855.009 C 177.044 474.631 489.634 161.413 872.579 96.7746 C 1112.08 56.3908 1357.78 113.586 1554.83 255.59 C 1733.36 381.9 1863.26 565.525 1922.93 775.921 C 1937.71 828.359 1941.81 860.176 1950.57 912.081 C 1957.13 919.705 1955.06 933.672 1953.93 943.223 C 1954.43 956.739 1955.77 970.098 1956.37 983.555 C 1962.01 991.382 1960.97 1069.41 1955.95 1077.38 C 1954.91 1088.86 1950.34 1146.3 1947.32 1155.1 C 1946.38 1165.74 1943.76 1176.3 1942.89 1185.68 C 1944.52 1196.28 1943.68 1204.66 1938.85 1214.58 L 1937.34 1214.94 C 1935.07 1222.96 1933.28 1231.08 1931.4 1239.2 C 1877.32 1473.85 1722.3 1687.57 1518.66 1815.65 C 1515.17 1817.84 1511.86 1819.94 1508.19 1821.83 C 1496.6 1830.73 1464.43 1847.75 1450.94 1854.62 C 1440 1860.92 1398.88 1881.55 1387.23 1885.3 C 1339.73 1905.94 1306.53 1915.35 1257.94 1930.36 C 1255.56 1936.25 1221.64 1942.55 1213.85 1940.67 C 1181.29 1947.12 1128.46 1956.6 1094.9 1957.34 L 1093.17 1957.67 C 951.493 1968.49 809.25 1946.11 677.748 1892.3 C 671.936 1889.91 666.098 1887.59 660.235 1885.33 C 653.157 1885.68 647.253 1885.71 644.064 1878.31 C 640.337 1874.97 604.764 1859.17 596.865 1854.53 C 590.128 1851.44 554.932 1832.38 549.855 1827.7 C 516.642 1813.94 418.362 1736.63 392.734 1709.83 C 385.91 1703.77 374.188 1693.48 368.757 1686.57 C 359.967 1679.65 338.876 1655.84 331.201 1647.28 C 262.978 1571.18 213.721 1492.49 171.134 1400.02 C 162.623 1394.65 163.297 1391.98 163.702 1382.81 C 151.751 1351.07 141.069 1325.48 131.583 1292.24 C 119.495 1253.62 104.372 1191.37 100.616 1150.9 C 99.3856 1147.62 96.944 1124.01 96.4044 1119.12 C 89.7007 1056.44 89.6899 993.233 96.3722 930.557 z"/>
<path transform="translate(0,0)" fill="rgb(12,15,35)" d="M 677.748 1892.3 C 682.797 1890.88 707.019 1900.97 713.775 1903.44 C 743.484 1914.3 773.778 1923.49 804.515 1930.97 C 820.823 1934.8 832.379 1934.81 849.63 1940.19 L 847.186 1939.83 L 865.975 1944.62 C 883.51 1949.15 907.597 1947.78 925.531 1951.84 C 945.001 1956.26 965.294 1955.29 984.758 1955.9 C 1011.37 1956.75 1037.21 1956.11 1063.73 1956.55 C 1072.24 1956.69 1085.84 1955.93 1093.17 1957.67 C 951.493 1968.49 809.25 1946.11 677.748 1892.3 z"/>
<path transform="translate(0,0)" fill="rgb(12,15,35)" d="M 1094.9 1957.34 L 1094.68 1956.28 C 1098.22 1954.54 1115.89 1953.38 1121.47 1952.35 C 1149.65 1947 1179.21 1945.06 1207.3 1939.76 C 1234.9 1934.56 1262.77 1925.02 1289.91 1917.86 C 1299.56 1915.31 1307.22 1912.77 1316.46 1908.93 C 1338.37 1899.83 1361.34 1893.24 1383.54 1884.82 C 1384.52 1884.44 1386.29 1885.03 1387.23 1885.3 C 1339.73 1905.94 1306.53 1915.35 1257.94 1930.36 C 1255.56 1936.25 1221.64 1942.55 1213.85 1940.67 C 1181.29 1947.12 1128.46 1956.6 1094.9 1957.34 z"/>
<path transform="translate(0,0)" fill="rgb(207,170,105)" d="M 1213.85 1940.67 C 1228.61 1937.63 1243.31 1933.21 1257.94 1930.36 C 1255.56 1936.25 1221.64 1942.55 1213.85 1940.67 z"/>
<path transform="translate(0,0)" fill="rgb(12,15,35)" d="M 96.3722 930.557 C 100.47 944.658 92.9464 998.797 93.5408 1016.77 C 94.2274 1037.54 94.8374 1063.19 95.8213 1084.06 C 96.2185 1092.49 99.3871 1114.62 96.4044 1119.12 C 89.7007 1056.44 89.6899 993.233 96.3722 930.557 z"/>
<path transform="translate(0,0)" fill="rgb(12,15,35)" d="M 100.616 1150.9 L 102.145 1150.86 C 103.547 1155.09 104.348 1160.36 104.89 1164.83 C 108.151 1191.73 114.07 1218.16 120.947 1244.36 C 122.885 1251.74 126.257 1258.16 127.509 1265.88 L 126.791 1264.37 C 128.239 1270.64 133.06 1287.19 131.583 1292.24 C 119.495 1253.62 104.372 1191.37 100.616 1150.9 z"/>
<path transform="translate(0,0)" fill="rgb(12,15,35)" d="M 1931.4 1239.2 C 1931.16 1238.41 1930.43 1236.34 1930.6 1235.03 C 1933.96 1208.63 1941.09 1183.24 1945.59 1156.98 C 1946.17 1156.36 1946.75 1155.73 1947.32 1155.1 C 1946.38 1165.74 1943.76 1176.3 1942.89 1185.68 C 1944.52 1196.28 1943.68 1204.66 1938.85 1214.58 L 1937.34 1214.94 C 1935.07 1222.96 1933.28 1231.08 1931.4 1239.2 z"/>
<path transform="translate(0,0)" fill="rgb(207,170,105)" d="M 1942.89 1185.68 C 1944.52 1196.28 1943.68 1204.66 1938.85 1214.58 L 1937.34 1214.94 C 1937.62 1209.99 1941.73 1191.5 1942.89 1185.68 z"/>
<path transform="translate(0,0)" fill="rgb(207,170,105)" d="M 1956.37 983.555 C 1962.01 991.382 1960.97 1069.41 1955.95 1077.38 C 1956.31 1044.25 1957.98 1017.91 1956.37 983.555 z"/>
<path transform="translate(0,0)" fill="rgb(12,15,35)" d="M 1450.94 1854.62 C 1453.55 1848.86 1501.23 1821.63 1508.19 1821.83 C 1496.6 1830.73 1464.43 1847.75 1450.94 1854.62 z"/>
<path transform="translate(0,0)" fill="rgb(12,15,35)" d="M 549.855 1827.7 C 559.589 1826.53 587.422 1846.64 595.942 1852.09 L 596.865 1854.53 C 590.128 1851.44 554.932 1832.38 549.855 1827.7 z"/>
<path transform="translate(0,0)" fill="rgb(12,15,35)" d="M 368.757 1686.57 L 370.567 1685.87 C 377.053 1689.97 391.364 1702.24 392.734 1709.83 C 385.91 1703.77 374.188 1693.48 368.757 1686.57 z"/>
<path transform="translate(0,0)" fill="rgb(207,170,105)" d="M 1950.57 912.081 C 1957.13 919.705 1955.06 933.672 1953.93 943.223 C 1952.42 935.48 1951.37 920.381 1950.57 912.081 z"/>
<path transform="translate(0,0)" fill="rgb(207,170,105)" d="M 163.702 1382.81 L 171.134 1400.02 C 162.623 1394.65 163.297 1391.98 163.702 1382.81 z"/>
<path transform="translate(0,0)" fill="rgb(207,170,105)" d="M 644.064 1878.31 C 650.319 1880.67 654.244 1882.36 660.235 1885.33 C 653.157 1885.68 647.253 1885.71 644.064 1878.31 z"/>
<path transform="translate(0,0)" fill="url(#Gradient1)" d="M 257.607 958.338 C 269.923 822.648 318.071 692.667 397.123 581.699 C 515.797 414.068 695.943 300.167 898.268 264.839 C 1098.09 231.387 1302.99 279.227 1467.33 397.706 C 1600.8 492.637 1700.88 627.283 1753.31 782.444 C 1762.6 810.062 1773.26 846.541 1778.11 875.486 C 1779.81 882.864 1783.79 901.695 1784.23 909.368 C 1786.94 919.367 1789.31 953.321 1790.71 957 C 1796.17 964.763 1794.71 974.664 1795.01 984.028 C 1795.6 1004.54 1795.76 1025.05 1795.49 1045.57 C 1794.32 1046.97 1795.06 1046.59 1793.31 1046.78 C 1792.51 1067.28 1790.42 1107.52 1786.06 1127.53 C 1785.01 1144.66 1777.41 1179.77 1773.34 1196.6 C 1749.8 1296.45 1706.51 1390.56 1646.01 1473.4 C 1632.19 1492.18 1617.58 1510.38 1602.24 1527.94 C 1595.9 1535.19 1583.27 1548.01 1578.09 1554.89 C 1578.39 1560.87 1562.15 1574.46 1557.09 1578.33 L 1554.88 1578.08 C 1537.39 1593.13 1521.23 1608.9 1502.97 1623.4 C 1444.91 1669.52 1378.62 1709.43 1309.77 1737.1 C 1301.54 1740.41 1273.2 1751.83 1266.56 1752.71 C 1254.97 1757.65 1235.53 1763.14 1223.19 1766.49 C 1170.76 1780.81 1116.94 1789.48 1062.66 1792.33 C 1062.59 1793.46 1062.72 1792.77 1061.91 1794.29 C 1060.14 1794.66 1058.36 1794.97 1056.57 1795.22 C 1041.72 1797.28 957.834 1796.2 948.747 1789.29 C 934.371 1787.65 917.865 1785.88 903.793 1783.02 C 890.989 1782.58 847.535 1772.33 834.375 1768.91 C 710.177 1736.48 596.05 1673.53 502.369 1585.78 C 388.379 1479.97 308.71 1342.42 273.639 1190.89 C 267.623 1164.9 258.774 1117.22 257.897 1090.44 C 256.602 1084.09 255.916 1066.59 255.456 1059.32 L 255.054 1062.46 L 254.139 1062.84 C 249.928 1048.95 252.334 970.97 255.814 958.803 L 257.607 958.338 z"/>
<path transform="translate(0,0)" fill="rgb(207,170,105)" d="M 903.793 1783.02 C 922.131 1780.99 944.868 1787.44 963.092 1788.7 C 1044.99 1794.37 1127.92 1787.83 1207.57 1767.91 C 1217.94 1765.32 1260.37 1752.05 1266.56 1752.71 C 1254.97 1757.65 1235.53 1763.14 1223.19 1766.49 C 1170.76 1780.81 1116.94 1789.48 1062.66 1792.33 C 1062.59 1793.46 1062.72 1792.77 1061.91 1794.29 C 1060.14 1794.66 1058.36 1794.97 1056.57 1795.22 C 1041.72 1797.28 957.834 1796.2 948.747 1789.29 C 934.371 1787.65 917.865 1785.88 903.793 1783.02 z"/>
<path transform="translate(0,0)" fill="rgb(12,15,35)" d="M 948.747 1789.29 C 995.078 1793.52 1017.67 1792.63 1062.66 1792.33 C 1062.59 1793.46 1062.72 1792.77 1061.91 1794.29 C 1060.14 1794.66 1058.36 1794.97 1056.57 1795.22 C 1041.72 1797.28 957.834 1796.2 948.747 1789.29 z"/>
<path transform="translate(0,0)" fill="rgb(207,170,105)" d="M 255.456 1059.32 L 255.054 1062.46 L 254.139 1062.84 C 249.928 1048.95 252.334 970.97 255.814 958.803 L 257.607 958.338 C 257.362 962.426 256.85 967.99 256.915 971.957 C 258.82 990.659 258.255 1020.51 258.701 1039.54 C 258.954 1050.3 259.351 1080.62 257.897 1090.44 C 256.602 1084.09 255.916 1066.59 255.456 1059.32 z"/>
<path transform="translate(0,0)" fill="rgb(12,15,35)" d="M 255.456 1059.32 L 255.054 1062.46 L 254.139 1062.84 C 249.928 1048.95 252.334 970.97 255.814 958.803 L 257.607 958.338 C 257.362 962.426 256.85 967.99 256.915 971.957 C 253.952 992.132 254.52 1038.69 255.456 1059.32 z"/>
<path transform="translate(0,0)" fill="rgb(207,170,105)" d="M 1786.06 1127.53 C 1784.41 1110.71 1787.86 1091.92 1789.13 1074.84 C 1789.87 1064.78 1789.84 1033.92 1793.6 1026.84 L 1793.31 1046.78 C 1792.51 1067.28 1790.42 1107.52 1786.06 1127.53 z"/>
<path transform="translate(0,0)" fill="rgb(12,15,35)" d="M 1790.71 957 C 1796.17 964.763 1794.71 974.664 1795.01 984.028 C 1795.6 1004.54 1795.76 1025.05 1795.49 1045.57 C 1794.32 1046.97 1795.06 1046.59 1793.31 1046.78 L 1793.6 1026.84 C 1793.99 1003.83 1791.96 980.006 1790.71 957 z"/>
<path transform="translate(0,0)" fill="rgb(12,15,35)" d="M 1554.88 1578.08 C 1557.16 1574.78 1574.52 1557.77 1578.09 1554.89 C 1578.39 1560.87 1562.15 1574.46 1557.09 1578.33 L 1554.88 1578.08 z"/>
<path transform="translate(0,0)" fill="rgb(207,170,105)" d="M 1778.11 875.486 C 1779.81 882.864 1783.79 901.695 1784.23 909.368 C 1777.42 902.247 1777.04 885.027 1778.11 875.486 z"/>
<path transform="translate(0,0)" fill="rgb(12,22,50)" d="M 524.747 467.129 C 538.861 452.09 578.484 422.558 595.756 410.467 C 714.36 326.287 855.108 278.856 1000.47 274.081 C 1198.98 268.237 1391.65 341.691 1535.88 478.208 C 1648.72 583.908 1726.37 721.72 1758.31 872.998 C 1763.72 898.568 1767.72 924.412 1770.32 950.418 C 1771.2 959.076 1772.08 987.531 1773.87 993.649 C 1774.66 995.617 1776.12 999.422 1776.2 1002.47 C 1776.8 1025.46 1778.23 1049.58 1775.5 1072.45 C 1775.34 1073.78 1773.61 1074.62 1772.55 1075.2 C 1757.15 1279.3 1659.59 1468.42 1502.19 1599.26 C 1455.79 1637.91 1405.03 1671.01 1350.95 1697.87 C 1342.5 1702.08 1321.01 1712.51 1312.27 1715.39 C 1249.08 1741.81 1179.52 1761.94 1111.26 1769.2 C 1100.58 1777.77 977.334 1780.82 968.703 1772.15 C 944.319 1769.93 920.607 1767.22 896.642 1763.05 C 767.122 1740.49 644.144 1682.12 543.905 1597.19 C 540.187 1594.04 536.185 1590.27 532.019 1587.75 C 521.947 1585.85 505.804 1569.11 502.124 1560.05 C 500.472 1557.11 487.312 1544.31 484.281 1541.26 C 468.727 1525.59 454.691 1509.43 440.733 1492.34 C 333.188 1359.28 274.387 1193.43 274.092 1022.35 C 274.348 995.733 275.96 969.152 278.921 942.704 C 280.413 929.658 282.709 916.378 284.013 903.435 C 282.848 894.315 282.625 880.074 289.885 873.717 C 292.884 860.167 296.071 846.66 299.445 833.199 C 297.49 826.318 303.077 799.949 309.577 798.207 C 313.177 789.455 317.254 776.403 320.647 767.147 C 327.068 749.765 334.1 732.616 341.73 715.73 C 381.311 628.215 451.138 529.671 524.747 467.129 z"/>
<path transform="translate(0,0)" fill="rgb(12,15,35)" d="M 309.577 798.207 C 313.177 789.455 317.254 776.403 320.647 767.147 C 327.068 749.765 334.1 732.616 341.73 715.73 C 381.311 628.215 451.138 529.671 524.747 467.129 C 522.657 473.108 490.385 503.614 483.687 510.556 C 426.361 569.977 381.911 637.599 346.13 711.852 L 346.973 712.257 L 348.776 711.365 C 348.928 716.085 344.892 717.876 343.897 719.94 C 312.643 784.802 292.017 857.194 283.77 928.865 C 282.119 943.212 278.457 956.714 279.703 971.861 C 280.534 981.95 281.347 992.203 277.478 1001.63 C 275.511 1009.88 277.025 1020.67 276.821 1029 C 275.231 1073.97 282.673 1114.61 290.339 1158.45 C 297.899 1201.67 306.975 1235.25 322.256 1276.56 C 337.182 1316.91 351.938 1352.02 373.713 1389.82 C 464.1 1546.86 606.985 1666.99 777.22 1729.05 C 873.782 1763.16 976.333 1777.02 1078.48 1769.76 C 1141.46 1765.18 1203.98 1752.46 1263.59 1731.41 C 1278.64 1726.09 1293.55 1720.26 1308.56 1714.82 C 1309.8 1715.01 1311.04 1715.2 1312.27 1715.39 C 1249.08 1741.81 1179.52 1761.94 1111.26 1769.2 C 1100.58 1777.77 977.334 1780.82 968.703 1772.15 C 944.319 1769.93 920.607 1767.22 896.642 1763.05 C 767.122 1740.49 644.144 1682.12 543.905 1597.19 C 540.187 1594.04 536.185 1590.27 532.019 1587.75 C 521.947 1585.85 505.804 1569.11 502.124 1560.05 C 500.472 1557.11 487.312 1544.31 484.281 1541.26 C 468.727 1525.59 454.691 1509.43 440.733 1492.34 C 333.188 1359.28 274.387 1193.43 274.092 1022.35 C 274.348 995.733 275.96 969.152 278.921 942.704 C 280.413 929.658 282.709 916.378 284.013 903.435 C 282.848 894.315 282.625 880.074 289.885 873.717 C 292.884 860.167 296.071 846.66 299.445 833.199 C 297.49 826.318 303.077 799.949 309.577 798.207 z"/>
<path transform="translate(0,0)" fill="rgb(207,170,105)" d="M 1111.26 1769.2 C 1100.58 1777.77 977.334 1780.82 968.703 1772.15 C 1016.21 1775.7 1063.94 1774.71 1111.26 1769.2 z"/>
<path transform="translate(0,0)" fill="rgb(207,170,105)" d="M 502.124 1560.05 C 508.671 1565.7 526.821 1581.78 532.019 1587.75 C 521.947 1585.85 505.804 1569.11 502.124 1560.05 z"/>
<path transform="translate(0,0)" fill="rgb(207,170,105)" d="M 299.445 833.199 C 297.49 826.318 303.077 799.949 309.577 798.207 L 299.445 833.199 z"/>
<path transform="translate(0,0)" fill="rgb(207,170,105)" d="M 284.013 903.435 C 282.848 894.315 282.625 880.074 289.885 873.717 C 288.144 882.684 286.141 894.794 284.013 903.435 z"/>
<path transform="translate(0,0)" fill="rgb(207,170,105)" d="M 1773.87 993.649 C 1774.66 995.617 1776.12 999.422 1776.2 1002.47 C 1776.8 1025.46 1778.23 1049.58 1775.5 1072.45 C 1775.34 1073.78 1773.61 1074.62 1772.55 1075.2 C 1774.22 1046.17 1774.18 1022.66 1773.87 993.649 z"/>
<path transform="translate(0,0)" fill="rgb(76,155,233)" d="M 1366.99 848.575 C 1368.32 841.296 1382.22 833.718 1389.56 833.311 C 1398.55 832.813 1409.43 824.907 1418.3 821.64 C 1438.77 814.104 1440.91 810.248 1462.7 814.301 C 1470.22 817.543 1471.66 818.619 1475.85 825.637 C 1478.23 843.154 1468 854.679 1458.56 869.721 C 1461.25 880.884 1452.19 883.25 1451.77 892.583 C 1451.19 905.485 1451.96 921.234 1453.29 934.11 C 1453.72 938.207 1457.8 938.985 1457.78 947.294 C 1463.24 952.472 1469.85 956.134 1470.93 963.764 C 1471.32 966.536 1473.76 971.579 1476.6 972.491 C 1492.02 977.442 1528.37 976.332 1516.25 1002.89 L 1515.37 1003.82 C 1513.18 1008.55 1511.17 1013.37 1507.47 1017.14 C 1507.57 1017.28 1510.22 1021.71 1509.46 1020.81 C 1518.54 1031.57 1536.73 1045.89 1527.64 1062.3 C 1520.19 1075.74 1495.83 1082.22 1481.75 1085.78 C 1471.61 1089.24 1462.25 1093.77 1451.89 1096.67 C 1427.85 1103.39 1404.15 1111.13 1379.76 1116.53 C 1374.68 1117.65 1369.18 1126.03 1361.02 1124.01 C 1359.51 1123.63 1358.49 1124.11 1357.45 1125.09 L 1359.16 1126.1 C 1352.09 1131.04 1315.19 1133.39 1305.4 1136.58 C 1296.33 1139.45 1285.99 1141.6 1276.5 1142.22 C 1269.93 1142.54 1262.74 1147.66 1256.15 1148.2 C 1213.55 1151.71 1171.3 1161.77 1128.4 1166.22 C 1121.27 1166.96 1114.68 1161.84 1111.5 1167.2 C 1096.56 1168.16 1081.37 1166.89 1066.38 1167.73 C 1030.43 1169.76 994.583 1168.04 958.62 1169.05 C 948.758 1168.74 939.102 1166.68 929.237 1166.42 C 906.001 1165.8 882.953 1164.58 859.957 1161.26 C 846.108 1159.26 831.992 1161.35 818.01 1156.54 C 807.917 1159.34 804.353 1161.25 795.206 1153.66 C 789.231 1153.23 783.398 1153.81 777.41 1154.19 C 776.577 1152.71 776.061 1151.82 775.12 1150.38 C 757.698 1150.34 742.606 1143.58 723.112 1143.22 C 706.839 1142.92 677.805 1131.57 661.877 1128.16 C 626.563 1120.6 592.622 1109.8 558.504 1098.04 C 542.69 1092.52 527.216 1086.08 512.164 1078.74 C 503.348 1074.45 490.975 1066.83 482.527 1064.57 C 478.59 1059.49 473.365 1052.83 473.983 1045.94 C 473.895 1041.89 474.199 1037.26 474.368 1033.17 C 477.052 1024.98 485.275 1021.75 492.653 1018.82 L 493.656 1018.48 C 493.774 1018.29 495.209 1016.04 495.859 1015.54 C 497.354 1014.13 516.097 1003.67 515.334 1003.28 C 522.664 1007 531.312 998.583 540.418 995.579 C 550.036 992.641 559.744 991.137 569.548 988.605 C 576.586 986.788 582.368 982.075 589.64 983.219 C 594.253 983.945 599.044 979.929 602.648 977.538 C 614.582 977.675 633.591 972.791 645.383 969.409 C 650.355 967.984 662.719 961.443 667.35 961.344 C 674.847 961.183 685.452 957.581 692.059 957.69 C 701.906 957.853 698.056 956.62 706.15 954.048 C 707.238 953.702 719 955.185 721.377 955.364 C 720.388 952.997 720.401 954.18 720.801 951.824 C 724.851 949.837 729.215 952.428 733.905 951.312 C 742.332 949.435 753.078 943.825 761.226 942.631 C 779.915 939.894 800.409 943.431 818.528 937.759 C 825.453 935.591 828.376 939.422 832.288 931.436 C 834.731 930.583 831.75 934.758 839.696 933.872 C 855.01 932.165 865.76 928.96 881.323 929.217 C 883.235 927.178 883.307 926.964 885.64 925.502 C 899.441 931.629 900.534 923.844 915.088 924.11 L 915.42 926.248 L 916.47 926.759 C 917.489 925.946 918.691 925.104 919.872 924.525 C 922.153 923.405 925.553 923.409 928.077 923.131 C 938.443 921.989 948.591 922.344 958.889 921.94 C 962.72 921.79 971.218 918.088 975.44 918.087 C 980.626 918.086 987.398 920.343 992.442 920.165 C 995.974 920.04 1003.55 918 1007.49 917.417 C 1007.45 917.422 1011.36 920.16 1011.39 920.154 C 1018.4 918.784 1025.82 917.813 1032.87 916.884 C 1033.76 916.767 1034.95 920.316 1037.31 919.669 C 1040.23 918.869 1045.57 916.219 1048.21 916.225 C 1054.51 916.24 1060.19 918.851 1066.05 920.198 C 1067.74 920.588 1074.22 919.425 1076.57 919.419 C 1086.83 919.394 1105.13 918.526 1114.63 921.381 C 1123.66 924.095 1120.86 921.495 1128.1 920.92 C 1130.17 920.755 1148.37 924.657 1151.17 925.952 C 1152.13 926.399 1152.98 927.041 1154.39 926.902 C 1162.82 926.072 1173.63 927.259 1182.4 927.776 C 1183.61 928.921 1184.62 930.07 1185.66 931.364 C 1192.59 932.07 1191.24 927.631 1199.52 928.473 L 1201.34 931.255 C 1204.54 930.814 1206.21 929.74 1209.23 928.599 C 1220.66 924.278 1234.58 923.818 1247.56 921.129 C 1264.41 917.532 1279.98 909.489 1292.67 897.837 C 1305.96 885.425 1303.17 886.04 1319.7 878.305 C 1328.49 874.188 1341.07 865.196 1349.97 860.27 C 1351.76 859.276 1351.98 859.764 1354.17 859.837 L 1354.27 857.736 C 1358.18 852.941 1360.07 851.161 1365.68 848.637 L 1366.35 849.115 L 1366.99 848.575 z"/>
<path transform="translate(0,0)" fill="rgb(76,155,233)" d="M 1354.17 859.837 L 1353.31 861.884 L 1353.87 862.66 C 1356.6 860.765 1359.01 858.415 1362.08 858.623 L 1361.18 859.576 C 1357.24 863.681 1350.26 869.194 1345.67 872.875 C 1319.36 893.978 1301.65 919.761 1282.12 946.97 C 1274.27 959.254 1255.79 991.456 1252.26 1004.83 L 1250.55 1006.91 L 1059.93 1009.95 L 1003.12 1010.95 C 997.286 1011.03 982.882 1011.52 977.362 1010.98 C 950.518 1012.15 922.776 1012.1 895.806 1012.5 L 759.432 1014.63 C 671.679 1016.03 579.969 1018.96 492.653 1018.82 L 493.656 1018.48 C 493.774 1018.29 495.209 1016.04 495.859 1015.54 C 497.354 1014.13 516.097 1003.67 515.334 1003.28 C 522.664 1007 531.312 998.583 540.418 995.579 C 550.036 992.641 559.744 991.137 569.548 988.605 C 576.586 986.788 582.368 982.075 589.64 983.219 C 594.253 983.945 599.044 979.929 602.648 977.538 C 614.582 977.675 633.591 972.791 645.383 969.409 C 650.355 967.984 662.719 961.443 667.35 961.344 C 674.847 961.183 685.452 957.581 692.059 957.69 C 701.906 957.853 698.056 956.62 706.15 954.048 C 707.238 953.702 719 955.185 721.377 955.364 C 720.388 952.997 720.401 954.18 720.801 951.824 C 724.851 949.837 729.215 952.428 733.905 951.312 C 742.332 949.435 753.078 943.825 761.226 942.631 C 779.915 939.894 800.409 943.431 818.528 937.759 C 825.453 935.591 828.376 939.422 832.288 931.436 C 834.731 930.583 831.75 934.758 839.696 933.872 C 855.01 932.165 865.76 928.96 881.323 929.217 C 883.235 927.178 883.307 926.964 885.64 925.502 C 899.441 931.629 900.534 923.844 915.088 924.11 L 915.42 926.248 L 916.47 926.759 C 917.489 925.946 918.691 925.104 919.872 924.525 C 922.153 923.405 925.553 923.409 928.077 923.131 C 938.443 921.989 948.591 922.344 958.889 921.94 C 962.72 921.79 971.218 918.088 975.44 918.087 C 980.626 918.086 987.398 920.343 992.442 920.165 C 995.974 920.04 1003.55 918 1007.49 917.417 C 1007.45 917.422 1011.36 920.16 1011.39 920.154 C 1018.4 918.784 1025.82 917.813 1032.87 916.884 C 1033.76 916.767 1034.95 920.316 1037.31 919.669 C 1040.23 918.869 1045.57 916.219 1048.21 916.225 C 1054.51 916.24 1060.19 918.851 1066.05 920.198 C 1067.74 920.588 1074.22 919.425 1076.57 919.419 C 1086.83 919.394 1105.13 918.526 1114.63 921.381 C 1123.66 924.095 1120.86 921.495 1128.1 920.92 C 1130.17 920.755 1148.37 924.657 1151.17 925.952 C 1152.13 926.399 1152.98 927.041 1154.39 926.902 C 1162.82 926.072 1173.63 927.259 1182.4 927.776 C 1183.61 928.921 1184.62 930.07 1185.66 931.364 C 1192.59 932.07 1191.24 927.631 1199.52 928.473 L 1201.34 931.255 C 1204.54 930.814 1206.21 929.74 1209.23 928.599 C 1220.66 924.278 1234.58 923.818 1247.56 921.129 C 1264.41 917.532 1279.98 909.489 1292.67 897.837 C 1305.96 885.425 1303.17 886.04 1319.7 878.305 C 1328.49 874.188 1341.07 865.196 1349.97 860.27 C 1351.76 859.276 1351.98 859.764 1354.17 859.837 z"/>
<path transform="translate(0,0)" fill="rgb(39,66,109)" d="M 1354.17 859.837 L 1353.31 861.884 L 1353.87 862.66 C 1356.6 860.765 1359.01 858.415 1362.08 858.623 L 1361.18 859.576 C 1357.24 863.681 1350.26 869.194 1345.67 872.875 C 1319.36 893.978 1301.65 919.761 1282.12 946.97 C 1261.5 944.529 1240.45 943.162 1219.69 941.737 C 1022.35 928.195 820.961 936.361 627.209 977.847 C 584.284 987.038 533.615 1000.36 493.656 1018.48 C 493.774 1018.29 495.209 1016.04 495.859 1015.54 C 497.354 1014.13 516.097 1003.67 515.334 1003.28 C 522.664 1007 531.312 998.583 540.418 995.579 C 550.036 992.641 559.744 991.137 569.548 988.605 C 576.586 986.788 582.368 982.075 589.64 983.219 C 594.253 983.945 599.044 979.929 602.648 977.538 C 614.582 977.675 633.591 972.791 645.383 969.409 C 650.355 967.984 662.719 961.443 667.35 961.344 C 674.847 961.183 685.452 957.581 692.059 957.69 C 701.906 957.853 698.056 956.62 706.15 954.048 C 707.238 953.702 719 955.185 721.377 955.364 C 720.388 952.997 720.401 954.18 720.801 951.824 C 724.851 949.837 729.215 952.428 733.905 951.312 C 742.332 949.435 753.078 943.825 761.226 942.631 C 779.915 939.894 800.409 943.431 818.528 937.759 C 825.453 935.591 828.376 939.422 832.288 931.436 C 834.731 930.583 831.75 934.758 839.696 933.872 C 855.01 932.165 865.76 928.96 881.323 929.217 C 883.235 927.178 883.307 926.964 885.64 925.502 C 899.441 931.629 900.534 923.844 915.088 924.11 L 915.42 926.248 L 916.47 926.759 C 917.489 925.946 918.691 925.104 919.872 924.525 C 922.153 923.405 925.553 923.409 928.077 923.131 C 938.443 921.989 948.591 922.344 958.889 921.94 C 962.72 921.79 971.218 918.088 975.44 918.087 C 980.626 918.086 987.398 920.343 992.442 920.165 C 995.974 920.04 1003.55 918 1007.49 917.417 C 1007.45 917.422 1011.36 920.16 1011.39 920.154 C 1018.4 918.784 1025.82 917.813 1032.87 916.884 C 1033.76 916.767 1034.95 920.316 1037.31 919.669 C 1040.23 918.869 1045.57 916.219 1048.21 916.225 C 1054.51 916.24 1060.19 918.851 1066.05 920.198 C 1067.74 920.588 1074.22 919.425 1076.57 919.419 C 1086.83 919.394 1105.13 918.526 1114.63 921.381 C 1123.66 924.095 1120.86 921.495 1128.1 920.92 C 1130.17 920.755 1148.37 924.657 1151.17 925.952 C 1152.13 926.399 1152.98 927.041 1154.39 926.902 C 1162.82 926.072 1173.63 927.259 1182.4 927.776 C 1183.61 928.921 1184.62 930.07 1185.66 931.364 C 1192.59 932.07 1191.24 927.631 1199.52 928.473 L 1201.34 931.255 C 1204.54 930.814 1206.21 929.74 1209.23 928.599 C 1220.66 924.278 1234.58 923.818 1247.56 921.129 C 1264.41 917.532 1279.98 909.489 1292.67 897.837 C 1305.96 885.425 1303.17 886.04 1319.7 878.305 C 1328.49 874.188 1341.07 865.196 1349.97 860.27 C 1351.76 859.276 1351.98 859.764 1354.17 859.837 z"/>
<path transform="translate(0,0)" fill="rgb(57,120,203)" d="M 1512.17 1028.63 C 1507.98 1024.08 1504.81 1022.78 1507.47 1017.14 C 1507.57 1017.28 1510.22 1021.71 1509.46 1020.81 C 1518.54 1031.57 1536.73 1045.89 1527.64 1062.3 C 1520.19 1075.74 1495.83 1082.22 1481.75 1085.78 C 1471.61 1089.24 1462.25 1093.77 1451.89 1096.67 C 1427.85 1103.39 1404.15 1111.13 1379.76 1116.53 C 1374.68 1117.65 1369.18 1126.03 1361.02 1124.01 C 1359.51 1123.63 1358.49 1124.11 1357.45 1125.09 L 1359.16 1126.1 C 1352.09 1131.04 1315.19 1133.39 1305.4 1136.58 C 1296.33 1139.45 1285.99 1141.6 1276.5 1142.22 C 1269.93 1142.54 1262.74 1147.66 1256.15 1148.2 C 1213.55 1151.71 1171.3 1161.77 1128.4 1166.22 C 1121.27 1166.96 1114.68 1161.84 1111.5 1167.2 C 1096.56 1168.16 1081.37 1166.89 1066.38 1167.73 C 1030.43 1169.76 994.583 1168.04 958.62 1169.05 C 948.758 1168.74 939.102 1166.68 929.237 1166.42 C 906.001 1165.8 882.953 1164.58 859.957 1161.26 C 846.108 1159.26 831.992 1161.35 818.01 1156.54 C 807.917 1159.34 804.353 1161.25 795.206 1153.66 C 789.231 1153.23 783.398 1153.81 777.41 1154.19 C 776.577 1152.71 776.061 1151.82 775.12 1150.38 C 757.698 1150.34 742.606 1143.58 723.112 1143.22 C 706.839 1142.92 677.805 1131.57 661.877 1128.16 C 626.563 1120.6 592.622 1109.8 558.504 1098.04 C 542.69 1092.52 527.216 1086.08 512.164 1078.74 C 503.348 1074.45 490.975 1066.83 482.527 1064.57 C 478.59 1059.49 473.365 1052.83 473.983 1045.94 C 473.895 1041.89 474.199 1037.26 474.368 1033.17 C 478.797 1038.09 486.105 1045.37 492.977 1046.05 C 501.181 1050.69 515.374 1056.1 524.418 1059.58 C 574.777 1078.95 628.013 1092.75 680.876 1103.1 C 923.781 1148.27 1173.59 1140.24 1413.1 1079.55 C 1431.02 1075.07 1512.05 1053.85 1525.54 1044.77 C 1522.2 1039.43 1516.44 1033.23 1512.17 1028.63 z"/>
<path transform="translate(0,0)" fill="rgb(39,66,109)" d="M 1512.17 1028.63 C 1507.98 1024.08 1504.81 1022.78 1507.47 1017.14 C 1507.57 1017.28 1510.22 1021.71 1509.46 1020.81 C 1518.54 1031.57 1536.73 1045.89 1527.64 1062.3 C 1520.19 1075.74 1495.83 1082.22 1481.75 1085.78 C 1471.61 1089.24 1462.25 1093.77 1451.89 1096.67 C 1427.85 1103.39 1404.15 1111.13 1379.76 1116.53 C 1374.68 1117.65 1369.18 1126.03 1361.02 1124.01 C 1359.51 1123.63 1358.49 1124.11 1357.45 1125.09 L 1359.16 1126.1 C 1352.09 1131.04 1315.19 1133.39 1305.4 1136.58 C 1296.33 1139.45 1285.99 1141.6 1276.5 1142.22 C 1269.93 1142.54 1262.74 1147.66 1256.15 1148.2 C 1213.55 1151.71 1171.3 1161.77 1128.4 1166.22 C 1121.27 1166.96 1114.68 1161.84 1111.5 1167.2 C 1096.56 1168.16 1081.37 1166.89 1066.38 1167.73 C 1030.43 1169.76 994.583 1168.04 958.62 1169.05 C 948.758 1168.74 939.102 1166.68 929.237 1166.42 C 906.001 1165.8 882.953 1164.58 859.957 1161.26 C 846.108 1159.26 831.992 1161.35 818.01 1156.54 C 807.917 1159.34 804.353 1161.25 795.206 1153.66 C 789.231 1153.23 783.398 1153.81 777.41 1154.19 C 776.577 1152.71 776.061 1151.82 775.12 1150.38 C 757.698 1150.34 742.606 1143.58 723.112 1143.22 C 706.839 1142.92 677.805 1131.57 661.877 1128.16 C 626.563 1120.6 592.622 1109.8 558.504 1098.04 C 542.69 1092.52 527.216 1086.08 512.164 1078.74 C 503.348 1074.45 490.975 1066.83 482.527 1064.57 C 478.59 1059.49 473.365 1052.83 473.983 1045.94 C 475.918 1049.73 480.174 1058.03 483.442 1060.03 C 507.875 1074.99 551.347 1092.3 577.788 1100.67 C 816.408 1176.21 1138.48 1172.2 1380.33 1112.36 C 1411.04 1104.96 1441.4 1096.19 1471.33 1086.09 C 1486 1081.17 1500.64 1076.2 1514.61 1069.47 C 1524.97 1064.48 1528.64 1055.71 1525.54 1044.77 C 1522.2 1039.43 1516.44 1033.23 1512.17 1028.63 z"/>
<path transform="translate(0,0)" fill="rgb(57,120,203)" d="M 1366.99 848.575 C 1368.32 841.296 1382.22 833.718 1389.56 833.311 C 1398.55 832.813 1409.43 824.907 1418.3 821.64 C 1438.77 814.104 1440.91 810.248 1462.7 814.301 C 1470.22 817.543 1471.66 818.619 1475.85 825.637 C 1478.23 843.154 1468 854.679 1458.56 869.721 C 1461.25 880.884 1452.19 883.25 1451.77 892.583 C 1451.19 905.485 1451.96 921.234 1453.29 934.11 C 1453.72 938.207 1457.8 938.985 1457.78 947.294 C 1463.24 952.472 1469.85 956.134 1470.93 963.764 C 1471.32 966.536 1473.76 971.579 1476.6 972.491 C 1492.02 977.442 1528.37 976.332 1516.25 1002.89 L 1515.37 1003.82 C 1502.29 1004.01 1428.99 1002.53 1421.27 1004.75 L 1420.28 1006.83 C 1421.25 1010.42 1422.7 1013.98 1421.74 1017.45 C 1419.2 1020.24 1418.62 1019.99 1413.71 1020.1 C 1374.23 1020.97 1334.63 1021.66 1295.13 1022.15 C 1287.13 1023.33 1252.9 1024.39 1246.84 1020.64 C 1246.1 1017.51 1249.35 1010.18 1250.55 1006.91 L 1252.26 1004.83 C 1255.79 991.456 1274.27 959.254 1282.12 946.97 C 1301.65 919.761 1319.36 893.978 1345.67 872.875 C 1350.26 869.194 1357.24 863.681 1361.18 859.576 L 1362.08 858.623 C 1359.01 858.415 1356.6 860.765 1353.87 862.66 L 1353.31 861.884 L 1354.17 859.837 L 1354.27 857.736 C 1358.18 852.941 1360.07 851.161 1365.68 848.637 L 1366.35 849.115 L 1366.99 848.575 z"/>
<path transform="translate(0,0)" fill="rgb(76,155,233)" d="M 1458.56 869.721 C 1461.25 880.884 1452.19 883.25 1451.77 892.583 C 1451.19 905.485 1451.96 921.234 1453.29 934.11 C 1453.72 938.207 1457.8 938.985 1457.78 947.294 C 1463.24 952.472 1469.85 956.134 1470.93 963.764 C 1471.32 966.536 1473.76 971.579 1476.6 972.491 C 1492.02 977.442 1528.37 976.332 1516.25 1002.89 L 1515.37 1003.82 C 1502.29 1004.01 1428.99 1002.53 1421.27 1004.75 L 1420.28 1006.83 C 1419.66 1005.37 1419.89 1002.25 1419.88 1000.44 C 1419.44 991.004 1418.86 973.865 1421.81 965.393 C 1422.91 941.269 1434.18 915.977 1443.88 894.252 C 1445.45 892.475 1455.89 873.847 1458.56 869.721 z"/>
<path transform="translate(0,0)" fill="rgb(39,66,109)" d="M 1458.56 869.721 C 1461.25 880.884 1452.19 883.25 1451.77 892.583 C 1451.19 905.485 1451.96 921.234 1453.29 934.11 C 1453.72 938.207 1457.8 938.985 1457.78 947.294 C 1463.24 952.472 1469.85 956.134 1470.93 963.764 C 1471.32 966.536 1473.76 971.579 1476.6 972.491 C 1492.02 977.442 1528.37 976.332 1516.25 1002.89 L 1515.76 995.728 C 1513.22 989.165 1509.25 984.852 1502.46 982.698 C 1476.72 974.543 1447.87 971.693 1421.81 965.393 C 1422.91 941.269 1434.18 915.977 1443.88 894.252 C 1445.45 892.475 1455.89 873.847 1458.56 869.721 z"/>
<path transform="translate(0,0)" fill="rgb(227,66,83)" d="M 1366.99 848.575 C 1368.32 841.296 1382.22 833.718 1389.56 833.311 C 1398.55 832.813 1409.43 824.907 1418.3 821.64 C 1438.77 814.104 1440.91 810.248 1462.7 814.301 C 1470.22 817.543 1471.66 818.619 1475.85 825.637 C 1478.23 843.154 1468 854.679 1458.56 869.721 C 1455.89 873.847 1445.45 892.475 1443.88 894.252 C 1422.21 887.079 1404.92 875.786 1392.61 856.2 L 1392.08 856.023 C 1389.96 852.521 1387.41 846.963 1385.53 843.164 L 1380.15 845.747 C 1376.54 845.373 1371.7 847.748 1366.99 848.575 z"/>
<path transform="translate(0,0)" fill="rgb(253,140,150)" d="M 1366.99 848.575 C 1368.32 841.296 1382.22 833.718 1389.56 833.311 C 1398.55 832.813 1409.43 824.907 1418.3 821.64 C 1438.77 814.104 1440.91 810.248 1462.7 814.301 C 1470.22 817.543 1471.66 818.619 1475.85 825.637 C 1451.28 826.021 1411.22 840.832 1392.61 856.2 L 1392.08 856.023 C 1389.96 852.521 1387.41 846.963 1385.53 843.164 L 1380.15 845.747 C 1376.54 845.373 1371.7 847.748 1366.99 848.575 z"/>
<path transform="translate(0,0)" fill="rgb(39,66,109)" d="M 1366.99 848.575 C 1368.32 841.296 1382.22 833.718 1389.56 833.311 C 1398.55 832.813 1409.43 824.907 1418.3 821.64 C 1438.77 814.104 1440.91 810.248 1462.7 814.301 C 1439.7 816.839 1403.46 828.926 1385.53 843.164 L 1380.15 845.747 C 1376.54 845.373 1371.7 847.748 1366.99 848.575 z"/>
<path transform="translate(0,0)" fill="rgb(130,203,252)" d="M 1385.53 843.164 C 1387.41 846.963 1389.96 852.521 1392.08 856.023 C 1334.94 892.81 1286.35 959.51 1261.28 1022.3 C 1271.37 1022.15 1285.33 1021.52 1295.13 1022.15 C 1287.13 1023.33 1252.9 1024.39 1246.84 1020.64 C 1246.1 1017.51 1249.35 1010.18 1250.55 1006.91 L 1252.26 1004.83 C 1255.79 991.456 1274.27 959.254 1282.12 946.97 C 1301.65 919.761 1319.36 893.978 1345.67 872.875 C 1350.26 869.194 1357.24 863.681 1361.18 859.576 L 1362.08 858.623 C 1359.01 858.415 1356.6 860.765 1353.87 862.66 L 1353.31 861.884 L 1354.17 859.837 L 1354.27 857.736 C 1358.18 852.941 1360.07 851.161 1365.68 848.637 L 1366.35 849.115 L 1366.99 848.575 C 1371.7 847.748 1376.54 845.373 1380.15 845.747 L 1385.53 843.164 z"/>
<path transform="translate(0,0)" fill="rgb(63,70,101)" d="M 1366.99 848.575 C 1371.7 847.748 1376.54 845.373 1380.15 845.747 C 1377.76 848.216 1365.53 856.49 1362.08 858.623 C 1359.01 858.415 1356.6 860.765 1353.87 862.66 L 1353.31 861.884 L 1354.17 859.837 L 1354.27 857.736 C 1358.18 852.941 1360.07 851.161 1365.68 848.637 L 1366.35 849.115 L 1366.99 848.575 z"/>
<path transform="translate(0,0)" fill="rgb(130,203,252)" d="M 1365.71 914.627 C 1374.66 913.633 1383.45 917.534 1388.71 924.835 C 1393.98 932.137 1394.91 941.708 1391.14 949.885 C 1387.38 958.063 1379.5 963.579 1370.53 964.323 C 1356.92 965.451 1344.93 955.44 1343.61 941.851 C 1342.3 928.261 1352.14 916.133 1365.71 914.627 z"/>
<path transform="translate(0,0)" fill="rgb(253,254,254)" d="M 1420.28 1006.83 L 1421.27 1004.75 C 1428.99 1002.53 1502.29 1004.01 1515.37 1003.82 C 1513.18 1008.55 1511.17 1013.37 1507.47 1017.14 C 1504.81 1022.78 1507.98 1024.08 1512.17 1028.63 C 1500.84 1030.32 1484.92 1030.13 1473.15 1030.3 L 1413.51 1031.16 L 1214.12 1034.42 L 747.97 1041.74 C 664.073 1043.08 576.451 1043.14 492.977 1046.05 C 486.105 1045.37 478.797 1038.09 474.368 1033.17 C 477.052 1024.98 485.275 1021.75 492.653 1018.82 C 579.969 1018.96 671.679 1016.03 759.432 1014.63 L 895.806 1012.5 C 922.776 1012.1 950.518 1012.15 977.362 1010.98 C 982.882 1011.52 997.286 1011.03 1003.12 1010.95 L 1059.93 1009.95 L 1250.55 1006.91 C 1249.35 1010.18 1246.1 1017.51 1246.84 1020.64 C 1252.9 1024.39 1287.13 1023.33 1295.13 1022.15 C 1334.63 1021.66 1374.23 1020.97 1413.71 1020.1 C 1418.62 1019.99 1419.2 1020.24 1421.74 1017.45 C 1422.7 1013.98 1421.25 1010.42 1420.28 1006.83 z"/>
<path transform="translate(0,0)" fill="rgb(39,66,109)" d="M 894.765 387.482 C 895.404 387.345 896.626 387.452 897.347 387.474 L 898.606 390.342 L 900.885 388.014 C 928.113 384.616 922.006 442.467 902.51 432.023 C 900.111 433.543 898.571 434.997 895.848 434.78 C 893.56 432.13 893.764 432.199 890.681 430.608 L 888.409 433.197 C 878.68 430.141 870.31 426.722 870.723 415.31 C 871.311 399.058 877.418 387.003 894.765 387.482 z"/>
<path transform="translate(0,0)" fill="rgb(253,254,254)" d="M 893.43 394.508 L 894.727 391.249 L 896.134 390.67 L 897.711 393.725 C 909.858 396.675 911.461 396.944 913.527 409.999 L 914.933 410.97 C 914.262 411.485 913.033 412.497 912.352 412.881 C 912.973 421.746 908.709 432.005 898.368 425.685 C 897.521 428.363 897.678 429.004 895.672 430.814 C 893.324 429.168 892.17 423.502 891.22 420.434 C 889.688 424.101 889.072 424.625 885.532 425.57 C 879.19 423.046 878.946 418.769 879.871 412.848 C 877.537 411.974 878.248 412.523 876.709 410.587 L 879.461 408.683 C 879.143 398.973 883.457 393.987 893.43 394.508 z"/>
<path transform="translate(0,0)" fill="rgb(63,70,101)" d="M 902.343 417.012 C 905.622 415.524 909.007 414.225 912.352 412.881 C 912.973 421.746 908.709 432.005 898.368 425.685 L 902.343 417.012 z"/>
<path transform="translate(0,0)" fill="rgb(63,70,101)" d="M 897.711 393.725 C 909.858 396.675 911.461 396.944 913.527 409.999 C 910.94 408.175 904.907 405.329 901.856 403.78 L 897.711 393.725 z"/>
<path transform="translate(0,0)" fill="rgb(63,70,101)" d="M 879.461 408.683 C 879.143 398.973 883.457 393.987 893.43 394.508 C 892.256 397.274 890.708 401.292 889.434 403.881 L 879.461 408.683 z"/>
<path transform="translate(0,0)" fill="rgb(63,70,101)" d="M 879.871 412.848 C 884.841 414.829 888.616 415.695 891.22 420.434 C 889.688 424.101 889.072 424.625 885.532 425.57 C 879.19 423.046 878.946 418.769 879.871 412.848 z"/>
<path transform="translate(0,0)" fill="rgb(58,59,60)" d="M 1550.89 1357.68 C 1553.59 1358.82 1554.56 1361.05 1558.06 1362.56 L 1559.5 1361.87 L 1558.2 1360.87 L 1558.88 1359.62 C 1560.96 1359.36 1564.05 1361.22 1566.38 1362.23 L 1563.7 1364.12 C 1572.49 1367.35 1570.63 1365.88 1575.54 1375.3 C 1575 1389.84 1582.92 1392.55 1565.78 1399.68 L 1566.27 1400.76 C 1564.94 1401.72 1565.19 1401.14 1564.99 1402.16 C 1567.97 1402.42 1568.65 1402.27 1571.49 1403.22 C 1568.83 1403.54 1566.77 1403.96 1564.15 1404.47 L 1563.22 1405.09 C 1555.69 1404.18 1543.69 1406.14 1536.07 1400.99 C 1532.34 1398.48 1532.03 1390.85 1531.13 1386.16 L 1528.32 1385.51 L 1527.71 1383.75 C 1528.41 1379.86 1529.83 1376.13 1531.9 1372.77 C 1539.46 1360.29 1538.31 1364.27 1550.89 1357.68 z"/>
<path transform="translate(0,0)" fill="rgb(249,224,159)" d="M 1552.52 1359.39 C 1557.34 1376.27 1557.82 1376.94 1574.55 1382.57 C 1557.58 1387.09 1556.86 1388.12 1552.1 1405.12 C 1549.73 1396.37 1549.1 1389.66 1540.37 1385.32 C 1536.58 1384.33 1535.96 1384.9 1533.95 1382.46 C 1536.02 1379.48 1541.18 1378.73 1544.8 1377.89 C 1549.3 1371.09 1550.39 1367.27 1552.52 1359.39 z"/>
<path transform="translate(0,0)" fill="rgb(250,233,180)" d="M 1544.8 1377.89 C 1543.28 1379.72 1542.57 1380.33 1540.57 1381.64 C 1540.27 1383.66 1540.28 1383.22 1540.37 1385.32 C 1536.58 1384.33 1535.96 1384.9 1533.95 1382.46 C 1536.02 1379.48 1541.18 1378.73 1544.8 1377.89 z"/>
<path transform="translate(0,0)" fill="rgb(58,59,60)" d="M 740.642 780.317 C 748.222 778.855 751.232 779.009 758.114 782.974 L 757.73 784.449 C 759.72 788.144 759.841 788.535 762.783 791.416 C 762.381 788.967 762.053 787.984 761.389 785.569 L 761.361 785.693 L 762.927 786.052 C 766.706 789.981 765.403 791.546 765.57 798.474 L 766.431 798.653 C 770.885 799.594 772.479 799.243 774.584 802.48 C 774.083 806.567 770.824 810.012 767.723 812.536 L 766.257 810.488 C 761.993 812.416 755.036 815.15 753.311 819.508 L 754.911 820.517 L 753.517 822.519 L 754.99 824.11 L 756.131 823.492 C 756.867 820.839 756.486 820.848 758.012 818.867 L 759.082 819.535 L 758.45 824.33 L 759.627 824.67 C 763.702 821.047 765.82 819.666 768.359 814.801 L 769.247 815.047 C 768.142 827.582 753.339 829.875 743.093 827.574 C 740.993 824.343 737.219 819.014 733.007 818.844 C 733.788 822.222 734.385 822.709 733.56 825.776 C 731.28 824.744 730.401 823.682 729.605 821.353 C 731.767 814.127 731.415 814.797 726.453 809.791 C 725.717 807.384 725.403 796.658 727.071 795.048 L 728.958 798.315 C 730.621 795.816 730.146 796.298 730.962 793.197 C 730.282 791.515 730.249 791.776 730.013 790.016 L 737.295 785.992 C 736.985 783.851 736.96 784.482 737.202 782.328 L 738.756 782.253 C 740.029 784.181 739.285 783.476 740.807 784.544 C 744.048 783.565 742.893 784.501 744.649 782.009 C 743.095 781.99 742.119 781.946 740.599 781.842 L 740.642 780.317 z"/>
<path transform="translate(0,0)" fill="rgb(249,224,159)" d="M 748.581 782.92 C 750.699 788.77 752.647 797.101 757.973 799.731 L 770.27 804.691 C 766.126 806.308 761.182 808.4 757.039 809.781 C 752.795 812.953 750.677 820.643 748.669 825.86 L 742.27 811.028 L 727.392 804.454 C 732.21 802.666 737.533 800.221 742.303 798.166 L 748.581 782.92 z"/>
<path transform="translate(0,0)" fill="rgb(250,233,180)" d="M 757.973 799.731 L 770.27 804.691 C 766.126 806.308 761.182 808.4 757.039 809.781 L 760.608 806.151 C 761.097 802.779 760.645 803.546 757.973 799.731 z"/>
<path transform="translate(0,0)" fill="rgb(46,47,55)" d="M 1226.12 1577.58 C 1239.67 1576.46 1250.41 1597.72 1242.65 1608.42 C 1238.75 1613.8 1237.49 1613.37 1231.32 1614.22 C 1219.7 1619 1207.29 1616.72 1205.11 1602.81 C 1203.7 1593.88 1208.29 1594.28 1210.89 1590.72 C 1210.89 1587.07 1210.47 1584.72 1212.38 1581.66 C 1215.73 1579.2 1221.78 1578.45 1226.12 1577.58 z"/>
<path transform="translate(0,0)" fill="rgb(249,224,159)" d="M 1220.62 1593.4 L 1225.86 1582.36 L 1230.29 1593.04 C 1233.91 1594.58 1237.54 1596.09 1241.19 1597.57 C 1237.79 1599 1233.94 1600.51 1230.63 1602.03 L 1225.73 1613.03 C 1217.02 1609.98 1209.26 1612.73 1210.34 1597.58 L 1220.62 1593.4 z"/>
<path transform="translate(0,0)" fill="rgb(58,59,60)" d="M 1225.73 1613.03 C 1217.02 1609.98 1209.26 1612.73 1210.34 1597.58 L 1220.89 1602.14 C 1222.14 1605.07 1224.25 1610.47 1225.73 1613.03 z"/>
<path transform="translate(0,0)" fill="rgb(46,47,55)" d="M 392.276 1200.69 C 397.776 1198.19 397.656 1202.96 399.045 1203.03 C 404.313 1203.3 407.161 1201.36 411.976 1204.97 L 411.53 1205.86 C 408.425 1205.34 408.539 1205.17 405.438 1205.3 L 406.028 1207.47 L 404.966 1208.04 C 404.167 1206.95 403.381 1205.85 402.609 1204.75 L 400.486 1205.15 L 402.521 1206.12 L 402.565 1207.64 L 401.817 1208.36 C 403.637 1209.78 406.102 1212.07 407.901 1213.65 L 407.965 1213.09 L 407.61 1213.85 L 407.001 1213.17 L 407.942 1213.29 L 408.012 1214.34 C 407.831 1211.82 409.851 1210.56 411.438 1209.05 C 420.79 1212.03 414.744 1229.98 410.072 1235.32 L 409.446 1236.83 C 405.26 1236.51 392.243 1235.94 389.478 1233.54 C 391.745 1232.94 390.712 1233.36 392.603 1232.34 C 392.055 1228.84 390.87 1228.11 388.38 1225.61 L 386.266 1225.75 C 386.258 1226.33 386.673 1227.52 386.856 1228.16 L 386.272 1228.21 C 383.097 1226.19 378.288 1221.73 376.458 1218.35 C 378.37 1211.75 384.579 1215.27 389.476 1212.13 C 390.653 1211.38 391.253 1206.4 391.651 1204.52 C 393.8 1203.39 393.164 1203.95 394.775 1202.21 L 392.436 1202 L 392.276 1200.69 z"/>
<path transform="translate(0,0)" fill="rgb(249,224,159)" d="M 392.367 1214.04 C 393.358 1210.8 394.437 1207.02 396.869 1205.06 C 399.199 1207.65 398.637 1208.07 399.535 1212.03 C 404.201 1216.36 406.605 1216.56 412.347 1218.86 L 402.11 1222.69 C 400.411 1225.57 398.084 1231.21 395.926 1231.76 C 393.85 1228.77 393.632 1227.34 392.6 1223.91 C 388.152 1221.59 384.789 1220.34 380.148 1218.55 C 384.433 1217.28 388.225 1215.69 392.367 1214.04 z"/>
<path transform="translate(0,0)" fill="rgb(250,233,180)" d="M 399.535 1212.03 C 404.201 1216.36 406.605 1216.56 412.347 1218.86 L 402.11 1222.69 C 403.838 1213.89 400.624 1219.95 399.535 1212.03 z"/>
<path transform="translate(0,0)" fill="rgb(250,233,180)" d="M 380.148 1218.55 C 384.433 1217.28 388.225 1215.69 392.367 1214.04 C 387.428 1221.88 391.523 1218.16 392.6 1223.91 C 388.152 1221.59 384.789 1220.34 380.148 1218.55 z"/>
<path transform="translate(0,0)" fill="rgb(58,59,60)" d="M 1199.69 683.492 L 1201.69 682.375 L 1202.84 683.895 C 1212.33 689.677 1224.55 691.181 1218.03 705.479 L 1217.22 705.383 L 1216.06 701.757 C 1215.89 704.293 1215.75 704.91 1215.16 707.399 C 1212.49 708.636 1211.67 708.755 1209.67 710.911 L 1212.17 711.357 L 1211.67 712.812 C 1207.36 714.762 1202.3 715.317 1197.59 714.311 C 1197.58 714.311 1194.64 708.506 1194.64 708.506 C 1191.82 708.105 1190.96 710.485 1187.1 708.899 C 1185.21 703.541 1183.84 700.068 1182.9 694.386 C 1185.28 691.026 1185.34 691.235 1189.1 689.249 L 1188.24 689.98 L 1190.11 689.411 C 1195.67 687.756 1195.21 686.826 1199.69 683.492 z"/>
<path transform="translate(0,0)" fill="rgb(250,233,180)" d="M 1199.69 683.492 L 1201.69 682.375 L 1202.84 683.895 L 1205.7 692.041 C 1208.56 696.171 1209.69 696.242 1206.48 701.065 C 1204.94 704.229 1202.93 709.637 1201.53 713.052 L 1196.86 701.464 L 1186.22 696.885 C 1195.15 693.179 1197.6 693.403 1199.69 683.492 z"/>
<path transform="translate(0,0)" fill="rgb(249,224,159)" d="M 1205.7 692.041 L 1216.81 696.89 L 1206.48 701.065 C 1209.69 696.242 1208.56 696.171 1205.7 692.041 z"/>
<path transform="translate(0,0)" fill="rgb(253,254,254)" d="M 467.285 812.645 C 463.461 813.947 455.498 811.753 452.92 808.862 L 453.449 807.92 L 460.968 809.579 C 458.255 807.211 459.103 807.652 458.272 803.133 C 453.847 797.143 447.28 801.942 446.485 792.944 C 459.795 788.268 457.399 789.843 463.099 777.233 C 464.217 774.76 471.201 777.055 473.23 779.188 L 472.243 780.907 L 473.037 779.325 L 471.388 780.714 C 473.585 781.856 472.946 781.288 474.309 783.48 C 476.717 785.536 476.857 785.412 478.321 788.147 L 479.937 788.13 L 479.791 784.569 L 481.132 785.01 C 481.795 789.087 482.375 795.435 480.522 799.129 C 479.923 799.166 479.324 799.202 478.725 799.239 C 475.354 799.497 472.232 801.111 470.073 803.713 C 468.76 805.298 467.392 808.071 466.444 809.953 L 467.99 810.451 L 471.545 808.503 C 471.326 812.219 472.043 810.729 469.545 813.225 L 467.695 813.148 L 467.285 812.645 z"/>
<path transform="translate(0,0)" fill="rgb(39,66,109)" d="M 464.191 781.485 C 469.03 781.518 469.737 781.798 474.309 783.48 C 476.717 785.536 476.857 785.412 478.321 788.147 L 479.937 788.13 L 479.791 784.569 L 481.132 785.01 C 481.795 789.087 482.375 795.435 480.522 799.129 C 479.923 799.166 479.324 799.202 478.725 799.239 C 475.354 799.497 472.232 801.111 470.073 803.713 C 468.76 805.298 467.392 808.071 466.444 809.953 L 467.99 810.451 L 471.545 808.503 C 471.326 812.219 472.043 810.729 469.545 813.225 L 467.695 813.148 L 467.285 812.645 L 464.465 810.277 C 465.774 807.782 467.722 802.694 468.891 799.913 L 480.564 795.418 L 469.145 790.742 C 467.411 786.923 466.374 785.087 464.191 781.485 z"/>
<path transform="translate(0,0)" fill="rgb(39,66,109)" d="M 467.285 812.645 C 463.461 813.947 455.498 811.753 452.92 808.862 L 453.449 807.92 L 460.968 809.579 C 458.255 807.211 459.103 807.652 458.272 803.133 C 453.847 797.143 447.28 801.942 446.485 792.944 C 459.795 788.268 457.399 789.843 463.099 777.233 C 464.217 774.76 471.201 777.055 473.23 779.188 L 472.243 780.907 L 473.037 779.325 L 471.388 780.714 C 473.585 781.856 472.946 781.288 474.309 783.48 C 469.737 781.798 469.03 781.518 464.191 781.485 C 461.552 782.732 460.525 787.006 459.068 790.374 L 448.165 795.141 L 459.161 799.98 C 460.487 803.15 462.105 808.06 464.465 810.277 L 467.285 812.645 z"/>
<path transform="translate(0,0)" fill="rgb(46,47,55)" d="M 681.841 1255.28 L 683.879 1255.71 C 703.142 1272.45 690.741 1263.91 690.996 1274.29 C 693.454 1274.77 692.238 1274.39 694.632 1275.46 L 693.099 1277.19 C 689.702 1277.2 686.818 1277.61 683.465 1278 C 678.043 1277.34 674.815 1278.95 670.758 1274.47 C 671.021 1270.71 670.575 1272.57 673.13 1268.93 C 673.259 1266.64 673.458 1264.55 673.678 1262.28 C 675.992 1258.82 678.321 1257.69 681.841 1255.28 z"/>
<path transform="translate(0,0)" fill="rgb(249,224,159)" d="M 682.754 1257.59 C 684.024 1258.47 690.824 1264.7 691.419 1266.17 C 690.421 1269.9 689.647 1272.57 686.545 1274.7 L 682.458 1273.56 L 679.497 1275.08 L 677.445 1274.31 C 677.328 1272.57 677.435 1270.92 677.626 1269.19 L 674.777 1265.97 L 675.026 1264.7 C 679.566 1262.29 680.376 1262.12 682.754 1257.59 z"/>
<path transform="translate(0,0)" fill="rgb(253,254,254)" d="M 1478.12 597.577 C 1480.47 600.227 1481.88 604.559 1483.34 608.014 L 1494.65 612.836 L 1483.88 617.392 L 1479 627.784 C 1476.95 625.732 1475.14 620.593 1473.91 617.722 L 1462.86 612.602 L 1473.69 607.672 L 1478.12 597.577 z"/>
<path transform="translate(0,0)" fill="rgb(249,224,159)" d="M 1640.65 898.612 C 1643.31 901.3 1647.95 904.869 1649.26 907.685 C 1648.46 910.957 1647.49 913.829 1645.13 916.351 L 1641.22 915.357 C 1637.63 915.29 1638.86 917.217 1635.41 915.737 L 1634.97 910.43 C 1633.5 908.538 1633.38 908.444 1632.4 906.279 C 1636.87 903.481 1638.06 903.135 1640.65 898.612 z"/>
<path transform="translate(0,0)" fill="rgb(253,254,254)" d="M 949.278 1372.6 C 950.799 1374.08 955.652 1379.98 957.321 1381.93 L 957.017 1383.9 C 952.915 1387.48 951.989 1388.42 949.728 1393.36 C 947.305 1390.7 945.216 1387.22 941.996 1383.86 L 942.081 1381.93 C 946.118 1378.41 946.999 1377.44 949.278 1372.6 z"/>
<path transform="translate(0,0)" fill="rgb(250,233,180)" d="M 1150.9 1267.7 C 1151.77 1268.45 1156.28 1274.29 1157.93 1276.03 L 1157.81 1278.17 C 1153.98 1281.61 1153.23 1282.43 1151.5 1287.28 C 1148.98 1283.68 1148.14 1282.03 1144.95 1278.98 L 1144.25 1278.32 L 1144.24 1276.33 C 1148.05 1273.13 1148.85 1272.23 1150.9 1267.7 z"/>
<path transform="translate(0,0)" fill="rgb(253,254,254)" d="M 571.454 581.505 C 574.19 580.576 577.168 581.998 578.165 584.71 C 579.162 587.421 577.815 590.434 575.13 591.499 C 573.331 592.212 571.288 591.894 569.791 590.668 C 568.295 589.442 567.581 587.5 567.926 585.597 C 568.272 583.693 569.622 582.127 571.454 581.505 z"/>
<path transform="translate(0,0)" fill="rgb(249,224,159)" d="M 802.425 685.544 C 803.916 684.405 805.908 684.163 807.628 684.913 C 809.348 685.663 810.526 687.287 810.706 689.155 C 810.886 691.023 810.039 692.841 808.494 693.906 C 806.185 695.497 803.028 694.955 801.38 692.685 C 799.733 690.416 800.197 687.247 802.425 685.544 z"/>
<path transform="translate(0,0)" fill="rgb(249,224,159)" d="M 729.461 1524.47 C 731.945 1523.29 734.914 1524.29 736.181 1526.73 C 737.448 1529.17 736.56 1532.18 734.17 1533.53 C 732.543 1534.46 730.541 1534.42 728.95 1533.43 C 727.36 1532.45 726.437 1530.67 726.543 1528.8 C 726.65 1526.93 727.769 1525.27 729.461 1524.47 z"/>
<path transform="translate(0,0)" fill="rgb(249,224,159)" d="M 1285.94 1405.46 C 1287.56 1404.64 1289.49 1404.75 1291 1405.75 C 1292.52 1406.74 1293.37 1408.48 1293.25 1410.29 C 1293.12 1412.1 1292.03 1413.7 1290.4 1414.48 C 1287.92 1415.66 1284.94 1414.64 1283.72 1412.17 C 1282.5 1409.7 1283.49 1406.71 1285.94 1405.46 z"/>
<path transform="translate(0,0)" fill="rgb(249,224,159)" d="M 1247.01 436.479 C 1249.44 435.759 1252.02 437.036 1252.91 439.406 C 1253.81 441.777 1252.73 444.438 1250.43 445.506 C 1248.78 446.271 1246.85 446.052 1245.42 444.938 C 1243.98 443.825 1243.3 442.004 1243.63 440.221 C 1243.97 438.439 1245.27 436.994 1247.01 436.479 z"/>
<path transform="translate(0,0)" fill="rgb(39,66,109)" d="M 873.698 1830.84 L 875.016 1830.57 L 873.174 1831.72 C 875.717 1833.67 883.279 1830.33 889.809 1833.68 C 897.925 1837.83 896.365 1844.94 900.481 1847.25 L 901.127 1846.51 C 900.227 1844.4 900.339 1845.41 900.493 1843.54 C 902.798 1845.76 901.866 1844.45 902.5 1848.14 L 901.418 1849.4 C 900.896 1854.23 899.106 1862.2 901.559 1866.2 C 898.396 1868.32 895.024 1871.15 892.013 1873.55 L 892.105 1875.17 L 892.578 1875.7 C 890.015 1876.48 879.121 1880.71 877.561 1880.55 C 873.532 1880.13 858.2 1874.38 856.111 1871.44 C 856.699 1869.18 856.746 1867.95 855.668 1865.75 C 847.664 1849.4 855.4 1835.68 872.195 1831.25 L 873.698 1830.84 z"/>
<path transform="translate(0,0)" fill="rgb(253,254,254)" d="M 877.094 1838.61 C 878.835 1841.4 881.584 1847.9 883.076 1851.15 L 896.151 1856.42 L 882.952 1861.95 L 877.859 1874.39 C 875.579 1871.63 873.406 1865.59 871.879 1862.01 L 858.769 1856.49 L 871.994 1851.01 L 877.094 1838.61 z"/>
<path transform="translate(0,0)" fill="rgb(39,66,109)" d="M 1812.7 1285.73 C 1813.45 1289.02 1816.29 1286.33 1820.37 1288.53 C 1825.35 1287.83 1825.2 1287.7 1829.19 1290.13 L 1826.64 1290.37 L 1825.89 1291.65 L 1827.12 1293.84 C 1830.02 1295.75 1831.08 1295.37 1834.36 1295.17 C 1836.4 1301.41 1836.59 1310.38 1833.59 1316.39 L 1832.88 1315.57 C 1830.09 1316.86 1833.13 1317.89 1830.46 1319.2 C 1824.06 1322.33 1808.8 1324.75 1804.16 1318.12 C 1802.02 1315.33 1797.67 1310.32 1798.94 1306.6 L 1802.15 1310.3 C 1802.98 1307.6 1801.16 1306.38 1803.9 1302.32 C 1807.71 1300.51 1815.24 1296.31 1813.44 1291.09 C 1810.66 1292.13 1809.89 1292.6 1806.92 1292.84 L 1806.36 1291.35 C 1805.25 1295.36 1803.94 1300.72 1801.04 1303.57 L 1799.35 1303.26 C 1795.4 1294.9 1806.12 1288.1 1812.7 1285.73 z"/>
<path transform="translate(0,0)" fill="rgb(253,254,254)" d="M 1816.04 1291.53 C 1818.85 1294.05 1819.84 1298.92 1826.3 1304.43 L 1827.83 1305.73 C 1821.09 1308.87 1820.02 1310.26 1817.59 1317.37 L 1817.16 1318.67 C 1813.8 1315.48 1814.9 1311.5 1810.46 1308.75 C 1809.3 1308.03 1806.9 1305.59 1805.74 1304.52 C 1811.99 1301.57 1813.28 1299.12 1815.58 1292.83 L 1816.04 1291.53 z"/>
<path transform="translate(0,0)" fill="rgb(46,47,55)" d="M 225.57 1167.23 C 230.061 1167.72 235.94 1176.22 238.094 1180.24 C 237.091 1183.5 229.743 1190.46 226.789 1193.14 C 222.51 1190.79 218.43 1186.62 215.667 1182.58 C 214.544 1174.17 222.234 1175.47 225.57 1167.23 z"/>
<path transform="translate(0,0)" fill="rgb(250,233,180)" d="M 1283.1 236.505 C 1286.64 239.952 1284.74 239.525 1290.47 243.162 L 1291.68 243.92 C 1291.76 247.067 1289.79 252.5 1287.54 254.718 L 1283.37 253.453 C 1280.39 253.819 1282.08 255.086 1277.33 254.596 C 1277.3 247.989 1278.71 250.086 1274.9 245.305 L 1275.91 243.346 C 1280.12 241.233 1280.94 240.711 1283.1 236.505 z"/>
<path transform="translate(0,0)" fill="rgb(250,233,180)" d="M 689.177 265.651 C 692.714 269.45 693.215 270.093 697.345 273.962 C 694.923 277.168 695.344 279.726 695.098 284.06 L 694 284.476 L 689.16 282.179 C 686.138 283.912 686.298 284.528 683.488 284.234 C 682.91 281.892 683.271 280.598 683.688 278.241 L 680.803 274.951 C 680.238 271.297 682.291 273.113 686.38 270.165 C 686.38 270.165 688.954 266.011 689.177 265.651 z"/>
<path transform="translate(0,0)" fill="rgb(249,224,159)" d="M 255.206 672.706 C 255.664 672.883 261.296 677.598 262.321 678.378 C 263.966 684.311 262.406 683.542 261.178 689.378 L 259.621 688.781 C 256.198 688.097 255.23 688.626 252.065 689.679 L 250.845 688.904 C 249.725 685.678 248.222 682.131 248.127 678.801 C 252.217 677.049 252.917 676.528 255.206 672.706 z"/>
<path transform="translate(0,0)" fill="rgb(253,254,254)" d="M 1391.98 1788.46 C 1394.33 1791.09 1394.34 1792.46 1398.21 1796.25 L 1398.87 1796.88 L 1398.81 1798.96 C 1395.41 1802.17 1394.79 1803.24 1392.89 1807.51 C 1391.7 1806.46 1390.75 1804.7 1389.65 1803.43 L 1386.02 1799.28 L 1386.25 1796.82 C 1389.48 1793.72 1390.11 1792.54 1391.98 1788.46 z"/>
<path transform="translate(0,0)" fill="rgb(250,233,180)" d="M 1818.11 853.53 C 1819.42 855.001 1824.99 862.401 1825.18 863.78 C 1821.52 867.026 1820.47 867.882 1818.71 872.449 C 1816.83 870.161 1815.16 867.715 1813.09 865.59 L 1811.71 864.185 L 1811.95 861.985 C 1815.5 858.858 1816.17 857.848 1818.11 853.53 z"/>
<path transform="translate(0,0)" fill="rgb(253,254,254)" d="M 397.175 1593.53 C 399.649 1591.92 402.955 1592.56 404.648 1594.98 C 406.34 1597.4 405.811 1600.73 403.451 1602.5 C 401.852 1603.7 399.724 1603.94 397.901 1603.11 C 396.079 1602.29 394.851 1600.53 394.7 1598.54 C 394.548 1596.54 395.497 1594.62 397.175 1593.53 z"/>
<path transform="translate(0,0)" fill="rgb(253,254,254)" d="M 1626.83 413.538 C 1628.6 412.419 1630.85 412.415 1632.62 413.527 C 1634.39 414.64 1635.37 416.671 1635.13 418.749 C 1634.89 420.827 1633.48 422.583 1631.5 423.263 C 1628.89 424.158 1626.03 422.961 1624.84 420.477 C 1623.64 417.994 1624.5 415.011 1626.83 413.538 z"/>
<path transform="translate(0,0)" fill="rgb(249,224,159)" d="M 1326.53 1851.5 C 1328.14 1850.37 1330.24 1850.23 1331.99 1851.12 C 1333.74 1852.02 1334.85 1853.82 1334.87 1855.78 C 1334.89 1857.75 1333.82 1859.56 1332.09 1860.5 C 1329.62 1861.82 1326.55 1861 1325.07 1858.62 C 1323.6 1856.23 1324.24 1853.11 1326.53 1851.5 z"/>
<path transform="translate(0,0)" fill="rgb(253,254,254)" d="M 1880.28 1148.48 C 1883.01 1147.81 1885.78 1149.4 1886.58 1152.1 C 1887.38 1154.79 1885.93 1157.64 1883.28 1158.57 C 1881.44 1159.22 1879.4 1158.8 1877.96 1157.49 C 1876.53 1156.17 1875.93 1154.17 1876.42 1152.29 C 1876.9 1150.4 1878.39 1148.94 1880.28 1148.48 z"/>
<path transform="translate(0,0)" fill="rgb(249,224,159)" d="M 1834.25 759.516 C 1837.01 758.79 1839.83 760.44 1840.56 763.2 C 1841.28 765.96 1839.63 768.784 1836.87 769.507 C 1834.11 770.229 1831.29 768.579 1830.56 765.821 C 1829.84 763.063 1831.49 760.24 1834.25 759.516 z"/>
<path transform="translate(0,0)" fill="rgb(253,254,254)" d="M 174.277 927.554 C 176.92 926.813 179.678 928.28 180.542 930.885 C 181.406 933.49 180.071 936.314 177.509 937.299 C 175.742 937.979 173.743 937.632 172.309 936.396 C 170.874 935.159 170.236 933.234 170.647 931.386 C 171.059 929.537 172.454 928.064 174.277 927.554 z"/>
<path transform="translate(0,0)" fill="rgb(249,224,159)" d="M 1692.17 1515.59 C 1694.78 1515.23 1697.23 1516.92 1697.83 1519.49 C 1698.43 1522.06 1696.98 1524.66 1694.48 1525.5 C 1692.64 1526.12 1690.61 1525.64 1689.24 1524.26 C 1687.87 1522.89 1687.4 1520.86 1688.02 1519.02 C 1688.64 1517.18 1690.25 1515.85 1692.17 1515.59 z"/>
<path transform="translate(0,0)" fill="rgb(249,224,159)" d="M 191.319 1231.5 C 193.718 1230.06 196.828 1230.84 198.261 1233.24 C 199.695 1235.65 198.908 1238.75 196.505 1240.18 C 194.107 1241.61 191.007 1240.83 189.577 1238.43 C 188.147 1236.04 188.926 1232.93 191.319 1231.5 z"/>
<path transform="translate(0,0)" fill="rgb(207,170,105)" d="M 991.455 176.501 C 993.979 175.421 996.901 176.58 997.998 179.096 C 999.095 181.613 997.956 184.543 995.447 185.657 C 992.914 186.781 989.95 185.629 988.843 183.088 C 987.735 180.548 988.908 177.592 991.455 176.501 z"/>
<path transform="translate(0,0)" fill="rgb(250,233,180)" d="M 396.407 445.562 C 397.822 444.621 399.634 444.512 401.151 445.279 C 402.668 446.045 403.656 447.567 403.739 449.265 C 403.821 450.963 402.984 452.573 401.548 453.482 C 399.362 454.866 396.47 454.233 395.062 452.064 C 393.654 449.894 394.254 446.995 396.407 445.562 z"/>
</svg>