<svg version="1.1" xmlns="http://www.w3.org/2000/svg" style="display: block;" viewBox="0 0 2048 2048" width="1024" height="1024" preserveAspectRatio="none">
<path transform="translate(0,0)" fill="rgb(255,255,255)" d="M 0 0 L 2048 0 L 2048 2048 L 0 2048 L 0 0 z"/>
<path transform="translate(0,0)" fill="rgb(208,174,96)" d="M 1012.63 340.901 C 1389.71 334.555 1700.54 635.116 1706.85 1012.2 C 1713.17 1389.29 1412.58 1700.09 1035.5 1706.37 C 658.453 1712.66 347.697 1412.11 341.383 1035.07 C 335.069 658.027 635.587 347.246 1012.63 340.901 z"/>
<path transform="translate(0,0)" fill="rgb(10,29,58)" d="M 614.272 1532.78 C 398.128 1358.79 315.399 1067.29 407.922 805.694 C 500.445 544.101 748.053 369.437 1025.53 370.033 C 1303 370.629 1549.85 546.355 1641.25 808.343 C 1732.65 1070.33 1648.67 1361.47 1431.78 1534.54 C 1244.26 1684.16 989.844 1719.04 768.979 1625.39 C 713.379 1601.81 661.315 1570.65 614.272 1532.78 z"/>
<path transform="translate(0,0)" fill="rgb(66,65,55)" d="M 1107.51 1362.87 C 1129.75 1366.82 1141.69 1376.11 1160.66 1387.66 L 1220.12 1424.24 C 1228.33 1429.28 1243.66 1439.11 1251.74 1443.19 C 1271.18 1452.98 1297.04 1446.33 1318.3 1459.28 C 1331.28 1467.2 1343.62 1475.71 1356.19 1484.1 L 1431.78 1534.54 C 1244.26 1684.16 989.844 1719.04 768.979 1625.39 C 772.897 1620.6 808.201 1604.71 816.267 1600.77 L 878.918 1570.15 C 914.384 1552.96 921.895 1550.23 960.751 1543.88 L 1021.14 1533.99 C 1031.23 1532.29 1052.07 1529.21 1060.7 1524.89 C 1074.34 1518.07 1090.65 1506.33 1104.21 1498.13 C 1114.62 1491.84 1138.91 1478.01 1146.85 1470.1 C 1144.72 1458.93 1139.27 1447.79 1135.5 1437.16 C 1127.15 1413.62 1114.26 1386.46 1107.51 1362.87 z"/>
<path transform="translate(0,0)" fill="rgb(195,197,199)" d="M 1021.24 590.364 C 1032.39 589.972 1042.31 592.73 1050.56 600.496 C 1058.78 608.305 1063.43 619.149 1063.43 630.488 C 1063.39 641.574 1059.55 649.398 1052.88 657.891 L 1052.86 823.199 L 1154.86 823.037 C 1161.48 837.139 1174.09 861.423 1178.11 875.112 L 1157.86 882.394 C 1123.92 869.311 1111.43 865.275 1075.52 859.783 C 1074.23 869.477 1074.94 900.865 1074.96 912.202 L 1075.09 1016.03 L 1074.97 1368.22 C 1058.14 1373.65 1041.34 1379.18 1024.57 1384.81 C 1013.1 1388.2 982.433 1399.32 972.904 1401.13 L 972.837 862.891 L 972.545 860.069 C 989.326 859.221 1006.29 857.074 1023.94 856.251 C 1024.15 844.977 1024.25 834.673 1023.93 823.381 L 995.082 823.08 L 995.125 658.032 C 990.099 651.546 986.966 646.135 985.434 637.975 C 983.325 626.981 985.878 615.605 992.484 606.567 C 1000.03 596.419 1009.26 592.296 1021.24 590.364 z"/>
<path transform="translate(0,0)" fill="rgb(255,255,255)" d="M 972.837 862.891 C 989.681 863.011 1006.97 862.931 1023.75 863.776 L 1023.86 1223.14 L 1023.85 1328.36 C 1023.85 1342.58 1023.07 1371.85 1024.57 1384.81 C 1013.1 1388.2 982.433 1399.32 972.904 1401.13 L 972.837 862.891 z"/>
<path transform="translate(0,0)" fill="rgb(174,177,180)" d="M 1021.24 590.364 C 1032.39 589.972 1042.31 592.73 1050.56 600.496 C 1058.78 608.305 1063.43 619.149 1063.43 630.488 C 1063.39 641.574 1059.55 649.398 1052.88 657.891 L 1052.86 823.199 C 1046.04 823.332 1031.46 824.658 1025.65 821.934 C 1024.36 821.325 1024.55 819.439 1024.19 817.345 L 1023.81 646 C 1023.8 629.928 1024.33 609.406 1023.96 593.122 C 1023.92 591.375 1023.14 591.491 1021.24 590.364 z"/>
<path transform="translate(0,0)" fill="rgb(88,86,76)" d="M 1075.52 859.783 C 1076.79 870.623 1075.88 883.166 1076.23 894.15 C 1076.93 916.379 1075.41 941.558 1076.52 963.51 C 1079.1 1014.9 1076.56 1065.48 1076.26 1116.73 L 1075.88 1367.85 C 1089.93 1362.99 1092.76 1362.72 1107.51 1362.87 C 1114.26 1386.46 1127.15 1413.62 1135.5 1437.16 C 1139.27 1447.79 1144.72 1458.93 1146.85 1470.1 C 1138.91 1478.01 1114.62 1491.84 1104.21 1498.13 C 1090.65 1506.33 1074.34 1518.07 1060.7 1524.89 C 1052.07 1529.21 1031.23 1532.29 1021.14 1533.99 L 960.751 1543.88 C 921.895 1550.23 914.384 1552.96 878.918 1570.15 L 816.267 1600.77 C 808.201 1604.71 772.897 1620.6 768.979 1625.39 C 713.379 1601.81 661.315 1570.65 614.272 1532.78 C 645.95 1513.14 678.179 1488.94 709.722 1468.72 C 722.811 1460.33 748.791 1440.87 761.865 1436.8 C 786.885 1429.02 829.372 1440.12 855.169 1438.96 C 860.519 1438.72 901.271 1425.03 909.738 1422 C 928.178 1415.4 955.448 1408.23 972.904 1401.13 C 982.433 1399.32 1013.1 1388.2 1024.57 1384.81 C 1041.34 1379.18 1058.14 1373.65 1074.97 1368.22 L 1075.09 1016.03 L 1074.96 912.202 C 1074.94 900.865 1074.23 869.477 1075.52 859.783 z"/>
<path transform="translate(0,0)" fill="rgb(255,255,255)" d="M 893.556 823.084 C 927.398 823.26 961.24 823.259 995.082 823.08 L 1023.93 823.381 C 1024.25 834.673 1024.15 844.977 1023.94 856.251 C 1006.29 857.074 989.326 859.221 972.545 860.069 C 937.688 864.7 922.869 869.799 890.818 882.563 L 870.144 874.992 C 874.729 859.894 886.233 837.978 893.556 823.084 z"/>
<path transform="translate(0,0)" fill="rgb(255,255,255)" d="M 1253.3 534.666 C 1254.85 536.79 1255.97 538.309 1257.8 540.233 L 1259.12 541.602 C 1259.22 545.019 1256.13 547.534 1253.49 550.989 C 1251.5 547.055 1248.43 545.603 1247.87 542.159 C 1250.62 539.303 1250.86 539.003 1252.84 535.497 L 1253.3 534.666 z"/>
<path transform="translate(0,0)" fill="rgb(255,255,255)" d="M 712.78 775.747 C 715.672 779.63 717.74 779.864 718.185 783.145 C 715.745 785.748 715.433 786.227 713.574 789.348 L 713.097 790.158 C 711.018 786.409 708.038 784.897 706.876 782.189 C 709.683 779.797 710.043 779.453 712.262 776.458 L 712.78 775.747 z"/>
<path transform="translate(0,0)" fill="rgb(255,255,255)" d="M 557.431 1050.47 L 558.067 1050.47 C 559.863 1054.14 561.596 1053.11 562.991 1057.28 C 561.103 1058.98 560.467 1059.59 558.964 1061.56 L 557.782 1063.14 C 554.24 1060.91 553.108 1060.73 552.585 1056.22 C 553.733 1053.47 555.231 1052.47 557.431 1050.47 z"/>
<path transform="translate(0,0)" fill="rgb(255,255,255)" d="M 1312.03 1077.93 C 1314.89 1081.01 1316.46 1081.53 1316.84 1084.86 C 1314.64 1087.58 1314.03 1088.69 1312.35 1091.64 C 1309.91 1087.38 1307.99 1087.43 1306.47 1084.11 C 1308.36 1081.74 1309.95 1080.09 1312.03 1077.93 z"/>
</svg>