<svg version="1.1" xmlns="http://www.w3.org/2000/svg" style="display: block;" viewBox="0 0 2048 2048" width="1024" height="1024" preserveAspectRatio="none">
<defs>
	<linearGradient id="Gradient1" gradientUnits="userSpaceOnUse" x1="1117.87" y1="643.421" x2="1100.74" y2="582.423">
		<stop class="stop0" offset="0" stop-opacity="1" stop-color="rgb(180,129,63)"/>
		<stop class="stop1" offset="1" stop-opacity="1" stop-color="rgb(230,193,112)"/>
	</linearGradient>
	<linearGradient id="Gradient2" gradientUnits="userSpaceOnUse" x1="1360.21" y1="823.242" x2="1385.74" y2="767.87">
		<stop class="stop0" offset="0" stop-opacity="1" stop-color="rgb(180,130,63)"/>
		<stop class="stop1" offset="1" stop-opacity="1" stop-color="rgb(225,187,106)"/>
	</linearGradient>
	<linearGradient id="Gradient3" gradientUnits="userSpaceOnUse" x1="672.362" y1="1189.75" x2="636.086" y2="1247.92">
		<stop class="stop0" offset="0" stop-opacity="1" stop-color="rgb(182,133,61)"/>
		<stop class="stop1" offset="1" stop-opacity="1" stop-color="rgb(237,204,123)"/>
	</linearGradient>
	<linearGradient id="Gradient4" gradientUnits="userSpaceOnUse" x1="704.951" y1="1194.71" x2="715.456" y2="1190.36">
		<stop class="stop0" offset="0" stop-opacity="1" stop-color="rgb(192,164,104)"/>
		<stop class="stop1" offset="1" stop-opacity="1" stop-color="rgb(244,191,124)"/>
	</linearGradient>
	<linearGradient id="Gradient5" gradientUnits="userSpaceOnUse" x1="760.328" y1="1165.29" x2="717.562" y2="1198.6">
		<stop class="stop0" offset="0" stop-opacity="1" stop-color="rgb(226,190,105)"/>
		<stop class="stop1" offset="1" stop-opacity="1" stop-color="rgb(253,225,144)"/>
	</linearGradient>
	<linearGradient id="Gradient6" gradientUnits="userSpaceOnUse" x1="806.993" y1="1135.96" x2="744.112" y2="1181.83">
		<stop class="stop0" offset="0" stop-opacity="1" stop-color="rgb(182,132,58)"/>
		<stop class="stop1" offset="1" stop-opacity="1" stop-color="rgb(229,192,110)"/>
	</linearGradient>
	<linearGradient id="Gradient7" gradientUnits="userSpaceOnUse" x1="1080.51" y1="751.12" x2="1082.27" y2="670.311">
		<stop class="stop0" offset="0" stop-opacity="1" stop-color="rgb(205,161,84)"/>
		<stop class="stop1" offset="1" stop-opacity="1" stop-color="rgb(254,226,140)"/>
	</linearGradient>
	<linearGradient id="Gradient8" gradientUnits="userSpaceOnUse" x1="1232.36" y1="894.587" x2="1293.16" y2="840.142">
		<stop class="stop0" offset="0" stop-opacity="1" stop-color="rgb(182,130,57)"/>
		<stop class="stop1" offset="1" stop-opacity="1" stop-color="rgb(233,197,116)"/>
	</linearGradient>
	<linearGradient id="Gradient9" gradientUnits="userSpaceOnUse" x1="1112.8" y1="1196.6" x2="898.405" y2="767.797">
		<stop class="stop0" offset="0" stop-opacity="1" stop-color="rgb(199,152,76)"/>
		<stop class="stop1" offset="1" stop-opacity="1" stop-color="rgb(253,229,143)"/>
	</linearGradient>
	<linearGradient id="Gradient10" gradientUnits="userSpaceOnUse" x1="1023.36" y1="1766" x2="1023.64" y2="282.009">
		<stop class="stop0" offset="0" stop-opacity="1" stop-color="rgb(181,132,66)"/>
		<stop class="stop1" offset="1" stop-opacity="1" stop-color="rgb(235,206,125)"/>
	</linearGradient>
</defs>
<path transform="translate(0,0)" fill="rgb(9,25,41)" d="M 0 0 L 2048 0 L 2048 2048 L 0 2048 L 0 0 z"/>
<path transform="translate(0,0)" fill="rgb(9,25,41)" d="M 939.446 284.299 C 995.665 276.529 1067.89 278.46 1123.84 285.862 C 1320.66 313.134 1498.51 417.665 1618.09 576.35 C 1736.8 733.272 1788.38 930.894 1761.5 1125.82 C 1733.65 1322.29 1628.79 1499.62 1470.04 1618.68 C 1313.27 1737.09 1115.86 1788.34 921.289 1761.13 C 724.919 1732.91 547.798 1627.85 428.881 1469.05 C 309.962 1311.56 259.004 1113.03 287.372 917.739 C 315.423 724.318 418.509 549.721 574.323 431.734 C 654.454 372.004 736.076 330.175 833.177 304.125 C 843.526 301.348 875.308 293.169 885.778 292.365 C 900.155 289.409 914.662 287.126 929.252 285.522 C 933.512 284.662 935.111 284.437 939.446 284.299 z"/>
<path transform="translate(0,0)" fill="url(#Gradient10)" d="M 939.446 284.299 C 949.893 287.008 966.172 280.566 976.148 282.728 L 975.403 284.684 L 976.962 286.137 L 979.961 285.412 C 985.34 289.219 979.958 289.561 984.936 290.228 C 988.224 288.674 988.54 287.735 991.076 288.561 C 991.806 291.136 992.096 291.174 991.357 293.664 L 990.365 294.396 C 948.267 326.06 926.276 283.617 897.143 316.797 L 893.314 317.322 L 894.67 318.397 L 892.94 318.899 C 882.56 321.855 866.751 324.575 855.638 327.185 C 832.057 332.684 808.808 339.52 786.004 347.661 C 623.425 405.665 486.969 519.935 401.318 669.803 C 306.695 835.291 282.2 1031.75 333.292 1215.41 C 384.567 1397.62 505.391 1552.39 669.717 1646.34 C 835.08 1741.4 1031.73 1765.94 1215.38 1714.45 C 1399.66 1662.83 1555.83 1540.03 1649.48 1373.14 C 1741.79 1209.15 1765.46 1015.3 1715.3 833.922 C 1663.95 648.728 1540.67 491.763 1372.92 397.993 C 1325.89 371.827 1275.35 349.673 1223.37 335.224 C 1216.67 333.362 1208.69 331.386 1202.31 329 L 1202.36 328.222 C 1198.57 326.221 1198.01 326.019 1193.74 326.119 C 1187.8 315.07 1118.11 321.408 1115.71 301.362 C 1118.29 294.83 1124.89 297.721 1125.55 289.485 L 1123.13 288.004 L 1123.84 285.862 C 1320.66 313.134 1498.51 417.665 1618.09 576.35 C 1736.8 733.272 1788.38 930.894 1761.5 1125.82 C 1733.65 1322.29 1628.79 1499.62 1470.04 1618.68 C 1313.27 1737.09 1115.86 1788.34 921.289 1761.13 C 724.919 1732.91 547.798 1627.85 428.881 1469.05 C 309.962 1311.56 259.004 1113.03 287.372 917.739 C 315.423 724.318 418.509 549.721 574.323 431.734 C 654.454 372.004 736.076 330.175 833.177 304.125 C 843.526 301.348 875.308 293.169 885.778 292.365 C 900.155 289.409 914.662 287.126 929.252 285.522 C 933.512 284.662 935.111 284.437 939.446 284.299 z"/>
<path transform="translate(0,0)" fill="rgb(237,208,130)" d="M 885.778 292.365 C 900.155 289.409 914.662 287.126 929.252 285.522 L 931.217 286.364 L 929.824 286.614 C 920.332 288.394 915.551 294.426 906.892 293.682 L 906.381 292.871 L 907.351 291.375 L 906.417 290.374 C 899.562 291.268 892.546 293.986 885.778 292.365 z"/>
<path transform="translate(0,0)" fill="rgb(237,208,130)" d="M 939.446 284.299 C 995.665 276.529 1067.89 278.46 1123.84 285.862 L 1123.13 288.004 L 1125.55 289.485 C 1124.89 297.721 1118.29 294.83 1115.71 301.362 C 1118.11 321.408 1187.8 315.07 1193.74 326.119 C 1198.01 326.019 1198.57 326.221 1202.36 328.222 L 1202.31 329 C 1195.96 328.424 1182.72 324.86 1176.12 323.296 C 1081.27 300.812 990.201 304.032 894.67 318.397 L 893.314 317.322 L 897.143 316.797 C 926.276 283.617 948.267 326.06 990.365 294.396 L 991.357 293.664 C 992.096 291.174 991.806 291.136 991.076 288.561 C 988.54 287.735 988.224 288.674 984.936 290.228 C 979.958 289.561 985.34 289.219 979.961 285.412 L 976.962 286.137 L 975.403 284.684 L 976.148 282.728 C 966.172 280.566 949.893 287.008 939.446 284.299 z"/>
<path transform="translate(0,0)" fill="rgb(71,73,68)" d="M 1100.89 663.97 C 1101.82 663.622 1102.46 663.297 1103.57 663.363 C 1125.79 664.696 1123.33 690.018 1128.31 705.583 C 1129.54 709.425 1132.34 725.2 1136.03 726.125 C 1154.45 730.743 1173.01 730.513 1189.7 741.6 C 1194.69 744.92 1199.51 752.091 1204.38 755.838 C 1212.48 761.756 1222.33 766.397 1230.73 772.008 C 1242.35 779.292 1246.6 792.741 1256.54 801.316 C 1260.43 804.669 1269.12 804.865 1273.32 808.244 L 1273.55 810.999 C 1280.39 813.069 1288.16 808.157 1294.78 805.605 C 1313.75 797.516 1330.98 820.004 1336.76 835.658 C 1341.89 850.89 1325.34 867.877 1317.51 880.6 C 1305.94 899.383 1321.04 897.921 1326.71 914.548 C 1362.42 1019.41 1348.09 1130.79 1280.14 1219.16 C 1174.78 1356.16 970.019 1391.45 831.423 1285.13 C 822.186 1278.08 808.097 1268.75 799.947 1260.37 C 788.855 1248.97 782.857 1228.78 767.469 1220.82 C 762.59 1217.99 762.808 1219.06 759.873 1213.73 C 746.092 1206.83 725.972 1233.36 705.706 1201.3 C 681.377 1162.83 707.9 1167.17 717.924 1133.32 C 719.811 1126.95 704.585 1097.97 705.044 1088.98 C 704.784 1080.96 702.103 1065.69 702.33 1056.85 C 698.974 1042.13 701.75 1034.28 702.071 1020.53 C 702.788 989.782 702.414 956.566 715.258 927.794 C 724.198 915.249 721.431 900.325 727 887.894 C 741.039 858.387 762.765 825.299 786.191 802.416 C 800.515 788.424 818.628 772.149 833.055 758.033 C 843.474 747.838 871.859 741.407 883.978 728.869 C 887.16 725.577 912.943 717.427 918.448 714.801 C 929.592 711.776 940.832 704.988 952.565 703.858 C 973.893 701.802 1000.65 698.42 1021.86 701.51 C 1029.6 702.639 1031.1 707.268 1039.34 702.322 C 1040.03 692.226 1050.55 691.792 1054.18 685.858 C 1061.95 673.145 1066.15 656.736 1085.38 660.368 C 1091.82 661.585 1095.18 659.031 1100.16 663.857 L 1100.89 663.97 z"/>
<path transform="translate(0,0)" fill="url(#Gradient9)" d="M 745.362 1088.57 C 740.817 1067.69 738.187 1051.37 737.609 1029.55 C 735.881 953.33 764.777 879.597 817.833 824.846 C 867.429 772.984 940.881 739.594 1012.75 737.801 C 1005.74 744.354 1005.14 746.451 1011.62 755.173 C 1029.44 779.152 1139.36 797.723 1152.35 767.539 C 1181.56 783.558 1194.7 792.864 1219.81 814.682 C 1215.05 816.412 1206.93 815.435 1205.71 820.707 C 1198.22 853.137 1228.36 894.319 1249.67 915.617 C 1263.69 929.631 1276.73 940.594 1295.8 939.999 C 1296.88 942.456 1297.91 944.935 1298.89 947.437 C 1300.91 956.541 1309.07 990.673 1306.98 998.236 C 1301.75 1003.36 1293.9 1008.13 1294.17 1014.34 C 1294.17 1014.3 1283.81 1023.61 1283.66 1025.41 C 1278.87 1035.49 1275.74 1043.77 1269.53 1053.26 C 1259.56 1068.53 1248.41 1083.62 1237.61 1098.29 C 1230.25 1108.28 1218.6 1117.8 1209.96 1126.61 C 1190.28 1146.78 1168.75 1163.81 1144.89 1178.86 C 1138.75 1182.73 1132.25 1187.61 1125.82 1190.95 C 1119.07 1194.46 1111.53 1197.05 1104.54 1200.12 C 1096.59 1203.62 1088.76 1207.52 1080.7 1210.75 C 1065.98 1216.63 1051.51 1223.31 1036.04 1227.01 C 994.81 1237.8 954.408 1238 912.18 1238.4 C 894.929 1238.56 870.291 1231.99 852.814 1230.42 C 849.651 1230.13 844.276 1229.99 841.472 1230.84 C 840.32 1231.19 833.123 1234.2 833.159 1234.23 C 829.352 1231.66 820.978 1222.92 817.904 1219.83 C 828.39 1218.04 830.721 1207.68 829.809 1198.38 C 826.182 1161.39 806.054 1124.66 778.47 1100.03 C 771.635 1093.93 759.636 1085.26 750.372 1085.86 C 748.706 1086.97 747.268 1087.93 745.362 1088.57 z"/>
<path transform="translate(0,0)" fill="rgb(191,143,67)" d="M 1300.34 947.052 C 1320.63 1020.23 1311.17 1098.46 1274.02 1164.69 C 1235.93 1231.49 1172.93 1280.48 1098.8 1300.93 C 1025.88 1320.59 948.139 1310.62 882.534 1273.2 C 865.431 1263.37 850.641 1252.21 835.716 1239.59 C 825.54 1230.99 815.782 1216.61 803.32 1213.84 C 802.638 1213.64 801.956 1213.44 801.273 1213.24 L 802.654 1211.81 C 810.381 1212.84 812.171 1214.44 817.904 1219.83 C 820.978 1222.92 829.352 1231.66 833.159 1234.23 C 833.123 1234.2 840.32 1231.19 841.472 1230.84 C 844.276 1229.99 849.651 1230.13 852.814 1230.42 C 870.291 1231.99 894.929 1238.56 912.18 1238.4 C 954.408 1238 994.81 1237.8 1036.04 1227.01 C 1051.51 1223.31 1065.98 1216.63 1080.7 1210.75 C 1088.76 1207.52 1096.59 1203.62 1104.54 1200.12 C 1111.53 1197.05 1119.07 1194.46 1125.82 1190.95 C 1132.25 1187.61 1138.75 1182.73 1144.89 1178.86 C 1168.75 1163.81 1190.28 1146.78 1209.96 1126.61 C 1218.6 1117.8 1230.25 1108.28 1237.61 1098.29 C 1248.41 1083.62 1259.56 1068.53 1269.53 1053.26 C 1275.74 1043.77 1278.87 1035.49 1283.66 1025.41 C 1283.81 1023.61 1294.17 1014.3 1294.17 1014.34 C 1293.9 1008.13 1301.75 1003.36 1306.98 998.236 C 1309.07 990.673 1300.91 956.541 1298.89 947.437 L 1300.34 947.052 z"/>
<path transform="translate(0,0)" fill="url(#Gradient8)" d="M 1273.32 813.804 C 1284.21 810.65 1302.54 803.41 1312.64 808.638 C 1324.83 814.943 1333.17 829.759 1336.38 842.859 C 1336.66 843.997 1336.93 845.139 1337.19 846.284 C 1335.4 849.514 1326.86 862.793 1324.6 864.856 C 1312.55 886.272 1301.54 907.578 1296 931.8 L 1300.34 947.052 L 1298.89 947.437 C 1297.91 944.935 1296.88 942.456 1295.8 939.999 C 1276.73 940.594 1263.69 929.631 1249.67 915.617 C 1228.36 894.319 1198.22 853.137 1205.71 820.707 C 1206.93 815.435 1215.05 816.412 1219.81 814.682 C 1227.36 820.401 1262.35 815.163 1273.32 813.804 z"/>
<path transform="translate(0,0)" fill="rgb(237,208,130)" d="M 1273.32 813.804 C 1284.21 810.65 1302.54 803.41 1312.64 808.638 C 1324.83 814.943 1333.17 829.759 1336.38 842.859 C 1336.66 843.997 1336.93 845.139 1337.19 846.284 C 1335.4 849.514 1326.86 862.793 1324.6 864.856 C 1319.48 867.603 1321.89 868.905 1314.5 868.059 C 1310.84 864.624 1312.93 865.317 1311.18 859.339 C 1307.64 859.98 1303.84 864.435 1299.1 866.966 C 1279.65 864.881 1257.42 834.158 1265.24 817.047 C 1269.17 816.3 1270.04 816.067 1273.32 813.804 z"/>
<path transform="translate(0,0)" fill="rgb(71,73,68)" d="M 1304.48 810.401 C 1317.71 813.773 1334.43 834.475 1330.3 847.993 C 1329.52 847.756 1328.75 847.504 1327.98 847.236 C 1315.57 842.86 1299.09 824.472 1304.48 810.401 z"/>
<path transform="translate(0,0)" fill="url(#Gradient7)" d="M 1070.92 669.817 C 1086.12 664.815 1105.44 666.251 1115.94 679.616 C 1118.88 679.852 1118.76 679.953 1121.47 681.231 C 1123.08 698.965 1128.88 715.368 1134.83 732 C 1140.36 745.132 1144.55 755.555 1152.35 767.539 C 1139.36 797.723 1029.44 779.152 1011.62 755.173 C 1005.14 746.451 1005.74 744.354 1012.75 737.801 C 1017.22 735.089 1027.65 723.549 1031.76 719.18 C 1048.55 698.128 1054.02 691.324 1067.13 667.124 L 1070.92 669.817 z"/>
<path transform="translate(0,0)" fill="rgb(191,143,67)" d="M 1109 698.541 C 1114.27 712.906 1119.53 727.757 1125.4 741.842 C 1127.97 739.217 1133.31 734.854 1134.83 732 C 1140.36 745.132 1144.55 755.555 1152.35 767.539 C 1139.36 797.723 1029.44 779.152 1011.62 755.173 C 1005.14 746.451 1005.74 744.354 1012.75 737.801 C 1017.22 735.089 1027.65 723.549 1031.76 719.18 C 1030.64 722.248 1029.43 723.511 1030.78 726.138 C 1036.42 737.111 1052.52 744.606 1063 749.057 C 1077.61 755.258 1099.05 751.366 1113.29 745.51 C 1110.23 728.866 1108.57 715.727 1109 698.541 z"/>
<path transform="translate(0,0)" fill="rgb(71,73,68)" d="M 1070.92 669.817 C 1086.12 664.815 1105.44 666.251 1115.94 679.616 C 1103.66 686.163 1076.04 684.814 1070.92 669.817 z"/>
<path transform="translate(0,0)" fill="url(#Gradient6)" d="M 745.362 1088.57 C 747.268 1087.93 748.706 1086.97 750.372 1085.86 C 759.636 1085.26 771.635 1093.93 778.47 1100.03 C 806.054 1124.66 826.182 1161.39 829.809 1198.38 C 830.721 1207.68 828.39 1218.04 817.904 1219.83 C 812.171 1214.44 810.381 1212.84 802.654 1211.81 L 801.273 1213.24 C 788.241 1212.13 777.485 1211.47 764.473 1211.05 C 757.104 1211.6 739.844 1212.7 733.267 1214.64 C 731.97 1213.63 732.74 1214.13 730.647 1213.2 L 728.818 1212.4 L 728.372 1207.72 C 728.74 1192.47 720.139 1176.61 706.17 1169.95 C 703.42 1168.77 702.179 1168.57 699.305 1167.83 C 701.595 1164.46 707.507 1158.33 710.467 1155.08 C 719.103 1142.88 748.149 1102.72 745.362 1088.57 z"/>
<path transform="translate(0,0)" fill="url(#Gradient5)" d="M 722.144 1164.02 C 731.391 1155.7 740.491 1147.22 749.439 1138.58 L 749.742 1138.92 C 746.657 1143.32 745.707 1144.15 741.636 1147.72 C 755.344 1157.66 769.952 1172.38 772.941 1189.67 C 774.071 1196.2 773.61 1202.16 774.529 1209.06 C 771.206 1210.76 769.264 1209.04 764.473 1211.05 C 757.104 1211.6 739.844 1212.7 733.267 1214.64 C 731.97 1213.63 732.74 1214.13 730.647 1213.2 L 728.818 1212.4 L 728.372 1207.72 C 728.74 1192.47 720.139 1176.61 706.17 1169.95 C 703.42 1168.77 702.179 1168.57 699.305 1167.83 C 701.595 1164.46 707.507 1158.33 710.467 1155.08 C 719.771 1151.5 717.9 1140.72 727.117 1141.82 C 729.397 1143.49 730.432 1143.75 731.569 1146.06 C 728.742 1151.17 724.211 1158.84 722.144 1164.02 z"/>
<path transform="translate(0,0)" fill="rgb(71,73,68)" d="M 728.372 1207.72 C 722.798 1210.13 718.761 1206.72 715.194 1202.5 C 709.813 1196.13 697.494 1176.25 706.17 1169.95 C 720.139 1176.61 728.74 1192.47 728.372 1207.72 z"/>
<path transform="translate(0,0)" fill="url(#Gradient4)" d="M 699.305 1167.83 C 702.179 1168.57 703.42 1168.77 706.17 1169.95 C 697.494 1176.25 709.813 1196.13 715.194 1202.5 C 718.761 1206.72 722.798 1210.13 728.372 1207.72 L 728.818 1212.4 L 730.647 1213.2 C 732.74 1214.13 731.97 1213.63 733.267 1214.64 C 729.98 1215.12 726.096 1215.79 722.926 1214.44 C 709.447 1208.68 692.923 1182.06 699.305 1167.83 z"/>
<path transform="translate(0,0)" fill="rgb(215,184,132)" d="M 1067.13 667.124 C 1074.59 659.153 1090.52 662.412 1100.16 663.857 L 1100.89 663.97 C 1109.9 667.471 1120.56 669.982 1121.47 681.231 C 1118.76 679.953 1118.88 679.852 1115.94 679.616 C 1105.44 666.251 1086.12 664.815 1070.92 669.817 L 1067.13 667.124 z"/>
<path transform="translate(0,0)" fill="url(#Gradient3)" d="M 634.112 1181.12 C 647.338 1180.46 651.226 1183.66 657.87 1194.83 L 662.816 1196.39 C 675.787 1200.53 683.18 1200.04 696.693 1200.2 C 690.728 1210.6 685.063 1216.65 679.26 1228.52 C 688.837 1239.27 690.726 1246.68 679.996 1257.37 C 667.323 1264.15 661.421 1258.73 654.183 1248.37 C 637.757 1256.12 621.155 1245.57 620.875 1227.87 C 620.083 1225.39 624.639 1216.37 624.114 1214.86 C 618.552 1198.78 613.733 1190.79 634.112 1181.12 z"/>
<path transform="translate(0,0)" fill="url(#Gradient2)" d="M 1349.34 786.611 C 1337.21 775.637 1335.05 762.215 1352.27 754.139 C 1358.88 751.039 1365.34 758.789 1370.81 761.036 C 1372.41 761.694 1374.31 760.357 1376.04 759.636 C 1392.51 755.273 1401.24 760.7 1407.04 776.491 C 1407.24 783.527 1403.52 789.383 1408.25 794.524 C 1414.83 801.684 1415.59 810.856 1409.09 818.471 C 1405.32 822.808 1399.89 825.337 1394.15 825.423 C 1381.06 825.628 1383.74 817.284 1370.93 814.433 C 1356.7 811.264 1348.35 814.298 1334.76 816.99 C 1337.72 808.79 1345.19 795.436 1349.34 786.611 z"/>
<path transform="translate(0,0)" fill="rgb(237,208,130)" d="M 1376.04 759.636 C 1392.51 755.273 1401.24 760.7 1407.04 776.491 C 1403.08 778.447 1398.12 780.23 1393.74 779.428 C 1384.29 777.7 1372.53 770.445 1376.04 759.636 z"/>
<path transform="translate(0,0)" fill="url(#Gradient1)" d="M 1087.02 584.64 C 1095.46 571.258 1106.56 568.785 1120.24 576.251 C 1123.96 579.3 1128.34 586.365 1132 586.938 C 1153.68 590.329 1160.72 609.476 1141.76 622.372 C 1136.29 626.094 1116.6 624.968 1111.46 633.91 C 1106.62 639.789 1102.27 647.285 1098.1 653.746 C 1091.32 643.272 1091.68 634.159 1085.15 622.74 C 1068.14 624.157 1056.42 611.814 1067.8 595.254 C 1072.33 588.648 1083.53 596.945 1087.02 584.64 z"/>
<path transform="translate(0,0)" fill="rgb(237,208,130)" d="M 1087.02 584.64 C 1095.46 571.258 1106.56 568.785 1120.24 576.251 C 1111.87 586.205 1099.09 591.983 1087.02 584.64 z"/>
<path transform="translate(0,0)" fill="rgb(237,208,130)" d="M 1496.47 1438.5 L 1499.01 1447.6 C 1502.08 1448.66 1504.45 1449.55 1507.43 1450.82 L 1506.92 1451.78 L 1499.95 1453.91 L 1496.65 1464.24 C 1495.58 1463.18 1494.01 1457.75 1493.3 1455.85 C 1490.75 1453.06 1486.26 1452.19 1482.49 1451 C 1492.73 1448.53 1493.21 1448.89 1496.47 1438.5 z"/>
<path transform="translate(0,0)" fill="rgb(237,208,130)" d="M 661.778 653.871 C 662.588 654.774 664.132 660.334 664.751 662.099 C 668.791 665.923 670.528 664.106 673.332 666.576 C 663.768 671.181 664.683 670.421 662.12 680.599 C 660.623 672.669 659.28 669.151 651.002 667.083 C 658.444 663.122 659.395 663.92 661.465 655.233 L 661.778 653.871 z"/>
<path transform="translate(0,0)" fill="rgb(237,208,130)" d="M 1498.28 1052.67 L 1500.83 1062.32 C 1503.9 1063.28 1506.05 1063.79 1508.86 1065.44 C 1501.33 1069.91 1501.01 1068.93 1498.91 1076.92 L 1498.56 1078.3 L 1497.63 1077.36 C 1494.84 1063.97 1492.53 1071.56 1486.12 1065.47 C 1488.58 1064.66 1491.04 1063.82 1493.48 1062.96 C 1496.58 1060.22 1497.04 1056.79 1498.28 1052.67 z"/>
<path transform="translate(0,0)" fill="rgb(237,208,130)" d="M 1284.62 1395.73 C 1290.07 1401.27 1282.15 1403.34 1295 1407.16 L 1296.46 1407.58 L 1296.47 1408.48 C 1287.24 1411.43 1288.34 1411.46 1285.67 1420.34 L 1284.6 1420.38 C 1283.93 1418.06 1283.65 1415.07 1283.08 1413.32 C 1281.95 1409.89 1278.1 1411.15 1275.69 1408.22 C 1276.57 1407.63 1277.45 1407.04 1278.32 1406.43 C 1283.95 1402.5 1283.49 1402.46 1284.62 1395.73 z"/>
<path transform="translate(0,0)" fill="rgb(237,208,130)" d="M 1363.34 560.737 C 1364.46 561.976 1364.63 561.909 1364.76 563.17 C 1365.82 573.583 1372.77 569.683 1375.4 573.913 C 1372.51 574.639 1371.38 574.916 1368.54 576.032 C 1365.58 578.802 1365.33 582.03 1364.3 586.109 C 1362.98 584.571 1362.4 580.83 1361.83 578.558 C 1359.1 574.93 1356.94 575.808 1352.6 573.492 C 1360.71 569.266 1360.86 572.349 1363.03 562.23 L 1363.34 560.737 z"/>
<path transform="translate(0,0)" fill="rgb(215,184,132)" d="M 454.821 1252.67 C 455.058 1249.38 454.337 1250.18 455.956 1248.56 C 456.967 1250.99 457.456 1252.22 458.177 1254.74 C 460.627 1257.22 462.023 1257.53 465.218 1258.85 L 466.39 1259.33 C 453.857 1265.33 461.462 1263.48 456.046 1271.15 C 452.478 1261.38 453.872 1263.39 444.744 1260.01 L 446.083 1258.11 C 451.955 1256.53 451.496 1257.19 454.821 1252.67 z"/>
<path transform="translate(0,0)" fill="rgb(191,143,67)" d="M 454.821 1252.67 C 455.058 1249.38 454.337 1250.18 455.956 1248.56 C 456.967 1250.99 457.456 1252.22 458.177 1254.74 L 454.622 1256.96 L 454.821 1252.67 z"/>
<path transform="translate(0,0)" fill="rgb(237,208,130)" d="M 507.482 1067.88 C 513.088 1081.03 508.594 1072.48 516.701 1079.87 C 510.338 1084.2 509.963 1083.7 507.704 1090.8 L 507.304 1092.1 C 506.602 1091.24 505.268 1085.65 504.774 1084.17 C 501.453 1080.66 499.219 1082.48 496.882 1080.17 C 505.995 1075.77 504.786 1077.16 507.482 1067.88 z"/>
<path transform="translate(0,0)" fill="rgb(215,184,132)" d="M 1048.35 1641.72 C 1050.08 1644.22 1049.97 1647.44 1052.97 1649.23 C 1054.57 1650.18 1055.32 1651.33 1055.98 1653.05 L 1055.81 1651.56 L 1056.91 1652.87 L 1057.54 1652.89 C 1053.44 1652.42 1049.91 1660.22 1048.8 1663.24 L 1047.58 1662.82 C 1046.12 1651.88 1041.61 1657.34 1038.95 1652.3 C 1045.83 1650.27 1045.57 1650.04 1047.9 1643.12 L 1048.35 1641.72 z"/>
<path transform="translate(0,0)" fill="rgb(237,208,130)" d="M 866.985 1468.22 C 868.454 1474.25 870.739 1475.83 875.397 1479.76 L 873.659 1479.21 C 868.961 1481.93 867.912 1486.4 866.8 1491.35 C 863.461 1477.84 863.479 1484.25 857.95 1479.18 L 859.479 1478.03 C 865.088 1473.75 864.366 1475.13 866.985 1468.22 z"/>
<path transform="translate(0,0)" fill="rgb(237,208,130)" d="M 403.163 899.614 C 405.915 906.154 405.311 907.357 412.397 909.955 C 405.783 913.477 405.98 912.524 404.293 919.394 C 402.43 918.426 402.383 916.212 401.495 913.461 L 393.98 909.943 C 395.671 909.194 397.401 908.744 399.192 908.294 C 401.692 906.006 401.819 904.238 402.786 900.934 L 403.163 899.614 z"/>
<path transform="translate(0,0)" fill="rgb(237,208,130)" d="M 810.565 726.659 C 813.814 729.733 810.693 731.641 819.064 736.871 L 816.777 736.815 C 813.433 739.416 812.92 742.036 812.245 745.982 C 810.289 744.257 809.931 740.36 804.18 735.437 C 809.349 735.484 809.916 730.666 810.565 726.659 z"/>
<path transform="translate(0,0)" fill="rgb(215,184,132)" d="M 1577.19 713.641 C 1577.87 715.516 1578.7 717.352 1579.49 719.191 C 1582.42 721.219 1583.15 721.171 1584.78 724.067 C 1578.51 727.184 1579.55 727.07 1577.75 733.356 C 1574.6 728.791 1576.93 729.668 1571.37 724.34 L 1570.32 723.353 C 1575.75 720.566 1575.51 719.039 1577.19 713.641 z"/>
<path transform="translate(0,0)" fill="rgb(237,208,130)" d="M 486.182 750.678 C 486.81 753.556 487.048 754.106 488.185 756.848 C 490.429 758.53 492.399 759.599 493.576 762.082 C 486.868 764.135 487.833 765.139 485.903 771.645 C 483.839 760.049 481.437 765.738 478.504 761.216 C 485.223 756.248 484.027 757.946 486.182 750.678 z"/>
<path transform="translate(0,0)" fill="rgb(237,208,130)" d="M 723.773 479.862 C 726.981 483.258 723.554 482.99 731.328 489.598 L 729.898 489.044 L 729.861 489.645 C 725.315 491.747 725.146 494.86 724.445 499.305 C 721.931 491.345 723.379 494.55 716.964 488.658 C 722.525 485.82 721.813 485.215 723.773 479.862 z"/>
<path transform="translate(0,0)" fill="rgb(237,208,130)" d="M 902.943 393.066 C 904.058 394.605 903.878 397.969 906.415 399.251 C 907.64 399.871 908.915 401.435 909.821 402.533 C 905.015 405.114 904.564 406.005 903.043 410.989 C 898.957 403.917 903.781 407.759 896.011 401.927 C 900.493 400.309 901.043 398.384 902.557 394.172 L 902.943 393.066 z"/>
<path transform="translate(0,0)" fill="rgb(215,184,132)" d="M 1570.07 883.158 C 1569.84 882.904 1575.74 891.747 1575.72 891.652 C 1571.93 894.839 1571.34 895.631 1569.8 900.333 C 1569.18 897.778 1568.82 897.096 1567.74 894.667 C 1565.75 893.413 1564.56 892.654 1562.72 891.205 C 1569.08 887.128 1567.62 889.112 1570.07 883.158 z"/>
<path transform="translate(0,0)" fill="rgb(215,184,132)" d="M 1664.61 1093.81 C 1665.8 1095.09 1665.83 1096.1 1666.4 1097.79 C 1667.76 1098.9 1669.67 1100.22 1670.49 1101.73 C 1670.62 1102 1670.76 1102.27 1670.89 1102.54 C 1665.5 1107.26 1666.87 1105.34 1665.03 1111.51 C 1662.97 1106.18 1662.78 1105.38 1658.07 1102.14 L 1658.07 1102.1 L 1658.79 1103.24 L 1658.24 1101.97 L 1658.01 1102.83 L 1657.81 1102.07 L 1659.72 1102.51 C 1662.85 1099.05 1663.17 1098.28 1664.61 1093.81 z"/>
<path transform="translate(0,0)" fill="rgb(215,184,132)" d="M 1243.37 677.504 C 1245.8 676.342 1248.7 677.373 1249.85 679.802 C 1251 682.232 1249.96 685.133 1247.52 686.27 C 1245.1 687.398 1242.23 686.362 1241.09 683.95 C 1239.95 681.538 1240.97 678.658 1243.37 677.504 z"/>
<path transform="translate(0,0)" fill="rgb(215,184,132)" d="M 904.821 1575.64 C 906.446 1574.87 908.365 1575.06 909.801 1576.15 C 911.238 1577.23 911.953 1579.02 911.658 1580.8 C 911.363 1582.57 910.106 1584.04 908.397 1584.6 C 905.974 1585.39 903.352 1584.16 902.407 1581.8 C 901.461 1579.43 902.518 1576.73 904.821 1575.64 z"/>
<path transform="translate(0,0)" fill="rgb(215,184,132)" d="M 677.363 923.533 C 679.603 922.23 682.472 922.938 683.847 925.134 C 685.223 927.329 684.609 930.219 682.46 931.666 C 681.006 932.646 679.134 932.754 677.576 931.95 C 676.018 931.146 675.022 929.557 674.978 927.804 C 674.933 926.052 675.848 924.414 677.363 923.533 z"/>
<path transform="translate(0,0)" fill="rgb(215,184,132)" d="M 584.307 1461.69 C 585.846 1460.91 587.686 1461.02 589.122 1461.98 C 590.557 1462.94 591.366 1464.59 591.239 1466.31 C 591.111 1468.03 590.067 1469.55 588.506 1470.29 C 586.14 1471.4 583.317 1470.41 582.169 1468.06 C 581.02 1465.71 581.973 1462.87 584.307 1461.69 z"/>
<path transform="translate(0,0)" fill="rgb(215,184,132)" d="M 1081.61 1491.53 C 1083.23 1490.99 1085.01 1491.37 1086.27 1492.52 C 1087.54 1493.67 1088.08 1495.41 1087.7 1497.07 C 1087.33 1498.74 1086.08 1500.07 1084.45 1500.56 C 1081.96 1501.31 1079.34 1499.92 1078.57 1497.45 C 1077.79 1494.97 1079.14 1492.33 1081.61 1491.53 z"/>
<path transform="translate(0,0)" fill="rgb(215,184,132)" d="M 1040.29 1399.57 C 1041.82 1398.52 1043.81 1398.46 1045.4 1399.42 C 1046.99 1400.37 1047.87 1402.16 1047.66 1404 C 1047.45 1405.84 1046.19 1407.39 1044.43 1407.97 C 1042.19 1408.7 1039.76 1407.67 1038.72 1405.56 C 1037.68 1403.45 1038.35 1400.9 1040.29 1399.57 z"/>
<path transform="translate(0,0)" fill="rgb(215,184,132)" d="M 1686.17 926.484 C 1688.36 925.094 1691.27 925.752 1692.65 927.952 C 1694.04 930.152 1693.37 933.057 1691.17 934.435 C 1688.97 935.808 1686.08 935.145 1684.7 932.954 C 1683.32 930.762 1683.98 927.869 1686.17 926.484 z"/>
<path transform="translate(0,0)" fill="rgb(215,184,132)" d="M 728.93 1594.47 C 731.164 1593.36 733.877 1594.19 735.105 1596.36 C 736.333 1598.53 735.647 1601.29 733.543 1602.63 C 732.079 1603.56 730.22 1603.61 728.709 1602.76 C 727.198 1601.9 726.283 1600.28 726.329 1598.55 C 726.375 1596.81 727.376 1595.24 728.93 1594.47 z"/>
<path transform="translate(0,0)" fill="rgb(215,184,132)" d="M 1553.4 1245.63 C 1555.82 1244.94 1558.34 1246.27 1559.14 1248.66 C 1559.93 1251.04 1558.71 1253.62 1556.36 1254.52 C 1554.75 1255.13 1552.94 1254.81 1551.63 1253.69 C 1550.32 1252.56 1549.74 1250.81 1550.11 1249.13 C 1550.48 1247.45 1551.75 1246.1 1553.4 1245.63 z"/>
<path transform="translate(0,0)" fill="rgb(215,184,132)" d="M 1440.91 879.567 C 1442.33 878.609 1444.15 878.497 1445.67 879.276 C 1447.19 880.054 1448.16 881.599 1448.21 883.305 C 1448.25 885.011 1447.37 886.607 1445.89 887.468 C 1443.72 888.739 1440.93 888.057 1439.58 885.925 C 1438.24 883.794 1438.83 880.981 1440.91 879.567 z"/>
<path transform="translate(0,0)" fill="rgb(215,184,132)" d="M 575.032 1345.55 C 577.221 1344.21 580.078 1344.89 581.431 1347.07 C 582.785 1349.25 582.129 1352.11 579.963 1353.48 C 577.77 1354.87 574.867 1354.21 573.497 1352 C 572.128 1349.8 572.817 1346.9 575.032 1345.55 z"/>
<path transform="translate(0,0)" fill="rgb(191,143,67)" d="M 1334.75 1582.57 C 1336.37 1581.88 1338.23 1582.15 1339.57 1583.28 C 1340.92 1584.42 1341.51 1586.21 1341.1 1587.91 C 1340.69 1589.62 1339.35 1590.95 1337.64 1591.35 C 1335.3 1591.91 1332.92 1590.57 1332.17 1588.29 C 1331.42 1586 1332.54 1583.52 1334.75 1582.57 z"/>
<path transform="translate(0,0)" fill="rgb(215,184,132)" d="M 553.959 927.692 C 556.306 926.968 558.811 928.203 559.666 930.506 C 560.521 932.81 559.428 935.38 557.176 936.362 C 555.603 937.049 553.779 936.809 552.437 935.738 C 551.095 934.668 550.454 932.943 550.773 931.257 C 551.092 929.57 552.318 928.198 553.959 927.692 z"/>
<path transform="translate(0,0)" fill="rgb(237,208,130)" d="M 1414.14 1305.71 C 1416.52 1304.94 1419.09 1306.21 1419.92 1308.58 C 1420.75 1310.95 1419.54 1313.54 1417.19 1314.43 C 1415.62 1315.03 1413.86 1314.72 1412.57 1313.64 C 1411.29 1312.55 1410.7 1310.86 1411.02 1309.21 C 1411.35 1307.57 1412.54 1306.23 1414.14 1305.71 z"/>
<path transform="translate(0,0)" fill="rgb(215,184,132)" d="M 1173.54 1569.43 C 1175.13 1568.78 1176.95 1569.07 1178.26 1570.18 C 1179.57 1571.29 1180.15 1573.03 1179.78 1574.71 C 1179.41 1576.38 1178.14 1577.71 1176.48 1578.16 C 1174.12 1578.8 1171.68 1577.49 1170.9 1575.18 C 1170.12 1572.87 1171.28 1570.35 1173.54 1569.43 z"/>
<path transform="translate(0,0)" fill="rgb(215,184,132)" d="M 789.199 613.552 C 790.522 612.549 792.286 612.342 793.806 613.013 C 795.325 613.683 796.362 615.125 796.513 616.779 C 796.665 618.433 795.908 620.039 794.535 620.974 C 792.485 622.371 789.696 621.879 788.248 619.865 C 786.8 617.851 787.222 615.05 789.199 613.552 z"/>
<path transform="translate(0,0)" fill="rgb(215,184,132)" d="M 581.194 575.546 C 583.116 573.97 585.95 574.248 587.529 576.167 C 589.108 578.086 588.836 580.92 586.92 582.503 C 585 584.091 582.155 583.818 580.571 581.893 C 578.988 579.969 579.267 577.125 581.194 575.546 z"/>
<path transform="translate(0,0)" fill="rgb(215,184,132)" d="M 1123.07 458.486 C 1124.42 457.555 1126.18 457.459 1127.63 458.238 C 1129.08 459.018 1129.97 460.541 1129.94 462.184 C 1129.9 463.827 1128.95 465.314 1127.48 466.036 C 1125.42 467.044 1122.93 466.291 1121.77 464.309 C 1120.61 462.327 1121.18 459.787 1123.07 458.486 z"/>
<path transform="translate(0,0)" fill="rgb(215,184,132)" d="M 1507.38 623.528 C 1509.48 622.532 1512 623.356 1513.1 625.404 C 1514.21 627.452 1513.52 630.006 1511.53 631.216 C 1510.15 632.058 1508.41 632.068 1507.02 631.243 C 1505.63 630.419 1504.81 628.894 1504.88 627.278 C 1504.96 625.663 1505.92 624.22 1507.38 623.528 z"/>
<path transform="translate(0,0)" fill="rgb(215,184,132)" d="M 370.019 1154.71 C 372.171 1153.91 374.576 1154.94 375.482 1157.05 C 376.388 1159.16 375.475 1161.61 373.409 1162.62 C 371.981 1163.31 370.287 1163.17 369.001 1162.24 C 367.715 1161.31 367.045 1159.74 367.258 1158.17 C 367.47 1156.6 368.531 1155.27 370.019 1154.71 z"/>
</svg>