<svg version="1.1" xmlns="http://www.w3.org/2000/svg" style="display: block;" viewBox="0 0 2048 2048" width="1024" height="1024" preserveAspectRatio="none">
<path transform="translate(0,0)" fill="rgb(12,21,50)" d="M 0 0 L 2048 0 L 2048 2048 L 0 2048 L 0 0 z"/>
<path transform="translate(0,0)" fill="rgb(212,178,105)" d="M 1125.01 1772.97 C 757.248 1822.5 407.936 1597.7 300.674 1242.46 C 193.412 887.22 359.94 506.662 693.66 344.391 C 1027.38 182.12 1429.54 286.153 1642.71 589.896 C 1855.88 893.639 1816.98 1307.21 1550.91 1565.88 C 1434.8 1678.76 1285.5 1751.35 1125.01 1772.97 z"/>
<path transform="translate(0,0)" fill="rgb(12,21,50)" d="M 1123.35 1754.09 C 1117.89 1754.07 1108.98 1755.63 1103.32 1756.3 C 898.873 1780.47 683.603 1708.26 532.085 1569.49 C 384.664 1436.82 297.137 1250.18 289.395 1052 C 282.217 859.223 351.051 671.343 481.068 528.833 C 614.09 382.203 800.689 295.504 998.54 288.402 C 1189.55 281.314 1375.69 349.601 1516.8 478.53 C 1663.83 611.428 1751.03 798.024 1758.65 996.071 C 1765.34 1166.45 1712.2 1333.79 1608.44 1469.1 C 1582.72 1502.91 1565.37 1519.31 1537.87 1549.22 C 1516.88 1567.84 1499.83 1584.23 1477.53 1601.89 C 1400.64 1662.66 1312.45 1707.57 1218.09 1734.02 C 1191.47 1741.43 1164.55 1747.22 1137.29 1751.54 C 1132.96 1752.23 1127.46 1752.88 1123.35 1754.09 z"/>
<path transform="translate(0,0)" fill="rgb(52,132,191)" d="M 1023.73 557.83 C 1024.95 559.329 1036.35 583.726 1038.52 588.045 C 1045 600.917 1052.4 613.41 1059.18 625.621 C 1104.91 708.044 1211.65 862.646 1215.25 955.532 C 1216.82 1005.39 1198.39 1053.8 1164.06 1089.99 C 1127.24 1129.57 1079.15 1149.02 1025.67 1150.86 C 999.926 1150.94 974.423 1145.89 950.653 1136 C 903.351 1116.32 865.895 1078.52 846.642 1031.05 C 824.06 975.081 831.416 930.083 852.859 876.064 C 882.928 800.314 927.033 731.557 968.073 661.499 C 987.954 627.561 1008.36 594.125 1023.73 557.83 z"/>
<path transform="translate(0,0)" fill="rgb(12,21,50)" d="M 975.899 720.077 L 977.887 720.139 C 948.308 785.887 903.155 885.417 904.269 958.45 C 904.652 976.625 908.19 994.595 914.724 1011.56 C 929.564 1050.35 960.52 1084.65 998.758 1101.34 C 1004.1 1103.72 1009.59 1105.75 1015.19 1107.44 L 1012.5 1109.97 C 992.744 1109.3 972.962 1103.06 955.464 1094.04 C 918.876 1075.31 891.369 1042.64 879.146 1003.39 C 871.054 977.637 869.22 954.21 875.798 927.964 C 888.587 876.938 913.446 830.07 938.805 784.352 C 950.746 762.826 964.586 741.905 975.899 720.077 z"/>
<path transform="translate(0,0)" fill="rgb(11,33,78)" d="M 1015.19 1107.44 C 1020.45 1108.77 1023.08 1109.3 1028.09 1111.54 L 1012.5 1109.97 L 1015.19 1107.44 z"/>
<path transform="translate(0,0)" fill="rgb(30,81,128)" d="M 975.899 720.077 C 976.511 718.719 977.139 717.369 977.785 716.027 C 979.021 713.518 979.811 711.687 982.236 710.831 C 981.983 714.316 979.78 717.091 977.887 720.139 L 975.899 720.077 z"/>
<path transform="translate(0,0)" fill="rgb(52,132,191)" d="M 1242.41 938.186 C 1352.19 954.977 1465.9 979.702 1560.69 1040.27 C 1613.67 1074.12 1657.03 1140.35 1613 1198.13 C 1549.74 1281.16 1406.03 1320.5 1307.71 1338.87 C 1090.17 1378.45 868.451 1374.72 653.463 1318.33 C 571.261 1296.77 351.487 1214.87 435.273 1089.69 C 488.218 1010.59 646.148 967.081 737.253 949.695 C 758.321 945.88 784.901 940.281 806.054 938.503 C 805.574 947.264 805.243 956.033 805.06 964.805 C 783.659 965.837 761.228 970.812 740.224 975.028 C 661.094 990.91 564.604 1016.62 498.143 1064.23 C 474.36 1081.27 448.087 1105.9 443.651 1136.46 C 440.804 1156.07 449.914 1175.35 461.76 1190.42 C 529.951 1277.14 736.397 1315.59 841.767 1328.53 C 1029.82 1351.62 1266.32 1340.21 1444.63 1275.36 C 1484.5 1260.86 1525.56 1243.41 1559.1 1216.96 C 1579.97 1200.5 1601.79 1177.22 1604.54 1149.46 C 1606.65 1128.19 1596.1 1108.67 1582.79 1092.93 C 1528.56 1028.79 1394.11 992.855 1315.2 976.628 C 1291.58 971.771 1267.04 966.621 1243 964.624 C 1242.94 955.808 1242.75 946.995 1242.41 938.186 z"/>
<path transform="translate(0,0)" fill="rgb(52,132,191)" d="M 1237.52 1009.56 C 1253.86 1012.88 1270.12 1016.56 1286.3 1020.6 C 1329.19 1033.44 1362.76 1044.71 1401.24 1068.68 C 1438.28 1091.75 1468.24 1136.48 1437.86 1177.39 C 1395.5 1234.41 1293.21 1261.44 1226.32 1273.54 C 1078.8 1299.38 932.355 1297.88 785.299 1265.59 C 723.658 1252.06 548.907 1197.41 611.504 1101.23 C 642.556 1053.52 750.026 1019.94 807.91 1010.35 L 809.495 1010.38 C 811.481 1012.38 816.106 1029.63 817.333 1033.63 C 776.985 1042.09 587.571 1086.24 631.006 1162.26 C 655.213 1204.63 757.509 1234.54 805.706 1244.21 C 960.812 1274.87 1125.05 1274.4 1278.85 1235.28 C 1316.31 1225.75 1461.28 1179.92 1415.95 1116.16 C 1383.47 1070.46 1285.56 1045.33 1230.77 1033.78 C 1233.2 1026.28 1235.42 1017.27 1237.52 1009.56 z"/>
<path transform="translate(0,0)" fill="rgb(52,132,191)" d="M 1218.03 1061.48 C 1230.93 1065.34 1243.58 1068.97 1256.21 1073.66 C 1276.68 1081.6 1308.29 1097.98 1315.3 1120.16 C 1331.3 1170.84 1246.19 1195.04 1211.49 1202.79 C 1100.98 1227.42 983.247 1228.73 871.724 1209.71 C 832.933 1203.09 745.78 1184.86 732.492 1142.61 C 717.544 1095.08 796.173 1071.43 828.573 1062.06 C 831.972 1061.9 841.71 1080.78 843.888 1084.44 C 831.17 1087.71 818.608 1091.56 806.241 1095.97 C 787.329 1102.91 733.762 1127.71 767.909 1148.29 C 834.646 1188.53 932.09 1193.71 1007.9 1196.46 C 1049.72 1197.98 1087.47 1195.28 1126.46 1191.19 C 1207.31 1182.7 1402.71 1139.78 1204.02 1084.3 C 1209.45 1076.22 1213.27 1069.97 1218.03 1061.48 z"/>
<path transform="translate(0,0)" fill="rgb(174,130,58)" d="M 1537.87 1549.22 C 1532.09 1558.68 1516.88 1571.64 1508.09 1579.3 C 1457.78 1623.57 1401.61 1660.69 1341.16 1689.62 C 1337.24 1691.48 1316.91 1701.24 1315.17 1703.23 L 1314.9 1704.69 C 1316.7 1704.95 1318.49 1705.23 1320.29 1705.53 C 1343.37 1709.19 1343.62 1707.96 1363.91 1697.47 C 1402.97 1677.37 1440.33 1654.11 1475.6 1627.93 C 1489.71 1617.35 1503.46 1606.29 1516.81 1594.77 C 1523.18 1589.21 1545 1568.17 1549.89 1565.66 L 1550.91 1565.88 C 1434.8 1678.76 1285.5 1751.35 1125.01 1772.97 L 1125.14 1771.14 C 1153.3 1770.36 1278 1739.04 1297.64 1724.84 C 1300.64 1722.67 1304.45 1719.36 1304.69 1715.38 C 1304.89 1711.93 1302.72 1709.79 1300.53 1707.52 C 1249.12 1729.16 1191.09 1744.58 1136 1753.84 C 1131.74 1754.56 1127.35 1755.76 1123.35 1754.09 C 1127.46 1752.88 1132.96 1752.23 1137.29 1751.54 C 1164.55 1747.22 1191.47 1741.43 1218.09 1734.02 C 1312.45 1707.57 1400.64 1662.66 1477.53 1601.89 C 1499.83 1584.23 1516.88 1567.84 1537.87 1549.22 z"/>
<path transform="translate(0,0)" fill="rgb(248,249,252)" d="M 1899.63 118.301 C 1900.68 121.259 1901.83 126.055 1902.71 129.217 C 1906.01 130.375 1909.83 131.389 1913.23 132.381 L 1902.88 135.576 C 1901.67 139.429 1900.64 143.571 1899.58 147.49 L 1896.44 135.658 L 1884.93 132.308 C 1888.81 131.413 1892.33 130.461 1896.16 129.394 C 1897.46 125.873 1898.54 121.928 1899.63 118.301 z"/>
<path transform="translate(0,0)" fill="rgb(174,210,231)" d="M 1646.46 400.889 C 1648.59 406.187 1647.17 408.075 1650.83 412.996 C 1654.3 415.417 1657.9 415.24 1662.25 415.67 L 1649.85 419.693 C 1648.76 422.834 1647.95 426.752 1647.16 430.055 L 1646.55 429.985 C 1645.37 426.323 1644.51 423 1643.54 419.272 L 1632.89 416.185 C 1636.71 415.147 1640.45 413.92 1644.22 412.727 L 1646.46 400.889 z"/>
<path transform="translate(0,0)" fill="rgb(248,249,252)" d="M 237.781 1695.54 L 239.013 1699.54 C 242.346 1710.35 244.57 1704.55 250.042 1709.74 C 240.59 1712.24 239.87 1713.55 238.561 1723.04 L 238.368 1724.51 C 234.828 1715.93 237.12 1713.65 226.326 1708.92 C 234.534 1706.39 235.1 1704.86 237.374 1696.99 L 237.781 1695.54 z"/>
<path transform="translate(0,0)" fill="rgb(248,249,252)" d="M 237.159 130.624 C 238.526 129.776 240.247 129.743 241.645 130.537 C 243.044 131.331 243.897 132.826 243.869 134.434 C 243.842 136.042 242.938 137.507 241.513 138.252 C 239.417 139.349 236.83 138.59 235.658 136.537 C 234.486 134.483 235.15 131.87 237.159 130.624 z"/>
<path transform="translate(0,0)" fill="rgb(248,249,252)" d="M 1493.14 117.514 C 1495.32 116.555 1497.87 117.528 1498.86 119.698 C 1499.85 121.869 1498.91 124.431 1496.75 125.449 C 1495.33 126.121 1493.66 125.975 1492.37 125.068 C 1491.09 124.16 1490.39 122.632 1490.55 121.068 C 1490.71 119.504 1491.7 118.146 1493.14 117.514 z"/>
<path transform="translate(0,0)" fill="rgb(248,249,252)" d="M 1891.41 1881.8 C 1892.99 1881.43 1894.65 1881.99 1895.68 1883.25 C 1896.72 1884.5 1896.96 1886.22 1896.32 1887.71 C 1895.67 1889.2 1894.23 1890.2 1892.61 1890.29 C 1890.38 1890.42 1888.42 1888.81 1888.1 1886.6 C 1887.79 1884.38 1889.23 1882.29 1891.41 1881.8 z"/>
<path transform="translate(0,0)" fill="rgb(248,249,252)" d="M 157.246 786.61 C 159.333 785.827 161.667 786.825 162.543 788.875 C 163.419 790.924 162.528 793.301 160.52 794.268 C 159.138 794.934 157.502 794.787 156.261 793.886 C 155.019 792.984 154.374 791.474 154.58 789.954 C 154.786 788.433 155.81 787.149 157.246 786.61 z"/>
<path transform="translate(0,0)" fill="rgb(248,249,252)" d="M 627.342 1881.72 C 629.388 1881.52 631.278 1882.83 631.79 1884.83 C 632.302 1886.82 631.283 1888.88 629.391 1889.69 C 627.885 1890.33 626.142 1890.03 624.939 1888.92 C 623.736 1887.81 623.295 1886.1 623.814 1884.54 C 624.332 1882.99 625.713 1881.89 627.342 1881.72 z"/>
<path transform="translate(0,0)" fill="rgb(248,249,252)" d="M 1889.34 818.439 C 1890.78 818.095 1892.29 818.564 1893.29 819.663 C 1894.28 820.762 1894.6 822.315 1894.11 823.715 C 1893.62 825.115 1892.41 826.138 1890.95 826.384 C 1888.8 826.746 1886.74 825.334 1886.31 823.192 C 1885.87 821.05 1887.21 818.948 1889.34 818.439 z"/>
</svg>