<svg version="1.1" xmlns="http://www.w3.org/2000/svg" style="display: block;" viewBox="0 0 2048 2048" width="1024" height="1024" preserveAspectRatio="none">
<defs>
	<linearGradient id="Gradient1" gradientUnits="userSpaceOnUse" x1="948.388" y1="1533.94" x2="1098.72" y2="512.518">
		<stop class="stop0" offset="0" stop-opacity="1" stop-color="rgb(179,130,65)"/>
		<stop class="stop1" offset="1" stop-opacity="1" stop-color="rgb(238,209,130)"/>
	</linearGradient>
	<linearGradient id="Gradient2" gradientUnits="userSpaceOnUse" x1="1180.4" y1="1181.59" x2="1124.92" y2="1122.8">
		<stop class="stop0" offset="0" stop-opacity="1" stop-color="rgb(69,73,85)"/>
		<stop class="stop1" offset="1" stop-opacity="1" stop-color="rgb(146,116,96)"/>
	</linearGradient>
	<linearGradient id="Gradient3" gradientUnits="userSpaceOnUse" x1="1304.8" y1="1011.61" x2="1204.27" y2="951.011">
		<stop class="stop0" offset="0" stop-opacity="1" stop-color="rgb(69,71,83)"/>
		<stop class="stop1" offset="1" stop-opacity="1" stop-color="rgb(158,124,94)"/>
	</linearGradient>
	<linearGradient id="Gradient4" gradientUnits="userSpaceOnUse" x1="917.944" y1="1323.78" x2="907.045" y2="1265.93">
		<stop class="stop0" offset="0" stop-opacity="1" stop-color="rgb(66,68,76)"/>
		<stop class="stop1" offset="1" stop-opacity="1" stop-color="rgb(114,95,89)"/>
	</linearGradient>
</defs>
<path transform="translate(0,0)" fill="rgb(14,25,46)" d="M 0 0 L 2048 0 L 2048 2048 L 0 2048 L 0 0 z"/>
<path transform="translate(0,0)" fill="rgb(14,25,46)" d="M 1448.32 726.118 C 1453.82 736.445 1464.17 750.097 1470.6 761.231 C 1492.17 797.981 1509.15 837.232 1521.17 878.109 C 1559.64 1009.17 1544.66 1150.14 1479.48 1270.19 C 1412.98 1391.9 1300.9 1482.26 1167.84 1521.44 C 1037.61 1559.29 897.693 1544.19 778.533 1479.42 C 655.842 1412.82 564.838 1299.97 525.748 1165.96 C 488.625 1034.58 504.628 893.873 570.306 774.187 C 637.054 653.334 749.049 563.923 881.683 525.596 C 989.201 495.196 1103.63 500.045 1208.19 539.432 C 1244.69 553.576 1266.17 565.952 1299.82 584.779 C 1304.56 584.307 1327.32 601.441 1333.64 605.51 C 1340.98 605.474 1352.92 606.066 1359.44 609.369 L 1361.92 608.946 C 1368.14 606.362 1382.17 585.193 1390.66 583.152 C 1398.84 575.095 1407.29 564.862 1414.55 555.944 C 1416.98 568.008 1418.22 579.3 1419.07 591.58 C 1424.04 599.638 1420.13 627.49 1418.73 637.665 C 1424.75 645.754 1424.35 687.585 1427.96 697.971 C 1429.71 702.99 1448.9 717.332 1448.32 726.118 z"/>
<path transform="translate(0,0)" fill="rgb(254,252,246)" d="M 1414.55 555.944 C 1416.98 568.008 1418.22 579.3 1419.07 591.58 C 1424.04 599.638 1420.13 627.49 1418.73 637.665 C 1416.61 649.328 1415.11 659.331 1411.41 670.629 C 1411.75 670.903 1412.09 671.177 1412.42 671.45 C 1418.99 679.313 1417.38 688.901 1417.99 698.06 C 1418.91 712.075 1408.05 715.423 1404.4 723.952 C 1395.81 744.035 1385.7 764.843 1377.2 785.145 C 1375.16 790.019 1375.83 798.554 1373.2 803.579 C 1371.88 806.087 1372.49 811.593 1372.68 814.596 L 1373.91 815.298 C 1377.88 812.796 1380.27 810.194 1384.23 809.941 C 1389.72 819.019 1375.03 865.802 1371.18 877.365 C 1369.92 880.098 1365.87 888.412 1365.51 890.878 C 1363.85 902.475 1365.41 913.932 1358.72 924.354 C 1355.21 929.835 1350.93 936.199 1345.94 940.414 C 1331.08 952.977 1327.69 971.405 1315.42 986.231 C 1304.07 999.946 1287.6 1010.24 1280.53 1027.06 C 1279.91 1028.53 1279.6 1028.85 1278.52 1030 L 1279.02 1031.94 C 1284.3 1030.83 1284.3 1028.98 1287.93 1030.05 C 1290.69 1039.94 1265.83 1085.51 1256.97 1092.59 C 1254.47 1098.82 1255.86 1107.04 1251.74 1112.03 C 1239.73 1126.51 1224.68 1139.22 1211.38 1152.69 C 1207.43 1156.69 1193.95 1163.08 1190.72 1166.87 C 1177.98 1181.84 1174.74 1186.63 1156.3 1195.73 C 1154.76 1196.49 1153.2 1197.24 1151.64 1197.96 L 1153.55 1198.96 C 1153.37 1207.93 1128.67 1231.7 1121.6 1239.46 C 1119.38 1241.9 1107.71 1249.88 1107.08 1251.62 C 1098.86 1275.39 1088.45 1270.41 1069.9 1278.61 C 1059.24 1283.31 1042.71 1298.48 1030.64 1299.15 C 1002.33 1300.72 974.107 1302.24 945.805 1305.21 C 935.03 1306.34 924.786 1304.59 914.036 1304.36 C 876.788 1305.08 838.138 1306.13 804.113 1323.2 C 794.334 1328.11 781.301 1333.84 771.983 1339.02 C 759.475 1345.97 747.82 1355.17 733.808 1359.97 C 730.277 1361.43 726.953 1361.15 723.183 1360.59 C 720.672 1365.16 716.361 1374.79 711.786 1376.18 C 706.508 1371.74 701.676 1366.67 696.805 1361.77 C 692.245 1355.9 683.648 1349.02 678.108 1342.22 L 679.639 1341.61 C 669.308 1329.85 659.32 1318.44 650.021 1305.83 C 649.543 1238.77 655.512 1187.02 672.782 1123.15 C 704.204 997.969 800.481 910.608 915.149 858.651 C 1032.26 805.586 1157.25 760.623 1264.87 687.549 C 1305.89 659.695 1358.26 621.951 1390.66 583.152 C 1398.84 575.095 1407.29 564.862 1414.55 555.944 z"/>
<path transform="translate(0,0)" fill="rgb(128,104,89)" d="M 1365.71 758.012 C 1372.49 756.175 1387.59 725.385 1392.26 719.027 C 1397.04 712.522 1406.38 680.223 1411.4 678.589 C 1421.26 693.076 1401.48 719.142 1395.84 731.879 C 1388.13 749.265 1381.26 767.009 1373.4 784.332 C 1368.05 796.094 1369.02 811.042 1365.23 822.027 C 1363.41 827.289 1343.2 836.596 1341.1 842.417 C 1340.13 843.33 1339.73 843.794 1338.7 844.494 C 1248.65 905.813 1140.01 943.881 1034.38 968.053 C 1028.1 969.489 989.986 978.111 985.554 977.359 C 991.611 975.055 998.524 973.424 1005.03 971.065 C 1028.78 962.319 1052.48 953.437 1076.13 944.417 C 1150.54 915.763 1243.87 870.896 1305.29 819.505 C 1319.69 807.431 1333.29 794.438 1346.02 780.608 C 1350.82 775.31 1361.88 761.49 1365.71 758.012 z"/>
<path transform="translate(0,0)" fill="url(#Gradient4)" d="M 1101.47 1252.5 C 1104.81 1253.42 1103.02 1253.29 1107.08 1251.62 C 1098.86 1275.39 1088.45 1270.41 1069.9 1278.61 C 1059.24 1283.31 1042.71 1298.48 1030.64 1299.15 C 1002.33 1300.72 974.107 1302.24 945.805 1305.21 C 935.03 1306.34 924.786 1304.59 914.036 1304.36 C 876.788 1305.08 838.138 1306.13 804.113 1323.2 C 794.334 1328.11 781.301 1333.84 771.983 1339.02 C 759.475 1345.97 747.82 1355.17 733.808 1359.97 C 730.277 1361.43 726.953 1361.15 723.183 1360.59 C 720.672 1365.16 716.361 1374.79 711.786 1376.18 C 706.508 1371.74 701.676 1366.67 696.805 1361.77 C 692.245 1355.9 683.648 1349.02 678.108 1342.22 L 679.639 1341.61 C 686.441 1346.31 705.944 1367.53 712.85 1374.42 C 756.025 1298.11 819.253 1266.61 905.507 1275.58 C 980.091 1283.33 1033.37 1292.66 1101.47 1252.5 z"/>
<path transform="translate(0,0)" fill="url(#Gradient3)" d="M 1369.62 875.752 L 1371.18 877.365 C 1369.92 880.098 1365.87 888.412 1365.51 890.878 C 1363.85 902.475 1365.41 913.932 1358.72 924.354 C 1355.21 929.835 1350.93 936.199 1345.94 940.414 C 1331.08 952.977 1327.69 971.405 1315.42 986.231 C 1304.07 999.946 1287.6 1010.24 1280.53 1027.06 C 1279.91 1028.53 1279.6 1028.85 1278.52 1030 L 1279.02 1031.94 C 1284.3 1030.83 1284.3 1028.98 1287.93 1030.05 C 1290.69 1039.94 1265.83 1085.51 1256.97 1092.59 L 1255.62 1091.7 C 1271.02 1070.98 1279.92 1055.56 1286.87 1030.86 C 1252.58 1046.82 1185.7 1072.58 1147.88 1076.29 C 1148.8 1075.54 1149.55 1075.05 1150.7 1074.69 C 1152.39 1074.16 1153.76 1073.93 1155.03 1072.55 C 1156.65 1070.79 1158.04 1067.88 1157.29 1065.46 C 1156.29 1062.28 1149.54 1055.13 1146.59 1053.71 C 1144.98 1052.94 1146.26 1053.93 1144.53 1052.14 C 1147.66 1048.35 1158.35 1048.68 1162.7 1043.56 C 1173.93 1038.53 1186.99 1034.54 1198.58 1029.45 C 1273.72 996.487 1337.66 954.704 1369.62 875.752 z"/>
<path transform="translate(0,0)" fill="url(#Gradient2)" d="M 1055.3 1184.56 C 1068.51 1181.92 1083.42 1180.94 1097.12 1177.93 C 1162.76 1163.49 1210.61 1142.59 1255.62 1091.7 L 1256.97 1092.59 C 1254.47 1098.82 1255.86 1107.04 1251.74 1112.03 C 1239.73 1126.51 1224.68 1139.22 1211.38 1152.69 C 1207.43 1156.69 1193.95 1163.08 1190.72 1166.87 C 1177.98 1181.84 1174.74 1186.63 1156.3 1195.73 C 1154.76 1196.49 1153.2 1197.24 1151.64 1197.96 L 1153.55 1198.96 C 1153.37 1207.93 1128.67 1231.7 1121.6 1239.46 C 1119.38 1241.9 1107.71 1249.88 1107.08 1251.62 C 1103.02 1253.29 1104.81 1253.42 1101.47 1252.5 C 1124.3 1235.61 1136.33 1223.71 1151.89 1199.81 C 1116.37 1208.45 1061.96 1212.71 1025.58 1207.1 C 1031.7 1206.16 1042.97 1206.79 1049.61 1206.98 C 1053.46 1200.29 1058.73 1193 1057.29 1185.57 L 1055.3 1184.56 z"/>
<path transform="translate(0,0)" fill="rgb(128,104,89)" d="M 1147.88 1076.29 C 1141.22 1078.6 1122.85 1081.09 1115.62 1082.08 C 1074.29 1087.93 1032.54 1090.37 990.809 1089.36 C 986.527 1089.28 973.167 1089.38 970.021 1088.33 C 972.477 1087.21 992.521 1084.73 997.19 1083.93 C 1016.69 1080.58 1036.13 1076.83 1055.47 1072.68 C 1097.34 1063.63 1122.78 1055.52 1162.7 1043.56 C 1158.35 1048.68 1147.66 1048.35 1144.53 1052.14 C 1146.26 1053.93 1144.98 1052.94 1146.59 1053.71 C 1149.54 1055.13 1156.29 1062.28 1157.29 1065.46 C 1158.04 1067.88 1156.65 1070.79 1155.03 1072.55 C 1153.76 1073.93 1152.39 1074.16 1150.7 1074.69 C 1149.55 1075.05 1148.8 1075.54 1147.88 1076.29 z"/>
<path transform="translate(0,0)" fill="rgb(128,104,89)" d="M 915.03 1184.38 C 953.277 1190.38 1017.22 1188.29 1055.3 1184.56 L 1057.29 1185.57 C 1058.73 1193 1053.46 1200.29 1049.61 1206.98 C 1042.97 1206.79 1031.7 1206.16 1025.58 1207.1 C 1001.59 1206.26 936.55 1194.12 915.03 1184.38 z"/>
<path transform="translate(0,0)" fill="rgb(88,82,82)" d="M 1419.07 591.58 C 1424.04 599.638 1420.13 627.49 1418.73 637.665 C 1416.61 649.328 1415.11 659.331 1411.41 670.629 C 1411.75 670.903 1412.09 671.177 1412.42 671.45 C 1418.99 679.313 1417.38 688.901 1417.99 698.06 C 1418.91 712.075 1408.05 715.423 1404.4 723.952 C 1395.81 744.035 1385.7 764.843 1377.2 785.145 C 1375.16 790.019 1375.83 798.554 1373.2 803.579 C 1371.88 806.087 1372.49 811.593 1372.68 814.596 L 1373.91 815.298 C 1377.88 812.796 1380.27 810.194 1384.23 809.941 C 1389.72 819.019 1375.03 865.802 1371.18 877.365 L 1369.62 875.752 C 1378.21 851.332 1381.86 837.266 1383.24 810.778 C 1374.13 818.49 1351.03 837.639 1341.1 842.417 C 1343.2 836.596 1363.41 827.289 1365.23 822.027 C 1369.02 811.042 1368.05 796.094 1373.4 784.332 C 1381.26 767.009 1388.13 749.265 1395.84 731.879 C 1401.48 719.142 1421.26 693.076 1411.4 678.589 C 1406.38 680.223 1397.04 712.522 1392.26 719.027 C 1387.59 725.385 1372.49 756.175 1365.71 758.012 C 1369.33 750.883 1382.03 733.2 1387.21 723.793 C 1412.79 677.4 1418.87 642.903 1419.07 591.58 z"/>
<path transform="translate(0,0)" fill="url(#Gradient1)" d="M 1448.32 726.118 C 1453.82 736.445 1464.17 750.097 1470.6 761.231 C 1492.17 797.981 1509.15 837.232 1521.17 878.109 C 1559.64 1009.17 1544.66 1150.14 1479.48 1270.19 C 1412.98 1391.9 1300.9 1482.26 1167.84 1521.44 C 1037.61 1559.29 897.693 1544.19 778.533 1479.42 C 655.842 1412.82 564.838 1299.97 525.748 1165.96 C 488.625 1034.58 504.628 893.873 570.306 774.187 C 637.054 653.334 749.049 563.923 881.683 525.596 C 989.201 495.196 1103.63 500.045 1208.19 539.432 C 1244.69 553.576 1266.17 565.952 1299.82 584.779 C 1304.45 589.144 1317.62 595.747 1320.37 599.141 C 1321.39 602.132 1321.71 602.256 1324.23 604.154 C 1322.27 607.431 1323.61 606.251 1320.05 607.77 C 1316.87 606.974 1315.6 606.542 1312.52 605.371 C 1309.4 606.502 1302.42 611.763 1300.65 611.009 C 1296.2 609.113 1296.4 606.512 1290.73 606.418 C 1285.77 603.893 1280.1 600.384 1275.35 597.403 C 1244.08 577.808 1211.37 565.02 1176.85 552.523 C 1166.44 549.635 1156.04 546.675 1145.66 543.644 C 1118.16 537.658 1094.2 532.964 1065.88 530.581 C 958.836 521.399 851.721 547.405 760.807 604.649 C 647.743 676.187 568.135 790.122 539.842 920.891 C 512.24 1048.46 536.763 1181.77 607.957 1291.17 C 679.534 1402.1 792.203 1480.1 921.232 1508.05 C 1048.62 1535.4 1181.65 1511.05 1291.1 1440.37 C 1402.52 1368.63 1480.77 1255.45 1508.53 1125.87 C 1535.47 997.835 1510.61 864.34 1439.39 754.581 C 1432.56 744.16 1425.04 734.65 1418.31 724.639 C 1421.84 716.687 1425.32 708.714 1428.75 700.72 C 1430.75 703.312 1447.48 725.597 1448.32 726.118 z"/>
<path transform="translate(0,0)" fill="rgb(235,207,137)" d="M 1145.66 543.644 C 1150.46 541.535 1149.66 543.556 1154.85 542.746 C 1162.71 541.519 1173.11 544.981 1176.85 552.523 C 1166.44 549.635 1156.04 546.675 1145.66 543.644 z"/>
<path transform="translate(0,0)" fill="rgb(88,82,82)" d="M 1361.92 608.946 C 1368.14 606.362 1382.17 585.193 1390.66 583.152 C 1358.26 621.951 1305.89 659.695 1264.87 687.549 C 1157.25 760.623 1032.26 805.586 915.149 858.651 C 800.481 910.608 704.204 997.969 672.782 1123.15 C 655.512 1187.02 649.543 1238.77 650.021 1305.83 C 659.32 1318.44 669.308 1329.85 679.639 1341.61 L 678.108 1342.22 C 683.648 1349.02 692.245 1355.9 696.805 1361.77 C 687.233 1361.22 678.655 1357.04 671.645 1350.64 C 662.934 1342.42 643.124 1332.08 640.361 1320.93 C 618.601 1233.35 634.889 1138.19 670.88 1056.52 C 679.215 1037.61 695.441 1013.22 704.918 993.873 C 708.734 986.081 725.947 967.034 732.476 959.007 C 785.953 893.26 862.959 849.266 939.324 815.156 C 942.777 813.531 946.171 811.522 949.549 809.785 C 986.467 790.602 1026.44 775.932 1065.37 761.305 C 1086.55 753.348 1108.54 739.895 1130.43 732.151 C 1143.04 727.692 1157.59 717.971 1169.64 711.756 C 1195.19 698.581 1221.45 686.455 1245.02 669.903 C 1262.47 658.555 1285.11 648.861 1302.99 637.017 C 1310.71 633.422 1319.43 621.098 1326.99 618.5 C 1346.41 611.823 1345.5 628.013 1361.92 608.946 z"/>
<path transform="translate(0,0)" fill="rgb(235,207,137)" d="M 1320.37 599.141 C 1323.06 600.924 1326.54 603.088 1328.98 605.062 C 1322.95 610.42 1317.23 615.506 1310.95 620.561 C 1304.14 615.938 1297.4 611.224 1290.73 606.418 C 1296.4 606.512 1296.2 609.113 1300.65 611.009 C 1302.42 611.763 1309.4 606.502 1312.52 605.371 C 1315.6 606.542 1316.87 606.974 1320.05 607.77 C 1323.61 606.251 1322.27 607.431 1324.23 604.154 C 1321.71 602.256 1321.39 602.132 1320.37 599.141 z"/>
<path transform="translate(0,0)" fill="rgb(35,81,115)" d="M 1619.33 410.692 C 1620.65 414.249 1621.73 420.499 1622.51 424.389 C 1626.05 425.09 1630.66 425.378 1633.62 426.974 C 1630.08 428.083 1626.54 429.149 1622.99 430.173 C 1620.91 432.522 1620.67 438.52 1619.93 442.332 C 1618.24 438.959 1617.41 433.423 1616.63 429.561 L 1601 427.011 L 1616.42 424.302 C 1617.14 419.806 1618.31 415.15 1619.33 410.692 z"/>
<path transform="translate(0,0)" fill="rgb(35,81,115)" d="M 499.017 564.59 C 501.578 569.422 499.855 571.247 502.719 577.052 C 506.698 580.771 508.774 578.849 513.069 580.998 C 508.5 582.311 506.914 582.62 502.817 584.847 C 500.741 587.639 500.591 593.835 499.693 598.148 C 494.907 582.624 498.665 582.914 480.293 581.167 C 485.743 580.421 490.923 579.369 496.313 578.322 L 499.017 564.59 z"/>
<path transform="translate(0,0)" fill="rgb(35,81,115)" d="M 1619.25 1586.74 C 1620.46 1590.81 1621.56 1595.16 1622.68 1599.27 L 1631.94 1601.87 L 1631.59 1602.7 L 1622.38 1604.93 C 1621.4 1608.41 1620.57 1612.35 1619.73 1615.91 C 1617.72 1614.16 1616.99 1607.94 1616.24 1604.66 L 1607.12 1602.61 C 1616.45 1600.2 1617.4 1594.77 1619.25 1586.74 z"/>
<path transform="translate(0,0)" fill="rgb(35,81,115)" d="M 401.166 1394.63 C 406.046 1406.13 400.776 1405.9 415.592 1409.05 L 403.897 1412.66 C 403.169 1416.65 402.479 1420.66 401.825 1424.66 C 400.601 1421.33 399.75 1416.1 399.034 1412.48 L 387.677 1409.47 L 398.362 1406.05 L 401.166 1394.63 z"/>
<path transform="translate(0,0)" fill="rgb(35,81,115)" d="M 1545.24 1387.76 C 1549.57 1402.47 1547.4 1394.8 1556.05 1402.83 L 1548.34 1405.58 C 1547.37 1409.22 1546.36 1412.85 1545.3 1416.47 C 1544.2 1412.81 1543.26 1409.09 1542.29 1405.39 L 1531.23 1402.27 L 1542.34 1399.31 C 1543.44 1395.79 1544.36 1391.41 1545.24 1387.76 z"/>
</svg>